G04 Layer_Physical_Order=1*
G04 Layer_Color=255*
%FSLAX25Y25*%
%MOIN*%
G70*
G01*
G75*
%ADD10R,0.05315X0.04528*%
G04:AMPARAMS|DCode=11|XSize=21.65mil|YSize=57.09mil|CornerRadius=0mil|HoleSize=0mil|Usage=FLASHONLY|Rotation=315.000|XOffset=0mil|YOffset=0mil|HoleType=Round|Shape=Round|*
%AMOVALD11*
21,1,0.03543,0.02165,0.00000,0.00000,45.0*
1,1,0.02165,-0.01253,-0.01253*
1,1,0.02165,0.01253,0.01253*
%
%ADD11OVALD11*%

G04:AMPARAMS|DCode=12|XSize=21.65mil|YSize=57.09mil|CornerRadius=0mil|HoleSize=0mil|Usage=FLASHONLY|Rotation=225.000|XOffset=0mil|YOffset=0mil|HoleType=Round|Shape=Round|*
%AMOVALD12*
21,1,0.03543,0.02165,0.00000,0.00000,315.0*
1,1,0.02165,-0.01253,0.01253*
1,1,0.02165,0.01253,-0.01253*
%
%ADD12OVALD12*%

%ADD13R,0.06693X0.03937*%
%ADD14R,0.04528X0.05315*%
%ADD15R,0.04528X0.06890*%
%ADD16R,0.04500X0.04500*%
%ADD17R,0.16500X0.07500*%
%ADD18R,0.07500X0.16500*%
%ADD19R,0.03937X0.05906*%
G04:AMPARAMS|DCode=20|XSize=55.12mil|YSize=45.28mil|CornerRadius=0mil|HoleSize=0mil|Usage=FLASHONLY|Rotation=315.000|XOffset=0mil|YOffset=0mil|HoleType=Round|Shape=Rectangle|*
%AMROTATEDRECTD20*
4,1,4,-0.03550,0.00348,-0.00348,0.03550,0.03550,-0.00348,0.00348,-0.03550,-0.03550,0.00348,0.0*
%
%ADD20ROTATEDRECTD20*%

%ADD21R,0.03150X0.01575*%
%ADD22R,0.03937X0.03543*%
%ADD23R,0.11614X0.06614*%
%ADD24R,0.04528X0.05512*%
%ADD25R,0.05906X0.03937*%
%ADD26R,0.08268X0.05512*%
%ADD27C,0.03000*%
%ADD28C,0.01000*%
%ADD29C,0.02000*%
%ADD30C,0.11811*%
%ADD31C,0.07874*%
%ADD32C,0.07000*%
%ADD33R,0.07000X0.07000*%
%ADD34R,0.05906X0.05906*%
%ADD35C,0.05906*%
%ADD36R,0.07000X0.07000*%
%ADD37C,0.05512*%
%ADD38C,0.01500*%
%ADD39C,0.03000*%
%ADD40C,0.05000*%
G36*
X209791Y199184D02*
X210731Y198463D01*
X211471Y198156D01*
Y195133D01*
X201867Y185529D01*
X200485D01*
X200302Y185802D01*
X199476Y186355D01*
X198500Y186549D01*
X197937Y186437D01*
X198049Y187000D01*
X197985Y187322D01*
X209081Y198419D01*
X209413Y198915D01*
X209529Y199500D01*
Y199525D01*
X209791Y199184D01*
D02*
G37*
G36*
X201825Y198010D02*
X203000Y197855D01*
X204175Y198010D01*
X204468Y198131D01*
X195822Y189485D01*
X195500Y189549D01*
X194525Y189355D01*
X193698Y188802D01*
X193529Y188551D01*
Y190760D01*
X201085Y198316D01*
X201825Y198010D01*
D02*
G37*
G36*
X146471Y195000D02*
X146587Y194415D01*
X146919Y193919D01*
X151971Y188866D01*
Y183551D01*
X151802Y183802D01*
X150976Y184355D01*
X150000Y184549D01*
X149261Y184402D01*
X144529Y189134D01*
Y198156D01*
X145269Y198463D01*
X146209Y199184D01*
X146471Y199525D01*
Y195000D01*
D02*
G37*
G36*
X176471Y190633D02*
X156322Y170485D01*
X156000Y170549D01*
X155851Y170519D01*
X155855Y170525D01*
X156049Y171500D01*
X156039Y171548D01*
X174081Y189590D01*
X174413Y190086D01*
X174529Y190672D01*
Y198156D01*
X175269Y198463D01*
X176209Y199184D01*
X176471Y199525D01*
Y190633D01*
D02*
G37*
G36*
X156471Y179133D02*
X156014Y178677D01*
X155855Y179475D01*
X155302Y180302D01*
X155029Y180485D01*
Y189500D01*
X154932Y189988D01*
X154913Y190085D01*
X154581Y190581D01*
X149529Y195633D01*
Y197894D01*
X156471D01*
Y179133D01*
D02*
G37*
G36*
X189587Y68651D02*
X189919Y68155D01*
X205922Y52151D01*
X205616Y51411D01*
X205461Y50236D01*
X205616Y49062D01*
X206069Y47967D01*
X206791Y47027D01*
X207731Y46306D01*
X208825Y45852D01*
X210000Y45697D01*
X211175Y45852D01*
X212269Y46306D01*
X213209Y47027D01*
X213931Y47967D01*
X214384Y49062D01*
X214406Y49225D01*
Y41247D01*
X214384Y41411D01*
X213931Y42506D01*
X213209Y43446D01*
X212269Y44167D01*
X211175Y44620D01*
X210000Y44775D01*
X208825Y44620D01*
X207731Y44167D01*
X206791Y43446D01*
X206069Y42506D01*
X205616Y41411D01*
X205461Y40236D01*
X205616Y39061D01*
X206069Y37967D01*
X206791Y37027D01*
X207731Y36305D01*
X208026Y36183D01*
Y32658D01*
X206291D01*
Y25343D01*
X212819D01*
Y32658D01*
X211085D01*
Y35840D01*
X211175Y35852D01*
X212269Y36305D01*
X213209Y37027D01*
X213931Y37967D01*
X214384Y39061D01*
X214406Y39225D01*
Y32658D01*
X213181D01*
Y25343D01*
X214406D01*
Y18555D01*
X214561Y17775D01*
X215003Y17113D01*
X245961Y-13845D01*
Y-14756D01*
X245579Y-13833D01*
X244945Y-13008D01*
X244119Y-12374D01*
X243158Y-11976D01*
X242126Y-11840D01*
X241094Y-11976D01*
X240630Y-12168D01*
X189529Y38933D01*
Y68941D01*
X189587Y68651D01*
D02*
G37*
G36*
X195587Y82651D02*
X195919Y82155D01*
X205922Y72151D01*
X205616Y71411D01*
X205461Y70236D01*
X205616Y69061D01*
X206069Y67967D01*
X206791Y67027D01*
X207731Y66306D01*
X208825Y65852D01*
X210000Y65697D01*
X211175Y65852D01*
X212269Y66306D01*
X213209Y67027D01*
X213931Y67967D01*
X214384Y69061D01*
X214406Y69225D01*
Y61247D01*
X214384Y61411D01*
X213931Y62506D01*
X213209Y63446D01*
X212269Y64167D01*
X211175Y64620D01*
X210000Y64775D01*
X208825Y64620D01*
X208085Y64314D01*
X195529Y76870D01*
Y82941D01*
X195587Y82651D01*
D02*
G37*
G36*
X205922Y82151D02*
X205616Y81411D01*
X205461Y80236D01*
X205616Y79062D01*
X206069Y77967D01*
X206791Y77027D01*
X207731Y76306D01*
X208825Y75852D01*
X210000Y75697D01*
X211175Y75852D01*
X212269Y76306D01*
X213209Y77027D01*
X213931Y77967D01*
X214384Y79062D01*
X214406Y79225D01*
Y71247D01*
X214384Y71411D01*
X213931Y72506D01*
X213209Y73446D01*
X212269Y74167D01*
X211175Y74620D01*
X210000Y74775D01*
X208825Y74620D01*
X208085Y74314D01*
X198529Y83870D01*
Y86000D01*
X198413Y86585D01*
X198081Y87081D01*
X190692Y94471D01*
X193603D01*
X205922Y82151D01*
D02*
G37*
G36*
X1883Y201025D02*
X2977Y199238D01*
X4338Y197645D01*
X5931Y196284D01*
X7718Y195190D01*
X7748Y195177D01*
X3531D01*
Y191600D01*
X1529Y189598D01*
Y201878D01*
X1883Y201025D01*
D02*
G37*
G36*
X15791Y217199D02*
X17725Y216612D01*
X19508Y215660D01*
X21070Y214377D01*
X22353Y212815D01*
X23305Y211032D01*
X23892Y209098D01*
X24090Y207087D01*
X23892Y205075D01*
X23305Y203141D01*
X22353Y201358D01*
X21070Y199796D01*
X19508Y198514D01*
X17725Y197561D01*
X15791Y196974D01*
X13780Y196776D01*
X11768Y196974D01*
X9834Y197561D01*
X8051Y198514D01*
X6489Y199796D01*
X5206Y201358D01*
X4254Y203141D01*
X3667Y205075D01*
X3469Y207087D01*
X3667Y209098D01*
X4254Y211032D01*
X5206Y212815D01*
X6489Y214377D01*
X8051Y215660D01*
X9834Y216612D01*
X11768Y217199D01*
X13780Y217397D01*
X15791Y217199D01*
D02*
G37*
G36*
X128520Y123271D02*
X141505Y110287D01*
X136188D01*
X136802Y110698D01*
X137355Y111524D01*
X137549Y112500D01*
X137355Y113476D01*
X136802Y114302D01*
X135976Y114855D01*
X135000Y115049D01*
X134025Y114855D01*
X133198Y114302D01*
X132681Y113529D01*
X132024D01*
X132355Y114024D01*
X132549Y115000D01*
X132355Y115975D01*
X131802Y116802D01*
X130975Y117355D01*
X130000Y117549D01*
X129025Y117355D01*
X128596Y117069D01*
X128901Y117525D01*
X129095Y118500D01*
X128901Y119475D01*
X128348Y120302D01*
X127521Y120855D01*
X126546Y121049D01*
X126228Y120986D01*
X126213Y121060D01*
X126342Y121034D01*
X127155Y121196D01*
X127844Y121656D01*
X128304Y122345D01*
X128466Y123158D01*
X128440Y123287D01*
X128520Y123271D01*
D02*
G37*
G36*
X205711Y91641D02*
X205616Y91411D01*
X205461Y90236D01*
X205616Y89061D01*
X206069Y87967D01*
X206791Y87027D01*
X207731Y86305D01*
X208825Y85852D01*
X210000Y85697D01*
X211175Y85852D01*
X211405Y85947D01*
X214406Y82947D01*
Y81247D01*
X214384Y81411D01*
X213931Y82506D01*
X213209Y83446D01*
X212269Y84167D01*
X211175Y84620D01*
X210000Y84775D01*
X208825Y84620D01*
X208085Y84314D01*
X195438Y96961D01*
X200392D01*
X205711Y91641D01*
D02*
G37*
G36*
X90534Y123158D02*
X90696Y122345D01*
X91156Y121656D01*
X91845Y121196D01*
X92658Y121034D01*
X92787Y121060D01*
X92772Y120986D01*
X92454Y121049D01*
X91479Y120855D01*
X90652Y120302D01*
X90099Y119475D01*
X89905Y118500D01*
X90099Y117525D01*
X90652Y116698D01*
X91479Y116145D01*
X92239Y115994D01*
X82775Y106529D01*
X77985D01*
X77802Y106802D01*
X76976Y107355D01*
X76000Y107549D01*
X75024Y107355D01*
X74198Y106802D01*
X74029Y106551D01*
Y111275D01*
X85494Y122739D01*
X85645Y121979D01*
X86198Y121152D01*
X87024Y120599D01*
X88000Y120405D01*
X88976Y120599D01*
X89802Y121152D01*
X90355Y121979D01*
X90549Y122954D01*
X90486Y123272D01*
X90560Y123287D01*
X90534Y123158D01*
D02*
G37*
G36*
X101670Y112022D02*
X101831Y111209D01*
X102292Y110520D01*
X102980Y110060D01*
X103793Y109898D01*
X104606Y110060D01*
X105295Y110520D01*
X105466Y110692D01*
X114739Y101419D01*
X115235Y101087D01*
X115525Y101029D01*
X110634D01*
X101529Y110134D01*
Y112050D01*
X101615Y112135D01*
X101695Y112151D01*
X101670Y112022D01*
D02*
G37*
G36*
X97225Y116525D02*
X88919Y108219D01*
X88587Y107723D01*
X88471Y107137D01*
Y106985D01*
X88198Y106802D01*
X87645Y105975D01*
X87451Y105000D01*
X87645Y104025D01*
X88198Y103198D01*
X89025Y102645D01*
X90000Y102451D01*
X90975Y102645D01*
X91802Y103198D01*
X92355Y104025D01*
X92549Y105000D01*
X92355Y105975D01*
X91813Y106787D01*
X99388Y114363D01*
X99468Y114378D01*
X99452Y114298D01*
X98919Y113765D01*
X98587Y113268D01*
X98471Y112683D01*
Y109500D01*
X98587Y108915D01*
X98919Y108419D01*
X108919Y98419D01*
X109415Y98087D01*
X109704Y98029D01*
X80891D01*
X76391Y102529D01*
X76976Y102645D01*
X77802Y103198D01*
X77985Y103471D01*
X83408D01*
X83994Y103587D01*
X84490Y103919D01*
X97161Y116590D01*
X97241Y116605D01*
X97225Y116525D01*
D02*
G37*
G36*
X208500Y165529D02*
X206633D01*
X206081Y166081D01*
X205585Y166413D01*
X205000Y166529D01*
X188645D01*
X188453Y166993D01*
X187819Y167819D01*
X186993Y168453D01*
X186950Y168471D01*
X208500D01*
Y165529D01*
D02*
G37*
G36*
X117471Y170367D02*
Y167950D01*
X117385Y167865D01*
X117305Y167849D01*
X117330Y167978D01*
X117169Y168791D01*
X116709Y169480D01*
X116020Y169940D01*
X115207Y170101D01*
X114394Y169940D01*
X113705Y169480D01*
X113534Y169308D01*
X109029Y173813D01*
Y175515D01*
X109302Y175698D01*
X109855Y176524D01*
X110049Y177500D01*
X109977Y177860D01*
X117471Y170367D01*
D02*
G37*
G36*
X171547Y163007D02*
X172181Y162181D01*
X173007Y161547D01*
X173050Y161529D01*
X146985D01*
X146802Y161802D01*
X146529Y161985D01*
Y162976D01*
X147025Y162645D01*
X148000Y162451D01*
X148976Y162645D01*
X149802Y163198D01*
X149985Y163471D01*
X171355D01*
X171547Y163007D01*
D02*
G37*
G36*
X173007Y158453D02*
X172181Y157819D01*
X171547Y156993D01*
X171149Y156032D01*
X171013Y155000D01*
X171149Y153968D01*
X171547Y153007D01*
X172181Y152181D01*
X173007Y151547D01*
X173050Y151529D01*
X160634D01*
X155081Y157081D01*
X154585Y157413D01*
X154000Y157529D01*
X145394D01*
X145975Y157645D01*
X146802Y158198D01*
X146985Y158471D01*
X173050D01*
X173007Y158453D01*
D02*
G37*
G36*
X199012Y163432D02*
X198915Y163413D01*
X198419Y163081D01*
X191867Y156529D01*
X188645D01*
X188453Y156993D01*
X187819Y157819D01*
X186993Y158453D01*
X186032Y158851D01*
X185000Y158987D01*
X183968Y158851D01*
X183007Y158453D01*
X182181Y157819D01*
X181547Y156993D01*
X181149Y156032D01*
X181013Y155000D01*
X181149Y153968D01*
X181341Y153504D01*
X179367Y151529D01*
X176950D01*
X176993Y151547D01*
X177819Y152181D01*
X178453Y153007D01*
X178851Y153968D01*
X178987Y155000D01*
X178851Y156032D01*
X178453Y156993D01*
X177819Y157819D01*
X176993Y158453D01*
X176950Y158471D01*
X180000D01*
X180585Y158587D01*
X181081Y158919D01*
X183504Y161341D01*
X183968Y161149D01*
X185000Y161013D01*
X186032Y161149D01*
X186993Y161547D01*
X187819Y162181D01*
X188453Y163007D01*
X188645Y163471D01*
X199205D01*
X199012Y163432D01*
D02*
G37*
G36*
X229307Y239906D02*
X228673Y239080D01*
X228481Y238616D01*
X212087D01*
X211501Y238500D01*
X211005Y238168D01*
X192367Y219529D01*
X189692D01*
X210633Y240471D01*
X230043D01*
X229307Y239906D01*
D02*
G37*
G36*
X192587Y75651D02*
X192919Y75155D01*
X205922Y62151D01*
X205616Y61411D01*
X205461Y60236D01*
X205616Y59061D01*
X206069Y57967D01*
X206791Y57027D01*
X207731Y56305D01*
X208825Y55852D01*
X210000Y55697D01*
X211175Y55852D01*
X212269Y56305D01*
X213209Y57027D01*
X213931Y57967D01*
X214384Y59061D01*
X214406Y59225D01*
Y51247D01*
X214384Y51411D01*
X213931Y52506D01*
X213209Y53446D01*
X212269Y54167D01*
X211175Y54620D01*
X210000Y54775D01*
X208825Y54620D01*
X208085Y54314D01*
X192529Y69870D01*
Y75941D01*
X192587Y75651D01*
D02*
G37*
G36*
X244139Y24292D02*
X246074Y23705D01*
X247858Y22752D01*
X249421Y21469D01*
X250705Y19905D01*
X251658Y18122D01*
X252245Y16186D01*
X252443Y14173D01*
X252245Y12160D01*
X251658Y10225D01*
X250705Y8441D01*
X249421Y6878D01*
X247858Y5595D01*
X246074Y4641D01*
X244139Y4054D01*
X242126Y3856D01*
X240113Y4054D01*
X238178Y4641D01*
X236394Y5595D01*
X234831Y6878D01*
X233547Y8441D01*
X232594Y10225D01*
X232007Y12160D01*
X231809Y14173D01*
X232007Y16186D01*
X232594Y18122D01*
X233547Y19905D01*
X234831Y21469D01*
X236394Y22752D01*
X238178Y23705D01*
X240113Y24292D01*
X242126Y24490D01*
X244139Y24292D01*
D02*
G37*
G36*
X15792D02*
X17728Y23705D01*
X19512Y22752D01*
X21075Y21469D01*
X22358Y19905D01*
X23311Y18122D01*
X23899Y16186D01*
X24097Y14173D01*
X23899Y12160D01*
X23311Y10225D01*
X22358Y8441D01*
X21075Y6878D01*
X19512Y5595D01*
X17728Y4641D01*
X15792Y4054D01*
X13780Y3856D01*
X11767Y4054D01*
X9831Y4641D01*
X8048Y5595D01*
X6484Y6878D01*
X5201Y8441D01*
X4248Y10225D01*
X3661Y12160D01*
X3462Y14173D01*
X3661Y16186D01*
X4248Y18122D01*
X5201Y19905D01*
X6484Y21469D01*
X8048Y22752D01*
X9831Y23705D01*
X11767Y24292D01*
X13780Y24490D01*
X15792Y24292D01*
D02*
G37*
G36*
X246111Y263735D02*
X248046Y263148D01*
X249828Y262195D01*
X251391Y260913D01*
X252673Y259350D01*
X253626Y257568D01*
X254213Y255633D01*
X254399Y253738D01*
X254376Y253622D01*
Y19399D01*
X254029Y20238D01*
X252933Y22025D01*
X251572Y23619D01*
X249978Y24981D01*
X248191Y26076D01*
X246254Y26878D01*
X244216Y27367D01*
X242126Y27532D01*
X240036Y27367D01*
X237998Y26878D01*
X236061Y26076D01*
X234274Y24981D01*
X232680Y23619D01*
X231318Y22025D01*
X230223Y20238D01*
X229421Y18301D01*
X228932Y16263D01*
X228767Y14173D01*
X228932Y12083D01*
X229421Y10045D01*
X230223Y8108D01*
X230932Y6952D01*
X218484Y19400D01*
Y25343D01*
X219709D01*
Y32658D01*
X218484D01*
Y83791D01*
X218484Y83791D01*
X218329Y84572D01*
X217887Y85233D01*
X214289Y88831D01*
X214384Y89061D01*
X214539Y90236D01*
X214384Y91411D01*
X213931Y92506D01*
X213209Y93446D01*
X212269Y94167D01*
X211175Y94620D01*
X210000Y94775D01*
X208825Y94620D01*
X208595Y94525D01*
X207384Y95736D01*
X213086D01*
X209293Y99529D01*
X205500Y103322D01*
Y97620D01*
X202678Y100442D01*
X202017Y100884D01*
X201236Y101039D01*
X175198D01*
X176032Y101149D01*
X176993Y101547D01*
X177819Y102181D01*
X178453Y103007D01*
X178851Y103968D01*
X178987Y105000D01*
X178851Y106032D01*
X178453Y106993D01*
X177819Y107819D01*
X176993Y108453D01*
X176032Y108851D01*
X175000Y108987D01*
X173968Y108851D01*
X173007Y108453D01*
X172181Y107819D01*
X171547Y106993D01*
X171149Y106032D01*
X171013Y105000D01*
X171149Y103968D01*
X171547Y103007D01*
X172181Y102181D01*
X173007Y101547D01*
X173968Y101149D01*
X174802Y101039D01*
X169845D01*
X169539Y101345D01*
Y112655D01*
X169845Y112961D01*
X171582D01*
X172181Y112181D01*
X173007Y111547D01*
X173968Y111149D01*
X175000Y111013D01*
X176032Y111149D01*
X176993Y111547D01*
X177819Y112181D01*
X178453Y113007D01*
X178851Y113968D01*
X178987Y115000D01*
X178851Y116032D01*
X178453Y116993D01*
X177819Y117819D01*
X176993Y118453D01*
X176032Y118851D01*
X175000Y118987D01*
X173968Y118851D01*
X173007Y118453D01*
X172181Y117819D01*
X171582Y117039D01*
X169000D01*
X168220Y116884D01*
X167558Y116442D01*
X166058Y114942D01*
X165616Y114280D01*
X165461Y113500D01*
Y100500D01*
X165616Y99720D01*
X166058Y99058D01*
X167558Y97558D01*
X167601Y97529D01*
X167462D01*
X152029Y112962D01*
Y121271D01*
X151932Y121759D01*
X151913Y121856D01*
X151581Y122353D01*
X139592Y134342D01*
X139440Y135106D01*
X138980Y135795D01*
X136474Y138300D01*
X135785Y138760D01*
X134973Y138922D01*
X134160Y138760D01*
X133471Y138300D01*
X133011Y137611D01*
X132849Y136799D01*
X132875Y136669D01*
X132745Y136695D01*
X131933Y136533D01*
X131244Y136073D01*
X130784Y135384D01*
X130622Y134571D01*
X130648Y134442D01*
X130518Y134468D01*
X129706Y134306D01*
X129017Y133846D01*
X128557Y133157D01*
X128395Y132344D01*
X128421Y132215D01*
X128291Y132241D01*
X127479Y132079D01*
X126790Y131619D01*
X126329Y130930D01*
X126168Y130117D01*
X126193Y129988D01*
X126064Y130014D01*
X125251Y129852D01*
X124563Y129392D01*
X124102Y128703D01*
X123941Y127890D01*
X123966Y127761D01*
X123837Y127787D01*
X123024Y127625D01*
X122336Y127164D01*
X121875Y126476D01*
X121713Y125663D01*
X121739Y125534D01*
X121610Y125559D01*
X120797Y125398D01*
X120108Y124937D01*
X119648Y124249D01*
X119486Y123436D01*
X119512Y123307D01*
X119383Y123332D01*
X118570Y123171D01*
X117881Y122710D01*
X117421Y122021D01*
X117259Y121209D01*
X117285Y121079D01*
X117156Y121105D01*
X116343Y120943D01*
X115654Y120483D01*
X115194Y119794D01*
X115032Y118982D01*
X115058Y118852D01*
X114929Y118878D01*
X114116Y118716D01*
X113427Y118256D01*
X112967Y117567D01*
X112805Y116754D01*
X112831Y116625D01*
X112701Y116651D01*
X111889Y116489D01*
X111200Y116029D01*
X110740Y115340D01*
X110578Y114527D01*
X110740Y113715D01*
X111200Y113026D01*
X113705Y110520D01*
X114394Y110060D01*
X115158Y109908D01*
X120062Y105004D01*
X120558Y104673D01*
X121143Y104556D01*
X137578D01*
X137198Y104302D01*
X137015Y104029D01*
X116454D01*
X107629Y112855D01*
X107800Y113026D01*
X108260Y113715D01*
X108422Y114527D01*
X108260Y115340D01*
X107800Y116029D01*
X107111Y116489D01*
X106298Y116651D01*
X106169Y116625D01*
X106195Y116754D01*
X106033Y117567D01*
X105573Y118256D01*
X104884Y118716D01*
X104071Y118878D01*
X103942Y118852D01*
X103968Y118982D01*
X103806Y119794D01*
X103346Y120483D01*
X102657Y120943D01*
X101844Y121105D01*
X101715Y121079D01*
X101741Y121209D01*
X101579Y122021D01*
X101119Y122710D01*
X100430Y123171D01*
X99617Y123332D01*
X99488Y123307D01*
X99514Y123436D01*
X99352Y124249D01*
X98892Y124937D01*
X98203Y125398D01*
X97390Y125559D01*
X97261Y125534D01*
X97286Y125663D01*
X97125Y126476D01*
X96665Y127164D01*
X95976Y127625D01*
X95163Y127786D01*
X95034Y127761D01*
X95059Y127890D01*
X94898Y128703D01*
X94437Y129392D01*
X93748Y129852D01*
X92936Y130014D01*
X92807Y129988D01*
X92832Y130117D01*
X92671Y130930D01*
X92210Y131619D01*
X91521Y132079D01*
X90709Y132241D01*
X90579Y132215D01*
X90605Y132344D01*
X90443Y133157D01*
X89983Y133846D01*
X89294Y134306D01*
X88482Y134468D01*
X88352Y134442D01*
X88378Y134571D01*
X88216Y135384D01*
X87756Y136073D01*
X87067Y136533D01*
X86255Y136695D01*
X86125Y136669D01*
X86151Y136799D01*
X85989Y137611D01*
X85529Y138300D01*
X84840Y138760D01*
X84027Y138922D01*
X83215Y138760D01*
X82526Y138300D01*
X80020Y135795D01*
X79560Y135106D01*
X79408Y134342D01*
X79095Y134029D01*
X76985D01*
X76802Y134302D01*
X75976Y134855D01*
X75000Y135049D01*
X74024Y134855D01*
X73198Y134302D01*
X72645Y133475D01*
X72451Y132500D01*
X72645Y131525D01*
X72976Y131029D01*
X51578D01*
X38709Y143899D01*
Y148658D01*
X32181D01*
Y141342D01*
X36939D01*
X49863Y128419D01*
X50360Y128087D01*
X50945Y127971D01*
X81183D01*
X81768Y128087D01*
X82265Y128419D01*
X83798Y129952D01*
X83878Y129968D01*
X83863Y129888D01*
X69419Y115444D01*
X69087Y114948D01*
X68971Y114363D01*
Y103429D01*
X69087Y102844D01*
X69419Y102348D01*
X79347Y92419D01*
X79844Y92087D01*
X80429Y91971D01*
X140515D01*
X140698Y91698D01*
X141525Y91145D01*
X142500Y90951D01*
X143475Y91145D01*
X144302Y91698D01*
X144855Y92524D01*
X145049Y93500D01*
X144855Y94476D01*
X144302Y95302D01*
X143475Y95855D01*
X142500Y96049D01*
X141525Y95855D01*
X141405Y95775D01*
X141549Y96500D01*
X141355Y97475D01*
X140802Y98302D01*
X139976Y98855D01*
X139000Y99049D01*
X138024Y98855D01*
X137905Y98775D01*
X138049Y99500D01*
X137905Y100225D01*
X138024Y100145D01*
X139000Y99951D01*
X139976Y100145D01*
X140802Y100698D01*
X141355Y101524D01*
X141549Y102500D01*
X141355Y103475D01*
X140802Y104302D01*
X140422Y104556D01*
X141578D01*
X161216Y84919D01*
X161712Y84587D01*
X162297Y84471D01*
X178366D01*
X183471Y79366D01*
Y31299D01*
X183587Y30714D01*
X183919Y30218D01*
X228467Y-14331D01*
X228275Y-14795D01*
X228139Y-15827D01*
X228275Y-16859D01*
X228673Y-17820D01*
X229307Y-18646D01*
X230133Y-19279D01*
X231094Y-19678D01*
X232126Y-19814D01*
X233158Y-19678D01*
X234119Y-19279D01*
X234945Y-18646D01*
X235579Y-17820D01*
X235977Y-16859D01*
X236113Y-15827D01*
X235977Y-14795D01*
X235579Y-13833D01*
X234945Y-13008D01*
X234119Y-12374D01*
X233158Y-11976D01*
X232126Y-11840D01*
X231094Y-11976D01*
X230630Y-12168D01*
X186529Y31933D01*
Y38004D01*
X186587Y37714D01*
X186919Y37218D01*
X238467Y-14331D01*
X238275Y-14795D01*
X238139Y-15827D01*
X238275Y-16859D01*
X238673Y-17820D01*
X239307Y-18646D01*
X240132Y-19279D01*
X241094Y-19678D01*
X242126Y-19814D01*
X243158Y-19678D01*
X244119Y-19279D01*
X244945Y-18646D01*
X245579Y-17820D01*
X245961Y-16898D01*
Y-19108D01*
X243101Y-21968D01*
X242126Y-21840D01*
X241094Y-21976D01*
X240132Y-22374D01*
X239307Y-23008D01*
X238673Y-23833D01*
X238275Y-24795D01*
X238139Y-25827D01*
X238275Y-26859D01*
X238673Y-27820D01*
X239307Y-28646D01*
X240132Y-29280D01*
X241094Y-29678D01*
X242126Y-29814D01*
X243158Y-29678D01*
X244119Y-29280D01*
X244945Y-28646D01*
X245579Y-27820D01*
X245977Y-26859D01*
X246113Y-25827D01*
X245985Y-24852D01*
X249442Y-21395D01*
X249884Y-20733D01*
X250039Y-19953D01*
Y-13000D01*
X249884Y-12220D01*
X249442Y-11558D01*
X234905Y2979D01*
X236061Y2270D01*
X237998Y1468D01*
X240036Y979D01*
X242126Y814D01*
X244216Y979D01*
X246254Y1468D01*
X248191Y2270D01*
X249978Y3366D01*
X251572Y4727D01*
X252933Y6321D01*
X254029Y8108D01*
X254376Y8947D01*
Y-33150D01*
X254396Y-33247D01*
X254207Y-35161D01*
X253620Y-37095D01*
X252667Y-38878D01*
X251385Y-40440D01*
X249823Y-41723D01*
X248040Y-42675D01*
X246106Y-43262D01*
X244192Y-43451D01*
X244094Y-43431D01*
X185039D01*
X184974Y-43444D01*
X184108Y-43272D01*
X183318Y-42745D01*
X182791Y-41955D01*
X182619Y-41089D01*
X182632Y-41024D01*
Y74803D01*
X182649D01*
X182462Y76222D01*
X181915Y77545D01*
X181043Y78681D01*
X179907Y79552D01*
X178585Y80100D01*
X177165Y80287D01*
X175746Y80100D01*
X174423Y79552D01*
X173288Y78681D01*
X172416Y77545D01*
X171868Y76222D01*
X171681Y74803D01*
X171699D01*
Y3937D01*
X171712Y3871D01*
X171540Y3006D01*
X171012Y2216D01*
X170223Y1688D01*
X169357Y1516D01*
X169291Y1529D01*
X122608D01*
X122990Y1688D01*
X124021Y2479D01*
X124812Y3510D01*
X125310Y4711D01*
X125480Y6000D01*
X125310Y7289D01*
X124812Y8490D01*
X124021Y9521D01*
X122990Y10312D01*
X121789Y10810D01*
X120500Y10980D01*
X119211Y10810D01*
X118010Y10312D01*
X116979Y9521D01*
X116188Y8490D01*
X115690Y7289D01*
X115520Y6000D01*
X115690Y4711D01*
X116188Y3510D01*
X116979Y2479D01*
X118010Y1688D01*
X118392Y1529D01*
X70608D01*
X70990Y1688D01*
X72021Y2479D01*
X72812Y3510D01*
X73310Y4711D01*
X73480Y6000D01*
X73310Y7289D01*
X72812Y8490D01*
X72021Y9521D01*
X70990Y10312D01*
X69789Y10810D01*
X68500Y10980D01*
X67211Y10810D01*
X66010Y10312D01*
X64979Y9521D01*
X64188Y8490D01*
X63690Y7289D01*
X63520Y6000D01*
X63690Y4711D01*
X64188Y3510D01*
X64979Y2479D01*
X66010Y1688D01*
X66392Y1529D01*
X18055D01*
X19844Y2270D01*
X21632Y3366D01*
X23226Y4727D01*
X24587Y6321D01*
X25682Y8108D01*
X26485Y10045D01*
X26974Y12083D01*
X27138Y14173D01*
X26974Y16263D01*
X26485Y18301D01*
X25682Y20238D01*
X24587Y22025D01*
X23226Y23619D01*
X21632Y24981D01*
X19844Y26076D01*
X17908Y26878D01*
X15869Y27367D01*
X13780Y27532D01*
X11690Y27367D01*
X9651Y26878D01*
X7715Y26076D01*
X5927Y24981D01*
X4333Y23619D01*
X2972Y22025D01*
X1877Y20238D01*
X1529Y19399D01*
Y129690D01*
X3531Y127688D01*
Y122929D01*
X9469D01*
Y125353D01*
X24382D01*
X24967Y125469D01*
X25463Y125801D01*
X34678Y135015D01*
X35000Y134951D01*
X35976Y135145D01*
X36802Y135698D01*
X37355Y136524D01*
X37549Y137500D01*
X37355Y138476D01*
X36802Y139302D01*
X35976Y139855D01*
X35000Y140049D01*
X34025Y139855D01*
X33198Y139302D01*
X32645Y138476D01*
X32451Y137500D01*
X32515Y137178D01*
X23748Y128411D01*
X9469D01*
Y130835D01*
X4710D01*
X3529Y132015D01*
Y139748D01*
X3531Y139751D01*
Y133165D01*
X9469D01*
Y135589D01*
X12382D01*
X12967Y135705D01*
X13463Y136037D01*
X20897Y143471D01*
X25291D01*
Y141342D01*
X31819D01*
Y148658D01*
X25291D01*
Y146529D01*
X20264D01*
X19679Y146413D01*
X19182Y146081D01*
X11748Y138647D01*
X9469D01*
Y140929D01*
Y148835D01*
X4710D01*
X3529Y150015D01*
Y157748D01*
X3531Y157750D01*
Y151165D01*
X9469D01*
Y153589D01*
X11867D01*
X14037Y151419D01*
X14533Y151087D01*
X15118Y150971D01*
X25291D01*
Y148843D01*
X31819D01*
Y156158D01*
X25291D01*
Y154029D01*
X15752D01*
X13581Y156200D01*
X13085Y156531D01*
X12500Y156648D01*
X9469D01*
Y158929D01*
Y166835D01*
X4710D01*
X3529Y168015D01*
Y187272D01*
X5500Y189243D01*
Y186287D01*
Y183366D01*
X3531D01*
Y177823D01*
X9469D01*
Y179065D01*
X11772D01*
X24419Y166419D01*
X24915Y166087D01*
X25291Y166012D01*
Y163842D01*
X31819D01*
Y171158D01*
X25291D01*
Y169872D01*
X13487Y181676D01*
X12991Y182008D01*
X12405Y182124D01*
X9469D01*
Y183138D01*
X10650D01*
Y183396D01*
X11792D01*
X21269Y173919D01*
X21765Y173587D01*
X22350Y173471D01*
X25291D01*
Y171343D01*
X31819D01*
Y178657D01*
X25291D01*
Y176529D01*
X22984D01*
X18543Y180971D01*
X25291D01*
Y178842D01*
X31819D01*
Y186158D01*
X25291D01*
Y184029D01*
X18633D01*
X13507Y189156D01*
X13011Y189488D01*
X12425Y189604D01*
X10650D01*
Y189862D01*
X9469D01*
Y194465D01*
X9653Y194388D01*
X11691Y193899D01*
X13780Y193734D01*
X15868Y193899D01*
X17906Y194388D01*
X19841Y195190D01*
X21628Y196284D01*
X23221Y197645D01*
X24582Y199238D01*
X25676Y201025D01*
X26478Y202961D01*
X26967Y204998D01*
X27132Y207087D01*
X26967Y209175D01*
X26478Y211213D01*
X25676Y213148D01*
X24582Y214935D01*
X23221Y216528D01*
X21628Y217889D01*
X19907Y218943D01*
X177132D01*
X177362Y218989D01*
X177896Y219059D01*
X176919Y218081D01*
X176587Y217585D01*
X176471Y217000D01*
Y216894D01*
X169914D01*
X173707Y213101D01*
X173000Y212394D01*
X173707Y211687D01*
X169914Y207894D01*
X176471D01*
Y205263D01*
X176209Y205603D01*
X175269Y206324D01*
X174175Y206778D01*
X173000Y206932D01*
X171825Y206778D01*
X170731Y206324D01*
X169791Y205603D01*
X169069Y204663D01*
X168616Y203568D01*
X168461Y202394D01*
X168616Y201219D01*
X169069Y200124D01*
X169791Y199184D01*
X170731Y198463D01*
X171471Y198156D01*
Y191305D01*
X159529Y179364D01*
Y199525D01*
X159791Y199184D01*
X160731Y198463D01*
X161825Y198010D01*
X163000Y197855D01*
X164175Y198010D01*
X165269Y198463D01*
X166209Y199184D01*
X166931Y200124D01*
X167384Y201219D01*
X167539Y202394D01*
X167384Y203568D01*
X166931Y204663D01*
X166209Y205603D01*
X165269Y206324D01*
X164175Y206778D01*
X163000Y206932D01*
X161825Y206778D01*
X160731Y206324D01*
X159791Y205603D01*
X159529Y205263D01*
Y207394D01*
X159413Y207979D01*
X159081Y208475D01*
X157078Y210479D01*
X157384Y211219D01*
X157539Y212394D01*
X157384Y213568D01*
X156931Y214663D01*
X156209Y215603D01*
X155269Y216324D01*
X154175Y216778D01*
X153000Y216933D01*
X151825Y216778D01*
X150731Y216324D01*
X149791Y215603D01*
X149069Y214663D01*
X148616Y213568D01*
X148461Y212394D01*
X148616Y211219D01*
X149069Y210124D01*
X149791Y209184D01*
X150731Y208463D01*
X151825Y208010D01*
X153000Y207855D01*
X154175Y208010D01*
X154915Y208316D01*
X156337Y206894D01*
X149529D01*
Y207394D01*
X149413Y207979D01*
X149081Y208475D01*
X147078Y210479D01*
X147384Y211219D01*
X147539Y212394D01*
X147384Y213568D01*
X146931Y214663D01*
X146209Y215603D01*
X145269Y216324D01*
X144175Y216778D01*
X143000Y216933D01*
X141825Y216778D01*
X140731Y216324D01*
X139791Y215603D01*
X139069Y214663D01*
X138616Y213568D01*
X138461Y212394D01*
X138616Y211219D01*
X139069Y210124D01*
X139791Y209184D01*
X140731Y208463D01*
X141825Y208010D01*
X143000Y207855D01*
X144175Y208010D01*
X144915Y208316D01*
X146471Y206760D01*
Y205263D01*
X146209Y205603D01*
X145269Y206324D01*
X144175Y206778D01*
X143000Y206932D01*
X141825Y206778D01*
X140731Y206324D01*
X139791Y205603D01*
X139069Y204663D01*
X138616Y203568D01*
X138461Y202394D01*
X138616Y201219D01*
X139069Y200124D01*
X139791Y199184D01*
X140731Y198463D01*
X141471Y198156D01*
Y188500D01*
X141587Y187915D01*
X141919Y187419D01*
X147479Y181858D01*
X147645Y181025D01*
X148198Y180198D01*
X149024Y179645D01*
X150000Y179451D01*
X150976Y179645D01*
X151487Y179987D01*
X151145Y179475D01*
X150951Y178500D01*
X151145Y177524D01*
X151148Y177520D01*
X151000Y177549D01*
X150024Y177355D01*
X149198Y176802D01*
X149175Y176769D01*
X149081Y176910D01*
X134529Y191462D01*
Y198156D01*
X135269Y198463D01*
X136209Y199184D01*
X136931Y200124D01*
X137384Y201219D01*
X137539Y202394D01*
X137384Y203568D01*
X136931Y204663D01*
X136209Y205603D01*
X135269Y206324D01*
X134175Y206778D01*
X133000Y206932D01*
X131825Y206778D01*
X130731Y206324D01*
X129791Y205603D01*
X129069Y204663D01*
X128616Y203568D01*
X128461Y202394D01*
X128616Y201219D01*
X129069Y200124D01*
X129791Y199184D01*
X130731Y198463D01*
X131471Y198156D01*
Y191692D01*
X124867Y198296D01*
X125269Y198463D01*
X126209Y199184D01*
X126931Y200124D01*
X127384Y201219D01*
X127539Y202394D01*
X127384Y203568D01*
X126931Y204663D01*
X126209Y205603D01*
X125269Y206324D01*
X124175Y206778D01*
X123000Y206932D01*
X121825Y206778D01*
X120731Y206324D01*
X119791Y205603D01*
X119529Y205263D01*
Y207394D01*
X119430Y207894D01*
X126086D01*
X122293Y211687D01*
X118500Y215479D01*
Y209057D01*
X117078Y210479D01*
X117384Y211219D01*
X117539Y212394D01*
X117384Y213568D01*
X116931Y214663D01*
X116209Y215603D01*
X115269Y216324D01*
X114175Y216778D01*
X113000Y216933D01*
X111825Y216778D01*
X110731Y216324D01*
X109791Y215603D01*
X109069Y214663D01*
X108616Y213568D01*
X108461Y212394D01*
X108616Y211219D01*
X109069Y210124D01*
X109791Y209184D01*
X110731Y208463D01*
X111825Y208010D01*
X113000Y207855D01*
X114175Y208010D01*
X114915Y208316D01*
X116471Y206760D01*
Y205263D01*
X116209Y205603D01*
X115269Y206324D01*
X114175Y206778D01*
X113000Y206932D01*
X111825Y206778D01*
X110731Y206324D01*
X109791Y205603D01*
X109069Y204663D01*
X108616Y203568D01*
X108461Y202394D01*
X108616Y201219D01*
X109069Y200124D01*
X109791Y199184D01*
X110731Y198463D01*
X111825Y198010D01*
X113000Y197855D01*
X114175Y198010D01*
X115269Y198463D01*
X116209Y199184D01*
X116546Y199622D01*
X116587Y199415D01*
X116919Y198919D01*
X138860Y176977D01*
X138500Y177049D01*
X137524Y176855D01*
X136698Y176302D01*
X136145Y175476D01*
X135951Y174500D01*
X136046Y174024D01*
X132317Y177753D01*
X132317Y174137D01*
X130317D01*
X130317Y177753D01*
X126701Y174137D01*
X126113Y173549D01*
X125985Y173678D01*
X126049Y174000D01*
X125855Y174976D01*
X125302Y175802D01*
X124476Y176355D01*
X123500Y176549D01*
X122524Y176355D01*
X121698Y175802D01*
X121145Y174976D01*
X120958Y174034D01*
X104039Y190952D01*
X104049Y191000D01*
X103855Y191975D01*
X103302Y192802D01*
X102476Y193355D01*
X101500Y193549D01*
X100524Y193355D01*
X99698Y192802D01*
X99145Y191975D01*
X98951Y191000D01*
X99145Y190024D01*
X99698Y189198D01*
X100524Y188645D01*
X101500Y188451D01*
X102096Y188570D01*
X102636Y188029D01*
X89134D01*
X79529Y197634D01*
Y199525D01*
X79791Y199184D01*
X80731Y198463D01*
X81825Y198010D01*
X83000Y197855D01*
X84175Y198010D01*
X85269Y198463D01*
X86209Y199184D01*
X86931Y200124D01*
X87384Y201219D01*
X87539Y202394D01*
X87384Y203568D01*
X86931Y204663D01*
X86209Y205603D01*
X85269Y206324D01*
X84175Y206778D01*
X83000Y206932D01*
X81825Y206778D01*
X80731Y206324D01*
X79791Y205603D01*
X79529Y205263D01*
Y207394D01*
X79413Y207979D01*
X79081Y208475D01*
X77078Y210479D01*
X77384Y211219D01*
X77539Y212394D01*
X77384Y213568D01*
X76931Y214663D01*
X76209Y215603D01*
X75269Y216324D01*
X74175Y216778D01*
X73000Y216933D01*
X71825Y216778D01*
X70731Y216324D01*
X69791Y215603D01*
X69069Y214663D01*
X68616Y213568D01*
X68461Y212394D01*
X68616Y211219D01*
X69069Y210124D01*
X69791Y209184D01*
X70731Y208463D01*
X71825Y208010D01*
X73000Y207855D01*
X74175Y208010D01*
X74915Y208316D01*
X76337Y206894D01*
X69914D01*
X73707Y203101D01*
X73000Y202394D01*
X73707Y201687D01*
X69914Y197894D01*
X76471D01*
Y197000D01*
X76587Y196415D01*
X76919Y195919D01*
X87419Y185419D01*
X87915Y185087D01*
X88500Y184971D01*
X102866D01*
X107860Y179977D01*
X107500Y180049D01*
X106525Y179855D01*
X105698Y179302D01*
X105145Y178475D01*
X104951Y177500D01*
X105145Y176524D01*
X105698Y175698D01*
X105971Y175515D01*
Y173179D01*
X106087Y172594D01*
X106419Y172098D01*
X111371Y167145D01*
X111200Y166974D01*
X110740Y166285D01*
X110578Y165472D01*
X110740Y164660D01*
X111200Y163971D01*
X111889Y163511D01*
X112701Y163349D01*
X112831Y163375D01*
X112805Y163245D01*
X112967Y162433D01*
X113427Y161744D01*
X114116Y161284D01*
X114929Y161122D01*
X115058Y161148D01*
X115032Y161018D01*
X115194Y160206D01*
X115654Y159517D01*
X116343Y159056D01*
X117156Y158895D01*
X117285Y158921D01*
X117259Y158791D01*
X117421Y157979D01*
X117881Y157290D01*
X118570Y156829D01*
X119383Y156668D01*
X119512Y156693D01*
X119486Y156564D01*
X119648Y155752D01*
X120108Y155063D01*
X120797Y154602D01*
X121610Y154441D01*
X121739Y154466D01*
X121713Y154337D01*
X121875Y153524D01*
X122336Y152836D01*
X123024Y152375D01*
X123837Y152214D01*
X123966Y152239D01*
X123941Y152110D01*
X123942Y152105D01*
X121919Y150081D01*
X121587Y149585D01*
X121471Y149000D01*
Y146500D01*
X121587Y145915D01*
X121919Y145419D01*
X123015Y144322D01*
X122951Y144000D01*
X123145Y143025D01*
X123698Y142198D01*
X124524Y141645D01*
X125500Y141451D01*
X126476Y141645D01*
X127302Y142198D01*
X127855Y143025D01*
X128049Y144000D01*
X127855Y144975D01*
X127302Y145802D01*
X126476Y146355D01*
X125500Y146549D01*
X125178Y146485D01*
X124529Y147134D01*
Y148366D01*
X126171Y150008D01*
X126193Y150012D01*
X126168Y149883D01*
X126329Y149070D01*
X126790Y148381D01*
X127479Y147921D01*
X128291Y147759D01*
X128421Y147785D01*
X128395Y147656D01*
X128557Y146843D01*
X129017Y146154D01*
X129706Y145694D01*
X130518Y145532D01*
X130648Y145558D01*
X130622Y145429D01*
X130784Y144616D01*
X131244Y143927D01*
X131933Y143467D01*
X132745Y143305D01*
X132875Y143331D01*
X132849Y143201D01*
X133011Y142389D01*
X133471Y141700D01*
X134160Y141240D01*
X134973Y141078D01*
X135785Y141240D01*
X136474Y141700D01*
X138980Y144205D01*
X139440Y144894D01*
X139592Y145658D01*
X141905Y147971D01*
X143015D01*
X143198Y147698D01*
X144025Y147145D01*
X145000Y146951D01*
X145975Y147145D01*
X146802Y147698D01*
X147355Y148524D01*
X147549Y149500D01*
X147437Y150063D01*
X148000Y149951D01*
X148976Y150145D01*
X149802Y150698D01*
X150355Y151524D01*
X150549Y152500D01*
X150355Y153475D01*
X149802Y154302D01*
X149551Y154471D01*
X153366D01*
X158919Y148919D01*
X159415Y148587D01*
X160000Y148471D01*
X173050D01*
X173007Y148453D01*
X172181Y147819D01*
X171547Y146993D01*
X171149Y146032D01*
X171013Y145000D01*
X171149Y143968D01*
X171547Y143007D01*
X172181Y142181D01*
X173007Y141547D01*
X173968Y141149D01*
X175000Y141013D01*
X176032Y141149D01*
X176993Y141547D01*
X177819Y142181D01*
X178453Y143007D01*
X178851Y143968D01*
X178987Y145000D01*
X178851Y146032D01*
X178453Y146993D01*
X177819Y147819D01*
X176993Y148453D01*
X176950Y148471D01*
X180000D01*
X180585Y148587D01*
X181081Y148919D01*
X183504Y151341D01*
X183968Y151149D01*
X185000Y151013D01*
X186032Y151149D01*
X186993Y151547D01*
X187819Y152181D01*
X188453Y153007D01*
X188645Y153471D01*
X192500D01*
X193085Y153587D01*
X193581Y153919D01*
X200133Y160471D01*
X206606D01*
X206025Y160355D01*
X205198Y159802D01*
X204645Y158976D01*
X204451Y158000D01*
X204645Y157025D01*
X205198Y156198D01*
X205471Y156015D01*
Y117985D01*
X205198Y117802D01*
X204645Y116975D01*
X204451Y116000D01*
X204645Y115024D01*
X205198Y114198D01*
X206025Y113645D01*
X207000Y113451D01*
X207976Y113645D01*
X208802Y114198D01*
X209355Y115024D01*
X209549Y116000D01*
X209355Y116975D01*
X208802Y117802D01*
X208529Y117985D01*
Y156015D01*
X208802Y156198D01*
X209355Y157025D01*
X209549Y158000D01*
X209355Y158976D01*
X208802Y159802D01*
X207976Y160355D01*
X207394Y160471D01*
X220000D01*
X220585Y160587D01*
X221081Y160919D01*
X224081Y163919D01*
X224413Y164415D01*
X224529Y165000D01*
Y165763D01*
X225269Y166069D01*
X226209Y166791D01*
X226931Y167731D01*
X227384Y168825D01*
X227539Y170000D01*
X227384Y171175D01*
X226931Y172269D01*
X226209Y173209D01*
X225269Y173931D01*
X224175Y174384D01*
X223000Y174539D01*
X221825Y174384D01*
X220731Y173931D01*
X219791Y173209D01*
X219529Y172869D01*
Y174366D01*
X221085Y175922D01*
X221825Y175616D01*
X223000Y175461D01*
X224175Y175616D01*
X225269Y176069D01*
X226209Y176791D01*
X226931Y177731D01*
X227384Y178825D01*
X227539Y180000D01*
X227384Y181175D01*
X226931Y182269D01*
X226209Y183209D01*
X225269Y183931D01*
X224175Y184384D01*
X223000Y184539D01*
X221825Y184384D01*
X220731Y183931D01*
X219791Y183209D01*
X219069Y182269D01*
X218616Y181175D01*
X218461Y180000D01*
X218616Y178825D01*
X218922Y178085D01*
X216919Y176081D01*
X216587Y175585D01*
X216471Y175000D01*
Y174500D01*
X208500D01*
Y171529D01*
X186950D01*
X186993Y171547D01*
X187819Y172181D01*
X188453Y173007D01*
X188851Y173968D01*
X188987Y175000D01*
X188851Y176032D01*
X188453Y176993D01*
X187819Y177819D01*
X186993Y178453D01*
X186032Y178851D01*
X185000Y178987D01*
X183968Y178851D01*
X183007Y178453D01*
X182181Y177819D01*
X181547Y176993D01*
X181149Y176032D01*
X181013Y175000D01*
X181149Y173968D01*
X181547Y173007D01*
X182181Y172181D01*
X183007Y171547D01*
X183050Y171529D01*
X180000D01*
X179415Y171413D01*
X178919Y171081D01*
X176496Y168659D01*
X176032Y168851D01*
X175000Y168987D01*
X173968Y168851D01*
X173007Y168453D01*
X172181Y167819D01*
X171547Y166993D01*
X171355Y166529D01*
X162524D01*
X162855Y167025D01*
X163049Y168000D01*
X162985Y168322D01*
X171470Y176807D01*
X171149Y176032D01*
X171013Y175000D01*
X171149Y173968D01*
X171547Y173007D01*
X172181Y172181D01*
X173007Y171547D01*
X173968Y171149D01*
X175000Y171013D01*
X176032Y171149D01*
X176993Y171547D01*
X177819Y172181D01*
X178453Y173007D01*
X178851Y173968D01*
X178987Y175000D01*
X178851Y176032D01*
X178453Y176993D01*
X177819Y177819D01*
X176993Y178453D01*
X176032Y178851D01*
X175000Y178987D01*
X173968Y178851D01*
X173193Y178530D01*
X181081Y186419D01*
X181413Y186915D01*
X181432Y187012D01*
X181529Y187500D01*
Y191367D01*
X183471Y193308D01*
Y185985D01*
X183198Y185802D01*
X182645Y184976D01*
X182451Y184000D01*
X182645Y183025D01*
X183198Y182198D01*
X184025Y181645D01*
X185000Y181451D01*
X185976Y181645D01*
X186802Y182198D01*
X187355Y183025D01*
X187549Y184000D01*
X187405Y184725D01*
X187524Y184645D01*
X188500Y184451D01*
X189476Y184645D01*
X189595Y184725D01*
X189451Y184000D01*
X189645Y183025D01*
X190198Y182198D01*
X191024Y181645D01*
X192000Y181451D01*
X192975Y181645D01*
X193802Y182198D01*
X194355Y183025D01*
X194549Y184000D01*
X194405Y184725D01*
X194525Y184645D01*
X195500Y184451D01*
X196063Y184563D01*
X195951Y184000D01*
X196145Y183025D01*
X196698Y182198D01*
X197524Y181645D01*
X198500Y181451D01*
X199476Y181645D01*
X200302Y182198D01*
X200485Y182471D01*
X202500D01*
X203085Y182587D01*
X203581Y182919D01*
X214081Y193419D01*
X214413Y193915D01*
X214529Y194500D01*
Y198156D01*
X215269Y198463D01*
X216209Y199184D01*
X216471Y199525D01*
Y185634D01*
X214915Y184078D01*
X214175Y184384D01*
X213000Y184539D01*
X211825Y184384D01*
X210731Y183931D01*
X209791Y183209D01*
X209069Y182269D01*
X208616Y181175D01*
X208461Y180000D01*
X208616Y178825D01*
X209069Y177731D01*
X209791Y176791D01*
X210731Y176069D01*
X211825Y175616D01*
X213000Y175461D01*
X214175Y175616D01*
X215269Y176069D01*
X216209Y176791D01*
X216931Y177731D01*
X217384Y178825D01*
X217539Y180000D01*
X217384Y181175D01*
X217078Y181915D01*
X219081Y183919D01*
X219413Y184415D01*
X219529Y185000D01*
Y197894D01*
X226086D01*
X222293Y201687D01*
X223000Y202394D01*
X222293Y203101D01*
X226086Y206894D01*
X219529D01*
Y209525D01*
X219791Y209184D01*
X220731Y208463D01*
X221825Y208010D01*
X223000Y207855D01*
X224175Y208010D01*
X225269Y208463D01*
X226209Y209184D01*
X226931Y210124D01*
X227384Y211219D01*
X227539Y212394D01*
X227384Y213568D01*
X226931Y214663D01*
X226209Y215603D01*
X225269Y216324D01*
X224175Y216778D01*
X223000Y216933D01*
X221825Y216778D01*
X220731Y216324D01*
X219791Y215603D01*
X219529Y215263D01*
Y219367D01*
X226133Y225971D01*
X242500D01*
X243085Y226087D01*
X243581Y226419D01*
X249081Y231919D01*
X249413Y232415D01*
X249432Y232512D01*
X249529Y233000D01*
Y241213D01*
X249413Y241798D01*
X249081Y242294D01*
X245785Y245591D01*
X245977Y246055D01*
X246113Y247087D01*
X245977Y248118D01*
X245579Y249080D01*
X244945Y249906D01*
X244119Y250539D01*
X243158Y250938D01*
X242126Y251074D01*
X241094Y250938D01*
X240132Y250539D01*
X239307Y249906D01*
X238673Y249080D01*
X238275Y248118D01*
X238139Y247087D01*
X238275Y246055D01*
X238673Y245093D01*
X239307Y244268D01*
X240132Y243634D01*
X241094Y243236D01*
X242126Y243100D01*
X243158Y243236D01*
X243622Y243428D01*
X246471Y240579D01*
Y233633D01*
X241866Y229029D01*
X225500D01*
X224915Y228913D01*
X224419Y228581D01*
X216919Y221081D01*
X216587Y220585D01*
X216471Y220000D01*
Y215263D01*
X216209Y215603D01*
X215269Y216324D01*
X214175Y216778D01*
X213000Y216933D01*
X211825Y216778D01*
X210731Y216324D01*
X209791Y215603D01*
X209069Y214663D01*
X208616Y213568D01*
X208461Y212394D01*
X208616Y211219D01*
X208922Y210479D01*
X206919Y208475D01*
X206587Y207979D01*
X206471Y207394D01*
Y205263D01*
X206209Y205603D01*
X205269Y206324D01*
X204175Y206778D01*
X203000Y206932D01*
X201825Y206778D01*
X200731Y206324D01*
X199791Y205603D01*
X199529Y205263D01*
Y206760D01*
X201085Y208316D01*
X201825Y208010D01*
X203000Y207855D01*
X204175Y208010D01*
X205269Y208463D01*
X206209Y209184D01*
X206931Y210124D01*
X207384Y211219D01*
X207539Y212394D01*
X207384Y213568D01*
X206931Y214663D01*
X206209Y215603D01*
X205269Y216324D01*
X204175Y216778D01*
X203000Y216933D01*
X201825Y216778D01*
X200731Y216324D01*
X199791Y215603D01*
X199069Y214663D01*
X198616Y213568D01*
X198461Y212394D01*
X198616Y211219D01*
X198922Y210479D01*
X197500Y209057D01*
Y215479D01*
X193707Y211687D01*
X192293Y213101D01*
X196086Y216894D01*
X194044D01*
X194081Y216919D01*
X212720Y235557D01*
X228481D01*
X228673Y235093D01*
X229307Y234267D01*
X230133Y233634D01*
X231094Y233236D01*
X232126Y233100D01*
X233158Y233236D01*
X234119Y233634D01*
X234945Y234267D01*
X235579Y235093D01*
X235977Y236055D01*
X236113Y237087D01*
X235977Y238119D01*
X235579Y239080D01*
X234945Y239906D01*
X234209Y240471D01*
X236579D01*
X238467Y238582D01*
X238275Y238119D01*
X238139Y237087D01*
X238275Y236055D01*
X238673Y235093D01*
X239307Y234267D01*
X240132Y233634D01*
X241094Y233236D01*
X242126Y233100D01*
X243158Y233236D01*
X244119Y233634D01*
X244945Y234267D01*
X245579Y235093D01*
X245977Y236055D01*
X246113Y237087D01*
X245977Y238119D01*
X245579Y239080D01*
X244945Y239906D01*
X244119Y240539D01*
X243158Y240938D01*
X242126Y241073D01*
X241094Y240938D01*
X240630Y240745D01*
X238294Y243081D01*
X237798Y243413D01*
X237213Y243529D01*
X233867D01*
X234119Y243634D01*
X234145Y243653D01*
X232126Y245672D01*
X230107Y243653D01*
X230133Y243634D01*
X230385Y243529D01*
X210000D01*
X209415Y243413D01*
X208919Y243081D01*
X186999Y221162D01*
X181468D01*
X181882Y221700D01*
X182430Y223023D01*
X182586Y224213D01*
X182632Y224442D01*
Y261297D01*
X182665Y261463D01*
X182639D01*
X182824Y262394D01*
X183352Y263184D01*
X184141Y263712D01*
X185072Y263897D01*
Y263871D01*
X185238Y263904D01*
X244100D01*
X244198Y263923D01*
X246111Y263735D01*
D02*
G37*
%LPC*%
G36*
X13780Y214025D02*
X12426Y213892D01*
X11124Y213497D01*
X9924Y212856D01*
X8873Y211993D01*
X8010Y210942D01*
X7369Y209742D01*
X6974Y208440D01*
X6841Y207087D01*
X6974Y205733D01*
X7369Y204431D01*
X8010Y203232D01*
X8873Y202180D01*
X9924Y201317D01*
X11124Y200676D01*
X12426Y200281D01*
X13780Y200148D01*
X15133Y200281D01*
X16435Y200676D01*
X17635Y201317D01*
X18686Y202180D01*
X19549Y203232D01*
X20190Y204431D01*
X20585Y205733D01*
X20719Y207087D01*
X20585Y208440D01*
X20190Y209742D01*
X19549Y210942D01*
X18686Y211993D01*
X17635Y212856D01*
X16435Y213497D01*
X15133Y213892D01*
X13780Y214025D01*
D02*
G37*
G36*
X242126Y21112D02*
X240772Y20979D01*
X239471Y20584D01*
X238271Y19943D01*
X237219Y19080D01*
X236356Y18028D01*
X235715Y16829D01*
X235320Y15527D01*
X235187Y14173D01*
X235320Y12820D01*
X235715Y11518D01*
X236356Y10318D01*
X237219Y9267D01*
X238271Y8404D01*
X239471Y7762D01*
X240772Y7368D01*
X242126Y7234D01*
X243480Y7368D01*
X244781Y7762D01*
X245981Y8404D01*
X247032Y9267D01*
X247896Y10318D01*
X248537Y11518D01*
X248932Y12820D01*
X249065Y14173D01*
X248932Y15527D01*
X248537Y16829D01*
X247896Y18028D01*
X247032Y19080D01*
X245981Y19943D01*
X244781Y20584D01*
X243480Y20979D01*
X242126Y21112D01*
D02*
G37*
G36*
X13780D02*
X12426Y20979D01*
X11124Y20584D01*
X9924Y19943D01*
X8873Y19080D01*
X8010Y18028D01*
X7369Y16829D01*
X6974Y15527D01*
X6841Y14173D01*
X6974Y12820D01*
X7369Y11518D01*
X8010Y10318D01*
X8873Y9267D01*
X9924Y8404D01*
X11124Y7762D01*
X12426Y7368D01*
X13780Y7234D01*
X15133Y7368D01*
X16435Y7762D01*
X17635Y8404D01*
X18686Y9267D01*
X19549Y10318D01*
X20190Y11518D01*
X20585Y12820D01*
X20719Y14173D01*
X20585Y15527D01*
X20190Y16829D01*
X19549Y18028D01*
X18686Y19080D01*
X17635Y19943D01*
X16435Y20584D01*
X15133Y20979D01*
X13780Y21112D01*
D02*
G37*
G36*
X135000Y38586D02*
X134691Y38277D01*
X135000Y38216D01*
X135309Y38277D01*
X135000Y38586D01*
D02*
G37*
G36*
X140000D02*
X139691Y38277D01*
X140000Y38216D01*
X140309Y38277D01*
X140000Y38586D01*
D02*
G37*
G36*
X157500Y36784D02*
X157191Y36723D01*
X157500Y36414D01*
X157809Y36723D01*
X157500Y36784D01*
D02*
G37*
G36*
X152500D02*
X152191Y36723D01*
X152500Y36414D01*
X152809Y36723D01*
X152500Y36784D01*
D02*
G37*
G36*
X40500Y58211D02*
X39586Y58091D01*
X38735Y57738D01*
X38004Y57177D01*
X37443Y56446D01*
X37090Y55595D01*
X36970Y54681D01*
X37090Y53767D01*
X37443Y52916D01*
X38004Y52185D01*
X38735Y51624D01*
X39586Y51271D01*
X40500Y51151D01*
X41414Y51271D01*
X42265Y51624D01*
X42928Y52132D01*
X63763D01*
X71180Y44715D01*
X71020Y43500D01*
X71190Y42211D01*
X71688Y41010D01*
X72479Y39979D01*
X73510Y39187D01*
X74711Y38690D01*
X76000Y38520D01*
X77289Y38690D01*
X78490Y39187D01*
X79521Y39979D01*
X80313Y41010D01*
X80810Y42211D01*
X80980Y43500D01*
X80810Y44789D01*
X80313Y45990D01*
X79521Y47021D01*
X78490Y47813D01*
X77289Y48310D01*
X76000Y48480D01*
X74785Y48320D01*
X66621Y56484D01*
X65794Y57036D01*
X64819Y57230D01*
X42928D01*
X42265Y57738D01*
X41414Y58091D01*
X40500Y58211D01*
D02*
G37*
G36*
X141723Y45309D02*
X141414Y45000D01*
X141723Y44691D01*
X141784Y45000D01*
X141723Y45309D01*
D02*
G37*
G36*
X157500Y38586D02*
X157191Y38277D01*
X157500Y38216D01*
X157809Y38277D01*
X157500Y38586D01*
D02*
G37*
G36*
X132250Y44750D02*
X125750D01*
Y38250D01*
X132250D01*
Y44750D01*
D02*
G37*
G36*
X119661Y85945D02*
X113134D01*
Y77055D01*
X119661D01*
Y78951D01*
X121444D01*
X130198Y70198D01*
X131025Y69645D01*
X132000Y69451D01*
X135791D01*
Y68244D01*
X136506D01*
Y64250D01*
X124250D01*
Y54750D01*
X160250D01*
Y52549D01*
X155000D01*
X154025Y52355D01*
X153198Y51802D01*
X152645Y50976D01*
X152451Y50000D01*
X152645Y49025D01*
X153198Y48198D01*
X154025Y47645D01*
X155000Y47451D01*
X160250D01*
Y45750D01*
X163471D01*
Y44750D01*
X161750D01*
Y38250D01*
X168250D01*
Y44750D01*
X166529D01*
Y45750D01*
X169750D01*
Y64250D01*
X166494D01*
Y68244D01*
X167209D01*
Y75756D01*
X160681D01*
Y68244D01*
X161396D01*
Y64250D01*
X141604D01*
Y68244D01*
X142319D01*
Y75756D01*
X135791D01*
Y74549D01*
X133056D01*
X124302Y83302D01*
X123476Y83855D01*
X122500Y84049D01*
X119661D01*
Y85945D01*
D02*
G37*
G36*
X147000Y38586D02*
X146691Y38277D01*
X147000Y38216D01*
X147309Y38277D01*
X147000Y38586D01*
D02*
G37*
G36*
X148723Y45309D02*
X148414Y45000D01*
X148723Y44691D01*
X148784Y45000D01*
X148723Y45309D01*
D02*
G37*
G36*
X152500Y38586D02*
X152191Y38277D01*
X152500Y38216D01*
X152809Y38277D01*
X152500Y38586D01*
D02*
G37*
G36*
X154223Y35309D02*
X153914Y35000D01*
X154223Y34691D01*
X154284Y35000D01*
X154223Y35309D01*
D02*
G37*
G36*
X136723D02*
X136414Y35000D01*
X136723Y34691D01*
X136784Y35000D01*
X136723Y35309D01*
D02*
G37*
G36*
X141723D02*
X141414Y35000D01*
X141723Y34691D01*
X141784Y35000D01*
X141723Y35309D01*
D02*
G37*
G36*
X155777Y35309D02*
X155716Y35000D01*
X155777Y34691D01*
X156086Y35000D01*
X155777Y35309D01*
D02*
G37*
G36*
X145277D02*
X145216Y35000D01*
X145277Y34691D01*
X145586Y35000D01*
X145277Y35309D01*
D02*
G37*
G36*
X150777D02*
X150716Y35000D01*
X150777Y34691D01*
X151086Y35000D01*
X150777Y35309D01*
D02*
G37*
G36*
X240000Y54775D02*
X238825Y54620D01*
X237731Y54167D01*
X236791Y53446D01*
X236069Y52506D01*
X235616Y51411D01*
X235461Y50236D01*
X235616Y49062D01*
X236069Y47967D01*
X236791Y47027D01*
X237731Y46306D01*
X238825Y45852D01*
X240000Y45697D01*
X241175Y45852D01*
X242269Y46306D01*
X243209Y47027D01*
X243931Y47967D01*
X244384Y49062D01*
X244539Y50236D01*
X244384Y51411D01*
X243931Y52506D01*
X243209Y53446D01*
X242269Y54167D01*
X241175Y54620D01*
X240000Y54775D01*
D02*
G37*
G36*
X148723Y35309D02*
X148414Y35000D01*
X148723Y34691D01*
X148784Y35000D01*
X148723Y35309D01*
D02*
G37*
G36*
X154223Y45309D02*
X153914Y45000D01*
X154223Y44691D01*
X154284Y45000D01*
X154223Y45309D01*
D02*
G37*
G36*
X140000Y36784D02*
X139691Y36723D01*
X140000Y36414D01*
X140309Y36723D01*
X140000Y36784D01*
D02*
G37*
G36*
X147000D02*
X146691Y36723D01*
X147000Y36414D01*
X147309Y36723D01*
X147000Y36784D01*
D02*
G37*
G36*
X159223Y45309D02*
X158914Y45000D01*
X159223Y44691D01*
X159284Y45000D01*
X159223Y45309D01*
D02*
G37*
G36*
Y35309D02*
X158914Y35000D01*
X159223Y34691D01*
X159284Y35000D01*
X159223Y35309D01*
D02*
G37*
G36*
X240000Y44775D02*
X238825Y44620D01*
X237731Y44167D01*
X236791Y43446D01*
X236069Y42506D01*
X235616Y41411D01*
X235461Y40236D01*
X235616Y39061D01*
X236069Y37967D01*
X236791Y37027D01*
X237731Y36305D01*
X238825Y35852D01*
X240000Y35697D01*
X241175Y35852D01*
X242269Y36305D01*
X243209Y37027D01*
X243931Y37967D01*
X244384Y39061D01*
X244539Y40236D01*
X244384Y41411D01*
X243931Y42506D01*
X243209Y43446D01*
X242269Y44167D01*
X241175Y44620D01*
X240000Y44775D01*
D02*
G37*
G36*
X135000Y36784D02*
X134691Y36723D01*
X135000Y36414D01*
X135309Y36723D01*
X135000Y36784D01*
D02*
G37*
G36*
X148723Y40309D02*
X148414Y40000D01*
X148723Y39691D01*
X148784Y40000D01*
X148723Y40309D01*
D02*
G37*
G36*
X154223D02*
X153914Y40000D01*
X154223Y39691D01*
X154284Y40000D01*
X154223Y40309D01*
D02*
G37*
G36*
X159223D02*
X158914Y40000D01*
X159223Y39691D01*
X159284Y40000D01*
X159223Y40309D01*
D02*
G37*
G36*
X141723D02*
X141414Y40000D01*
X141723Y39691D01*
X141784Y40000D01*
X141723Y40309D01*
D02*
G37*
G36*
X155777Y40309D02*
X155716Y40000D01*
X155777Y39691D01*
X156086Y40000D01*
X155777Y40309D01*
D02*
G37*
G36*
X147000Y43586D02*
X146691Y43277D01*
X147000Y43216D01*
X147309Y43277D01*
X147000Y43586D01*
D02*
G37*
G36*
X136723Y40309D02*
X136414Y40000D01*
X136723Y39691D01*
X136784Y40000D01*
X136723Y40309D01*
D02*
G37*
G36*
X152500Y41784D02*
X152191Y41723D01*
X152500Y41414D01*
X152809Y41723D01*
X152500Y41784D01*
D02*
G37*
G36*
X157500D02*
X157191Y41723D01*
X157500Y41414D01*
X157809Y41723D01*
X157500Y41784D01*
D02*
G37*
G36*
X135000Y43586D02*
X134691Y43277D01*
X135000Y43216D01*
X135309Y43277D01*
X135000Y43586D01*
D02*
G37*
G36*
X147000Y41784D02*
X146691Y41723D01*
X147000Y41414D01*
X147309Y41723D01*
X147000Y41784D01*
D02*
G37*
G36*
X140000Y43586D02*
X139691Y43277D01*
X140000Y43216D01*
X140309Y43277D01*
X140000Y43586D01*
D02*
G37*
G36*
X135000Y41784D02*
X134691Y41723D01*
X135000Y41414D01*
X135309Y41723D01*
X135000Y41784D01*
D02*
G37*
G36*
X140000D02*
X139691Y41723D01*
X140000Y41414D01*
X140309Y41723D01*
X140000Y41784D01*
D02*
G37*
G36*
X150777Y45309D02*
X150716Y45000D01*
X150777Y44691D01*
X151086Y45000D01*
X150777Y45309D01*
D02*
G37*
G36*
X145277D02*
X145216Y45000D01*
X145277Y44691D01*
X145586Y45000D01*
X145277Y45309D01*
D02*
G37*
G36*
X133277Y40309D02*
X133216Y40000D01*
X133277Y39691D01*
X133586Y40000D01*
X133277Y40309D01*
D02*
G37*
G36*
X119807Y57398D02*
X106193D01*
Y48783D01*
X110451D01*
Y47767D01*
X109479Y47021D01*
X108687Y45990D01*
X108190Y44789D01*
X108020Y43500D01*
X108190Y42211D01*
X108687Y41010D01*
X109479Y39979D01*
X110510Y39187D01*
X111711Y38690D01*
X113000Y38520D01*
X114289Y38690D01*
X115490Y39187D01*
X116521Y39979D01*
X117313Y41010D01*
X117810Y42211D01*
X117980Y43500D01*
X117810Y44789D01*
X117313Y45990D01*
X116521Y47021D01*
X115549Y47767D01*
Y48783D01*
X119807D01*
Y57398D01*
D02*
G37*
G36*
X47370Y112935D02*
X46016Y112802D01*
X44715Y112407D01*
X43515Y111766D01*
X42463Y110903D01*
X41601Y109851D01*
X40959Y108651D01*
X40565Y107350D01*
X40431Y105996D01*
X40565Y104642D01*
X40959Y103341D01*
X41601Y102141D01*
X42463Y101090D01*
X43515Y100227D01*
X44715Y99585D01*
X46016Y99190D01*
X47370Y99057D01*
X48724Y99190D01*
X50025Y99585D01*
X50124Y99638D01*
X56451Y93310D01*
Y72000D01*
X56645Y71025D01*
X57198Y70198D01*
X85698Y41698D01*
X86524Y41145D01*
X87500Y40951D01*
X90233D01*
X90979Y39979D01*
X92010Y39187D01*
X93211Y38690D01*
X94500Y38520D01*
X95789Y38690D01*
X96990Y39187D01*
X98021Y39979D01*
X98813Y41010D01*
X99310Y42211D01*
X99480Y43500D01*
X99310Y44789D01*
X98813Y45990D01*
X98021Y47021D01*
X96990Y47813D01*
X95789Y48310D01*
X94500Y48480D01*
X93211Y48310D01*
X92010Y47813D01*
X90979Y47021D01*
X90233Y46049D01*
X88556D01*
X61549Y73056D01*
Y94366D01*
X61355Y95342D01*
X60802Y96169D01*
X53728Y103243D01*
X53781Y103341D01*
X54176Y104642D01*
X54309Y105996D01*
X54176Y107350D01*
X53781Y108651D01*
X53140Y109851D01*
X52277Y110903D01*
X51225Y111766D01*
X50025Y112407D01*
X48724Y112802D01*
X47370Y112935D01*
D02*
G37*
G36*
X136723Y45309D02*
X136414Y45000D01*
X136723Y44691D01*
X136784Y45000D01*
X136723Y45309D01*
D02*
G37*
G36*
X155777Y45309D02*
X155716Y45000D01*
X155777Y44691D01*
X156086Y45000D01*
X155777Y45309D01*
D02*
G37*
G36*
X133277D02*
X133216Y45000D01*
X133277Y44691D01*
X133586Y45000D01*
X133277Y45309D01*
D02*
G37*
G36*
X157500Y43586D02*
X157191Y43277D01*
X157500Y43216D01*
X157809Y43277D01*
X157500Y43586D01*
D02*
G37*
G36*
X152500D02*
X152191Y43277D01*
X152500Y43216D01*
X152809Y43277D01*
X152500Y43586D01*
D02*
G37*
G36*
X150777Y40309D02*
X150716Y40000D01*
X150777Y39691D01*
X151086Y40000D01*
X150777Y40309D01*
D02*
G37*
G36*
X138277D02*
X138216Y40000D01*
X138277Y39691D01*
X138586Y40000D01*
X138277Y40309D01*
D02*
G37*
G36*
X145277D02*
X145216Y40000D01*
X145277Y39691D01*
X145586Y40000D01*
X145277Y40309D01*
D02*
G37*
G36*
X138277Y45309D02*
X138216Y45000D01*
X138277Y44691D01*
X138586Y45000D01*
X138277Y45309D01*
D02*
G37*
G36*
X45209Y29158D02*
X38681D01*
Y21843D01*
X40352D01*
Y18129D01*
X39931Y18679D01*
X39146Y19281D01*
X38232Y19659D01*
X37252Y19788D01*
X36272Y19659D01*
X35358Y19281D01*
X34573Y18679D01*
X33971Y17894D01*
X33593Y16981D01*
X33464Y16000D01*
X33593Y15020D01*
X33971Y14106D01*
X34573Y13321D01*
X35358Y12719D01*
X36272Y12341D01*
X37252Y12212D01*
X38232Y12341D01*
X39146Y12719D01*
X39931Y13321D01*
X40352Y13871D01*
Y9469D01*
X37929D01*
Y3531D01*
X45835D01*
Y9469D01*
X43411D01*
Y21843D01*
X45209D01*
Y29158D01*
D02*
G37*
G36*
X132250Y26750D02*
X125750D01*
Y20250D01*
X132250D01*
Y26750D01*
D02*
G37*
G36*
X141250D02*
X134750D01*
Y20250D01*
X141250D01*
Y26750D01*
D02*
G37*
G36*
X159905Y14658D02*
X156206D01*
X158055Y12808D01*
X159905Y14658D01*
D02*
G37*
G36*
X154791Y13243D02*
Y8757D01*
X157035Y11000D01*
X154791Y13243D01*
D02*
G37*
G36*
X158055Y11394D02*
X157661Y11000D01*
X158055Y10606D01*
X158449Y11000D01*
X158055Y11394D01*
D02*
G37*
G36*
X53000Y19788D02*
X52020Y19659D01*
X51106Y19281D01*
X50321Y18679D01*
X49719Y17894D01*
X49341Y16981D01*
X49212Y16000D01*
X49341Y15020D01*
X49719Y14106D01*
X50321Y13321D01*
X51106Y12719D01*
X52020Y12341D01*
X53000Y12212D01*
X53980Y12341D01*
X54894Y12719D01*
X55679Y13321D01*
X56281Y14106D01*
X56659Y15020D01*
X56788Y16000D01*
X56659Y16981D01*
X56281Y17894D01*
X55679Y18679D01*
X54894Y19281D01*
X53980Y19659D01*
X53000Y19788D01*
D02*
G37*
G36*
X147000Y22086D02*
X145164Y20250D01*
X148836D01*
X147000Y22086D01*
D02*
G37*
G36*
X31791Y27743D02*
Y23257D01*
X34035Y25500D01*
X31791Y27743D01*
D02*
G37*
G36*
X38319Y27743D02*
X36076Y25500D01*
X38319Y23257D01*
Y27743D01*
D02*
G37*
G36*
X148836Y26750D02*
X145164D01*
X147000Y24914D01*
X148836Y26750D01*
D02*
G37*
G36*
X35055Y23692D02*
X33206Y21843D01*
X36905D01*
X35055Y23692D01*
D02*
G37*
G36*
X159250Y26750D02*
X152750D01*
Y20250D01*
X159250D01*
Y26750D01*
D02*
G37*
G36*
X143750Y25336D02*
Y21664D01*
X145586Y23500D01*
X143750Y25336D01*
D02*
G37*
G36*
X150250Y25336D02*
X148414Y23500D01*
X150250Y21664D01*
Y25336D01*
D02*
G37*
G36*
X161319Y13243D02*
X159076Y11000D01*
X161319Y8757D01*
Y13243D01*
D02*
G37*
G36*
X228693Y-23808D02*
X228673Y-23833D01*
X228275Y-24795D01*
X228139Y-25827D01*
X228275Y-26859D01*
X228673Y-27820D01*
X228693Y-27846D01*
X230712Y-25827D01*
X228693Y-23808D01*
D02*
G37*
G36*
X235559Y-23808D02*
X233540Y-25827D01*
X235559Y-27846D01*
X235579Y-27820D01*
X235977Y-26859D01*
X236113Y-25827D01*
X235977Y-24795D01*
X235579Y-23833D01*
X235559Y-23808D01*
D02*
G37*
G36*
X211907Y-24321D02*
X211590Y-25086D01*
X211470Y-26000D01*
X211590Y-26914D01*
X211907Y-27679D01*
X213586Y-26000D01*
X211907Y-24321D01*
D02*
G37*
G36*
X215000Y-27414D02*
X213321Y-29093D01*
X214086Y-29410D01*
X215000Y-29530D01*
X215914Y-29410D01*
X216679Y-29093D01*
X215000Y-27414D01*
D02*
G37*
G36*
X232126Y-31840D02*
X231094Y-31976D01*
X230133Y-32374D01*
X229307Y-33008D01*
X228673Y-33833D01*
X228275Y-34795D01*
X228139Y-35827D01*
X228275Y-36859D01*
X228673Y-37820D01*
X229307Y-38646D01*
X230133Y-39279D01*
X231094Y-39678D01*
X232126Y-39814D01*
X233158Y-39678D01*
X234119Y-39279D01*
X234945Y-38646D01*
X235579Y-37820D01*
X235977Y-36859D01*
X236113Y-35827D01*
X235977Y-34795D01*
X235579Y-33833D01*
X234945Y-33008D01*
X234119Y-32374D01*
X233158Y-31976D01*
X232126Y-31840D01*
D02*
G37*
G36*
X246079Y-31874D02*
X238173D01*
Y-39780D01*
X246079D01*
Y-31874D01*
D02*
G37*
G36*
X232126Y-27241D02*
X230107Y-29260D01*
X230133Y-29280D01*
X231094Y-29678D01*
X232126Y-29814D01*
X233158Y-29678D01*
X234119Y-29280D01*
X234145Y-29260D01*
X232126Y-27241D01*
D02*
G37*
G36*
X218093Y-24321D02*
X216414Y-26000D01*
X218093Y-27679D01*
X218410Y-26914D01*
X218530Y-26000D01*
X218410Y-25086D01*
X218093Y-24321D01*
D02*
G37*
G36*
X158055Y9192D02*
X156205Y7343D01*
X159905D01*
X158055Y9192D01*
D02*
G37*
G36*
X168250Y26750D02*
X161750D01*
Y20250D01*
X163471D01*
Y14658D01*
X161681D01*
Y7343D01*
X168209D01*
Y14658D01*
X166529D01*
Y20250D01*
X168250D01*
Y26750D01*
D02*
G37*
G36*
X215000Y-22470D02*
X214086Y-22590D01*
X213321Y-22907D01*
X215000Y-24586D01*
X216679Y-22907D01*
X215914Y-22590D01*
X215000Y-22470D01*
D02*
G37*
G36*
X232126Y-21840D02*
X231094Y-21976D01*
X230133Y-22374D01*
X230107Y-22394D01*
X232126Y-24413D01*
X234145Y-22394D01*
X234119Y-22374D01*
X233158Y-21976D01*
X232126Y-21840D01*
D02*
G37*
G36*
X56071Y9469D02*
X48165D01*
Y3531D01*
X56071D01*
Y4971D01*
X56515D01*
X56698Y4698D01*
X57525Y4145D01*
X58500Y3951D01*
X59475Y4145D01*
X60302Y4698D01*
X60855Y5525D01*
X61049Y6500D01*
X60855Y7475D01*
X60302Y8302D01*
X59475Y8855D01*
X58500Y9049D01*
X57525Y8855D01*
X56698Y8302D01*
X56515Y8029D01*
X56071D01*
Y9469D01*
D02*
G37*
G36*
X140000Y31784D02*
X139691Y31723D01*
X140000Y31414D01*
X140309Y31723D01*
X140000Y31784D01*
D02*
G37*
G36*
X147000D02*
X146691Y31723D01*
X147000Y31414D01*
X147309Y31723D01*
X147000Y31784D01*
D02*
G37*
G36*
X152500D02*
X152191Y31723D01*
X152500Y31414D01*
X152809Y31723D01*
X152500Y31784D01*
D02*
G37*
G36*
X135000D02*
X134691Y31723D01*
X135000Y31414D01*
X135309Y31723D01*
X135000Y31784D01*
D02*
G37*
G36*
X141723Y30309D02*
X141414Y30000D01*
X141723Y29691D01*
X141784Y30000D01*
X141723Y30309D01*
D02*
G37*
G36*
X148723D02*
X148414Y30000D01*
X148723Y29691D01*
X148784Y30000D01*
X148723Y30309D01*
D02*
G37*
G36*
X159223D02*
X158914Y30000D01*
X159223Y29691D01*
X159284Y30000D01*
X159223Y30309D01*
D02*
G37*
G36*
X157500Y31784D02*
X157191Y31723D01*
X157500Y31414D01*
X157809Y31723D01*
X157500Y31784D01*
D02*
G37*
G36*
Y33586D02*
X157191Y33277D01*
X157500Y33216D01*
X157809Y33277D01*
X157500Y33586D01*
D02*
G37*
G36*
X133277Y35309D02*
X133216Y35000D01*
X133277Y34691D01*
X133586Y35000D01*
X133277Y35309D01*
D02*
G37*
G36*
X138277D02*
X138216Y35000D01*
X138277Y34691D01*
X138586Y35000D01*
X138277Y35309D01*
D02*
G37*
G36*
X152500Y33586D02*
X152191Y33277D01*
X152500Y33216D01*
X152809Y33277D01*
X152500Y33586D01*
D02*
G37*
G36*
X135000D02*
X134691Y33277D01*
X135000Y33216D01*
X135309Y33277D01*
X135000Y33586D01*
D02*
G37*
G36*
X140000D02*
X139691Y33277D01*
X140000Y33216D01*
X140309Y33277D01*
X140000Y33586D01*
D02*
G37*
G36*
X147000D02*
X146691Y33277D01*
X147000Y33216D01*
X147309Y33277D01*
X147000Y33586D01*
D02*
G37*
G36*
X154223Y30309D02*
X153914Y30000D01*
X154223Y29691D01*
X154284Y30000D01*
X154223Y30309D01*
D02*
G37*
G36*
X147000Y28586D02*
X146691Y28277D01*
X147000Y28216D01*
X147309Y28277D01*
X147000Y28586D01*
D02*
G37*
G36*
X152500D02*
X152191Y28277D01*
X152500Y28216D01*
X152809Y28277D01*
X152500Y28586D01*
D02*
G37*
G36*
X157500D02*
X157191Y28277D01*
X157500Y28216D01*
X157809Y28277D01*
X157500Y28586D01*
D02*
G37*
G36*
X140000D02*
X139691Y28277D01*
X140000Y28216D01*
X140309Y28277D01*
X140000Y28586D01*
D02*
G37*
G36*
X35055Y25894D02*
X34661Y25500D01*
X35055Y25106D01*
X35449Y25500D01*
X35055Y25894D01*
D02*
G37*
G36*
X36905Y29158D02*
X33206D01*
X35055Y27308D01*
X36905Y29158D01*
D02*
G37*
G36*
X135000Y28586D02*
X134691Y28277D01*
X135000Y28216D01*
X135309Y28277D01*
X135000Y28586D01*
D02*
G37*
G36*
X123000Y52549D02*
X122025Y52355D01*
X121198Y51802D01*
X120645Y50976D01*
X120451Y50000D01*
X120645Y49025D01*
X121198Y48198D01*
X121471Y48015D01*
Y38500D01*
X121587Y37915D01*
X121919Y37419D01*
X125750Y33587D01*
Y29250D01*
X132250D01*
Y35750D01*
X127913D01*
X124529Y39134D01*
Y48015D01*
X124802Y48198D01*
X125355Y49025D01*
X125549Y50000D01*
X125355Y50976D01*
X124802Y51802D01*
X123976Y52355D01*
X123000Y52549D01*
D02*
G37*
G36*
X150777Y30309D02*
X150716Y30000D01*
X150777Y29691D01*
X151086Y30000D01*
X150777Y30309D01*
D02*
G37*
G36*
X155777D02*
X155716Y30000D01*
X155777Y29691D01*
X156086Y30000D01*
X155777Y30309D01*
D02*
G37*
G36*
X136723Y30309D02*
X136414Y30000D01*
X136723Y29691D01*
X136784Y30000D01*
X136723Y30309D01*
D02*
G37*
G36*
X145277Y30309D02*
X145216Y30000D01*
X145277Y29691D01*
X145586Y30000D01*
X145277Y30309D01*
D02*
G37*
G36*
X168250Y35750D02*
X161750D01*
Y29250D01*
X168250D01*
Y35750D01*
D02*
G37*
G36*
X133277Y30309D02*
X133216Y30000D01*
X133277Y29691D01*
X133586Y30000D01*
X133277Y30309D01*
D02*
G37*
G36*
X138277D02*
X138216Y30000D01*
X138277Y29691D01*
X138586Y30000D01*
X138277Y30309D01*
D02*
G37*
G36*
X244150Y142554D02*
X242595Y141000D01*
X244150Y139446D01*
Y142554D01*
D02*
G37*
G36*
X9469Y177071D02*
X3531D01*
Y169165D01*
X9469D01*
Y171424D01*
X21974Y158919D01*
X22470Y158587D01*
X23055Y158471D01*
X25291D01*
Y156342D01*
X31819D01*
Y163657D01*
X25291D01*
Y161529D01*
X23689D01*
X11018Y174199D01*
X10522Y174531D01*
X9937Y174647D01*
X9469D01*
Y177071D01*
D02*
G37*
G36*
X244150Y158929D02*
X235457D01*
Y157490D01*
X219346D01*
Y158929D01*
X210653D01*
Y152992D01*
X213471D01*
Y151077D01*
X213001Y150763D01*
X212448Y149936D01*
X212254Y148961D01*
X212448Y147985D01*
X213001Y147158D01*
X213828Y146606D01*
X214803Y146412D01*
X215779Y146606D01*
X216605Y147158D01*
X217158Y147985D01*
X217352Y148961D01*
X217158Y149936D01*
X216605Y150763D01*
X216529Y150814D01*
Y152992D01*
X219346D01*
Y154431D01*
X235457D01*
Y152992D01*
X244150D01*
Y158929D01*
D02*
G37*
G36*
X210653Y142554D02*
Y139446D01*
X212208Y141000D01*
X210653Y142554D01*
D02*
G37*
G36*
X185000Y148987D02*
X183968Y148851D01*
X183007Y148453D01*
X182181Y147819D01*
X181547Y146993D01*
X181149Y146032D01*
X181013Y145000D01*
X181149Y143968D01*
X181547Y143007D01*
X182181Y142181D01*
X183007Y141547D01*
X183050Y141529D01*
X180000D01*
X179415Y141413D01*
X178919Y141081D01*
X176496Y138659D01*
X176032Y138851D01*
X175000Y138987D01*
X173968Y138851D01*
X173007Y138453D01*
X172181Y137819D01*
X171547Y136993D01*
X171149Y136032D01*
X171013Y135000D01*
X171149Y133968D01*
X171547Y133007D01*
X172181Y132181D01*
X173007Y131547D01*
X173968Y131149D01*
X175000Y131013D01*
X176032Y131149D01*
X176993Y131547D01*
X177819Y132181D01*
X178453Y133007D01*
X178851Y133968D01*
X178987Y135000D01*
X178851Y136032D01*
X178659Y136496D01*
X180633Y138471D01*
X183050D01*
X183007Y138453D01*
X182181Y137819D01*
X181547Y136993D01*
X181149Y136032D01*
X181013Y135000D01*
X181149Y133968D01*
X181547Y133007D01*
X182181Y132181D01*
X183007Y131547D01*
X183050Y131529D01*
X180000D01*
X179415Y131413D01*
X178919Y131081D01*
X176496Y128659D01*
X176032Y128851D01*
X175000Y128987D01*
X173968Y128851D01*
X173007Y128453D01*
X172181Y127819D01*
X171547Y126993D01*
X171149Y126032D01*
X171013Y125000D01*
X171149Y123968D01*
X171547Y123007D01*
X172181Y122181D01*
X173007Y121547D01*
X173968Y121149D01*
X175000Y121013D01*
X176032Y121149D01*
X176993Y121547D01*
X177819Y122181D01*
X178453Y123007D01*
X178851Y123968D01*
X178987Y125000D01*
X178851Y126032D01*
X178659Y126496D01*
X180633Y128471D01*
X183050D01*
X183007Y128453D01*
X182181Y127819D01*
X181547Y126993D01*
X181149Y126032D01*
X181013Y125000D01*
X181149Y123968D01*
X181547Y123007D01*
X182181Y122181D01*
X183007Y121547D01*
X183968Y121149D01*
X185000Y121013D01*
X186032Y121149D01*
X186993Y121547D01*
X187819Y122181D01*
X188453Y123007D01*
X188851Y123968D01*
X188987Y125000D01*
X188851Y126032D01*
X188453Y126993D01*
X187819Y127819D01*
X186993Y128453D01*
X186950Y128471D01*
X188015D01*
X188198Y128198D01*
X189024Y127645D01*
X190000Y127451D01*
X190975Y127645D01*
X191802Y128198D01*
X192355Y129025D01*
X192549Y130000D01*
X192355Y130975D01*
X191802Y131802D01*
X190975Y132355D01*
X190000Y132549D01*
X189024Y132355D01*
X188198Y131802D01*
X188015Y131529D01*
X186950D01*
X186993Y131547D01*
X187819Y132181D01*
X188453Y133007D01*
X188851Y133968D01*
X188987Y135000D01*
X188851Y136032D01*
X188453Y136993D01*
X187819Y137819D01*
X186993Y138453D01*
X186950Y138471D01*
X188015D01*
X188198Y138198D01*
X189024Y137645D01*
X190000Y137451D01*
X190975Y137645D01*
X191802Y138198D01*
X192355Y139024D01*
X192549Y140000D01*
X192355Y140975D01*
X191802Y141802D01*
X190975Y142355D01*
X190000Y142549D01*
X189024Y142355D01*
X188198Y141802D01*
X188015Y141529D01*
X186950D01*
X186993Y141547D01*
X187819Y142181D01*
X188453Y143007D01*
X188851Y143968D01*
X188987Y145000D01*
X188851Y146032D01*
X188453Y146993D01*
X187819Y147819D01*
X186993Y148453D01*
X186032Y148851D01*
X185000Y148987D01*
D02*
G37*
G36*
X235457Y142554D02*
Y139446D01*
X237011Y141000D01*
X235457Y142554D01*
D02*
G37*
G36*
X219346Y142554D02*
X217792Y141000D01*
X219346Y139446D01*
Y142554D01*
D02*
G37*
G36*
X233000Y174539D02*
X231825Y174384D01*
X230731Y173931D01*
X229791Y173209D01*
X229069Y172269D01*
X228616Y171175D01*
X228461Y170000D01*
X228616Y168825D01*
X229069Y167731D01*
X229791Y166791D01*
X230731Y166069D01*
X231825Y165616D01*
X233000Y165461D01*
X234175Y165616D01*
X235269Y166069D01*
X236209Y166791D01*
X236931Y167731D01*
X237384Y168825D01*
X237539Y170000D01*
X237384Y171175D01*
X236931Y172269D01*
X236209Y173209D01*
X235269Y173931D01*
X234175Y174384D01*
X233000Y174539D01*
D02*
G37*
G36*
X63000Y206932D02*
X61825Y206778D01*
X60731Y206324D01*
X59791Y205603D01*
X59069Y204663D01*
X58616Y203568D01*
X58461Y202394D01*
X58616Y201219D01*
X59069Y200124D01*
X59791Y199184D01*
X60731Y198463D01*
X61825Y198010D01*
X63000Y197855D01*
X64175Y198010D01*
X65269Y198463D01*
X66209Y199184D01*
X66931Y200124D01*
X67384Y201219D01*
X67539Y202394D01*
X67384Y203568D01*
X66931Y204663D01*
X66209Y205603D01*
X65269Y206324D01*
X64175Y206778D01*
X63000Y206932D01*
D02*
G37*
G36*
X93000D02*
X91825Y206778D01*
X90731Y206324D01*
X89791Y205603D01*
X89069Y204663D01*
X88616Y203568D01*
X88461Y202394D01*
X88616Y201219D01*
X89069Y200124D01*
X89791Y199184D01*
X90731Y198463D01*
X91825Y198010D01*
X93000Y197855D01*
X94175Y198010D01*
X95269Y198463D01*
X96209Y199184D01*
X96931Y200124D01*
X97384Y201219D01*
X97539Y202394D01*
X97384Y203568D01*
X96931Y204663D01*
X96209Y205603D01*
X95269Y206324D01*
X94175Y206778D01*
X93000Y206932D01*
D02*
G37*
G36*
X103000D02*
X101825Y206778D01*
X100731Y206324D01*
X99791Y205603D01*
X99069Y204663D01*
X98616Y203568D01*
X98461Y202394D01*
X98616Y201219D01*
X99069Y200124D01*
X99791Y199184D01*
X100731Y198463D01*
X101825Y198010D01*
X103000Y197855D01*
X104175Y198010D01*
X105269Y198463D01*
X106209Y199184D01*
X106931Y200124D01*
X107384Y201219D01*
X107539Y202394D01*
X107384Y203568D01*
X106931Y204663D01*
X106209Y205603D01*
X105269Y206324D01*
X104175Y206778D01*
X103000Y206932D01*
D02*
G37*
G36*
X233000Y184539D02*
X231825Y184384D01*
X230731Y183931D01*
X230591Y183824D01*
X233000Y181414D01*
X235409Y183824D01*
X235269Y183931D01*
X234175Y184384D01*
X233000Y184539D01*
D02*
G37*
G36*
X233000Y178586D02*
X230591Y176177D01*
X230731Y176069D01*
X231825Y175616D01*
X233000Y175461D01*
X234175Y175616D01*
X235269Y176069D01*
X235409Y176177D01*
X233000Y178586D01*
D02*
G37*
G36*
X229177Y182409D02*
X229069Y182269D01*
X228616Y181175D01*
X228461Y180000D01*
X228616Y178825D01*
X229069Y177731D01*
X229176Y177591D01*
X231586Y180000D01*
X229177Y182409D01*
D02*
G37*
G36*
X236824Y182409D02*
X234414Y180000D01*
X236824Y177591D01*
X236931Y177731D01*
X237384Y178825D01*
X237539Y180000D01*
X237384Y181175D01*
X236931Y182269D01*
X236824Y182409D01*
D02*
G37*
G36*
X210850Y117594D02*
Y114485D01*
X212405Y116039D01*
X210850Y117594D01*
D02*
G37*
G36*
X235653D02*
Y114485D01*
X237208Y116039D01*
X235653Y117594D01*
D02*
G37*
G36*
X219543Y117594D02*
X217989Y116039D01*
X219543Y114485D01*
Y117594D01*
D02*
G37*
G36*
X242932Y119008D02*
X237068D01*
X239329Y116746D01*
X238622Y116039D01*
X239329Y115332D01*
X237068Y113071D01*
X242932D01*
X240671Y115332D01*
X241378Y116039D01*
X240671Y116746D01*
X242932Y119008D01*
D02*
G37*
G36*
X185000Y118987D02*
X183968Y118851D01*
X183007Y118453D01*
X182181Y117819D01*
X181547Y116993D01*
X181149Y116032D01*
X181013Y115000D01*
X181149Y113968D01*
X181547Y113007D01*
X182181Y112181D01*
X183007Y111547D01*
X183968Y111149D01*
X185000Y111013D01*
X186032Y111149D01*
X186993Y111547D01*
X187819Y112181D01*
X188453Y113007D01*
X188851Y113968D01*
X188987Y115000D01*
X188851Y116032D01*
X188453Y116993D01*
X187819Y117819D01*
X186993Y118453D01*
X186032Y118851D01*
X185000Y118987D01*
D02*
G37*
G36*
X8000Y122787D02*
X6711Y122617D01*
X5510Y122120D01*
X4479Y121328D01*
X3687Y120297D01*
X3190Y119096D01*
X3020Y117807D01*
X3190Y116518D01*
X3687Y115317D01*
X4479Y114286D01*
X5510Y113495D01*
X6711Y112997D01*
X8000Y112828D01*
X9289Y112997D01*
X10490Y113495D01*
X11521Y114286D01*
X12313Y115317D01*
X12810Y116518D01*
X12980Y117807D01*
X12810Y119096D01*
X12313Y120297D01*
X11521Y121328D01*
X10490Y122120D01*
X9289Y122617D01*
X8000Y122787D01*
D02*
G37*
G36*
X218129Y119008D02*
X212265D01*
X214526Y116746D01*
X213819Y116039D01*
X214526Y115332D01*
X212265Y113071D01*
X218129D01*
X215868Y115332D01*
X216575Y116039D01*
X215868Y116746D01*
X218129Y119008D01*
D02*
G37*
G36*
X244346Y117594D02*
X242792Y116039D01*
X244346Y114485D01*
Y117594D01*
D02*
G37*
G36*
Y133968D02*
X235653D01*
Y132529D01*
X219543D01*
Y133968D01*
X210850D01*
Y128032D01*
X213667D01*
Y126116D01*
X213198Y125802D01*
X212645Y124976D01*
X212451Y124000D01*
X212645Y123024D01*
X213198Y122198D01*
X214024Y121645D01*
X215000Y121451D01*
X215975Y121645D01*
X216802Y122198D01*
X217355Y123024D01*
X217549Y124000D01*
X217355Y124976D01*
X216802Y125802D01*
X216726Y125853D01*
Y128032D01*
X219543D01*
Y129471D01*
X235653D01*
Y128032D01*
X244346D01*
Y133968D01*
D02*
G37*
G36*
X217932Y143968D02*
X212068D01*
X214329Y141707D01*
X213622Y141000D01*
X214329Y140293D01*
X212068Y138031D01*
X217932D01*
X215671Y140293D01*
X216378Y141000D01*
X215671Y141707D01*
X217932Y143968D01*
D02*
G37*
G36*
X242735D02*
X236871D01*
X239132Y141707D01*
X238425Y141000D01*
X239132Y140293D01*
X236871Y138031D01*
X242735D01*
X240474Y140293D01*
X241181Y141000D01*
X240474Y141707D01*
X242735Y143968D01*
D02*
G37*
G36*
X105000Y130049D02*
X104053Y129861D01*
X105000Y128914D01*
X105947Y129861D01*
X105000Y130049D01*
D02*
G37*
G36*
Y126086D02*
X104053Y125139D01*
X105000Y124951D01*
X105947Y125139D01*
X105000Y126086D01*
D02*
G37*
G36*
X102639Y128446D02*
X102451Y127500D01*
X102639Y126553D01*
X103586Y127500D01*
X102639Y128446D01*
D02*
G37*
G36*
X107361Y128446D02*
X106414Y127500D01*
X107361Y126553D01*
X107549Y127500D01*
X107361Y128446D01*
D02*
G37*
G36*
X126086Y216894D02*
X119914D01*
X123000Y213808D01*
X126086Y216894D01*
D02*
G37*
G36*
X43000Y216933D02*
X41825Y216778D01*
X40731Y216324D01*
X39791Y215603D01*
X39284Y214943D01*
X36716D01*
X36209Y215603D01*
X35269Y216324D01*
X34175Y216778D01*
X33000Y216933D01*
X31825Y216778D01*
X30731Y216324D01*
X29791Y215603D01*
X29069Y214663D01*
X28616Y213568D01*
X28461Y212394D01*
X28616Y211219D01*
X29069Y210124D01*
X29791Y209184D01*
X30731Y208463D01*
X31825Y208010D01*
X33000Y207855D01*
X34175Y208010D01*
X35269Y208463D01*
X36209Y209184D01*
X36471Y209525D01*
Y205263D01*
X36209Y205603D01*
X35269Y206324D01*
X34175Y206778D01*
X33000Y206932D01*
X31825Y206778D01*
X30731Y206324D01*
X29791Y205603D01*
X29069Y204663D01*
X28616Y203568D01*
X28461Y202394D01*
X28616Y201219D01*
X29069Y200124D01*
X29791Y199184D01*
X30731Y198463D01*
X31825Y198010D01*
X33000Y197855D01*
X34175Y198010D01*
X35269Y198463D01*
X36209Y199184D01*
X36471Y199525D01*
Y193155D01*
X36235Y193057D01*
X35504Y192496D01*
X34943Y191765D01*
X34590Y190914D01*
X34470Y190000D01*
X34590Y189086D01*
X34943Y188235D01*
X35504Y187504D01*
X36235Y186943D01*
X37086Y186590D01*
X38000Y186470D01*
X38914Y186590D01*
X39765Y186943D01*
X40496Y187504D01*
X41057Y188235D01*
X41410Y189086D01*
X41530Y190000D01*
X41410Y190914D01*
X41057Y191765D01*
X40496Y192496D01*
X39765Y193057D01*
X39529Y193155D01*
Y199525D01*
X39791Y199184D01*
X40731Y198463D01*
X41471Y198156D01*
Y193137D01*
X41587Y192552D01*
X41919Y192056D01*
X50056Y183919D01*
X49500Y184029D01*
X38709D01*
Y186158D01*
X32181D01*
Y178842D01*
X38709D01*
Y180971D01*
X48867D01*
X59860Y169977D01*
X59500Y170049D01*
X59178Y169985D01*
X53081Y176081D01*
X52585Y176413D01*
X52000Y176529D01*
X38709D01*
Y178657D01*
X32181D01*
Y171343D01*
X38709D01*
Y173471D01*
X51367D01*
X54860Y169977D01*
X54500Y170049D01*
X53525Y169855D01*
X52698Y169302D01*
X52515Y169029D01*
X38709D01*
Y171158D01*
X32181D01*
Y163842D01*
X38709D01*
Y165971D01*
X52515D01*
X52698Y165698D01*
X53525Y165145D01*
X54500Y164951D01*
X55475Y165145D01*
X56302Y165698D01*
X56855Y166525D01*
X57000Y167254D01*
X57145Y166525D01*
X57698Y165698D01*
X58525Y165145D01*
X59500Y164951D01*
X60475Y165145D01*
X61302Y165698D01*
X61855Y166525D01*
X62000Y167254D01*
X62145Y166525D01*
X62698Y165698D01*
X63525Y165145D01*
X64500Y164951D01*
X65475Y165145D01*
X66302Y165698D01*
X66855Y166525D01*
X66971Y167109D01*
X83864Y150216D01*
X83853Y150161D01*
X83878Y150032D01*
X83798Y150048D01*
X72765Y161081D01*
X72268Y161413D01*
X71683Y161529D01*
X38709D01*
Y163657D01*
X32181D01*
Y156342D01*
X38709D01*
Y158471D01*
X71050D01*
X81635Y147885D01*
X81651Y147805D01*
X81571Y147821D01*
X75810Y153581D01*
X75314Y153913D01*
X74729Y154029D01*
X38709D01*
Y156158D01*
X32181D01*
Y148843D01*
X38709D01*
Y150971D01*
X74095D01*
X79408Y145658D01*
X79560Y144894D01*
X80020Y144205D01*
X82526Y141700D01*
X83215Y141240D01*
X84027Y141078D01*
X84840Y141240D01*
X85529Y141700D01*
X85989Y142389D01*
X86151Y143201D01*
X86125Y143331D01*
X86255Y143305D01*
X87067Y143467D01*
X87756Y143927D01*
X88216Y144616D01*
X88378Y145429D01*
X88352Y145558D01*
X88482Y145532D01*
X89294Y145694D01*
X89983Y146154D01*
X90443Y146843D01*
X90605Y147656D01*
X90579Y147785D01*
X90709Y147759D01*
X91521Y147921D01*
X92210Y148381D01*
X92671Y149070D01*
X92832Y149883D01*
X92807Y150012D01*
X92936Y149986D01*
X93748Y150148D01*
X94437Y150608D01*
X94898Y151297D01*
X95059Y152110D01*
X95034Y152239D01*
X95163Y152214D01*
X95976Y152375D01*
X96665Y152836D01*
X97125Y153524D01*
X97286Y154337D01*
X97261Y154466D01*
X97390Y154441D01*
X98203Y154602D01*
X98892Y155063D01*
X99352Y155752D01*
X99514Y156564D01*
X99488Y156693D01*
X99617Y156668D01*
X100430Y156829D01*
X101119Y157290D01*
X101579Y157979D01*
X101741Y158791D01*
X101715Y158921D01*
X101844Y158895D01*
X102657Y159056D01*
X103346Y159517D01*
X103806Y160206D01*
X103968Y161018D01*
X103942Y161148D01*
X104071Y161122D01*
X104884Y161284D01*
X105573Y161744D01*
X106033Y162433D01*
X106195Y163245D01*
X106169Y163375D01*
X106298Y163349D01*
X107111Y163511D01*
X107800Y163971D01*
X108260Y164660D01*
X108422Y165472D01*
X108260Y166285D01*
X107800Y166974D01*
X105295Y169480D01*
X104606Y169940D01*
X103842Y170092D01*
X102529Y171405D01*
Y175515D01*
X102802Y175698D01*
X103355Y176524D01*
X103549Y177500D01*
X103355Y178475D01*
X102802Y179302D01*
X101976Y179855D01*
X101000Y180049D01*
X100024Y179855D01*
X99198Y179302D01*
X99029Y179051D01*
Y180015D01*
X99302Y180198D01*
X99855Y181025D01*
X100049Y182000D01*
X99855Y182975D01*
X99302Y183802D01*
X98475Y184355D01*
X97500Y184549D01*
X96525Y184355D01*
X95698Y183802D01*
X95145Y182975D01*
X94951Y182000D01*
X95145Y181025D01*
X95698Y180198D01*
X95971Y180015D01*
Y170387D01*
X95476Y170718D01*
X94500Y170912D01*
X93524Y170718D01*
X92698Y170165D01*
X92145Y169338D01*
X91951Y168363D01*
X92145Y167387D01*
X92698Y166560D01*
X93524Y166008D01*
X93578Y165997D01*
X92879Y165530D01*
X92412Y164830D01*
X92401Y164884D01*
X91848Y165711D01*
X91021Y166263D01*
X90046Y166457D01*
X89070Y166263D01*
X88243Y165711D01*
X87691Y164884D01*
X87540Y164123D01*
X86529Y165134D01*
Y179000D01*
X86413Y179585D01*
X86081Y180081D01*
X84637Y181526D01*
X84140Y181858D01*
X83657Y181954D01*
Y183709D01*
X76342D01*
Y181974D01*
X75657D01*
Y183709D01*
X68343D01*
Y177181D01*
X75657D01*
Y178916D01*
X76342D01*
Y177181D01*
X83471D01*
Y176819D01*
X76342D01*
Y170291D01*
X78471D01*
Y169485D01*
X78198Y169302D01*
X77645Y168475D01*
X77451Y167500D01*
X77645Y166525D01*
X78198Y165698D01*
X79024Y165145D01*
X80000Y164951D01*
X80976Y165145D01*
X81802Y165698D01*
X82355Y166525D01*
X82549Y167500D01*
X82355Y168475D01*
X81802Y169302D01*
X81529Y169485D01*
Y170291D01*
X83471D01*
Y164500D01*
X83587Y163915D01*
X83919Y163419D01*
X87742Y159595D01*
X87678Y159273D01*
X87872Y158297D01*
X88425Y157471D01*
X89252Y156918D01*
X90227Y156724D01*
X90545Y156787D01*
X90560Y156713D01*
X90430Y156739D01*
X89618Y156577D01*
X88929Y156117D01*
X88469Y155428D01*
X88307Y154615D01*
X88333Y154486D01*
X88253Y154502D01*
X73529Y169225D01*
Y170291D01*
X75657D01*
Y176819D01*
X68343D01*
Y175084D01*
X67670D01*
X54529Y188225D01*
Y198156D01*
X55269Y198463D01*
X56209Y199184D01*
X56931Y200124D01*
X57384Y201219D01*
X57539Y202394D01*
X57384Y203568D01*
X56931Y204663D01*
X56209Y205603D01*
X55269Y206324D01*
X54175Y206778D01*
X53000Y206932D01*
X51825Y206778D01*
X50731Y206324D01*
X49791Y205603D01*
X49069Y204663D01*
X48616Y203568D01*
X48461Y202394D01*
X48616Y201219D01*
X49069Y200124D01*
X49791Y199184D01*
X50731Y198463D01*
X51471Y198156D01*
Y187592D01*
X51587Y187006D01*
X51919Y186510D01*
X65955Y172474D01*
X66451Y172142D01*
X67036Y172026D01*
X68343D01*
Y170291D01*
X70471D01*
Y168592D01*
X70587Y168006D01*
X70919Y167510D01*
X86090Y152339D01*
X86095Y152310D01*
X66824Y171581D01*
X66507Y171793D01*
X44529Y193771D01*
Y198156D01*
X45269Y198463D01*
X46209Y199184D01*
X46931Y200124D01*
X47384Y201219D01*
X47539Y202394D01*
X47384Y203568D01*
X46931Y204663D01*
X46209Y205603D01*
X45269Y206324D01*
X44175Y206778D01*
X43000Y206932D01*
X41825Y206778D01*
X40731Y206324D01*
X39791Y205603D01*
X39529Y205263D01*
Y209525D01*
X39791Y209184D01*
X40731Y208463D01*
X41825Y208010D01*
X43000Y207855D01*
X44175Y208010D01*
X45269Y208463D01*
X46209Y209184D01*
X46931Y210124D01*
X47384Y211219D01*
X47539Y212394D01*
X47384Y213568D01*
X46931Y214663D01*
X46209Y215603D01*
X45269Y216324D01*
X44175Y216778D01*
X43000Y216933D01*
D02*
G37*
G36*
X215087Y245672D02*
X214140Y244726D01*
X215087Y244538D01*
X216033Y244726D01*
X215087Y245672D01*
D02*
G37*
G36*
X96086Y216894D02*
X89914D01*
X93000Y213808D01*
X96086Y216894D01*
D02*
G37*
G36*
X88500Y215479D02*
Y209308D01*
X91586Y212394D01*
X88500Y215479D01*
D02*
G37*
G36*
X168500D02*
Y209308D01*
X171586Y212394D01*
X168500Y215479D01*
D02*
G37*
G36*
X56086Y216894D02*
X49914D01*
X53000Y213808D01*
X56086Y216894D01*
D02*
G37*
G36*
X228693Y249106D02*
X228673Y249080D01*
X228275Y248118D01*
X228139Y247087D01*
X228275Y246055D01*
X228673Y245093D01*
X228693Y245068D01*
X230712Y247087D01*
X228693Y249106D01*
D02*
G37*
G36*
X215087Y249636D02*
X214140Y249447D01*
X215087Y248501D01*
X216033Y249447D01*
X215087Y249636D01*
D02*
G37*
G36*
X242126Y261073D02*
X241094Y260938D01*
X240132Y260539D01*
X239307Y259906D01*
X238673Y259080D01*
X238275Y258119D01*
X238139Y257087D01*
X238275Y256055D01*
X238673Y255093D01*
X239307Y254268D01*
X240132Y253634D01*
X241094Y253236D01*
X242126Y253100D01*
X243158Y253236D01*
X244119Y253634D01*
X244945Y254268D01*
X245579Y255093D01*
X245977Y256055D01*
X246113Y257087D01*
X245977Y258119D01*
X245579Y259080D01*
X244945Y259906D01*
X244119Y260539D01*
X243158Y260938D01*
X242126Y261073D01*
D02*
G37*
G36*
X236079Y261039D02*
X228173D01*
Y253134D01*
X236079D01*
Y261039D01*
D02*
G37*
G36*
X232126Y251074D02*
X231094Y250938D01*
X230133Y250539D01*
X230107Y250520D01*
X232126Y248501D01*
X234145Y250520D01*
X234119Y250539D01*
X233158Y250938D01*
X232126Y251074D01*
D02*
G37*
G36*
X235559Y249106D02*
X233540Y247087D01*
X235559Y245068D01*
X235579Y245093D01*
X235977Y246055D01*
X236113Y247087D01*
X235977Y248118D01*
X235579Y249080D01*
X235559Y249106D01*
D02*
G37*
G36*
X212726Y248033D02*
X212538Y247087D01*
X212726Y246140D01*
X213672Y247087D01*
X212726Y248033D01*
D02*
G37*
G36*
X217447Y248033D02*
X216501Y247087D01*
X217447Y246140D01*
X217636Y247087D01*
X217447Y248033D01*
D02*
G37*
G36*
X63000Y216933D02*
X61825Y216778D01*
X60731Y216324D01*
X59791Y215603D01*
X59069Y214663D01*
X58616Y213568D01*
X58461Y212394D01*
X58616Y211219D01*
X59069Y210124D01*
X59791Y209184D01*
X60731Y208463D01*
X61825Y208010D01*
X63000Y207855D01*
X64175Y208010D01*
X65269Y208463D01*
X66209Y209184D01*
X66931Y210124D01*
X67384Y211219D01*
X67539Y212394D01*
X67384Y213568D01*
X66931Y214663D01*
X66209Y215603D01*
X65269Y216324D01*
X64175Y216778D01*
X63000Y216933D01*
D02*
G37*
G36*
X83000D02*
X81825Y216778D01*
X80731Y216324D01*
X79791Y215603D01*
X79069Y214663D01*
X78616Y213568D01*
X78461Y212394D01*
X78616Y211219D01*
X79069Y210124D01*
X79791Y209184D01*
X80731Y208463D01*
X81825Y208010D01*
X83000Y207855D01*
X84175Y208010D01*
X85269Y208463D01*
X86209Y209184D01*
X86931Y210124D01*
X87384Y211219D01*
X87539Y212394D01*
X87384Y213568D01*
X86931Y214663D01*
X86209Y215603D01*
X85269Y216324D01*
X84175Y216778D01*
X83000Y216933D01*
D02*
G37*
G36*
X103000D02*
X101825Y216778D01*
X100731Y216324D01*
X99791Y215603D01*
X99069Y214663D01*
X98616Y213568D01*
X98461Y212394D01*
X98616Y211219D01*
X99069Y210124D01*
X99791Y209184D01*
X100731Y208463D01*
X101825Y208010D01*
X103000Y207855D01*
X104175Y208010D01*
X105269Y208463D01*
X106209Y209184D01*
X106931Y210124D01*
X107384Y211219D01*
X107539Y212394D01*
X107384Y213568D01*
X106931Y214663D01*
X106209Y215603D01*
X105269Y216324D01*
X104175Y216778D01*
X103000Y216933D01*
D02*
G37*
G36*
X242126Y214025D02*
X240772Y213892D01*
X239471Y213497D01*
X238271Y212856D01*
X237219Y211993D01*
X236356Y210942D01*
X235715Y209742D01*
X235320Y208440D01*
X235187Y207087D01*
X235320Y205733D01*
X235715Y204431D01*
X236356Y203232D01*
X237219Y202180D01*
X238271Y201317D01*
X239471Y200676D01*
X240772Y200281D01*
X242126Y200148D01*
X243480Y200281D01*
X244781Y200676D01*
X245981Y201317D01*
X247032Y202180D01*
X247896Y203232D01*
X248537Y204431D01*
X248932Y205733D01*
X249065Y207087D01*
X248932Y208440D01*
X248537Y209742D01*
X247896Y210942D01*
X247032Y211993D01*
X245981Y212856D01*
X244781Y213497D01*
X243480Y213892D01*
X242126Y214025D01*
D02*
G37*
G36*
X227500Y205480D02*
X224414Y202394D01*
X227500Y199308D01*
Y205480D01*
D02*
G37*
G36*
X68500Y205480D02*
Y199308D01*
X71586Y202394D01*
X68500Y205480D01*
D02*
G37*
G36*
X133000Y216933D02*
X131825Y216778D01*
X130731Y216324D01*
X129791Y215603D01*
X129069Y214663D01*
X128616Y213568D01*
X128461Y212394D01*
X128616Y211219D01*
X129069Y210124D01*
X129791Y209184D01*
X130731Y208463D01*
X131825Y208010D01*
X133000Y207855D01*
X134175Y208010D01*
X135269Y208463D01*
X136209Y209184D01*
X136931Y210124D01*
X137384Y211219D01*
X137539Y212394D01*
X137384Y213568D01*
X136931Y214663D01*
X136209Y215603D01*
X135269Y216324D01*
X134175Y216778D01*
X133000Y216933D01*
D02*
G37*
G36*
X57500Y215479D02*
X54414Y212394D01*
X57500Y209308D01*
Y215479D01*
D02*
G37*
G36*
X97500D02*
X94414Y212394D01*
X97500Y209308D01*
Y215479D01*
D02*
G37*
G36*
X48500Y215479D02*
Y209308D01*
X51586Y212394D01*
X48500Y215479D01*
D02*
G37*
G36*
X127500Y215479D02*
X124414Y212394D01*
X127500Y209308D01*
Y215479D01*
D02*
G37*
G36*
X163000Y216933D02*
X161825Y216778D01*
X160731Y216324D01*
X159791Y215603D01*
X159069Y214663D01*
X158616Y213568D01*
X158461Y212394D01*
X158616Y211219D01*
X159069Y210124D01*
X159791Y209184D01*
X160731Y208463D01*
X161825Y208010D01*
X163000Y207855D01*
X164175Y208010D01*
X165269Y208463D01*
X166209Y209184D01*
X166931Y210124D01*
X167384Y211219D01*
X167539Y212394D01*
X167384Y213568D01*
X166931Y214663D01*
X166209Y215603D01*
X165269Y216324D01*
X164175Y216778D01*
X163000Y216933D01*
D02*
G37*
G36*
X53000Y210980D02*
X49914Y207894D01*
X56086D01*
X53000Y210980D01*
D02*
G37*
G36*
X93000D02*
X89914Y207894D01*
X96086D01*
X93000Y210980D01*
D02*
G37*
G36*
X240000Y74775D02*
X238825Y74620D01*
X237731Y74167D01*
X236791Y73446D01*
X236069Y72506D01*
X235616Y71411D01*
X235461Y70236D01*
X235616Y69061D01*
X236069Y67967D01*
X236791Y67027D01*
X237731Y66306D01*
X238825Y65852D01*
X240000Y65697D01*
X241175Y65852D01*
X242269Y66306D01*
X243209Y67027D01*
X243931Y67967D01*
X244384Y69061D01*
X244539Y70236D01*
X244384Y71411D01*
X243931Y72506D01*
X243209Y73446D01*
X242269Y74167D01*
X241175Y74620D01*
X240000Y74775D01*
D02*
G37*
G36*
X145945Y70094D02*
X144095Y68244D01*
X147794D01*
X145945Y70094D01*
D02*
G37*
G36*
X157055D02*
X155206Y68244D01*
X158905D01*
X157055Y70094D01*
D02*
G37*
G36*
X240000Y64775D02*
X238825Y64620D01*
X237731Y64167D01*
X236791Y63446D01*
X236069Y62506D01*
X235616Y61411D01*
X235461Y60236D01*
X235616Y59061D01*
X236069Y57967D01*
X236791Y57027D01*
X237731Y56305D01*
X238825Y55852D01*
X240000Y55697D01*
X241175Y55852D01*
X242269Y56305D01*
X243209Y57027D01*
X243931Y57967D01*
X244384Y59061D01*
X244539Y60236D01*
X244384Y61411D01*
X243931Y62506D01*
X243209Y63446D01*
X242269Y64167D01*
X241175Y64620D01*
X240000Y64775D01*
D02*
G37*
G36*
X135000Y51784D02*
X134691Y51723D01*
X135000Y51414D01*
X135309Y51723D01*
X135000Y51784D01*
D02*
G37*
G36*
X140000D02*
X139691Y51723D01*
X140000Y51414D01*
X140309Y51723D01*
X140000Y51784D01*
D02*
G37*
G36*
X147000D02*
X146691Y51723D01*
X147000Y51414D01*
X147309Y51723D01*
X147000Y51784D01*
D02*
G37*
G36*
X8000Y79480D02*
X6711Y79310D01*
X5510Y78812D01*
X4479Y78021D01*
X3687Y76990D01*
X3190Y75789D01*
X3020Y74500D01*
X3190Y73211D01*
X3687Y72010D01*
X4479Y70979D01*
X5510Y70187D01*
X6711Y69690D01*
X8000Y69520D01*
X9289Y69690D01*
X10490Y70187D01*
X11521Y70979D01*
X12313Y72010D01*
X12810Y73211D01*
X12980Y74500D01*
X12810Y75789D01*
X12313Y76990D01*
X11521Y78021D01*
X10490Y78812D01*
X9289Y79310D01*
X8000Y79480D01*
D02*
G37*
G36*
X145945Y72492D02*
X145453Y72000D01*
X145945Y71508D01*
X146437Y72000D01*
X145945Y72492D01*
D02*
G37*
G36*
X157055D02*
X156563Y72000D01*
X157055Y71508D01*
X157547Y72000D01*
X157055Y72492D01*
D02*
G37*
G36*
X147794Y75756D02*
X144095D01*
X145945Y73906D01*
X147794Y75756D01*
D02*
G37*
G36*
X153791Y74342D02*
Y69658D01*
X156133Y72000D01*
X153791Y74342D01*
D02*
G37*
G36*
X142681D02*
Y69658D01*
X145023Y72000D01*
X142681Y74342D01*
D02*
G37*
G36*
X149209Y74342D02*
X146867Y72000D01*
X149209Y69658D01*
Y74342D01*
D02*
G37*
G36*
X160319Y74342D02*
X157977Y72000D01*
X160319Y69658D01*
Y74342D01*
D02*
G37*
G36*
X157500Y46784D02*
X157191Y46723D01*
X157500Y46414D01*
X157809Y46723D01*
X157500Y46784D01*
D02*
G37*
G36*
X135000Y48586D02*
X134691Y48277D01*
X135000Y48216D01*
X135309Y48277D01*
X135000Y48586D01*
D02*
G37*
G36*
X140000D02*
X139691Y48277D01*
X140000Y48216D01*
X140309Y48277D01*
X140000Y48586D01*
D02*
G37*
G36*
X152500Y46784D02*
X152191Y46723D01*
X152500Y46414D01*
X152809Y46723D01*
X152500Y46784D01*
D02*
G37*
G36*
X135000D02*
X134691Y46723D01*
X135000Y46414D01*
X135309Y46723D01*
X135000Y46784D01*
D02*
G37*
G36*
X140000D02*
X139691Y46723D01*
X140000Y46414D01*
X140309Y46723D01*
X140000Y46784D01*
D02*
G37*
G36*
X147000D02*
X146691Y46723D01*
X147000Y46414D01*
X147309Y46723D01*
X147000Y46784D01*
D02*
G37*
G36*
Y48586D02*
X146691Y48277D01*
X147000Y48216D01*
X147309Y48277D01*
X147000Y48586D01*
D02*
G37*
G36*
X136723Y50309D02*
X136414Y50000D01*
X136723Y49691D01*
X136784Y50000D01*
X136723Y50309D01*
D02*
G37*
G36*
X141723D02*
X141414Y50000D01*
X141723Y49691D01*
X141784Y50000D01*
X141723Y50309D01*
D02*
G37*
G36*
X148723D02*
X148414Y50000D01*
X148723Y49691D01*
X148784Y50000D01*
X148723Y50309D01*
D02*
G37*
G36*
X145277Y50309D02*
X145216Y50000D01*
X145277Y49691D01*
X145586Y50000D01*
X145277Y50309D01*
D02*
G37*
G36*
X119807Y76217D02*
X106193D01*
Y71298D01*
X100698Y65802D01*
X100145Y64976D01*
X99951Y64000D01*
Y61056D01*
X95990Y57095D01*
X89366D01*
Y49583D01*
X99634D01*
Y53529D01*
X104302Y58198D01*
X104855Y59025D01*
X105049Y60000D01*
Y62944D01*
X109707Y67602D01*
X119807D01*
Y76217D01*
D02*
G37*
G36*
X133277Y50309D02*
X133216Y50000D01*
X133277Y49691D01*
X133586Y50000D01*
X133277Y50309D01*
D02*
G37*
G36*
X138277D02*
X138216Y50000D01*
X138277Y49691D01*
X138586Y50000D01*
X138277Y50309D01*
D02*
G37*
G36*
X47370Y93250D02*
X46016Y93117D01*
X44715Y92722D01*
X43515Y92080D01*
X43240Y91855D01*
X47370Y87725D01*
X51500Y91855D01*
X51225Y92080D01*
X50025Y92722D01*
X48724Y93117D01*
X47370Y93250D01*
D02*
G37*
G36*
X240000Y98822D02*
X236914Y95736D01*
X243086D01*
X240000Y98822D01*
D02*
G37*
G36*
X235500Y103322D02*
Y97150D01*
X238586Y100236D01*
X235500Y103322D01*
D02*
G37*
G36*
X240000Y94775D02*
X238825Y94620D01*
X237731Y94167D01*
X236791Y93446D01*
X236069Y92506D01*
X235616Y91411D01*
X235461Y90236D01*
X235616Y89061D01*
X236069Y87967D01*
X236791Y87027D01*
X237731Y86305D01*
X238825Y85852D01*
X240000Y85697D01*
X241175Y85852D01*
X242269Y86305D01*
X243209Y87027D01*
X243931Y87967D01*
X244384Y89061D01*
X244539Y90236D01*
X244384Y91411D01*
X243931Y92506D01*
X243209Y93446D01*
X242269Y94167D01*
X241175Y94620D01*
X240000Y94775D01*
D02*
G37*
G36*
X167500Y84284D02*
X167191Y84223D01*
X167500Y83914D01*
X167809Y84223D01*
X167500Y84284D01*
D02*
G37*
G36*
X172500D02*
X172191Y84223D01*
X172500Y83914D01*
X172809Y84223D01*
X172500Y84284D01*
D02*
G37*
G36*
X106866Y85945D02*
X100339D01*
Y84029D01*
X77985D01*
X77802Y84302D01*
X76976Y84855D01*
X76000Y85049D01*
X75024Y84855D01*
X74198Y84302D01*
X73645Y83476D01*
X73451Y82500D01*
X73645Y81524D01*
X74198Y80698D01*
X75024Y80145D01*
X76000Y79951D01*
X76976Y80145D01*
X77802Y80698D01*
X77985Y80971D01*
X100339D01*
Y78943D01*
X95812Y74417D01*
X89366D01*
Y66905D01*
X99634D01*
Y71029D01*
X105405Y76800D01*
X105575Y77055D01*
X106866D01*
Y85945D01*
D02*
G37*
G36*
X214500Y103322D02*
X211414Y100236D01*
X214500Y97150D01*
Y103322D01*
D02*
G37*
G36*
X188953Y107538D02*
X186414Y105000D01*
X188953Y102462D01*
Y107538D01*
D02*
G37*
G36*
X181047Y107538D02*
Y102462D01*
X183586Y105000D01*
X181047Y107538D01*
D02*
G37*
G36*
X187539Y108953D02*
X182462D01*
X185000Y106414D01*
X187539Y108953D01*
D02*
G37*
G36*
X243086Y104736D02*
X236914D01*
X240000Y101650D01*
X243086Y104736D01*
D02*
G37*
G36*
X244500Y103322D02*
X241414Y100236D01*
X244500Y97150D01*
Y103322D01*
D02*
G37*
G36*
X185000Y103586D02*
X182462Y101047D01*
X187539D01*
X185000Y103586D01*
D02*
G37*
G36*
X213086Y104736D02*
X206914D01*
X210000Y101650D01*
X213086Y104736D01*
D02*
G37*
G36*
X169223Y77809D02*
X168914Y77500D01*
X169223Y77191D01*
X169284Y77500D01*
X169223Y77809D01*
D02*
G37*
G36*
X167500Y79284D02*
X167191Y79223D01*
X167500Y78914D01*
X167809Y79223D01*
X167500Y79284D01*
D02*
G37*
G36*
X47370Y84897D02*
X43240Y80767D01*
X43515Y80541D01*
X44715Y79900D01*
X46016Y79505D01*
X47370Y79372D01*
X48724Y79505D01*
X50025Y79900D01*
X51225Y80541D01*
X51500Y80767D01*
X47370Y84897D01*
D02*
G37*
G36*
X165777Y77809D02*
X165716Y77500D01*
X165777Y77191D01*
X166086Y77500D01*
X165777Y77809D01*
D02*
G37*
G36*
X158905Y75756D02*
X155206D01*
X157055Y73906D01*
X158905Y75756D01*
D02*
G37*
G36*
X240000Y84775D02*
X238825Y84620D01*
X237731Y84167D01*
X236791Y83446D01*
X236069Y82506D01*
X235616Y81411D01*
X235461Y80236D01*
X235616Y79062D01*
X236069Y77967D01*
X236791Y77027D01*
X237731Y76306D01*
X238825Y75852D01*
X240000Y75697D01*
X241175Y75852D01*
X242269Y76306D01*
X243209Y77027D01*
X243931Y77967D01*
X244384Y79062D01*
X244539Y80236D01*
X244384Y81411D01*
X243931Y82506D01*
X243209Y83446D01*
X242269Y84167D01*
X241175Y84620D01*
X240000Y84775D01*
D02*
G37*
G36*
X167500Y76086D02*
X167191Y75777D01*
X167500Y75716D01*
X167809Y75777D01*
X167500Y76086D01*
D02*
G37*
G36*
Y81086D02*
X167191Y80777D01*
X167500Y80716D01*
X167809Y80777D01*
X167500Y81086D01*
D02*
G37*
G36*
X170777Y82809D02*
X170716Y82500D01*
X170777Y82191D01*
X171086Y82500D01*
X170777Y82809D01*
D02*
G37*
G36*
X169223Y82809D02*
X168914Y82500D01*
X169223Y82191D01*
X169284Y82500D01*
X169223Y82809D01*
D02*
G37*
G36*
X174223D02*
X173914Y82500D01*
X174223Y82191D01*
X174284Y82500D01*
X174223Y82809D01*
D02*
G37*
G36*
X165777Y82809D02*
X165716Y82500D01*
X165777Y82191D01*
X166086Y82500D01*
X165777Y82809D01*
D02*
G37*
G36*
X172500Y81086D02*
X172191Y80777D01*
X172500Y80716D01*
X172809Y80777D01*
X172500Y81086D01*
D02*
G37*
G36*
X41826Y90441D02*
X41601Y90166D01*
X40959Y88966D01*
X40565Y87665D01*
X40431Y86311D01*
X40565Y84957D01*
X40959Y83656D01*
X41601Y82456D01*
X41826Y82181D01*
X45956Y86311D01*
X41826Y90441D01*
D02*
G37*
G36*
X52914D02*
X48784Y86311D01*
X52914Y82181D01*
X53140Y82456D01*
X53781Y83656D01*
X54176Y84957D01*
X54309Y86311D01*
X54176Y87665D01*
X53781Y88966D01*
X53140Y90166D01*
X52914Y90441D01*
D02*
G37*
%LPD*%
D10*
X80000Y173555D02*
D03*
Y180445D02*
D03*
X72000Y173555D02*
D03*
Y180445D02*
D03*
D11*
X136225Y144454D02*
D03*
X133998Y146681D02*
D03*
X131771Y148908D02*
D03*
X129544Y151136D02*
D03*
X127317Y153363D02*
D03*
X125090Y155590D02*
D03*
X122863Y157817D02*
D03*
X120635Y160044D02*
D03*
X118408Y162271D02*
D03*
X116181Y164498D02*
D03*
X113954Y166725D02*
D03*
X82775Y135546D02*
D03*
X85002Y133319D02*
D03*
X87229Y131092D02*
D03*
X89456Y128865D02*
D03*
X91683Y126637D02*
D03*
X93910Y124410D02*
D03*
X96137Y122183D02*
D03*
X98365Y119956D02*
D03*
X100592Y117729D02*
D03*
X102819Y115502D02*
D03*
X105046Y113275D02*
D03*
D12*
Y166725D02*
D03*
X102819Y164498D02*
D03*
X100592Y162271D02*
D03*
X98365Y160044D02*
D03*
X96137Y157817D02*
D03*
X93910Y155590D02*
D03*
X91683Y153363D02*
D03*
X89456Y151136D02*
D03*
X87229Y148908D02*
D03*
X85002Y146681D02*
D03*
X82775Y144454D02*
D03*
X113954Y113275D02*
D03*
X116181Y115502D02*
D03*
X118408Y117729D02*
D03*
X120635Y119956D02*
D03*
X122863Y122183D02*
D03*
X125090Y124410D02*
D03*
X127317Y126637D02*
D03*
X129544Y128865D02*
D03*
X131771Y131092D02*
D03*
X133998Y133319D02*
D03*
X136225Y135546D02*
D03*
D13*
X215000Y141000D02*
D03*
X239803D02*
D03*
X215000Y155961D02*
D03*
X239803D02*
D03*
X240000Y131000D02*
D03*
X215197D02*
D03*
X240000Y116039D02*
D03*
X215197D02*
D03*
D14*
X209555Y29000D02*
D03*
X216445D02*
D03*
X28555Y152500D02*
D03*
X35445D02*
D03*
X28555Y160000D02*
D03*
X35445D02*
D03*
X28555Y175000D02*
D03*
X35445D02*
D03*
X28555Y167500D02*
D03*
X35445D02*
D03*
X28555Y182500D02*
D03*
X35445D02*
D03*
X28555Y145000D02*
D03*
X35445D02*
D03*
X158055Y11000D02*
D03*
X164945D02*
D03*
X41945Y25500D02*
D03*
X35055D02*
D03*
D15*
X103602Y81500D02*
D03*
X116398D02*
D03*
D16*
X129000Y23500D02*
D03*
X138000D02*
D03*
X129000Y32500D02*
D03*
Y41500D02*
D03*
X156000Y23500D02*
D03*
X147000D02*
D03*
X165000D02*
D03*
Y41500D02*
D03*
Y32500D02*
D03*
D17*
X133500Y59500D02*
D03*
X151500D02*
D03*
D18*
X165000Y55000D02*
D03*
D19*
X6500Y144882D02*
D03*
Y155118D02*
D03*
Y162882D02*
D03*
Y173118D02*
D03*
Y126882D02*
D03*
Y137118D02*
D03*
D20*
X131665Y173789D02*
D03*
X133335Y163211D02*
D03*
X137789Y167665D02*
D03*
X127211Y169335D02*
D03*
D21*
X8075Y188075D02*
D03*
Y184925D02*
D03*
D22*
X6500Y192405D02*
D03*
Y180595D02*
D03*
D23*
X113000Y53091D02*
D03*
Y71909D02*
D03*
D24*
X145945Y72000D02*
D03*
X139055D02*
D03*
X157055D02*
D03*
X163945D02*
D03*
D25*
X52118Y6500D02*
D03*
X41882D02*
D03*
D26*
X94500Y53339D02*
D03*
Y70661D02*
D03*
D27*
X157055Y59500D02*
Y72000D01*
X147000Y50000D02*
Y59500D01*
X145945D02*
Y72000D01*
X147000Y45000D02*
Y50000D01*
Y40000D02*
Y45000D01*
Y35000D02*
Y40000D01*
Y30000D02*
Y35000D01*
Y23500D02*
Y30000D01*
X155000Y50000D02*
X164500D01*
X163945Y59500D02*
Y72000D01*
X122500Y81500D02*
X132000Y72000D01*
X139055D01*
Y61055D02*
Y72000D01*
X116398Y81500D02*
X122500D01*
X38000Y212394D02*
X43000D01*
X33000D02*
X38000D01*
X215000Y-26000D02*
X231953D01*
X185000Y105000D02*
X205236D01*
X210000Y100236D01*
X240000D01*
X87500Y43500D02*
X94500D01*
X59000Y72000D02*
X87500Y43500D01*
X59000Y72000D02*
Y94366D01*
X47370Y105996D02*
X59000Y94366D01*
X113000Y43500D02*
Y53091D01*
X95839Y53339D02*
X102500Y60000D01*
Y64000D01*
X110409Y71909D01*
X95661Y70661D02*
X103602Y78602D01*
X64819Y54681D02*
X76000Y43500D01*
X40500Y54681D02*
X64819D01*
D28*
X123000Y38500D02*
X129000Y32500D01*
X123000Y38500D02*
Y50000D01*
X165000Y41500D02*
Y50500D01*
X164500Y50000D02*
X165000Y50500D01*
X137500Y59500D02*
X139055Y61055D01*
X133500Y59500D02*
X137500D01*
X147000Y15500D02*
Y23500D01*
Y15500D02*
X151500Y11000D01*
X158055D01*
X164945D02*
X165000Y11055D01*
Y23500D01*
X102602Y82500D02*
X103602Y81500D01*
X76000Y82500D02*
X102602D01*
X160500Y168000D02*
X180000Y187500D01*
Y192000D01*
X148000Y165000D02*
X175000D01*
X180000Y192000D02*
X188000Y200000D01*
X193000Y202172D02*
Y202394D01*
X185000Y194172D02*
X193000Y202172D01*
X185000Y184000D02*
Y194172D01*
X188500Y190894D02*
X195000Y197394D01*
X188500Y187000D02*
Y190894D01*
X192000Y191394D02*
X203000Y202394D01*
X192000Y184000D02*
Y191394D01*
X198000Y207394D02*
X203000Y212394D01*
X198000Y200323D02*
Y207394D01*
X195071Y197394D02*
X198000Y200323D01*
X195000Y197394D02*
X195071D01*
X213000Y194500D02*
Y202394D01*
X202500Y184000D02*
X213000Y194500D01*
X198500Y184000D02*
X202500D01*
X208000Y207394D02*
X213000Y212394D01*
X208000Y199500D02*
Y207394D01*
X195500Y187000D02*
X208000Y199500D01*
X225500Y227500D02*
X242500D01*
X218000Y220000D02*
X225500Y227500D01*
X218000Y185000D02*
Y220000D01*
X213000Y180000D02*
X218000Y185000D01*
X180000Y140000D02*
X190000D01*
X180000Y130000D02*
X190000D01*
X175000Y135000D02*
X180000Y140000D01*
X153828Y171500D02*
X173000Y190672D01*
Y202394D01*
X154500Y175000D02*
X158000Y178500D01*
Y207394D01*
X153000Y212394D02*
X158000Y207394D01*
X153500Y178500D02*
Y189500D01*
X148000Y195000D02*
X153500Y189500D01*
X148000Y195000D02*
Y207394D01*
X143000Y212394D02*
X148000Y207394D01*
X188000Y200000D02*
Y217000D01*
X178000Y190000D02*
Y217000D01*
X156000Y168000D02*
X178000Y190000D01*
X153500Y171500D02*
X153828D01*
X151000Y175000D02*
X154500D01*
X149500Y182000D02*
X150000D01*
X143000Y188500D02*
X149500Y182000D01*
X207000Y116000D02*
Y158000D01*
X199500Y162000D02*
X220000D01*
X206000Y164000D02*
X217000D01*
X205000Y165000D02*
X206000Y164000D01*
X192500Y155000D02*
X199500Y162000D01*
X185000Y125000D02*
X185328D01*
X175000D02*
X180000Y130000D01*
X185000Y165000D02*
X205000D01*
X185000Y155000D02*
X192500D01*
X178000Y217000D02*
X180633Y219633D01*
X193000Y218000D02*
X212087Y237087D01*
X188000Y217000D02*
X189000Y218000D01*
X193000D01*
X180633Y219633D02*
X187633D01*
X143000Y188500D02*
Y202394D01*
X122863Y122183D02*
X126546Y118500D01*
X125592Y115000D02*
X130000D01*
X124137Y112000D02*
X134500D01*
X120635Y119956D02*
X125592Y115000D01*
X118408Y117729D02*
X124137Y112000D01*
X134500D02*
X135000Y112500D01*
X140908Y117500D02*
X141000D01*
X129544Y128865D02*
X140908Y117500D01*
X140863Y122000D02*
X141000D01*
X131771Y131092D02*
X140863Y122000D01*
X133998Y133319D02*
X144500Y122817D01*
Y112283D02*
Y122817D01*
X139157Y156000D02*
X154000D01*
X132065Y148908D02*
X139157Y156000D01*
X154000D02*
X160000Y150000D01*
X133000Y190828D02*
X148000Y175828D01*
Y165000D02*
Y175828D01*
X123000Y146500D02*
X125500Y144000D01*
X123000Y146500D02*
Y149000D01*
X127317Y153317D01*
Y153363D01*
X180000Y160000D02*
X185000Y165000D01*
X175000D02*
X180000Y170000D01*
X38000Y190000D02*
Y212394D01*
X73000D02*
X78000Y207394D01*
X123000Y198000D02*
Y202394D01*
X231953Y-26000D02*
X232126Y-25827D01*
X179000Y86000D02*
X185000Y80000D01*
X181000Y88000D02*
X188000Y81000D01*
X183000Y90000D02*
X191000Y82000D01*
X186000Y92000D02*
X194000Y84000D01*
X189000Y94000D02*
X197000Y86000D01*
X194236Y96000D02*
X210000Y80236D01*
X239803Y141000D02*
X241000D01*
X240000Y100236D02*
Y116039D01*
X197000Y83236D02*
Y86000D01*
Y83236D02*
X210000Y70236D01*
X194000Y76236D02*
Y84000D01*
Y76236D02*
X210000Y60236D01*
X191000Y69236D02*
Y82000D01*
Y69236D02*
X210000Y50236D01*
X188000Y38299D02*
X242126Y-15827D01*
X188000Y38299D02*
Y81000D01*
X185000Y31299D02*
X232126Y-15827D01*
X185000Y31299D02*
Y80000D01*
X213961Y116039D02*
X215197D01*
X209000Y121000D02*
Y136000D01*
X214000Y141000D02*
X215000D01*
X209555Y39791D02*
X210000Y40236D01*
X209555Y29000D02*
Y39791D01*
X215000Y149158D02*
Y155961D01*
Y124000D02*
X215197Y124197D01*
Y131000D01*
Y116039D02*
X240000D01*
X215197Y131000D02*
X240000D01*
X215000Y141000D02*
X239803D01*
X215000Y155961D02*
X239803D01*
X237213Y242000D02*
X242126Y237087D01*
X210000Y242000D02*
X237213D01*
X187633Y219633D02*
X210000Y242000D01*
X212087Y237087D02*
X232126D01*
X242126Y247087D02*
X248000Y241213D01*
Y233000D02*
Y241213D01*
X242500Y227500D02*
X248000Y233000D01*
X215087Y247087D02*
X232126D01*
X88000Y122954D02*
X91683Y126637D01*
X92454Y118500D02*
X96137Y122183D01*
X90000Y107137D02*
X100592Y117729D01*
X90000Y105000D02*
Y107137D01*
X83408Y105000D02*
X98365Y119956D01*
X76000Y105000D02*
X83408D01*
X113954Y113275D02*
X121143Y106086D01*
X43000Y193137D02*
Y202394D01*
X53000Y187592D02*
Y202394D01*
X94000Y168863D02*
X94500Y168363D01*
X100592Y162271D01*
X94681Y163727D02*
X98365Y160044D01*
X90227Y159273D02*
X93910Y155590D01*
X90046Y163908D02*
X96137Y157817D01*
X163954Y90000D02*
X183000D01*
X164783Y92000D02*
X186000D01*
X142368Y108757D02*
X163126Y88000D01*
X181000D01*
X121143Y106086D02*
X142212D01*
X162297Y86000D01*
X179000D01*
X166000Y94000D02*
X189000D01*
X166828Y96000D02*
X194236D01*
X116181Y164498D02*
X119000Y167317D01*
X118408Y162271D02*
X121500Y165363D01*
X78000Y197000D02*
Y207394D01*
X97500Y169817D02*
X102819Y164498D01*
X97500Y169817D02*
Y182000D01*
X107500Y173179D02*
X113954Y166725D01*
X107500Y173179D02*
Y177500D01*
X100000Y112683D02*
X102819Y115502D01*
X100000Y109500D02*
Y112683D01*
X72500Y104257D02*
X80257Y96500D01*
X80429Y93500D02*
X142500D01*
X70500Y103429D02*
X80429Y93500D01*
X80257Y96500D02*
X139000D01*
X110000Y99500D02*
X135500D01*
X100000Y109500D02*
X110000Y99500D01*
X147500Y112500D02*
Y117500D01*
Y112500D02*
X166000Y94000D01*
X144500Y112283D02*
X164783Y92000D01*
X127317Y126637D02*
X163954Y90000D01*
X116181Y115502D02*
X122926Y108757D01*
X142368D01*
X93910Y124410D02*
X97000Y127500D01*
X105000D01*
X91683Y153363D02*
X105000Y140046D01*
Y127500D02*
Y140046D01*
X109546D02*
X125090Y155590D01*
X105000Y140046D02*
X109546D01*
X122000Y127500D02*
X125090Y124410D01*
X105000Y127500D02*
X122000D01*
X53000Y212394D02*
X58000Y207394D01*
X68000D01*
X73000Y202394D01*
X180000Y150000D02*
X185000Y155000D01*
X160000Y150000D02*
X180000D01*
X136225Y144454D02*
X141271Y149500D01*
X133998Y146681D02*
X139817Y152500D01*
X141271Y149500D02*
X145000D01*
X139817Y152500D02*
X148000D01*
X133000Y190828D02*
Y202394D01*
X145000Y160000D02*
X180000D01*
X85000Y164500D02*
X90227Y159273D01*
X85000Y164500D02*
Y179000D01*
X72000Y168592D02*
Y173555D01*
Y168592D02*
X89456Y151136D01*
X67036Y173555D02*
X72000D01*
X53000Y187592D02*
X67036Y173555D01*
X83555Y180445D02*
X85000Y179000D01*
X72000Y180445D02*
X80000D01*
X83555D01*
X80000Y167500D02*
Y173555D01*
X6500Y173118D02*
X9937D01*
X28437Y152618D02*
X28555Y152500D01*
X2000Y149382D02*
X6500Y144882D01*
X2000Y149382D02*
Y158382D01*
X6500Y162882D01*
X2000Y167382D02*
X6500Y162882D01*
X2000Y167382D02*
Y187906D01*
X6500Y192405D01*
X79729Y132500D02*
X82775Y135546D01*
X75000Y132500D02*
X79729D01*
X15118Y152500D02*
X28555D01*
X12500Y155118D02*
X15118Y152500D01*
X6500Y155118D02*
X12500D01*
X23055Y160000D02*
X28555D01*
X9937Y173118D02*
X23055Y160000D01*
X12405Y180595D02*
X25500Y167500D01*
X28555D01*
X6500Y180595D02*
X12405D01*
X8075Y184925D02*
X12425D01*
X22350Y175000D01*
X28555D01*
X8075Y188075D02*
X12425D01*
X18000Y182500D01*
X28555D01*
X43000Y193137D02*
X65637Y170500D01*
X65743D01*
X87229Y148908D02*
Y149014D01*
X65743Y170500D02*
X87229Y149014D01*
X49500Y182500D02*
X64500Y167500D01*
X35445Y182500D02*
X49500D01*
X35445Y167500D02*
X54500D01*
X52000Y175000D02*
X59500Y167500D01*
X35445Y175000D02*
X52000D01*
X35445Y160000D02*
X71683D01*
X85002Y146681D01*
X74729Y152500D02*
X82775Y144454D01*
X35445Y152500D02*
X74729D01*
X233000Y180000D02*
X246000Y167000D01*
Y146000D02*
Y167000D01*
X180000Y170000D02*
X213000D01*
X218000Y175000D02*
X223000Y180000D01*
X218000Y165000D02*
Y175000D01*
X217000Y164000D02*
X218000Y165000D01*
X223000D02*
Y170000D01*
X220000Y162000D02*
X223000Y165000D01*
X120635Y160044D02*
X127211Y166619D01*
Y169335D01*
X137789Y167665D02*
X140000Y165454D01*
Y162500D02*
Y165454D01*
X129000Y161000D02*
X132500Y157500D01*
X126046Y161000D02*
X129000D01*
X122863Y157817D02*
X126046Y161000D01*
X132260Y164286D02*
X133335Y163211D01*
X132260Y164286D02*
Y173194D01*
X131665Y173789D02*
X132260Y173194D01*
X101000Y170771D02*
X105046Y166725D01*
X101000Y170771D02*
Y177500D01*
X119000Y167317D02*
Y171000D01*
X78000Y197000D02*
X88500Y186500D01*
X103500D01*
X119000Y171000D01*
X101914Y190914D02*
X121500Y171328D01*
Y165363D02*
Y171328D01*
X123500Y174000D02*
X127211Y170289D01*
Y169335D02*
Y170289D01*
X137789Y167665D02*
Y168789D01*
X132500Y157500D02*
X135000D01*
X140000Y162500D01*
X131771Y148908D02*
X132065D01*
X129544Y151136D02*
X133908Y155500D01*
X135828D01*
X143000Y162672D01*
X123000Y198000D02*
X145000Y176000D01*
Y160000D02*
Y176000D01*
X138500Y174500D02*
X140000Y173000D01*
Y171000D02*
Y173000D01*
X137789Y168789D02*
X140000Y171000D01*
X143000Y162672D02*
Y175000D01*
X118000Y200000D02*
X143000Y175000D01*
X118000Y200000D02*
Y207394D01*
X113000Y212394D02*
X118000Y207394D01*
X93000Y212394D02*
X98000Y207394D01*
Y199500D02*
Y207394D01*
Y199500D02*
X116000Y181500D01*
X123954D01*
X131665Y173789D01*
X72500Y111908D02*
X89456Y128865D01*
X72500Y104257D02*
Y111908D01*
X70500Y114363D02*
X87229Y131092D01*
X70500Y103429D02*
Y114363D01*
X150500Y112328D02*
X166828Y96000D01*
X150500Y112328D02*
Y121271D01*
X136225Y135546D02*
X150500Y121271D01*
X2000Y140382D02*
X6500Y144882D01*
X2000Y131382D02*
Y140382D01*
Y131382D02*
X6500Y126882D01*
X81183Y129500D02*
X85002Y133319D01*
X12382Y137118D02*
X20264Y145000D01*
X28555D01*
X50945Y129500D02*
X81183D01*
X35445Y145000D02*
X50945Y129500D01*
X6500Y137118D02*
X12382D01*
X24382Y126882D02*
X35000Y137500D01*
X6500Y126882D02*
X24382D01*
X105046Y113275D02*
X115821Y102500D01*
X139000D01*
X52118Y6500D02*
X58500D01*
X41882D02*
Y25437D01*
X41945Y25500D01*
X94500Y53339D02*
Y53409D01*
Y53339D02*
X95839D01*
X110409Y71909D02*
X113000D01*
X94500Y70661D02*
X95661D01*
X103602Y78602D02*
Y81500D01*
X35055Y73996D02*
X47370Y86311D01*
X35055Y25500D02*
Y73996D01*
D29*
X169000Y99000D02*
X201236D01*
X167500Y100500D02*
X169000Y99000D01*
X167500Y100500D02*
Y113500D01*
X169000Y115000D01*
X175000D01*
X201236Y99000D02*
X210000Y90236D01*
X216445Y18555D02*
X248000Y-13000D01*
X216445Y18555D02*
Y29000D01*
X248000Y-19953D02*
Y-13000D01*
X242126Y-25827D02*
X248000Y-19953D01*
X210000Y90236D02*
X216445Y83791D01*
Y29000D02*
Y83791D01*
D30*
X47370Y105996D02*
D03*
Y86311D02*
D03*
X13780Y207087D02*
D03*
X242126D02*
D03*
Y14173D02*
D03*
X13780D02*
D03*
D31*
X8000Y117807D02*
D03*
Y74500D02*
D03*
X120500Y6000D02*
D03*
X68500D02*
D03*
X76000Y43500D02*
D03*
X94500D02*
D03*
X113000D02*
D03*
D32*
X223000Y212394D02*
D03*
X213000D02*
D03*
Y202394D02*
D03*
X203000Y212394D02*
D03*
Y202394D02*
D03*
X193000D02*
D03*
X183000Y212394D02*
D03*
Y202394D02*
D03*
X173000D02*
D03*
X163000Y212394D02*
D03*
Y202394D02*
D03*
X153000Y212394D02*
D03*
X143000D02*
D03*
Y202394D02*
D03*
X133000Y212394D02*
D03*
Y202394D02*
D03*
X123000D02*
D03*
X113000Y212394D02*
D03*
Y202394D02*
D03*
X103000Y212394D02*
D03*
Y202394D02*
D03*
X93000D02*
D03*
X83000Y212394D02*
D03*
Y202394D02*
D03*
X73000Y212394D02*
D03*
X63000D02*
D03*
Y202394D02*
D03*
X53000D02*
D03*
X43000Y212394D02*
D03*
Y202394D02*
D03*
X33000Y212394D02*
D03*
Y202394D02*
D03*
X210000Y40236D02*
D03*
Y50236D02*
D03*
Y60236D02*
D03*
Y70236D02*
D03*
Y80236D02*
D03*
Y90236D02*
D03*
X240000Y40236D02*
D03*
Y50236D02*
D03*
Y60236D02*
D03*
Y70236D02*
D03*
Y80236D02*
D03*
Y90236D02*
D03*
X213000Y180000D02*
D03*
X223000Y170000D02*
D03*
Y180000D02*
D03*
X233000Y170000D02*
D03*
Y180000D02*
D03*
D33*
X223000Y202394D02*
D03*
X193000Y212394D02*
D03*
X173000D02*
D03*
X153000Y202394D02*
D03*
X123000Y212394D02*
D03*
X93000D02*
D03*
X73000Y202394D02*
D03*
X53000Y212394D02*
D03*
X213000Y170000D02*
D03*
D34*
X232126Y257087D02*
D03*
X185000Y105000D02*
D03*
X242126Y-35827D02*
D03*
D35*
Y257087D02*
D03*
X232126Y247087D02*
D03*
X242126D02*
D03*
X232126Y237087D02*
D03*
X242126D02*
D03*
X175000Y105000D02*
D03*
X185000Y115000D02*
D03*
X175000D02*
D03*
X185000Y125000D02*
D03*
X175000D02*
D03*
X185000Y135000D02*
D03*
X175000D02*
D03*
X185000Y145000D02*
D03*
X175000D02*
D03*
X185000Y155000D02*
D03*
X175000D02*
D03*
X185000Y165000D02*
D03*
X175000D02*
D03*
X185000Y175000D02*
D03*
X175000D02*
D03*
X232126Y-15827D02*
D03*
X242126D02*
D03*
X232126Y-25827D02*
D03*
X242126D02*
D03*
X232126Y-35827D02*
D03*
D36*
X210000Y100236D02*
D03*
X240000D02*
D03*
D37*
X37252Y16000D02*
D03*
X53000D02*
D03*
D38*
X167500Y77500D02*
D03*
Y82500D02*
D03*
X172500D02*
D03*
X157500Y35000D02*
D03*
X152500D02*
D03*
X147000Y45000D02*
D03*
Y40000D02*
D03*
Y50000D02*
D03*
Y30000D02*
D03*
Y35000D02*
D03*
X140000D02*
D03*
X135000D02*
D03*
X140000Y30000D02*
D03*
X135000D02*
D03*
Y50000D02*
D03*
X140000D02*
D03*
X135000Y40000D02*
D03*
X140000D02*
D03*
X135000Y45000D02*
D03*
X140000D02*
D03*
X152500Y30000D02*
D03*
X157500D02*
D03*
X152500Y40000D02*
D03*
X157500D02*
D03*
Y45000D02*
D03*
X152500D02*
D03*
D39*
X123000Y50000D02*
D03*
X155000D02*
D03*
X122500Y81500D02*
D03*
X195500Y187000D02*
D03*
X198500Y184000D02*
D03*
X192000D02*
D03*
X188500Y187000D02*
D03*
X185000Y184000D02*
D03*
X190000Y140000D02*
D03*
Y130000D02*
D03*
X160500Y168000D02*
D03*
X156000D02*
D03*
X153500Y171500D02*
D03*
X151000Y175000D02*
D03*
X153500Y178500D02*
D03*
X207000Y158000D02*
D03*
X126546Y118500D02*
D03*
X130000Y115000D02*
D03*
X141000Y117500D02*
D03*
Y122000D02*
D03*
X125500Y144000D02*
D03*
X214803Y148961D02*
D03*
X215000Y124000D02*
D03*
X215087Y247087D02*
D03*
X76000Y105000D02*
D03*
X90000D02*
D03*
X88000Y122954D02*
D03*
X92454Y118500D02*
D03*
X94500Y168363D02*
D03*
X94681Y163727D02*
D03*
X90227Y159273D02*
D03*
X90046Y163908D02*
D03*
X150000Y182000D02*
D03*
X97500D02*
D03*
X107500Y177500D02*
D03*
X139000Y102500D02*
D03*
Y96500D02*
D03*
X135500Y99500D02*
D03*
X142500Y93500D02*
D03*
X147500Y117500D02*
D03*
X135000Y112500D02*
D03*
X105000Y127500D02*
D03*
X101500Y191000D02*
D03*
X145000Y149500D02*
D03*
X148000Y152500D02*
D03*
Y165000D02*
D03*
X145000Y160000D02*
D03*
X207000Y116000D02*
D03*
X80000Y167500D02*
D03*
X101000Y177500D02*
D03*
X76000Y82500D02*
D03*
X75000Y132500D02*
D03*
X54500Y167500D02*
D03*
X64500D02*
D03*
X59500D02*
D03*
X123500Y174000D02*
D03*
X138500Y174500D02*
D03*
X35000Y137500D02*
D03*
X58500Y6500D02*
D03*
D40*
X38000Y190000D02*
D03*
X215000Y-26000D02*
D03*
X40500Y54681D02*
D03*
M02*
