G04 Layer_Physical_Order=2*
G04 Layer_Color=16711680*
%FSLAX25Y25*%
%MOIN*%
G70*
G01*
G75*
G04:AMPARAMS|DCode=10|XSize=23.62mil|YSize=37.4mil|CornerRadius=0mil|HoleSize=0mil|Usage=FLASHONLY|Rotation=315.000|XOffset=0mil|YOffset=0mil|HoleType=Round|Shape=Rectangle|*
%AMROTATEDRECTD10*
4,1,4,-0.02158,-0.00487,0.00487,0.02158,0.02158,0.00487,-0.00487,-0.02158,-0.02158,-0.00487,0.0*
%
%ADD10ROTATEDRECTD10*%

%ADD11R,0.03740X0.02362*%
%ADD12C,0.01000*%
%ADD13C,0.03000*%
%ADD14C,0.11811*%
%ADD15C,0.19685*%
%ADD16R,0.05906X0.05906*%
%ADD17C,0.05906*%
%ADD18R,0.05906X0.05906*%
%ADD19C,0.02000*%
D10*
X18973Y18973D02*
D03*
X28160Y22871D02*
D03*
X22871Y28160D02*
D03*
D11*
X-26870Y0D02*
D03*
X-36122Y3740D02*
D03*
Y-3740D02*
D03*
D12*
X-13941Y18441D01*
X-7500Y18500D02*
X32500D01*
X129902Y207500D02*
X140551Y196850D01*
X45000Y207500D02*
X129902D01*
X30000Y192500D02*
X45000Y207500D01*
X30000Y45000D02*
Y192500D01*
X102402Y205000D02*
X110551Y196850D01*
X50000Y205000D02*
X102402D01*
X37000Y192000D02*
X50000Y205000D01*
X-4340Y28160D02*
X22871D01*
X-14000Y18500D02*
X-4340Y28160D01*
X32500Y27211D02*
Y35000D01*
X37000Y23000D02*
Y192000D01*
X32500Y18500D02*
X37000Y23000D01*
X28160Y22871D02*
X32500Y27211D01*
X22500Y37500D02*
X30000Y45000D01*
X-3500Y37500D02*
X22500D01*
X-22500Y18500D02*
X-3500Y37500D01*
X-36000Y5000D02*
X-22500Y18500D01*
X-36000Y3862D02*
Y5000D01*
X-36122Y3740D02*
X-36000Y3862D01*
X-26000Y0D02*
X-7500Y18500D01*
X-26870Y0D02*
X-26000D01*
D13*
X45000Y187500D02*
X97500D01*
X100551Y190551D01*
Y196850D01*
X42500Y17500D02*
Y185000D01*
X45000Y187500D01*
X42500Y17500D02*
X55000Y5000D01*
X78740D01*
D14*
X-23622Y31496D02*
D03*
X23622Y-31496D02*
D03*
X-23622D02*
D03*
D15*
X0Y0D02*
D03*
D16*
X90551Y196850D02*
D03*
D17*
X100551D02*
D03*
X110551D02*
D03*
X120551D02*
D03*
X130551D02*
D03*
X140551D02*
D03*
X78740Y5000D02*
D03*
D18*
Y-5000D02*
D03*
D19*
X32500Y35000D02*
D03*
X-22500Y18500D02*
D03*
X-14000D02*
D03*
X-7500D02*
D03*
M02*
