G04 Layer_Physical_Order=1*
G04 Layer_Color=255*
%FSLAX25Y25*%
%MOIN*%
G70*
G01*
G75*
G04:AMPARAMS|DCode=10|XSize=23.62mil|YSize=37.4mil|CornerRadius=0mil|HoleSize=0mil|Usage=FLASHONLY|Rotation=315.000|XOffset=0mil|YOffset=0mil|HoleType=Round|Shape=Rectangle|*
%AMROTATEDRECTD10*
4,1,4,-0.02158,-0.00487,0.00487,0.02158,0.02158,0.00487,-0.00487,-0.02158,-0.02158,-0.00487,0.0*
%
%ADD10ROTATEDRECTD10*%

%ADD11R,0.03740X0.02362*%
%ADD12C,0.01000*%
%ADD13C,0.03000*%
%ADD14C,0.11811*%
%ADD15C,0.19685*%
%ADD16R,0.05906X0.05906*%
%ADD17C,0.05906*%
%ADD18R,0.05906X0.05906*%
%ADD19C,0.02000*%
D10*
X18973Y18973D02*
D03*
X22871Y28160D02*
D03*
X28160Y22871D02*
D03*
D11*
X-26870Y0D02*
D03*
X-36122Y-3740D02*
D03*
Y3740D02*
D03*
D12*
X32500Y35000D02*
Y195000D01*
X45000Y207500D01*
X119902D01*
X130551Y196850D01*
X112402Y205000D02*
X120551Y196850D01*
X50000Y205000D02*
X112402D01*
X37000Y192000D02*
X50000Y205000D01*
X29711Y35000D02*
X32500D01*
X22871Y28160D02*
X29711Y35000D01*
X37000Y31711D02*
Y192000D01*
X28160Y22871D02*
X37000Y31711D01*
X-30000Y18500D02*
X-22500D01*
X-40500Y8000D02*
X-30000Y18500D01*
X-40500Y0D02*
Y8000D01*
Y0D02*
X-36760Y-3740D01*
X-36122D01*
X-9629Y22871D02*
X28160D01*
X-14000Y18500D02*
X-9629Y22871D01*
X-36122Y3740D02*
X-28760D01*
X-14000Y18500D01*
X18500D02*
X18973Y18973D01*
X-7500Y18500D02*
X18500D01*
X-26000Y0D02*
X-7500Y18500D01*
X-26870Y0D02*
X-26000D01*
D13*
X54350Y196850D02*
X90551D01*
X42500Y185000D02*
X54350Y196850D01*
X42500Y7500D02*
Y185000D01*
Y7500D02*
X55000Y-5000D01*
X78740D01*
D14*
X-23622Y31496D02*
D03*
X23622Y-31496D02*
D03*
X-23622D02*
D03*
D15*
X0Y0D02*
D03*
D16*
X90551Y196850D02*
D03*
D17*
X100551D02*
D03*
X110551D02*
D03*
X120551D02*
D03*
X130551D02*
D03*
X140551D02*
D03*
X78740Y5000D02*
D03*
D18*
Y-5000D02*
D03*
D19*
X32500Y35000D02*
D03*
X-22500Y18500D02*
D03*
X-14000D02*
D03*
X-7500D02*
D03*
M02*
