G04 Layer_Color=32768*
%FSLAX25Y25*%
%MOIN*%
G70*
G01*
G75*
%ADD49C,0.00394*%
%ADD81C,0.00197*%
D49*
X211032Y29000D02*
X214968D01*
X213000Y27031D02*
Y30968D01*
X208669Y31657D02*
X217331D01*
X208669Y26342D02*
X217331D01*
X208669D02*
Y31657D01*
X217331Y26342D02*
Y31657D01*
X5110Y143587D02*
Y154610D01*
X18890D01*
Y143587D02*
Y154610D01*
X5110Y143587D02*
X18890D01*
X12000Y147031D02*
Y150969D01*
X10031Y149000D02*
X13969D01*
X225031D02*
X228969D01*
X227000Y147031D02*
Y150969D01*
X222669Y151657D02*
X231331D01*
X222669Y146343D02*
X231331D01*
Y151657D01*
X222669Y146343D02*
Y151657D01*
X225031Y124000D02*
X228969D01*
X227000Y122031D02*
Y125969D01*
X222669Y126657D02*
X231331D01*
X222669Y121343D02*
X231331D01*
Y126657D01*
X222669Y121343D02*
Y126657D01*
X81555Y108905D02*
X88445D01*
X81555Y97095D02*
X88445D01*
Y108905D01*
X81555Y97095D02*
Y108905D01*
X83031Y103000D02*
X86968D01*
X85000Y101031D02*
Y104969D01*
X73126Y64685D02*
Y75315D01*
X88874Y64685D02*
Y75315D01*
X73126Y64685D02*
X88874D01*
X73126Y75315D02*
X88874D01*
X81000Y68032D02*
Y71969D01*
X79031Y70000D02*
X82968D01*
X71031Y9000D02*
X74968D01*
X73000Y7032D02*
Y10968D01*
X68669Y6342D02*
X77331D01*
X68669Y11658D02*
X77331D01*
X68669Y6342D02*
Y11658D01*
X77331Y6342D02*
Y11658D01*
X103032Y9000D02*
X106968D01*
X105000Y7032D02*
Y10968D01*
X100669Y6342D02*
X109331D01*
X100669Y11658D02*
X109331D01*
X100669Y6342D02*
Y11658D01*
X109331Y6342D02*
Y11658D01*
X84669Y6342D02*
Y11658D01*
X93331Y6342D02*
Y11658D01*
X84669D02*
X93331D01*
X84669Y6342D02*
X93331D01*
X89000Y7032D02*
Y10968D01*
X87032Y9000D02*
X90969D01*
X108608Y128608D02*
X111392Y131392D01*
X108608D02*
X111392Y128608D01*
X95342Y107669D02*
X100657D01*
X95342Y116331D02*
X100657D01*
X95342Y107669D02*
Y116331D01*
X100657Y107669D02*
Y116331D01*
X96031Y112000D02*
X99968D01*
X98000Y110031D02*
Y113969D01*
X105342Y107669D02*
X110658D01*
X105342Y116331D02*
X110658D01*
X105342Y107669D02*
Y116331D01*
X110658Y107669D02*
Y116331D01*
X106032Y112000D02*
X109968D01*
X108000Y110031D02*
Y113969D01*
X100669Y145343D02*
Y150657D01*
X109331Y145343D02*
Y150657D01*
X100669D02*
X109331D01*
X100669Y145343D02*
X109331D01*
X105000Y146031D02*
Y149969D01*
X103032Y148000D02*
X106968D01*
X83031Y86000D02*
X86968D01*
X85000Y84031D02*
Y87968D01*
X103000Y92032D02*
Y95969D01*
X101031Y94000D02*
X104969D01*
X105657Y89669D02*
Y98331D01*
X100343Y89669D02*
Y98331D01*
Y89669D02*
X105657D01*
X100343Y98331D02*
X105657D01*
X103000Y73587D02*
Y77524D01*
X101031Y75555D02*
X104969D01*
X105657Y71224D02*
Y79886D01*
X100343Y71224D02*
Y79886D01*
Y71224D02*
X105657D01*
X100343Y79886D02*
X105657D01*
X126669Y58342D02*
Y63657D01*
X135331Y58342D02*
Y63657D01*
X126669D02*
X135331D01*
X126669Y58342D02*
X135331D01*
X131000Y59031D02*
Y62968D01*
X129032Y61000D02*
X132968D01*
X149189Y31716D02*
Y46284D01*
X122811Y31716D02*
Y46284D01*
Y31716D02*
X149189D01*
X122811Y46284D02*
X149189D01*
X134031Y39000D02*
X137969D01*
X136000Y37031D02*
Y40968D01*
X108000Y171031D02*
Y174969D01*
X106032Y173000D02*
X109968D01*
X110658Y168669D02*
Y177331D01*
X105342Y168669D02*
Y177331D01*
Y168669D02*
X110658D01*
X105342Y177331D02*
X110658D01*
X122608Y155608D02*
X125392Y158392D01*
X122608D02*
X125392Y155608D01*
X122817Y152059D02*
X128941Y158183D01*
X119059Y155817D02*
X125183Y161941D01*
X119059Y155817D02*
X122817Y152059D01*
X125183Y161941D02*
X128941Y158183D01*
X133608Y144608D02*
X136392Y147392D01*
X133608D02*
X136392Y144608D01*
X133817Y141059D02*
X139941Y147183D01*
X130059Y144817D02*
X136183Y150941D01*
X130059Y144817D02*
X133817Y141059D01*
X136183Y150941D02*
X139941Y147183D01*
X69059Y146817D02*
X72817Y143059D01*
X75183Y152941D02*
X78941Y149183D01*
X69059Y146817D02*
X75183Y152941D01*
X72817Y143059D02*
X78941Y149183D01*
X72608Y149392D02*
X75392Y146608D01*
X72608Y146608D02*
X75392Y149392D01*
X90059Y171183D02*
X93817Y174941D01*
X96183Y165059D02*
X99941Y168817D01*
X93817Y174941D02*
X99941Y168817D01*
X90059Y171183D02*
X96183Y165059D01*
X93608Y168608D02*
X96392Y171392D01*
X93608D02*
X96392Y168608D01*
X56343Y18669D02*
X61658D01*
X56343Y27331D02*
X61658D01*
X56343Y18669D02*
Y27331D01*
X61658Y18669D02*
Y27331D01*
X57032Y23000D02*
X60969D01*
X59000Y21032D02*
Y24969D01*
X162331Y48342D02*
Y53658D01*
X153669Y48342D02*
Y53658D01*
Y48342D02*
X162331D01*
X153669Y53658D02*
X162331D01*
X158000Y49031D02*
Y52969D01*
X156032Y51000D02*
X159968D01*
X39031Y152000D02*
X42968D01*
X41000Y150031D02*
Y153969D01*
X36669Y154657D02*
X45331D01*
X36669Y149343D02*
X45331D01*
Y154657D01*
X36669Y149343D02*
Y154657D01*
X39031Y160000D02*
X42968D01*
X41000Y158031D02*
Y161969D01*
X36669Y162657D02*
X45331D01*
X36669Y157343D02*
X45331D01*
Y162657D01*
X36669Y157343D02*
Y162657D01*
X39031Y144000D02*
X42968D01*
X41000Y142032D02*
Y145968D01*
X36669Y146658D02*
X45331D01*
X36669Y141342D02*
X45331D01*
Y146658D01*
X36669Y141342D02*
Y146658D01*
X87669Y181342D02*
Y186658D01*
X96331Y181342D02*
Y186658D01*
X87669D02*
X96331D01*
X87669Y181342D02*
X96331D01*
X92000Y182032D02*
Y185968D01*
X90031Y184000D02*
X93968D01*
D81*
X219693Y25260D02*
Y32740D01*
X206307Y25260D02*
Y32740D01*
Y25260D02*
X219693D01*
X206307Y32740D02*
X219693D01*
X1862Y155398D02*
X18398D01*
X1862Y142602D02*
Y155398D01*
Y142602D02*
X22728D01*
Y155398D01*
X18398D02*
X22728D01*
X220307Y145260D02*
Y152740D01*
X233693Y145260D02*
Y152740D01*
X220307Y145260D02*
X233693D01*
X220307Y152740D02*
X233693D01*
X220307Y120260D02*
Y127740D01*
X233693Y120260D02*
Y127740D01*
X220307Y120260D02*
X233693D01*
X220307Y127740D02*
X233693D01*
X93268Y96110D02*
Y109890D01*
X76732Y96110D02*
Y109890D01*
X93268D01*
X76732Y96110D02*
X93268D01*
X69779Y75906D02*
X92220D01*
X69779Y64095D02*
X92220D01*
Y75906D01*
X69779Y64095D02*
Y75906D01*
X79693Y5260D02*
Y12740D01*
X66307Y5260D02*
Y12740D01*
X79693D01*
X66307Y5260D02*
X79693D01*
X111693D02*
Y12740D01*
X98307Y5260D02*
Y12740D01*
X111693D01*
X98307Y5260D02*
X111693D01*
X82307Y12740D02*
X95693D01*
X82307Y5260D02*
X95693D01*
Y12740D01*
X82307Y5260D02*
Y12740D01*
X74366Y130000D02*
X110000Y94366D01*
Y165634D02*
X145634Y130000D01*
X74366D02*
X110000Y165634D01*
Y94366D02*
X145634Y130000D01*
X94260Y105307D02*
Y118693D01*
X101740Y105307D02*
Y118693D01*
X94260D02*
X101740D01*
X94260Y105307D02*
X101740D01*
X104260D02*
Y118693D01*
X111740Y105307D02*
Y118693D01*
X104260D02*
X111740D01*
X104260Y105307D02*
X111740D01*
X98307Y151740D02*
X111693D01*
X98307Y144260D02*
X111693D01*
Y151740D01*
X98307Y144260D02*
Y151740D01*
X95630Y80488D02*
Y91512D01*
X74370Y80488D02*
Y91512D01*
X95630D01*
X74370Y80488D02*
X95630D01*
X99260Y100693D02*
X106740D01*
X99260Y87307D02*
X106740D01*
X99260D02*
Y100693D01*
X106740Y87307D02*
Y100693D01*
X99260Y82248D02*
X106740D01*
X99260Y68862D02*
X106740D01*
X99260D02*
Y82248D01*
X106740Y68862D02*
Y82248D01*
X124307Y64740D02*
X137693D01*
X124307Y57260D02*
X137693D01*
Y64740D01*
X124307Y57260D02*
Y64740D01*
X150173Y22268D02*
Y55732D01*
X121827Y22268D02*
Y55732D01*
Y22268D02*
X150173D01*
X121827Y55732D02*
X150173D01*
X104260Y179693D02*
X111740D01*
X104260Y166307D02*
X111740D01*
X104260D02*
Y179693D01*
X111740Y166307D02*
Y179693D01*
X126088Y164377D02*
X131377Y159088D01*
X116623Y154912D02*
X121912Y149623D01*
X116623Y154912D02*
X126088Y164377D01*
X121912Y149623D02*
X131377Y159088D01*
X137088Y153377D02*
X142377Y148088D01*
X127623Y143912D02*
X132912Y138623D01*
X127623Y143912D02*
X137088Y153377D01*
X132912Y138623D02*
X142377Y148088D01*
X66623Y145912D02*
X76088Y155377D01*
X71912Y140623D02*
X81377Y150088D01*
X76088Y155377D02*
X81377Y150088D01*
X66623Y145912D02*
X71912Y140623D01*
X92912Y177377D02*
X102377Y167912D01*
X87623Y172088D02*
X97088Y162623D01*
X102377Y167912D01*
X87623Y172088D02*
X92912Y177377D01*
X55260Y16307D02*
Y29693D01*
X62740Y16307D02*
Y29693D01*
X55260D02*
X62740D01*
X55260Y16307D02*
X62740D01*
X151307Y47260D02*
X164693D01*
X151307Y54740D02*
X164693D01*
X151307Y47260D02*
Y54740D01*
X164693Y47260D02*
Y54740D01*
X34307Y148260D02*
Y155740D01*
X47693Y148260D02*
Y155740D01*
X34307Y148260D02*
X47693D01*
X34307Y155740D02*
X47693D01*
X34307Y156260D02*
Y163740D01*
X47693Y156260D02*
Y163740D01*
X34307Y156260D02*
X47693D01*
X34307Y163740D02*
X47693D01*
X34307Y140260D02*
Y147740D01*
X47693Y140260D02*
Y147740D01*
X34307Y140260D02*
X47693D01*
X34307Y147740D02*
X47693D01*
X85307Y187740D02*
X98693D01*
X85307Y180260D02*
X98693D01*
Y187740D01*
X85307Y180260D02*
Y187740D01*
M02*
