G04 Layer_Color=8421504*
%FSLAX25Y25*%
%MOIN*%
G70*
G01*
G75*
G04:AMPARAMS|DCode=10|XSize=55.12mil|YSize=47.24mil|CornerRadius=0mil|HoleSize=0mil|Usage=FLASHONLY|Rotation=225.000|XOffset=0mil|YOffset=0mil|HoleType=Round|Shape=Rectangle|*
%AMROTATEDRECTD10*
4,1,4,0.00278,0.03619,0.03619,0.00278,-0.00278,-0.03619,-0.03619,-0.00278,0.00278,0.03619,0.0*
%
%ADD10ROTATEDRECTD10*%

%ADD11R,0.06693X0.03937*%
%ADD12R,0.04528X0.05315*%
%ADD13R,0.05906X0.04331*%
%ADD14R,0.11614X0.06614*%
G04:AMPARAMS|DCode=15|XSize=21.65mil|YSize=57.09mil|CornerRadius=0mil|HoleSize=0mil|Usage=FLASHONLY|Rotation=135.000|XOffset=0mil|YOffset=0mil|HoleType=Round|Shape=Round|*
%AMOVALD15*
21,1,0.03543,0.02165,0.00000,0.00000,225.0*
1,1,0.02165,0.01253,0.01253*
1,1,0.02165,-0.01253,-0.01253*
%
%ADD15OVALD15*%

G04:AMPARAMS|DCode=16|XSize=21.65mil|YSize=57.09mil|CornerRadius=0mil|HoleSize=0mil|Usage=FLASHONLY|Rotation=45.000|XOffset=0mil|YOffset=0mil|HoleType=Round|Shape=Round|*
%AMOVALD16*
21,1,0.03543,0.02165,0.00000,0.00000,135.0*
1,1,0.02165,0.01253,-0.01253*
1,1,0.02165,-0.01253,0.01253*
%
%ADD16OVALD16*%

D10*
X79071Y159304D02*
D03*
X85196Y165429D02*
D03*
X83804Y154571D02*
D03*
X89929Y160696D02*
D03*
D11*
X215197Y116039D02*
D03*
X240000D02*
D03*
X215197Y131000D02*
D03*
X240000D02*
D03*
X239803Y155961D02*
D03*
X215000D02*
D03*
X239803Y141000D02*
D03*
X215000D02*
D03*
D12*
X216445Y29000D02*
D03*
X209555D02*
D03*
D13*
X17906Y151953D02*
D03*
Y146047D02*
D03*
X6095D02*
D03*
Y151953D02*
D03*
D14*
X70000Y59591D02*
D03*
Y78409D02*
D03*
D15*
X83275Y125546D02*
D03*
X85502Y123319D02*
D03*
X87729Y121092D02*
D03*
X89956Y118865D02*
D03*
X92183Y116637D02*
D03*
X94410Y114410D02*
D03*
X96637Y112183D02*
D03*
X98865Y109956D02*
D03*
X101092Y107729D02*
D03*
X103319Y105502D02*
D03*
X105546Y103275D02*
D03*
X136725Y134454D02*
D03*
X134498Y136681D02*
D03*
X132271Y138908D02*
D03*
X130044Y141136D02*
D03*
X127817Y143363D02*
D03*
X125590Y145590D02*
D03*
X123363Y147817D02*
D03*
X121135Y150044D02*
D03*
X118908Y152271D02*
D03*
X116681Y154498D02*
D03*
X114454Y156725D02*
D03*
D16*
Y103275D02*
D03*
X116681Y105502D02*
D03*
X118908Y107729D02*
D03*
X121135Y109956D02*
D03*
X123363Y112183D02*
D03*
X125590Y114410D02*
D03*
X127817Y116637D02*
D03*
X130044Y118865D02*
D03*
X132271Y121092D02*
D03*
X134498Y123319D02*
D03*
X136725Y125546D02*
D03*
X105546Y156725D02*
D03*
X103319Y154498D02*
D03*
X101092Y152271D02*
D03*
X98864Y150044D02*
D03*
X96637Y147817D02*
D03*
X94410Y145590D02*
D03*
X92183Y143363D02*
D03*
X89956Y141136D02*
D03*
X87729Y138908D02*
D03*
X85502Y136681D02*
D03*
X83275Y134454D02*
D03*
M02*
