G04 Layer_Color=12632256*
%FSLAX25Y25*%
%MOIN*%
G70*
G01*
G75*
%ADD20C,0.11811*%
%ADD21C,0.04724*%
%ADD22C,0.09055*%
%ADD23C,0.05906*%
%ADD24R,0.05906X0.05906*%
%ADD25R,0.07000X0.07000*%
%ADD26C,0.07000*%
%ADD27R,0.07000X0.07000*%
%ADD28C,0.05600*%
%ADD29C,0.03543*%
D20*
X13780Y14173D02*
D03*
X242126D02*
D03*
Y207087D02*
D03*
X13780D02*
D03*
D21*
X8630Y77496D02*
D03*
Y34189D02*
D03*
D22*
X48000Y65685D02*
D03*
Y46000D02*
D03*
D23*
X25000Y165000D02*
D03*
X175000Y175000D02*
D03*
X185000D02*
D03*
X175000Y165000D02*
D03*
X185000D02*
D03*
X175000Y155000D02*
D03*
X185000D02*
D03*
X175000Y145000D02*
D03*
X185000D02*
D03*
X175000Y135000D02*
D03*
X185000D02*
D03*
X175000Y125000D02*
D03*
X185000D02*
D03*
X175000Y115000D02*
D03*
X185000D02*
D03*
X175000Y105000D02*
D03*
X242126Y237087D02*
D03*
X232126D02*
D03*
X242126Y247087D02*
D03*
X232126D02*
D03*
X242126Y257087D02*
D03*
X232126Y-15827D02*
D03*
X242126D02*
D03*
X232126Y-25827D02*
D03*
X242126D02*
D03*
X232126Y-35827D02*
D03*
D24*
X25000Y175000D02*
D03*
X185000Y105000D02*
D03*
X232126Y257087D02*
D03*
X242126Y-35827D02*
D03*
D25*
X240000Y100236D02*
D03*
X210000D02*
D03*
D26*
X240000Y90236D02*
D03*
Y80236D02*
D03*
Y70236D02*
D03*
Y60236D02*
D03*
Y50236D02*
D03*
Y40236D02*
D03*
X210000Y90236D02*
D03*
Y80236D02*
D03*
Y70236D02*
D03*
Y60236D02*
D03*
Y50236D02*
D03*
Y40236D02*
D03*
X225000Y180000D02*
D03*
Y170000D02*
D03*
X215000Y180000D02*
D03*
Y170000D02*
D03*
X205000Y180000D02*
D03*
X33000Y202394D02*
D03*
Y212394D02*
D03*
X43000Y202394D02*
D03*
Y212394D02*
D03*
X53000Y202394D02*
D03*
X63000D02*
D03*
Y212394D02*
D03*
X73000D02*
D03*
X83000Y202394D02*
D03*
Y212394D02*
D03*
X93000Y202394D02*
D03*
X103000D02*
D03*
Y212394D02*
D03*
X113000Y202394D02*
D03*
Y212394D02*
D03*
X123000Y202394D02*
D03*
X133000D02*
D03*
Y212394D02*
D03*
X143000Y202394D02*
D03*
Y212394D02*
D03*
X153000D02*
D03*
X163000Y202394D02*
D03*
Y212394D02*
D03*
X173000Y202394D02*
D03*
X183000D02*
D03*
Y212394D02*
D03*
X193000Y202394D02*
D03*
X203000D02*
D03*
Y212394D02*
D03*
X213000Y202394D02*
D03*
Y212394D02*
D03*
X223000D02*
D03*
D27*
X205000Y170000D02*
D03*
X53000Y212394D02*
D03*
X73000Y202394D02*
D03*
X93000Y212394D02*
D03*
X123000D02*
D03*
X153000Y202394D02*
D03*
X173000Y212394D02*
D03*
X193000D02*
D03*
X223000Y202394D02*
D03*
D28*
X99400Y21000D02*
D03*
X92700D02*
D03*
X86000D02*
D03*
X79300D02*
D03*
X72600D02*
D03*
D29*
X42000Y113000D02*
D03*
Y131500D02*
D03*
Y94500D02*
D03*
X4500Y139000D02*
D03*
Y87000D02*
D03*
M02*
