G04 Layer_Physical_Order=1*
G04 Layer_Color=255*
%FSLAX25Y25*%
%MOIN*%
G70*
G01*
G75*
G04:AMPARAMS|DCode=10|XSize=55.12mil|YSize=47.24mil|CornerRadius=0mil|HoleSize=0mil|Usage=FLASHONLY|Rotation=225.000|XOffset=0mil|YOffset=0mil|HoleType=Round|Shape=Rectangle|*
%AMROTATEDRECTD10*
4,1,4,0.00278,0.03619,0.03619,0.00278,-0.00278,-0.03619,-0.03619,-0.00278,0.00278,0.03619,0.0*
%
%ADD10ROTATEDRECTD10*%

%ADD11R,0.06693X0.03937*%
%ADD12R,0.04528X0.05315*%
%ADD13R,0.05906X0.04331*%
%ADD14R,0.11614X0.06614*%
G04:AMPARAMS|DCode=15|XSize=21.65mil|YSize=57.09mil|CornerRadius=0mil|HoleSize=0mil|Usage=FLASHONLY|Rotation=135.000|XOffset=0mil|YOffset=0mil|HoleType=Round|Shape=Round|*
%AMOVALD15*
21,1,0.03543,0.02165,0.00000,0.00000,225.0*
1,1,0.02165,0.01253,0.01253*
1,1,0.02165,-0.01253,-0.01253*
%
%ADD15OVALD15*%

G04:AMPARAMS|DCode=16|XSize=21.65mil|YSize=57.09mil|CornerRadius=0mil|HoleSize=0mil|Usage=FLASHONLY|Rotation=45.000|XOffset=0mil|YOffset=0mil|HoleType=Round|Shape=Round|*
%AMOVALD16*
21,1,0.03543,0.02165,0.00000,0.00000,135.0*
1,1,0.02165,0.01253,-0.01253*
1,1,0.02165,-0.01253,0.01253*
%
%ADD16OVALD16*%

%ADD17C,0.01000*%
%ADD18C,0.02000*%
%ADD19C,0.03000*%
%ADD20C,0.11811*%
%ADD21C,0.04724*%
%ADD22C,0.09055*%
%ADD23C,0.05906*%
%ADD24R,0.05906X0.05906*%
%ADD25R,0.07000X0.07000*%
%ADD26C,0.07000*%
%ADD27R,0.07000X0.07000*%
%ADD28C,0.05600*%
%ADD29C,0.03543*%
%ADD30C,0.03000*%
%ADD31C,0.05000*%
G36*
X161208Y89991D02*
X161017Y89529D01*
X139271D01*
X131830Y96971D01*
X132037Y97471D01*
X134015D01*
X134198Y97198D01*
X135024Y96645D01*
X136000Y96451D01*
X136976Y96645D01*
X137802Y97198D01*
X138355Y98024D01*
X138549Y99000D01*
X138355Y99976D01*
X137867Y100706D01*
X137955Y101072D01*
X138050Y101239D01*
X138159Y101255D01*
X138198Y101198D01*
X139024Y100645D01*
X140000Y100451D01*
X140975Y100645D01*
X141802Y101198D01*
X141971Y101449D01*
X142471Y101298D01*
Y96985D01*
X142198Y96802D01*
X141645Y95976D01*
X141451Y95000D01*
X141645Y94024D01*
X142198Y93198D01*
X143025Y92645D01*
X144000Y92451D01*
X144975Y92645D01*
X145802Y93198D01*
X146355Y94024D01*
X146549Y95000D01*
X146355Y95976D01*
X145802Y96802D01*
X145529Y96985D01*
Y104908D01*
X145516Y104977D01*
X145977Y105223D01*
X161208Y89991D01*
D02*
G37*
G36*
X146638Y166941D02*
X146451Y166000D01*
X146645Y165024D01*
X147198Y164198D01*
X148024Y163645D01*
X149000Y163451D01*
X149976Y163645D01*
X150802Y164198D01*
X151355Y165024D01*
X151549Y166000D01*
X151405Y166725D01*
X151865Y166972D01*
X159919Y158919D01*
X160415Y158587D01*
X161000Y158471D01*
X163015D01*
X163198Y158198D01*
X164024Y157645D01*
X165000Y157451D01*
X165975Y157645D01*
X166802Y158198D01*
X166985Y158471D01*
X172208D01*
X172378Y157971D01*
X172181Y157819D01*
X171547Y156993D01*
X171149Y156032D01*
X171013Y155000D01*
X171149Y153968D01*
X171547Y153007D01*
X172181Y152181D01*
X172378Y152029D01*
X172208Y151529D01*
X156633D01*
X134152Y174010D01*
X134399Y174471D01*
X134500Y174451D01*
X135476Y174645D01*
X136302Y175198D01*
X136855Y176024D01*
X136868Y176089D01*
X137346Y176234D01*
X146638Y166941D01*
D02*
G37*
G36*
X124058Y121245D02*
X124885Y120693D01*
X125771Y120516D01*
X125909Y120393D01*
X125906Y120232D01*
X125751Y119852D01*
X125063Y119392D01*
X124602Y118703D01*
X124514Y118261D01*
X124365Y117862D01*
X123966Y117713D01*
X123524Y117625D01*
X122836Y117165D01*
X122375Y116476D01*
X122287Y116034D01*
X122138Y115635D01*
X121739Y115486D01*
X121297Y115398D01*
X120608Y114937D01*
X120148Y114249D01*
X120060Y113807D01*
X119911Y113408D01*
X119512Y113259D01*
X119070Y113171D01*
X118381Y112710D01*
X117921Y112021D01*
X117833Y111580D01*
X117684Y111181D01*
X117285Y111031D01*
X116843Y110943D01*
X116154Y110483D01*
X115694Y109794D01*
X115606Y109353D01*
X115457Y108953D01*
X115058Y108804D01*
X114616Y108716D01*
X113927Y108256D01*
X113467Y107567D01*
X113379Y107125D01*
X113230Y106726D01*
X112831Y106577D01*
X112389Y106489D01*
X111700Y106029D01*
X111240Y105340D01*
X111078Y104527D01*
X111240Y103715D01*
X111700Y103026D01*
X111871Y102855D01*
X103991Y94975D01*
X103529Y95166D01*
Y99095D01*
X104342Y99908D01*
X105106Y100060D01*
X105795Y100520D01*
X108300Y103026D01*
X108760Y103715D01*
X108922Y104527D01*
X108760Y105340D01*
X108300Y106029D01*
X107611Y106489D01*
X107169Y106577D01*
X106770Y106726D01*
X106621Y107125D01*
X106533Y107567D01*
X106073Y108256D01*
X105384Y108716D01*
X105021Y108789D01*
X104857Y109331D01*
X117044Y121518D01*
X123876D01*
X124058Y121245D01*
D02*
G37*
G36*
X84021Y169009D02*
X80163Y165150D01*
X83322Y161991D01*
X83130Y161529D01*
X82158D01*
X79350Y164337D01*
X77918Y162905D01*
X77439Y163051D01*
X77355Y163476D01*
X76802Y164302D01*
X75976Y164855D01*
X75911Y164868D01*
X75766Y165346D01*
X79891Y169471D01*
X83830D01*
X84021Y169009D01*
D02*
G37*
G36*
X200500Y165500D02*
X208471D01*
Y163634D01*
X206366Y161529D01*
X190633D01*
X188659Y163504D01*
X188851Y163968D01*
X188987Y165000D01*
X188851Y166032D01*
X188453Y166993D01*
X187819Y167819D01*
X187622Y167971D01*
X187792Y168471D01*
X200500D01*
Y165500D01*
D02*
G37*
G36*
X125698Y179198D02*
X125949Y179029D01*
X125798Y178529D01*
X77846D01*
X77654Y178991D01*
X78133Y179471D01*
X125515D01*
X125698Y179198D01*
D02*
G37*
G36*
X15791Y217199D02*
X17725Y216612D01*
X19508Y215660D01*
X21070Y214377D01*
X22353Y212815D01*
X23305Y211032D01*
X23892Y209098D01*
X24090Y207087D01*
X23892Y205075D01*
X23305Y203141D01*
X22353Y201358D01*
X21070Y199796D01*
X19508Y198514D01*
X17725Y197561D01*
X15791Y196974D01*
X13780Y196776D01*
X11768Y196974D01*
X9834Y197561D01*
X8051Y198514D01*
X6489Y199796D01*
X5206Y201358D01*
X4254Y203141D01*
X3667Y205075D01*
X3469Y207087D01*
X3667Y209098D01*
X4254Y211032D01*
X5206Y212815D01*
X6489Y214377D01*
X8051Y215660D01*
X9834Y216612D01*
X11768Y217199D01*
X13780Y217397D01*
X15791Y217199D01*
D02*
G37*
G36*
X205711Y91641D02*
X205616Y91411D01*
X205461Y90236D01*
X205616Y89061D01*
X206069Y87967D01*
X206791Y87027D01*
X207731Y86305D01*
X208825Y85852D01*
X210000Y85697D01*
X211175Y85852D01*
X211405Y85947D01*
X213498Y83855D01*
X213167Y83478D01*
X212269Y84167D01*
X211175Y84620D01*
X210000Y84775D01*
X208825Y84620D01*
X208085Y84314D01*
X195900Y96499D01*
X196092Y96961D01*
X200392D01*
X205711Y91641D01*
D02*
G37*
G36*
X76471Y195000D02*
X76587Y194415D01*
X76919Y193919D01*
X79308Y191529D01*
X79171Y191092D01*
X79123Y191029D01*
X74133D01*
X69529Y195633D01*
Y197894D01*
X76471D01*
Y195000D01*
D02*
G37*
G36*
X190731Y198463D02*
X191825Y198010D01*
X193000Y197855D01*
X194175Y198010D01*
X195269Y198463D01*
X195971Y199001D01*
X196471Y198754D01*
Y197634D01*
X182367Y183529D01*
X177377D01*
X177329Y183592D01*
X177192Y184029D01*
X189081Y195919D01*
X189413Y196415D01*
X189529Y197000D01*
Y198754D01*
X190029Y199001D01*
X190731Y198463D01*
D02*
G37*
G36*
X200731D02*
X201825Y198010D01*
X203000Y197855D01*
X204175Y198010D01*
X205269Y198463D01*
X205971Y199001D01*
X206471Y198754D01*
Y184747D01*
X205971Y184411D01*
X205000Y184539D01*
X203825Y184384D01*
X202731Y183931D01*
X201791Y183209D01*
X201069Y182269D01*
X200763Y181529D01*
X197000D01*
X196415Y181413D01*
X195919Y181081D01*
X192322Y177485D01*
X192000Y177549D01*
X191024Y177355D01*
X190198Y176802D01*
X189645Y175976D01*
X189475Y175121D01*
X188969Y175138D01*
X188851Y176032D01*
X188453Y176993D01*
X187819Y177819D01*
X186993Y178453D01*
X186032Y178851D01*
X185000Y178987D01*
X183968Y178851D01*
X183007Y178453D01*
X182181Y177819D01*
X181547Y176993D01*
X181149Y176032D01*
X181013Y175000D01*
X181149Y173968D01*
X181547Y173007D01*
X182181Y172181D01*
X182378Y172029D01*
X182209Y171529D01*
X180000D01*
X179415Y171413D01*
X178919Y171081D01*
X176496Y168659D01*
X176032Y168851D01*
X175000Y168987D01*
X173968Y168851D01*
X173007Y168453D01*
X172181Y167819D01*
X171547Y166993D01*
X171355Y166529D01*
X162985D01*
X162802Y166802D01*
X161976Y167355D01*
X161000Y167549D01*
X160738Y167497D01*
X160405Y167858D01*
X160582Y168288D01*
X163198D01*
X163381Y168015D01*
X164208Y167462D01*
X165183Y167268D01*
X166159Y167462D01*
X166985Y168015D01*
X167538Y168841D01*
X167732Y169817D01*
X167538Y170792D01*
X166985Y171619D01*
X166159Y172172D01*
X165183Y172366D01*
X164208Y172172D01*
X163381Y171619D01*
X163198Y171346D01*
X160817D01*
X153185Y178978D01*
X153349Y179520D01*
X153975Y179645D01*
X154802Y180198D01*
X154985Y180471D01*
X183000D01*
X183585Y180587D01*
X184081Y180919D01*
X199081Y195919D01*
X199413Y196415D01*
X199529Y197000D01*
Y198754D01*
X200029Y199001D01*
X200731Y198463D01*
D02*
G37*
G36*
X130846Y166991D02*
X130654Y166529D01*
X113757D01*
X113172Y166413D01*
X112676Y166081D01*
X105934Y159340D01*
X105795Y159480D01*
X105106Y159940D01*
X104293Y160101D01*
X103480Y159940D01*
X102792Y159480D01*
X102331Y158791D01*
X102314Y158705D01*
X101770Y158516D01*
X101529Y158707D01*
Y160366D01*
X102678Y161515D01*
X103000Y161451D01*
X103975Y161645D01*
X104802Y162198D01*
X105355Y163024D01*
X105549Y164000D01*
X105355Y164976D01*
X104802Y165802D01*
X103975Y166355D01*
X103000Y166549D01*
X102024Y166355D01*
X101198Y165802D01*
X100645Y164976D01*
X100451Y164000D01*
X100515Y163678D01*
X98919Y162081D01*
X98587Y161585D01*
X98471Y161000D01*
Y158702D01*
X97971Y158551D01*
X97802Y158802D01*
X97529Y158985D01*
Y162000D01*
X97413Y162585D01*
X97081Y163081D01*
X93266Y166896D01*
X92770Y167228D01*
X92185Y167344D01*
X88592D01*
X86927Y169009D01*
X87119Y169471D01*
X128366D01*
X130846Y166991D01*
D02*
G37*
G36*
X159815Y123022D02*
X159651Y122479D01*
X159025Y122355D01*
X158198Y121802D01*
X158015Y121529D01*
X151813D01*
X139308Y134034D01*
X139480Y134205D01*
X139940Y134894D01*
X140102Y135707D01*
X139940Y136520D01*
X139480Y137208D01*
X138791Y137669D01*
X138705Y137686D01*
X138516Y138230D01*
X138707Y138471D01*
X144367D01*
X159815Y123022D01*
D02*
G37*
G36*
X86669Y117162D02*
X86741Y116799D01*
X87202Y116110D01*
X87891Y115650D01*
X88332Y115562D01*
X88731Y115413D01*
X88881Y115014D01*
X88969Y114572D01*
X89429Y113883D01*
X90118Y113423D01*
X90560Y113335D01*
X90959Y113186D01*
X91108Y112787D01*
X91196Y112345D01*
X91656Y111656D01*
X92345Y111196D01*
X92787Y111108D01*
X93186Y110959D01*
X93335Y110559D01*
X93423Y110118D01*
X93883Y109429D01*
X94572Y108969D01*
X95014Y108881D01*
X95413Y108731D01*
X95562Y108332D01*
X95650Y107891D01*
X96110Y107202D01*
X96799Y106741D01*
X97162Y106669D01*
X97326Y106127D01*
X96729Y105529D01*
X88634D01*
X83028Y111135D01*
X83275Y111595D01*
X84000Y111451D01*
X84975Y111645D01*
X85802Y112198D01*
X86355Y113024D01*
X86549Y114000D01*
X86355Y114976D01*
X85802Y115802D01*
X85529Y115985D01*
Y116729D01*
X86127Y117326D01*
X86669Y117162D01*
D02*
G37*
G36*
X120076Y146114D02*
X120148Y145752D01*
X120608Y145063D01*
X121297Y144602D01*
X121739Y144514D01*
X122138Y144365D01*
X122287Y143966D01*
X122375Y143524D01*
X122836Y142835D01*
X123524Y142375D01*
X123966Y142287D01*
X124365Y142138D01*
X124514Y141739D01*
X124602Y141297D01*
X125063Y140608D01*
X125751Y140148D01*
X126193Y140060D01*
X126592Y139911D01*
X126742Y139512D01*
X126829Y139070D01*
X127290Y138381D01*
X127979Y137921D01*
X128420Y137833D01*
X128819Y137684D01*
X128969Y137285D01*
X129057Y136843D01*
X129517Y136154D01*
X130206Y135694D01*
X130648Y135606D01*
X131046Y135457D01*
X131196Y135058D01*
X131284Y134616D01*
X131744Y133927D01*
X132433Y133467D01*
X132875Y133379D01*
X133274Y133230D01*
X133423Y132831D01*
X133511Y132389D01*
X133971Y131700D01*
X134660Y131240D01*
X135473Y131078D01*
X136285Y131240D01*
X136974Y131700D01*
X137145Y131871D01*
X150098Y118919D01*
X150594Y118587D01*
X151180Y118471D01*
X158015D01*
X158198Y118198D01*
X158816Y117784D01*
Y117216D01*
X158198Y116802D01*
X158015Y116529D01*
X147905D01*
X140092Y124342D01*
X139940Y125106D01*
X139480Y125795D01*
X136974Y128300D01*
X136285Y128760D01*
X135473Y128922D01*
X134660Y128760D01*
X133971Y128300D01*
X133511Y127611D01*
X133423Y127169D01*
X133274Y126770D01*
X132875Y126621D01*
X132433Y126533D01*
X131744Y126073D01*
X131284Y125384D01*
X131196Y124942D01*
X131046Y124543D01*
X130648Y124394D01*
X130206Y124306D01*
X129517Y123846D01*
X129057Y123157D01*
X128677Y123002D01*
X128515Y122999D01*
X128392Y123137D01*
X128216Y124023D01*
X127663Y124850D01*
X126836Y125403D01*
X125861Y125597D01*
X124885Y125403D01*
X124058Y124850D01*
X123876Y124577D01*
X116410D01*
X115917Y124479D01*
X115627Y124671D01*
X115477Y124830D01*
X115529Y125092D01*
Y142275D01*
X119533Y146279D01*
X120076Y146114D01*
D02*
G37*
G36*
X163471Y119367D02*
Y112985D01*
X163198Y112802D01*
X162645Y111976D01*
X162451Y111000D01*
X162645Y110024D01*
X163198Y109198D01*
X164024Y108645D01*
X165000Y108451D01*
X165975Y108645D01*
X166030Y108681D01*
X166471Y108446D01*
Y100399D01*
X165971Y100192D01*
X160081Y106081D01*
X159585Y106413D01*
X159000Y106529D01*
X153450D01*
X146956Y113023D01*
X147203Y113484D01*
X147271Y113471D01*
X158015D01*
X158198Y113198D01*
X159025Y112645D01*
X160000Y112451D01*
X160976Y112645D01*
X161802Y113198D01*
X162355Y114024D01*
X162549Y115000D01*
X162355Y115975D01*
X161802Y116802D01*
X161184Y117216D01*
Y117784D01*
X161802Y118198D01*
X162355Y119025D01*
X162479Y119650D01*
X163022Y119815D01*
X163471Y119367D01*
D02*
G37*
G36*
X80025Y136343D02*
X79899Y135707D01*
X80060Y134894D01*
X80520Y134205D01*
X83026Y131700D01*
X83715Y131240D01*
X84527Y131078D01*
X85340Y131240D01*
X86029Y131700D01*
X86489Y132389D01*
X86577Y132831D01*
X86726Y133230D01*
X87125Y133379D01*
X87567Y133467D01*
X88256Y133927D01*
X88716Y134616D01*
X88804Y135058D01*
X88954Y135457D01*
X89353Y135606D01*
X89794Y135694D01*
X90483Y136154D01*
X90943Y136843D01*
X91031Y137285D01*
X91181Y137684D01*
X91580Y137833D01*
X92021Y137921D01*
X92710Y138381D01*
X93171Y139070D01*
X93550Y139225D01*
X93712Y139228D01*
X93835Y139090D01*
X94011Y138204D01*
X94564Y137377D01*
X95391Y136825D01*
X96366Y136630D01*
X97342Y136825D01*
X98169Y137377D01*
X98322Y137607D01*
X98924D01*
X99198Y137198D01*
X100024Y136645D01*
X101000Y136451D01*
X101976Y136645D01*
X102802Y137198D01*
X103355Y138025D01*
X103549Y139000D01*
X103355Y139976D01*
X103283Y140083D01*
X103474Y140545D01*
X103975Y140645D01*
X104802Y141198D01*
X104924Y141379D01*
X112471D01*
Y125725D01*
X100467Y113721D01*
X99924Y113886D01*
X99852Y114249D01*
X99392Y114937D01*
X98703Y115398D01*
X98261Y115486D01*
X97862Y115635D01*
X97713Y116034D01*
X97625Y116476D01*
X97164Y117165D01*
X96476Y117625D01*
X96034Y117713D01*
X95635Y117862D01*
X95486Y118261D01*
X95398Y118703D01*
X94937Y119392D01*
X94248Y119852D01*
X93807Y119940D01*
X93408Y120089D01*
X93259Y120488D01*
X93171Y120930D01*
X92710Y121619D01*
X92021Y122079D01*
X91580Y122167D01*
X91181Y122316D01*
X91031Y122715D01*
X90943Y123157D01*
X90483Y123846D01*
X89794Y124306D01*
X89353Y124394D01*
X88954Y124543D01*
X88804Y124942D01*
X88716Y125384D01*
X88256Y126073D01*
X87567Y126533D01*
X87125Y126621D01*
X86726Y126770D01*
X86577Y127169D01*
X86489Y127611D01*
X86029Y128300D01*
X85340Y128760D01*
X84527Y128922D01*
X83715Y128760D01*
X83026Y128300D01*
X82855Y128129D01*
X65529Y145454D01*
Y150185D01*
X65991Y150376D01*
X80025Y136343D01*
D02*
G37*
G36*
X111065Y160055D02*
X111471Y159843D01*
Y158179D01*
X111587Y157594D01*
X111881Y157155D01*
X111700Y156974D01*
X111240Y156285D01*
X111078Y155473D01*
X111240Y154660D01*
X111700Y153971D01*
X112389Y153511D01*
X112831Y153423D01*
X113230Y153274D01*
X113379Y152875D01*
X113467Y152433D01*
X113927Y151744D01*
X114616Y151284D01*
X114771Y150904D01*
X114774Y150742D01*
X114636Y150619D01*
X113750Y150443D01*
X112923Y149890D01*
X112370Y149063D01*
X112176Y148088D01*
X112370Y147113D01*
X112923Y146285D01*
X113750Y145733D01*
X113990Y145685D01*
X114135Y145207D01*
X113366Y144438D01*
X105046D01*
X104802Y144802D01*
X103975Y145355D01*
X103000Y145549D01*
X102024Y145355D01*
X101567Y145050D01*
X100402Y146215D01*
X100567Y146757D01*
X100930Y146829D01*
X101619Y147290D01*
X102079Y147979D01*
X102167Y148420D01*
X102316Y148819D01*
X102715Y148969D01*
X103157Y149056D01*
X103846Y149517D01*
X104306Y150206D01*
X104394Y150647D01*
X104543Y151047D01*
X104942Y151196D01*
X105384Y151284D01*
X106073Y151744D01*
X106533Y152433D01*
X106621Y152875D01*
X106770Y153274D01*
X107169Y153423D01*
X107611Y153511D01*
X108300Y153971D01*
X108760Y154660D01*
X108922Y155473D01*
X108760Y156285D01*
X108300Y156974D01*
X108097Y157177D01*
X110986Y160066D01*
X111065Y160055D01*
D02*
G37*
G36*
X183968Y161149D02*
X185000Y161013D01*
X186032Y161149D01*
X186496Y161341D01*
X188919Y158919D01*
X189415Y158587D01*
X190000Y158471D01*
X206601D01*
X206808Y157971D01*
X205366Y156529D01*
X188645D01*
X188453Y156993D01*
X187819Y157819D01*
X186993Y158453D01*
X186032Y158851D01*
X185000Y158987D01*
X183968Y158851D01*
X183007Y158453D01*
X182181Y157819D01*
X181547Y156993D01*
X181149Y156032D01*
X181013Y155000D01*
X181149Y153968D01*
X181547Y153007D01*
X182181Y152181D01*
X183007Y151547D01*
X183968Y151149D01*
X185000Y151013D01*
X186032Y151149D01*
X186993Y151547D01*
X187819Y152181D01*
X188453Y153007D01*
X188645Y153471D01*
X206000D01*
X206585Y153587D01*
X207081Y153919D01*
X210192Y157029D01*
X210653Y156837D01*
Y152992D01*
X213471D01*
Y151077D01*
X213001Y150763D01*
X212448Y149936D01*
X212254Y148961D01*
X212448Y147985D01*
X213001Y147158D01*
X213828Y146606D01*
X214803Y146412D01*
X215779Y146606D01*
X216605Y147158D01*
X217158Y147985D01*
X217352Y148961D01*
X217158Y149936D01*
X216605Y150763D01*
X216529Y150814D01*
Y152992D01*
X219346D01*
Y154431D01*
X235457D01*
Y152992D01*
X244150D01*
X244471Y152625D01*
Y146634D01*
X241806Y143968D01*
X235457D01*
Y142529D01*
X219346D01*
Y143968D01*
X210653D01*
Y139816D01*
X207919Y137081D01*
X207587Y136585D01*
X207471Y136000D01*
Y121000D01*
X207587Y120415D01*
X207919Y119919D01*
X210850Y116987D01*
Y113071D01*
X219543D01*
Y114510D01*
X235653D01*
Y113071D01*
X238471D01*
Y104736D01*
X235500D01*
Y102785D01*
X214500D01*
Y104736D01*
X209105D01*
X207039Y106802D01*
X206212Y107355D01*
X205236Y107549D01*
X188953D01*
Y108953D01*
X181047D01*
Y102490D01*
X180585Y102298D01*
X178858Y104025D01*
X178987Y105000D01*
X178851Y106032D01*
X178453Y106993D01*
X177819Y107819D01*
X176993Y108453D01*
X176032Y108851D01*
X175000Y108987D01*
X173968Y108851D01*
X173007Y108453D01*
X172181Y107819D01*
X171547Y106993D01*
X171149Y106032D01*
X171013Y105000D01*
X171149Y103968D01*
X171547Y103007D01*
X172181Y102181D01*
X173007Y101547D01*
X173968Y101149D01*
X175000Y101013D01*
X175975Y101142D01*
X179087Y98029D01*
X178880Y97529D01*
X172634D01*
X169529Y100634D01*
Y120000D01*
X169413Y120585D01*
X169081Y121081D01*
X167154Y123009D01*
X167346Y123471D01*
X171355D01*
X171547Y123007D01*
X172181Y122181D01*
X173007Y121547D01*
X173968Y121149D01*
X175000Y121013D01*
X176032Y121149D01*
X176993Y121547D01*
X177819Y122181D01*
X178453Y123007D01*
X178851Y123968D01*
X178987Y125000D01*
X178851Y126032D01*
X178453Y126993D01*
X177819Y127819D01*
X177622Y127971D01*
X177792Y128471D01*
X179367D01*
X181341Y126496D01*
X181149Y126032D01*
X181013Y125000D01*
X181149Y123968D01*
X181547Y123007D01*
X182181Y122181D01*
X183007Y121547D01*
X183968Y121149D01*
X185000Y121013D01*
X186032Y121149D01*
X186993Y121547D01*
X187819Y122181D01*
X188453Y123007D01*
X188851Y123968D01*
X188987Y125000D01*
X188851Y126032D01*
X188453Y126993D01*
X187819Y127819D01*
X186993Y128453D01*
X186032Y128851D01*
X185000Y128987D01*
X183968Y128851D01*
X183504Y128659D01*
X181081Y131081D01*
X180585Y131413D01*
X180000Y131529D01*
X177792D01*
X177622Y132029D01*
X177819Y132181D01*
X178453Y133007D01*
X178851Y133968D01*
X178987Y135000D01*
X178851Y136032D01*
X178453Y136993D01*
X177819Y137819D01*
X177622Y137971D01*
X177792Y138471D01*
X179367D01*
X181341Y136496D01*
X181149Y136032D01*
X181013Y135000D01*
X181149Y133968D01*
X181547Y133007D01*
X182181Y132181D01*
X183007Y131547D01*
X183968Y131149D01*
X185000Y131013D01*
X186032Y131149D01*
X186993Y131547D01*
X187819Y132181D01*
X188453Y133007D01*
X188851Y133968D01*
X188987Y135000D01*
X188851Y136032D01*
X188453Y136993D01*
X187819Y137819D01*
X186993Y138453D01*
X186032Y138851D01*
X185000Y138987D01*
X183968Y138851D01*
X183504Y138659D01*
X181081Y141081D01*
X180585Y141413D01*
X180000Y141529D01*
X177792D01*
X177622Y142029D01*
X177819Y142181D01*
X178453Y143007D01*
X178851Y143968D01*
X178987Y145000D01*
X178851Y146032D01*
X178453Y146993D01*
X177819Y147819D01*
X177622Y147971D01*
X177792Y148471D01*
X179367D01*
X181341Y146496D01*
X181149Y146032D01*
X181013Y145000D01*
X181149Y143968D01*
X181547Y143007D01*
X182181Y142181D01*
X183007Y141547D01*
X183968Y141149D01*
X185000Y141013D01*
X186032Y141149D01*
X186993Y141547D01*
X187819Y142181D01*
X188453Y143007D01*
X188851Y143968D01*
X188987Y145000D01*
X188851Y146032D01*
X188453Y146993D01*
X187819Y147819D01*
X186993Y148453D01*
X186032Y148851D01*
X185000Y148987D01*
X183968Y148851D01*
X183504Y148659D01*
X181081Y151081D01*
X180585Y151413D01*
X180000Y151529D01*
X177792D01*
X177622Y152029D01*
X177819Y152181D01*
X178453Y153007D01*
X178851Y153968D01*
X178987Y155000D01*
X178851Y156032D01*
X178453Y156993D01*
X177819Y157819D01*
X177622Y157971D01*
X177792Y158471D01*
X180000D01*
X180585Y158587D01*
X181081Y158919D01*
X183504Y161341D01*
X183968Y161149D01*
D02*
G37*
G36*
X79024Y109645D02*
X80000Y109451D01*
X80322Y109515D01*
X86919Y102919D01*
X87415Y102587D01*
X88000Y102471D01*
X97363D01*
X97948Y102587D01*
X98055Y102659D01*
X98505Y102358D01*
X98471Y102183D01*
Y96365D01*
X98030Y96129D01*
X97692Y96355D01*
X96716Y96549D01*
X95741Y96355D01*
X94914Y95802D01*
X94732Y95529D01*
X87634D01*
X78529Y104633D01*
Y109446D01*
X78970Y109681D01*
X79024Y109645D01*
D02*
G37*
G36*
X205500Y101131D02*
Y98273D01*
X205038Y98082D01*
X202678Y100442D01*
X202017Y100884D01*
X201236Y101039D01*
X189449D01*
X188953Y101047D01*
Y102451D01*
X204180D01*
X205500Y101131D01*
D02*
G37*
G36*
X172378Y147971D02*
X172181Y147819D01*
X171547Y146993D01*
X171355Y146529D01*
X158633D01*
X157154Y148009D01*
X157346Y148471D01*
X172208D01*
X172378Y147971D01*
D02*
G37*
G36*
X146846Y147991D02*
X146654Y147529D01*
X130454D01*
X130386Y147516D01*
X130139Y147977D01*
X132861Y150698D01*
X133183Y150634D01*
X134159Y150828D01*
X134985Y151381D01*
X135538Y152208D01*
X135732Y153183D01*
X135538Y154159D01*
X134985Y154985D01*
X134159Y155538D01*
X133183Y155732D01*
X132208Y155538D01*
X131381Y154985D01*
X130828Y154159D01*
X130634Y153183D01*
X130674Y152985D01*
X130422Y152747D01*
X129915Y152905D01*
X129901Y152975D01*
X129348Y153802D01*
X128521Y154355D01*
X127546Y154549D01*
X126570Y154355D01*
X125743Y153802D01*
X125191Y152975D01*
X125015Y152089D01*
X124891Y151952D01*
X124730Y151955D01*
X124350Y152109D01*
X123890Y152798D01*
X123201Y153259D01*
X122759Y153346D01*
X122360Y153496D01*
X122211Y153895D01*
X122123Y154336D01*
X121663Y155025D01*
X120974Y155486D01*
X120570Y155566D01*
X120340Y156122D01*
X120413Y156232D01*
X120529Y156817D01*
Y160015D01*
X120802Y160198D01*
X121355Y161024D01*
X121549Y162000D01*
X121355Y162976D01*
X121319Y163030D01*
X121554Y163471D01*
X131367D01*
X146846Y147991D01*
D02*
G37*
G36*
X244139Y24292D02*
X246074Y23705D01*
X247858Y22752D01*
X249421Y21469D01*
X250705Y19905D01*
X251658Y18122D01*
X252245Y16186D01*
X252443Y14173D01*
X252245Y12160D01*
X251658Y10225D01*
X250705Y8441D01*
X249421Y6878D01*
X247858Y5595D01*
X246074Y4641D01*
X244139Y4054D01*
X242126Y3856D01*
X240113Y4054D01*
X238178Y4641D01*
X236394Y5595D01*
X234831Y6878D01*
X233547Y8441D01*
X232594Y10225D01*
X232007Y12160D01*
X231809Y14173D01*
X232007Y16186D01*
X232594Y18122D01*
X233547Y19905D01*
X234831Y21469D01*
X236394Y22752D01*
X238178Y23705D01*
X240113Y24292D01*
X242126Y24490D01*
X244139Y24292D01*
D02*
G37*
G36*
X229426Y239997D02*
X229307Y239906D01*
X228673Y239080D01*
X228481Y238616D01*
X212087D01*
X211501Y238500D01*
X211005Y238168D01*
X196919Y224081D01*
X196587Y223585D01*
X196471Y223000D01*
Y216894D01*
X189529D01*
Y219367D01*
X210633Y240471D01*
X229265D01*
X229426Y239997D01*
D02*
G37*
G36*
X205922Y62151D02*
X205616Y61411D01*
X205461Y60236D01*
X205616Y59061D01*
X206069Y57967D01*
X206791Y57027D01*
X207731Y56305D01*
X208825Y55852D01*
X210000Y55697D01*
X211175Y55852D01*
X212269Y56305D01*
X213209Y57027D01*
X213906Y57934D01*
X213959Y57936D01*
X214406Y57664D01*
Y52809D01*
X213959Y52536D01*
X213906Y52538D01*
X213209Y53446D01*
X212269Y54167D01*
X211175Y54620D01*
X210000Y54775D01*
X208825Y54620D01*
X208085Y54314D01*
X192529Y69870D01*
Y74859D01*
X192592Y74907D01*
X193029Y75044D01*
X205922Y62151D01*
D02*
G37*
G36*
X15792Y24292D02*
X17728Y23705D01*
X19512Y22752D01*
X21075Y21469D01*
X22358Y19905D01*
X23311Y18122D01*
X23899Y16186D01*
X24097Y14173D01*
X23899Y12160D01*
X23311Y10225D01*
X22358Y8441D01*
X21075Y6878D01*
X19512Y5595D01*
X17728Y4641D01*
X15792Y4054D01*
X13780Y3856D01*
X11767Y4054D01*
X9831Y4641D01*
X8048Y5595D01*
X6484Y6878D01*
X5201Y8441D01*
X4248Y10225D01*
X3661Y12160D01*
X3462Y14173D01*
X3661Y16186D01*
X4248Y18122D01*
X5201Y19905D01*
X6484Y21469D01*
X8048Y22752D01*
X9831Y23705D01*
X11767Y24292D01*
X13780Y24490D01*
X15792Y24292D01*
D02*
G37*
G36*
X205922Y52151D02*
X205616Y51411D01*
X205461Y50236D01*
X205616Y49062D01*
X206069Y47967D01*
X206791Y47027D01*
X207731Y46306D01*
X208825Y45852D01*
X210000Y45697D01*
X211175Y45852D01*
X212269Y46306D01*
X213209Y47027D01*
X213906Y47934D01*
X213959Y47936D01*
X214406Y47664D01*
Y42809D01*
X213959Y42536D01*
X213906Y42538D01*
X213209Y43446D01*
X212269Y44167D01*
X211175Y44620D01*
X210000Y44775D01*
X208825Y44620D01*
X207731Y44167D01*
X206791Y43446D01*
X206069Y42506D01*
X205616Y41411D01*
X205461Y40236D01*
X205616Y39061D01*
X206069Y37967D01*
X206791Y37027D01*
X207731Y36305D01*
X208026Y36183D01*
Y32658D01*
X206291D01*
Y25343D01*
X212819D01*
Y25343D01*
X213181D01*
Y25343D01*
X214406D01*
Y18555D01*
X214561Y17775D01*
X215003Y17113D01*
X243829Y-11712D01*
X243545Y-12136D01*
X243158Y-11976D01*
X242126Y-11840D01*
X241094Y-11976D01*
X240630Y-12168D01*
X189529Y38933D01*
Y67859D01*
X189592Y67907D01*
X190029Y68044D01*
X205922Y52151D01*
D02*
G37*
G36*
Y72151D02*
X205616Y71411D01*
X205461Y70236D01*
X205616Y69061D01*
X206069Y67967D01*
X206791Y67027D01*
X207731Y66306D01*
X208825Y65852D01*
X210000Y65697D01*
X211175Y65852D01*
X212269Y66306D01*
X213209Y67027D01*
X213906Y67934D01*
X213959Y67936D01*
X214406Y67664D01*
Y62809D01*
X213959Y62536D01*
X213906Y62538D01*
X213209Y63446D01*
X212269Y64167D01*
X211175Y64620D01*
X210000Y64775D01*
X208825Y64620D01*
X208085Y64314D01*
X195529Y76870D01*
Y81859D01*
X195592Y81907D01*
X196029Y82044D01*
X205922Y72151D01*
D02*
G37*
G36*
X246111Y263735D02*
X248046Y263148D01*
X249828Y262195D01*
X251391Y260913D01*
X252673Y259350D01*
X253626Y257568D01*
X254213Y255633D01*
X254399Y253738D01*
X254376Y253622D01*
Y20628D01*
X253876Y20487D01*
X252933Y22025D01*
X251572Y23619D01*
X249978Y24981D01*
X248191Y26076D01*
X246254Y26878D01*
X244216Y27367D01*
X242126Y27532D01*
X240036Y27367D01*
X237998Y26878D01*
X236061Y26076D01*
X234274Y24981D01*
X232680Y23619D01*
X231318Y22025D01*
X230223Y20238D01*
X229421Y18301D01*
X228932Y16263D01*
X228767Y14173D01*
X228932Y12083D01*
X229421Y10045D01*
X230040Y8551D01*
X229616Y8268D01*
X218484Y19400D01*
Y25343D01*
X219709D01*
Y32658D01*
X218484D01*
Y83791D01*
X218484Y83791D01*
X218329Y84572D01*
X217887Y85233D01*
X214289Y88831D01*
X214384Y89061D01*
X214539Y90236D01*
X214384Y91411D01*
X213931Y92506D01*
X213209Y93446D01*
X212269Y94167D01*
X211175Y94620D01*
X210000Y94775D01*
X208825Y94620D01*
X208595Y94525D01*
X207846Y95274D01*
X208037Y95736D01*
X214500D01*
Y97687D01*
X235500D01*
Y95736D01*
X244500D01*
Y104736D01*
X241529D01*
Y113071D01*
X244346D01*
Y119008D01*
X235653D01*
Y117569D01*
X219543D01*
Y119008D01*
X213155D01*
X210529Y121634D01*
Y127664D01*
X210850Y128032D01*
X211029Y128032D01*
X213667D01*
Y126116D01*
X213198Y125802D01*
X212645Y124976D01*
X212451Y124000D01*
X212645Y123024D01*
X213198Y122198D01*
X214024Y121645D01*
X215000Y121451D01*
X215975Y121645D01*
X216802Y122198D01*
X217355Y123024D01*
X217549Y124000D01*
X217355Y124976D01*
X216802Y125802D01*
X216726Y125853D01*
Y128032D01*
X219543D01*
Y129471D01*
X235653D01*
Y128032D01*
X244346D01*
Y133968D01*
X235653D01*
Y132529D01*
X219543D01*
Y133968D01*
X211029D01*
X210850Y133968D01*
X210529Y134335D01*
Y135366D01*
X213194Y138031D01*
X219346D01*
Y139471D01*
X235457D01*
Y138031D01*
X244150D01*
Y141987D01*
X247081Y144919D01*
X247413Y145415D01*
X247529Y146000D01*
Y166000D01*
X247413Y166585D01*
X247081Y167081D01*
X233081Y181081D01*
X232585Y181413D01*
X232000Y181529D01*
X229237D01*
X228931Y182269D01*
X228209Y183209D01*
X227269Y183931D01*
X226175Y184384D01*
X225000Y184539D01*
X223825Y184384D01*
X222731Y183931D01*
X221791Y183209D01*
X221069Y182269D01*
X220616Y181175D01*
X220461Y180000D01*
X220616Y178825D01*
X221069Y177731D01*
X221791Y176791D01*
X222731Y176069D01*
X223825Y175616D01*
X225000Y175461D01*
X226175Y175616D01*
X227269Y176069D01*
X228209Y176791D01*
X228931Y177731D01*
X229237Y178471D01*
X231366D01*
X244471Y165366D01*
Y159296D01*
X244150Y158929D01*
X235457D01*
Y157490D01*
X219346D01*
Y158929D01*
X212745D01*
X212554Y159391D01*
X216081Y162919D01*
X216413Y163415D01*
X216529Y164000D01*
Y165763D01*
X217269Y166069D01*
X218209Y166791D01*
X218931Y167731D01*
X219384Y168825D01*
X219539Y170000D01*
X219384Y171175D01*
X218931Y172269D01*
X218209Y173209D01*
X217269Y173931D01*
X216175Y174384D01*
X215000Y174539D01*
X213825Y174384D01*
X212731Y173931D01*
X212029Y173393D01*
X211529Y173639D01*
Y174366D01*
X213085Y175922D01*
X213825Y175616D01*
X215000Y175461D01*
X216175Y175616D01*
X217269Y176069D01*
X218209Y176791D01*
X218931Y177731D01*
X219384Y178825D01*
X219539Y180000D01*
X219384Y181175D01*
X218931Y182269D01*
X218209Y183209D01*
X217269Y183931D01*
X216175Y184384D01*
X215000Y184539D01*
X213825Y184384D01*
X212731Y183931D01*
X211791Y183209D01*
X211069Y182269D01*
X210616Y181175D01*
X210461Y180000D01*
X210616Y178825D01*
X210922Y178085D01*
X208919Y176081D01*
X208587Y175585D01*
X208471Y175000D01*
Y174500D01*
X200500D01*
Y171529D01*
X187792D01*
X187622Y172029D01*
X187819Y172181D01*
X188453Y173007D01*
X188851Y173968D01*
X188969Y174862D01*
X189475Y174879D01*
X189645Y174024D01*
X190198Y173198D01*
X191024Y172645D01*
X192000Y172451D01*
X192975Y172645D01*
X193802Y173198D01*
X194355Y174024D01*
X194549Y175000D01*
X194485Y175322D01*
X197634Y178471D01*
X200763D01*
X201069Y177731D01*
X201791Y176791D01*
X202731Y176069D01*
X203825Y175616D01*
X205000Y175461D01*
X206175Y175616D01*
X207269Y176069D01*
X208209Y176791D01*
X208931Y177731D01*
X209384Y178825D01*
X209539Y180000D01*
X209384Y181175D01*
X209078Y181915D01*
X209081Y181919D01*
X209413Y182415D01*
X209529Y183000D01*
Y198754D01*
X210029Y199001D01*
X210731Y198463D01*
X211825Y198010D01*
X213000Y197855D01*
X214175Y198010D01*
X215269Y198463D01*
X216209Y199184D01*
X216931Y200124D01*
X217384Y201219D01*
X217539Y202394D01*
X217384Y203568D01*
X216931Y204663D01*
X216209Y205603D01*
X215269Y206324D01*
X214175Y206778D01*
X213000Y206932D01*
X211825Y206778D01*
X210731Y206324D01*
X210029Y205786D01*
X209529Y206033D01*
Y208754D01*
X210029Y209001D01*
X210731Y208463D01*
X211825Y208010D01*
X213000Y207855D01*
X214175Y208010D01*
X215269Y208463D01*
X216209Y209184D01*
X216931Y210124D01*
X217384Y211219D01*
X217539Y212394D01*
X217384Y213568D01*
X216931Y214663D01*
X216209Y215603D01*
X215269Y216324D01*
X214175Y216778D01*
X213000Y216933D01*
X211825Y216778D01*
X210731Y216324D01*
X210029Y215786D01*
X209529Y216033D01*
Y216866D01*
X218634Y225971D01*
X242500D01*
X243085Y226087D01*
X243581Y226419D01*
X249081Y231919D01*
X249413Y232415D01*
X249529Y233000D01*
Y241213D01*
X249413Y241798D01*
X249081Y242294D01*
X245785Y245591D01*
X245977Y246055D01*
X246113Y247087D01*
X245977Y248118D01*
X245579Y249080D01*
X244945Y249906D01*
X244119Y250539D01*
X243158Y250938D01*
X242126Y251074D01*
X241094Y250938D01*
X240132Y250539D01*
X239307Y249906D01*
X238673Y249080D01*
X238275Y248118D01*
X238139Y247087D01*
X238275Y246055D01*
X238673Y245093D01*
X239307Y244268D01*
X240132Y243634D01*
X241094Y243236D01*
X242126Y243100D01*
X243158Y243236D01*
X243622Y243428D01*
X246471Y240579D01*
Y238187D01*
X245977Y238119D01*
X245579Y239080D01*
X244945Y239906D01*
X244119Y240539D01*
X243158Y240938D01*
X242126Y241073D01*
X241094Y240938D01*
X240630Y240745D01*
X238294Y243081D01*
X237798Y243413D01*
X237213Y243529D01*
X234805D01*
X234635Y244029D01*
X234945Y244268D01*
X235579Y245093D01*
X235977Y246055D01*
X236113Y247087D01*
X235977Y248118D01*
X235579Y249080D01*
X234945Y249906D01*
X234119Y250539D01*
X233158Y250938D01*
X232126Y251074D01*
X231094Y250938D01*
X230133Y250539D01*
X229307Y249906D01*
X228673Y249080D01*
X228481Y248616D01*
X217071D01*
X216889Y248889D01*
X216062Y249442D01*
X215087Y249636D01*
X214111Y249442D01*
X213284Y248889D01*
X212732Y248062D01*
X212538Y247087D01*
X212732Y246111D01*
X213284Y245284D01*
X214111Y244732D01*
X215087Y244538D01*
X216062Y244732D01*
X216889Y245284D01*
X217071Y245557D01*
X228481D01*
X228673Y245093D01*
X229307Y244268D01*
X229617Y244029D01*
X229447Y243529D01*
X210000D01*
X209415Y243413D01*
X208919Y243081D01*
X186919Y221081D01*
X186587Y220585D01*
X186471Y220000D01*
Y216033D01*
X185971Y215786D01*
X185269Y216324D01*
X184175Y216778D01*
X183000Y216933D01*
X181825Y216778D01*
X180731Y216324D01*
X179791Y215603D01*
X179069Y214663D01*
X178616Y213568D01*
X178461Y212394D01*
X178616Y211219D01*
X179069Y210124D01*
X179791Y209184D01*
X180731Y208463D01*
X181825Y208010D01*
X183000Y207855D01*
X184175Y208010D01*
X185269Y208463D01*
X185971Y209001D01*
X186471Y208754D01*
Y206033D01*
X185971Y205786D01*
X185269Y206324D01*
X184175Y206778D01*
X183000Y206932D01*
X181825Y206778D01*
X180731Y206324D01*
X179791Y205603D01*
X179069Y204663D01*
X178616Y203568D01*
X178461Y202394D01*
X178616Y201219D01*
X179069Y200124D01*
X179791Y199184D01*
X180731Y198463D01*
X181825Y198010D01*
X183000Y197855D01*
X184175Y198010D01*
X185269Y198463D01*
X185971Y199001D01*
X186471Y198754D01*
Y197634D01*
X175366Y186529D01*
X151985D01*
X151802Y186802D01*
X150976Y187355D01*
X150000Y187549D01*
X149024Y187355D01*
X148198Y186802D01*
X147645Y185976D01*
X147520Y185350D01*
X146978Y185185D01*
X144529Y187634D01*
Y198156D01*
X145269Y198463D01*
X146209Y199184D01*
X146931Y200124D01*
X147384Y201219D01*
X147539Y202394D01*
X147384Y203568D01*
X146931Y204663D01*
X146209Y205603D01*
X145269Y206324D01*
X144175Y206778D01*
X143000Y206932D01*
X141825Y206778D01*
X140731Y206324D01*
X139791Y205603D01*
X139069Y204663D01*
X138616Y203568D01*
X138461Y202394D01*
X138616Y201219D01*
X139069Y200124D01*
X139791Y199184D01*
X140731Y198463D01*
X141471Y198156D01*
Y187399D01*
X140971Y187192D01*
X134529Y193633D01*
Y198156D01*
X135269Y198463D01*
X136209Y199184D01*
X136931Y200124D01*
X137384Y201219D01*
X137539Y202394D01*
X137384Y203568D01*
X136931Y204663D01*
X136209Y205603D01*
X135269Y206324D01*
X134175Y206778D01*
X133000Y206932D01*
X131825Y206778D01*
X130731Y206324D01*
X129791Y205603D01*
X129069Y204663D01*
X128616Y203568D01*
X128461Y202394D01*
X128616Y201219D01*
X129069Y200124D01*
X129791Y199184D01*
X130731Y198463D01*
X131471Y198156D01*
Y193000D01*
X131587Y192415D01*
X131852Y192018D01*
X131464Y191699D01*
X125184Y197979D01*
X125347Y198523D01*
X126209Y199184D01*
X126931Y200124D01*
X127384Y201219D01*
X127539Y202394D01*
X127384Y203568D01*
X126931Y204663D01*
X126209Y205603D01*
X125269Y206324D01*
X124175Y206778D01*
X123000Y206932D01*
X121825Y206778D01*
X120731Y206324D01*
X119791Y205603D01*
X119069Y204663D01*
X118616Y203568D01*
X118461Y202394D01*
X118616Y201219D01*
X119069Y200124D01*
X119791Y199184D01*
X120731Y198463D01*
X121471Y198156D01*
Y198000D01*
X121587Y197415D01*
X121919Y196919D01*
X149687Y169150D01*
X149493Y168637D01*
X149283Y168623D01*
X132824Y185081D01*
X132328Y185413D01*
X131743Y185529D01*
X116054D01*
X115819Y185970D01*
X115855Y186024D01*
X116049Y187000D01*
X115855Y187976D01*
X115302Y188802D01*
X114476Y189355D01*
X113500Y189549D01*
X112524Y189355D01*
X111698Y188802D01*
X111515Y188529D01*
X109554D01*
X109319Y188970D01*
X109355Y189024D01*
X109549Y190000D01*
X109355Y190975D01*
X108802Y191802D01*
X107975Y192355D01*
X107000Y192549D01*
X106025Y192355D01*
X105198Y191802D01*
X104681Y191029D01*
X104054D01*
X103819Y191470D01*
X103855Y191525D01*
X104049Y192500D01*
X103855Y193475D01*
X103302Y194302D01*
X102476Y194855D01*
X101500Y195049D01*
X100524Y194855D01*
X99698Y194302D01*
X99515Y194029D01*
X81134D01*
X79529Y195633D01*
Y198754D01*
X80029Y199001D01*
X80731Y198463D01*
X81825Y198010D01*
X83000Y197855D01*
X84175Y198010D01*
X85269Y198463D01*
X86209Y199184D01*
X86931Y200124D01*
X87384Y201219D01*
X87539Y202394D01*
X87384Y203568D01*
X86931Y204663D01*
X86209Y205603D01*
X85269Y206324D01*
X84175Y206778D01*
X83000Y206932D01*
X81825Y206778D01*
X80731Y206324D01*
X80029Y205786D01*
X79529Y206033D01*
Y207394D01*
X79413Y207979D01*
X79081Y208475D01*
X77078Y210479D01*
X77384Y211219D01*
X77539Y212394D01*
X77384Y213568D01*
X76931Y214663D01*
X76209Y215603D01*
X75269Y216324D01*
X74175Y216778D01*
X73000Y216933D01*
X71825Y216778D01*
X70731Y216324D01*
X69791Y215603D01*
X69069Y214663D01*
X68616Y213568D01*
X68461Y212394D01*
X68616Y211219D01*
X69069Y210124D01*
X69791Y209184D01*
X70731Y208463D01*
X71825Y208010D01*
X73000Y207855D01*
X74175Y208010D01*
X74915Y208316D01*
X75875Y207356D01*
X75684Y206894D01*
X69529D01*
Y207394D01*
X69413Y207979D01*
X69081Y208475D01*
X67078Y210479D01*
X67384Y211219D01*
X67539Y212394D01*
X67384Y213568D01*
X66931Y214663D01*
X66209Y215603D01*
X65269Y216324D01*
X64175Y216778D01*
X63000Y216933D01*
X61825Y216778D01*
X60731Y216324D01*
X59791Y215603D01*
X59069Y214663D01*
X58616Y213568D01*
X58461Y212394D01*
X58616Y211219D01*
X59069Y210124D01*
X59791Y209184D01*
X60731Y208463D01*
X61825Y208010D01*
X63000Y207855D01*
X64175Y208010D01*
X64915Y208316D01*
X66471Y206760D01*
Y206033D01*
X65971Y205786D01*
X65269Y206324D01*
X64175Y206778D01*
X63000Y206932D01*
X61825Y206778D01*
X60731Y206324D01*
X59791Y205603D01*
X59069Y204663D01*
X58616Y203568D01*
X58461Y202394D01*
X58616Y201219D01*
X59069Y200124D01*
X59791Y199184D01*
X60731Y198463D01*
X61825Y198010D01*
X63000Y197855D01*
X64175Y198010D01*
X65269Y198463D01*
X65971Y199001D01*
X66471Y198754D01*
Y195000D01*
X66587Y194415D01*
X66919Y193919D01*
X71846Y188991D01*
X71654Y188529D01*
X69027D01*
X57078Y200479D01*
X57384Y201219D01*
X57539Y202394D01*
X57384Y203568D01*
X56931Y204663D01*
X56209Y205603D01*
X55269Y206324D01*
X54175Y206778D01*
X53000Y206932D01*
X51825Y206778D01*
X50731Y206324D01*
X49791Y205603D01*
X49069Y204663D01*
X48616Y203568D01*
X48461Y202394D01*
X48616Y201219D01*
X49069Y200124D01*
X49791Y199184D01*
X50731Y198463D01*
X51825Y198010D01*
X53000Y197855D01*
X54175Y198010D01*
X54915Y198316D01*
X67201Y186029D01*
X67064Y185592D01*
X67017Y185529D01*
X62027D01*
X47078Y200479D01*
X47384Y201219D01*
X47539Y202394D01*
X47384Y203568D01*
X46931Y204663D01*
X46209Y205603D01*
X45269Y206324D01*
X44175Y206778D01*
X43000Y206932D01*
X41825Y206778D01*
X40731Y206324D01*
X40029Y205786D01*
X39529Y206033D01*
Y208754D01*
X40029Y209001D01*
X40731Y208463D01*
X41825Y208010D01*
X43000Y207855D01*
X44175Y208010D01*
X45269Y208463D01*
X46209Y209184D01*
X46931Y210124D01*
X47384Y211219D01*
X47539Y212394D01*
X47384Y213568D01*
X46931Y214663D01*
X46209Y215603D01*
X45269Y216324D01*
X44175Y216778D01*
X43000Y216933D01*
X41825Y216778D01*
X40731Y216324D01*
X39791Y215603D01*
X39284Y214943D01*
X36716D01*
X36209Y215603D01*
X35269Y216324D01*
X34175Y216778D01*
X33000Y216933D01*
X31825Y216778D01*
X30731Y216324D01*
X29791Y215603D01*
X29069Y214663D01*
X28616Y213568D01*
X28461Y212394D01*
X28616Y211219D01*
X29069Y210124D01*
X29791Y209184D01*
X30731Y208463D01*
X31825Y208010D01*
X33000Y207855D01*
X34175Y208010D01*
X35269Y208463D01*
X35971Y209001D01*
X36471Y208754D01*
Y206033D01*
X35971Y205786D01*
X35269Y206324D01*
X34175Y206778D01*
X33000Y206932D01*
X31825Y206778D01*
X30731Y206324D01*
X29791Y205603D01*
X29069Y204663D01*
X28616Y203568D01*
X28461Y202394D01*
X28616Y201219D01*
X29069Y200124D01*
X29791Y199184D01*
X30731Y198463D01*
X31825Y198010D01*
X33000Y197855D01*
X34175Y198010D01*
X35269Y198463D01*
X35971Y199001D01*
X36471Y198754D01*
Y193155D01*
X36235Y193057D01*
X35504Y192496D01*
X34943Y191765D01*
X34590Y190914D01*
X34470Y190000D01*
X34590Y189086D01*
X34943Y188235D01*
X35451Y187573D01*
Y141056D01*
X23198Y128802D01*
X22645Y127975D01*
X22451Y127000D01*
Y45000D01*
X22645Y44025D01*
X23198Y43198D01*
X35198Y31198D01*
X36024Y30645D01*
X37000Y30451D01*
X71944D01*
X76751Y25644D01*
Y23834D01*
X76590Y23710D01*
X76265Y23287D01*
X75635D01*
X75310Y23710D01*
X74516Y24319D01*
X73592Y24702D01*
X72600Y24833D01*
X71608Y24702D01*
X70684Y24319D01*
X69890Y23710D01*
X69281Y22916D01*
X68898Y21992D01*
X68767Y21000D01*
X68898Y20008D01*
X69281Y19084D01*
X69890Y18290D01*
X70684Y17681D01*
X71608Y17298D01*
X72600Y17167D01*
X73592Y17298D01*
X74516Y17681D01*
X75310Y18290D01*
X75635Y18713D01*
X76265D01*
X76590Y18290D01*
X77384Y17681D01*
X78308Y17298D01*
X79300Y17167D01*
X80292Y17298D01*
X81216Y17681D01*
X82010Y18290D01*
X82335Y18713D01*
X82965D01*
X83290Y18290D01*
X84084Y17681D01*
X85008Y17298D01*
X86000Y17167D01*
X86992Y17298D01*
X87916Y17681D01*
X88710Y18290D01*
X89035Y18713D01*
X89665D01*
X89990Y18290D01*
X90784Y17681D01*
X91708Y17298D01*
X92700Y17167D01*
X93692Y17298D01*
X94616Y17681D01*
X95410Y18290D01*
X95735Y18713D01*
X96365D01*
X96690Y18290D01*
X97484Y17681D01*
X98408Y17298D01*
X99400Y17167D01*
X100392Y17298D01*
X101316Y17681D01*
X102110Y18290D01*
X102719Y19084D01*
X103102Y20008D01*
X103233Y21000D01*
X103102Y21992D01*
X102719Y22916D01*
X102110Y23710D01*
X101316Y24319D01*
X100392Y24702D01*
X99400Y24833D01*
X98408Y24702D01*
X97484Y24319D01*
X96690Y23710D01*
X96365Y23287D01*
X95735D01*
X95410Y23710D01*
X94616Y24319D01*
X93692Y24702D01*
X92700Y24833D01*
X91708Y24702D01*
X90784Y24319D01*
X89990Y23710D01*
X89665Y23287D01*
X89035D01*
X88710Y23710D01*
X87916Y24319D01*
X86992Y24702D01*
X86000Y24833D01*
X85008Y24702D01*
X84084Y24319D01*
X83290Y23710D01*
X82965Y23287D01*
X82335D01*
X82010Y23710D01*
X81849Y23834D01*
Y25644D01*
X95656Y39451D01*
X155000D01*
X155975Y39645D01*
X156802Y40198D01*
X157355Y41025D01*
X157549Y42000D01*
X157355Y42976D01*
X156802Y43802D01*
X155975Y44355D01*
X155000Y44549D01*
X94600D01*
X93625Y44355D01*
X92798Y43802D01*
X79300Y30305D01*
X74802Y34802D01*
X73975Y35355D01*
X73000Y35549D01*
X38056D01*
X27549Y46056D01*
Y125944D01*
X39802Y138198D01*
X40355Y139024D01*
X40549Y140000D01*
Y187573D01*
X41057Y188235D01*
X41410Y189086D01*
X41530Y190000D01*
X41410Y190914D01*
X41057Y191765D01*
X40496Y192496D01*
X39765Y193057D01*
X39529Y193155D01*
Y198754D01*
X40029Y199001D01*
X40731Y198463D01*
X41825Y198010D01*
X43000Y197855D01*
X44175Y198010D01*
X44915Y198316D01*
X60312Y182919D01*
X60808Y182587D01*
X61394Y182471D01*
X76123D01*
X76171Y182408D01*
X76308Y181971D01*
X62919Y168581D01*
X62587Y168085D01*
X62471Y167500D01*
Y144820D01*
X62587Y144235D01*
X62919Y143739D01*
X80692Y125966D01*
X80520Y125795D01*
X80060Y125106D01*
X79899Y124293D01*
X80060Y123480D01*
X80520Y122792D01*
X81209Y122331D01*
X81572Y122259D01*
X81737Y121716D01*
X75919Y115898D01*
X75587Y115402D01*
X75471Y114817D01*
Y104000D01*
X75587Y103415D01*
X75919Y102919D01*
X85919Y92919D01*
X86415Y92587D01*
X87000Y92471D01*
X94732D01*
X94914Y92198D01*
X95741Y91645D01*
X96604Y91474D01*
X96842Y91005D01*
X96367Y90529D01*
X82634D01*
X57529Y115633D01*
Y123015D01*
X57802Y123198D01*
X58355Y124024D01*
X58549Y125000D01*
X58355Y125976D01*
X57802Y126802D01*
X56976Y127355D01*
X56000Y127549D01*
X55024Y127355D01*
X54198Y126802D01*
X53645Y125976D01*
X53451Y125000D01*
X53645Y124024D01*
X54198Y123198D01*
X54466Y123018D01*
X54457Y122547D01*
X54030Y122319D01*
X53975Y122355D01*
X53000Y122549D01*
X52025Y122355D01*
X51198Y121802D01*
X50645Y120975D01*
X50451Y120000D01*
X50645Y119025D01*
X51198Y118198D01*
X51466Y118018D01*
X51457Y117547D01*
X51030Y117319D01*
X50976Y117355D01*
X50000Y117549D01*
X49025Y117355D01*
X48198Y116802D01*
X47645Y115975D01*
X47451Y115000D01*
X47645Y114024D01*
X48198Y113198D01*
X49025Y112645D01*
X50000Y112451D01*
X50322Y112515D01*
X78919Y83919D01*
X79415Y83587D01*
X80000Y83471D01*
X98657D01*
X99242Y83587D01*
X99738Y83919D01*
X105081Y89262D01*
X105413Y89758D01*
X105529Y90343D01*
Y92187D01*
X114034Y100692D01*
X114205Y100520D01*
X114894Y100060D01*
X115707Y99898D01*
X116520Y100060D01*
X117209Y100520D01*
X117669Y101209D01*
X117741Y101572D01*
X118283Y101737D01*
X135102Y84919D01*
X135598Y84587D01*
X136183Y84471D01*
X178366D01*
X183471Y79366D01*
Y31299D01*
X183587Y30714D01*
X183919Y30218D01*
X228467Y-14331D01*
X228275Y-14795D01*
X228139Y-15827D01*
X228275Y-16859D01*
X228673Y-17820D01*
X229307Y-18646D01*
X230133Y-19279D01*
X231094Y-19678D01*
X232126Y-19814D01*
X233158Y-19678D01*
X234119Y-19279D01*
X234945Y-18646D01*
X235579Y-17820D01*
X235977Y-16859D01*
X236113Y-15827D01*
X235977Y-14795D01*
X235579Y-13833D01*
X234945Y-13008D01*
X234119Y-12374D01*
X233158Y-11976D01*
X232126Y-11840D01*
X231094Y-11976D01*
X230630Y-12168D01*
X186529Y31933D01*
Y36922D01*
X186592Y36970D01*
X187029Y37107D01*
X238467Y-14331D01*
X238275Y-14795D01*
X238139Y-15827D01*
X238275Y-16859D01*
X238673Y-17820D01*
X239307Y-18646D01*
X240132Y-19279D01*
X241094Y-19678D01*
X242126Y-19814D01*
X243158Y-19678D01*
X244119Y-19279D01*
X244945Y-18646D01*
X245461Y-17974D01*
X245961Y-18144D01*
Y-19108D01*
X243101Y-21968D01*
X242126Y-21840D01*
X241094Y-21976D01*
X240132Y-22374D01*
X239307Y-23008D01*
X238673Y-23833D01*
X238275Y-24795D01*
X238139Y-25827D01*
X238275Y-26859D01*
X238673Y-27820D01*
X239307Y-28646D01*
X240132Y-29280D01*
X241094Y-29678D01*
X242126Y-29814D01*
X243158Y-29678D01*
X244119Y-29280D01*
X244945Y-28646D01*
X245579Y-27820D01*
X245977Y-26859D01*
X246113Y-25827D01*
X245985Y-24852D01*
X249442Y-21395D01*
X249884Y-20733D01*
X250039Y-19953D01*
Y-13000D01*
X249884Y-12220D01*
X249442Y-11558D01*
X236221Y1663D01*
X236504Y2087D01*
X237998Y1468D01*
X240036Y979D01*
X242126Y814D01*
X244216Y979D01*
X246254Y1468D01*
X248191Y2270D01*
X249978Y3366D01*
X251572Y4727D01*
X252933Y6321D01*
X253876Y7859D01*
X254376Y7718D01*
Y-33150D01*
X254396Y-33247D01*
X254207Y-35161D01*
X253620Y-37095D01*
X252667Y-38878D01*
X251385Y-40440D01*
X249823Y-41723D01*
X248040Y-42675D01*
X246106Y-43262D01*
X244192Y-43451D01*
X244094Y-43431D01*
X185039D01*
X184974Y-43444D01*
X184108Y-43272D01*
X183318Y-42745D01*
X182791Y-41955D01*
X182619Y-41089D01*
X182632Y-41024D01*
Y74803D01*
X182649D01*
X182462Y76222D01*
X181915Y77545D01*
X181043Y78681D01*
X179907Y79552D01*
X178585Y80100D01*
X177165Y80287D01*
X175746Y80100D01*
X174423Y79552D01*
X173288Y78681D01*
X172416Y77545D01*
X171868Y76222D01*
X171681Y74803D01*
X171699D01*
Y3937D01*
X171712Y3871D01*
X171540Y3006D01*
X171012Y2216D01*
X170223Y1688D01*
X169357Y1516D01*
X169291Y1529D01*
X19337D01*
X19239Y2020D01*
X19844Y2270D01*
X21632Y3366D01*
X23226Y4727D01*
X24587Y6321D01*
X25682Y8108D01*
X26485Y10045D01*
X26974Y12083D01*
X27138Y14173D01*
X26974Y16263D01*
X26485Y18301D01*
X25682Y20238D01*
X24587Y22025D01*
X23226Y23619D01*
X21632Y24981D01*
X19844Y26076D01*
X17908Y26878D01*
X15869Y27367D01*
X13780Y27532D01*
X11690Y27367D01*
X9651Y26878D01*
X7715Y26076D01*
X5927Y24981D01*
X4333Y23619D01*
X2972Y22025D01*
X2029Y20487D01*
X1529Y20628D01*
Y85622D01*
X2029Y85722D01*
X2079Y85602D01*
X2523Y85023D01*
X3102Y84579D01*
X3776Y84300D01*
X4500Y84204D01*
X5224Y84300D01*
X5898Y84579D01*
X6477Y85023D01*
X6921Y85602D01*
X7200Y86276D01*
X7296Y87000D01*
X7200Y87724D01*
X6921Y88398D01*
X6477Y88977D01*
X5898Y89421D01*
X5224Y89700D01*
X4500Y89796D01*
X3776Y89700D01*
X3102Y89421D01*
X2523Y88977D01*
X2079Y88398D01*
X2029Y88278D01*
X1529Y88378D01*
Y137622D01*
X2029Y137722D01*
X2079Y137602D01*
X2523Y137023D01*
X3102Y136579D01*
X3776Y136300D01*
X4500Y136204D01*
X5224Y136300D01*
X5898Y136579D01*
X6477Y137023D01*
X6921Y137602D01*
X7200Y138276D01*
X7296Y139000D01*
X7200Y139724D01*
X6921Y140398D01*
X6477Y140977D01*
X5898Y141421D01*
X5224Y141700D01*
X4500Y141796D01*
X3776Y141700D01*
X3102Y141421D01*
X2523Y140977D01*
X2079Y140398D01*
X2029Y140278D01*
X1529Y140378D01*
Y147638D01*
Y200644D01*
X2029Y200785D01*
X2977Y199238D01*
X4338Y197645D01*
X5931Y196284D01*
X7718Y195190D01*
X9653Y194388D01*
X11691Y193899D01*
X13780Y193734D01*
X15868Y193899D01*
X17906Y194388D01*
X19841Y195190D01*
X21628Y196284D01*
X23221Y197645D01*
X24582Y199238D01*
X25676Y201025D01*
X26478Y202961D01*
X26967Y204998D01*
X27132Y207087D01*
X26967Y209175D01*
X26478Y211213D01*
X25676Y213148D01*
X24582Y214935D01*
X23221Y216528D01*
X21628Y217889D01*
X20693Y218462D01*
X20828Y218943D01*
X177132D01*
X177362Y218989D01*
X178552Y219145D01*
X179874Y219693D01*
X180274Y220000D01*
X181000D01*
Y220557D01*
X181010Y220565D01*
X181882Y221700D01*
X182430Y223023D01*
X182586Y224213D01*
X182632Y224442D01*
Y261297D01*
X182665Y261463D01*
X182665D01*
X182644Y261489D01*
X182824Y262394D01*
X183352Y263184D01*
X184141Y263712D01*
X185047Y263892D01*
X185072Y263871D01*
Y263871D01*
X185238Y263904D01*
X244100D01*
X244198Y263923D01*
X246111Y263735D01*
D02*
G37*
G36*
X205922Y82151D02*
X205616Y81411D01*
X205461Y80236D01*
X205616Y79062D01*
X206069Y77967D01*
X206791Y77027D01*
X207731Y76306D01*
X208825Y75852D01*
X210000Y75697D01*
X211175Y75852D01*
X212269Y76306D01*
X213209Y77027D01*
X213906Y77934D01*
X213959Y77936D01*
X214406Y77664D01*
Y72809D01*
X213959Y72536D01*
X213906Y72538D01*
X213209Y73446D01*
X212269Y74167D01*
X211175Y74620D01*
X210000Y74775D01*
X208825Y74620D01*
X208085Y74314D01*
X198529Y83870D01*
Y86000D01*
X198413Y86585D01*
X198081Y87081D01*
X191154Y94009D01*
X191346Y94471D01*
X193603D01*
X205922Y82151D01*
D02*
G37*
G36*
X238467Y238582D02*
X238275Y238119D01*
X238139Y237087D01*
X238275Y236055D01*
X238673Y235093D01*
X239307Y234267D01*
X240132Y233634D01*
X241094Y233236D01*
X242126Y233100D01*
X243158Y233236D01*
X244119Y233634D01*
X244945Y234267D01*
X245579Y235093D01*
X245977Y236055D01*
X246471Y235986D01*
Y233633D01*
X241866Y229029D01*
X218000D01*
X217415Y228913D01*
X216919Y228581D01*
X206919Y218581D01*
X206587Y218085D01*
X206471Y217500D01*
Y216033D01*
X205971Y215786D01*
X205269Y216324D01*
X204175Y216778D01*
X203000Y216933D01*
X201825Y216778D01*
X200731Y216324D01*
X200029Y215786D01*
X199529Y216033D01*
Y222366D01*
X212720Y235557D01*
X228481D01*
X228673Y235093D01*
X229307Y234267D01*
X230133Y233634D01*
X231094Y233236D01*
X232126Y233100D01*
X233158Y233236D01*
X234119Y233634D01*
X234945Y234267D01*
X235579Y235093D01*
X235977Y236055D01*
X236113Y237087D01*
X235977Y238119D01*
X235579Y239080D01*
X234945Y239906D01*
X234826Y239997D01*
X234987Y240471D01*
X236579D01*
X238467Y238582D01*
D02*
G37*
%LPC*%
G36*
X13780Y214025D02*
X12426Y213892D01*
X11124Y213497D01*
X9924Y212856D01*
X8873Y211993D01*
X8010Y210942D01*
X7369Y209742D01*
X6974Y208440D01*
X6841Y207087D01*
X6974Y205733D01*
X7369Y204431D01*
X8010Y203232D01*
X8873Y202180D01*
X9924Y201317D01*
X11124Y200676D01*
X12426Y200281D01*
X13780Y200148D01*
X15133Y200281D01*
X16435Y200676D01*
X17635Y201317D01*
X18686Y202180D01*
X19549Y203232D01*
X20190Y204431D01*
X20585Y205733D01*
X20719Y207087D01*
X20585Y208440D01*
X20190Y209742D01*
X19549Y210942D01*
X18686Y211993D01*
X17635Y212856D01*
X16435Y213497D01*
X15133Y213892D01*
X13780Y214025D01*
D02*
G37*
G36*
X175000Y178987D02*
X173968Y178851D01*
X173007Y178453D01*
X172181Y177819D01*
X171547Y176993D01*
X171149Y176032D01*
X171013Y175000D01*
X171149Y173968D01*
X171547Y173007D01*
X172181Y172181D01*
X173007Y171547D01*
X173968Y171149D01*
X175000Y171013D01*
X176032Y171149D01*
X176993Y171547D01*
X177819Y172181D01*
X178453Y173007D01*
X178851Y173968D01*
X178987Y175000D01*
X178851Y176032D01*
X178453Y176993D01*
X177819Y177819D01*
X176993Y178453D01*
X176032Y178851D01*
X175000Y178987D01*
D02*
G37*
G36*
Y118987D02*
X173968Y118851D01*
X173007Y118453D01*
X172181Y117819D01*
X171547Y116993D01*
X171149Y116032D01*
X171013Y115000D01*
X171149Y113968D01*
X171547Y113007D01*
X172181Y112181D01*
X173007Y111547D01*
X173968Y111149D01*
X175000Y111013D01*
X176032Y111149D01*
X176993Y111547D01*
X177819Y112181D01*
X178453Y113007D01*
X178851Y113968D01*
X178987Y115000D01*
X178851Y116032D01*
X178453Y116993D01*
X177819Y117819D01*
X176993Y118453D01*
X176032Y118851D01*
X175000Y118987D01*
D02*
G37*
G36*
X185000D02*
X183968Y118851D01*
X183007Y118453D01*
X182181Y117819D01*
X181547Y116993D01*
X181149Y116032D01*
X181013Y115000D01*
X181149Y113968D01*
X181547Y113007D01*
X182181Y112181D01*
X183007Y111547D01*
X183968Y111149D01*
X185000Y111013D01*
X186032Y111149D01*
X186993Y111547D01*
X187819Y112181D01*
X188453Y113007D01*
X188851Y113968D01*
X188987Y115000D01*
X188851Y116032D01*
X188453Y116993D01*
X187819Y117819D01*
X186993Y118453D01*
X186032Y118851D01*
X185000Y118987D01*
D02*
G37*
G36*
X242126Y21112D02*
X240772Y20979D01*
X239471Y20584D01*
X238271Y19943D01*
X237219Y19080D01*
X236356Y18028D01*
X235715Y16829D01*
X235320Y15527D01*
X235187Y14173D01*
X235320Y12820D01*
X235715Y11518D01*
X236356Y10318D01*
X237219Y9267D01*
X238271Y8404D01*
X239471Y7762D01*
X240772Y7368D01*
X242126Y7234D01*
X243480Y7368D01*
X244781Y7762D01*
X245981Y8404D01*
X247032Y9267D01*
X247896Y10318D01*
X248537Y11518D01*
X248932Y12820D01*
X249065Y14173D01*
X248932Y15527D01*
X248537Y16829D01*
X247896Y18028D01*
X247032Y19080D01*
X245981Y19943D01*
X244781Y20584D01*
X243480Y20979D01*
X242126Y21112D01*
D02*
G37*
G36*
X13780D02*
X12426Y20979D01*
X11124Y20584D01*
X9924Y19943D01*
X8873Y19080D01*
X8010Y18028D01*
X7369Y16829D01*
X6974Y15527D01*
X6841Y14173D01*
X6974Y12820D01*
X7369Y11518D01*
X8010Y10318D01*
X8873Y9267D01*
X9924Y8404D01*
X11124Y7762D01*
X12426Y7368D01*
X13780Y7234D01*
X15133Y7368D01*
X16435Y7762D01*
X17635Y8404D01*
X18686Y9267D01*
X19549Y10318D01*
X20190Y11518D01*
X20585Y12820D01*
X20719Y14173D01*
X20585Y15527D01*
X20190Y16829D01*
X19549Y18028D01*
X18686Y19080D01*
X17635Y19943D01*
X16435Y20584D01*
X15133Y20979D01*
X13780Y21112D01*
D02*
G37*
G36*
X246079Y-31874D02*
X238173D01*
Y-39780D01*
X246079D01*
Y-31874D01*
D02*
G37*
G36*
X232126Y-31840D02*
X231094Y-31976D01*
X230133Y-32374D01*
X229307Y-33008D01*
X228673Y-33833D01*
X228275Y-34795D01*
X228139Y-35827D01*
X228275Y-36859D01*
X228673Y-37820D01*
X229307Y-38646D01*
X230133Y-39279D01*
X231094Y-39678D01*
X232126Y-39814D01*
X233158Y-39678D01*
X234119Y-39279D01*
X234945Y-38646D01*
X235579Y-37820D01*
X235977Y-36859D01*
X236113Y-35827D01*
X235977Y-34795D01*
X235579Y-33833D01*
X234945Y-33008D01*
X234119Y-32374D01*
X233158Y-31976D01*
X232126Y-31840D01*
D02*
G37*
G36*
Y-21840D02*
X231094Y-21976D01*
X230133Y-22374D01*
X229307Y-23008D01*
X228967Y-23451D01*
X217427D01*
X216765Y-22943D01*
X215914Y-22590D01*
X215000Y-22470D01*
X214086Y-22590D01*
X213235Y-22943D01*
X212504Y-23504D01*
X211943Y-24235D01*
X211590Y-25086D01*
X211470Y-26000D01*
X211590Y-26914D01*
X211943Y-27765D01*
X212504Y-28496D01*
X213235Y-29057D01*
X214086Y-29410D01*
X215000Y-29530D01*
X215914Y-29410D01*
X216765Y-29057D01*
X217427Y-28549D01*
X229232D01*
X229307Y-28646D01*
X230133Y-29280D01*
X231094Y-29678D01*
X232126Y-29814D01*
X233158Y-29678D01*
X234119Y-29280D01*
X234945Y-28646D01*
X235579Y-27820D01*
X235977Y-26859D01*
X236113Y-25827D01*
X235977Y-24795D01*
X235579Y-23833D01*
X234945Y-23008D01*
X234119Y-22374D01*
X233158Y-21976D01*
X232126Y-21840D01*
D02*
G37*
G36*
X240000Y74775D02*
X238825Y74620D01*
X237731Y74167D01*
X236791Y73446D01*
X236069Y72506D01*
X235616Y71411D01*
X235461Y70236D01*
X235616Y69061D01*
X236069Y67967D01*
X236791Y67027D01*
X237731Y66306D01*
X238825Y65852D01*
X240000Y65697D01*
X241175Y65852D01*
X242269Y66306D01*
X243209Y67027D01*
X243931Y67967D01*
X244384Y69061D01*
X244539Y70236D01*
X244384Y71411D01*
X243931Y72506D01*
X243209Y73446D01*
X242269Y74167D01*
X241175Y74620D01*
X240000Y74775D01*
D02*
G37*
G36*
X48000Y71260D02*
X46557Y71070D01*
X45212Y70513D01*
X44058Y69627D01*
X43172Y68473D01*
X42615Y67128D01*
X42425Y65685D01*
X42615Y64242D01*
X43172Y62897D01*
X44058Y61743D01*
X45212Y60857D01*
X46557Y60300D01*
X48000Y60110D01*
X49443Y60300D01*
X50788Y60857D01*
X51942Y61743D01*
X52828Y62897D01*
X53385Y64242D01*
X53575Y65685D01*
X53385Y67128D01*
X52828Y68473D01*
X51942Y69627D01*
X50788Y70513D01*
X49443Y71070D01*
X48000Y71260D01*
D02*
G37*
G36*
X240000Y64775D02*
X238825Y64620D01*
X237731Y64167D01*
X236791Y63446D01*
X236069Y62506D01*
X235616Y61411D01*
X235461Y60236D01*
X235616Y59061D01*
X236069Y57967D01*
X236791Y57027D01*
X237731Y56305D01*
X238825Y55852D01*
X240000Y55697D01*
X241175Y55852D01*
X242269Y56305D01*
X243209Y57027D01*
X243931Y57967D01*
X244384Y59061D01*
X244539Y60236D01*
X244384Y61411D01*
X243931Y62506D01*
X243209Y63446D01*
X242269Y64167D01*
X241175Y64620D01*
X240000Y64775D01*
D02*
G37*
G36*
X8630Y80887D02*
X7752Y80772D01*
X6934Y80433D01*
X6232Y79894D01*
X5693Y79192D01*
X5354Y78374D01*
X5239Y77496D01*
X5354Y76618D01*
X5693Y75801D01*
X6232Y75098D01*
X6934Y74559D01*
X7752Y74220D01*
X8630Y74105D01*
X9508Y74220D01*
X10326Y74559D01*
X11028Y75098D01*
X11567Y75801D01*
X11906Y76618D01*
X12021Y77496D01*
X11906Y78374D01*
X11567Y79192D01*
X11028Y79894D01*
X10326Y80433D01*
X9508Y80772D01*
X8630Y80887D01*
D02*
G37*
G36*
X240000Y84775D02*
X238825Y84620D01*
X237731Y84167D01*
X236791Y83446D01*
X236069Y82506D01*
X235616Y81411D01*
X235461Y80236D01*
X235616Y79062D01*
X236069Y77967D01*
X236791Y77027D01*
X237731Y76306D01*
X238825Y75852D01*
X240000Y75697D01*
X241175Y75852D01*
X242269Y76306D01*
X243209Y77027D01*
X243931Y77967D01*
X244384Y79062D01*
X244539Y80236D01*
X244384Y81411D01*
X243931Y82506D01*
X243209Y83446D01*
X242269Y84167D01*
X241175Y84620D01*
X240000Y84775D01*
D02*
G37*
G36*
X42000Y97296D02*
X41276Y97200D01*
X40602Y96921D01*
X40023Y96477D01*
X39579Y95898D01*
X39300Y95224D01*
X39204Y94500D01*
X39300Y93776D01*
X39451Y93411D01*
Y91000D01*
X39645Y90025D01*
X40198Y89198D01*
X52788Y76607D01*
X53615Y76055D01*
X54590Y75861D01*
X63193D01*
Y74102D01*
X76807D01*
Y82717D01*
X63193D01*
Y80958D01*
X55646D01*
X44549Y92056D01*
Y93411D01*
X44700Y93776D01*
X44796Y94500D01*
X44700Y95224D01*
X44421Y95898D01*
X43977Y96477D01*
X43398Y96921D01*
X42724Y97200D01*
X42000Y97296D01*
D02*
G37*
G36*
Y115796D02*
X41276Y115700D01*
X40602Y115421D01*
X40023Y114977D01*
X39579Y114398D01*
X39428Y114032D01*
X33198Y107802D01*
X32645Y106975D01*
X32451Y106000D01*
Y59000D01*
X32645Y58025D01*
X33198Y57198D01*
X42714Y47682D01*
X42615Y47443D01*
X42425Y46000D01*
X42615Y44557D01*
X43172Y43212D01*
X44058Y42058D01*
X45212Y41172D01*
X46557Y40615D01*
X48000Y40425D01*
X49443Y40615D01*
X50788Y41172D01*
X51942Y42058D01*
X52828Y43212D01*
X53385Y44557D01*
X53575Y46000D01*
X53385Y47443D01*
X52828Y48788D01*
X51942Y49942D01*
X50788Y50828D01*
X49443Y51385D01*
X48000Y51575D01*
X46557Y51385D01*
X46318Y51286D01*
X37549Y60056D01*
Y104944D01*
X43032Y110428D01*
X43398Y110579D01*
X43977Y111023D01*
X44421Y111602D01*
X44700Y112276D01*
X44796Y113000D01*
X44700Y113724D01*
X44421Y114398D01*
X43977Y114977D01*
X43398Y115421D01*
X42724Y115700D01*
X42000Y115796D01*
D02*
G37*
G36*
X240000Y44775D02*
X238825Y44620D01*
X237731Y44167D01*
X236791Y43446D01*
X236069Y42506D01*
X235616Y41411D01*
X235461Y40236D01*
X235616Y39061D01*
X236069Y37967D01*
X236791Y37027D01*
X237731Y36305D01*
X238825Y35852D01*
X240000Y35697D01*
X241175Y35852D01*
X242269Y36305D01*
X243209Y37027D01*
X243931Y37967D01*
X244384Y39061D01*
X244539Y40236D01*
X244384Y41411D01*
X243931Y42506D01*
X243209Y43446D01*
X242269Y44167D01*
X241175Y44620D01*
X240000Y44775D01*
D02*
G37*
G36*
X8630Y37580D02*
X7752Y37465D01*
X6934Y37126D01*
X6232Y36587D01*
X5693Y35885D01*
X5354Y35067D01*
X5239Y34189D01*
X5354Y33311D01*
X5693Y32493D01*
X6232Y31791D01*
X6934Y31252D01*
X7752Y30913D01*
X8630Y30798D01*
X9508Y30913D01*
X10326Y31252D01*
X11028Y31791D01*
X11567Y32493D01*
X11906Y33311D01*
X12021Y34189D01*
X11906Y35067D01*
X11567Y35885D01*
X11028Y36587D01*
X10326Y37126D01*
X9508Y37465D01*
X8630Y37580D01*
D02*
G37*
G36*
X240000Y94775D02*
X238825Y94620D01*
X237731Y94167D01*
X236791Y93446D01*
X236069Y92506D01*
X235616Y91411D01*
X235461Y90236D01*
X235616Y89061D01*
X236069Y87967D01*
X236791Y87027D01*
X237731Y86305D01*
X238825Y85852D01*
X240000Y85697D01*
X241175Y85852D01*
X242269Y86305D01*
X243209Y87027D01*
X243931Y87967D01*
X244384Y89061D01*
X244539Y90236D01*
X244384Y91411D01*
X243931Y92506D01*
X243209Y93446D01*
X242269Y94167D01*
X241175Y94620D01*
X240000Y94775D01*
D02*
G37*
G36*
Y54775D02*
X238825Y54620D01*
X237731Y54167D01*
X236791Y53446D01*
X236069Y52506D01*
X235616Y51411D01*
X235461Y50236D01*
X235616Y49062D01*
X236069Y47967D01*
X236791Y47027D01*
X237731Y46306D01*
X238825Y45852D01*
X240000Y45697D01*
X241175Y45852D01*
X242269Y46306D01*
X243209Y47027D01*
X243931Y47967D01*
X244384Y49062D01*
X244539Y50236D01*
X244384Y51411D01*
X243931Y52506D01*
X243209Y53446D01*
X242269Y54167D01*
X241175Y54620D01*
X240000Y54775D01*
D02*
G37*
G36*
X76807Y63898D02*
X63193D01*
Y55283D01*
X67451D01*
Y50089D01*
X66943Y49426D01*
X66590Y48575D01*
X66470Y47661D01*
X66590Y46748D01*
X66943Y45896D01*
X67504Y45165D01*
X68235Y44604D01*
X69086Y44251D01*
X70000Y44131D01*
X70914Y44251D01*
X71765Y44604D01*
X72496Y45165D01*
X73057Y45896D01*
X73410Y46748D01*
X73530Y47661D01*
X73410Y48575D01*
X73057Y49426D01*
X72549Y50089D01*
Y55283D01*
X76807D01*
Y63898D01*
D02*
G37*
G36*
X133000Y216933D02*
X131825Y216778D01*
X130731Y216324D01*
X129791Y215603D01*
X129069Y214663D01*
X128616Y213568D01*
X128461Y212394D01*
X128616Y211219D01*
X129069Y210124D01*
X129791Y209184D01*
X130731Y208463D01*
X131825Y208010D01*
X133000Y207855D01*
X134175Y208010D01*
X135269Y208463D01*
X136209Y209184D01*
X136931Y210124D01*
X137384Y211219D01*
X137539Y212394D01*
X137384Y213568D01*
X136931Y214663D01*
X136209Y215603D01*
X135269Y216324D01*
X134175Y216778D01*
X133000Y216933D01*
D02*
G37*
G36*
X143000D02*
X141825Y216778D01*
X140731Y216324D01*
X139791Y215603D01*
X139069Y214663D01*
X138616Y213568D01*
X138461Y212394D01*
X138616Y211219D01*
X139069Y210124D01*
X139791Y209184D01*
X140731Y208463D01*
X141825Y208010D01*
X143000Y207855D01*
X144175Y208010D01*
X145269Y208463D01*
X146209Y209184D01*
X146931Y210124D01*
X147384Y211219D01*
X147539Y212394D01*
X147384Y213568D01*
X146931Y214663D01*
X146209Y215603D01*
X145269Y216324D01*
X144175Y216778D01*
X143000Y216933D01*
D02*
G37*
G36*
X153000D02*
X151825Y216778D01*
X150731Y216324D01*
X149791Y215603D01*
X149069Y214663D01*
X148616Y213568D01*
X148461Y212394D01*
X148616Y211219D01*
X149069Y210124D01*
X149791Y209184D01*
X150731Y208463D01*
X151825Y208010D01*
X153000Y207855D01*
X154175Y208010D01*
X155269Y208463D01*
X156209Y209184D01*
X156931Y210124D01*
X157384Y211219D01*
X157539Y212394D01*
X157384Y213568D01*
X156931Y214663D01*
X156209Y215603D01*
X155269Y216324D01*
X154175Y216778D01*
X153000Y216933D01*
D02*
G37*
G36*
X113000D02*
X111825Y216778D01*
X110731Y216324D01*
X109791Y215603D01*
X109069Y214663D01*
X108616Y213568D01*
X108461Y212394D01*
X108616Y211219D01*
X109069Y210124D01*
X109791Y209184D01*
X110731Y208463D01*
X111825Y208010D01*
X113000Y207855D01*
X114175Y208010D01*
X115269Y208463D01*
X116209Y209184D01*
X116931Y210124D01*
X117384Y211219D01*
X117539Y212394D01*
X117384Y213568D01*
X116931Y214663D01*
X116209Y215603D01*
X115269Y216324D01*
X114175Y216778D01*
X113000Y216933D01*
D02*
G37*
G36*
X242126Y214025D02*
X240772Y213892D01*
X239471Y213497D01*
X238271Y212856D01*
X237219Y211993D01*
X236356Y210942D01*
X235715Y209742D01*
X235320Y208440D01*
X235187Y207087D01*
X235320Y205733D01*
X235715Y204431D01*
X236356Y203232D01*
X237219Y202180D01*
X238271Y201317D01*
X239471Y200676D01*
X240772Y200281D01*
X242126Y200148D01*
X243480Y200281D01*
X244781Y200676D01*
X245981Y201317D01*
X247032Y202180D01*
X247896Y203232D01*
X248537Y204431D01*
X248932Y205733D01*
X249065Y207087D01*
X248932Y208440D01*
X248537Y209742D01*
X247896Y210942D01*
X247032Y211993D01*
X245981Y212856D01*
X244781Y213497D01*
X243480Y213892D01*
X242126Y214025D01*
D02*
G37*
G36*
X83000Y216933D02*
X81825Y216778D01*
X80731Y216324D01*
X79791Y215603D01*
X79069Y214663D01*
X78616Y213568D01*
X78461Y212394D01*
X78616Y211219D01*
X79069Y210124D01*
X79791Y209184D01*
X80731Y208463D01*
X81825Y208010D01*
X83000Y207855D01*
X84175Y208010D01*
X85269Y208463D01*
X86209Y209184D01*
X86931Y210124D01*
X87384Y211219D01*
X87539Y212394D01*
X87384Y213568D01*
X86931Y214663D01*
X86209Y215603D01*
X85269Y216324D01*
X84175Y216778D01*
X83000Y216933D01*
D02*
G37*
G36*
X103000D02*
X101825Y216778D01*
X100731Y216324D01*
X99791Y215603D01*
X99069Y214663D01*
X98616Y213568D01*
X98461Y212394D01*
X98616Y211219D01*
X99069Y210124D01*
X99791Y209184D01*
X100731Y208463D01*
X101825Y208010D01*
X103000Y207855D01*
X104175Y208010D01*
X105269Y208463D01*
X106209Y209184D01*
X106931Y210124D01*
X107384Y211219D01*
X107539Y212394D01*
X107384Y213568D01*
X106931Y214663D01*
X106209Y215603D01*
X105269Y216324D01*
X104175Y216778D01*
X103000Y216933D01*
D02*
G37*
G36*
X163000D02*
X161825Y216778D01*
X160731Y216324D01*
X159791Y215603D01*
X159069Y214663D01*
X158616Y213568D01*
X158461Y212394D01*
X158616Y211219D01*
X159069Y210124D01*
X159791Y209184D01*
X160731Y208463D01*
X161825Y208010D01*
X163000Y207855D01*
X164175Y208010D01*
X165269Y208463D01*
X166209Y209184D01*
X166931Y210124D01*
X167384Y211219D01*
X167539Y212394D01*
X167384Y213568D01*
X166931Y214663D01*
X166209Y215603D01*
X165269Y216324D01*
X164175Y216778D01*
X163000Y216933D01*
D02*
G37*
G36*
X177500Y216894D02*
X168500D01*
Y207894D01*
X177500D01*
Y216894D01*
D02*
G37*
G36*
X242126Y261073D02*
X241094Y260938D01*
X240132Y260539D01*
X239307Y259906D01*
X238673Y259080D01*
X238275Y258119D01*
X238139Y257087D01*
X238275Y256055D01*
X238673Y255093D01*
X239307Y254268D01*
X240132Y253634D01*
X241094Y253236D01*
X242126Y253100D01*
X243158Y253236D01*
X244119Y253634D01*
X244945Y254268D01*
X245579Y255093D01*
X245977Y256055D01*
X246113Y257087D01*
X245977Y258119D01*
X245579Y259080D01*
X244945Y259906D01*
X244119Y260539D01*
X243158Y260938D01*
X242126Y261073D01*
D02*
G37*
G36*
X236079Y261039D02*
X228173D01*
Y253134D01*
X236079D01*
Y261039D01*
D02*
G37*
G36*
X127500Y216894D02*
X118500D01*
Y207894D01*
X127500D01*
Y216894D01*
D02*
G37*
G36*
X223000Y216933D02*
X221825Y216778D01*
X220731Y216324D01*
X219791Y215603D01*
X219069Y214663D01*
X218616Y213568D01*
X218461Y212394D01*
X218616Y211219D01*
X219069Y210124D01*
X219791Y209184D01*
X220731Y208463D01*
X221825Y208010D01*
X223000Y207855D01*
X224175Y208010D01*
X225269Y208463D01*
X226209Y209184D01*
X226931Y210124D01*
X227384Y211219D01*
X227539Y212394D01*
X227384Y213568D01*
X226931Y214663D01*
X226209Y215603D01*
X225269Y216324D01*
X224175Y216778D01*
X223000Y216933D01*
D02*
G37*
G36*
X57500Y216894D02*
X48500D01*
Y207894D01*
X57500D01*
Y216894D01*
D02*
G37*
G36*
X97500D02*
X88500D01*
Y207894D01*
X97500D01*
Y216894D01*
D02*
G37*
G36*
X25000Y168987D02*
X23968Y168851D01*
X23007Y168453D01*
X22181Y167819D01*
X21547Y166993D01*
X21149Y166032D01*
X21013Y165000D01*
X21149Y163968D01*
X21547Y163007D01*
X22181Y162181D01*
X23007Y161547D01*
X23968Y161149D01*
X25000Y161013D01*
X26032Y161149D01*
X26993Y161547D01*
X27819Y162181D01*
X28453Y163007D01*
X28851Y163968D01*
X28987Y165000D01*
X28851Y166032D01*
X28453Y166993D01*
X27819Y167819D01*
X26993Y168453D01*
X26032Y168851D01*
X25000Y168987D01*
D02*
G37*
G36*
X225000Y174539D02*
X223825Y174384D01*
X222731Y173931D01*
X221791Y173209D01*
X221069Y172269D01*
X220616Y171175D01*
X220461Y170000D01*
X220616Y168825D01*
X221069Y167731D01*
X221791Y166791D01*
X222731Y166069D01*
X223825Y165616D01*
X225000Y165461D01*
X226175Y165616D01*
X227269Y166069D01*
X228209Y166791D01*
X228931Y167731D01*
X229384Y168825D01*
X229539Y170000D01*
X229384Y171175D01*
X228931Y172269D01*
X228209Y173209D01*
X227269Y173931D01*
X226175Y174384D01*
X225000Y174539D01*
D02*
G37*
G36*
X31000Y160549D02*
X30024Y160355D01*
X29198Y159802D01*
X29015Y159529D01*
X13000D01*
X12415Y159413D01*
X11919Y159081D01*
X7955Y155118D01*
X2142D01*
Y148787D01*
Y142882D01*
X7955D01*
X18919Y131919D01*
X19415Y131587D01*
X20000Y131471D01*
X21015D01*
X21198Y131198D01*
X22025Y130645D01*
X23000Y130451D01*
X23976Y130645D01*
X24802Y131198D01*
X25355Y132025D01*
X25549Y133000D01*
X25355Y133976D01*
X24802Y134802D01*
X23976Y135355D01*
X23000Y135549D01*
X22025Y135355D01*
X21198Y134802D01*
X21088Y134639D01*
X20559Y134604D01*
X10047Y145116D01*
Y148787D01*
Y152884D01*
X13634Y156471D01*
X29015D01*
X29198Y156198D01*
X30024Y155645D01*
X31000Y155451D01*
X31975Y155645D01*
X32802Y156198D01*
X33355Y157025D01*
X33549Y158000D01*
X33355Y158976D01*
X32802Y159802D01*
X31975Y160355D01*
X31000Y160549D01*
D02*
G37*
G36*
X65000Y132549D02*
X64025Y132355D01*
X63198Y131802D01*
X63015Y131529D01*
X50000D01*
X49415Y131413D01*
X48919Y131081D01*
X40322Y122485D01*
X40000Y122549D01*
X39024Y122355D01*
X38198Y121802D01*
X37645Y120975D01*
X37451Y120000D01*
X37645Y119025D01*
X38198Y118198D01*
X39024Y117645D01*
X40000Y117451D01*
X40975Y117645D01*
X41802Y118198D01*
X42355Y119025D01*
X42549Y120000D01*
X42485Y120322D01*
X50634Y128471D01*
X63015D01*
X63198Y128198D01*
X64025Y127645D01*
X65000Y127451D01*
X65975Y127645D01*
X66802Y128198D01*
X67355Y129025D01*
X67549Y130000D01*
X67355Y130975D01*
X66802Y131802D01*
X65975Y132355D01*
X65000Y132549D01*
D02*
G37*
G36*
X42000Y134296D02*
X41276Y134200D01*
X40602Y133921D01*
X40023Y133477D01*
X39579Y132898D01*
X39300Y132224D01*
X39204Y131500D01*
X39300Y130776D01*
X39579Y130102D01*
X40023Y129523D01*
X40602Y129079D01*
X41276Y128800D01*
X42000Y128704D01*
X42724Y128800D01*
X43398Y129079D01*
X43977Y129523D01*
X44421Y130102D01*
X44700Y130776D01*
X44796Y131500D01*
X44700Y132224D01*
X44421Y132898D01*
X43977Y133477D01*
X43398Y133921D01*
X42724Y134200D01*
X42000Y134296D01*
D02*
G37*
G36*
X21858Y155118D02*
X13953D01*
Y148787D01*
Y142882D01*
X21858D01*
Y144518D01*
X28984D01*
X29198Y144198D01*
X30024Y143645D01*
X31000Y143451D01*
X31975Y143645D01*
X32802Y144198D01*
X33355Y145025D01*
X33549Y146000D01*
X33355Y146976D01*
X32802Y147802D01*
X31975Y148355D01*
X31000Y148549D01*
X30024Y148355D01*
X29198Y147802D01*
X29047Y147577D01*
X21858D01*
Y150423D01*
X29047D01*
X29198Y150198D01*
X30024Y149645D01*
X31000Y149451D01*
X31975Y149645D01*
X32802Y150198D01*
X33355Y151024D01*
X33549Y152000D01*
X33355Y152975D01*
X32802Y153802D01*
X31975Y154355D01*
X31000Y154549D01*
X30024Y154355D01*
X29198Y153802D01*
X28984Y153482D01*
X21858D01*
Y155118D01*
D02*
G37*
G36*
X28953Y178953D02*
X21047D01*
Y171047D01*
X28953D01*
Y178953D01*
D02*
G37*
G36*
X173000Y206932D02*
X171825Y206778D01*
X170731Y206324D01*
X169791Y205603D01*
X169069Y204663D01*
X168616Y203568D01*
X168461Y202394D01*
X168616Y201219D01*
X169069Y200124D01*
X169791Y199184D01*
X170731Y198463D01*
X171825Y198010D01*
X173000Y197855D01*
X174175Y198010D01*
X175269Y198463D01*
X176209Y199184D01*
X176931Y200124D01*
X177384Y201219D01*
X177539Y202394D01*
X177384Y203568D01*
X176931Y204663D01*
X176209Y205603D01*
X175269Y206324D01*
X174175Y206778D01*
X173000Y206932D01*
D02*
G37*
G36*
X157500Y206894D02*
X148500D01*
Y197894D01*
X157500D01*
Y206894D01*
D02*
G37*
G36*
X227500D02*
X218500D01*
Y197894D01*
X227500D01*
Y206894D01*
D02*
G37*
G36*
X163000Y206932D02*
X161825Y206778D01*
X160731Y206324D01*
X159791Y205603D01*
X159069Y204663D01*
X158616Y203568D01*
X158461Y202394D01*
X158616Y201219D01*
X159069Y200124D01*
X159791Y199184D01*
X160731Y198463D01*
X161825Y198010D01*
X163000Y197855D01*
X164175Y198010D01*
X165269Y198463D01*
X166209Y199184D01*
X166931Y200124D01*
X167384Y201219D01*
X167539Y202394D01*
X167384Y203568D01*
X166931Y204663D01*
X166209Y205603D01*
X165269Y206324D01*
X164175Y206778D01*
X163000Y206932D01*
D02*
G37*
G36*
X93000D02*
X91825Y206778D01*
X90731Y206324D01*
X89791Y205603D01*
X89069Y204663D01*
X88616Y203568D01*
X88461Y202394D01*
X88616Y201219D01*
X89069Y200124D01*
X89791Y199184D01*
X90731Y198463D01*
X91825Y198010D01*
X93000Y197855D01*
X94175Y198010D01*
X95269Y198463D01*
X96209Y199184D01*
X96931Y200124D01*
X97384Y201219D01*
X97539Y202394D01*
X97384Y203568D01*
X96931Y204663D01*
X96209Y205603D01*
X95269Y206324D01*
X94175Y206778D01*
X93000Y206932D01*
D02*
G37*
G36*
X103000D02*
X101825Y206778D01*
X100731Y206324D01*
X99791Y205603D01*
X99069Y204663D01*
X98616Y203568D01*
X98461Y202394D01*
X98616Y201219D01*
X99069Y200124D01*
X99791Y199184D01*
X100731Y198463D01*
X101825Y198010D01*
X103000Y197855D01*
X104175Y198010D01*
X105269Y198463D01*
X106209Y199184D01*
X106931Y200124D01*
X107384Y201219D01*
X107539Y202394D01*
X107384Y203568D01*
X106931Y204663D01*
X106209Y205603D01*
X105269Y206324D01*
X104175Y206778D01*
X103000Y206932D01*
D02*
G37*
G36*
X113000D02*
X111825Y206778D01*
X110731Y206324D01*
X109791Y205603D01*
X109069Y204663D01*
X108616Y203568D01*
X108461Y202394D01*
X108616Y201219D01*
X109069Y200124D01*
X109791Y199184D01*
X110731Y198463D01*
X111825Y198010D01*
X113000Y197855D01*
X114175Y198010D01*
X115269Y198463D01*
X116209Y199184D01*
X116931Y200124D01*
X117384Y201219D01*
X117539Y202394D01*
X117384Y203568D01*
X116931Y204663D01*
X116209Y205603D01*
X115269Y206324D01*
X114175Y206778D01*
X113000Y206932D01*
D02*
G37*
%LPD*%
D10*
X79071Y159304D02*
D03*
X85196Y165429D02*
D03*
X83804Y154571D02*
D03*
X89929Y160696D02*
D03*
D11*
X215197Y116039D02*
D03*
X240000D02*
D03*
X215197Y131000D02*
D03*
X240000D02*
D03*
X239803Y155961D02*
D03*
X215000D02*
D03*
X239803Y141000D02*
D03*
X215000D02*
D03*
D12*
X216445Y29000D02*
D03*
X209555D02*
D03*
D13*
X17906Y151953D02*
D03*
Y146047D02*
D03*
X6095D02*
D03*
Y151953D02*
D03*
D14*
X70000Y59591D02*
D03*
Y78409D02*
D03*
D15*
X83275Y125546D02*
D03*
X85502Y123319D02*
D03*
X87729Y121092D02*
D03*
X89956Y118865D02*
D03*
X92183Y116637D02*
D03*
X94410Y114410D02*
D03*
X96637Y112183D02*
D03*
X98865Y109956D02*
D03*
X101092Y107729D02*
D03*
X103319Y105502D02*
D03*
X105546Y103275D02*
D03*
X136725Y134454D02*
D03*
X134498Y136681D02*
D03*
X132271Y138908D02*
D03*
X130044Y141136D02*
D03*
X127817Y143363D02*
D03*
X125590Y145590D02*
D03*
X123363Y147817D02*
D03*
X121135Y150044D02*
D03*
X118908Y152271D02*
D03*
X116681Y154498D02*
D03*
X114454Y156725D02*
D03*
D16*
Y103275D02*
D03*
X116681Y105502D02*
D03*
X118908Y107729D02*
D03*
X121135Y109956D02*
D03*
X123363Y112183D02*
D03*
X125590Y114410D02*
D03*
X127817Y116637D02*
D03*
X130044Y118865D02*
D03*
X132271Y121092D02*
D03*
X134498Y123319D02*
D03*
X136725Y125546D02*
D03*
X105546Y156725D02*
D03*
X103319Y154498D02*
D03*
X101092Y152271D02*
D03*
X98864Y150044D02*
D03*
X96637Y147817D02*
D03*
X94410Y145590D02*
D03*
X92183Y143363D02*
D03*
X89956Y141136D02*
D03*
X87729Y138908D02*
D03*
X85502Y136681D02*
D03*
X83275Y134454D02*
D03*
D17*
X101546Y142908D02*
X114000D01*
X215087Y247087D02*
X232126D01*
X208000Y183000D02*
Y217500D01*
X218000Y227500D01*
X242500D01*
X248000Y233000D01*
Y241213D01*
X242126Y247087D02*
X248000Y241213D01*
X198000Y223000D02*
X212087Y237087D01*
X232126D01*
X188000Y220000D02*
X210000Y242000D01*
X237213D01*
X242126Y237087D01*
X131000Y175000D02*
X156000Y150000D01*
X77601Y175000D02*
X131000D01*
X61394Y184000D02*
X131743D01*
X149000Y166743D01*
Y166000D02*
Y166743D01*
X76772Y177000D02*
X134500D01*
X130000Y173000D02*
X158000Y145000D01*
X78429Y173000D02*
X130000D01*
X158000Y145000D02*
X175000D01*
X156000Y150000D02*
X180000D01*
X160000Y140000D02*
X180000D01*
X129000Y171000D02*
X160000Y140000D01*
X79257Y171000D02*
X129000D01*
X162000Y135000D02*
X175000D01*
X132000Y165000D02*
X162000Y135000D01*
X113757Y165000D02*
X132000D01*
X77500Y181000D02*
X127500D01*
X64000Y167500D02*
X77500Y181000D01*
X43000Y202394D02*
X61394Y184000D01*
X68394Y187000D02*
X113500D01*
X53000Y202394D02*
X68394Y187000D01*
X73500Y189500D02*
X106500D01*
X68000Y195000D02*
X73500Y189500D01*
X106500D02*
X107000Y190000D01*
X80500Y192500D02*
X101500D01*
X78000Y195000D02*
X80500Y192500D01*
X64000Y144820D02*
Y167500D01*
X68000Y165400D02*
X77601Y175000D01*
X68000Y154985D02*
Y165400D01*
Y154985D02*
X85502Y137483D01*
X70000Y164571D02*
X78429Y173000D01*
X70000Y156637D02*
Y164571D01*
Y156637D02*
X87729Y138908D01*
X72000Y163743D02*
X79257Y171000D01*
X72000Y159092D02*
Y163743D01*
Y159092D02*
X89956Y141136D01*
X66000Y166228D02*
X76772Y177000D01*
X64000Y144820D02*
X83275Y125546D01*
X66000Y152531D02*
Y166228D01*
Y152531D02*
X83275Y135256D01*
Y134454D02*
Y135256D01*
X85502Y136681D02*
Y137483D01*
X75000Y162500D02*
X78196Y159304D01*
X92183Y143363D02*
X96366Y139180D01*
X78196Y159304D02*
X79071D01*
X85196Y165815D02*
X92185D01*
X89233Y160000D02*
X89929Y160696D01*
X79767Y160000D02*
X89233D01*
X79071Y159304D02*
X79767Y160000D01*
X84429Y154571D02*
X89000Y150000D01*
X83804Y154571D02*
X84429D01*
X96000Y157000D02*
Y162000D01*
X92185Y165815D02*
X96000Y162000D01*
X85196Y165429D02*
Y165815D01*
X89000Y150000D02*
X92000Y153000D01*
X96000Y157000D02*
X96363D01*
X101092Y152271D01*
X215000Y155961D02*
X239803D01*
X215000Y141000D02*
X239803D01*
X215197Y131000D02*
X240000D01*
X215197Y116039D02*
X240000D01*
X215197Y124197D02*
Y131000D01*
X215000Y124000D02*
X215197Y124197D01*
X215000Y149158D02*
Y155961D01*
X209555Y29000D02*
Y39791D01*
X210000Y40236D01*
X214000Y141000D02*
X215000D01*
X209000Y136000D02*
X214000Y141000D01*
X209000Y121000D02*
Y136000D01*
X213961Y116039D02*
X215197D01*
X209000Y121000D02*
X213961Y116039D01*
X185000Y31299D02*
Y80000D01*
Y31299D02*
X232126Y-15827D01*
X188000Y38299D02*
Y81000D01*
Y38299D02*
X242126Y-15827D01*
X191000Y69236D02*
X210000Y50236D01*
X191000Y69236D02*
Y82000D01*
X194000Y76236D02*
X210000Y60236D01*
X194000Y76236D02*
Y84000D01*
X197000Y83236D02*
X210000Y70236D01*
X197000Y83236D02*
Y86000D01*
X240000Y100236D02*
Y116039D01*
X175000Y165000D02*
X180000Y170000D01*
X205000D01*
X185000Y165000D02*
X190000Y160000D01*
X185000Y155000D02*
X206000D01*
X190000Y160000D02*
X207000D01*
X210000Y175000D02*
X215000Y180000D01*
X210000Y163000D02*
Y175000D01*
X207000Y160000D02*
X210000Y163000D01*
X215000Y164000D02*
Y170000D01*
X206000Y155000D02*
X215000Y164000D01*
X225000Y180000D02*
X232000D01*
X246000Y166000D01*
X239803Y141000D02*
X241000D01*
X246000Y146000D01*
Y166000D01*
X194236Y96000D02*
X210000Y80236D01*
X189000Y94000D02*
X197000Y86000D01*
X166000Y92000D02*
X186000D01*
X194000Y84000D01*
X183000Y90000D02*
X191000Y82000D01*
X181000Y88000D02*
X188000Y81000D01*
X179000Y86000D02*
X185000Y80000D01*
X188000Y197000D02*
Y220000D01*
X176000Y185000D02*
X188000Y197000D01*
X198000D02*
Y223000D01*
X183000Y182000D02*
X198000Y197000D01*
X205000Y180000D02*
X208000Y183000D01*
X231953Y-26000D02*
X232126Y-25827D01*
X116681Y105502D02*
X136183Y86000D01*
X179000D01*
X118908Y107729D02*
X138637Y88000D01*
X181000D01*
X134498Y136681D02*
X137817Y140000D01*
X145000D01*
X132271Y138908D02*
X135363Y142000D01*
X146000D01*
X172000Y96000D02*
X194236D01*
X163363Y90000D02*
X183000D01*
X170000Y94000D02*
X189000D01*
X130044Y141136D02*
X132908Y144000D01*
X147000D01*
X166000Y125000D01*
X175000D01*
X127817Y143363D02*
X130454Y146000D01*
X148000D01*
X164000Y130000D01*
X180000D01*
X185000Y125000D01*
X168000Y100000D02*
X172000Y96000D01*
X168000Y100000D02*
Y120000D01*
X146000Y142000D02*
X168000Y120000D01*
X165000Y111000D02*
Y120000D01*
X145000Y140000D02*
X165000Y120000D01*
X158000Y100000D02*
X166000Y92000D01*
X132271Y121092D02*
X163363Y90000D01*
X134498Y123319D02*
X152817Y105000D01*
X159000D01*
X170000Y94000D01*
X136725Y125546D02*
X147271Y115000D01*
X160000D01*
X151180Y120000D02*
X160000D01*
X136725Y134454D02*
X151180Y120000D01*
X121135Y109622D02*
Y109956D01*
X125590Y114410D02*
X125832D01*
X94410Y145590D02*
X101000Y139000D01*
X125861Y123048D02*
X130044Y118865D01*
X101092Y107729D02*
X116410Y123048D01*
X125861D01*
X87729Y138908D02*
Y139710D01*
X123363Y147817D02*
X127546Y152000D01*
X125590Y145590D02*
X133183Y153183D01*
X133183D01*
X180000Y140000D02*
X185000Y135000D01*
X180000Y150000D02*
X185000Y145000D01*
X133000Y193000D02*
Y202394D01*
Y193000D02*
X161000Y165000D01*
X175000D01*
X180000Y160000D02*
X185000Y165000D01*
X123000Y198000D02*
X161000Y160000D01*
X123000Y198000D02*
Y202394D01*
X161000Y160000D02*
X165000D01*
X180000D01*
X143000Y187000D02*
Y202394D01*
Y187000D02*
X160183Y169817D01*
X165183D01*
X150000Y185000D02*
X176000D01*
X153000Y182000D02*
X183000D01*
X84000Y117363D02*
X87729Y121092D01*
X84000Y114000D02*
Y117363D01*
X63000Y212394D02*
X68000Y207394D01*
X73000Y212394D02*
X78000Y207394D01*
Y195000D02*
Y207394D01*
X116681Y154498D02*
X119000Y156817D01*
Y162000D01*
X113000Y158179D02*
X114454Y156725D01*
X105546D02*
Y156788D01*
X113757Y165000D01*
X113000Y160000D02*
X115000Y162000D01*
X113000Y158179D02*
Y160000D01*
X68000Y195000D02*
Y207394D01*
X100000Y157817D02*
X103319Y154498D01*
X100000Y157817D02*
Y161000D01*
X103000Y164000D01*
X95908Y153000D02*
X98864Y150044D01*
X92000Y153000D02*
X95908D01*
X130044Y118865D02*
X144000Y104908D01*
Y95000D02*
Y104908D01*
X38000Y190000D02*
Y212394D01*
X80000Y112000D02*
X88000Y104000D01*
X77000D02*
Y114817D01*
X85502Y123319D01*
X98865Y109956D02*
X114000Y125092D01*
X114725Y148088D02*
X118908Y152271D01*
X114000Y125092D02*
Y142908D01*
X121135Y150044D01*
X96637Y147817D02*
X101546Y142908D01*
X137000Y103000D02*
X140000D01*
X125590Y114410D02*
X137000Y103000D01*
X123363Y112183D02*
X132000Y103546D01*
Y103000D02*
Y103546D01*
X131757Y99000D02*
X136000D01*
X121135Y109622D02*
X131757Y99000D01*
X127817Y116637D02*
X132454Y112000D01*
X77000Y104000D02*
X87000Y94000D01*
X102000Y99729D02*
X105546Y103275D01*
X102000Y91172D02*
Y99729D01*
X87000Y94000D02*
X96716D01*
X100000Y102183D02*
X103319Y105502D01*
X88000Y104000D02*
X97363D01*
X101092Y107729D01*
X104000Y92821D02*
X114454Y103275D01*
X104000Y90343D02*
Y92821D01*
X98657Y85000D02*
X104000Y90343D01*
X81000Y87000D02*
X97828D01*
X82000Y89000D02*
X97000D01*
X100000Y92000D01*
Y102183D01*
X97828Y87000D02*
X102000Y91172D01*
X80000Y85000D02*
X98657D01*
X17906Y146047D02*
X30953D01*
X17906Y151953D02*
X30953D01*
X31000Y152000D01*
X6095Y151953D02*
X7142Y153000D01*
X8000D01*
X13000Y158000D01*
X31000D01*
X50000Y115000D02*
X80000Y85000D01*
X53000Y115000D02*
Y120000D01*
Y115000D02*
X81000Y87000D01*
X56000Y115000D02*
Y125000D01*
Y115000D02*
X82000Y89000D01*
X50000Y130000D02*
X65000D01*
X40000Y120000D02*
X50000Y130000D01*
X6095Y146047D02*
X6142Y146000D01*
X7000D01*
X20000Y133000D01*
X23000D01*
X197000Y180000D02*
X205000D01*
X192000Y175000D02*
X197000Y180000D01*
D18*
X216445Y29000D02*
Y83791D01*
X210000Y90236D02*
X216445Y83791D01*
X242126Y-25827D02*
X248000Y-19953D01*
Y-13000D01*
X216445Y18555D02*
Y29000D01*
Y18555D02*
X248000Y-13000D01*
X201236Y99000D02*
X210000Y90236D01*
X181000Y99000D02*
X201236D01*
X175000Y105000D02*
X181000Y99000D01*
D19*
X210000Y100236D02*
X240000D01*
X205236Y105000D02*
X210000Y100236D01*
X185000Y105000D02*
X205236D01*
X35000Y59000D02*
X48000Y46000D01*
X54590Y78409D02*
X70000D01*
Y47661D02*
Y59591D01*
X79300Y21000D02*
Y26700D01*
X73000Y33000D02*
X79300Y26700D01*
X25000Y45000D02*
X37000Y33000D01*
X59000D01*
X73000D01*
X79300Y26700D02*
X94600Y42000D01*
X155000D01*
X42000Y91000D02*
X54590Y78409D01*
X42000Y91000D02*
Y94500D01*
X35000Y59000D02*
Y106000D01*
X42000Y113000D01*
X25000Y45000D02*
Y127000D01*
X38000Y140000D01*
Y190000D01*
X215000Y-26000D02*
X231953D01*
X33000Y212394D02*
X38000D01*
X43000D01*
D20*
X13780Y14173D02*
D03*
X242126D02*
D03*
Y207087D02*
D03*
X13780D02*
D03*
D21*
X8630Y77496D02*
D03*
Y34189D02*
D03*
D22*
X48000Y65685D02*
D03*
Y46000D02*
D03*
D23*
X25000Y165000D02*
D03*
X175000Y175000D02*
D03*
X185000D02*
D03*
X175000Y165000D02*
D03*
X185000D02*
D03*
X175000Y155000D02*
D03*
X185000D02*
D03*
X175000Y145000D02*
D03*
X185000D02*
D03*
X175000Y135000D02*
D03*
X185000D02*
D03*
X175000Y125000D02*
D03*
X185000D02*
D03*
X175000Y115000D02*
D03*
X185000D02*
D03*
X175000Y105000D02*
D03*
X242126Y237087D02*
D03*
X232126D02*
D03*
X242126Y247087D02*
D03*
X232126D02*
D03*
X242126Y257087D02*
D03*
X232126Y-15827D02*
D03*
X242126D02*
D03*
X232126Y-25827D02*
D03*
X242126D02*
D03*
X232126Y-35827D02*
D03*
D24*
X25000Y175000D02*
D03*
X185000Y105000D02*
D03*
X232126Y257087D02*
D03*
X242126Y-35827D02*
D03*
D25*
X240000Y100236D02*
D03*
X210000D02*
D03*
D26*
X240000Y90236D02*
D03*
Y80236D02*
D03*
Y70236D02*
D03*
Y60236D02*
D03*
Y50236D02*
D03*
Y40236D02*
D03*
X210000Y90236D02*
D03*
Y80236D02*
D03*
Y70236D02*
D03*
Y60236D02*
D03*
Y50236D02*
D03*
Y40236D02*
D03*
X225000Y180000D02*
D03*
Y170000D02*
D03*
X215000Y180000D02*
D03*
Y170000D02*
D03*
X205000Y180000D02*
D03*
X33000Y202394D02*
D03*
Y212394D02*
D03*
X43000Y202394D02*
D03*
Y212394D02*
D03*
X53000Y202394D02*
D03*
X63000D02*
D03*
Y212394D02*
D03*
X73000D02*
D03*
X83000Y202394D02*
D03*
Y212394D02*
D03*
X93000Y202394D02*
D03*
X103000D02*
D03*
Y212394D02*
D03*
X113000Y202394D02*
D03*
Y212394D02*
D03*
X123000Y202394D02*
D03*
X133000D02*
D03*
Y212394D02*
D03*
X143000Y202394D02*
D03*
Y212394D02*
D03*
X153000D02*
D03*
X163000Y202394D02*
D03*
Y212394D02*
D03*
X173000Y202394D02*
D03*
X183000D02*
D03*
Y212394D02*
D03*
X193000Y202394D02*
D03*
X203000D02*
D03*
Y212394D02*
D03*
X213000Y202394D02*
D03*
Y212394D02*
D03*
X223000D02*
D03*
D27*
X205000Y170000D02*
D03*
X53000Y212394D02*
D03*
X73000Y202394D02*
D03*
X93000Y212394D02*
D03*
X123000D02*
D03*
X153000Y202394D02*
D03*
X173000Y212394D02*
D03*
X193000D02*
D03*
X223000Y202394D02*
D03*
D28*
X99400Y21000D02*
D03*
X92700D02*
D03*
X86000D02*
D03*
X79300D02*
D03*
X72600D02*
D03*
D29*
X42000Y113000D02*
D03*
Y131500D02*
D03*
Y94500D02*
D03*
X4500Y139000D02*
D03*
Y87000D02*
D03*
D30*
X215087Y247087D02*
D03*
X134500Y177000D02*
D03*
X127500Y181000D02*
D03*
X113500Y187000D02*
D03*
X107000Y190000D02*
D03*
X101500Y192500D02*
D03*
X75000Y162500D02*
D03*
X96366Y139180D02*
D03*
X89000Y150000D02*
D03*
X96000Y157000D02*
D03*
X215000Y124000D02*
D03*
X214803Y148961D02*
D03*
X165000Y111000D02*
D03*
X158000Y100000D02*
D03*
X160000Y115000D02*
D03*
Y120000D02*
D03*
X101000Y139000D02*
D03*
X125861Y123048D02*
D03*
X127546Y152000D02*
D03*
X133183Y153183D02*
D03*
X165183Y169817D02*
D03*
X161000Y165000D02*
D03*
X165000Y160000D02*
D03*
X150000Y185000D02*
D03*
X153000Y182000D02*
D03*
X84000Y114000D02*
D03*
X119000Y162000D02*
D03*
X115000D02*
D03*
X149000Y166000D02*
D03*
X103000Y164000D02*
D03*
X144000Y95000D02*
D03*
X59000Y33000D02*
D03*
X155000Y42000D02*
D03*
X80000Y112000D02*
D03*
X114725Y148088D02*
D03*
X140000Y103000D02*
D03*
X132000D02*
D03*
X136000Y99000D02*
D03*
X132454Y112000D02*
D03*
X96716Y94000D02*
D03*
X31000Y146000D02*
D03*
Y152000D02*
D03*
Y158000D02*
D03*
X50000Y115000D02*
D03*
X53000Y120000D02*
D03*
X56000Y125000D02*
D03*
X65000Y130000D02*
D03*
X40000Y120000D02*
D03*
X23000Y133000D02*
D03*
X192000Y175000D02*
D03*
X103000Y143000D02*
D03*
D31*
X70000Y47661D02*
D03*
X215000Y-26000D02*
D03*
X38000Y190000D02*
D03*
M02*
