G04 Layer_Color=32896*
%FSLAX25Y25*%
%MOIN*%
G70*
G01*
G75*
%ADD17C,0.01000*%
%ADD45C,0.00787*%
%ADD46C,0.00984*%
%ADD49C,0.00394*%
D17*
X73100Y64700D02*
X88800D01*
X73200Y75300D02*
X88900D01*
X107568Y159059D02*
X108401Y159892D01*
X110067D01*
X110900Y159059D01*
Y155727D01*
X110067Y154894D01*
X108401D01*
X107568Y155727D01*
X102569Y159892D02*
X105902D01*
Y157393D01*
X104235Y158226D01*
X103402D01*
X102569Y157393D01*
Y155727D01*
X103402Y154894D01*
X105069D01*
X105902Y155727D01*
X92668Y194165D02*
X93501Y194998D01*
X95167D01*
X96000Y194165D01*
Y190833D01*
X95167Y190000D01*
X93501D01*
X92668Y190833D01*
X91002Y194165D02*
X90169Y194998D01*
X88502D01*
X87669Y194165D01*
Y193332D01*
X88502Y192499D01*
X87669Y191666D01*
Y190833D01*
X88502Y190000D01*
X90169D01*
X91002Y190833D01*
Y191666D01*
X90169Y192499D01*
X91002Y193332D01*
Y194165D01*
X90169Y192499D02*
X88502D01*
X73168Y138165D02*
X74001Y138998D01*
X75667D01*
X76500Y138165D01*
Y134833D01*
X75667Y134000D01*
X74001D01*
X73168Y134833D01*
X71502D02*
X70669Y134000D01*
X69002D01*
X68169Y134833D01*
Y138165D01*
X69002Y138998D01*
X70669D01*
X71502Y138165D01*
Y137332D01*
X70669Y136499D01*
X68169D01*
X83668Y178165D02*
X84501Y178998D01*
X86167D01*
X87000Y178165D01*
Y174833D01*
X86167Y174000D01*
X84501D01*
X83668Y174833D01*
X82002Y174000D02*
X80335D01*
X81169D01*
Y178998D01*
X82002Y178165D01*
X77836D02*
X77003Y178998D01*
X75337D01*
X74504Y178165D01*
Y174833D01*
X75337Y174000D01*
X77003D01*
X77836Y174833D01*
Y178165D01*
X232900Y155894D02*
Y160892D01*
X230401D01*
X229568Y160059D01*
Y158393D01*
X230401Y157560D01*
X232900D01*
X231234D02*
X229568Y155894D01*
X225402D02*
Y160892D01*
X227902Y158393D01*
X224569D01*
X117000Y73555D02*
Y78553D01*
X114501D01*
X113668Y77720D01*
Y76054D01*
X114501Y75221D01*
X117000D01*
X115334D02*
X113668Y73555D01*
X108669Y78553D02*
X112002D01*
Y76054D01*
X110336Y76887D01*
X109502D01*
X108669Y76054D01*
Y74388D01*
X109502Y73555D01*
X111169D01*
X112002Y74388D01*
X117000Y91000D02*
Y95998D01*
X114501D01*
X113668Y95165D01*
Y93499D01*
X114501Y92666D01*
X117000D01*
X115334D02*
X113668Y91000D01*
X112002Y95998D02*
X108669D01*
Y95165D01*
X112002Y91833D01*
Y91000D01*
X149000Y153000D02*
Y157998D01*
X146501D01*
X145668Y157165D01*
Y155499D01*
X146501Y154666D01*
X149000D01*
X147334D02*
X145668Y153000D01*
X144002Y157165D02*
X143169Y157998D01*
X141502D01*
X140669Y157165D01*
Y156332D01*
X141502Y155499D01*
X140669Y154666D01*
Y153833D01*
X141502Y153000D01*
X143169D01*
X144002Y153833D01*
Y154666D01*
X143169Y155499D01*
X144002Y156332D01*
Y157165D01*
X143169Y155499D02*
X141502D01*
X130600Y167594D02*
Y172592D01*
X128101D01*
X127268Y171759D01*
Y170093D01*
X128101Y169260D01*
X130600D01*
X128934D02*
X127268Y167594D01*
X125602Y168427D02*
X124769Y167594D01*
X123102D01*
X122269Y168427D01*
Y171759D01*
X123102Y172592D01*
X124769D01*
X125602Y171759D01*
Y170926D01*
X124769Y170093D01*
X122269D01*
X232900Y130894D02*
Y135892D01*
X230401D01*
X229568Y135059D01*
Y133393D01*
X230401Y132560D01*
X232900D01*
X231234D02*
X229568Y130894D01*
X227902D02*
X226236D01*
X227069D01*
Y135892D01*
X227902Y135059D01*
X223736D02*
X222903Y135892D01*
X221237D01*
X220404Y135059D01*
Y131727D01*
X221237Y130894D01*
X222903D01*
X223736Y131727D01*
Y135059D01*
X110900Y182894D02*
Y187892D01*
X108401D01*
X107568Y187059D01*
Y185393D01*
X108401Y184560D01*
X110900D01*
X109234D02*
X107568Y182894D01*
X105902D02*
X104235D01*
X105069D01*
Y187892D01*
X105902Y187059D01*
X101736Y182894D02*
X100070D01*
X100903D01*
Y187892D01*
X101736Y187059D01*
X63400Y157494D02*
Y162492D01*
X60901D01*
X60068Y161659D01*
Y159993D01*
X60901Y159160D01*
X63400D01*
X61734D02*
X60068Y157494D01*
X58402D02*
X56735D01*
X57569D01*
Y162492D01*
X58402Y161659D01*
X50904Y157494D02*
X54236D01*
X50904Y160826D01*
Y161659D01*
X51737Y162492D01*
X53403D01*
X54236Y161659D01*
X63400Y149494D02*
Y154492D01*
X60901D01*
X60068Y153659D01*
Y151993D01*
X60901Y151160D01*
X63400D01*
X61734D02*
X60068Y149494D01*
X58402D02*
X56735D01*
X57569D01*
Y154492D01*
X58402Y153659D01*
X54236D02*
X53403Y154492D01*
X51737D01*
X50904Y153659D01*
Y152826D01*
X51737Y151993D01*
X52570D01*
X51737D01*
X50904Y151160D01*
Y150327D01*
X51737Y149494D01*
X53403D01*
X54236Y150327D01*
X63400Y141494D02*
Y146492D01*
X60901D01*
X60068Y145659D01*
Y143993D01*
X60901Y143160D01*
X63400D01*
X61734D02*
X60068Y141494D01*
X58402D02*
X56735D01*
X57569D01*
Y146492D01*
X58402Y145659D01*
X51737Y141494D02*
Y146492D01*
X54236Y143993D01*
X50904D01*
X73600Y105992D02*
Y101827D01*
X72767Y100994D01*
X71101D01*
X70268Y101827D01*
Y105992D01*
X65269Y100994D02*
X68602D01*
X65269Y104326D01*
Y105159D01*
X66102Y105992D01*
X67769D01*
X68602Y105159D01*
X49668Y21165D02*
X50501Y21998D01*
X52167D01*
X53000Y21165D01*
Y17833D01*
X52167Y17000D01*
X50501D01*
X49668Y17833D01*
X48002Y17000D02*
X46336D01*
X47169D01*
Y21998D01*
X48002Y21165D01*
X60668Y10165D02*
X61501Y10998D01*
X63167D01*
X64000Y10165D01*
Y6833D01*
X63167Y6000D01*
X61501D01*
X60668Y6833D01*
X55669Y6000D02*
X59002D01*
X55669Y9332D01*
Y10165D01*
X56502Y10998D01*
X58169D01*
X59002Y10165D01*
X165668Y61165D02*
X166501Y61998D01*
X168167D01*
X169000Y61165D01*
Y57833D01*
X168167Y57000D01*
X166501D01*
X165668Y57833D01*
X164002Y61165D02*
X163169Y61998D01*
X161502D01*
X160669Y61165D01*
Y60332D01*
X161502Y59499D01*
X162336D01*
X161502D01*
X160669Y58666D01*
Y57833D01*
X161502Y57000D01*
X163169D01*
X164002Y57833D01*
X133568Y72053D02*
X134401Y72886D01*
X136067D01*
X136900Y72053D01*
Y68721D01*
X136067Y67887D01*
X134401D01*
X133568Y68721D01*
X129402Y67887D02*
Y72886D01*
X131902Y70387D01*
X128569D01*
X118668Y121165D02*
X119501Y121998D01*
X121167D01*
X122000Y121165D01*
Y117833D01*
X121167Y117000D01*
X119501D01*
X118668Y117833D01*
X113669Y121998D02*
X115336Y121165D01*
X117002Y119499D01*
Y117833D01*
X116169Y117000D01*
X114502D01*
X113669Y117833D01*
Y118666D01*
X114502Y119499D01*
X117002D01*
X98868Y126059D02*
X99701Y126892D01*
X101367D01*
X102200Y126059D01*
Y122727D01*
X101367Y121894D01*
X99701D01*
X98868Y122727D01*
X97202Y126892D02*
X93869D01*
Y126059D01*
X97202Y122727D01*
Y121894D01*
X66200Y72492D02*
Y67494D01*
X63701D01*
X62868Y68327D01*
Y71659D01*
X63701Y72492D01*
X66200D01*
X61202Y67494D02*
X59535D01*
X60369D01*
Y72492D01*
X61202Y71659D01*
X126000Y129998D02*
Y125000D01*
X122668D01*
X121002D02*
X119335D01*
X120169D01*
Y129998D01*
X121002Y129165D01*
X72000Y85000D02*
Y89998D01*
X69501D01*
X68668Y89165D01*
Y87499D01*
X69501Y86666D01*
X72000D01*
X70334D02*
X68668Y85000D01*
X67002D02*
X65336D01*
X66169D01*
Y89998D01*
X67002Y89165D01*
X122000Y7000D02*
Y11998D01*
X119501D01*
X118668Y11165D01*
Y9499D01*
X119501Y8666D01*
X122000D01*
X120334D02*
X118668Y7000D01*
X113669D02*
X117002D01*
X113669Y10332D01*
Y11165D01*
X114502Y11998D01*
X116169D01*
X117002Y11165D01*
X53000Y6000D02*
Y10998D01*
X50501D01*
X49668Y10165D01*
Y8499D01*
X50501Y7666D01*
X53000D01*
X51334D02*
X49668Y6000D01*
X48002Y10165D02*
X47169Y10998D01*
X45502D01*
X44669Y10165D01*
Y9332D01*
X45502Y8499D01*
X46336D01*
X45502D01*
X44669Y7666D01*
Y6833D01*
X45502Y6000D01*
X47169D01*
X48002Y6833D01*
X166000Y30998D02*
Y27666D01*
X164334Y26000D01*
X162668Y27666D01*
Y30998D01*
X161002Y26000D02*
Y30998D01*
X158502D01*
X157669Y30165D01*
Y28499D01*
X158502Y27666D01*
X161002D01*
X159335D02*
X157669Y26000D01*
X152671D02*
X156003D01*
X152671Y29332D01*
Y30165D01*
X153504Y30998D01*
X155170D01*
X156003Y30165D01*
D45*
X83031Y108905D02*
X86968D01*
X83031Y97095D02*
X86968D01*
Y108905D01*
X83031Y97095D02*
Y108905D01*
X82441Y89051D02*
X87559D01*
X82441Y82949D02*
X87559D01*
X149189Y32898D02*
Y45102D01*
X122811Y32898D02*
Y45102D01*
Y32898D02*
X149189D01*
X122811Y45102D02*
X149189D01*
D46*
X90905Y110087D02*
G03*
X90905Y110087I-492J0D01*
G01*
X123500Y50516D02*
G03*
X123500Y50516I-492J0D01*
G01*
D49*
X70173Y64685D02*
G03*
X70173Y64685I-197J0D01*
G01*
X220307Y145260D02*
X233693D01*
Y152740D01*
X220307D02*
X233693D01*
X220307Y145260D02*
Y152740D01*
Y120260D02*
X233693D01*
Y127740D01*
X220307D02*
X233693D01*
X220307Y120260D02*
Y127740D01*
X66307Y12740D02*
X79693D01*
X66307Y5260D02*
Y12740D01*
Y5260D02*
X79693D01*
Y12740D01*
X98307D02*
X111693D01*
X98307Y5260D02*
Y12740D01*
Y5260D02*
X111693D01*
Y12740D01*
X82307Y5260D02*
X95693D01*
Y12740D01*
X82307D02*
X95693D01*
X82307Y5260D02*
Y12740D01*
X101740Y105307D02*
Y118693D01*
X94260D02*
X101740D01*
X94260Y105307D02*
Y118693D01*
Y105307D02*
X101740D01*
X106488Y123358D02*
Y142847D01*
Y123358D02*
X117512D01*
Y142847D01*
X106488D02*
X117512D01*
X111740Y105307D02*
Y118693D01*
X104260D02*
X111740D01*
X104260Y105307D02*
Y118693D01*
Y105307D02*
X111740D01*
X98307Y144260D02*
X111693D01*
Y151740D01*
X98307D02*
X111693D01*
X98307Y144260D02*
Y151740D01*
X99260Y87307D02*
Y100693D01*
Y87307D02*
X106740D01*
Y100693D01*
X99260D02*
X106740D01*
X99260Y68862D02*
Y82248D01*
Y68862D02*
X106740D01*
Y82248D01*
X99260D02*
X106740D01*
X124307Y57260D02*
X137693D01*
Y64740D01*
X124307D02*
X137693D01*
X124307Y57260D02*
Y64740D01*
X104260Y166307D02*
Y179693D01*
Y166307D02*
X111740D01*
Y179693D01*
X104260D02*
X111740D01*
X116623Y154912D02*
X126088Y164377D01*
X116623Y154912D02*
X121912Y149623D01*
X131377Y159088D01*
X126088Y164377D02*
X131377Y159088D01*
X127623Y143912D02*
X137088Y153377D01*
X127623Y143912D02*
X132912Y138623D01*
X142377Y148088D01*
X137088Y153377D02*
X142377Y148088D01*
X71912Y140623D02*
X81377Y150088D01*
X76088Y155377D02*
X81377Y150088D01*
X66623Y145912D02*
X76088Y155377D01*
X66623Y145912D02*
X71912Y140623D01*
X87623Y172088D02*
X97088Y162623D01*
X102377Y167912D01*
X92912Y177377D02*
X102377Y167912D01*
X87623Y172088D02*
X92912Y177377D01*
X62740Y16307D02*
Y29693D01*
X55260D02*
X62740D01*
X55260Y16307D02*
Y29693D01*
Y16307D02*
X62740D01*
X151307Y54740D02*
X164693D01*
X151307Y47260D02*
Y54740D01*
Y47260D02*
X164693D01*
Y54740D01*
X34307Y148260D02*
X47693D01*
Y155740D01*
X34307D02*
X47693D01*
X34307Y148260D02*
Y155740D01*
Y156260D02*
X47693D01*
Y163740D01*
X34307D02*
X47693D01*
X34307Y156260D02*
Y163740D01*
Y140260D02*
X47693D01*
Y147740D01*
X34307D02*
X47693D01*
X34307Y140260D02*
Y147740D01*
X85307Y180260D02*
X98693D01*
Y187740D01*
X85307D02*
X98693D01*
X85307Y180260D02*
Y187740D01*
M02*
