G04 Layer_Color=8388736*
%FSLAX25Y25*%
%MOIN*%
G70*
G01*
G75*
G04:AMPARAMS|DCode=50|XSize=63.12mil|YSize=55.24mil|CornerRadius=0mil|HoleSize=0mil|Usage=FLASHONLY|Rotation=225.000|XOffset=0mil|YOffset=0mil|HoleType=Round|Shape=Rectangle|*
%AMROTATEDRECTD50*
4,1,4,0.00278,0.04185,0.04185,0.00278,-0.00278,-0.04185,-0.04185,-0.00278,0.00278,0.04185,0.0*
%
%ADD50ROTATEDRECTD50*%

%ADD51R,0.07493X0.04737*%
%ADD52R,0.05328X0.06115*%
%ADD53R,0.06706X0.05131*%
%ADD54R,0.12414X0.07414*%
G04:AMPARAMS|DCode=55|XSize=29.65mil|YSize=65.09mil|CornerRadius=0mil|HoleSize=0mil|Usage=FLASHONLY|Rotation=135.000|XOffset=0mil|YOffset=0mil|HoleType=Round|Shape=Round|*
%AMOVALD55*
21,1,0.03543,0.02965,0.00000,0.00000,225.0*
1,1,0.02965,0.01253,0.01253*
1,1,0.02965,-0.01253,-0.01253*
%
%ADD55OVALD55*%

G04:AMPARAMS|DCode=56|XSize=29.65mil|YSize=65.09mil|CornerRadius=0mil|HoleSize=0mil|Usage=FLASHONLY|Rotation=45.000|XOffset=0mil|YOffset=0mil|HoleType=Round|Shape=Round|*
%AMOVALD56*
21,1,0.03543,0.02965,0.00000,0.00000,135.0*
1,1,0.02965,0.01253,-0.01253*
1,1,0.02965,-0.01253,0.01253*
%
%ADD56OVALD56*%

%ADD57C,0.24409*%
%ADD58C,0.05524*%
%ADD59C,0.09855*%
%ADD60C,0.06706*%
%ADD61R,0.06706X0.06706*%
%ADD62R,0.07800X0.07800*%
%ADD63C,0.07800*%
%ADD64R,0.07800X0.07800*%
%ADD65C,0.06400*%
%ADD66C,0.04343*%
%ADD67C,0.03800*%
%ADD68C,0.05800*%
D50*
X79071Y159304D02*
D03*
X85196Y165429D02*
D03*
X83804Y154571D02*
D03*
X89929Y160696D02*
D03*
D51*
X215197Y116039D02*
D03*
X240000D02*
D03*
X215197Y131000D02*
D03*
X240000D02*
D03*
X239803Y155961D02*
D03*
X215000D02*
D03*
X239803Y141000D02*
D03*
X215000D02*
D03*
D52*
X216445Y29000D02*
D03*
X209555D02*
D03*
D53*
X17906Y151953D02*
D03*
Y146047D02*
D03*
X6095D02*
D03*
Y151953D02*
D03*
D54*
X70000Y59591D02*
D03*
Y78409D02*
D03*
D55*
X83275Y125546D02*
D03*
X85502Y123319D02*
D03*
X87729Y121092D02*
D03*
X89956Y118865D02*
D03*
X92183Y116637D02*
D03*
X94410Y114410D02*
D03*
X96637Y112183D02*
D03*
X98865Y109956D02*
D03*
X101092Y107729D02*
D03*
X103319Y105502D02*
D03*
X105546Y103275D02*
D03*
X136725Y134454D02*
D03*
X134498Y136681D02*
D03*
X132271Y138908D02*
D03*
X130044Y141136D02*
D03*
X127817Y143363D02*
D03*
X125590Y145590D02*
D03*
X123363Y147817D02*
D03*
X121135Y150044D02*
D03*
X118908Y152271D02*
D03*
X116681Y154498D02*
D03*
X114454Y156725D02*
D03*
D56*
Y103275D02*
D03*
X116681Y105502D02*
D03*
X118908Y107729D02*
D03*
X121135Y109956D02*
D03*
X123363Y112183D02*
D03*
X125590Y114410D02*
D03*
X127817Y116637D02*
D03*
X130044Y118865D02*
D03*
X132271Y121092D02*
D03*
X134498Y123319D02*
D03*
X136725Y125546D02*
D03*
X105546Y156725D02*
D03*
X103319Y154498D02*
D03*
X101092Y152271D02*
D03*
X98864Y150044D02*
D03*
X96637Y147817D02*
D03*
X94410Y145590D02*
D03*
X92183Y143363D02*
D03*
X89956Y141136D02*
D03*
X87729Y138908D02*
D03*
X85502Y136681D02*
D03*
X83275Y134454D02*
D03*
D57*
X13780Y14173D02*
D03*
X242126D02*
D03*
Y207087D02*
D03*
X13780D02*
D03*
D58*
X8630Y77496D02*
D03*
Y34189D02*
D03*
D59*
X48000Y65685D02*
D03*
Y46000D02*
D03*
D60*
X25000Y165000D02*
D03*
X175000Y175000D02*
D03*
X185000D02*
D03*
X175000Y165000D02*
D03*
X185000D02*
D03*
X175000Y155000D02*
D03*
X185000D02*
D03*
X175000Y145000D02*
D03*
X185000D02*
D03*
X175000Y135000D02*
D03*
X185000D02*
D03*
X175000Y125000D02*
D03*
X185000D02*
D03*
X175000Y115000D02*
D03*
X185000D02*
D03*
X175000Y105000D02*
D03*
X242126Y237087D02*
D03*
X232126D02*
D03*
X242126Y247087D02*
D03*
X232126D02*
D03*
X242126Y257087D02*
D03*
X232126Y-15827D02*
D03*
X242126D02*
D03*
X232126Y-25827D02*
D03*
X242126D02*
D03*
X232126Y-35827D02*
D03*
D61*
X25000Y175000D02*
D03*
X185000Y105000D02*
D03*
X232126Y257087D02*
D03*
X242126Y-35827D02*
D03*
D62*
X240000Y100236D02*
D03*
X210000D02*
D03*
D63*
X240000Y90236D02*
D03*
Y80236D02*
D03*
Y70236D02*
D03*
Y60236D02*
D03*
Y50236D02*
D03*
Y40236D02*
D03*
X210000Y90236D02*
D03*
Y80236D02*
D03*
Y70236D02*
D03*
Y60236D02*
D03*
Y50236D02*
D03*
Y40236D02*
D03*
X225000Y180000D02*
D03*
Y170000D02*
D03*
X215000Y180000D02*
D03*
Y170000D02*
D03*
X205000Y180000D02*
D03*
X33000Y202394D02*
D03*
Y212394D02*
D03*
X43000Y202394D02*
D03*
Y212394D02*
D03*
X53000Y202394D02*
D03*
X63000D02*
D03*
Y212394D02*
D03*
X73000D02*
D03*
X83000Y202394D02*
D03*
Y212394D02*
D03*
X93000Y202394D02*
D03*
X103000D02*
D03*
Y212394D02*
D03*
X113000Y202394D02*
D03*
Y212394D02*
D03*
X123000Y202394D02*
D03*
X133000D02*
D03*
Y212394D02*
D03*
X143000Y202394D02*
D03*
Y212394D02*
D03*
X153000D02*
D03*
X163000Y202394D02*
D03*
Y212394D02*
D03*
X173000Y202394D02*
D03*
X183000D02*
D03*
Y212394D02*
D03*
X193000Y202394D02*
D03*
X203000D02*
D03*
Y212394D02*
D03*
X213000Y202394D02*
D03*
Y212394D02*
D03*
X223000D02*
D03*
D64*
X205000Y170000D02*
D03*
X53000Y212394D02*
D03*
X73000Y202394D02*
D03*
X93000Y212394D02*
D03*
X123000D02*
D03*
X153000Y202394D02*
D03*
X173000Y212394D02*
D03*
X193000D02*
D03*
X223000Y202394D02*
D03*
D65*
X99400Y21000D02*
D03*
X92700D02*
D03*
X86000D02*
D03*
X79300D02*
D03*
X72600D02*
D03*
D66*
X42000Y113000D02*
D03*
Y131500D02*
D03*
Y94500D02*
D03*
X4500Y139000D02*
D03*
Y87000D02*
D03*
D67*
X215087Y247087D02*
D03*
X134500Y177000D02*
D03*
X127500Y181000D02*
D03*
X113500Y187000D02*
D03*
X107000Y190000D02*
D03*
X101500Y192500D02*
D03*
X75000Y162500D02*
D03*
X96366Y139180D02*
D03*
X89000Y150000D02*
D03*
X96000Y157000D02*
D03*
X215000Y124000D02*
D03*
X214803Y148961D02*
D03*
X165000Y111000D02*
D03*
X158000Y100000D02*
D03*
X160000Y115000D02*
D03*
Y120000D02*
D03*
X101000Y139000D02*
D03*
X125861Y123048D02*
D03*
X127546Y152000D02*
D03*
X133183Y153183D02*
D03*
X165183Y169817D02*
D03*
X161000Y165000D02*
D03*
X165000Y160000D02*
D03*
X150000Y185000D02*
D03*
X153000Y182000D02*
D03*
X84000Y114000D02*
D03*
X119000Y162000D02*
D03*
X115000D02*
D03*
X149000Y166000D02*
D03*
X103000Y164000D02*
D03*
X144000Y95000D02*
D03*
X59000Y33000D02*
D03*
X155000Y42000D02*
D03*
X80000Y112000D02*
D03*
X114725Y148088D02*
D03*
X140000Y103000D02*
D03*
X132000D02*
D03*
X136000Y99000D02*
D03*
X132454Y112000D02*
D03*
X96716Y94000D02*
D03*
X31000Y146000D02*
D03*
Y152000D02*
D03*
Y158000D02*
D03*
X50000Y115000D02*
D03*
X53000Y120000D02*
D03*
X56000Y125000D02*
D03*
X65000Y130000D02*
D03*
X40000Y120000D02*
D03*
X23000Y133000D02*
D03*
X192000Y175000D02*
D03*
X103000Y143000D02*
D03*
D68*
X70000Y47661D02*
D03*
X215000Y-26000D02*
D03*
X38000Y190000D02*
D03*
M02*
