M48
;Layer_Color=9474304
;FILE_FORMAT=2:5
INCH,LZ
;TYPE=PLATED
T1F00S00C0.01500
T2F00S00C0.02362
T3F00S00C0.02800
T4F00S00C0.03543
T5F00S00C0.03700
T6F00S00C0.04000
T7F00S00C0.04724
T8F00S00C0.07480
;TYPE=NON_PLATED
T9F00S00C0.11811
%
T01
X0155Y0042
X0158Y01
X016Y0115
Y012
X0165Y0111
X0215Y0124
X0125861Y0123048
X0132454Y0112
X0132Y0103
X014
X0136Y0099
X0144Y0095
X0096716Y0094
X0084Y0114
X008Y0112
X005Y0115
X0053Y012
X0056Y0125
X0065Y013
X004Y012
X0023Y0133
X0031Y0146
X0096366Y013918
X0101Y0139
X0103Y0143
X0059Y0033
X0075Y01625
X0089Y015
X0096Y0157
X0103Y0164
X0115Y0162
X0119
X0114725Y0148088
X0127546Y0152
X0133183Y0153183
X01345Y0177
X01275Y0181
X01135Y0187
X0107Y019
X01015Y01925
X015Y0185
X0153Y0182
X0149Y0166
X0031Y0158
Y0152
X0165Y016
X0161Y0165
X0165183Y0169817
X0192Y0175
X0214803Y0148961
X0215087Y0247087
T02
X00045Y0087
X0042Y00945
Y0113
Y01315
X00045Y0139
T03
X0215Y-0026
X007Y0047661
X0038Y019
T04
X0232126Y-0035827
Y-0025827
Y-0015827
X0242126
Y-0025827
Y-0035827
X0185Y0105
Y0115
Y0125
Y0135
Y0145
X0175
Y0135
Y0125
Y0115
Y0105
X0025Y0165
Y0175
X0175
X0185
Y0165
X0175
Y0155
X0185
X0232126Y0237087
X0242126
Y0247087
X0232126
Y0257087
X0242126
T05
X00726Y0021
X00793
X0086
X00927
X00994
T06
X021Y0040236
Y0050236
Y0060236
Y0070236
Y0080236
Y0090236
Y0100236
X024
Y0090236
Y0080236
Y0070236
Y0060236
Y0050236
Y0040236
X0153Y0202394
X0143
X0133
X0123
X0113
X0103
X0093
X0083
X0073
X0063
X0053
X0043
X0033
Y0212394
X0043
X0053
X0063
X0073
X0083
X0093
X0103
X0113
X0123
X0133
X0143
X0153
X0163
Y0202394
X0173
Y0212394
X0183
Y0202394
X0193
Y0212394
X0203
Y0202394
X0213
Y0212394
X0223
Y0202394
X0225Y018
Y017
X0215
Y018
X0205
Y017
T07
X000863Y0034189
Y0077496
T08
X0048Y0046
Y0065685
T09
X0242126Y0014173
X001378
Y0207087
X0242126
M30
