G04 Layer_Color=32768*
%FSLAX25Y25*%
%MOIN*%
G70*
G01*
G75*
%ADD35C,0.00394*%
%ADD36C,0.00197*%
D35*
X-1969Y27559D02*
X1969D01*
X0Y25591D02*
Y29528D01*
X-20879Y-18095D02*
X-18095Y-20879D01*
X-20879D02*
X-18095Y-18095D01*
X-1969Y27559D02*
X1969D01*
X0Y25591D02*
Y29528D01*
X64161Y166579D02*
Y176421D01*
X46839Y166579D02*
Y176421D01*
X64161D01*
X46839Y166579D02*
X64161D01*
X53531Y171500D02*
X57468D01*
X55500Y169532D02*
Y173468D01*
X64161Y166579D02*
Y176421D01*
X46839Y166579D02*
Y176421D01*
Y166579D02*
X64161D01*
X46839Y176421D02*
X64161D01*
X53531Y171500D02*
X57468D01*
X55500Y169532D02*
Y173468D01*
X-20879Y-18095D02*
X-18095Y-20879D01*
X-20879Y-20879D02*
X-18095Y-18095D01*
D36*
X6890Y20079D02*
Y35039D01*
X-6890Y20079D02*
Y35039D01*
Y20079D02*
X6890D01*
X-6890Y35039D02*
X6890D01*
X-19905Y-29648D02*
X-9326Y-19069D01*
X-29648Y-19905D02*
X-19069Y-9326D01*
X-9326Y-19069D01*
X-29648Y-19905D02*
X-19905Y-29648D01*
X-6890Y20079D02*
Y35039D01*
X6890Y20079D02*
Y35039D01*
X-6890Y20079D02*
X6890D01*
X-6890Y35039D02*
X6890D01*
X-29648Y-19905D02*
X-19069Y-9326D01*
X-19905Y-29648D02*
X-9326Y-19069D01*
X-19069Y-9326D02*
X-9326Y-19069D01*
X-29648Y-19905D02*
X-19905Y-29648D01*
M02*
