G04 Layer_Physical_Order=2*
G04 Layer_Color=16711680*
%FSLAX25Y25*%
%MOIN*%
G70*
G01*
G75*
G04:AMPARAMS|DCode=10|XSize=23.62mil|YSize=37.4mil|CornerRadius=0mil|HoleSize=0mil|Usage=FLASHONLY|Rotation=135.000|XOffset=0mil|YOffset=0mil|HoleType=Round|Shape=Rectangle|*
%AMROTATEDRECTD10*
4,1,4,0.02158,0.00487,-0.00487,-0.02158,-0.02158,-0.00487,0.00487,0.02158,0.02158,0.00487,0.0*
%
%ADD10ROTATEDRECTD10*%

%ADD11R,0.02362X0.03740*%
%ADD12R,0.05512X0.05906*%
%ADD13R,0.11811X0.11811*%
%ADD14C,0.01000*%
%ADD15C,0.03000*%
%ADD16C,0.19685*%
%ADD17R,0.05906X0.05906*%
%ADD18C,0.05906*%
%ADD19C,0.07874*%
%ADD20C,0.07874*%
%ADD21C,0.04000*%
D10*
X-16216Y-16216D02*
D03*
X-25403Y-20113D02*
D03*
X-20113Y-25403D02*
D03*
D11*
X0Y22933D02*
D03*
X3740Y32185D02*
D03*
X-3740D02*
D03*
D12*
X59437Y171500D02*
D03*
X51563D02*
D03*
D13*
X-41500Y31000D02*
D03*
Y-33000D02*
D03*
D14*
X-20000Y-5000D02*
Y21000D01*
Y-7500D02*
Y-5000D01*
X-20113Y-7613D02*
X-20000Y-7500D01*
Y21000D02*
X-8815Y32185D01*
X-20113Y-25403D02*
Y-7613D01*
X-15500Y-10000D02*
Y13500D01*
Y-15500D02*
Y-10000D01*
X10000Y27000D02*
Y30500D01*
X8315Y32185D02*
X10000Y30500D01*
X3740Y32185D02*
X8315D01*
X-8815D02*
X-3740D01*
X-6067Y22933D02*
X0D01*
X-15500Y13500D02*
X-6067Y22933D01*
X-16216Y-16216D02*
X-15500Y-15500D01*
X59437Y171500D02*
X64000D01*
X67500Y175000D01*
X60709Y192087D02*
X67500Y185295D01*
Y175000D02*
Y185295D01*
X50709Y172354D02*
X51563Y171500D01*
X50709Y172354D02*
Y182087D01*
X-27500Y-22211D02*
X-25403Y-20113D01*
X-27500Y-27500D02*
Y-22211D01*
X-2500Y37500D02*
X0D01*
X-3740Y36260D02*
X-2500Y37500D01*
X-3740Y32185D02*
Y36260D01*
X46122Y187500D02*
X50709Y192087D01*
X37500Y187500D02*
X46122D01*
X27500Y177500D02*
X37500Y187500D01*
X27500Y35500D02*
Y177500D01*
X15000Y23000D02*
X27500Y35500D01*
X0Y22933D02*
X15433D01*
D15*
X37087Y192087D02*
X40709D01*
X32500Y-10000D02*
Y173878D01*
X40709Y182087D01*
X9500Y-33000D02*
X32500Y-10000D01*
X-41500Y-33000D02*
X-31500D01*
X9500D01*
X22500Y177500D02*
X37087Y192087D01*
X-41500Y31000D02*
X-30000Y42500D01*
X15000D02*
X22500Y50000D01*
Y177500D01*
X-30000Y42500D02*
X-25000D01*
X15000D01*
D16*
X0Y0D02*
D03*
D17*
X40709Y182087D02*
D03*
D18*
Y192087D02*
D03*
X50709Y182087D02*
D03*
Y192087D02*
D03*
X60709Y182087D02*
D03*
Y192087D02*
D03*
D19*
X23622Y-31496D02*
D03*
D20*
X-23622Y31496D02*
D03*
D21*
X-20000Y-5000D02*
D03*
X-15500Y-10000D02*
D03*
X15000Y23000D02*
D03*
X10000Y27000D02*
D03*
X-27500Y-27500D02*
D03*
X-31500Y-33000D02*
D03*
X0Y37500D02*
D03*
X-25000Y42500D02*
D03*
M02*
