G04 Layer_Color=65535*
%FSLAX25Y25*%
%MOIN*%
G70*
G01*
G75*
%ADD14C,0.01000*%
%ADD22C,0.00984*%
%ADD23C,0.00787*%
%ADD24C,0.00020*%
D14*
X27559Y0D02*
G03*
X27559Y0I-27559J0D01*
G01*
X36940Y169526D02*
Y173525D01*
X38939D01*
X39606Y172858D01*
Y171525D01*
X38939Y170859D01*
X36940D01*
X38273D02*
X39606Y169526D01*
X43605D02*
X40939D01*
X43605Y172192D01*
Y172858D01*
X42938Y173525D01*
X41605D01*
X40939Y172858D01*
X-16334Y-31668D02*
X-17001Y-31001D01*
X-18334D01*
X-19000Y-31668D01*
Y-32334D01*
X-18334Y-33001D01*
X-17001D01*
X-16334Y-33667D01*
Y-34334D01*
X-17001Y-35000D01*
X-18334D01*
X-19000Y-34334D01*
X-15001Y-31001D02*
Y-35000D01*
X-12336D01*
X-8337D02*
X-11003D01*
X-8337Y-32334D01*
Y-31668D01*
X-9003Y-31001D01*
X-10336D01*
X-11003Y-31668D01*
X11166Y39332D02*
X10499Y39999D01*
X9166D01*
X8500Y39332D01*
Y38666D01*
X9166Y37999D01*
X10499D01*
X11166Y37333D01*
Y36666D01*
X10499Y36000D01*
X9166D01*
X8500Y36666D01*
X12499Y39999D02*
Y36000D01*
X15165D01*
X16497D02*
X17830D01*
X17164D01*
Y39999D01*
X16497Y39332D01*
X-41500Y-41001D02*
Y-45000D01*
X-39501D01*
X-38834Y-44334D01*
Y-43667D01*
X-39501Y-43001D01*
X-41500D01*
X-39501D01*
X-38834Y-42334D01*
Y-41668D01*
X-39501Y-41001D01*
X-41500D01*
X-37501D02*
Y-45000D01*
X-34835D01*
X-33503Y-41001D02*
Y-45000D01*
Y-43667D01*
X-30837Y-41001D01*
X-32836Y-43001D01*
X-30837Y-45000D01*
X-41500Y39000D02*
Y42999D01*
X-39501D01*
X-38834Y42332D01*
Y40999D01*
X-39501Y40333D01*
X-41500D01*
X-40167D02*
X-38834Y39000D01*
X-34835Y42999D02*
X-37501D01*
Y39000D01*
X-34835D01*
X-37501Y40999D02*
X-36168D01*
X-33503Y42999D02*
Y39000D01*
X-31503D01*
X-30837Y39666D01*
Y42332D01*
X-31503Y42999D01*
X-33503D01*
X-45500Y8500D02*
X-41501D01*
X-42834Y7167D01*
X-41501Y5834D01*
X-45500D01*
Y3835D02*
Y2502D01*
X-44834Y1836D01*
X-43501D01*
X-42834Y2502D01*
Y3835D01*
X-43501Y4501D01*
X-44834D01*
X-45500Y3835D01*
X-42168Y-164D02*
X-42834D01*
Y503D01*
Y-830D01*
Y-164D01*
X-44834D01*
X-45500Y-830D01*
Y-3496D02*
Y-4829D01*
X-44834Y-5495D01*
X-43501D01*
X-42834Y-4829D01*
Y-3496D01*
X-43501Y-2830D01*
X-44834D01*
X-45500Y-3496D01*
X-42834Y-6828D02*
X-45500D01*
X-44167D01*
X-43501Y-7495D01*
X-42834Y-8161D01*
Y-8828D01*
D22*
X-27277Y-17747D02*
G03*
X-27277Y-17747I-492J0D01*
G01*
X7579Y32185D02*
G03*
X7579Y32185I-492J0D01*
G01*
D23*
X-15590Y-19487D02*
X-13363Y-21714D01*
X-16146Y-24498D02*
X-13363Y-21714D01*
X-21714Y-13363D02*
X-19487Y-15589D01*
X-24498Y-16146D02*
X-21714Y-13363D01*
X-5906Y24803D02*
X-2756D01*
X-5906D02*
Y28740D01*
X2756Y24803D02*
X5906D01*
Y28740D01*
X55500Y168941D02*
Y174059D01*
X65709Y177087D02*
Y197087D01*
X35709Y177087D02*
Y197087D01*
X65709D01*
X35709Y177087D02*
X65709D01*
X46542D02*
X65709D01*
D24*
X17500Y102160D02*
X37500D01*
X17500Y102080D02*
X37500D01*
X17500Y102280D02*
X37500D01*
X17500Y102320D02*
X37500D01*
X17500Y102520D02*
X37500D01*
X17500Y102680D02*
X37500D01*
X17500Y102640D02*
X37500D01*
X17500Y102540D02*
X37500D01*
X17500Y102660D02*
X37500D01*
X17500Y102220D02*
X37500D01*
X17500Y102240D02*
X37500D01*
X17500Y102120D02*
X37500D01*
X17500Y102060D02*
X37500D01*
X17500Y102560D02*
X37500D01*
X17500Y102300D02*
X37500D01*
X17500Y102620D02*
X37500D01*
X17500Y102440D02*
X37500D01*
X17500Y102140D02*
X37500D01*
X17500Y102500D02*
X37500D01*
X17500Y102600D02*
X37500D01*
X17500Y102580D02*
X37500D01*
X17500Y102200D02*
X37500D01*
X17500Y102460D02*
X37500D01*
X17500Y102340D02*
X37500D01*
X17500Y102100D02*
X37500D01*
X17500Y102400D02*
X37500D01*
X17500Y102380D02*
X37500D01*
X17500Y102420D02*
X37500D01*
X17500Y102480D02*
X37500D01*
X17500Y102260D02*
X37500D01*
X17500Y102180D02*
X37500D01*
X17500Y102040D02*
X37500D01*
X17500Y102360D02*
X37500D01*
X23140Y113880D02*
X23820D01*
X17500D02*
X19480D01*
X35120Y113900D02*
X37500D01*
X31560D02*
X33260D01*
X35120Y113860D02*
X37500D01*
X23180Y113840D02*
X23860D01*
X17500Y113860D02*
X19520D01*
X25840D02*
X26680D01*
X17500Y113840D02*
X19540D01*
X31520Y113860D02*
X33260D01*
X31540Y113880D02*
X33260D01*
X31520Y113840D02*
X33260D01*
X35120Y113880D02*
X37500D01*
X25860Y113840D02*
X26700D01*
X23160Y113860D02*
X23840D01*
X25820Y113880D02*
X26660D01*
X35120Y113840D02*
X37500D01*
X30200Y119640D02*
X30820D01*
X17500Y119520D02*
X19980D01*
X36560Y119640D02*
X37500D01*
X24360Y119520D02*
X26300D01*
X17500Y119620D02*
X20120D01*
X28100Y119520D02*
X30080D01*
X24220Y119620D02*
X26300D01*
X28100Y119640D02*
X30080D01*
X36560Y119520D02*
X37500D01*
X24180Y119640D02*
X26300D01*
X30300Y119540D02*
X30920D01*
X28100Y119620D02*
X30080D01*
X17500Y119640D02*
X20160D01*
X36560Y119620D02*
X37500D01*
X30280Y119560D02*
X30900D01*
X36560D02*
X37500D01*
X28100Y119540D02*
X30080D01*
X28100Y119660D02*
X30080D01*
X36560D02*
X37500D01*
X24320Y119540D02*
X26300D01*
X17500D02*
X20000D01*
X30180Y119660D02*
X30800D01*
X36560Y119580D02*
X37500D01*
X30260D02*
X30880D01*
X36560Y119540D02*
X37500D01*
X24140Y119660D02*
X26300D01*
X24440Y119460D02*
X26300D01*
X24400Y119480D02*
X26300D01*
X36560D02*
X37500D01*
X17500Y119460D02*
X19900D01*
X17500Y119560D02*
X20040D01*
X17500Y119580D02*
X20060D01*
X30320Y119520D02*
X30940D01*
X17500Y119500D02*
X19960D01*
X30220Y119620D02*
X30840D01*
X28100Y119460D02*
X30080D01*
X30380D02*
X31000D01*
X28100Y119480D02*
X30080D01*
X28100Y119560D02*
X30080D01*
X28100Y119580D02*
X30080D01*
X24300Y119560D02*
X26300D01*
X30360Y119480D02*
X30980D01*
X24280Y119580D02*
X26300D01*
X17500Y119600D02*
X20100D01*
X24380Y119500D02*
X26300D01*
X30340D02*
X30960D01*
X24240Y119600D02*
X26300D01*
X28100D02*
X30080D01*
X36560Y119500D02*
X37500D01*
X28100D02*
X30080D01*
X30240Y119600D02*
X30860D01*
X17500Y119480D02*
X19920D01*
X36560Y119600D02*
X37500D01*
X17500Y114340D02*
X19120D01*
X25620Y114080D02*
X26540D01*
X22920Y114100D02*
X23600D01*
X22640Y114400D02*
X23340D01*
X35120Y114080D02*
X37500D01*
X35120Y114200D02*
X37500D01*
X17500Y113920D02*
X19440D01*
X35120Y114360D02*
X37500D01*
X29020Y114420D02*
X29200D01*
X23120Y113920D02*
X23760D01*
X35120Y114420D02*
X37500D01*
X35120Y114440D02*
X37500D01*
X23080Y113940D02*
X23740D01*
X25720Y113980D02*
X26600D01*
X35120Y113960D02*
X37500D01*
X25740D02*
X26620D01*
X25760Y113940D02*
X26620D01*
X23060Y113960D02*
X23720D01*
X17500Y113940D02*
X19420D01*
X17500Y113960D02*
X19400D01*
X35120Y113980D02*
X37500D01*
X17500Y114120D02*
X19280D01*
X31600Y113960D02*
X33260D01*
X25320Y114420D02*
X26400D01*
X22600Y114440D02*
X23300D01*
X35120Y113920D02*
X37500D01*
X17500Y114060D02*
X19320D01*
X31580Y113920D02*
X33260D01*
X17500Y113900D02*
X19460D01*
X25800D02*
X26660D01*
X17500Y114400D02*
X19080D01*
X23120Y113900D02*
X23780D01*
X28760Y114440D02*
X29440D01*
X25360Y114340D02*
X26420D01*
X31640Y114080D02*
X33260D01*
X22740Y114300D02*
X23400D01*
X17500Y114100D02*
X19280D01*
X22900Y114120D02*
X23580D01*
X17500Y114200D02*
X19220D01*
X35120Y114300D02*
X37500D01*
X31720Y114260D02*
X33260D01*
X31720Y114240D02*
X33260D01*
X31700Y114200D02*
X33260D01*
X25420Y114280D02*
X26460D01*
X31720D02*
X33260D01*
X25320Y114400D02*
X26400D01*
X25600Y114100D02*
X26540D01*
X22940Y114080D02*
X23620D01*
X31660Y114100D02*
X33260D01*
X35120D02*
X37500D01*
X22700Y114340D02*
X23360D01*
X35120Y114180D02*
X37500D01*
X25660Y114040D02*
X26560D01*
X17500D02*
X19340D01*
X35120Y114400D02*
X37500D01*
X17500Y114020D02*
X19360D01*
X31600Y114000D02*
X33260D01*
X23040Y113980D02*
X23720D01*
X25700Y114000D02*
X26600D01*
X17500Y113980D02*
X19380D01*
X35120Y114000D02*
X37500D01*
X23020D02*
X23700D01*
X22860Y114160D02*
X23540D01*
X17500Y114000D02*
X19380D01*
X31660Y114140D02*
X33260D01*
X25680Y114020D02*
X26580D01*
X23000D02*
X23680D01*
X31620D02*
X33260D01*
X35120D02*
X37500D01*
X25320Y114440D02*
X26400D01*
X31580Y113940D02*
X33260D01*
X31600Y113980D02*
X33260D01*
X17500Y114420D02*
X19060D01*
X31780Y114440D02*
X33260D01*
X35120Y113940D02*
X37500D01*
X31780Y114420D02*
X33260D01*
X25780Y113920D02*
X26640D01*
X17500Y114660D02*
X18920D01*
X28180Y114740D02*
X30000D01*
X21520Y114660D02*
X23080D01*
X21260Y114760D02*
X22980D01*
X31840Y114680D02*
X33260D01*
X28120Y114880D02*
X30060D01*
X35120D02*
X37500D01*
X35120Y114040D02*
X37500D01*
X22780Y114260D02*
X23440D01*
X17500Y114080D02*
X19300D01*
X31840Y114700D02*
X33260D01*
X25460D02*
X26320D01*
X28220D02*
X29980D01*
X31860Y114880D02*
X33260D01*
X17500Y114680D02*
X18900D01*
X35120Y114660D02*
X37500D01*
X21360Y114720D02*
X23020D01*
X35120Y114680D02*
X37500D01*
X17500Y114860D02*
X18820D01*
X31840Y114760D02*
X33260D01*
X28120Y114860D02*
X30060D01*
X28240Y114660D02*
X29940D01*
X22660Y114380D02*
X23340D01*
X31620Y114040D02*
X33260D01*
X17500Y114360D02*
X19100D01*
X17500Y114380D02*
X19080D01*
X35120Y114120D02*
X37500D01*
X31760Y114340D02*
X33260D01*
X31660Y114120D02*
X33260D01*
X17500Y114140D02*
X19260D01*
X35120Y114380D02*
X37500D01*
X35120Y114060D02*
X37500D01*
X31760Y114360D02*
X33260D01*
X22840Y114200D02*
X23500D01*
X35120Y114320D02*
X37500D01*
X17500Y114220D02*
X19200D01*
X22620Y114420D02*
X23320D01*
X17500Y114320D02*
X19120D01*
X25380D02*
X26440D01*
X31760Y114400D02*
X33260D01*
X25400Y114300D02*
X26440D01*
X17500D02*
X19140D01*
X31740D02*
X33260D01*
X21140Y114820D02*
X22940D01*
X31680Y114180D02*
X33260D01*
X31640Y114060D02*
X33260D01*
X17500Y114160D02*
X19240D01*
X25480Y114220D02*
X26480D01*
X35120Y114740D02*
X37500D01*
X17500Y114640D02*
X18920D01*
X31860Y114860D02*
X33260D01*
X28140Y114840D02*
X30060D01*
X17500Y114820D02*
X18840D01*
X28200Y114720D02*
X30000D01*
X25440Y114660D02*
X26340D01*
X35120Y114700D02*
X37500D01*
X31840Y114740D02*
X33260D01*
X25480Y114720D02*
X26320D01*
X17500D02*
X18880D01*
X31840Y114660D02*
X33260D01*
X35120Y114160D02*
X37500D01*
X17500Y114880D02*
X18800D01*
X21580Y114640D02*
X23100D01*
X31840Y114720D02*
X33260D01*
X25580Y114120D02*
X26520D01*
X31860Y114820D02*
X33260D01*
X35120Y114720D02*
X37500D01*
X28300Y114620D02*
X29900D01*
X22720Y114320D02*
X23380D01*
X31680Y114160D02*
X33260D01*
X17500Y114180D02*
X19220D01*
X22680Y114360D02*
X23360D01*
X25540Y114160D02*
X26500D01*
X22980Y114040D02*
X23660D01*
X25340Y114360D02*
X26420D01*
X22840Y114180D02*
X23520D01*
X31700Y114220D02*
X33260D01*
X25500Y114200D02*
X26480D01*
X22800Y114240D02*
X23460D01*
X25320Y114380D02*
X26420D01*
X25460Y114240D02*
X26460D01*
X35120Y114260D02*
X37500D01*
X35120Y114220D02*
X37500D01*
X17500Y114240D02*
X19180D01*
X17500Y114440D02*
X19040D01*
X22560Y114480D02*
X23260D01*
X35120Y114460D02*
X37500D01*
X28660D02*
X29560D01*
X31780D02*
X33260D01*
X25320D02*
X26380D01*
X17500D02*
X19040D01*
X22580D02*
X23280D01*
X31800Y114480D02*
X33260D01*
X35120D02*
X37500D01*
X28580D02*
X29620D01*
X28520Y114500D02*
X29680D01*
X35120D02*
X37500D01*
X25340Y114480D02*
X26380D01*
X28420Y114540D02*
X29780D01*
X17500Y114480D02*
X19020D01*
X17500Y114260D02*
X19160D01*
X31800Y114500D02*
X33260D01*
X35120Y114520D02*
X37500D01*
X22540Y114500D02*
X23240D01*
X22540Y114520D02*
X23220D01*
X28460D02*
X29740D01*
X25360D02*
X26360D01*
X31800Y114540D02*
X33260D01*
X35120D02*
X37500D01*
X25380D02*
X26360D01*
X21760Y114600D02*
X22440D01*
X22520Y114540D02*
X23200D01*
X22500Y114560D02*
X23180D01*
X35120D02*
X37500D01*
X17500Y114540D02*
X18980D01*
X31820Y114580D02*
X33260D01*
X31820Y114560D02*
X33260D01*
X28380D02*
X29820D01*
X25380D02*
X26360D01*
X31820Y114620D02*
X33260D01*
X17500Y114560D02*
X18980D01*
X35120Y114580D02*
X37500D01*
X25400D02*
X26360D01*
X28340D02*
X29840D01*
X25420Y114600D02*
X26340D01*
X21900Y114580D02*
X22340D01*
X35120Y114620D02*
X37500D01*
X22480Y114580D02*
X23160D01*
X25420Y114620D02*
X26340D01*
X25440Y114640D02*
X26340D01*
X25520Y114180D02*
X26500D01*
X17500Y114700D02*
X18900D01*
X17500Y114600D02*
X18960D01*
X35120Y114340D02*
X37500D01*
X25560Y114140D02*
X26520D01*
X22880D02*
X23560D01*
X25640Y114060D02*
X26560D01*
X22960D02*
X23640D01*
X35120Y114140D02*
X37500D01*
X17500Y114500D02*
X19020D01*
X31760Y114380D02*
X33260D01*
X35120Y114240D02*
X37500D01*
X22760Y114280D02*
X23420D01*
X25360Y114500D02*
X26380D01*
X31800Y114520D02*
X33260D01*
X17500D02*
X19000D01*
X21660Y114620D02*
X23120D01*
X17500D02*
X18940D01*
X35120Y114640D02*
X37500D01*
X35120Y114900D02*
X37500D01*
X35120Y114280D02*
X37500D01*
X31740Y114320D02*
X33260D01*
X28320Y114600D02*
X29880D01*
X35120D02*
X37500D01*
X17500Y114740D02*
X18880D01*
X17500Y114580D02*
X18960D01*
X31820Y114600D02*
X33260D01*
X17500Y114280D02*
X19160D01*
X21300Y114740D02*
X23000D01*
X22460Y114600D02*
X23140D01*
X25440Y114260D02*
X26460D01*
X28260Y114640D02*
X29920D01*
X25480Y114740D02*
X26320D01*
X22820Y114220D02*
X23480D01*
X31840Y114640D02*
X33260D01*
X25500Y114780D02*
X26320D01*
X28160D02*
X30020D01*
X21220D02*
X22980D01*
X35120Y114760D02*
X37500D01*
X25540Y114840D02*
X26300D01*
X28220Y114680D02*
X29960D01*
X35120Y114800D02*
X37500D01*
X25520Y114820D02*
X26320D01*
X25460Y114680D02*
X26320D01*
X25520Y114800D02*
X26320D01*
X35120Y114840D02*
X37500D01*
X31860D02*
X33260D01*
X17500Y114800D02*
X18840D01*
X21180D02*
X22960D01*
X25500Y114760D02*
X26320D01*
X35120Y114780D02*
X37500D01*
X31860Y114800D02*
X33260D01*
X35120Y114820D02*
X37500D01*
X28160Y114800D02*
X30040D01*
X17500Y114780D02*
X18860D01*
X35120Y114860D02*
X37500D01*
X21120Y114840D02*
X22920D01*
X17500D02*
X18820D01*
X17500Y114760D02*
X18860D01*
X31860Y114780D02*
X33260D01*
X25560Y114880D02*
X26300D01*
X28140Y114820D02*
X30040D01*
X25540Y114860D02*
X26300D01*
X21080D02*
X22900D01*
X21400Y114700D02*
X23040D01*
X21040Y114880D02*
X22880D01*
X21460Y114680D02*
X23060D01*
X28180Y114760D02*
X30020D01*
X25660Y117820D02*
X26300D01*
X31820Y117900D02*
X33260D01*
X17500Y117880D02*
X18700D01*
X31860Y117820D02*
X33260D01*
X20760Y117960D02*
X23480D01*
X35120Y117860D02*
X37500D01*
X28100Y117920D02*
X30080D01*
X35120Y117940D02*
X37500D01*
X20600Y117800D02*
X23620D01*
X25620Y117920D02*
X26300D01*
X25640Y117840D02*
X26300D01*
X20720Y117920D02*
X23520D01*
X25640Y117880D02*
X26300D01*
X31800Y117940D02*
X33260D01*
X17500Y117960D02*
X18740D01*
X20620Y117820D02*
X23600D01*
X28100Y117900D02*
X30080D01*
X28100Y117880D02*
X30080D01*
X20660Y117860D02*
X23560D01*
X28100Y117940D02*
X30080D01*
X17500Y117860D02*
X18700D01*
X17500Y117840D02*
X18700D01*
X35120D02*
X37500D01*
X25640Y117860D02*
X26300D01*
X31780Y117960D02*
X33260D01*
X35120Y117920D02*
X37500D01*
X17500Y117800D02*
X18680D01*
X28100Y117820D02*
X30080D01*
X25620Y117900D02*
X26300D01*
X28100Y117840D02*
X30080D01*
X28100Y117960D02*
X30080D01*
X25600Y117940D02*
X26300D01*
X25660Y117800D02*
X26300D01*
X20740Y117940D02*
X23500D01*
X35120Y117900D02*
X37500D01*
X17500Y117820D02*
X18680D01*
X35120Y117980D02*
X37500D01*
X17500Y117900D02*
X18720D01*
X20640Y117840D02*
X23580D01*
X35120Y117880D02*
X37500D01*
X20680D02*
X23560D01*
X28100Y117860D02*
X30080D01*
X35120Y117960D02*
X37500D01*
X17500Y117940D02*
X18740D01*
X17500Y117920D02*
X18720D01*
X25600Y117960D02*
X26300D01*
X31860Y117860D02*
X33260D01*
X31840Y117880D02*
X33260D01*
X31860Y117840D02*
X33260D01*
X35120Y117820D02*
X37500D01*
X31800Y117920D02*
X33260D01*
X20700Y117900D02*
X23540D01*
X17500Y106600D02*
X37500D01*
X17500Y106820D02*
X37500D01*
X17500Y106300D02*
X37500D01*
X17500Y106780D02*
X37500D01*
X17500Y106580D02*
X37500D01*
X17500Y106560D02*
X37500D01*
X17500Y106760D02*
X37500D01*
X17500Y106800D02*
X37500D01*
X17500Y106340D02*
X37500D01*
X17500Y106160D02*
X37500D01*
X17500Y106680D02*
X37500D01*
X17500Y106860D02*
X37500D01*
X17500Y111420D02*
X37500D01*
X17500Y106400D02*
X37500D01*
X17500Y106880D02*
X37500D01*
X17500Y106620D02*
X37500D01*
X17500Y106460D02*
X37500D01*
X17500Y106720D02*
X37500D01*
X17500Y106900D02*
X37500D01*
X17500Y106380D02*
X37500D01*
X17500Y110660D02*
X37500D01*
X17500Y106840D02*
X37500D01*
X17500Y106660D02*
X37500D01*
X17500Y106360D02*
X37500D01*
X17500Y106640D02*
X37500D01*
X17500Y106520D02*
X37500D01*
X17500Y106920D02*
X37500D01*
X17500Y110200D02*
X37500D01*
X17500Y106260D02*
X37500D01*
X17500Y106740D02*
X37500D01*
X17500Y106700D02*
X37500D01*
X17500Y106480D02*
X37500D01*
X17500Y106500D02*
X37500D01*
X17500Y106420D02*
X37500D01*
X17500Y106280D02*
X37500D01*
X17500Y106440D02*
X37500D01*
X17500Y106540D02*
X37500D01*
X17500Y106000D02*
X37500D01*
X17500Y110940D02*
X37500D01*
X17500Y111520D02*
X37500D01*
X17500Y105980D02*
X37500D01*
X17500Y107060D02*
X37500D01*
X17500Y110040D02*
X37500D01*
X17500Y110620D02*
X37500D01*
X17500Y106100D02*
X37500D01*
X17500Y111720D02*
X37500D01*
X17500Y111220D02*
X37500D01*
X17500Y111940D02*
X37500D01*
X17500Y111800D02*
X37500D01*
X17500Y111740D02*
X37500D01*
X17500Y111900D02*
X37500D01*
X17500Y111280D02*
X37500D01*
X17500Y110860D02*
X37500D01*
X17500Y111960D02*
X37500D01*
X17500Y111920D02*
X37500D01*
X17500Y110920D02*
X37500D01*
X17500Y111560D02*
X37500D01*
X17500Y110820D02*
X37500D01*
X17500Y111320D02*
X37500D01*
X17500Y111840D02*
X37500D01*
X17500Y106020D02*
X37500D01*
X17500Y106120D02*
X37500D01*
X17500Y111440D02*
X37500D01*
X17500Y111180D02*
X37500D01*
X17500Y111300D02*
X37500D01*
X17500Y111980D02*
X37500D01*
X17500Y110800D02*
X37500D01*
X17500Y111340D02*
X37500D01*
X17500Y111540D02*
X37500D01*
X17500Y110700D02*
X37500D01*
X17500Y110760D02*
X37500D01*
X17500Y106140D02*
X37500D01*
X17500Y111680D02*
X37500D01*
X17500Y111380D02*
X37500D01*
X17500Y111860D02*
X37500D01*
X17500Y110380D02*
X37500D01*
X17500Y110460D02*
X37500D01*
X17500Y110420D02*
X37500D01*
X17500Y110440D02*
X37500D01*
X17500Y110480D02*
X37500D01*
X17500Y110500D02*
X37500D01*
X17500Y110520D02*
X37500D01*
X17500Y110540D02*
X37500D01*
X17500Y110400D02*
X37500D01*
X17500Y110560D02*
X37500D01*
X17500Y110580D02*
X37500D01*
X17500Y111580D02*
X37500D01*
X17500Y110600D02*
X37500D01*
X17500Y107000D02*
X37500D01*
X17500Y107240D02*
X37500D01*
X17500Y111760D02*
X37500D01*
X17500Y111820D02*
X37500D01*
X17500Y106320D02*
X37500D01*
X17500Y111600D02*
X37500D01*
X17500Y111780D02*
X37500D01*
X17500Y111880D02*
X37500D01*
X17500Y106180D02*
X37500D01*
X17500Y110780D02*
X37500D01*
X17500Y111200D02*
X37500D01*
X17500Y106200D02*
X37500D01*
X17500Y111400D02*
X37500D01*
X17500Y107020D02*
X37500D01*
X17500Y110640D02*
X37500D01*
X17500Y107040D02*
X37500D01*
X17500Y106240D02*
X37500D01*
X17500Y106980D02*
X37500D01*
X17500Y110980D02*
X37500D01*
X17500Y111660D02*
X37500D01*
X17500Y107260D02*
X37500D01*
X17500Y111640D02*
X37500D01*
X17500Y106960D02*
X37500D01*
X17500Y107220D02*
X37500D01*
X17500Y107300D02*
X37500D01*
X17500Y106060D02*
X37500D01*
X17500Y106080D02*
X37500D01*
X17500Y107320D02*
X37500D01*
X17500Y107280D02*
X37500D01*
X17500Y107340D02*
X37500D01*
X17500Y111260D02*
X37500D01*
X17500Y110680D02*
X37500D01*
X17500Y111360D02*
X37500D01*
X17500Y111240D02*
X37500D01*
X17500Y110960D02*
X37500D01*
X17500Y110900D02*
X37500D01*
X17500Y110840D02*
X37500D01*
X17500Y111080D02*
X37500D01*
X17500Y111000D02*
X37500D01*
X17500Y111620D02*
X37500D01*
X17500Y111020D02*
X37500D01*
X17500Y111040D02*
X37500D01*
X17500Y111100D02*
X37500D01*
X17500Y111060D02*
X37500D01*
X17500Y111480D02*
X37500D01*
X17500Y111700D02*
X37500D01*
X17500Y111500D02*
X37500D01*
X17500Y111160D02*
X37500D01*
X17500Y106040D02*
X37500D01*
X17500Y111140D02*
X37500D01*
X17500Y111120D02*
X37500D01*
X17500Y110720D02*
X37500D01*
X17500Y110880D02*
X37500D01*
X17500Y111460D02*
X37500D01*
X17500Y107200D02*
X37500D01*
X17500Y106220D02*
X37500D01*
X17500Y108800D02*
X37500D01*
X17500Y107460D02*
X37500D01*
X17500Y108900D02*
X37500D01*
X17500Y108820D02*
X37500D01*
X17500Y108840D02*
X37500D01*
X17500Y108860D02*
X37500D01*
X17500Y108880D02*
X37500D01*
X17500Y108920D02*
X37500D01*
X17500Y108940D02*
X37500D01*
X17500Y108960D02*
X37500D01*
X17500Y109000D02*
X37500D01*
X17500Y108980D02*
X37500D01*
X17500Y109100D02*
X37500D01*
X17500Y109020D02*
X37500D01*
X17500Y109040D02*
X37500D01*
X17500Y107780D02*
X37500D01*
X17500Y109080D02*
X37500D01*
X17500Y109060D02*
X37500D01*
X17500Y109220D02*
X37500D01*
X17500Y109120D02*
X37500D01*
X17500Y109160D02*
X37500D01*
X17500Y109140D02*
X37500D01*
X17500Y109180D02*
X37500D01*
X17500Y109240D02*
X37500D01*
X17500Y109200D02*
X37500D01*
X17500Y107800D02*
X37500D01*
X17500Y110740D02*
X37500D01*
X17500Y107960D02*
X37500D01*
X17500Y107440D02*
X37500D01*
X17500Y107820D02*
X37500D01*
X17500Y107860D02*
X37500D01*
X17500Y107840D02*
X37500D01*
X17500Y107400D02*
X37500D01*
X17500Y107880D02*
X37500D01*
X17500Y107900D02*
X37500D01*
X17500Y108000D02*
X37500D01*
X17500Y107940D02*
X37500D01*
X17500Y107920D02*
X37500D01*
X17500Y107980D02*
X37500D01*
X17500Y108040D02*
X37500D01*
X17500Y108020D02*
X37500D01*
X17500Y108060D02*
X37500D01*
X17500Y109280D02*
X37500D01*
X17500Y108080D02*
X37500D01*
X17500Y107380D02*
X37500D01*
X17500Y107180D02*
X37500D01*
X17500Y107160D02*
X37500D01*
X17500Y107100D02*
X37500D01*
X17500Y107120D02*
X37500D01*
X17500Y107140D02*
X37500D01*
X17500Y107360D02*
X37500D01*
X17500Y108740D02*
X37500D01*
X17500Y108760D02*
X37500D01*
X17500Y108720D02*
X37500D01*
X17500Y109340D02*
X37500D01*
X17500Y107520D02*
X37500D01*
X17500Y107540D02*
X37500D01*
X17500Y109300D02*
X37500D01*
X17500Y109260D02*
X37500D01*
X17500Y108120D02*
X37500D01*
X17500Y107760D02*
X37500D01*
X17500Y108100D02*
X37500D01*
X17500Y107500D02*
X37500D01*
X17500Y110340D02*
X37500D01*
X17500Y107600D02*
X37500D01*
X17500Y107560D02*
X37500D01*
X17500Y107720D02*
X37500D01*
X17500Y107580D02*
X37500D01*
X17500Y107620D02*
X37500D01*
X17500Y107640D02*
X37500D01*
X17500Y108700D02*
X37500D01*
X17500Y107660D02*
X37500D01*
X17500Y107700D02*
X37500D01*
X17500Y107480D02*
X37500D01*
X17500Y110360D02*
X37500D01*
X17500Y109460D02*
X37500D01*
X17500Y107680D02*
X37500D01*
X17500Y107740D02*
X37500D01*
X17500Y108200D02*
X37500D01*
X17500Y108280D02*
X37500D01*
X17500Y107420D02*
X37500D01*
X17500Y108140D02*
X37500D01*
X17500Y108160D02*
X37500D01*
X17500Y108180D02*
X37500D01*
X17500Y108220D02*
X37500D01*
X17500Y108260D02*
X37500D01*
X17500Y108240D02*
X37500D01*
X17500Y108560D02*
X37500D01*
X17500Y108300D02*
X37500D01*
X17500Y108340D02*
X37500D01*
X17500Y108320D02*
X37500D01*
X17500Y108400D02*
X37500D01*
X17500Y108360D02*
X37500D01*
X17500Y108380D02*
X37500D01*
X17500Y108540D02*
X37500D01*
X17500Y108440D02*
X37500D01*
X17500Y108420D02*
X37500D01*
X17500Y108460D02*
X37500D01*
X17500Y108500D02*
X37500D01*
X17500Y108520D02*
X37500D01*
X17500Y108480D02*
X37500D01*
X17500Y108580D02*
X37500D01*
X17500Y106940D02*
X37500D01*
X17500Y108680D02*
X37500D01*
X17500Y108620D02*
X37500D01*
X17500Y108600D02*
X37500D01*
X17500Y108640D02*
X37500D01*
X17500Y108660D02*
X37500D01*
X17500Y108780D02*
X37500D01*
X17500Y109320D02*
X37500D01*
X17500Y109360D02*
X37500D01*
X17500Y107080D02*
X37500D01*
X17500Y109400D02*
X37500D01*
X17500Y109380D02*
X37500D01*
X17500Y109760D02*
X37500D01*
X17500Y110320D02*
X37500D01*
X17500Y110260D02*
X37500D01*
X17500Y110080D02*
X37500D01*
X17500Y110220D02*
X37500D01*
X17500Y110240D02*
X37500D01*
X17500Y110300D02*
X37500D01*
X17500Y110100D02*
X37500D01*
X17500Y110280D02*
X37500D01*
X17500Y110120D02*
X37500D01*
X17500Y109780D02*
X37500D01*
X17500Y110140D02*
X37500D01*
X17500Y110160D02*
X37500D01*
X17500Y110180D02*
X37500D01*
X17500Y110060D02*
X37500D01*
X17500Y109840D02*
X37500D01*
X17500Y110020D02*
X37500D01*
X17500Y110000D02*
X37500D01*
X17500Y109920D02*
X37500D01*
X17500Y109940D02*
X37500D01*
X17500Y109960D02*
X37500D01*
X17500Y109980D02*
X37500D01*
X17500Y109900D02*
X37500D01*
X17500Y109700D02*
X37500D01*
X17500Y109860D02*
X37500D01*
X17500Y109820D02*
X37500D01*
X17500Y109720D02*
X37500D01*
X17500Y109880D02*
X37500D01*
X17500Y109800D02*
X37500D01*
X17500Y109580D02*
X37500D01*
X17500Y109740D02*
X37500D01*
X17500Y109480D02*
X37500D01*
X17500Y109600D02*
X37500D01*
X17500Y109520D02*
X37500D01*
X17500Y109680D02*
X37500D01*
X17500Y109660D02*
X37500D01*
X17500Y109620D02*
X37500D01*
X17500Y109640D02*
X37500D01*
X17500Y109540D02*
X37500D01*
X17500Y109560D02*
X37500D01*
X17500Y109440D02*
X37500D01*
X17500Y109420D02*
X37500D01*
X17500Y109500D02*
X37500D01*
X26700Y112960D02*
X27840D01*
X23540D02*
X24680D01*
X26680Y113000D02*
X27740D01*
X17500Y112960D02*
X20800D01*
X35120D02*
X37500D01*
X35120Y112980D02*
X37500D01*
X30440D02*
X33260D01*
X23580D02*
X24660D01*
X30500Y113000D02*
X33260D01*
X26680Y112980D02*
X27780D01*
X17500D02*
X20760D01*
X23620Y113000D02*
X24640D01*
X26660Y113020D02*
X27680D01*
X17500Y113000D02*
X20700D01*
X35120Y113020D02*
X37500D01*
X30540D02*
X33260D01*
X35120Y113000D02*
X37500D01*
X35120Y113040D02*
X37500D01*
X23660Y113020D02*
X24620D01*
X17500D02*
X20660D01*
X17500Y112940D02*
X20840D01*
X30580Y113040D02*
X33260D01*
X26640D02*
X27640D01*
X35120Y113060D02*
X37500D01*
X35120Y113500D02*
X37500D01*
X23600Y113360D02*
X24320D01*
X26620Y113060D02*
X27600D01*
X35120Y113280D02*
X37500D01*
X31120Y113400D02*
X33260D01*
X35120Y113420D02*
X37500D01*
X26280Y113400D02*
X27080D01*
X17500D02*
X20020D01*
X23560D02*
X24280D01*
X35120D02*
X37500D01*
X17500Y113380D02*
X20040D01*
X23580D02*
X24300D01*
X31100D02*
X33260D01*
X26300D02*
X27120D01*
X17500Y113340D02*
X20100D01*
X35120Y113380D02*
X37500D01*
X35120Y113360D02*
X37500D01*
X17500D02*
X20060D01*
X31080D02*
X33260D01*
X35120Y113440D02*
X37500D01*
X26400Y113280D02*
X27240D01*
X23680D02*
X24400D01*
X17500Y113260D02*
X20220D01*
X30980Y113280D02*
X33260D01*
X26420Y113260D02*
X27260D01*
X23700D02*
X24420D01*
X30960D02*
X33260D01*
X35120D02*
X37500D01*
X17500Y113240D02*
X20260D01*
X23700D02*
X24440D01*
X26440D02*
X27300D01*
X30920D02*
X33260D01*
X35120D02*
X37500D01*
X35120Y113220D02*
X37500D01*
X17500D02*
X20280D01*
X35120Y113180D02*
X37500D01*
X23720Y113220D02*
X24460D01*
X26460D02*
X27320D01*
X30900D02*
X33260D01*
X23740Y113200D02*
X24480D01*
X17500D02*
X20320D01*
X30860D02*
X33260D01*
X26480D02*
X27360D01*
X35120D02*
X37500D01*
X17500Y113180D02*
X20340D01*
X26500D02*
X27400D01*
X23760D02*
X24500D01*
X17500Y113160D02*
X20380D01*
X30840Y113180D02*
X33260D01*
X26520Y113160D02*
X27420D01*
X23780D02*
X24500D01*
X30800D02*
X33260D01*
X35120D02*
X37500D01*
X17500Y113140D02*
X20420D01*
X23800D02*
X24520D01*
X26540D02*
X27460D01*
X30780D02*
X33260D01*
X35120D02*
X37500D01*
X35120Y113100D02*
X37500D01*
X17500Y113120D02*
X20460D01*
X23820D02*
X24520D01*
X26560D02*
X27500D01*
X30740D02*
X33260D01*
X35120D02*
X37500D01*
X17500Y113100D02*
X20500D01*
X23800D02*
X24540D01*
X26580D02*
X27520D01*
X30700D02*
X33260D01*
X17500Y113080D02*
X20540D01*
X23780D02*
X24560D01*
X26600D02*
X27560D01*
X30660D02*
X33260D01*
X35120D02*
X37500D01*
X17500Y113060D02*
X20580D01*
X23700Y113040D02*
X24600D01*
X23740Y113060D02*
X24580D01*
X31140Y113420D02*
X33260D01*
X23620Y113340D02*
X24340D01*
X26320Y113360D02*
X27140D01*
X26340Y113340D02*
X27160D01*
X26260Y113420D02*
X27060D01*
X31060Y113340D02*
X33260D01*
X35120Y112940D02*
X37500D01*
X35120Y113340D02*
X37500D01*
X17500Y113040D02*
X20620D01*
X17500Y113320D02*
X20120D01*
X23640D02*
X24360D01*
X31040D02*
X33260D01*
X26360D02*
X27180D01*
X35120D02*
X37500D01*
X35120Y113300D02*
X37500D01*
X17500D02*
X20160D01*
X17500Y113280D02*
X20180D01*
X23660Y113300D02*
X24380D01*
X26380D02*
X27220D01*
X31000D02*
X33260D01*
X30620Y113060D02*
X33260D01*
X23540Y113420D02*
X24260D01*
X31180Y113440D02*
X33260D01*
X17500Y113480D02*
X19900D01*
X23500D02*
X24200D01*
X26200D02*
X27000D01*
X31220D02*
X33260D01*
X35120D02*
X37500D01*
X17500Y113460D02*
X19940D01*
X23520D02*
X24220D01*
X26220D02*
X27020D01*
X31200D02*
X33260D01*
X35120D02*
X37500D01*
X17500Y113440D02*
X19960D01*
X23520D02*
X24240D01*
X26240D02*
X27040D01*
X17500Y113420D02*
X19980D01*
X31320Y113600D02*
X33260D01*
X17500Y112200D02*
X37500D01*
X30420Y112960D02*
X33260D01*
X17500Y113500D02*
X19880D01*
X30360Y112940D02*
X33260D01*
X26720D02*
X27880D01*
X26140Y113540D02*
X26940D01*
X35120Y113560D02*
X37500D01*
X23440Y113540D02*
X24140D01*
X26120Y113560D02*
X26920D01*
X31300D02*
X33260D01*
X31420Y113720D02*
X33260D01*
X23440Y112920D02*
X24720D01*
X17500Y113540D02*
X19840D01*
X17500Y113700D02*
X19680D01*
X23420Y113560D02*
X24120D01*
X35120Y113540D02*
X37500D01*
X17500Y112020D02*
X37500D01*
X31280Y113540D02*
X33260D01*
X17500Y113560D02*
X19820D01*
X23320Y113700D02*
X24000D01*
X31380Y113660D02*
X33260D01*
X23200Y113820D02*
X23880D01*
X35120D02*
X37500D01*
X31460Y113760D02*
X33260D01*
X23400Y113580D02*
X24120D01*
X35120Y113640D02*
X37500D01*
X17500Y113680D02*
X19700D01*
X23240Y113780D02*
X23920D01*
X31460D02*
X33260D01*
X25920D02*
X26760D01*
X35120D02*
X37500D01*
X25880Y113820D02*
X26720D01*
X23280Y113740D02*
X23960D01*
X31500Y113820D02*
X33260D01*
X35120Y113620D02*
X37500D01*
X23380Y113600D02*
X24100D01*
X31340Y113620D02*
X33260D01*
X25960Y113740D02*
X26780D01*
X35120Y113760D02*
X37500D01*
X17500Y113740D02*
X19640D01*
X17500Y113780D02*
X19600D01*
X17500Y113600D02*
X19780D01*
X26000Y113680D02*
X26820D01*
X35120D02*
X37500D01*
X26160Y113520D02*
X26960D01*
X17500Y113800D02*
X19580D01*
X23340Y113680D02*
X24020D01*
X17500Y113620D02*
X19760D01*
X17500Y112440D02*
X37500D01*
X26180Y113500D02*
X26980D01*
X17500Y112040D02*
X37500D01*
X17500Y112500D02*
X37500D01*
X31400Y113680D02*
X33260D01*
X35120Y113700D02*
X37500D01*
X26020Y113660D02*
X26840D01*
X23340D02*
X24040D01*
X31260Y113520D02*
X33260D01*
X23500Y112940D02*
X24700D01*
X35120Y113520D02*
X37500D01*
X17500Y113580D02*
X19780D01*
X31320D02*
X33260D01*
X17500Y113640D02*
X19740D01*
X35120Y113580D02*
X37500D01*
X23480Y113500D02*
X24180D01*
X17500Y113520D02*
X19860D01*
X23300Y113720D02*
X23980D01*
X26100Y113580D02*
X26900D01*
X17500Y113760D02*
X19620D01*
X31420Y113700D02*
X33260D01*
X31480Y113800D02*
X33260D01*
X23260Y113760D02*
X23940D01*
X25940D02*
X26760D01*
X17500Y113660D02*
X19720D01*
X31240Y113500D02*
X33260D01*
X17500Y113720D02*
X19660D01*
X23460Y113520D02*
X24160D01*
X25980Y113720D02*
X26800D01*
X35120D02*
X37500D01*
X31360Y113640D02*
X33260D01*
X35120Y113740D02*
X37500D01*
X26060Y113620D02*
X26860D01*
X23380D02*
X24080D01*
X26040Y113640D02*
X26840D01*
X23220Y113800D02*
X23900D01*
X25900D02*
X26740D01*
X35120D02*
X37500D01*
X23360Y113640D02*
X24060D01*
X17500Y112180D02*
X37500D01*
X17500Y112120D02*
X37500D01*
X17500Y112140D02*
X37500D01*
X17500Y112100D02*
X37500D01*
X17500Y112160D02*
X37500D01*
X17500Y112600D02*
X37500D01*
X17500Y112580D02*
X37500D01*
X17500Y112560D02*
X37500D01*
X17500Y112540D02*
X37500D01*
X17500Y112520D02*
X37500D01*
X17500Y112220D02*
X37500D01*
X17500Y112260D02*
X37500D01*
X17500Y112240D02*
X37500D01*
X31440Y113740D02*
X33260D01*
X17500Y112000D02*
X37500D01*
X25980Y113700D02*
X26820D01*
X26080Y113600D02*
X26880D01*
X35120Y113660D02*
X37500D01*
X17500Y112080D02*
X37500D01*
X17500Y112340D02*
X37500D01*
X17500Y112420D02*
X37500D01*
X17500Y112920D02*
X20900D01*
X17500Y113820D02*
X19560D01*
X35120Y113600D02*
X37500D01*
X17500Y112320D02*
X37500D01*
X17500Y112460D02*
X37500D01*
X17500Y112280D02*
X37500D01*
X22380Y112700D02*
X37500D01*
X17500Y112680D02*
X37500D01*
X22600Y112720D02*
X37500D01*
X17500D02*
X21680D01*
X17500Y112640D02*
X37500D01*
X22740Y112740D02*
X28880D01*
X17500Y112700D02*
X21860D01*
X17500Y112620D02*
X37500D01*
X29380Y112740D02*
X37500D01*
X17500Y112660D02*
X37500D01*
X17500Y112480D02*
X37500D01*
X17500Y112300D02*
X37500D01*
X17500Y112740D02*
X21540D01*
X17500Y112060D02*
X37500D01*
X26800Y112860D02*
X28120D01*
X30120D02*
X33260D01*
X22860Y112760D02*
X28640D01*
X35120Y112860D02*
X37500D01*
X29600Y112760D02*
X37500D01*
X26820Y112840D02*
X28200D01*
X29960Y112820D02*
X37500D01*
X29860Y112800D02*
X37500D01*
X23140Y112820D02*
X28280D01*
X17500Y112800D02*
X21260D01*
X23060D02*
X28380D01*
X30040Y112840D02*
X37500D01*
X17500Y112400D02*
X37500D01*
X17500Y112360D02*
X37500D01*
X17500Y112780D02*
X21340D01*
X17500Y112760D02*
X21440D01*
X17500Y112820D02*
X21180D01*
X29740Y112780D02*
X37500D01*
X17500Y112380D02*
X37500D01*
X22960Y112780D02*
X28500D01*
X23380Y112900D02*
X24740D01*
X23220Y112840D02*
X24800D01*
X23280Y112860D02*
X24780D01*
X26740Y112920D02*
X27940D01*
X35120D02*
X37500D01*
X26760Y112900D02*
X28000D01*
X17500Y112840D02*
X21120D01*
X30200Y112880D02*
X33260D01*
X35120D02*
X37500D01*
X17500Y112860D02*
X21060D01*
X30320Y112920D02*
X33260D01*
X17500Y112900D02*
X20960D01*
X23340Y112880D02*
X24760D01*
X17500D02*
X20980D01*
X30260Y112900D02*
X33260D01*
X26780Y112880D02*
X28040D01*
X35120Y112900D02*
X37500D01*
X20500Y117660D02*
X23720D01*
X17500D02*
X18640D01*
X35120D02*
X37500D01*
X17500Y117640D02*
X18640D01*
X28100Y117660D02*
X30080D01*
X25720D02*
X26300D01*
X31860D02*
X33260D01*
X20500Y117640D02*
X23740D01*
X25720D02*
X26300D01*
X31860D02*
X33260D01*
X28100D02*
X30080D01*
X35120D02*
X37500D01*
X17500Y117620D02*
X18620D01*
X17500Y117600D02*
X18620D01*
X20480Y117620D02*
X23760D01*
X25720D02*
X26300D01*
X28100D02*
X30080D01*
X31860D02*
X33260D01*
X35120D02*
X37500D01*
X31860Y117600D02*
X33260D01*
X20460D02*
X23760D01*
X35120D02*
X37500D01*
X25720D02*
X26300D01*
X28100D02*
X30080D01*
X31860Y117040D02*
X33260D01*
X35120Y117580D02*
X37500D01*
X20460D02*
X23780D01*
X17500D02*
X18620D01*
X25720D02*
X26300D01*
X28100D02*
X30080D01*
X35120Y117040D02*
X37500D01*
X31860Y117580D02*
X33260D01*
X17500Y117560D02*
X18600D01*
X25740D02*
X26300D01*
X20440D02*
X23800D01*
X28100D02*
X30080D01*
X31860D02*
X33260D01*
X35120D02*
X37500D01*
X17500Y117540D02*
X18600D01*
X35120Y116920D02*
X37500D01*
X28100Y116880D02*
X30080D01*
X25880D02*
X26300D01*
X28100Y117540D02*
X30080D01*
X17500Y116840D02*
X18460D01*
X25880Y116900D02*
X26300D01*
X20360Y117420D02*
X23880D01*
X17500D02*
X18560D01*
X25760Y117440D02*
X26300D01*
X35120D02*
X37500D01*
X31860D02*
X33260D01*
X17500D02*
X18580D01*
X17500Y117400D02*
X18560D01*
X28100Y117440D02*
X30080D01*
X20380D02*
X23860D01*
X20340Y117400D02*
X23900D01*
X31860Y116980D02*
X33260D01*
X25740Y117540D02*
X26300D01*
X31860D02*
X33260D01*
X31860Y117400D02*
X33260D01*
X35120Y117460D02*
X37500D01*
X31860Y117500D02*
X33260D01*
X28100Y116980D02*
X30080D01*
X35120Y117420D02*
X37500D01*
X35120Y117000D02*
X37500D01*
X31860Y117420D02*
X33260D01*
X25780D02*
X26300D01*
X31860Y117460D02*
X33260D01*
X28100Y117420D02*
X30080D01*
X35120Y117500D02*
X37500D01*
X28100Y117020D02*
X30080D01*
X17500Y116980D02*
X18480D01*
X25860D02*
X26300D01*
X20200D02*
X24040D01*
X25860Y117020D02*
X26300D01*
X31860D02*
X33260D01*
X31860Y117520D02*
X33260D01*
X35120Y117020D02*
X37500D01*
X17500Y117000D02*
X18480D01*
X20220D02*
X24040D01*
X25860D02*
X26300D01*
X25740Y117500D02*
X26300D01*
X25760Y117480D02*
X26300D01*
X28100Y117520D02*
X30080D01*
X20400Y117500D02*
X23820D01*
X20420Y117520D02*
X23820D01*
X35120D02*
X37500D01*
X17500D02*
X18600D01*
X25740D02*
X26300D01*
X35120Y117540D02*
X37500D01*
X28100Y117500D02*
X30080D01*
X17500Y117480D02*
X18580D01*
X31860Y117000D02*
X33260D01*
X28100D02*
X30080D01*
X17500Y117500D02*
X18600D01*
X28100Y117480D02*
X30080D01*
X35120D02*
X37500D01*
X25760Y117460D02*
X26300D01*
X20400Y117480D02*
X23840D01*
X31860D02*
X33260D01*
X28100Y117400D02*
X30080D01*
X20340Y117380D02*
X23900D01*
X28100Y117460D02*
X30080D01*
X20380D02*
X23860D01*
X17500D02*
X18580D01*
X25780Y117400D02*
X26300D01*
X25780Y117380D02*
X26300D01*
X28100D02*
X30080D01*
X17500D02*
X18560D01*
X35120Y117400D02*
X37500D01*
X28100Y117040D02*
X30080D01*
X20220D02*
X24020D01*
X25820Y117240D02*
X26300D01*
X25860Y117040D02*
X26300D01*
X31860Y117060D02*
X33260D01*
X17500Y117040D02*
X18500D01*
X35120Y117060D02*
X37500D01*
X20220D02*
X24020D01*
X31860Y117080D02*
X33260D01*
X28100Y117060D02*
X30080D01*
X25840Y117080D02*
X26300D01*
X17500Y117060D02*
X18500D01*
X25840D02*
X26300D01*
X35120Y117080D02*
X37500D01*
X20240D02*
X24020D01*
X28100D02*
X30080D01*
X17500Y117100D02*
X18500D01*
X17500Y117080D02*
X18500D01*
X31860Y117100D02*
X33260D01*
X35120D02*
X37500D01*
X20180Y116880D02*
X24060D01*
X28100Y117100D02*
X30080D01*
X20240D02*
X24000D01*
X25840D02*
X26300D01*
X20240Y117120D02*
X24000D01*
X35120D02*
X37500D01*
X28100D02*
X30080D01*
X31860D02*
X33260D01*
X17500D02*
X18500D01*
X25840D02*
X26300D01*
X35120Y117220D02*
X37500D01*
X35120Y117140D02*
X37500D01*
X28100D02*
X30080D01*
X31860D02*
X33260D01*
X17500D02*
X18500D01*
X25840D02*
X26300D01*
X31860Y117220D02*
X33260D01*
X20240Y117140D02*
X24000D01*
X35120Y117160D02*
X37500D01*
X31860D02*
X33260D01*
X28100D02*
X30080D01*
X35120Y117380D02*
X37500D01*
X25840Y117160D02*
X26300D01*
X28100Y117180D02*
X30080D01*
X20260Y117160D02*
X23980D01*
X17500D02*
X18520D01*
X35120Y117180D02*
X37500D01*
X25820Y117200D02*
X26300D01*
X31860Y117180D02*
X33260D01*
X25820D02*
X26300D01*
X20260D02*
X23980D01*
X17500D02*
X18520D01*
X31860Y117200D02*
X33260D01*
X28100D02*
X30080D01*
X20260D02*
X23980D01*
X35120D02*
X37500D01*
X17500D02*
X18520D01*
X31860Y117240D02*
X33260D01*
X28100Y117220D02*
X30080D01*
X25820D02*
X26300D01*
X20280D02*
X23960D01*
X35120Y117240D02*
X37500D01*
X17500Y117220D02*
X18520D01*
X25800Y117260D02*
X26300D01*
X31860D02*
X33260D01*
X20280Y117240D02*
X23960D01*
X17500D02*
X18520D01*
X28100D02*
X30080D01*
X35120Y117260D02*
X37500D01*
X35120Y117280D02*
X37500D01*
X28100Y117260D02*
X30080D01*
X31860Y117280D02*
X33260D01*
X20280Y117260D02*
X23960D01*
X28100Y117280D02*
X30080D01*
X17500Y117260D02*
X18540D01*
X31860Y117300D02*
X33260D01*
X25800Y117280D02*
X26300D01*
X20300D02*
X23940D01*
X17500D02*
X18540D01*
X35120Y117300D02*
X37500D01*
X28100D02*
X30080D01*
X25800D02*
X26300D01*
X20300D02*
X23940D01*
X31860Y117340D02*
X33260D01*
X28100Y117320D02*
X30080D01*
X17500Y117300D02*
X18540D01*
X35120Y117320D02*
X37500D01*
X25800D02*
X26300D01*
X31860D02*
X33260D01*
X28100Y117340D02*
X30080D01*
X17500Y117320D02*
X18540D01*
X17500Y117360D02*
X18560D01*
X35120Y116880D02*
X37500D01*
X28100Y116860D02*
X30080D01*
X17500Y116900D02*
X18480D01*
X31860Y116880D02*
X33260D01*
X25880Y116840D02*
X26300D01*
X28100Y117720D02*
X30080D01*
X31860D02*
X33260D01*
X35120D02*
X37500D01*
X17500Y117020D02*
X18480D01*
X17500Y117700D02*
X18640D01*
X20220Y117020D02*
X24020D01*
X20540Y117700D02*
X23700D01*
X25700D02*
X26300D01*
X35120D02*
X37500D01*
X28100D02*
X30080D01*
X31860D02*
X33260D01*
X20520Y117680D02*
X23720D01*
X17500D02*
X18640D01*
X20320Y117360D02*
X23920D01*
X25700Y117680D02*
X26300D01*
X28100D02*
X30080D01*
X31860D02*
X33260D01*
X35120D02*
X37500D01*
X25780Y117360D02*
X26300D01*
X28100D02*
X30080D01*
X31860D02*
X33260D01*
X35120D02*
X37500D01*
X17500Y117340D02*
X18540D01*
X25800D02*
X26300D01*
X20320D02*
X23920D01*
X31860Y117380D02*
X33260D01*
X35120Y117340D02*
X37500D01*
X20320Y117320D02*
X23920D01*
X17500Y116960D02*
X18480D01*
X25860D02*
X26300D01*
X20200D02*
X24040D01*
X35120Y116860D02*
X37500D01*
X28100Y116960D02*
X30080D01*
X31860D02*
X33260D01*
X35120D02*
X37500D01*
X17500Y116940D02*
X18480D01*
X20200D02*
X24040D01*
X25860D02*
X26300D01*
X17500Y116920D02*
X18480D01*
X28100Y116940D02*
X30080D01*
X35120D02*
X37500D01*
X31860D02*
X33260D01*
X25860Y116920D02*
X26300D01*
X20200D02*
X24040D01*
X20440Y117540D02*
X23800D01*
X28100Y116920D02*
X30080D01*
X31860D02*
X33260D01*
X35120Y116980D02*
X37500D01*
X17500Y116880D02*
X18480D01*
X20200Y116900D02*
X24060D01*
X28100Y116840D02*
X30080D01*
X31860Y116860D02*
X33260D01*
X35120Y116900D02*
X37500D01*
X20180Y116840D02*
X24060D01*
X25880Y116860D02*
X26300D01*
X17500D02*
X18460D01*
X28100Y116900D02*
X30080D01*
X31860D02*
X33260D01*
X20180Y116860D02*
X24060D01*
X31860Y116240D02*
X33260D01*
X23520D02*
X24060D01*
X28100D02*
X30080D01*
X25900D02*
X26300D01*
X35120D02*
X37500D01*
X20180D02*
X21580D01*
X35120Y116260D02*
X37500D01*
X28100D02*
X30080D01*
X31860D02*
X33260D01*
X20180Y116220D02*
X21600D01*
X25900Y116260D02*
X26300D01*
X17500Y116240D02*
X18460D01*
X23500Y116260D02*
X24060D01*
X28100Y116280D02*
X30080D01*
X20180Y116260D02*
X21540D01*
X17500D02*
X18460D01*
X35120Y116280D02*
X37500D01*
X31860D02*
X33260D01*
X20180D02*
X21520D01*
X25900D02*
X26300D01*
X17500D02*
X18460D01*
X23480D02*
X24060D01*
X35120Y116300D02*
X37500D01*
X28100D02*
X30080D01*
X23460D02*
X24060D01*
X25900D02*
X26300D01*
X20180D02*
X21500D01*
X31860D02*
X33260D01*
X35120Y116320D02*
X37500D01*
X31860D02*
X33260D01*
X31860Y116660D02*
X33260D01*
X28100Y116320D02*
X30080D01*
X25900D02*
X26300D01*
X35120Y116660D02*
X37500D01*
X23540Y116220D02*
X24060D01*
X17500D02*
X18460D01*
X28100Y116520D02*
X30080D01*
X20160Y116500D02*
X24080D01*
X28100Y116560D02*
X30080D01*
X25900Y116520D02*
X26300D01*
X20160D02*
X24080D01*
X31860Y116540D02*
X33260D01*
X17500Y116520D02*
X18460D01*
X20160Y116540D02*
X24080D01*
X28100D02*
X30080D01*
X31860Y116560D02*
X33260D01*
X35120D02*
X37500D01*
X25900Y116540D02*
X26300D01*
X17500D02*
X18460D01*
X25900Y116560D02*
X26300D01*
X35120Y116600D02*
X37500D01*
X35120Y116580D02*
X37500D01*
X31860D02*
X33260D01*
X17500Y116560D02*
X18460D01*
X25900Y116580D02*
X26300D01*
X28100D02*
X30080D01*
X20160D02*
X24080D01*
X20160Y116560D02*
X24080D01*
X17500Y116580D02*
X18460D01*
X31860Y116600D02*
X33260D01*
X25900D02*
X26300D01*
X28100D02*
X30080D01*
X20160D02*
X24080D01*
X17500D02*
X18460D01*
X35120Y116620D02*
X37500D01*
X31860D02*
X33260D01*
X28100D02*
X30080D01*
X25900D02*
X26300D01*
X20160D02*
X24080D01*
X17500D02*
X18460D01*
X35120Y116540D02*
X37500D01*
X17500Y116640D02*
X18460D01*
X35120D02*
X37500D01*
X28100Y115900D02*
X30080D01*
X31860Y116640D02*
X33260D01*
X35120Y116440D02*
X37500D01*
X28100Y116640D02*
X30080D01*
X25900D02*
X26300D01*
X20160D02*
X24080D01*
X31860Y115940D02*
X33260D01*
X35120Y115920D02*
X37500D01*
X35120Y115940D02*
X37500D01*
X17500Y115920D02*
X18500D01*
X20260D02*
X21880D01*
X23840D02*
X23980D01*
X28100D02*
X30080D01*
X31860D02*
X33260D01*
X25860D02*
X26300D01*
X31860Y116440D02*
X33260D01*
X28100D02*
X30080D01*
X17500Y115900D02*
X18500D01*
X20160Y116440D02*
X24080D01*
X25900D02*
X26300D01*
X17500D02*
X18460D01*
X35120Y116460D02*
X37500D01*
X31860D02*
X33260D01*
X28100D02*
X30080D01*
X25900D02*
X26300D01*
X20160D02*
X24080D01*
X17500D02*
X18460D01*
X31860Y116480D02*
X33260D01*
X20240Y115940D02*
X21860D01*
X28100Y116480D02*
X30080D01*
X20160D02*
X24080D01*
X23680Y116080D02*
X24020D01*
X20200D02*
X21740D01*
X23600Y116160D02*
X24040D01*
X28100D02*
X30080D01*
X25900D02*
X26300D01*
X31860D02*
X33260D01*
X35120D02*
X37500D01*
X17500Y116140D02*
X18480D01*
X20200D02*
X21680D01*
X23620D02*
X24040D01*
X28100D02*
X30080D01*
X25880D02*
X26300D01*
X31860D02*
X33260D01*
X17500Y116120D02*
X18480D01*
X35120Y116180D02*
X37500D01*
X25880Y116080D02*
X26300D01*
X17500Y116060D02*
X18480D01*
X28100Y116080D02*
X30080D01*
X35120D02*
X37500D01*
X31860D02*
X33260D01*
X25880Y116040D02*
X26300D01*
X20220Y116060D02*
X21760D01*
X23700D02*
X24020D01*
X25880D02*
X26300D01*
X28100D02*
X30080D01*
X31860D02*
X33260D01*
X23720Y116040D02*
X24020D01*
X35120Y116060D02*
X37500D01*
X20220Y116040D02*
X21780D01*
X17500D02*
X18480D01*
X31860D02*
X33260D01*
X28100Y116680D02*
X30080D01*
X28100Y116660D02*
X30080D01*
X17500Y116020D02*
X18480D01*
X35120Y116040D02*
X37500D01*
X20220Y116020D02*
X21800D01*
X25880D02*
X26300D01*
X23740D02*
X24020D01*
X31860Y116000D02*
X33260D01*
X31860Y116020D02*
X33260D01*
X28100D02*
X30080D01*
X35120D02*
X37500D01*
X17500Y116000D02*
X18480D01*
X20220D02*
X21820D01*
X23760D02*
X24000D01*
X25880D02*
X26300D01*
X35120D02*
X37500D01*
X28100D02*
X30080D01*
X17500Y115980D02*
X18500D01*
X23780D02*
X24000D01*
X20240D02*
X21840D01*
X25880D02*
X26300D01*
X28100D02*
X30080D01*
X31860D02*
X33260D01*
X35120D02*
X37500D01*
X17500Y115960D02*
X18500D01*
X20240D02*
X21840D01*
X25860D02*
X26300D01*
X23800D02*
X24000D01*
X28100D02*
X30080D01*
X31860D02*
X33260D01*
X35120D02*
X37500D01*
X23820Y115940D02*
X23980D01*
X17500D02*
X18500D01*
X23860Y115900D02*
X23980D01*
X25860Y115940D02*
X26300D01*
X28100D02*
X30080D01*
X20260Y115900D02*
X21900D01*
X28100Y116500D02*
X30080D01*
X31860D02*
X33260D01*
X35120D02*
X37500D01*
X17500Y116480D02*
X18460D01*
X35120Y116140D02*
X37500D01*
X23640Y116120D02*
X24040D01*
X20200D02*
X21700D01*
X31860Y116180D02*
X33260D01*
X25880Y116120D02*
X26300D01*
X28100D02*
X30080D01*
X23660Y116100D02*
X24040D01*
X31860Y116120D02*
X33260D01*
X35120D02*
X37500D01*
X17500Y116100D02*
X18480D01*
X20200D02*
X21720D01*
X25880D02*
X26300D01*
X28100Y116040D02*
X30080D01*
X28100Y116100D02*
X30080D01*
X35120D02*
X37500D01*
X31860D02*
X33260D01*
X17500Y116080D02*
X18480D01*
X25860Y115900D02*
X26300D01*
X25900Y116480D02*
X26300D01*
X28100Y116180D02*
X30080D01*
X35120Y116480D02*
X37500D01*
X23580Y116180D02*
X24040D01*
X25900D02*
X26300D01*
X20180D02*
X21640D01*
X35120Y116200D02*
X37500D01*
X28100Y116220D02*
X30080D01*
X31860D02*
X33260D01*
X35120D02*
X37500D01*
X20180Y116200D02*
X21620D01*
X17500D02*
X18460D01*
X23560D02*
X24060D01*
X25900D02*
X26300D01*
X28100D02*
X30080D01*
X31860D02*
X33260D01*
X17500Y116180D02*
X18460D01*
X20200Y116160D02*
X21660D01*
X17500D02*
X18460D01*
X25900Y116220D02*
X26300D01*
X17500Y116500D02*
X18460D01*
X35120Y116520D02*
X37500D01*
X31860Y116680D02*
X33260D01*
X31860Y116520D02*
X33260D01*
X35120Y116400D02*
X37500D01*
X25900Y116420D02*
X26300D01*
X28100D02*
X30080D01*
X35120Y116340D02*
X37500D01*
X31860D02*
X33260D01*
X28100Y116380D02*
X30080D01*
X25900Y116360D02*
X26300D01*
X23400D02*
X24080D01*
X35120Y116820D02*
X37500D01*
X17500Y116360D02*
X18460D01*
X35120D02*
X37500D01*
X20160Y116320D02*
X21480D01*
X28100Y116360D02*
X30080D01*
X31860Y116820D02*
X33260D01*
X17500Y116340D02*
X18460D01*
X35120Y116380D02*
X37500D01*
X17500Y116800D02*
X18460D01*
X31860Y116380D02*
X33260D01*
X31860Y116360D02*
X33260D01*
X28100Y116800D02*
X30080D01*
X17500Y116760D02*
X18460D01*
X25880Y116780D02*
X26300D01*
X31860D02*
X33260D01*
X17500Y116380D02*
X18460D01*
X35120Y116780D02*
X37500D01*
X31860Y116800D02*
X33260D01*
X20180Y116780D02*
X24060D01*
X20160Y116360D02*
X21460D01*
X20160Y116380D02*
X21440D01*
X31860Y116740D02*
X33260D01*
X17500D02*
X18460D01*
X35120D02*
X37500D01*
X31860Y116720D02*
X33260D01*
X25880Y116760D02*
X26300D01*
X31860D02*
X33260D01*
X25880Y116740D02*
X26300D01*
X20160Y116760D02*
X24060D01*
X28100Y116780D02*
X30080D01*
X28100Y116760D02*
X30080D01*
X25900Y116680D02*
X26300D01*
X35120Y116760D02*
X37500D01*
X20160Y116740D02*
X24080D01*
X28100Y116720D02*
X30080D01*
X35120Y116800D02*
X37500D01*
X17500Y116780D02*
X18460D01*
X20160Y116720D02*
X24080D01*
X25880D02*
X26300D01*
X20180Y116820D02*
X24060D01*
X31860Y116400D02*
X33260D01*
X17500Y116700D02*
X18460D01*
X23380Y116380D02*
X24080D01*
X25880Y116800D02*
X26300D01*
X17500Y116420D02*
X18460D01*
X17500Y116720D02*
X18460D01*
X23440Y116320D02*
X24060D01*
X35120Y116680D02*
X37500D01*
X17500Y116300D02*
X18460D01*
X25880Y116820D02*
X26300D01*
X17500Y116660D02*
X18460D01*
X20160D02*
X24080D01*
X35120Y116420D02*
X37500D01*
X20160D02*
X24080D01*
X17500Y116820D02*
X18460D01*
X17500Y116320D02*
X18460D01*
X25900Y116660D02*
X26300D01*
X17500Y116400D02*
X18460D01*
X20160Y116700D02*
X24080D01*
X25900Y116340D02*
X26300D01*
X25900Y116380D02*
X26300D01*
X20180Y116800D02*
X24060D01*
X28100Y116820D02*
X30080D01*
X20160Y116400D02*
X24080D01*
X28100Y116700D02*
X30080D01*
X17500Y116680D02*
X18460D01*
X25900Y116500D02*
X26300D01*
X31860Y116700D02*
X33260D01*
X31860Y116420D02*
X33260D01*
X35120Y116700D02*
X37500D01*
X28100Y116340D02*
X30080D01*
X28100Y116400D02*
X30080D01*
X20160Y116340D02*
X21460D01*
X23420D02*
X24060D01*
X25900Y116400D02*
X26300D01*
X25900Y116700D02*
X26300D01*
X35120Y116720D02*
X37500D01*
X20160Y116680D02*
X24080D01*
X28100Y116740D02*
X30080D01*
X20340Y115680D02*
X22120D01*
X28100Y115780D02*
X30080D01*
X28100Y115760D02*
X30080D01*
X31860D02*
X33260D01*
X35120D02*
X37500D01*
X31860Y115740D02*
X33260D01*
X35120D02*
X37500D01*
X17500D02*
X18540D01*
X20320D02*
X22060D01*
X25820D02*
X26300D01*
X28100D02*
X30080D01*
X17500Y115720D02*
X18540D01*
X20340D02*
X22080D01*
X35120D02*
X37500D01*
X35120Y115780D02*
X37500D01*
X20340Y115700D02*
X22100D01*
X17500Y115680D02*
X18540D01*
X25820Y115700D02*
X26300D01*
X23880Y115860D02*
X23960D01*
X20280Y115820D02*
X21980D01*
X35120Y115840D02*
X37500D01*
X28100Y115700D02*
X30080D01*
X31860D02*
X33260D01*
X35120D02*
X37500D01*
X31860Y115900D02*
X33260D01*
X25840Y115860D02*
X26300D01*
X35120Y115900D02*
X37500D01*
X17500Y115880D02*
X18500D01*
X17500Y115860D02*
X18520D01*
X35120Y115880D02*
X37500D01*
X20260D02*
X21920D01*
X23880D02*
X23960D01*
X28100D02*
X30080D01*
X25860D02*
X26300D01*
X31860Y114900D02*
X33260D01*
X31860Y115880D02*
X33260D01*
X35120Y115300D02*
X37500D01*
X20600Y115280D02*
X22480D01*
X17500D02*
X18640D01*
X28100D02*
X30080D01*
X25720D02*
X26300D01*
X31860D02*
X33260D01*
X25720Y115260D02*
X26300D01*
X20620D02*
X22500D01*
X35120D02*
X37500D01*
X31860D02*
X33260D01*
X17500Y115240D02*
X18660D01*
X20640D02*
X22520D01*
X20660Y115220D02*
X22540D01*
X25700Y115240D02*
X26300D01*
X31860D02*
X33260D01*
X28100D02*
X30080D01*
X35120D02*
X37500D01*
X17500Y115220D02*
X18660D01*
X25700D02*
X26300D01*
X31860D02*
X33260D01*
X35120D02*
X37500D01*
X17500Y115200D02*
X18660D01*
X20660D02*
X22560D01*
X28100Y115220D02*
X30080D01*
X31860Y115180D02*
X33260D01*
X17500Y115160D02*
X18680D01*
X35120Y115180D02*
X37500D01*
X17500Y115140D02*
X18680D01*
X25680Y115180D02*
X26300D01*
X20560Y115320D02*
X22440D01*
X28100Y115180D02*
X30080D01*
X28100Y115320D02*
X30080D01*
X35120D02*
X37500D01*
X25720D02*
X26300D01*
X31860D02*
X33260D01*
X17500Y115300D02*
X18640D01*
X31860Y115720D02*
X33260D01*
X25820D02*
X26300D01*
X17500Y115700D02*
X18540D01*
X28100Y115720D02*
X30080D01*
X17500Y115760D02*
X18520D01*
X20320D02*
X22040D01*
X25840Y115780D02*
X26300D01*
X25720Y115300D02*
X26300D01*
X35120Y114980D02*
X37500D01*
X31860Y115120D02*
X33260D01*
X28100Y115020D02*
X30080D01*
X17500Y114940D02*
X18780D01*
X17500Y115020D02*
X18740D01*
X35120Y115040D02*
X37500D01*
X35120Y115120D02*
X37500D01*
X25600Y115000D02*
X26300D01*
X31860Y115780D02*
X33260D01*
X20580Y115300D02*
X22460D01*
X35120Y115020D02*
X37500D01*
X17500Y114980D02*
X18760D01*
X20920D02*
X22780D01*
X25600D02*
X26300D01*
X20880Y115020D02*
X22740D01*
X31860Y114960D02*
X33260D01*
X28100D02*
X30080D01*
X17500Y115180D02*
X18680D01*
X35120Y115800D02*
X37500D01*
X31860D02*
X33260D01*
X20300Y115780D02*
X22020D01*
X17500D02*
X18520D01*
X17500Y115820D02*
X18520D01*
X25840D02*
X26300D01*
X28100D02*
X30080D01*
X35120D02*
X37500D01*
X31860D02*
X33260D01*
X28100Y115840D02*
X30080D01*
X20300Y115800D02*
X22000D01*
X28100Y115160D02*
X30080D01*
X31860Y115200D02*
X33260D01*
X35120Y115280D02*
X37500D01*
X35120Y115360D02*
X37500D01*
X17500Y115260D02*
X18640D01*
X25680Y115160D02*
X26300D01*
X28100Y115260D02*
X30080D01*
X20700Y115160D02*
X22600D01*
X31860Y115300D02*
X33260D01*
X28100D02*
X30080D01*
X31860Y115160D02*
X33260D01*
X25840Y115800D02*
X26300D01*
X28100D02*
X30080D01*
X17500D02*
X18520D01*
X35120Y115200D02*
X37500D01*
X35120Y115060D02*
X37500D01*
X20680Y115180D02*
X22580D01*
X25680Y115200D02*
X26300D01*
X20860Y115040D02*
X22720D01*
X31860Y115360D02*
X33260D01*
X17500Y115040D02*
X18740D01*
X35120Y115160D02*
X37500D01*
X25620Y115040D02*
X26300D01*
X28100Y115200D02*
X30080D01*
X28100Y115360D02*
X30080D01*
X20740Y115120D02*
X22620D01*
X35120Y115000D02*
X37500D01*
X28100D02*
X30080D01*
X31860D02*
X33260D01*
X25580Y114940D02*
X26300D01*
X28120D02*
X30080D01*
X20980D02*
X22820D01*
X31860Y115020D02*
X33260D01*
X25840Y115840D02*
X26300D01*
X31860D02*
X33260D01*
X17500D02*
X18520D01*
X20280D02*
X21960D01*
X35120Y115860D02*
X37500D01*
X31860D02*
X33260D01*
X28100D02*
X30080D01*
X20280D02*
X21940D01*
X25820Y115760D02*
X26300D01*
X31860Y115560D02*
X33260D01*
X28100Y115680D02*
X30080D01*
X25780Y115580D02*
X26300D01*
X35120D02*
X37500D01*
X17500Y115560D02*
X18580D01*
X31860Y115580D02*
X33260D01*
X20400D02*
X22200D01*
X28100D02*
X30080D01*
X20400Y115560D02*
X22220D01*
X31860Y115600D02*
X33260D01*
X17500Y115580D02*
X18560D01*
X28100Y115600D02*
X30080D01*
X20380D02*
X22180D01*
X25800D02*
X26300D01*
X17500D02*
X18560D01*
X28100Y115620D02*
X30080D01*
X31860D02*
X33260D01*
X35120Y115560D02*
X37500D01*
X35120Y115620D02*
X37500D01*
X20380D02*
X22160D01*
X25800D02*
X26300D01*
X17500D02*
X18560D01*
X25800Y115640D02*
X26300D01*
X35120D02*
X37500D01*
X28100D02*
X30080D01*
X31860D02*
X33260D01*
X20360D02*
X22160D01*
X17500D02*
X18560D01*
X31860Y115660D02*
X33260D01*
X25800D02*
X26300D01*
X28100D02*
X30080D01*
X20360D02*
X22140D01*
X35120D02*
X37500D01*
X17500D02*
X18560D01*
X35120Y115680D02*
X37500D01*
X25780Y115560D02*
X26300D01*
X31860Y115680D02*
X33260D01*
X17500Y115540D02*
X18580D01*
X35120Y115600D02*
X37500D01*
X28100Y115560D02*
X30080D01*
X20420Y115540D02*
X22220D01*
X31860Y115420D02*
X33260D01*
X28100D02*
X30080D01*
X31860Y115540D02*
X33260D01*
X35120Y115440D02*
X37500D01*
X17500Y115420D02*
X18620D01*
X20500D02*
X22340D01*
X20440Y115520D02*
X22240D01*
X25740Y115420D02*
X26300D01*
X35120Y115540D02*
X37500D01*
X28120Y114900D02*
X30060D01*
X17500Y115520D02*
X18580D01*
X25820Y115680D02*
X26300D01*
X25780Y115540D02*
X26300D01*
X17500Y115400D02*
X18620D01*
X35120Y115420D02*
X37500D01*
X25740Y115400D02*
X26300D01*
X28100D02*
X30080D01*
X31860D02*
X33260D01*
X17500Y115380D02*
X18620D01*
X35120Y115400D02*
X37500D01*
X20520Y115380D02*
X22380D01*
X17500Y115360D02*
X18640D01*
X25740Y115380D02*
X26300D01*
X20540Y115360D02*
X22400D01*
X28100Y115380D02*
X30080D01*
X31860D02*
X33260D01*
X35120D02*
X37500D01*
X35120Y115460D02*
X37500D01*
X25720Y115360D02*
X26300D01*
X28100Y115540D02*
X30080D01*
X17500Y115440D02*
X18600D01*
X20480D02*
X22320D01*
X20480Y115460D02*
X22300D01*
X35120Y115480D02*
X37500D01*
X25740Y115440D02*
X26300D01*
X31860Y115460D02*
X33260D01*
X28100Y115440D02*
X30080D01*
X20460Y115480D02*
X22280D01*
X17500Y115460D02*
X18600D01*
X31860Y115480D02*
X33260D01*
X28100D02*
X30080D01*
X25760D02*
X26300D01*
X17500D02*
X18600D01*
X35120Y115500D02*
X37500D01*
X31860D02*
X33260D01*
X28100D02*
X30080D01*
X25760D02*
X26300D01*
X25760Y115460D02*
X26300D01*
X28100D02*
X30080D01*
X35120Y115520D02*
X37500D01*
X31860D02*
X33260D01*
X17500Y115500D02*
X18600D01*
X28100Y115520D02*
X30080D01*
X20440Y115500D02*
X22260D01*
X31860Y115440D02*
X33260D01*
X20520Y115400D02*
X22360D01*
X17500Y115320D02*
X18640D01*
X25780Y115520D02*
X26300D01*
X20560Y115340D02*
X22420D01*
X35120D02*
X37500D01*
X25580Y114960D02*
X26300D01*
X28100Y115340D02*
X30080D01*
X25720D02*
X26300D01*
X31860D02*
X33260D01*
X17500D02*
X18640D01*
X20960Y114960D02*
X22800D01*
X31860Y114980D02*
X33260D01*
X17500Y115000D02*
X18760D01*
X35120Y114940D02*
X37500D01*
X17500Y114960D02*
X18780D01*
X31860Y114940D02*
X33260D01*
X35120Y114920D02*
X37500D01*
X25620Y115060D02*
X26300D01*
X31860D02*
X33260D01*
X17500Y115120D02*
X18700D01*
X35120Y114960D02*
X37500D01*
X17500Y115100D02*
X18700D01*
X25660Y115140D02*
X26300D01*
X17500Y115080D02*
X18720D01*
X31860Y114920D02*
X33260D01*
X35120Y115100D02*
X37500D01*
X31860D02*
X33260D01*
X28120Y114920D02*
X30080D01*
X35120Y115080D02*
X37500D01*
X28100Y115040D02*
X30080D01*
X28100Y114980D02*
X30080D01*
X25660Y115120D02*
X26300D01*
X20840Y115060D02*
X22700D01*
X31860Y115040D02*
X33260D01*
X25560Y114920D02*
X26300D01*
X28100Y115100D02*
X30080D01*
X28100Y115140D02*
X30080D01*
X20900Y115000D02*
X22760D01*
X31860Y115140D02*
X33260D01*
X17500Y115060D02*
X18720D01*
X20800Y115080D02*
X22660D01*
X25560Y114900D02*
X26300D01*
X31860Y115080D02*
X33260D01*
X28100D02*
X30080D01*
X28100Y115120D02*
X30080D01*
X20720Y115140D02*
X22600D01*
X25640Y115080D02*
X26300D01*
X21020Y114900D02*
X22860D01*
X25620Y115020D02*
X26300D01*
X21000Y114920D02*
X22840D01*
X17500D02*
X18780D01*
X20780Y115100D02*
X22640D01*
X28100Y115060D02*
X30080D01*
X25660Y115100D02*
X26300D01*
X35120Y115140D02*
X37500D01*
X17500Y114900D02*
X18800D01*
X17500Y119820D02*
X20460D01*
X30160Y119680D02*
X30780D01*
X17500Y119660D02*
X20180D01*
X36560Y119680D02*
X37500D01*
X36560Y120040D02*
X37500D01*
X17500Y120020D02*
X20960D01*
X23880Y119820D02*
X26300D01*
X36560Y119840D02*
X37500D01*
X23840D02*
X26300D01*
X23320Y120040D02*
X26300D01*
X28100Y119840D02*
X30620D01*
X28100Y119860D02*
X30600D01*
X36560D02*
X37500D01*
X28100Y120040D02*
X30420D01*
X17500D02*
X21020D01*
X17500Y119840D02*
X20500D01*
X28100Y119680D02*
X30080D01*
X23760Y119860D02*
X26300D01*
X23380Y120020D02*
X26300D01*
X28100D02*
X30440D01*
X36560Y119820D02*
X37500D01*
X28100D02*
X30640D01*
X36560Y120020D02*
X37500D01*
X17500Y119800D02*
X20420D01*
X17500Y120000D02*
X20900D01*
X23900Y119800D02*
X26300D01*
X23420Y120000D02*
X26300D01*
X28100Y119800D02*
X30680D01*
X28100Y120000D02*
X30460D01*
X36560Y119800D02*
X37500D01*
X36560Y120000D02*
X37500D01*
X17500Y119780D02*
X20380D01*
X17500Y119980D02*
X20840D01*
X23940Y119780D02*
X26300D01*
X23480Y119980D02*
X26300D01*
X28100Y119780D02*
X30680D01*
X28100Y119980D02*
X30480D01*
X36560Y119780D02*
X37500D01*
X36560Y119980D02*
X37500D01*
X17500Y119760D02*
X20360D01*
X17500Y119960D02*
X20800D01*
X23980Y119760D02*
X26300D01*
X23520Y119960D02*
X26300D01*
X28100Y119760D02*
X30080D01*
X28100Y119960D02*
X30500D01*
X30100Y119760D02*
X30700D01*
X36560Y119960D02*
X37500D01*
X36560Y119760D02*
X37500D01*
X17500Y119940D02*
X20740D01*
X17500Y119740D02*
X20320D01*
X23580Y119940D02*
X26300D01*
X24020Y119740D02*
X26300D01*
X28100Y119940D02*
X30520D01*
X28100Y119740D02*
X30080D01*
X36560Y119940D02*
X37500D01*
X30100Y119740D02*
X30720D01*
X17500Y119920D02*
X20700D01*
X36560Y119740D02*
X37500D01*
X23620Y119920D02*
X26300D01*
X17500Y119720D02*
X20280D01*
X28100Y119920D02*
X30540D01*
X24060Y119720D02*
X26300D01*
X36560Y119920D02*
X37500D01*
X28100Y119720D02*
X30080D01*
X17500Y119900D02*
X20660D01*
X30120Y119720D02*
X30740D01*
X23660Y119900D02*
X26300D01*
X36560Y119720D02*
X37500D01*
X28100Y119900D02*
X30560D01*
X17500Y119700D02*
X20260D01*
X36560Y119900D02*
X37500D01*
X24080Y119700D02*
X26300D01*
X17500Y119880D02*
X20600D01*
X28100Y119700D02*
X30080D01*
X23700Y119880D02*
X26300D01*
X30140Y119700D02*
X30760D01*
X28100Y119880D02*
X30580D01*
X36560Y119700D02*
X37500D01*
X36560Y119880D02*
X37500D01*
X17500Y119680D02*
X20220D01*
X17500Y119860D02*
X20560D01*
X24120Y119680D02*
X26300D01*
X28100Y117760D02*
X30080D01*
X20540Y117720D02*
X23680D01*
X25700D02*
X26300D01*
X17500D02*
X18640D01*
X25680Y117760D02*
X26300D01*
X17500D02*
X18660D01*
X20580D02*
X23660D01*
X35120Y117740D02*
X37500D01*
X31860D02*
X33260D01*
X31860Y117780D02*
X33260D01*
X28100D02*
X30080D01*
X28100Y117740D02*
X30080D01*
X25680D02*
X26300D01*
X25660Y117780D02*
X26300D01*
X20600D02*
X23640D01*
X20560Y117740D02*
X23680D01*
X35120Y117760D02*
X37500D01*
X17500Y117780D02*
X18660D01*
X35120Y117800D02*
X37500D01*
X31860Y117760D02*
X33260D01*
X31860Y117800D02*
X33260D01*
X28100D02*
X30080D01*
X35120Y117780D02*
X37500D01*
X17500Y117740D02*
X18660D01*
X31860Y116840D02*
X33260D01*
X35120D02*
X37500D01*
X36560Y120060D02*
X37500D01*
X28100D02*
X30400D01*
X23260D02*
X26300D01*
X17500D02*
X21080D01*
X36560Y120080D02*
X37500D01*
X28100D02*
X30400D01*
X23200D02*
X26300D01*
X17500D02*
X21140D01*
X36560Y120100D02*
X37500D01*
X28100D02*
X30380D01*
X23120D02*
X26300D01*
X17500D02*
X21220D01*
X36560Y120120D02*
X37500D01*
X28100D02*
X30360D01*
X23040D02*
X26300D01*
X17500D02*
X21300D01*
X36560Y120140D02*
X37500D01*
X28100D02*
X30340D01*
X22960D02*
X26300D01*
X17500D02*
X21380D01*
X36560Y120160D02*
X37500D01*
X28100D02*
X30320D01*
X22840D02*
X26300D01*
X17500D02*
X21480D01*
X36560Y120180D02*
X37500D01*
X28100D02*
X30300D01*
X22740D02*
X26300D01*
X17500D02*
X21600D01*
X22580Y120200D02*
X37500D01*
X17500D02*
X21760D01*
X22360Y120220D02*
X37500D01*
X17500D02*
X21980D01*
X17500Y120240D02*
X37500D01*
X17500Y120260D02*
X37500D01*
X17500Y120280D02*
X37500D01*
X17500Y120300D02*
X37500D01*
X17500Y120320D02*
X37500D01*
X17500Y120340D02*
X37500D01*
X17500Y120360D02*
X37500D01*
X17500Y120380D02*
X37500D01*
X17500Y120400D02*
X37500D01*
X17500Y120420D02*
X37500D01*
X17500Y120440D02*
X37500D01*
X17500Y120480D02*
X37500D01*
X17500Y120500D02*
X37500D01*
X17500Y120520D02*
X37500D01*
X17500Y120540D02*
X37500D01*
X17500Y120560D02*
X37500D01*
X17500Y120580D02*
X37500D01*
X17500Y120600D02*
X37500D01*
X17500Y120620D02*
X37500D01*
X17500Y120640D02*
X37500D01*
X17500Y120660D02*
X37500D01*
X17500Y120680D02*
X37500D01*
X17500Y120700D02*
X37500D01*
X17500Y120720D02*
X37500D01*
X17500Y120740D02*
X37500D01*
X17500Y120760D02*
X37500D01*
X17500Y120780D02*
X37500D01*
X17500Y120800D02*
X37500D01*
X17500Y120820D02*
X37500D01*
X17500Y120840D02*
X37500D01*
X17500Y120860D02*
X37500D01*
X17500Y120880D02*
X37500D01*
X17500Y120900D02*
X37500D01*
X17500Y120920D02*
X37500D01*
X17500Y120940D02*
X37500D01*
X17500Y120960D02*
X37500D01*
X17500Y120980D02*
X37500D01*
X17500Y121000D02*
X37500D01*
X17500Y121020D02*
X37500D01*
X17500Y121040D02*
X37500D01*
X17500Y121060D02*
X37500D01*
X17500Y121080D02*
X37500D01*
X17500Y121100D02*
X37500D01*
X17500Y121120D02*
X37500D01*
X17500Y121140D02*
X37500D01*
X17500Y121160D02*
X37500D01*
X17500Y121180D02*
X37500D01*
X17500Y121200D02*
X37500D01*
X17500Y121220D02*
X37500D01*
X17500Y121240D02*
X37500D01*
X17500Y121260D02*
X37500D01*
X17500Y121280D02*
X37500D01*
X17500Y121300D02*
X37500D01*
X17500Y121320D02*
X37500D01*
X17500Y121340D02*
X37500D01*
X17500Y121360D02*
X37500D01*
X17500Y121380D02*
X37500D01*
X17500Y121400D02*
X37500D01*
X17500Y121420D02*
X37500D01*
X17500Y121440D02*
X37500D01*
X17500Y121460D02*
X37500D01*
X17500Y121480D02*
X37500D01*
X17500Y121500D02*
X37500D01*
X17500Y121520D02*
X37500D01*
X17500Y121540D02*
X37500D01*
X17500Y121560D02*
X37500D01*
X17500Y121580D02*
X37500D01*
X17500Y121600D02*
X37500D01*
X17500Y121620D02*
X37500D01*
X17500Y121640D02*
X37500D01*
X17500Y121660D02*
X37500D01*
X17500Y121680D02*
X37500D01*
X17500Y121700D02*
X37500D01*
X17500Y121720D02*
X37500D01*
X17500Y121740D02*
X37500D01*
X17500Y121760D02*
X37500D01*
X17500Y121780D02*
X37500D01*
X17500Y121800D02*
X37500D01*
X17500Y121820D02*
X37500D01*
X17500Y121840D02*
X37500D01*
X17500Y121860D02*
X37500D01*
X17500Y121880D02*
X37500D01*
X17500Y121900D02*
X37500D01*
X17500Y121920D02*
X37500D01*
X17500Y121940D02*
X37500D01*
X17500Y121960D02*
X37500D01*
X17500Y121980D02*
X37500D01*
X17500Y122000D02*
X37500D01*
X17500Y122020D02*
X37500D01*
X17500Y122040D02*
X37500D01*
X17500Y122060D02*
X37500D01*
X17500Y120460D02*
X37500D01*
X17500Y122140D02*
X37500D01*
X17500Y122100D02*
X37500D01*
X17500Y122120D02*
X37500D01*
X17500Y122080D02*
X37500D01*
X17500Y122160D02*
X37500D01*
X17500Y104360D02*
X37500D01*
X17500Y104800D02*
X37500D01*
X17500Y102940D02*
X37500D01*
X17500Y104700D02*
X37500D01*
X17500Y105480D02*
X37500D01*
X17500Y105680D02*
X37500D01*
X17500Y103300D02*
X37500D01*
X17500Y105040D02*
X37500D01*
X17500Y103140D02*
X37500D01*
X17500Y102960D02*
X37500D01*
X17500Y103620D02*
X37500D01*
X17500Y103720D02*
X37500D01*
X17500Y103320D02*
X37500D01*
X17500Y105960D02*
X37500D01*
X17500Y104840D02*
X37500D01*
X17500Y103600D02*
X37500D01*
X17500Y103840D02*
X37500D01*
X17500Y103220D02*
X37500D01*
X17500Y103780D02*
X37500D01*
X17500Y105780D02*
X37500D01*
X17500Y103380D02*
X37500D01*
X17500Y102720D02*
X37500D01*
X17500Y104020D02*
X37500D01*
X17500Y104420D02*
X37500D01*
X17500Y105420D02*
X37500D01*
X17500Y104900D02*
X37500D01*
X17500Y104740D02*
X37500D01*
X17500Y102700D02*
X37500D01*
X17500Y104520D02*
X37500D01*
X17500Y105700D02*
X37500D01*
X17500Y103820D02*
X37500D01*
X17500Y103560D02*
X37500D01*
X17500Y105840D02*
X37500D01*
X17500Y105620D02*
X37500D01*
X17500Y104660D02*
X37500D01*
X17500Y105080D02*
X37500D01*
X17500Y103200D02*
X37500D01*
X17500Y103400D02*
X37500D01*
X17500Y105180D02*
X37500D01*
X17500Y103260D02*
X37500D01*
X17500Y104400D02*
X37500D01*
X17500Y103740D02*
X37500D01*
X17500Y104480D02*
X37500D01*
X17500Y104720D02*
X37500D01*
X17500Y102980D02*
X37500D01*
X17500Y105520D02*
X37500D01*
X17500Y103800D02*
X37500D01*
X17500Y105640D02*
X37500D01*
X17500Y104500D02*
X37500D01*
X17500Y102760D02*
X37500D01*
X17500Y103640D02*
X37500D01*
X17500Y103480D02*
X37500D01*
X17500Y103120D02*
X37500D01*
X17500Y103420D02*
X37500D01*
X17500Y104080D02*
X37500D01*
X17500Y104160D02*
X37500D01*
X17500Y104760D02*
X37500D01*
X17500Y103040D02*
X37500D01*
X17500Y102880D02*
X37500D01*
X17500Y104440D02*
X37500D01*
X17500Y105500D02*
X37500D01*
X17500Y103860D02*
X37500D01*
X17500Y105920D02*
X37500D01*
X17500Y105240D02*
X37500D01*
X17500Y104460D02*
X37500D01*
X17500Y105020D02*
X37500D01*
X17500Y103340D02*
X37500D01*
X17500Y103580D02*
X37500D01*
X17500Y105200D02*
X37500D01*
X17500Y104200D02*
X37500D01*
X17500Y104620D02*
X37500D01*
X17500Y105540D02*
X37500D01*
X17500Y104980D02*
X37500D01*
X17500Y104040D02*
X37500D01*
X17500Y103980D02*
X37500D01*
X17500Y105340D02*
X37500D01*
X17500Y105740D02*
X37500D01*
X17500Y103440D02*
X37500D01*
X17500Y103280D02*
X37500D01*
X17500Y105100D02*
X37500D01*
X17500Y105160D02*
X37500D01*
X17500Y103060D02*
X37500D01*
X17500Y105900D02*
X37500D01*
X17500Y104880D02*
X37500D01*
X17500Y104560D02*
X37500D01*
X17500Y103700D02*
X37500D01*
X17500Y104860D02*
X37500D01*
X17500Y102840D02*
X37500D01*
X17500Y102860D02*
X37500D01*
X17500Y104820D02*
X37500D01*
X17500Y105320D02*
X37500D01*
X17500Y104060D02*
X37500D01*
X17500Y105660D02*
X37500D01*
X17500Y104920D02*
X37500D01*
X17500Y105380D02*
X37500D01*
X17500Y103880D02*
X37500D01*
X17500Y103960D02*
X37500D01*
X17500Y104940D02*
X37500D01*
X17500Y105600D02*
X37500D01*
X17500Y105260D02*
X37500D01*
X17500Y105120D02*
X37500D01*
X17500Y103520D02*
X37500D01*
X17500Y104280D02*
X37500D01*
X17500Y103020D02*
X37500D01*
X17500Y105860D02*
X37500D01*
X17500Y103500D02*
X37500D01*
X17500Y104640D02*
X37500D01*
X17500Y103940D02*
X37500D01*
X17500Y103180D02*
X37500D01*
X17500Y103000D02*
X37500D01*
X17500Y104540D02*
X37500D01*
X17500Y102740D02*
X37500D01*
X17500Y104180D02*
X37500D01*
X17500Y102780D02*
X37500D01*
X17500Y103100D02*
X37500D01*
X17500Y102900D02*
X37500D01*
X17500Y104100D02*
X37500D01*
X17500Y103540D02*
X37500D01*
X17500Y104120D02*
X37500D01*
X17500Y103920D02*
X37500D01*
X17500Y103760D02*
X37500D01*
X17500Y105820D02*
X37500D01*
X17500Y104680D02*
X37500D01*
X17500Y105400D02*
X37500D01*
X17500Y105060D02*
X37500D01*
X17500Y103360D02*
X37500D01*
X17500Y105140D02*
X37500D01*
X17500Y104780D02*
X37500D01*
X17500Y105360D02*
X37500D01*
X17500Y104240D02*
X37500D01*
X17500Y103240D02*
X37500D01*
X17500Y104380D02*
X37500D01*
X17500Y103680D02*
X37500D01*
X17500Y104220D02*
X37500D01*
X17500Y105760D02*
X37500D01*
X17500Y102920D02*
X37500D01*
X17500Y104260D02*
X37500D01*
X17500Y105280D02*
X37500D01*
X17500Y105300D02*
X37500D01*
X17500Y105880D02*
X37500D01*
X17500Y103460D02*
X37500D01*
X17500Y105580D02*
X37500D01*
X17500Y103900D02*
X37500D01*
X17500Y102800D02*
X37500D01*
X17500Y104320D02*
X37500D01*
X17500Y104580D02*
X37500D01*
X17500Y105440D02*
X37500D01*
X17500Y104000D02*
X37500D01*
X17500Y104600D02*
X37500D01*
X17500Y103080D02*
X37500D01*
X17500Y104960D02*
X37500D01*
X17500Y104340D02*
X37500D01*
X17500Y104140D02*
X37500D01*
X17500Y104300D02*
X37500D01*
X17500Y105000D02*
X37500D01*
X17500Y105560D02*
X37500D01*
X17500Y103660D02*
X37500D01*
X17500Y105940D02*
X37500D01*
X17500Y102820D02*
X37500D01*
X17500Y105460D02*
X37500D01*
X17500Y105220D02*
X37500D01*
X17500Y105720D02*
X37500D01*
X17500Y105800D02*
X37500D01*
X17500Y103160D02*
X37500D01*
X25260Y118560D02*
X26300D01*
X21020Y118180D02*
X23220D01*
X17500D02*
X18840D01*
X17500Y118560D02*
X19060D01*
X35120Y118200D02*
X37500D01*
X36560Y118580D02*
X37500D01*
X31560Y118200D02*
X33260D01*
X31200Y118580D02*
X31840D01*
X28100Y118200D02*
X30080D01*
X28100Y118580D02*
X30080D01*
X25480Y118200D02*
X26300D01*
X25260Y118580D02*
X26300D01*
X21020Y118200D02*
X23180D01*
X17500Y118580D02*
X19080D01*
X17500Y118200D02*
X18860D01*
X36560Y118600D02*
X37500D01*
X35120Y118220D02*
X37500D01*
X31180Y118600D02*
X31820D01*
X31540Y118220D02*
X33260D01*
X28100Y118600D02*
X30080D01*
X28100Y118220D02*
X30080D01*
X25240Y118600D02*
X26300D01*
X25480Y118220D02*
X26300D01*
X17500Y118600D02*
X19100D01*
X21060Y118220D02*
X23160D01*
X36560Y118620D02*
X37500D01*
X17500Y118220D02*
X18860D01*
X31160Y118620D02*
X31800D01*
X35120Y118240D02*
X37500D01*
X28100Y118620D02*
X30080D01*
X31520Y118240D02*
X33260D01*
X25220Y118620D02*
X26300D01*
X28100Y118240D02*
X30080D01*
X17500Y118620D02*
X19100D01*
X25460Y118240D02*
X26300D01*
X36560Y118640D02*
X37500D01*
X21080Y118240D02*
X23120D01*
X31140Y118640D02*
X31760D01*
X17500Y118240D02*
X18880D01*
X28100Y118640D02*
X30080D01*
X35120Y118260D02*
X37500D01*
X25220Y118640D02*
X26300D01*
X31500Y118260D02*
X33260D01*
X17500Y118640D02*
X19120D01*
X28100Y118260D02*
X30080D01*
X36560Y118660D02*
X37500D01*
X25440Y118260D02*
X26300D01*
X31120Y118660D02*
X31740D01*
X21120Y118260D02*
X23080D01*
X28100Y118660D02*
X30080D01*
X17500Y118260D02*
X18880D01*
X25200Y118660D02*
X26300D01*
X35120Y118280D02*
X37500D01*
X17500Y118660D02*
X19140D01*
X31480Y118280D02*
X33260D01*
X36560Y118680D02*
X37500D01*
X28100Y118280D02*
X30080D01*
X31100Y118680D02*
X31720D01*
X25440Y118280D02*
X26300D01*
X28100Y118680D02*
X30080D01*
X21140Y118280D02*
X23060D01*
X25180Y118680D02*
X26300D01*
X17500Y118280D02*
X18900D01*
X17500Y118680D02*
X19140D01*
X35120Y118300D02*
X37500D01*
X36560Y118700D02*
X37500D01*
X31480Y118300D02*
X33260D01*
X31080Y118700D02*
X31700D01*
X28100Y118300D02*
X30080D01*
X28100Y118700D02*
X30080D01*
X25420Y118300D02*
X26300D01*
X25160Y118700D02*
X26300D01*
X21180Y118300D02*
X23020D01*
X17500Y118700D02*
X19180D01*
X17500Y118300D02*
X18900D01*
X36560Y118720D02*
X37500D01*
X35120Y118320D02*
X37500D01*
X31060Y118720D02*
X31680D01*
X31460Y118320D02*
X33260D01*
X28100Y118720D02*
X30080D01*
X28100Y118320D02*
X30080D01*
X25140Y118720D02*
X26300D01*
X25420Y118320D02*
X26300D01*
X17500Y118720D02*
X19200D01*
X21220Y118320D02*
X22980D01*
X36560Y118740D02*
X37500D01*
X17500Y118320D02*
X18920D01*
X31040Y118740D02*
X31660D01*
X35120Y118340D02*
X37500D01*
X28100Y118740D02*
X30080D01*
X31440Y118340D02*
X33260D01*
X25120Y118740D02*
X26300D01*
X28100Y118340D02*
X30080D01*
X17500Y118740D02*
X19200D01*
X25400Y118340D02*
X26300D01*
X36560Y118760D02*
X37500D01*
X21260Y118340D02*
X22940D01*
X31020Y118760D02*
X31640D01*
X17500Y118340D02*
X18920D01*
X28100Y118760D02*
X30080D01*
X35120Y118360D02*
X37500D01*
X25120Y118760D02*
X26300D01*
X31420Y118360D02*
X33260D01*
X17500Y118760D02*
X19220D01*
X28100Y118360D02*
X30080D01*
X36560Y118780D02*
X37500D01*
X25400Y118360D02*
X26300D01*
X31000Y118780D02*
X31620D01*
X21300Y118360D02*
X22880D01*
X28100Y118780D02*
X30080D01*
X17500Y118360D02*
X18940D01*
X25100Y118780D02*
X26300D01*
X35120Y118380D02*
X37500D01*
X17500Y118780D02*
X19240D01*
X31400Y118380D02*
X33260D01*
X36560Y118800D02*
X37500D01*
X28100Y118380D02*
X30080D01*
X30980Y118800D02*
X31600D01*
X25380Y118380D02*
X26300D01*
X28100Y118800D02*
X30080D01*
X21340Y118380D02*
X22840D01*
X25080Y118800D02*
X26300D01*
X17500Y118380D02*
X18960D01*
X17500Y118800D02*
X19260D01*
X35120Y118400D02*
X37500D01*
X36560Y118820D02*
X37500D01*
X31380Y118400D02*
X33260D01*
X30960Y118820D02*
X31580D01*
X28100Y118400D02*
X30080D01*
X28100Y118820D02*
X30080D01*
X25360Y118400D02*
X26300D01*
X25060Y118820D02*
X26300D01*
X21400Y118400D02*
X22780D01*
X17500Y118820D02*
X19260D01*
X17500Y118400D02*
X18960D01*
X36560Y118840D02*
X37500D01*
X36560Y118420D02*
X37500D01*
X30940Y118840D02*
X31580D01*
X31360Y118420D02*
X32000D01*
X28100Y118840D02*
X30080D01*
X28100Y118420D02*
X30080D01*
X25040Y118840D02*
X26300D01*
X25360Y118420D02*
X26300D01*
X17500Y118840D02*
X19280D01*
X21460Y118420D02*
X22740D01*
X36560Y118860D02*
X37500D01*
X17500Y118420D02*
X18980D01*
X30920Y118860D02*
X31580D01*
X36560Y118440D02*
X37500D01*
X28100Y118860D02*
X30080D01*
X31340Y118440D02*
X31980D01*
X25040Y118860D02*
X26300D01*
X28100Y118440D02*
X30080D01*
X17500Y118860D02*
X19300D01*
X25340Y118440D02*
X26300D01*
X36560Y118880D02*
X37500D01*
X21520Y118440D02*
X22680D01*
X30900Y118880D02*
X31560D01*
X17500Y118440D02*
X18980D01*
X28100Y118880D02*
X30080D01*
X36560Y118460D02*
X37500D01*
X25020Y118880D02*
X26300D01*
X31320Y118460D02*
X31960D01*
X17500Y118880D02*
X19320D01*
X28100Y118460D02*
X30080D01*
X36560Y118900D02*
X37500D01*
X25340Y118460D02*
X26300D01*
X30880Y118900D02*
X31540D01*
X21580Y118460D02*
X22600D01*
X28100Y118900D02*
X30080D01*
X17500Y118460D02*
X19000D01*
X25000Y118900D02*
X26300D01*
X36560Y118480D02*
X37500D01*
X17500Y118900D02*
X19340D01*
X31300Y118480D02*
X31940D01*
X36560Y118920D02*
X37500D01*
X28100Y118480D02*
X30080D01*
X30860Y118920D02*
X31520D01*
X25320Y118480D02*
X26300D01*
X28100Y118920D02*
X30080D01*
X21660Y118480D02*
X22520D01*
X24980Y118920D02*
X26300D01*
X17500Y118480D02*
X19020D01*
X17500Y118920D02*
X19360D01*
X36560Y118500D02*
X37500D01*
X36560Y118940D02*
X37500D01*
X31280Y118500D02*
X31920D01*
X30840Y118940D02*
X31500D01*
X28100Y118500D02*
X30080D01*
X28100Y118940D02*
X30080D01*
X25300Y118500D02*
X26300D01*
X24960Y118940D02*
X26300D01*
X21760Y118500D02*
X22400D01*
X17500Y118940D02*
X19360D01*
X17500Y118500D02*
X19020D01*
X36560Y118960D02*
X37500D01*
X36560Y118520D02*
X37500D01*
X30820Y118960D02*
X31480D01*
X31260Y118520D02*
X31900D01*
X28100Y118960D02*
X30080D01*
X28100Y118520D02*
X30080D01*
X24940Y118960D02*
X26300D01*
X25300Y118520D02*
X26300D01*
X17500Y118960D02*
X19380D01*
X21920Y118520D02*
X22240D01*
X36560Y118980D02*
X37500D01*
X17500Y118520D02*
X19040D01*
X30800Y118980D02*
X31460D01*
X36560Y118540D02*
X37500D01*
X28100Y118980D02*
X30080D01*
X31240Y118540D02*
X31880D01*
X24920Y118980D02*
X26300D01*
X28100Y118540D02*
X30080D01*
X17500Y118980D02*
X19400D01*
X25280Y118540D02*
X26300D01*
X36560Y119000D02*
X37500D01*
X17500Y118540D02*
X19060D01*
X30780Y119000D02*
X31440D01*
X36560Y118560D02*
X37500D01*
X28100Y119000D02*
X30080D01*
X31220Y118560D02*
X31860D01*
X24920Y119000D02*
X26300D01*
X28100Y118560D02*
X30080D01*
X17500Y119000D02*
X19420D01*
X25540Y118080D02*
X26300D01*
X28100D02*
X30080D01*
X25500Y118180D02*
X26300D01*
X31660Y118080D02*
X33260D01*
X28100Y118180D02*
X30080D01*
X35120Y118080D02*
X37500D01*
X31580Y118180D02*
X33260D01*
X17500Y118060D02*
X18780D01*
X35120Y118180D02*
X37500D01*
X20860Y118060D02*
X23360D01*
X17500Y118160D02*
X18840D01*
X25560Y118060D02*
X26300D01*
X20980Y118160D02*
X23240D01*
X28100Y118060D02*
X30080D01*
X25500Y118160D02*
X26300D01*
X31680Y118060D02*
X33260D01*
X28100Y118160D02*
X30080D01*
X35120Y118060D02*
X37500D01*
X31600Y118160D02*
X33260D01*
X17500Y118040D02*
X18780D01*
X35120Y118160D02*
X37500D01*
X20840Y118040D02*
X23380D01*
X17500Y118140D02*
X18820D01*
X25560Y118040D02*
X26300D01*
X20960Y118140D02*
X23280D01*
X28100Y118040D02*
X30080D01*
X25520Y118140D02*
X26300D01*
X31700Y118040D02*
X33260D01*
X28100Y118140D02*
X30080D01*
X35120Y118040D02*
X37500D01*
X31620Y118140D02*
X33260D01*
X17500Y118020D02*
X18760D01*
X35120Y118140D02*
X37500D01*
X20820Y118020D02*
X23400D01*
X17500Y118120D02*
X18820D01*
X25560Y118020D02*
X26300D01*
X20940Y118120D02*
X23300D01*
X28100Y118020D02*
X30080D01*
X25520Y118120D02*
X26300D01*
X31720Y118020D02*
X33260D01*
X28100Y118120D02*
X30080D01*
X35120Y118020D02*
X37500D01*
X31620Y118120D02*
X33260D01*
X17500Y118000D02*
X18760D01*
X35120Y118120D02*
X37500D01*
X20800Y118000D02*
X23420D01*
X17500Y118100D02*
X18800D01*
X25580Y118000D02*
X26300D01*
X20900Y118100D02*
X23320D01*
X28100Y118000D02*
X30080D01*
X25540Y118100D02*
X26300D01*
X31740Y118000D02*
X33260D01*
X28100Y118100D02*
X30080D01*
X35120Y118000D02*
X37500D01*
X31640Y118100D02*
X33260D01*
X17500Y117980D02*
X18740D01*
X35120Y118100D02*
X37500D01*
X20780Y117980D02*
X23460D01*
X31760D02*
X33260D01*
X28100D02*
X30080D01*
X20880Y118080D02*
X23340D01*
X25580Y117980D02*
X26300D01*
X17500Y118080D02*
X18800D01*
X30520Y119280D02*
X31160D01*
X30560Y119240D02*
X31200D01*
X24680D02*
X26300D01*
X17500Y119040D02*
X19460D01*
X28100Y119240D02*
X30080D01*
X28100Y119020D02*
X30080D01*
X24900D02*
X26300D01*
X24880Y119040D02*
X26300D01*
X24660Y119260D02*
X26300D01*
X28100Y119040D02*
X30080D01*
X28100Y119260D02*
X30080D01*
X30760Y119040D02*
X31400D01*
X30540Y119260D02*
X31180D01*
X36560Y119040D02*
X37500D01*
X36560Y119260D02*
X37500D01*
X17500Y119020D02*
X19440D01*
X36560D02*
X37500D01*
X30780D02*
X31420D01*
X24800Y119120D02*
X26300D01*
X24560Y119340D02*
X26300D01*
X17500Y119320D02*
X19740D01*
X28100Y119120D02*
X30080D01*
X24620Y119280D02*
X26300D01*
X28100D02*
X30080D01*
X30480Y119320D02*
X31140D01*
X28100Y119300D02*
X30080D01*
X17500D02*
X19720D01*
X28100Y119080D02*
X30080D01*
X24600Y119300D02*
X26300D01*
X17500Y119080D02*
X19500D01*
X24840D02*
X26300D01*
X36560Y119440D02*
X37500D01*
X36560Y119220D02*
X37500D01*
X30400Y119440D02*
X31020D01*
X36560Y119080D02*
X37500D01*
X36560Y119320D02*
X37500D01*
X30500Y119300D02*
X31140D01*
X30720Y119080D02*
X31360D01*
X36560Y119100D02*
X37500D01*
X17500Y119200D02*
X19620D01*
X36560D02*
X37500D01*
X17500Y119180D02*
X19600D01*
X24580Y119320D02*
X26300D01*
X28100Y119100D02*
X30080D01*
X17500Y119400D02*
X19820D01*
X30440Y119380D02*
X31080D01*
X24480Y119420D02*
X26300D01*
X24740Y119180D02*
X26300D01*
X30660Y119140D02*
X31300D01*
X30640Y119160D02*
X31280D01*
X28100Y119380D02*
X30080D01*
X30440Y119400D02*
X31060D01*
X30620Y119180D02*
X31260D01*
X28100Y119400D02*
X30080D01*
X30600Y119200D02*
X31240D01*
X24500Y119400D02*
X26300D01*
X28100Y119180D02*
X30080D01*
X36560D02*
X37500D01*
X36560Y119380D02*
X37500D01*
X17500Y119140D02*
X19560D01*
X30420Y119420D02*
X31040D01*
X28100D02*
X30080D01*
X17500Y119160D02*
X19580D01*
X36560D02*
X37500D01*
X36560Y119360D02*
X37500D01*
X17500Y119120D02*
X19540D01*
X17500Y119060D02*
X19480D01*
X17500Y119100D02*
X19520D01*
X24560Y119360D02*
X26300D01*
X28100Y119320D02*
X30080D01*
X24720Y119200D02*
X26300D01*
X24820Y119100D02*
X26300D01*
X30740Y119060D02*
X31380D01*
X36560Y119240D02*
X37500D01*
X36560Y119460D02*
X37500D01*
X17500Y119340D02*
X19780D01*
X17500Y119440D02*
X19880D01*
X17500Y119280D02*
X19700D01*
X36560Y119340D02*
X37500D01*
X28100Y119140D02*
X30080D01*
X24860Y119060D02*
X26300D01*
X24700Y119220D02*
X26300D01*
X36560Y119120D02*
X37500D01*
X28100Y119360D02*
X30080D01*
X30700Y119100D02*
X31340D01*
X17500Y119420D02*
X19840D01*
X30580Y119220D02*
X31220D01*
X28100Y119200D02*
X30080D01*
X30460Y119340D02*
X31120D01*
X30680Y119120D02*
X31320D01*
X36560Y119140D02*
X37500D01*
X28100Y119340D02*
X30080D01*
X30440Y119360D02*
X31100D01*
X28100Y119060D02*
X30080D01*
X28100Y119440D02*
X30080D01*
X36560Y119300D02*
X37500D01*
X28100Y119220D02*
X30080D01*
X17500D02*
X19640D01*
X24460Y119440D02*
X26300D01*
X28100Y119160D02*
X30080D01*
X24540Y119380D02*
X26300D01*
X24780Y119140D02*
X26300D01*
X17500Y119360D02*
X19780D01*
X36560Y119420D02*
X37500D01*
X17500Y119380D02*
X19800D01*
X36560Y119400D02*
X37500D01*
X24760Y119160D02*
X26300D01*
X17500Y119260D02*
X19680D01*
X36560Y119280D02*
X37500D01*
X17500Y119240D02*
X19660D01*
X36560Y119060D02*
X37500D01*
M02*
