G04 Layer_Color=8388736*
%FSLAX25Y25*%
%MOIN*%
G70*
G01*
G75*
%ADD25R,0.12611X0.12611*%
%ADD26R,0.06312X0.06706*%
%ADD27R,0.03162X0.04540*%
G04:AMPARAMS|DCode=28|XSize=31.62mil|YSize=45.4mil|CornerRadius=0mil|HoleSize=0mil|Usage=FLASHONLY|Rotation=112.500|XOffset=0mil|YOffset=0mil|HoleType=Round|Shape=Rectangle|*
%AMROTATEDRECTD28*
4,1,4,0.02702,-0.00592,-0.01492,-0.02330,-0.02702,0.00592,0.01492,0.02330,0.02702,-0.00592,0.0*
%
%ADD28ROTATEDRECTD28*%

%ADD29C,0.08674*%
%ADD30C,0.08674*%
%ADD31C,0.06706*%
%ADD32R,0.06706X0.06706*%
%ADD33C,0.20485*%
%ADD34C,0.04800*%
D25*
X-41500Y-33000D02*
D03*
Y31000D02*
D03*
D26*
X51563Y171500D02*
D03*
X59437D02*
D03*
D27*
X3740Y32185D02*
D03*
X-3740D02*
D03*
X0Y22933D02*
D03*
D28*
X-31166Y-8858D02*
D03*
X-28303Y-15769D02*
D03*
X-21187Y-8773D02*
D03*
D29*
X-23622Y31496D02*
D03*
D30*
X23622Y-31496D02*
D03*
D31*
X60709Y192087D02*
D03*
Y182087D02*
D03*
X50709Y192087D02*
D03*
Y182087D02*
D03*
X40709Y192087D02*
D03*
D32*
Y182087D02*
D03*
D33*
X0Y0D02*
D03*
D34*
X-25000Y42500D02*
D03*
X0Y37500D02*
D03*
X-31500Y-33000D02*
D03*
X10000Y27000D02*
D03*
X15000Y23000D02*
D03*
X-34731Y-15769D02*
D03*
X-17500Y-2500D02*
D03*
X-26500Y2500D02*
D03*
M02*
