G04 Layer_Physical_Order=1*
G04 Layer_Color=255*
%FSLAX25Y25*%
%MOIN*%
G70*
G01*
G75*
%ADD10R,0.11811X0.11811*%
%ADD11R,0.05512X0.05905*%
%ADD12R,0.02362X0.03740*%
G04:AMPARAMS|DCode=13|XSize=23.62mil|YSize=37.4mil|CornerRadius=0mil|HoleSize=0mil|Usage=FLASHONLY|Rotation=112.500|XOffset=0mil|YOffset=0mil|HoleType=Round|Shape=Rectangle|*
%AMROTATEDRECTD13*
4,1,4,0.02180,-0.00376,-0.01276,-0.01807,-0.02180,0.00376,0.01276,0.01807,0.02180,-0.00376,0.0*
%
%ADD13ROTATEDRECTD13*%

%ADD14C,0.03000*%
%ADD15C,0.01000*%
%ADD16C,0.07874*%
%ADD17C,0.07874*%
%ADD18C,0.05905*%
%ADD19R,0.05905X0.05905*%
%ADD20C,0.19685*%
%ADD21C,0.04000*%
D10*
X-41500Y-33000D02*
D03*
Y31000D02*
D03*
D11*
X51563Y171500D02*
D03*
X59437D02*
D03*
D12*
X3740Y32185D02*
D03*
X-3740D02*
D03*
X0Y22933D02*
D03*
D13*
X-31166Y-8858D02*
D03*
X-28303Y-15769D02*
D03*
X-21187Y-8773D02*
D03*
D14*
X-30000Y42500D02*
X-25000D01*
X-41500Y31000D02*
X-30000Y42500D01*
X-41500Y-33000D02*
X-31500D01*
D15*
X3740Y32185D02*
Y36260D01*
X2500Y37500D02*
X3740Y36260D01*
X0Y37500D02*
X2500D01*
X33500Y162500D02*
X37500Y166500D01*
X36500Y198000D02*
X54795D01*
X21500Y183000D02*
X36500Y198000D01*
X50709Y172354D02*
Y182087D01*
Y172354D02*
X51563Y171500D01*
X60709Y172772D02*
Y182087D01*
X59437Y171500D02*
X60709Y172772D01*
X37500Y166500D02*
X58000D01*
X59437Y167937D01*
Y171500D01*
X54795Y198000D02*
X60709Y192087D01*
X54795Y198000D02*
Y198000D01*
X37937Y171500D02*
X51563D01*
X27500Y161063D02*
X37937Y171500D01*
X3740Y32185D02*
X22185D01*
X27500Y37500D01*
Y161063D01*
X11500Y42500D02*
X21500Y52500D01*
X-7500Y42500D02*
X11500D01*
X21500Y52500D02*
Y183000D01*
X-3740Y31740D02*
Y32185D01*
Y31740D02*
X1000Y27000D01*
X28000D02*
X33500Y32500D01*
Y162500D01*
X1000Y27000D02*
X10000D01*
X28000D01*
X67Y23000D02*
X15000D01*
X0Y22933D02*
X67Y23000D01*
X-15000Y35000D02*
X-7500Y42500D01*
X-34731Y-15769D02*
X-28303D01*
X-21187Y-8773D02*
X-17500Y-5086D01*
Y-2500D01*
X-37500Y3500D02*
X-15000Y26000D01*
X-37500Y-13000D02*
Y3500D01*
Y-13000D02*
X-34731Y-15769D01*
X-15000Y26000D02*
Y35000D01*
X-31166Y-8858D02*
X-26500Y-4192D01*
Y2500D01*
D16*
X-23622Y31496D02*
D03*
D17*
X23622Y-31496D02*
D03*
D18*
X60709Y192087D02*
D03*
Y182087D02*
D03*
X50709Y192087D02*
D03*
Y182087D02*
D03*
X40709Y192087D02*
D03*
D19*
Y182087D02*
D03*
D20*
X0Y0D02*
D03*
D21*
X-25000Y42500D02*
D03*
X0Y37500D02*
D03*
X-31500Y-33000D02*
D03*
X10000Y27000D02*
D03*
X15000Y23000D02*
D03*
X-34731Y-15769D02*
D03*
X-17500Y-2500D02*
D03*
X-26500Y2500D02*
D03*
M02*
