G04 Layer_Color=8421504*
%FSLAX25Y25*%
%MOIN*%
G70*
G01*
G75*
%ADD10R,0.05512X0.04331*%
%ADD11R,0.04449X0.09606*%
%ADD12R,0.03937X0.06693*%
D10*
X39370Y-16732D02*
D03*
Y-22638D02*
D03*
X-0Y-16732D02*
D03*
Y-22638D02*
D03*
X59055Y-16732D02*
D03*
Y-22638D02*
D03*
X19685Y-16732D02*
D03*
Y-22638D02*
D03*
X39370Y-56102D02*
D03*
Y-62008D02*
D03*
X59055Y-56102D02*
D03*
Y-62008D02*
D03*
X19685Y-56102D02*
D03*
Y-62008D02*
D03*
X-0Y-56102D02*
D03*
Y-62008D02*
D03*
X0Y16732D02*
D03*
Y22638D02*
D03*
X59055Y16732D02*
D03*
Y22638D02*
D03*
X39370Y16732D02*
D03*
Y22638D02*
D03*
X19685Y16732D02*
D03*
Y22638D02*
D03*
X0Y56102D02*
D03*
Y62008D02*
D03*
X19685Y56102D02*
D03*
Y62008D02*
D03*
X39370Y56102D02*
D03*
Y62008D02*
D03*
X59055Y56102D02*
D03*
Y62008D02*
D03*
D11*
X100000Y-102858D02*
D03*
X90000D02*
D03*
X80000D02*
D03*
X70000D02*
D03*
X100000Y-69000D02*
D03*
X90000D02*
D03*
X70000D02*
D03*
X80000D02*
D03*
D12*
X-63000Y51961D02*
D03*
Y76764D02*
D03*
X-77961Y51961D02*
D03*
Y76764D02*
D03*
X-63000Y8961D02*
D03*
Y33764D02*
D03*
X-77961Y8961D02*
D03*
Y33764D02*
D03*
X-63000Y-34039D02*
D03*
Y-9236D02*
D03*
X-77961Y-34039D02*
D03*
Y-9236D02*
D03*
X-63000Y-77039D02*
D03*
Y-52236D02*
D03*
X-77961Y-77039D02*
D03*
Y-52236D02*
D03*
M02*
