G04 Layer_Color=32768*
%FSLAX25Y25*%
%MOIN*%
G70*
G01*
G75*
%ADD48C,0.00394*%
%ADD51C,0.00197*%
D48*
X68976Y-5315D02*
G03*
X68976Y-5315I-1969J0D01*
G01*
X92476Y-49315D02*
G03*
X92476Y-49315I-1969J0D01*
G01*
X68669Y-22658D02*
Y-17343D01*
X77331Y-22658D02*
Y-17343D01*
X68669Y-22658D02*
X77331D01*
X68669Y-17343D02*
X77331D01*
X73000Y-21969D02*
Y-18032D01*
X71031Y-20000D02*
X74968D01*
X13457Y-24595D02*
Y-21839D01*
X15228D01*
Y-20854D01*
X13457D02*
X15228D01*
X13457D02*
Y-18295D01*
X15228D01*
Y-17705D01*
X13457D02*
X15228D01*
X13457D02*
Y-15146D01*
X15228D01*
Y-14161D01*
X13457D02*
X15228D01*
X13457D02*
Y-11406D01*
Y-24595D02*
X20543D01*
Y-21839D01*
X18772D02*
X20543D01*
X18772D02*
Y-20854D01*
X20543D01*
Y-18295D01*
X18772D02*
X20543D01*
X18772D02*
Y-17705D01*
X20543D01*
Y-15146D01*
X18772D02*
X20543D01*
X18772D02*
Y-14161D01*
X20543D01*
Y-11406D01*
X13457D02*
X20543D01*
X17000Y-19969D02*
Y-16032D01*
X15032Y-18000D02*
X18969D01*
X73343Y-13331D02*
X78658D01*
X73343Y-4669D02*
X78658D01*
Y-13331D02*
Y-4669D01*
X73343Y-13331D02*
Y-4669D01*
X74032Y-9000D02*
X77969D01*
X76000Y-10968D02*
Y-7032D01*
X52839Y-43543D02*
X55594D01*
X52839D02*
Y-41772D01*
X51854D02*
X52839D01*
X51854Y-43543D02*
Y-41772D01*
X49295Y-43543D02*
X51854D01*
X49295D02*
Y-41772D01*
X48705D02*
X49295D01*
X48705Y-43543D02*
Y-41772D01*
X46146Y-43543D02*
X48705D01*
X46146D02*
Y-41772D01*
X45161D02*
X46146D01*
X45161Y-43543D02*
Y-41772D01*
X42406Y-43543D02*
X45161D01*
X55594D02*
Y-36457D01*
X52839D02*
X55594D01*
X52839Y-38228D02*
Y-36457D01*
X51854Y-38228D02*
X52839D01*
X51854D02*
Y-36457D01*
X49295D02*
X51854D01*
X49295Y-38228D02*
Y-36457D01*
X48705Y-38228D02*
X49295D01*
X48705D02*
Y-36457D01*
X46146D02*
X48705D01*
X46146Y-38228D02*
Y-36457D01*
X45161Y-38228D02*
X46146D01*
X45161D02*
Y-36457D01*
X42406D02*
X45161D01*
X42406Y-43543D02*
Y-36457D01*
X47032Y-40000D02*
X50968D01*
X49000Y-41969D02*
Y-38032D01*
X32543Y20839D02*
Y23595D01*
X30772Y20839D02*
X32543D01*
X30772Y19854D02*
Y20839D01*
Y19854D02*
X32543D01*
Y17295D02*
Y19854D01*
X30772Y17295D02*
X32543D01*
X30772Y16705D02*
Y17295D01*
Y16705D02*
X32543D01*
Y14146D02*
Y16705D01*
X30772Y14146D02*
X32543D01*
X30772Y13161D02*
Y14146D01*
Y13161D02*
X32543D01*
Y10406D02*
Y13161D01*
X25457Y23595D02*
X32543D01*
X25457Y20839D02*
Y23595D01*
Y20839D02*
X27228D01*
Y19854D02*
Y20839D01*
X25457Y19854D02*
X27228D01*
X25457Y17295D02*
Y19854D01*
Y17295D02*
X27228D01*
Y16705D02*
Y17295D01*
X25457Y16705D02*
X27228D01*
X25457Y14146D02*
Y16705D01*
Y14146D02*
X27228D01*
Y13161D02*
Y14146D01*
X25457Y13161D02*
X27228D01*
X25457Y10406D02*
Y13161D01*
Y10406D02*
X32543D01*
X29000Y15032D02*
Y18969D01*
X27031Y17000D02*
X30968D01*
X71839Y47457D02*
X74594D01*
X71839D02*
Y49228D01*
X70854D02*
X71839D01*
X70854Y47457D02*
Y49228D01*
X68295Y47457D02*
X70854D01*
X68295D02*
Y49228D01*
X67705D02*
X68295D01*
X67705Y47457D02*
Y49228D01*
X65146Y47457D02*
X67705D01*
X65146D02*
Y49228D01*
X64161D02*
X65146D01*
X64161Y47457D02*
Y49228D01*
X61405Y47457D02*
X64161D01*
X74594D02*
Y54543D01*
X71839D02*
X74594D01*
X71839Y52772D02*
Y54543D01*
X70854Y52772D02*
X71839D01*
X70854D02*
Y54543D01*
X68295D02*
X70854D01*
X68295Y52772D02*
Y54543D01*
X67705Y52772D02*
X68295D01*
X67705D02*
Y54543D01*
X65146D02*
X67705D01*
X65146Y52772D02*
Y54543D01*
X64161Y52772D02*
X65146D01*
X64161D02*
Y54543D01*
X61405D02*
X64161D01*
X61405Y47457D02*
Y54543D01*
X66031Y51000D02*
X69968D01*
X68000Y49031D02*
Y52969D01*
X37402Y-19685D02*
X41339D01*
X39370Y-21654D02*
Y-17717D01*
X42520Y-25197D02*
Y-14173D01*
X36220Y-25197D02*
Y-14173D01*
X42520D01*
X36220Y-25197D02*
X42520D01*
X-1969Y-19685D02*
X1969D01*
X-0Y-21654D02*
Y-17717D01*
X3150Y-25197D02*
Y-14173D01*
X-3150Y-25197D02*
Y-14173D01*
X3150D01*
X-3150Y-25197D02*
X3150D01*
X57087Y-19685D02*
X61024D01*
X59055Y-21654D02*
Y-17717D01*
X62205Y-25197D02*
Y-14173D01*
X55905Y-25197D02*
Y-14173D01*
X62205D01*
X55905Y-25197D02*
X62205D01*
X17717Y-19685D02*
X21654D01*
X19685Y-21654D02*
Y-17717D01*
X22835Y-25197D02*
Y-14173D01*
X16535Y-25197D02*
Y-14173D01*
X22835D01*
X16535Y-25197D02*
X22835D01*
X37402Y-59055D02*
X41339D01*
X39370Y-61024D02*
Y-57087D01*
X42520Y-64567D02*
Y-53543D01*
X36220Y-64567D02*
Y-53543D01*
X42520D01*
X36220Y-64567D02*
X42520D01*
X57087Y-59055D02*
X61024D01*
X59055Y-61024D02*
Y-57087D01*
X62205Y-64567D02*
Y-53543D01*
X55905Y-64567D02*
Y-53543D01*
X62205D01*
X55905Y-64567D02*
X62205D01*
X17717Y-59055D02*
X21654D01*
X19685Y-61024D02*
Y-57087D01*
X22835Y-64567D02*
Y-53543D01*
X16535Y-64567D02*
Y-53543D01*
X22835D01*
X16535Y-64567D02*
X22835D01*
X-1969Y-59055D02*
X1969D01*
X-0Y-61024D02*
Y-57087D01*
X3150Y-64567D02*
Y-53543D01*
X-3150Y-64567D02*
Y-53543D01*
X3150D01*
X-3150Y-64567D02*
X3150D01*
X-1969Y19685D02*
X1969D01*
X0Y17717D02*
Y21654D01*
X-3150Y14173D02*
Y25197D01*
X3150Y14173D02*
Y25197D01*
X-3150Y14173D02*
X3150D01*
X-3150Y25197D02*
X3150D01*
X57087Y19685D02*
X61024D01*
X59055Y17717D02*
Y21654D01*
X55905Y14173D02*
Y25197D01*
X62205Y14173D02*
Y25197D01*
X55905Y14173D02*
X62205D01*
X55905Y25197D02*
X62205D01*
X37402Y19685D02*
X41339D01*
X39370Y17717D02*
Y21654D01*
X36220Y14173D02*
Y25197D01*
X42520Y14173D02*
Y25197D01*
X36220Y14173D02*
X42520D01*
X36220Y25197D02*
X42520D01*
X17717Y19685D02*
X21654D01*
X19685Y17717D02*
Y21654D01*
X16535Y14173D02*
Y25197D01*
X22835Y14173D02*
Y25197D01*
X16535Y14173D02*
X22835D01*
X16535Y25197D02*
X22835D01*
X-1969Y59055D02*
X1969D01*
X0Y57087D02*
Y61024D01*
X-3150Y53543D02*
Y64567D01*
X3150Y53543D02*
Y64567D01*
X-3150Y53543D02*
X3150D01*
X-3150Y64567D02*
X3150D01*
X17717Y59055D02*
X21654D01*
X19685Y57087D02*
Y61024D01*
X16535Y53543D02*
Y64567D01*
X22835Y53543D02*
Y64567D01*
X16535Y53543D02*
X22835D01*
X16535Y64567D02*
X22835D01*
X37402Y59055D02*
X41339D01*
X39370Y57087D02*
Y61024D01*
X36220Y53543D02*
Y64567D01*
X42520Y53543D02*
Y64567D01*
X36220Y53543D02*
X42520D01*
X36220Y64567D02*
X42520D01*
X57087Y59055D02*
X61024D01*
X59055Y57087D02*
Y61024D01*
X55905Y53543D02*
Y64567D01*
X62205Y53543D02*
Y64567D01*
X55905Y53543D02*
X62205D01*
X55905Y64567D02*
X62205D01*
X92169Y-66658D02*
Y-61343D01*
X100831Y-66658D02*
Y-61343D01*
X92169Y-66658D02*
X100831D01*
X92169Y-61343D02*
X100831D01*
X96500Y-65969D02*
Y-62032D01*
X94532Y-64000D02*
X98469D01*
X96842Y-56331D02*
X102157D01*
X96842Y-47669D02*
X102157D01*
Y-56331D02*
Y-47669D01*
X96842Y-56331D02*
Y-47669D01*
X97531Y-52000D02*
X101469D01*
X99500Y-53969D02*
Y-50032D01*
X53031Y0D02*
X56968D01*
X55000Y-1969D02*
Y1969D01*
X70551Y-8858D02*
Y8858D01*
X39449Y-8858D02*
Y8858D01*
Y-8858D02*
X70551D01*
X39449Y8858D02*
X70551D01*
X-57657Y31669D02*
X-52342D01*
X-57657Y40331D02*
X-52342D01*
Y31669D02*
Y40331D01*
X-57657Y31669D02*
Y40331D01*
X-56968Y36000D02*
X-53031D01*
X-55000Y34032D02*
Y37969D01*
X-57657Y54331D02*
X-52342D01*
X-57657Y45669D02*
X-52342D01*
X-57657D02*
Y54331D01*
X-52342Y45669D02*
Y54331D01*
X-56968Y50000D02*
X-53031D01*
X-55000Y48031D02*
Y51968D01*
X-57657Y-31669D02*
X-52342D01*
X-57657Y-40331D02*
X-52342D01*
X-57657D02*
Y-31669D01*
X-52342Y-40331D02*
Y-31669D01*
X-56968Y-36000D02*
X-53031D01*
X-55000Y-37969D02*
Y-34032D01*
X-57657Y-54331D02*
X-52342D01*
X-57657Y-45669D02*
X-52342D01*
Y-54331D02*
Y-45669D01*
X-57657Y-54331D02*
Y-45669D01*
X-56968Y-50000D02*
X-53031D01*
X-55000Y-51968D02*
Y-48031D01*
X76531Y-44000D02*
X80468D01*
X78500Y-45968D02*
Y-42031D01*
X94051Y-52858D02*
Y-35142D01*
X62949Y-52858D02*
Y-35142D01*
Y-52858D02*
X94051D01*
X62949Y-35142D02*
X94051D01*
X97342Y-94331D02*
X102657D01*
X97342Y-85669D02*
X102657D01*
Y-94331D02*
Y-85669D01*
X97342Y-94331D02*
Y-85669D01*
X98032Y-90000D02*
X101969D01*
X100000Y-91969D02*
Y-88032D01*
X87343Y-94331D02*
X92658D01*
X87343Y-85669D02*
X92658D01*
Y-94331D02*
Y-85669D01*
X87343Y-94331D02*
Y-85669D01*
X88032Y-90000D02*
X91969D01*
X90000Y-91969D02*
Y-88032D01*
X77342Y-94331D02*
X82657D01*
X77342Y-85669D02*
X82657D01*
Y-94331D02*
Y-85669D01*
X77342Y-94331D02*
Y-85669D01*
X78031Y-90000D02*
X81968D01*
X80000Y-91969D02*
Y-88032D01*
X67343Y-94331D02*
X72658D01*
X67343Y-85669D02*
X72658D01*
Y-94331D02*
Y-85669D01*
X67343Y-94331D02*
Y-85669D01*
X68032Y-90000D02*
X71969D01*
X70000Y-91969D02*
Y-88032D01*
D51*
X66307Y-16260D02*
X79693D01*
X66307Y-23740D02*
X79693D01*
Y-16260D01*
X66307Y-23740D02*
Y-16260D01*
X9382Y-26563D02*
X24618D01*
X9382Y-9437D02*
X24618D01*
X9382Y-26563D02*
Y-9437D01*
X24618Y-26563D02*
Y-9437D01*
X72260Y-15693D02*
Y-2307D01*
X79740Y-15693D02*
Y-2307D01*
X72260D02*
X79740D01*
X72260Y-15693D02*
X79740D01*
X57563Y-47618D02*
Y-32382D01*
X40437Y-47618D02*
Y-32382D01*
Y-47618D02*
X57563D01*
X40437Y-32382D02*
X57563D01*
X21382Y25563D02*
X36618D01*
X21382Y8437D02*
X36618D01*
Y25563D01*
X21382Y8437D02*
Y25563D01*
X76563Y43382D02*
Y58618D01*
X59437Y43382D02*
Y58618D01*
Y43382D02*
X76563D01*
X59437Y58618D02*
X76563D01*
X89807Y-60260D02*
X103193D01*
X89807Y-67740D02*
X103193D01*
Y-60260D01*
X89807Y-67740D02*
Y-60260D01*
X95760Y-58693D02*
Y-45307D01*
X103240Y-58693D02*
Y-45307D01*
X95760D02*
X103240D01*
X95760Y-58693D02*
X103240D01*
X38465Y-15354D02*
Y15354D01*
X71535Y-15354D02*
Y15354D01*
X38465D02*
X71535D01*
X38465Y-15354D02*
X71535D01*
X-58740Y29307D02*
Y42693D01*
X-51260Y29307D02*
Y42693D01*
X-58740D02*
X-51260D01*
X-58740Y29307D02*
X-51260D01*
Y43307D02*
Y56693D01*
X-58740Y43307D02*
Y56693D01*
Y43307D02*
X-51260D01*
X-58740Y56693D02*
X-51260D01*
Y-42693D02*
Y-29307D01*
X-58740Y-42693D02*
Y-29307D01*
Y-42693D02*
X-51260D01*
X-58740Y-29307D02*
X-51260D01*
X-58740Y-56693D02*
Y-43307D01*
X-51260Y-56693D02*
Y-43307D01*
X-58740D02*
X-51260D01*
X-58740Y-56693D02*
X-51260D01*
X61965Y-59354D02*
Y-28646D01*
X95035Y-59354D02*
Y-28646D01*
X61965D02*
X95035D01*
X61965Y-59354D02*
X95035D01*
X96260Y-96693D02*
Y-83307D01*
X103740Y-96693D02*
Y-83307D01*
X96260D02*
X103740D01*
X96260Y-96693D02*
X103740D01*
X86260D02*
Y-83307D01*
X93740Y-96693D02*
Y-83307D01*
X86260D02*
X93740D01*
X86260Y-96693D02*
X93740D01*
X76260D02*
Y-83307D01*
X83740Y-96693D02*
Y-83307D01*
X76260D02*
X83740D01*
X76260Y-96693D02*
X83740D01*
X66260D02*
Y-83307D01*
X73740Y-96693D02*
Y-83307D01*
X66260D02*
X73740D01*
X66260Y-96693D02*
X73740D01*
M02*
