G04 Layer_Color=8388736*
%FSLAX25Y25*%
%MOIN*%
G70*
G01*
G75*
%ADD31R,0.06312X0.05131*%
%ADD32R,0.05249X0.10406*%
%ADD33R,0.04737X0.07493*%
%ADD34R,0.06706X0.06706*%
%ADD35C,0.06706*%
%ADD36C,0.06800*%
%ADD37C,0.24409*%
%ADD38C,0.04800*%
%ADD39C,0.05800*%
%ADD40C,0.03800*%
D31*
X39370Y-16732D02*
D03*
Y-22638D02*
D03*
X-0Y-16732D02*
D03*
Y-22638D02*
D03*
X59055Y-16732D02*
D03*
Y-22638D02*
D03*
X19685Y-16732D02*
D03*
Y-22638D02*
D03*
X39370Y-56102D02*
D03*
Y-62008D02*
D03*
X59055Y-56102D02*
D03*
Y-62008D02*
D03*
X19685Y-56102D02*
D03*
Y-62008D02*
D03*
X-0Y-56102D02*
D03*
Y-62008D02*
D03*
X0Y16732D02*
D03*
Y22638D02*
D03*
X59055Y16732D02*
D03*
Y22638D02*
D03*
X39370Y16732D02*
D03*
Y22638D02*
D03*
X19685Y16732D02*
D03*
Y22638D02*
D03*
X0Y56102D02*
D03*
Y62008D02*
D03*
X19685Y56102D02*
D03*
Y62008D02*
D03*
X39370Y56102D02*
D03*
Y62008D02*
D03*
X59055Y56102D02*
D03*
Y62008D02*
D03*
D32*
X100000Y-102858D02*
D03*
X90000D02*
D03*
X80000D02*
D03*
X70000D02*
D03*
X100000Y-69000D02*
D03*
X90000D02*
D03*
X70000D02*
D03*
X80000D02*
D03*
D33*
X-63000Y51961D02*
D03*
Y76764D02*
D03*
X-77961Y51961D02*
D03*
Y76764D02*
D03*
X-63000Y8961D02*
D03*
Y33764D02*
D03*
X-77961Y8961D02*
D03*
Y33764D02*
D03*
X-63000Y-34039D02*
D03*
Y-9236D02*
D03*
X-77961Y-34039D02*
D03*
Y-9236D02*
D03*
X-63000Y-77039D02*
D03*
Y-52236D02*
D03*
X-77961Y-77039D02*
D03*
Y-52236D02*
D03*
D34*
X100000Y-5236D02*
D03*
D35*
X90000D02*
D03*
X100000Y4764D02*
D03*
X90000D02*
D03*
X100000Y14764D02*
D03*
X90000D02*
D03*
X100000Y24764D02*
D03*
X90000D02*
D03*
X100000Y34764D02*
D03*
X90000D02*
D03*
X100000Y44764D02*
D03*
X90000D02*
D03*
X100000Y54764D02*
D03*
X90000D02*
D03*
X100000Y64764D02*
D03*
X90000D02*
D03*
D36*
X-45000Y68898D02*
D03*
X-35000D02*
D03*
X-25000D02*
D03*
X-15000D02*
D03*
D37*
X-71220Y-96063D02*
D03*
X157126D02*
D03*
Y96850D02*
D03*
X-71220D02*
D03*
D38*
X109858Y-102858D02*
D03*
X59055Y-68968D02*
D03*
X39370D02*
D03*
X19685D02*
D03*
X-0D02*
D03*
X59055Y-29598D02*
D03*
X39370D02*
D03*
X19685D02*
D03*
X-0D02*
D03*
X19685Y29598D02*
D03*
X39370D02*
D03*
X0D02*
D03*
X59055Y68968D02*
D03*
X39370D02*
D03*
X19685D02*
D03*
X0D02*
D03*
X59055Y29598D02*
D03*
X-63000Y40764D02*
D03*
Y-45276D02*
D03*
Y-41000D02*
D03*
Y45000D02*
D03*
X100000Y-80000D02*
D03*
X90000D02*
D03*
X80000D02*
D03*
X70000D02*
D03*
D39*
X-25000Y-5236D02*
D03*
X82000Y20000D02*
D03*
D40*
X-10000Y-15000D02*
D03*
X66000Y-41000D02*
D03*
X74000D02*
D03*
X70000D02*
D03*
X62000D02*
D03*
M02*
