G04 Layer_Color=16711935*
%FSLAX25Y25*%
%MOIN*%
G70*
G01*
G75*
%ADD34R,0.06706X0.06706*%
%ADD35C,0.06706*%
%ADD36C,0.06800*%
%ADD37C,0.24409*%
%ADD38C,0.04800*%
%ADD39C,0.05800*%
%ADD40C,0.03800*%
%ADD41R,0.05328X0.06115*%
%ADD42R,0.04934X0.03162*%
%ADD43R,0.04934X0.04147*%
%ADD44R,0.06115X0.05328*%
%ADD45R,0.03162X0.04934*%
%ADD46R,0.04147X0.04934*%
%ADD47R,0.02375X0.06312*%
D34*
X100000Y-5236D02*
D03*
D35*
X90000D02*
D03*
X100000Y4764D02*
D03*
X90000D02*
D03*
X100000Y14764D02*
D03*
X90000D02*
D03*
X100000Y24764D02*
D03*
X90000D02*
D03*
X100000Y34764D02*
D03*
X90000D02*
D03*
X100000Y44764D02*
D03*
X90000D02*
D03*
X100000Y54764D02*
D03*
X90000D02*
D03*
X100000Y64764D02*
D03*
X90000D02*
D03*
D36*
X-45000Y68898D02*
D03*
X-35000D02*
D03*
X-25000D02*
D03*
X-15000D02*
D03*
D37*
X-71220Y-96063D02*
D03*
X157126D02*
D03*
Y96850D02*
D03*
X-71220D02*
D03*
D38*
X109858Y-102858D02*
D03*
X59055Y-68968D02*
D03*
X39370D02*
D03*
X19685D02*
D03*
X-0D02*
D03*
X59055Y-29598D02*
D03*
X39370D02*
D03*
X19685D02*
D03*
X-0D02*
D03*
X19685Y29598D02*
D03*
X39370D02*
D03*
X0D02*
D03*
X59055Y68968D02*
D03*
X39370D02*
D03*
X19685D02*
D03*
X0D02*
D03*
X59055Y29598D02*
D03*
X-63000Y40764D02*
D03*
Y-45276D02*
D03*
Y-41000D02*
D03*
Y45000D02*
D03*
X100000Y-80000D02*
D03*
X90000D02*
D03*
X80000D02*
D03*
X70000D02*
D03*
D39*
X-25000Y-5236D02*
D03*
X82000Y20000D02*
D03*
D40*
X-10000Y-15000D02*
D03*
X66000Y-41000D02*
D03*
X74000D02*
D03*
X70000D02*
D03*
X62000D02*
D03*
D41*
X76445Y-20000D02*
D03*
X69555D02*
D03*
X99945Y-64000D02*
D03*
X93055D02*
D03*
D42*
X13457Y-19575D02*
D03*
Y-16425D02*
D03*
X20543Y-19575D02*
D03*
Y-16425D02*
D03*
X32543Y18575D02*
D03*
Y15425D02*
D03*
X25457Y18575D02*
D03*
Y15425D02*
D03*
D43*
X13457Y-23216D02*
D03*
Y-12784D02*
D03*
X20543Y-23216D02*
D03*
Y-12784D02*
D03*
X32543Y22217D02*
D03*
Y11784D02*
D03*
X25457Y22217D02*
D03*
Y11784D02*
D03*
D44*
X76000Y-5555D02*
D03*
Y-12445D02*
D03*
X99500Y-48555D02*
D03*
Y-55445D02*
D03*
X-55000Y39445D02*
D03*
Y32555D02*
D03*
Y46555D02*
D03*
Y53445D02*
D03*
Y-39445D02*
D03*
Y-32555D02*
D03*
Y-46555D02*
D03*
Y-53445D02*
D03*
X100000Y-86555D02*
D03*
Y-93445D02*
D03*
X90000Y-86555D02*
D03*
Y-93445D02*
D03*
X80000Y-86555D02*
D03*
Y-93445D02*
D03*
X70000Y-86555D02*
D03*
Y-93445D02*
D03*
D45*
X50575Y-43543D02*
D03*
X47425D02*
D03*
X50575Y-36457D02*
D03*
X47425D02*
D03*
X69575Y47457D02*
D03*
X66425D02*
D03*
X69575Y54543D02*
D03*
X66425D02*
D03*
D46*
X54216Y-43543D02*
D03*
X43784D02*
D03*
X54216Y-36457D02*
D03*
X43784D02*
D03*
X73216Y47457D02*
D03*
X62783D02*
D03*
X73216Y54543D02*
D03*
X62783D02*
D03*
D47*
X40925Y11614D02*
D03*
X43484D02*
D03*
X46043D02*
D03*
X48602D02*
D03*
X51161D02*
D03*
X53720D02*
D03*
X56279D02*
D03*
X58839D02*
D03*
X61398D02*
D03*
X63957D02*
D03*
X66516D02*
D03*
X69075D02*
D03*
X40925Y-11614D02*
D03*
X43484D02*
D03*
X46043D02*
D03*
X48602D02*
D03*
X51161D02*
D03*
X53720D02*
D03*
X56279D02*
D03*
X58839D02*
D03*
X61398D02*
D03*
X63957D02*
D03*
X66516D02*
D03*
X69075D02*
D03*
X64425Y-32386D02*
D03*
X66984D02*
D03*
X69543D02*
D03*
X72102D02*
D03*
X74661D02*
D03*
X77220D02*
D03*
X79779D02*
D03*
X82339D02*
D03*
X84898D02*
D03*
X87457D02*
D03*
X90016D02*
D03*
X92575D02*
D03*
X64425Y-55614D02*
D03*
X66984D02*
D03*
X69543D02*
D03*
X72102D02*
D03*
X74661D02*
D03*
X77220D02*
D03*
X79779D02*
D03*
X82339D02*
D03*
X84898D02*
D03*
X87457D02*
D03*
X90016D02*
D03*
X92575D02*
D03*
M02*
