G04 Layer_Color=32896*
%FSLAX25Y25*%
%MOIN*%
G70*
G01*
G75*
%ADD13C,0.01000*%
%ADD30C,0.00787*%
%ADD48C,0.00394*%
%ADD49C,0.02362*%
%ADD50C,0.00984*%
D13*
X64000Y-25000D02*
Y-20002D01*
X61501D01*
X60668Y-20835D01*
Y-22501D01*
X61501Y-23334D01*
X64000D01*
X62334D02*
X60668Y-25000D01*
X56502D02*
Y-20002D01*
X59002Y-22501D01*
X55669D01*
X8000Y-16000D02*
Y-10002D01*
X5001D01*
X4001Y-11002D01*
Y-13001D01*
X5001Y-14001D01*
X8000D01*
X6001D02*
X4001Y-16000D01*
X-1997Y-10002D02*
X2002D01*
Y-13001D01*
X3Y-12001D01*
X-997D01*
X-1997Y-13001D01*
Y-15000D01*
X-997Y-16000D01*
X1002D01*
X2002Y-15000D01*
X90000Y-18000D02*
Y-13002D01*
X87501D01*
X86668Y-13835D01*
Y-15501D01*
X87501Y-16334D01*
X90000D01*
X88334D02*
X86668Y-18000D01*
X81669D02*
X85002D01*
X81669Y-14668D01*
Y-13835D01*
X82502Y-13002D01*
X84169D01*
X85002Y-13835D01*
X56000Y-54000D02*
Y-49002D01*
X53501D01*
X52668Y-49835D01*
Y-51501D01*
X53501Y-52334D01*
X56000D01*
X54334D02*
X52668Y-54000D01*
X51002D02*
X49336D01*
X50169D01*
Y-49002D01*
X51002Y-49835D01*
X46836D02*
X46003Y-49002D01*
X44337D01*
X43504Y-49835D01*
Y-50668D01*
X44337Y-51501D01*
X45170D01*
X44337D01*
X43504Y-52334D01*
Y-53167D01*
X44337Y-54000D01*
X46003D01*
X46836Y-53167D01*
X35543Y6784D02*
X30545D01*
Y4284D01*
X31378Y3451D01*
X33044D01*
X33877Y4284D01*
Y6784D01*
Y5117D02*
X35543Y3451D01*
Y1785D02*
Y119D01*
Y952D01*
X30545D01*
X31378Y1785D01*
X35543Y-4879D02*
X30545D01*
X33044Y-2380D01*
Y-5712D01*
X76000Y60000D02*
Y64998D01*
X73501D01*
X72668Y64165D01*
Y62499D01*
X73501Y61666D01*
X76000D01*
X74334D02*
X72668Y60000D01*
X67669Y64998D02*
X69336Y64165D01*
X71002Y62499D01*
Y60833D01*
X70169Y60000D01*
X68502D01*
X67669Y60833D01*
Y61666D01*
X68502Y62499D01*
X71002D01*
X102500Y-74500D02*
Y-69502D01*
X100001D01*
X99168Y-70335D01*
Y-72001D01*
X100001Y-72834D01*
X102500D01*
X100834D02*
X99168Y-74500D01*
X97502D02*
X95836D01*
X96669D01*
Y-69502D01*
X97502Y-70335D01*
X90004Y-69502D02*
X91670Y-70335D01*
X93336Y-72001D01*
Y-73667D01*
X92503Y-74500D01*
X90837D01*
X90004Y-73667D01*
Y-72834D01*
X90837Y-72001D01*
X93336D01*
X97000Y-44000D02*
X101998D01*
Y-41501D01*
X101165Y-40668D01*
X99499D01*
X98666Y-41501D01*
Y-44000D01*
Y-42334D02*
X97000Y-40668D01*
Y-39002D02*
Y-37336D01*
Y-38169D01*
X101998D01*
X101165Y-39002D01*
X101998Y-31504D02*
Y-34836D01*
X99499D01*
X100332Y-33170D01*
Y-32337D01*
X99499Y-31504D01*
X97833D01*
X97000Y-32337D01*
Y-34003D01*
X97833Y-34836D01*
X82000Y10998D02*
Y6833D01*
X81167Y6000D01*
X79501D01*
X78668Y6833D01*
Y10998D01*
X77002Y6000D02*
X75336D01*
X76169D01*
Y10998D01*
X77002Y10165D01*
X-39700Y33464D02*
Y38462D01*
X-42199D01*
X-43032Y37629D01*
Y35963D01*
X-42199Y35130D01*
X-39700D01*
X-41366D02*
X-43032Y33464D01*
X-44698Y37629D02*
X-45531Y38462D01*
X-47198D01*
X-48031Y37629D01*
Y36796D01*
X-47198Y35963D01*
X-46365D01*
X-47198D01*
X-48031Y35130D01*
Y34297D01*
X-47198Y33464D01*
X-45531D01*
X-44698Y34297D01*
X-41400Y47464D02*
Y52462D01*
X-43899D01*
X-44732Y51629D01*
Y49963D01*
X-43899Y49130D01*
X-41400D01*
X-43066D02*
X-44732Y47464D01*
X-46398D02*
X-48065D01*
X-47231D01*
Y52462D01*
X-46398Y51629D01*
X-39700Y-38536D02*
Y-33538D01*
X-42199D01*
X-43032Y-34371D01*
Y-36037D01*
X-42199Y-36870D01*
X-39700D01*
X-41366D02*
X-43032Y-38536D01*
X-44698Y-33538D02*
X-48031D01*
Y-34371D01*
X-44698Y-37703D01*
Y-38536D01*
X-35600Y-52536D02*
Y-47538D01*
X-38099D01*
X-38932Y-48371D01*
Y-50037D01*
X-38099Y-50870D01*
X-35600D01*
X-37266D02*
X-38932Y-52536D01*
X-40598D02*
X-42265D01*
X-41431D01*
Y-47538D01*
X-40598Y-48371D01*
X-48096Y-52536D02*
X-44764D01*
X-48096Y-49204D01*
Y-48371D01*
X-47263Y-47538D01*
X-45597D01*
X-44764Y-48371D01*
X96998Y-27000D02*
X92833D01*
X92000Y-26167D01*
Y-24501D01*
X92833Y-23668D01*
X96998D01*
X92000Y-18669D02*
Y-22002D01*
X95332Y-18669D01*
X96165D01*
X96998Y-19502D01*
Y-21169D01*
X96165Y-22002D01*
X106000Y-103000D02*
Y-99001D01*
X104001D01*
X103334Y-99668D01*
Y-101001D01*
X104001Y-101667D01*
X106000D01*
X104667D02*
X103334Y-103000D01*
X102001Y-99668D02*
X101335Y-99001D01*
X100002D01*
X99335Y-99668D01*
Y-100334D01*
X100002Y-101001D01*
X99335Y-101667D01*
Y-102334D01*
X100002Y-103000D01*
X101335D01*
X102001Y-102334D01*
Y-101667D01*
X101335Y-101001D01*
X102001Y-100334D01*
Y-99668D01*
X101335Y-101001D02*
X100002D01*
X95000Y-103000D02*
Y-99001D01*
X93001D01*
X92334Y-99668D01*
Y-101001D01*
X93001Y-101667D01*
X95000D01*
X93667D02*
X92334Y-103000D01*
X91001Y-102334D02*
X90335Y-103000D01*
X89002D01*
X88336Y-102334D01*
Y-99668D01*
X89002Y-99001D01*
X90335D01*
X91001Y-99668D01*
Y-100334D01*
X90335Y-101001D01*
X88336D01*
X85333Y-103000D02*
Y-99001D01*
X83333D01*
X82667Y-99668D01*
Y-101001D01*
X83333Y-101667D01*
X85333D01*
X84000D02*
X82667Y-103000D01*
X81334D02*
X80001D01*
X80668D01*
Y-99001D01*
X81334Y-99668D01*
X78002D02*
X77335Y-99001D01*
X76002D01*
X75336Y-99668D01*
Y-102334D01*
X76002Y-103000D01*
X77335D01*
X78002Y-102334D01*
Y-99668D01*
X72000Y-103000D02*
Y-99001D01*
X70001D01*
X69334Y-99668D01*
Y-101001D01*
X70001Y-101667D01*
X72000D01*
X70667D02*
X69334Y-103000D01*
X68001D02*
X66668D01*
X67335D01*
Y-99001D01*
X68001Y-99668D01*
X64669Y-103000D02*
X63336D01*
X64003D01*
Y-99001D01*
X64669Y-99668D01*
D30*
X39449Y-7283D02*
Y7283D01*
X70551Y-7283D02*
Y7283D01*
X39449D02*
X70551D01*
X39449Y-7283D02*
X70551D01*
X62949Y-51284D02*
Y-36716D01*
X94051Y-51284D02*
Y-36716D01*
X62949D02*
X94051D01*
X62949Y-51284D02*
X94051D01*
D48*
X23595Y-12587D02*
G03*
X23595Y-12587I-197J0D01*
G01*
X43784Y-33602D02*
G03*
X43784Y-33602I-197J0D01*
G01*
X22799Y11587D02*
G03*
X22799Y11587I-197J0D01*
G01*
X62783Y57398D02*
G03*
X62783Y57398I-197J0D01*
G01*
X66307Y-23740D02*
Y-16260D01*
X79693D01*
Y-23740D02*
Y-16260D01*
X66307Y-23740D02*
X79693D01*
X10012Y-10028D02*
X23988D01*
X10012Y-25972D02*
Y-10028D01*
Y-25972D02*
X23988D01*
Y-10028D01*
X72260Y-15693D02*
X79740D01*
X72260D02*
Y-2307D01*
X79740D01*
Y-15693D02*
Y-2307D01*
X41028Y-46988D02*
Y-33012D01*
Y-46988D02*
X56972D01*
Y-33012D01*
X41028D02*
X56972D01*
X22012Y9028D02*
X35988D01*
Y24972D01*
X22012D02*
X35988D01*
X22012Y9028D02*
Y24972D01*
X60028Y44012D02*
Y57988D01*
Y44012D02*
X75972D01*
Y57988D01*
X60028D02*
X75972D01*
X89807Y-67740D02*
Y-60260D01*
X103193D01*
Y-67740D02*
Y-60260D01*
X89807Y-67740D02*
X103193D01*
X95760Y-58693D02*
X103240D01*
X95760D02*
Y-45307D01*
X103240D01*
Y-58693D02*
Y-45307D01*
X-58740Y29307D02*
X-51260D01*
X-58740D02*
Y42693D01*
X-51260D01*
Y29307D02*
Y42693D01*
X-58740Y56693D02*
X-51260D01*
Y43307D02*
Y56693D01*
X-58740Y43307D02*
X-51260D01*
X-58740D02*
Y56693D01*
Y-29307D02*
X-51260D01*
Y-42693D02*
Y-29307D01*
X-58740Y-42693D02*
X-51260D01*
X-58740D02*
Y-29307D01*
Y-56693D02*
X-51260D01*
X-58740D02*
Y-43307D01*
X-51260D01*
Y-56693D02*
Y-43307D01*
X96260Y-96693D02*
X103740D01*
X96260D02*
Y-83307D01*
X103740D01*
Y-96693D02*
Y-83307D01*
X86260Y-96693D02*
X93740D01*
X86260D02*
Y-83307D01*
X93740D01*
Y-96693D02*
Y-83307D01*
X76260Y-96693D02*
X83740D01*
X76260D02*
Y-83307D01*
X83740D01*
Y-96693D02*
Y-83307D01*
X66260Y-96693D02*
X73740D01*
X66260D02*
Y-83307D01*
X73740D01*
Y-96693D02*
Y-83307D01*
D49*
X67795Y-3347D02*
G03*
X67795Y-3347I-1181J0D01*
G01*
X91295Y-47346D02*
G03*
X91295Y-47346I-1181J0D01*
G01*
D50*
X72618Y-11614D02*
G03*
X72618Y-11614I-492J0D01*
G01*
X96118Y-55614D02*
G03*
X96118Y-55614I-492J0D01*
G01*
M02*
