M48
;Layer_Color=9474304
;FILE_FORMAT=2:5
INCH,LZ
;TYPE=PLATED
T1F00S00C0.02000
T2F00S00C0.02800
T3F00S00C0.03000
T4F00S00C0.03543
;TYPE=NON_PLATED
T5F00S00C0.11811
%
T01
X-0Y-0068968
X0019685
X003937
X0059055
X007Y-008
X008
X009
X01
X0109858Y-0102858
X0074Y-0041
X007
X0066
X0062
X0059055Y-0029598
X003937
X0019685
X-0
X-001Y-0015
X-0063Y-0041
Y-0045276
Y0040764
Y0045
X0Y0029598
X0019685
X003937
X0059055
Y0068968
X003937
X0019685
X0
T02
X-0025Y-0005236
X0082Y002
T03
X-0045Y0068898
X-0035
X-0025
X-0015
T04
X009Y-0005236
X01
Y0004764
X009
Y0014764
X01
Y0024764
X009
Y0034764
X01
Y0044764
X009
Y0054764
X01
Y0064764
X009
T05
X0157126Y-0096063
X-007122
Y009685
X0157126
M30
