G04 Layer_Color=8388736*
%FSLAX25Y25*%
%MOIN*%
G70*
G01*
G75*
%ADD23R,0.03910X0.07335*%
G04:AMPARAMS|DCode=24|XSize=73.35mil|YSize=39.1mil|CornerRadius=0mil|HoleSize=0mil|Usage=FLASHONLY|Rotation=225.000|XOffset=0mil|YOffset=0mil|HoleType=Round|Shape=Rectangle|*
%AMROTATEDRECTD24*
4,1,4,0.01211,0.03976,0.03976,0.01211,-0.01211,-0.03976,-0.03976,-0.01211,0.01211,0.03976,0.0*
%
%ADD24ROTATEDRECTD24*%

%ADD25R,0.06312X0.06706*%
%ADD26R,0.06706X0.06312*%
%ADD27C,0.06706*%
%ADD28R,0.06706X0.06706*%
%ADD29C,0.20485*%
%ADD30C,0.08674*%
%ADD31C,0.08674*%
%ADD32C,0.03800*%
D23*
X-3543Y19685D02*
D03*
X3543Y35433D02*
D03*
X-3543D02*
D03*
X3543Y19685D02*
D03*
D24*
X-11414Y-16425D02*
D03*
X-27560Y-22549D02*
D03*
X-22549Y-27560D02*
D03*
X-16425Y-11414D02*
D03*
D25*
X59437Y171500D02*
D03*
X51563D02*
D03*
D26*
X27500Y161063D02*
D03*
Y168937D02*
D03*
D27*
X-5000Y-45000D02*
D03*
X40709Y192087D02*
D03*
X50709Y182087D02*
D03*
Y192087D02*
D03*
X60709Y182087D02*
D03*
Y192087D02*
D03*
D28*
X5000Y-45000D02*
D03*
X40709Y182087D02*
D03*
D29*
X-0Y-0D02*
D03*
D30*
X23622Y-31496D02*
D03*
D31*
X-23622Y31496D02*
D03*
D32*
X-12500Y-32500D02*
D03*
X-31500Y-30000D02*
D03*
X-2500Y-15000D02*
D03*
X-16500Y-2500D02*
D03*
X10000Y14000D02*
D03*
X22500Y35500D02*
D03*
X3543Y42457D02*
D03*
M02*
