G04 Layer_Color=65535*
%FSLAX25Y25*%
%MOIN*%
G70*
G01*
G75*
%ADD14C,0.01000*%
%ADD22C,0.00787*%
D14*
X27559Y0D02*
G03*
X27559Y0I-27559J0D01*
G01*
X36940Y169526D02*
Y173525D01*
X38939D01*
X39606Y172858D01*
Y171525D01*
X38939Y170859D01*
X36940D01*
X38273D02*
X39606Y169526D01*
X43605D02*
X40939D01*
X43605Y172192D01*
Y172858D01*
X42938Y173525D01*
X41605D01*
X40939Y172858D01*
X-20334Y42332D02*
X-21001Y42999D01*
X-22333D01*
X-23000Y42332D01*
Y41666D01*
X-22333Y40999D01*
X-21001D01*
X-20334Y40333D01*
Y39666D01*
X-21001Y39000D01*
X-22333D01*
X-23000Y39666D01*
X-19001Y42999D02*
Y39000D01*
X-16335D01*
X-12337D02*
X-15003D01*
X-12337Y41666D01*
Y42332D01*
X-13003Y42999D01*
X-14336D01*
X-15003Y42332D01*
X-38834Y-13168D02*
X-39501Y-12501D01*
X-40834D01*
X-41500Y-13168D01*
Y-13834D01*
X-40834Y-14501D01*
X-39501D01*
X-38834Y-15167D01*
Y-15834D01*
X-39501Y-16500D01*
X-40834D01*
X-41500Y-15834D01*
X-37501Y-12501D02*
Y-16500D01*
X-34835D01*
X-33503D02*
X-32170D01*
X-32836D01*
Y-12501D01*
X-33503Y-13168D01*
X29540Y147826D02*
X25541D01*
Y149825D01*
X26208Y150492D01*
X27541D01*
X28207Y149825D01*
Y147826D01*
Y149159D02*
X29540Y150492D01*
Y151825D02*
Y153158D01*
Y152491D01*
X25541D01*
X26208Y151825D01*
D22*
X-10000Y-50000D02*
X10000D01*
Y-40000D01*
X-10000D02*
X10000D01*
X-10000Y-50000D02*
Y-40000D01*
X65709Y177087D02*
Y197087D01*
X35709Y177087D02*
Y197087D01*
X65709D01*
X35709Y177087D02*
X65709D01*
X46542D02*
X65709D01*
X55500Y168941D02*
Y174059D01*
X24941Y165000D02*
X30059D01*
M02*
