G04 Layer_Physical_Order=2*
G04 Layer_Color=16711680*
%FSLAX25Y25*%
%MOIN*%
G70*
G01*
G75*
%ADD10R,0.03110X0.06535*%
G04:AMPARAMS|DCode=11|XSize=65.35mil|YSize=31.1mil|CornerRadius=0mil|HoleSize=0mil|Usage=FLASHONLY|Rotation=225.000|XOffset=0mil|YOffset=0mil|HoleType=Round|Shape=Rectangle|*
%AMROTATEDRECTD11*
4,1,4,0.01211,0.03410,0.03410,0.01211,-0.01211,-0.03410,-0.03410,-0.01211,0.01211,0.03410,0.0*
%
%ADD11ROTATEDRECTD11*%

%ADD12R,0.05512X0.05906*%
%ADD14C,0.01000*%
%ADD15C,0.05906*%
%ADD16R,0.05906X0.05906*%
%ADD17C,0.19685*%
%ADD18C,0.07874*%
%ADD19C,0.07874*%
%ADD20C,0.03000*%
%ADD21C,0.03000*%
D10*
X3543Y19685D02*
D03*
X-3543Y35433D02*
D03*
X3543D02*
D03*
X-3543Y19685D02*
D03*
D11*
X-16425Y-11414D02*
D03*
X-22549Y-27560D02*
D03*
X-27560Y-22549D02*
D03*
X-11414Y-16425D02*
D03*
D12*
X59437Y171500D02*
D03*
X51563D02*
D03*
D14*
X-12500Y-32500D02*
Y-27000D01*
X-18000Y-21500D02*
X-12500Y-27000D01*
X-26511Y-21500D02*
X-18000D01*
X-27560Y-22549D02*
X-26511Y-21500D01*
X-31500Y-30000D02*
X-24989D01*
X-22549Y-27560D01*
X22500Y27000D02*
Y184000D01*
X-16425Y-11414D02*
Y22500D01*
X-10000Y-15000D02*
X-2500D01*
X-11414Y-16414D02*
X-10000Y-15000D01*
X-11414Y-16425D02*
Y-16414D01*
X-12489Y-17500D02*
X-11414Y-16425D01*
X-16425Y22500D02*
X-11425Y27500D01*
X-6087D01*
X-3543Y30043D01*
X0Y14000D02*
X10000D01*
X-3543Y17543D02*
X0Y14000D01*
X-3543Y17543D02*
Y19685D01*
X3543Y35433D02*
Y42457D01*
X15185Y19685D02*
X22500Y27000D01*
X3543Y19685D02*
X15185D01*
X-1000Y27500D02*
X1500D01*
X3543Y25457D01*
Y19685D02*
Y25457D01*
X-3543Y30043D02*
X-1000Y27500D01*
X-3543Y30043D02*
Y35433D01*
X22500Y184000D02*
X35500Y197000D01*
X45795D01*
X50709Y192087D01*
Y172354D02*
Y182087D01*
Y172354D02*
X51563Y171500D01*
X59437D02*
X64000D01*
X67500Y175000D01*
X60709Y192087D02*
X67500Y185295D01*
Y175000D02*
Y185295D01*
D15*
X-5000Y-45000D02*
D03*
X40709Y192087D02*
D03*
X50709Y182087D02*
D03*
Y192087D02*
D03*
X60709Y182087D02*
D03*
Y192087D02*
D03*
D16*
X5000Y-45000D02*
D03*
X40709Y182087D02*
D03*
D17*
X-0Y-0D02*
D03*
D18*
X23622Y-31496D02*
D03*
D19*
X-23622Y31496D02*
D03*
D20*
X-12500Y-32500D02*
D03*
X-31500Y-30000D02*
D03*
X-2500Y-15000D02*
D03*
X-16500Y-2500D02*
D03*
X10000Y14000D02*
D03*
X22500Y35500D02*
D03*
X3543Y42457D02*
D03*
D21*
X27500Y-5500D02*
Y182500D01*
X37087Y192087D02*
X40709D01*
X27500Y182500D02*
X37087Y192087D01*
X-5000Y-38000D02*
X27500Y-5500D01*
X32500Y-10000D02*
Y173878D01*
X5000Y-37500D02*
X32500Y-10000D01*
X5000Y-45000D02*
Y-37500D01*
X-5000Y-45000D02*
Y-38000D01*
X32500Y173878D02*
X40709Y182087D01*
M02*
