G04 Layer_Color=32896*
%FSLAX25Y25*%
%MOIN*%
G70*
G01*
G75*
%ADD14C,0.01000*%
%ADD22C,0.00787*%
D14*
X27559Y0D02*
G03*
X27559Y0I-27559J0D01*
G01*
X-32666Y-13168D02*
X-31999Y-12501D01*
X-30666D01*
X-30000Y-13168D01*
Y-13834D01*
X-30666Y-14501D01*
X-31999D01*
X-32666Y-15167D01*
Y-15834D01*
X-31999Y-16500D01*
X-30666D01*
X-30000Y-15834D01*
X-33999Y-16500D02*
Y-12501D01*
X-35998D01*
X-36665Y-13168D01*
Y-14501D01*
X-35998Y-15167D01*
X-33999D01*
X-35332D02*
X-36665Y-16500D01*
X-37997D02*
X-39330D01*
X-38664D01*
Y-12501D01*
X-37997Y-13168D01*
X-12666Y42332D02*
X-11999Y42999D01*
X-10667D01*
X-10000Y42332D01*
Y41666D01*
X-10667Y40999D01*
X-11999D01*
X-12666Y40333D01*
Y39666D01*
X-11999Y39000D01*
X-10667D01*
X-10000Y39666D01*
X-13999Y39000D02*
Y42999D01*
X-15998D01*
X-16665Y42332D01*
Y40999D01*
X-15998Y40333D01*
X-13999D01*
X-15332D02*
X-16665Y39000D01*
X-20663D02*
X-17997D01*
X-20663Y41666D01*
Y42332D01*
X-19997Y42999D01*
X-18664D01*
X-17997Y42332D01*
X43640Y169526D02*
Y173525D01*
X41641D01*
X40974Y172858D01*
Y171525D01*
X41641Y170859D01*
X43640D01*
X42307D02*
X40974Y169526D01*
X39641Y172858D02*
X38975Y173525D01*
X37642D01*
X36976Y172858D01*
Y172192D01*
X37642Y171525D01*
X38309D01*
X37642D01*
X36976Y170859D01*
Y170192D01*
X37642Y169526D01*
X38975D01*
X39641Y170192D01*
D22*
X55500Y168941D02*
Y174059D01*
M02*
