G04 Layer_Color=16711935*
%FSLAX25Y25*%
%MOIN*%
G70*
G01*
G75*
%ADD52C,0.00394*%
D52*
X56201Y63386D02*
X61910D01*
X56201Y54724D02*
X61910D01*
Y63386D01*
X56201Y54724D02*
Y63386D01*
X36516D02*
X42224D01*
X36516Y54724D02*
X42224D01*
Y63386D01*
X36516Y54724D02*
Y63386D01*
X16831D02*
X22539D01*
X16831Y54724D02*
X22539D01*
Y63386D01*
X16831Y54724D02*
Y63386D01*
X-2854D02*
X2854D01*
X-2854Y54724D02*
X2854D01*
Y63386D01*
X-2854Y54724D02*
Y63386D01*
X16831Y24016D02*
X22539D01*
X16831Y15354D02*
X22539D01*
Y24016D01*
X16831Y15354D02*
Y24016D01*
X36516D02*
X42224D01*
X36516Y15354D02*
X42224D01*
Y24016D01*
X36516Y15354D02*
Y24016D01*
X56201D02*
X61910D01*
X56201Y15354D02*
X61910D01*
Y24016D01*
X56201Y15354D02*
Y24016D01*
X-2854D02*
X2854D01*
X-2854Y15354D02*
X2854D01*
Y24016D01*
X-2854Y15354D02*
Y24016D01*
X-2854Y-63386D02*
X2854D01*
X-2854Y-54724D02*
X2854D01*
X-2854Y-63386D02*
Y-54724D01*
X2854Y-63386D02*
Y-54724D01*
X16831Y-63386D02*
X22539D01*
X16831Y-54724D02*
X22539D01*
X16831Y-63386D02*
Y-54724D01*
X22539Y-63386D02*
Y-54724D01*
X56201Y-63386D02*
X61909D01*
X56201Y-54724D02*
X61909D01*
X56201Y-63386D02*
Y-54724D01*
X61909Y-63386D02*
Y-54724D01*
X36516Y-63386D02*
X42224D01*
X36516Y-54724D02*
X42224D01*
X36516Y-63386D02*
Y-54724D01*
X42224Y-63386D02*
Y-54724D01*
X16831Y-24016D02*
X22539D01*
X16831Y-15354D02*
X22539D01*
X16831Y-24016D02*
Y-15354D01*
X22539Y-24016D02*
Y-15354D01*
X56201Y-24016D02*
X61909D01*
X56201Y-15354D02*
X61909D01*
X56201Y-24016D02*
Y-15354D01*
X61909Y-24016D02*
Y-15354D01*
X-2854Y-24016D02*
X2854D01*
X-2854Y-15354D02*
X2854D01*
X-2854Y-24016D02*
Y-15354D01*
X2854Y-24016D02*
Y-15354D01*
X36516Y-24016D02*
X42224D01*
X36516Y-15354D02*
X42224D01*
X36516Y-24016D02*
Y-15354D01*
X42224Y-24016D02*
Y-15354D01*
X134331Y92146D02*
Y97854D01*
X125669Y92146D02*
Y97854D01*
Y92146D02*
X134331D01*
X125669Y97854D02*
X134331D01*
Y-97854D02*
Y-92146D01*
X125669Y-97854D02*
Y-92146D01*
Y-97854D02*
X134331D01*
X125669Y-92146D02*
X134331D01*
X-40669Y92146D02*
Y97854D01*
X-49331Y92146D02*
Y97854D01*
Y92146D02*
X-40669D01*
X-49331Y97854D02*
X-40669D01*
Y-97854D02*
Y-92146D01*
X-49331Y-97854D02*
Y-92146D01*
Y-97854D02*
X-40669D01*
X-49331Y-92146D02*
X-40669D01*
X94717Y-27854D02*
Y-22146D01*
X103378Y-27854D02*
Y-22146D01*
X94717D02*
X103378D01*
X94717Y-27854D02*
X103378D01*
X94717Y-20854D02*
Y-15146D01*
X103378Y-20854D02*
Y-15146D01*
X94717D02*
X103378D01*
X94717Y-20854D02*
X103378D01*
X78146Y14331D02*
X83854D01*
X78146Y5669D02*
X83854D01*
Y14331D01*
X78146Y5669D02*
Y14331D01*
X71146Y14378D02*
X76854D01*
X71146Y5717D02*
X76854D01*
Y14378D01*
X71146Y5717D02*
Y14378D01*
X74331Y-2854D02*
Y2854D01*
X65669Y-2854D02*
Y2854D01*
Y-2854D02*
X74331D01*
X65669Y2854D02*
X74331D01*
M02*
