G04 Layer_Physical_Order=2*
G04 Layer_Color=16711680*
%FSLAX25Y25*%
%MOIN*%
G70*
G01*
G75*
%ADD15C,0.01000*%
%ADD16C,0.11811*%
%ADD17C,0.06000*%
%ADD18C,0.05906*%
%ADD19R,0.05906X0.05906*%
%ADD20C,0.05000*%
%ADD21C,0.04000*%
%ADD22C,0.03000*%
%ADD23R,0.05315X0.04528*%
%ADD24R,0.01575X0.05512*%
%ADD25R,0.04528X0.05315*%
%ADD26R,0.03347X0.04134*%
%ADD27R,0.02362X0.04134*%
%ADD28R,0.04134X0.03347*%
%ADD29R,0.04134X0.02362*%
G36*
X56606Y24363D02*
X50080Y17836D01*
X49904Y17572D01*
X49733Y17515D01*
X49316Y17509D01*
X49308Y17512D01*
X43522Y23298D01*
X43026Y23629D01*
X42440Y23746D01*
X35610D01*
Y24471D01*
X55457D01*
X56042Y24587D01*
X56288Y24751D01*
X56606Y24363D01*
D02*
G37*
G36*
X86341Y6260D02*
X86149Y5796D01*
X86013Y4764D01*
X86149Y3732D01*
X86547Y2770D01*
X87181Y1945D01*
X88007Y1311D01*
X88968Y913D01*
X90000Y777D01*
X91032Y913D01*
X91496Y1105D01*
X93471Y-870D01*
Y-2445D01*
X92971Y-2615D01*
X92819Y-2417D01*
X91993Y-1784D01*
X91032Y-1385D01*
X90000Y-1249D01*
X88968Y-1385D01*
X88007Y-1784D01*
X87181Y-2417D01*
X87029Y-2615D01*
X86529Y-2445D01*
Y-2172D01*
X86413Y-1586D01*
X86081Y-1090D01*
X82910Y2081D01*
X82414Y2413D01*
X81828Y2529D01*
X69634D01*
X68045Y4118D01*
Y7858D01*
X70862D01*
Y10085D01*
X82516D01*
X86341Y6260D01*
D02*
G37*
G36*
X103471Y-59951D02*
X103209Y-60343D01*
X96681D01*
Y-60343D01*
X96319D01*
Y-60343D01*
X89791D01*
Y-62471D01*
X89134D01*
X88986Y-62323D01*
Y-59370D01*
X94362D01*
Y-58178D01*
X94824Y-57987D01*
X94919Y-58081D01*
X95415Y-58413D01*
X96000Y-58529D01*
X98015D01*
X98198Y-58802D01*
X99024Y-59355D01*
X100000Y-59549D01*
X100976Y-59355D01*
X101802Y-58802D01*
X102355Y-57976D01*
X102549Y-57000D01*
X102355Y-56024D01*
X101810Y-55209D01*
X101823Y-55138D01*
X101971Y-54709D01*
X103471D01*
Y-59951D01*
D02*
G37*
G36*
X96342Y-47819D02*
X96342D01*
Y-48181D01*
X96342D01*
Y-54473D01*
X95842Y-54680D01*
X95696Y-54533D01*
X95199Y-54201D01*
X94614Y-54085D01*
X94362D01*
Y-51858D01*
X91545D01*
Y-48555D01*
Y-46084D01*
X96342D01*
Y-47819D01*
D02*
G37*
G36*
X85927Y-16090D02*
Y-26666D01*
X85465Y-26858D01*
X79709Y-21101D01*
Y-18899D01*
X82081Y-16526D01*
X82413Y-16030D01*
X82529Y-15445D01*
Y-13346D01*
X82991Y-13154D01*
X85927Y-16090D01*
D02*
G37*
G36*
X87181Y-8055D02*
X88007Y-8689D01*
X88968Y-9087D01*
X90000Y-9223D01*
X91032Y-9087D01*
X91993Y-8689D01*
X92819Y-8055D01*
X92971Y-7858D01*
X93471Y-8028D01*
Y-15367D01*
X92007Y-16830D01*
X91545Y-16639D01*
Y-15016D01*
X91429Y-14431D01*
X91097Y-13934D01*
X86529Y-9366D01*
Y-8028D01*
X87029Y-7858D01*
X87181Y-8055D01*
D02*
G37*
G36*
X161111Y108538D02*
X163046Y107951D01*
X164828Y106998D01*
X166391Y105716D01*
X167673Y104154D01*
X168626Y102371D01*
X169213Y100437D01*
X169399Y98541D01*
X169376Y98425D01*
Y94575D01*
X169396Y94477D01*
X169207Y92563D01*
X168620Y90629D01*
X167667Y88846D01*
X166385Y87284D01*
X164823Y86002D01*
X163040Y85049D01*
X161106Y84462D01*
X159587Y84313D01*
X159095Y84293D01*
X159094Y84293D01*
X158684Y84218D01*
X158239Y84207D01*
X158118D01*
X119724Y84207D01*
Y84218D01*
X117636Y84054D01*
X115598Y83565D01*
X113663Y82763D01*
X111876Y81668D01*
X110283Y80308D01*
X108922Y78714D01*
X107827Y76928D01*
X107026Y74992D01*
X106537Y72955D01*
X106372Y70866D01*
X106384D01*
Y8486D01*
X105884Y8279D01*
X103081Y11081D01*
X102779Y11284D01*
X102708Y11859D01*
X102819Y11945D01*
X103453Y12770D01*
X103851Y13732D01*
X103987Y14764D01*
X103851Y15796D01*
X103453Y16757D01*
X102819Y17583D01*
X101993Y18216D01*
X101032Y18615D01*
X100000Y18751D01*
X98968Y18615D01*
X98007Y18216D01*
X97181Y17583D01*
X96547Y16757D01*
X96149Y15796D01*
X96013Y14764D01*
X96149Y13732D01*
X96547Y12770D01*
X97116Y12029D01*
X96976Y11529D01*
X95397D01*
X93659Y13268D01*
X93851Y13732D01*
X93987Y14764D01*
X93851Y15796D01*
X93453Y16757D01*
X92819Y17583D01*
X91993Y18216D01*
X91032Y18615D01*
X90000Y18751D01*
X88968Y18615D01*
X88007Y18216D01*
X87181Y17583D01*
X86547Y16757D01*
X86149Y15796D01*
X86013Y14764D01*
X86149Y13732D01*
X86547Y12770D01*
X87181Y11945D01*
X88007Y11311D01*
X88968Y10913D01*
X90000Y10777D01*
X91032Y10913D01*
X91496Y11105D01*
X93682Y8919D01*
X94178Y8587D01*
X94764Y8471D01*
X97516D01*
X97686Y7971D01*
X97181Y7583D01*
X96547Y6757D01*
X96149Y5796D01*
X96013Y4764D01*
X96149Y3732D01*
X96547Y2770D01*
X97181Y1945D01*
X98007Y1311D01*
X98968Y913D01*
X100000Y777D01*
X101032Y913D01*
X101993Y1311D01*
X102819Y1945D01*
X102971Y2142D01*
X103471Y1972D01*
Y-1283D01*
X100500D01*
Y-5236D01*
Y-9189D01*
X103471D01*
Y-34367D01*
X100322Y-37515D01*
X100000Y-37451D01*
X99024Y-37645D01*
X98198Y-38198D01*
X97645Y-39024D01*
X97451Y-40000D01*
X97608Y-40791D01*
X97300Y-41291D01*
X96342D01*
Y-43026D01*
X91545D01*
Y-39020D01*
X92085Y-38913D01*
X92581Y-38581D01*
X93656Y-37507D01*
X93988Y-37010D01*
X94104Y-36425D01*
Y-36142D01*
X94362D01*
Y-28630D01*
X94104D01*
Y-19059D01*
X96081Y-17081D01*
X96413Y-16585D01*
X96529Y-16000D01*
Y-9189D01*
X99500D01*
Y-5236D01*
Y-1283D01*
X96529D01*
Y-236D01*
X96413Y349D01*
X96081Y845D01*
X93659Y3268D01*
X93851Y3732D01*
X93987Y4764D01*
X93851Y5796D01*
X93453Y6757D01*
X92819Y7583D01*
X91993Y8217D01*
X91032Y8615D01*
X90000Y8751D01*
X88968Y8615D01*
X88504Y8423D01*
X84231Y12696D01*
X83735Y13027D01*
X83150Y13144D01*
X70862D01*
Y15370D01*
X68045D01*
Y15882D01*
X80851Y28688D01*
X81086Y28590D01*
X82000Y28470D01*
X82914Y28590D01*
X83765Y28943D01*
X84496Y29504D01*
X85057Y30235D01*
X85410Y31086D01*
X85530Y32000D01*
X85410Y32914D01*
X85057Y33765D01*
X84496Y34496D01*
X83765Y35057D01*
X82914Y35410D01*
X82000Y35530D01*
X81086Y35410D01*
X80235Y35057D01*
X79978Y34860D01*
X79529Y35081D01*
Y52367D01*
X85633Y58471D01*
X87516D01*
X87686Y57971D01*
X87181Y57583D01*
X86547Y56757D01*
X86149Y55796D01*
X86013Y54764D01*
X86149Y53732D01*
X86547Y52770D01*
X87181Y51945D01*
X88007Y51311D01*
X88968Y50913D01*
X90000Y50777D01*
X91032Y50913D01*
X91993Y51311D01*
X92819Y51945D01*
X93453Y52770D01*
X93851Y53732D01*
X93987Y54764D01*
X93851Y55796D01*
X93453Y56757D01*
X92819Y57583D01*
X92314Y57971D01*
X92484Y58471D01*
X95236D01*
X95821Y58587D01*
X96318Y58919D01*
X98504Y61105D01*
X98968Y60913D01*
X100000Y60777D01*
X101032Y60913D01*
X101993Y61311D01*
X102819Y61945D01*
X103453Y62770D01*
X103851Y63732D01*
X103987Y64764D01*
X103851Y65796D01*
X103453Y66757D01*
X102819Y67583D01*
X101993Y68217D01*
X101032Y68615D01*
X100000Y68751D01*
X98968Y68615D01*
X98504Y68423D01*
X85845Y81081D01*
X85349Y81413D01*
X84764Y81529D01*
X-13898D01*
X-14483Y81413D01*
X-14979Y81081D01*
X-23468Y72593D01*
X-23956Y72795D01*
X-25000Y72932D01*
X-26044Y72795D01*
X-27017Y72392D01*
X-27853Y71750D01*
X-28494Y70915D01*
X-28897Y69942D01*
X-29035Y68898D01*
X-28897Y67853D01*
X-28494Y66880D01*
X-27853Y66045D01*
X-27017Y65404D01*
X-26044Y65001D01*
X-25000Y64863D01*
X-23956Y65001D01*
X-22983Y65404D01*
X-22147Y66045D01*
X-21506Y66880D01*
X-21103Y67853D01*
X-20966Y68898D01*
X-21103Y69942D01*
X-21305Y70430D01*
X-13264Y78471D01*
X84130D01*
X96341Y66260D01*
X96149Y65796D01*
X96013Y64764D01*
X96149Y63732D01*
X96341Y63268D01*
X94603Y61529D01*
X93024D01*
X92884Y62029D01*
X93453Y62770D01*
X93851Y63732D01*
X93987Y64764D01*
X93851Y65796D01*
X93453Y66757D01*
X92819Y67583D01*
X91993Y68217D01*
X91032Y68615D01*
X90000Y68751D01*
X88968Y68615D01*
X88504Y68423D01*
X80845Y76081D01*
X80349Y76413D01*
X79764Y76529D01*
X-8898D01*
X-9483Y76413D01*
X-9979Y76081D01*
X-13468Y72593D01*
X-13956Y72795D01*
X-15000Y72932D01*
X-16044Y72795D01*
X-17017Y72392D01*
X-17853Y71750D01*
X-18494Y70915D01*
X-18897Y69942D01*
X-19035Y68898D01*
X-18897Y67853D01*
X-18494Y66880D01*
X-17853Y66045D01*
X-17017Y65404D01*
X-16044Y65001D01*
X-15000Y64863D01*
X-13956Y65001D01*
X-12983Y65404D01*
X-12147Y66045D01*
X-11506Y66880D01*
X-11103Y67853D01*
X-10966Y68898D01*
X-11103Y69942D01*
X-11305Y70430D01*
X-8264Y73471D01*
X79130D01*
X86341Y66260D01*
X86149Y65796D01*
X86013Y64764D01*
X86149Y63732D01*
X86547Y62770D01*
X87116Y62029D01*
X86976Y61529D01*
X85000D01*
X84415Y61413D01*
X83919Y61081D01*
X76919Y54081D01*
X76587Y53585D01*
X76471Y53000D01*
Y31633D01*
X75246Y30409D01*
X74746Y30616D01*
Y44390D01*
X75890D01*
Y50524D01*
X60110D01*
Y44390D01*
X61254D01*
Y32323D01*
X60754Y32076D01*
X60568Y32219D01*
X59838Y32521D01*
X59055Y32624D01*
X58272Y32521D01*
X57542Y32219D01*
X56915Y31738D01*
X56435Y31111D01*
X56132Y30382D01*
X56029Y29598D01*
X56130Y28836D01*
X54823Y27529D01*
X42129D01*
X41908Y27978D01*
X41991Y28086D01*
X42293Y28815D01*
X42396Y29598D01*
X42293Y30382D01*
X41991Y31111D01*
X41510Y31738D01*
X40883Y32219D01*
X40153Y32521D01*
X39370Y32624D01*
X38587Y32521D01*
X37857Y32219D01*
X37231Y31738D01*
X36762Y31128D01*
X26598D01*
X26013Y31011D01*
X25517Y30680D01*
X22793Y27956D01*
X22369Y28239D01*
X22608Y28815D01*
X22711Y29598D01*
X22608Y30382D01*
X22306Y31111D01*
X21825Y31738D01*
X21198Y32219D01*
X20468Y32521D01*
X19685Y32624D01*
X18902Y32521D01*
X18172Y32219D01*
X17545Y31738D01*
X17064Y31111D01*
X16762Y30382D01*
X16659Y29598D01*
X16760Y28836D01*
X15919Y27995D01*
X15587Y27499D01*
X15471Y26913D01*
Y19000D01*
X15587Y18415D01*
X15919Y17919D01*
X19493Y14344D01*
X19989Y14012D01*
X20575Y13896D01*
X22390D01*
Y13313D01*
X18449D01*
X2926Y28836D01*
X3026Y29598D01*
X2923Y30382D01*
X2620Y31111D01*
X2140Y31738D01*
X1513Y32219D01*
X783Y32521D01*
X0Y32624D01*
X-783Y32521D01*
X-1513Y32219D01*
X-2140Y31738D01*
X-2620Y31111D01*
X-2923Y30382D01*
X-3026Y29598D01*
X-2923Y28815D01*
X-2620Y28086D01*
X-2140Y27459D01*
X-1513Y26978D01*
X-783Y26676D01*
X0Y26572D01*
X763Y26673D01*
X16734Y10702D01*
X17230Y10370D01*
X17815Y10254D01*
X22390D01*
Y9110D01*
X28524D01*
Y13244D01*
Y16394D01*
Y19543D01*
Y22361D01*
X29014Y22851D01*
X29476Y22660D01*
Y19543D01*
Y16394D01*
Y13244D01*
Y9110D01*
X35610D01*
Y10254D01*
X39138D01*
Y7858D01*
X60898D01*
Y11614D01*
X61898D01*
Y7858D01*
X62427D01*
Y3043D01*
X62544Y2458D01*
X62875Y1962D01*
X66919Y-2081D01*
X67415Y-2413D01*
X68000Y-2529D01*
X68436D01*
X68445Y-3026D01*
X67860Y-3142D01*
X67363Y-3474D01*
X65434Y-5403D01*
X65103Y-5899D01*
X64986Y-6484D01*
Y-7858D01*
X41425D01*
Y-11614D01*
Y-15370D01*
X41955D01*
Y-16882D01*
X41366Y-17471D01*
X32634D01*
X26865Y-11702D01*
X26369Y-11371D01*
X25784Y-11254D01*
X23610D01*
Y-10110D01*
X17476D01*
Y-15457D01*
Y-18606D01*
Y-21756D01*
Y-25890D01*
X23610D01*
Y-24746D01*
X25583D01*
X26919Y-26081D01*
X27415Y-26413D01*
X28000Y-26529D01*
X37652D01*
X37769Y-26784D01*
X37790Y-27029D01*
X37230Y-27459D01*
X36750Y-28086D01*
X36447Y-28815D01*
X36344Y-29598D01*
X36445Y-30361D01*
X32335Y-34471D01*
X17629D01*
X17438Y-34009D01*
X18922Y-32524D01*
X19685Y-32624D01*
X20468Y-32521D01*
X21198Y-32219D01*
X21825Y-31738D01*
X22306Y-31111D01*
X22608Y-30382D01*
X22711Y-29598D01*
X22608Y-28815D01*
X22306Y-28086D01*
X21825Y-27459D01*
X21198Y-26978D01*
X20468Y-26676D01*
X19685Y-26572D01*
X18902Y-26676D01*
X18172Y-26978D01*
X17545Y-27459D01*
X17064Y-28086D01*
X16762Y-28815D01*
X16659Y-29598D01*
X16759Y-30361D01*
X14650Y-32471D01*
X2006D01*
X1837Y-31971D01*
X2140Y-31738D01*
X2608Y-31128D01*
X7075D01*
X7660Y-31011D01*
X8156Y-30680D01*
X12946Y-25890D01*
X16524D01*
Y-21756D01*
Y-18606D01*
Y-15457D01*
Y-10110D01*
X10390D01*
Y-11254D01*
X-7784D01*
X-8369Y-11371D01*
X-8865Y-11702D01*
X-9678Y-12515D01*
X-10000Y-12451D01*
X-10975Y-12645D01*
X-11802Y-13198D01*
X-12355Y-14025D01*
X-12549Y-15000D01*
X-12355Y-15976D01*
X-11802Y-16802D01*
X-10975Y-17355D01*
X-10000Y-17549D01*
X-9025Y-17355D01*
X-8198Y-16802D01*
X-7645Y-15976D01*
X-7451Y-15000D01*
X-7515Y-14678D01*
X-7150Y-14313D01*
X10390D01*
Y-15364D01*
X3278D01*
X2693Y-15481D01*
X2196Y-15812D01*
X-7081Y-25090D01*
X-7413Y-25586D01*
X-7529Y-26172D01*
Y-32828D01*
X-7413Y-33414D01*
X-7081Y-33910D01*
X-3910Y-37081D01*
X-3414Y-37413D01*
X-2828Y-37529D01*
X32969D01*
X33554Y-37413D01*
X34050Y-37081D01*
X38607Y-32524D01*
X39370Y-32624D01*
X40153Y-32521D01*
X40883Y-32219D01*
X41510Y-31738D01*
X41754Y-31420D01*
X42254Y-31589D01*
Y-33390D01*
X41110D01*
Y-39524D01*
X56890D01*
Y-33390D01*
X55746D01*
Y-30755D01*
X56246Y-30656D01*
X56435Y-31111D01*
X56915Y-31738D01*
X57542Y-32219D01*
X58272Y-32521D01*
X59055Y-32624D01*
X59838Y-32521D01*
X60568Y-32219D01*
X61195Y-31738D01*
X61676Y-31111D01*
X61978Y-30382D01*
X62081Y-29598D01*
X61978Y-28815D01*
X61676Y-28086D01*
X61195Y-27459D01*
X60568Y-26978D01*
X59838Y-26676D01*
X59055Y-26572D01*
X58272Y-26676D01*
X58139Y-26730D01*
X57856Y-26307D01*
X62479Y-21684D01*
X62811Y-21188D01*
X62895Y-20765D01*
X63388Y-20551D01*
X63919Y-21081D01*
X64415Y-21413D01*
X65000Y-21529D01*
X66291D01*
Y-23658D01*
X72819D01*
Y-23658D01*
X73181D01*
Y-23658D01*
X77939D01*
X82450Y-28168D01*
X82259Y-28630D01*
X80279D01*
Y-32386D01*
Y-36142D01*
X81839D01*
Y-32386D01*
X82839D01*
Y-36142D01*
X83368D01*
Y-36398D01*
X83485Y-36983D01*
X83816Y-37479D01*
X84919Y-38581D01*
X85415Y-38913D01*
X86000Y-39029D01*
X88486D01*
Y-44555D01*
Y-47026D01*
X86945D01*
X86360Y-47142D01*
X85863Y-47474D01*
X83816Y-49521D01*
X83485Y-50017D01*
X83368Y-50602D01*
Y-51858D01*
X82839D01*
Y-55614D01*
Y-59370D01*
X85927D01*
Y-62957D01*
X86044Y-63542D01*
X86375Y-64038D01*
X87419Y-65081D01*
X87915Y-65413D01*
X88500Y-65529D01*
X89791D01*
Y-67658D01*
X96319D01*
Y-67658D01*
X96681D01*
Y-67658D01*
X103209D01*
X103471Y-68049D01*
Y-79547D01*
X102971Y-79580D01*
X102923Y-79217D01*
X102620Y-78487D01*
X102140Y-77860D01*
X101513Y-77380D01*
X100783Y-77077D01*
X100000Y-76974D01*
X99217Y-77077D01*
X98487Y-77380D01*
X97860Y-77860D01*
X97392Y-78471D01*
X96134D01*
X77495Y-59832D01*
X77686Y-59370D01*
X79280D01*
Y-55614D01*
Y-51858D01*
X77720D01*
Y-55614D01*
X76720D01*
Y-51858D01*
X64925D01*
Y-55614D01*
Y-59370D01*
X65455D01*
Y-76984D01*
X65571Y-77570D01*
X65903Y-78066D01*
X67075Y-79237D01*
X66974Y-80000D01*
X67077Y-80783D01*
X67379Y-81513D01*
X67860Y-82140D01*
X68471Y-82608D01*
Y-83291D01*
X66343D01*
Y-89681D01*
X66343Y-89819D01*
Y-90181D01*
X66343Y-90319D01*
Y-92945D01*
X73658D01*
Y-90319D01*
X73658Y-90181D01*
Y-89819D01*
X73658Y-89681D01*
Y-83291D01*
X71529D01*
Y-82608D01*
X72140Y-82140D01*
X72620Y-81513D01*
X72923Y-80783D01*
X73026Y-80000D01*
X72923Y-79217D01*
X72620Y-78487D01*
X72140Y-77860D01*
X71513Y-77380D01*
X70783Y-77077D01*
X70000Y-76974D01*
X69237Y-77074D01*
X68514Y-76351D01*
Y-71330D01*
X68976Y-71139D01*
X77074Y-79237D01*
X76974Y-80000D01*
X77077Y-80783D01*
X77380Y-81513D01*
X77860Y-82140D01*
X78471Y-82608D01*
Y-83291D01*
X76342D01*
Y-89681D01*
X76342Y-89819D01*
Y-90181D01*
X76342Y-90319D01*
Y-92945D01*
X83657D01*
Y-90319D01*
X83657Y-90181D01*
Y-89819D01*
X83657Y-89681D01*
Y-83291D01*
X81529D01*
Y-82608D01*
X82140Y-82140D01*
X82621Y-81513D01*
X82923Y-80783D01*
X83026Y-80000D01*
X82923Y-79217D01*
X82621Y-78487D01*
X82140Y-77860D01*
X81513Y-77380D01*
X80783Y-77077D01*
X80000Y-76974D01*
X79237Y-77074D01*
X71073Y-68910D01*
Y-63889D01*
X71535Y-63697D01*
X87075Y-79237D01*
X86974Y-80000D01*
X87077Y-80783D01*
X87379Y-81513D01*
X87860Y-82140D01*
X88471Y-82608D01*
Y-83291D01*
X86343D01*
Y-89681D01*
X86343Y-89819D01*
Y-90181D01*
X86343Y-90319D01*
Y-92945D01*
X93657D01*
Y-90319D01*
X93657Y-90181D01*
Y-89819D01*
X93657Y-89681D01*
Y-83291D01*
X91529D01*
Y-82608D01*
X92140Y-82140D01*
X92620Y-81513D01*
X92923Y-80783D01*
X92980Y-80350D01*
X93508Y-80171D01*
X94419Y-81081D01*
X94915Y-81413D01*
X95500Y-81529D01*
X97392D01*
X97860Y-82140D01*
X98471Y-82608D01*
Y-83291D01*
X96342D01*
Y-89819D01*
X96342D01*
Y-90181D01*
X96342D01*
Y-92945D01*
X100000D01*
Y-93445D01*
X100500D01*
Y-96709D01*
X103471D01*
Y-98000D01*
X103587Y-98585D01*
X103919Y-99081D01*
X106933Y-102096D01*
X106832Y-102858D01*
X106936Y-103641D01*
X107238Y-104371D01*
X107719Y-104998D01*
X108345Y-105479D01*
X109075Y-105781D01*
X109858Y-105884D01*
X110641Y-105781D01*
X111371Y-105479D01*
X111998Y-104998D01*
X112479Y-104371D01*
X112781Y-103641D01*
X112884Y-102858D01*
X112781Y-102075D01*
X112479Y-101345D01*
X111998Y-100719D01*
X111371Y-100238D01*
X110641Y-99936D01*
X109858Y-99832D01*
X109096Y-99933D01*
X106529Y-97366D01*
Y-74279D01*
X107026Y-74205D01*
X107827Y-76140D01*
X108922Y-77927D01*
X110283Y-79520D01*
X111876Y-80881D01*
X113663Y-81976D01*
X115598Y-82777D01*
X117636Y-83267D01*
X119724Y-83431D01*
Y-83419D01*
X158916D01*
X159095Y-83455D01*
Y-83455D01*
X159123Y-83428D01*
X161106Y-83624D01*
X163040Y-84210D01*
X164823Y-85163D01*
X166385Y-86445D01*
X167667Y-88008D01*
X168620Y-89790D01*
X169207Y-91725D01*
X169396Y-93639D01*
X169376Y-93736D01*
Y-98425D01*
X169396Y-98523D01*
X169207Y-100437D01*
X168620Y-102371D01*
X167667Y-104154D01*
X166385Y-105716D01*
X164823Y-106998D01*
X163040Y-107951D01*
X161106Y-108538D01*
X159192Y-108726D01*
X159095Y-108707D01*
X-73189D01*
X-73189Y-108707D01*
Y-108707D01*
X-73681Y-108687D01*
X-75200Y-108538D01*
X-77135Y-107951D01*
X-78917Y-106998D01*
X-80480Y-105716D01*
X-81762Y-104154D01*
X-82715Y-102371D01*
X-83302Y-100437D01*
X-83490Y-98523D01*
X-83471Y-98425D01*
Y-92264D01*
Y92264D01*
Y98425D01*
X-83490Y98523D01*
X-83302Y100437D01*
X-82715Y102371D01*
X-81762Y104154D01*
X-80480Y105716D01*
X-78917Y106998D01*
X-77135Y107951D01*
X-75200Y108538D01*
X-73287Y108726D01*
X-73189Y108707D01*
X159100D01*
X159198Y108726D01*
X161111Y108538D01*
D02*
G37*
G36*
X10390Y-24121D02*
X6441Y-28069D01*
X2608D01*
X2140Y-27459D01*
X1513Y-26978D01*
X783Y-26676D01*
X-0Y-26572D01*
X-783Y-26676D01*
X-821Y-26691D01*
X-1105Y-26268D01*
X4059Y-21104D01*
X10390D01*
Y-24121D01*
D02*
G37*
%LPC*%
G36*
X81839Y-51858D02*
X80279D01*
Y-55614D01*
Y-59370D01*
X81839D01*
Y-55614D01*
Y-51858D01*
D02*
G37*
G36*
X63925Y-56114D02*
X62638D01*
Y-59370D01*
X63925D01*
Y-56114D01*
D02*
G37*
G36*
X56890Y-40476D02*
X41110D01*
Y-44054D01*
X21693Y-63471D01*
X-3000D01*
X-3585Y-63587D01*
X-4081Y-63919D01*
X-6081Y-65919D01*
X-6413Y-66415D01*
X-6529Y-67000D01*
Y-75000D01*
X-6413Y-75585D01*
X-6081Y-76081D01*
X-4081Y-78081D01*
X-3585Y-78413D01*
X-3000Y-78529D01*
X51024D01*
X51609Y-78413D01*
X52105Y-78081D01*
X58293Y-71894D01*
X59055Y-71994D01*
X59838Y-71891D01*
X60568Y-71589D01*
X61195Y-71108D01*
X61676Y-70481D01*
X61978Y-69752D01*
X62081Y-68968D01*
X61978Y-68185D01*
X61676Y-67456D01*
X61195Y-66829D01*
X60568Y-66348D01*
X59838Y-66046D01*
X59055Y-65943D01*
X58272Y-66046D01*
X57542Y-66348D01*
X56915Y-66829D01*
X56435Y-67456D01*
X56132Y-68185D01*
X56029Y-68968D01*
X56130Y-69731D01*
X50390Y-75471D01*
X45346D01*
X45154Y-75009D01*
X55298Y-64865D01*
X55629Y-64369D01*
X55746Y-63784D01*
Y-46610D01*
X56890D01*
Y-40476D01*
D02*
G37*
G36*
X74161Y-28630D02*
X62638D01*
Y-36142D01*
X62896D01*
Y-37699D01*
X62120Y-38475D01*
X62000Y-38451D01*
X61024Y-38645D01*
X60198Y-39198D01*
X59645Y-40025D01*
X59451Y-41000D01*
X59645Y-41976D01*
X60198Y-42802D01*
X61024Y-43355D01*
X62000Y-43549D01*
X62976Y-43355D01*
X63802Y-42802D01*
X64198D01*
X65025Y-43355D01*
X66000Y-43549D01*
X66975Y-43355D01*
X67802Y-42802D01*
X68198D01*
X69024Y-43355D01*
X70000Y-43549D01*
X70976Y-43355D01*
X71802Y-42802D01*
X72198D01*
X73024Y-43355D01*
X74000Y-43549D01*
X74976Y-43355D01*
X75802Y-42802D01*
X76355Y-41976D01*
X76549Y-41000D01*
X76355Y-40025D01*
X75802Y-39198D01*
X74976Y-38645D01*
X74000Y-38451D01*
X73632Y-38085D01*
Y-36142D01*
X74161D01*
Y-32386D01*
Y-28630D01*
D02*
G37*
G36*
X76720D02*
X75161D01*
Y-32386D01*
Y-36142D01*
X76720D01*
Y-32386D01*
Y-28630D01*
D02*
G37*
G36*
X63925Y-51858D02*
X62638D01*
Y-55114D01*
X63925D01*
Y-51858D01*
D02*
G37*
G36*
X79280Y-28630D02*
X77720D01*
Y-32386D01*
Y-36142D01*
X79280D01*
Y-32386D01*
Y-28630D01*
D02*
G37*
G36*
X-41055Y-91343D02*
Y-94500D01*
X-38291D01*
Y-91343D01*
X-41055D01*
D02*
G37*
G36*
X-38291Y-95500D02*
X-41055D01*
Y-98658D01*
X-38291D01*
Y-95500D01*
D02*
G37*
G36*
X136709D02*
X133945D01*
Y-98658D01*
X136709D01*
Y-95500D01*
D02*
G37*
G36*
X69500Y-93945D02*
X66343D01*
Y-96709D01*
X69500D01*
Y-93945D01*
D02*
G37*
G36*
X130181Y-91343D02*
X129819D01*
X129681Y-91343D01*
X123291D01*
Y-98658D01*
X125518D01*
Y-99345D01*
X124908Y-99813D01*
X124427Y-100440D01*
X124125Y-101170D01*
X124021Y-101953D01*
X124125Y-102736D01*
X124427Y-103466D01*
X124908Y-104092D01*
X125534Y-104573D01*
X126264Y-104876D01*
X127047Y-104979D01*
X127830Y-104876D01*
X128560Y-104573D01*
X129187Y-104092D01*
X129668Y-103466D01*
X129970Y-102736D01*
X130073Y-101953D01*
X129970Y-101170D01*
X129668Y-100440D01*
X129187Y-99813D01*
X128577Y-99345D01*
Y-98658D01*
X129681D01*
X129819Y-98658D01*
X130181D01*
X130319Y-98658D01*
X132945D01*
Y-95000D01*
Y-91343D01*
X130319D01*
X130181Y-91343D01*
D02*
G37*
G36*
X-71220Y-89124D02*
X-72574Y-89257D01*
X-73876Y-89652D01*
X-75076Y-90294D01*
X-76127Y-91156D01*
X-76990Y-92208D01*
X-77631Y-93408D01*
X-78026Y-94709D01*
X-78159Y-96063D01*
X-78026Y-97417D01*
X-77631Y-98718D01*
X-76990Y-99918D01*
X-76127Y-100970D01*
X-75076Y-101832D01*
X-73876Y-102474D01*
X-72574Y-102869D01*
X-71220Y-103002D01*
X-69867Y-102869D01*
X-68565Y-102474D01*
X-67365Y-101832D01*
X-66314Y-100970D01*
X-65451Y-99918D01*
X-64810Y-98718D01*
X-64415Y-97417D01*
X-64282Y-96063D01*
X-64415Y-94709D01*
X-64810Y-93408D01*
X-65451Y-92208D01*
X-66314Y-91156D01*
X-67365Y-90294D01*
X-68565Y-89652D01*
X-69867Y-89257D01*
X-71220Y-89124D01*
D02*
G37*
G36*
X157126D02*
X155772Y-89257D01*
X154471Y-89652D01*
X153271Y-90294D01*
X152219Y-91156D01*
X151356Y-92208D01*
X150715Y-93408D01*
X150320Y-94709D01*
X150187Y-96063D01*
X150320Y-97417D01*
X150715Y-98718D01*
X151356Y-99918D01*
X152219Y-100970D01*
X153271Y-101832D01*
X154471Y-102474D01*
X155772Y-102869D01*
X157126Y-103002D01*
X158480Y-102869D01*
X159781Y-102474D01*
X160981Y-101832D01*
X162032Y-100970D01*
X162896Y-99918D01*
X163537Y-98718D01*
X163932Y-97417D01*
X164065Y-96063D01*
X163932Y-94709D01*
X163537Y-93408D01*
X162896Y-92208D01*
X162032Y-91156D01*
X160981Y-90294D01*
X159781Y-89652D01*
X158480Y-89257D01*
X157126Y-89124D01*
D02*
G37*
G36*
X-44819Y-91343D02*
X-45181D01*
X-45319Y-91343D01*
X-51709D01*
Y-98658D01*
X-49482D01*
Y-99345D01*
X-50092Y-99813D01*
X-50573Y-100440D01*
X-50876Y-101170D01*
X-50979Y-101953D01*
X-50876Y-102736D01*
X-50573Y-103466D01*
X-50092Y-104092D01*
X-49466Y-104573D01*
X-48736Y-104876D01*
X-47953Y-104979D01*
X-47170Y-104876D01*
X-46440Y-104573D01*
X-45813Y-104092D01*
X-45332Y-103466D01*
X-45030Y-102736D01*
X-44927Y-101953D01*
X-45030Y-101170D01*
X-45332Y-100440D01*
X-45813Y-99813D01*
X-46423Y-99345D01*
Y-98658D01*
X-45319D01*
X-45181Y-98658D01*
X-44819D01*
X-44681Y-98658D01*
X-42055D01*
Y-95000D01*
Y-91343D01*
X-44681D01*
X-44819Y-91343D01*
D02*
G37*
G36*
X93657Y-93945D02*
X90500D01*
Y-96709D01*
X93657D01*
Y-93945D01*
D02*
G37*
G36*
X99500D02*
X96342D01*
Y-96709D01*
X99500D01*
Y-93945D01*
D02*
G37*
G36*
X133945Y-91343D02*
Y-94500D01*
X136709D01*
Y-91343D01*
X133945D01*
D02*
G37*
G36*
X89500Y-93945D02*
X86343D01*
Y-96709D01*
X89500D01*
Y-93945D01*
D02*
G37*
G36*
X73658D02*
X70500D01*
Y-96709D01*
X73658D01*
Y-93945D01*
D02*
G37*
G36*
X79500D02*
X76342D01*
Y-96709D01*
X79500D01*
Y-93945D01*
D02*
G37*
G36*
X83657D02*
X80500D01*
Y-96709D01*
X83657D01*
Y-93945D01*
D02*
G37*
G36*
X-35000Y72932D02*
X-36044Y72795D01*
X-37017Y72392D01*
X-37853Y71750D01*
X-38494Y70915D01*
X-38897Y69942D01*
X-39035Y68898D01*
X-38897Y67853D01*
X-38695Y67365D01*
X-50842Y55218D01*
X-51342Y55425D01*
Y56709D01*
X-58657D01*
Y50319D01*
X-58657Y50181D01*
Y49819D01*
X-58657Y49681D01*
Y46529D01*
X-60392D01*
X-60860Y47140D01*
X-61487Y47620D01*
X-62217Y47923D01*
X-63000Y48026D01*
X-63783Y47923D01*
X-64513Y47620D01*
X-65140Y47140D01*
X-65620Y46513D01*
X-65923Y45783D01*
X-66026Y45000D01*
X-65923Y44217D01*
X-65620Y43487D01*
X-65156Y42882D01*
X-65620Y42277D01*
X-65923Y41547D01*
X-66026Y40764D01*
X-65923Y39981D01*
X-65620Y39251D01*
X-65140Y38624D01*
X-64513Y38143D01*
X-63783Y37841D01*
X-63000Y37738D01*
X-62217Y37841D01*
X-61487Y38143D01*
X-60860Y38624D01*
X-60392Y39234D01*
X-58657D01*
Y36319D01*
X-58657Y36181D01*
Y35819D01*
X-58657Y35681D01*
Y29291D01*
X-51342D01*
Y31026D01*
X-26529D01*
Y7919D01*
X-26765Y7821D01*
X-27496Y7260D01*
X-28057Y6529D01*
X-28155Y6293D01*
X-30236D01*
X-30821Y6177D01*
X-31318Y5845D01*
X-56081Y-18919D01*
X-56413Y-19415D01*
X-56529Y-20000D01*
Y-29291D01*
X-58657D01*
Y-35681D01*
X-58657Y-35819D01*
Y-36181D01*
X-58657Y-36319D01*
Y-39471D01*
X-60392D01*
X-60860Y-38860D01*
X-61487Y-38379D01*
X-62217Y-38077D01*
X-63000Y-37974D01*
X-63783Y-38077D01*
X-64513Y-38379D01*
X-65140Y-38860D01*
X-65620Y-39487D01*
X-65923Y-40217D01*
X-66026Y-41000D01*
X-65923Y-41783D01*
X-65620Y-42513D01*
X-65141Y-43138D01*
X-65620Y-43763D01*
X-65923Y-44492D01*
X-66026Y-45276D01*
X-65923Y-46059D01*
X-65620Y-46788D01*
X-65140Y-47415D01*
X-64513Y-47896D01*
X-63783Y-48198D01*
X-63000Y-48302D01*
X-62217Y-48198D01*
X-61487Y-47896D01*
X-60860Y-47415D01*
X-60392Y-46805D01*
X-58657D01*
Y-49681D01*
X-58657Y-49819D01*
Y-50181D01*
X-58657Y-50319D01*
Y-56709D01*
X-51342D01*
Y-54974D01*
X-49445D01*
X-48860Y-54858D01*
X-48363Y-54526D01*
X-46919Y-53081D01*
X-46587Y-52585D01*
X-46471Y-52000D01*
Y-34000D01*
X-46587Y-33415D01*
X-46919Y-32919D01*
X-48363Y-31474D01*
X-48860Y-31142D01*
X-49445Y-31026D01*
X-51342D01*
Y-29291D01*
X-53471D01*
Y-20633D01*
X-29603Y3234D01*
X-28155D01*
X-28057Y2999D01*
X-27496Y2268D01*
X-26765Y1706D01*
X-25914Y1354D01*
X-25000Y1234D01*
X-24086Y1354D01*
X-23235Y1706D01*
X-22504Y2268D01*
X-21943Y2999D01*
X-21590Y3850D01*
X-21470Y4764D01*
X-21590Y5677D01*
X-21943Y6529D01*
X-22504Y7260D01*
X-23235Y7821D01*
X-23471Y7919D01*
Y32555D01*
Y58898D01*
X-23587Y59483D01*
X-23919Y59979D01*
X-31305Y67366D01*
X-31103Y67853D01*
X-30966Y68898D01*
X-31103Y69942D01*
X-31506Y70915D01*
X-32147Y71750D01*
X-32983Y72392D01*
X-33956Y72795D01*
X-35000Y72932D01*
D02*
G37*
G36*
X-45500Y68398D02*
X-48969D01*
X-48897Y67853D01*
X-48494Y66880D01*
X-47853Y66045D01*
X-47017Y65404D01*
X-46044Y65001D01*
X-45500Y64929D01*
Y68398D01*
D02*
G37*
G36*
X-41031D02*
X-44500D01*
Y64929D01*
X-43956Y65001D01*
X-42983Y65404D01*
X-42147Y66045D01*
X-41506Y66880D01*
X-41103Y67853D01*
X-41031Y68398D01*
D02*
G37*
G36*
X136709Y94500D02*
X133945D01*
Y91343D01*
X136709D01*
Y94500D01*
D02*
G37*
G36*
X-38291D02*
X-41055D01*
Y91343D01*
X-38291D01*
Y94500D01*
D02*
G37*
G36*
X100000Y58751D02*
X98968Y58615D01*
X98007Y58217D01*
X97181Y57583D01*
X96547Y56757D01*
X96149Y55796D01*
X96013Y54764D01*
X96149Y53732D01*
X96547Y52770D01*
X97181Y51945D01*
X98007Y51311D01*
X98968Y50913D01*
X100000Y50777D01*
X101032Y50913D01*
X101993Y51311D01*
X102819Y51945D01*
X103453Y52770D01*
X103851Y53732D01*
X103987Y54764D01*
X103851Y55796D01*
X103453Y56757D01*
X102819Y57583D01*
X101993Y58217D01*
X101032Y58615D01*
X100000Y58751D01*
D02*
G37*
G36*
X59055Y71994D02*
X58272Y71891D01*
X57542Y71589D01*
X56915Y71108D01*
X56435Y70481D01*
X56132Y69752D01*
X56029Y68968D01*
X56132Y68185D01*
X56435Y67456D01*
X56762Y67029D01*
X56515Y66529D01*
X43972D01*
X42296Y68206D01*
X42396Y68968D01*
X42293Y69752D01*
X41991Y70481D01*
X41510Y71108D01*
X40883Y71589D01*
X40153Y71891D01*
X39370Y71994D01*
X38587Y71891D01*
X37857Y71589D01*
X37231Y71108D01*
X36750Y70481D01*
X36447Y69752D01*
X36344Y68968D01*
X36447Y68185D01*
X36750Y67456D01*
X37231Y66829D01*
X37857Y66348D01*
X38587Y66046D01*
X39370Y65943D01*
X40133Y66043D01*
X42257Y63919D01*
X42753Y63587D01*
X43339Y63471D01*
X67366D01*
X68045Y62792D01*
Y59750D01*
X67545Y59598D01*
X67507Y59656D01*
X66081Y61081D01*
X65585Y61413D01*
X65000Y61529D01*
X29287D01*
X22611Y68206D01*
X22711Y68968D01*
X22608Y69752D01*
X22306Y70481D01*
X21825Y71108D01*
X21198Y71589D01*
X20468Y71891D01*
X19685Y71994D01*
X18902Y71891D01*
X18172Y71589D01*
X17545Y71108D01*
X17064Y70481D01*
X16762Y69752D01*
X16659Y68968D01*
X16762Y68185D01*
X17064Y67456D01*
X17545Y66829D01*
X18172Y66348D01*
X18902Y66046D01*
X19685Y65943D01*
X20448Y66043D01*
X27572Y58919D01*
X28068Y58587D01*
X28654Y58471D01*
X64367D01*
X64727Y58110D01*
X64520Y57610D01*
X60110D01*
Y56073D01*
X15059D01*
X2926Y68206D01*
X3026Y68968D01*
X2923Y69752D01*
X2620Y70481D01*
X2140Y71108D01*
X1513Y71589D01*
X783Y71891D01*
X0Y71994D01*
X-783Y71891D01*
X-1513Y71589D01*
X-2140Y71108D01*
X-2620Y70481D01*
X-2923Y69752D01*
X-3026Y68968D01*
X-2923Y68185D01*
X-2620Y67456D01*
X-2140Y66829D01*
X-1513Y66348D01*
X-783Y66046D01*
X0Y65943D01*
X763Y66043D01*
X13344Y53462D01*
X13840Y53130D01*
X14425Y53014D01*
X60110D01*
Y51476D01*
X75890D01*
Y57610D01*
X74746D01*
Y64784D01*
X74629Y65369D01*
X74298Y65865D01*
X70113Y70050D01*
X69617Y70381D01*
X69032Y70498D01*
X61663D01*
X61195Y71108D01*
X60568Y71589D01*
X59838Y71891D01*
X59055Y71994D01*
D02*
G37*
G36*
X157126Y103789D02*
X155772Y103656D01*
X154471Y103261D01*
X153271Y102620D01*
X152219Y101757D01*
X151356Y100705D01*
X150715Y99506D01*
X150320Y98204D01*
X150187Y96850D01*
X150320Y95497D01*
X150715Y94195D01*
X151356Y92995D01*
X152219Y91944D01*
X153271Y91081D01*
X154471Y90440D01*
X155772Y90045D01*
X157126Y89912D01*
X158480Y90045D01*
X159781Y90440D01*
X160981Y91081D01*
X162032Y91944D01*
X162896Y92995D01*
X163537Y94195D01*
X163932Y95497D01*
X164065Y96850D01*
X163932Y98204D01*
X163537Y99506D01*
X162896Y100705D01*
X162032Y101757D01*
X160981Y102620D01*
X159781Y103261D01*
X158480Y103656D01*
X157126Y103789D01*
D02*
G37*
G36*
X-47953Y104979D02*
X-48736Y104876D01*
X-49466Y104573D01*
X-50092Y104092D01*
X-50573Y103466D01*
X-50876Y102736D01*
X-50979Y101953D01*
X-50876Y101170D01*
X-50573Y100440D01*
X-50092Y99813D01*
X-49482Y99345D01*
Y98658D01*
X-51709D01*
Y91343D01*
X-45319D01*
X-45181Y91343D01*
X-44819D01*
X-44681Y91343D01*
X-42055D01*
Y95000D01*
Y98658D01*
X-44681D01*
X-44819Y98658D01*
X-45181D01*
X-45319Y98658D01*
X-46423D01*
Y99345D01*
X-45813Y99813D01*
X-45332Y100440D01*
X-45030Y101170D01*
X-44927Y101953D01*
X-45030Y102736D01*
X-45332Y103466D01*
X-45813Y104092D01*
X-46440Y104573D01*
X-47170Y104876D01*
X-47953Y104979D01*
D02*
G37*
G36*
X127047D02*
X126264Y104876D01*
X125534Y104573D01*
X124908Y104092D01*
X124427Y103466D01*
X124125Y102736D01*
X124021Y101953D01*
X124125Y101170D01*
X124427Y100440D01*
X124908Y99813D01*
X125518Y99345D01*
Y98658D01*
X123291D01*
Y91343D01*
X129681D01*
X129819Y91343D01*
X130181D01*
X130319Y91343D01*
X132945D01*
Y95000D01*
Y98658D01*
X130319D01*
X130181Y98658D01*
X129819D01*
X129681Y98658D01*
X128577D01*
Y99345D01*
X129187Y99813D01*
X129668Y100440D01*
X129970Y101170D01*
X130073Y101953D01*
X129970Y102736D01*
X129668Y103466D01*
X129187Y104092D01*
X128560Y104573D01*
X127830Y104876D01*
X127047Y104979D01*
D02*
G37*
G36*
X-45500Y72866D02*
X-46044Y72795D01*
X-47017Y72392D01*
X-47853Y71750D01*
X-48494Y70915D01*
X-48897Y69942D01*
X-48969Y69398D01*
X-45500D01*
Y72866D01*
D02*
G37*
G36*
X-44500Y72866D02*
Y69398D01*
X-41031D01*
X-41103Y69942D01*
X-41506Y70915D01*
X-42147Y71750D01*
X-42983Y72392D01*
X-43956Y72795D01*
X-44500Y72866D01*
D02*
G37*
G36*
X-71220Y103789D02*
X-72574Y103656D01*
X-73876Y103261D01*
X-75076Y102620D01*
X-76127Y101757D01*
X-76990Y100705D01*
X-77631Y99506D01*
X-78026Y98204D01*
X-78159Y96850D01*
X-78026Y95497D01*
X-77631Y94195D01*
X-76990Y92995D01*
X-76127Y91944D01*
X-75076Y91081D01*
X-73876Y90440D01*
X-72574Y90045D01*
X-71220Y89912D01*
X-69867Y90045D01*
X-68565Y90440D01*
X-67365Y91081D01*
X-66314Y91944D01*
X-65451Y92995D01*
X-64810Y94195D01*
X-64415Y95497D01*
X-64282Y96850D01*
X-64415Y98204D01*
X-64810Y99506D01*
X-65451Y100705D01*
X-66314Y101757D01*
X-67365Y102620D01*
X-68565Y103261D01*
X-69867Y103656D01*
X-71220Y103789D01*
D02*
G37*
G36*
X34945Y3658D02*
Y500D01*
X37709D01*
Y3658D01*
X34945D01*
D02*
G37*
G36*
X31181Y3658D02*
X30819D01*
X30681Y3658D01*
X24291D01*
Y1529D01*
X23608D01*
X23140Y2140D01*
X22513Y2620D01*
X21783Y2923D01*
X21000Y3026D01*
X20217Y2923D01*
X19487Y2620D01*
X18860Y2140D01*
X18380Y1513D01*
X18077Y783D01*
X17974Y0D01*
X18077Y-783D01*
X18380Y-1513D01*
X18860Y-2140D01*
X19487Y-2620D01*
X20217Y-2923D01*
X21000Y-3026D01*
X21783Y-2923D01*
X22513Y-2620D01*
X23140Y-2140D01*
X23608Y-1529D01*
X24291D01*
Y-3658D01*
X30681D01*
X30819Y-3658D01*
X31181D01*
X31319Y-3658D01*
X33945D01*
Y0D01*
Y3658D01*
X31319D01*
X31181Y3658D01*
D02*
G37*
G36*
X90000Y28751D02*
X88968Y28615D01*
X88007Y28216D01*
X87181Y27583D01*
X86547Y26757D01*
X86149Y25796D01*
X86013Y24764D01*
X86149Y23732D01*
X86547Y22770D01*
X87181Y21945D01*
X88007Y21311D01*
X88968Y20913D01*
X90000Y20777D01*
X91032Y20913D01*
X91993Y21311D01*
X92819Y21945D01*
X93453Y22770D01*
X93851Y23732D01*
X93987Y24764D01*
X93851Y25796D01*
X93453Y26757D01*
X92819Y27583D01*
X91993Y28216D01*
X91032Y28615D01*
X90000Y28751D01*
D02*
G37*
G36*
X40425Y-12114D02*
X39138D01*
Y-15370D01*
X40425D01*
Y-12114D01*
D02*
G37*
G36*
Y-7858D02*
X39138D01*
Y-11114D01*
X40425D01*
Y-7858D01*
D02*
G37*
G36*
X37709Y-500D02*
X34945D01*
Y-3658D01*
X37709D01*
Y-500D01*
D02*
G37*
G36*
X-41055Y98658D02*
Y95500D01*
X-38291D01*
Y98658D01*
X-41055D01*
D02*
G37*
G36*
X90000Y48751D02*
X88968Y48615D01*
X88007Y48217D01*
X87181Y47583D01*
X86547Y46757D01*
X86149Y45796D01*
X86013Y44764D01*
X86149Y43732D01*
X86547Y42770D01*
X87181Y41945D01*
X88007Y41311D01*
X88968Y40913D01*
X90000Y40777D01*
X91032Y40913D01*
X91993Y41311D01*
X92819Y41945D01*
X93453Y42770D01*
X93851Y43732D01*
X93987Y44764D01*
X93851Y45796D01*
X93453Y46757D01*
X92819Y47583D01*
X91993Y48217D01*
X91032Y48615D01*
X90000Y48751D01*
D02*
G37*
G36*
X100000D02*
X98968Y48615D01*
X98007Y48217D01*
X97181Y47583D01*
X96547Y46757D01*
X96149Y45796D01*
X96013Y44764D01*
X96149Y43732D01*
X96547Y42770D01*
X97181Y41945D01*
X98007Y41311D01*
X98968Y40913D01*
X100000Y40777D01*
X101032Y40913D01*
X101993Y41311D01*
X102819Y41945D01*
X103453Y42770D01*
X103851Y43732D01*
X103987Y44764D01*
X103851Y45796D01*
X103453Y46757D01*
X102819Y47583D01*
X101993Y48217D01*
X101032Y48615D01*
X100000Y48751D01*
D02*
G37*
G36*
X133945Y98658D02*
Y95500D01*
X136709D01*
Y98658D01*
X133945D01*
D02*
G37*
G36*
X100000Y28751D02*
X98968Y28615D01*
X98007Y28216D01*
X97181Y27583D01*
X96547Y26757D01*
X96149Y25796D01*
X96013Y24764D01*
X96149Y23732D01*
X96547Y22770D01*
X97181Y21945D01*
X98007Y21311D01*
X98968Y20913D01*
X100000Y20777D01*
X101032Y20913D01*
X101993Y21311D01*
X102819Y21945D01*
X103453Y22770D01*
X103851Y23732D01*
X103987Y24764D01*
X103851Y25796D01*
X103453Y26757D01*
X102819Y27583D01*
X101993Y28216D01*
X101032Y28615D01*
X100000Y28751D01*
D02*
G37*
G36*
X90000Y38751D02*
X88968Y38615D01*
X88007Y38217D01*
X87181Y37583D01*
X86547Y36757D01*
X86149Y35796D01*
X86013Y34764D01*
X86149Y33732D01*
X86547Y32770D01*
X87181Y31945D01*
X88007Y31311D01*
X88968Y30913D01*
X90000Y30777D01*
X91032Y30913D01*
X91993Y31311D01*
X92819Y31945D01*
X93453Y32770D01*
X93851Y33732D01*
X93987Y34764D01*
X93851Y35796D01*
X93453Y36757D01*
X92819Y37583D01*
X91993Y38217D01*
X91032Y38615D01*
X90000Y38751D01*
D02*
G37*
G36*
X100000D02*
X98968Y38615D01*
X98007Y38217D01*
X97181Y37583D01*
X96547Y36757D01*
X96149Y35796D01*
X96013Y34764D01*
X96149Y33732D01*
X96547Y32770D01*
X97181Y31945D01*
X98007Y31311D01*
X98968Y30913D01*
X100000Y30777D01*
X101032Y30913D01*
X101993Y31311D01*
X102819Y31945D01*
X103453Y32770D01*
X103851Y33732D01*
X103987Y34764D01*
X103851Y35796D01*
X103453Y36757D01*
X102819Y37583D01*
X101993Y38217D01*
X101032Y38615D01*
X100000Y38751D01*
D02*
G37*
%LPD*%
G36*
X45896Y-60280D02*
X40133Y-66043D01*
X39370Y-65943D01*
X38587Y-66046D01*
X37857Y-66348D01*
X37230Y-66829D01*
X36750Y-67456D01*
X36447Y-68185D01*
X36344Y-68968D01*
X36447Y-69752D01*
X36750Y-70481D01*
X37125Y-70971D01*
X36934Y-71471D01*
X24350D01*
X22611Y-69731D01*
X22711Y-68968D01*
X22608Y-68185D01*
X22306Y-67456D01*
X21979Y-67029D01*
X22225Y-66529D01*
X22327D01*
X22912Y-66413D01*
X23408Y-66081D01*
X42879Y-46610D01*
X45896D01*
Y-60280D01*
D02*
G37*
G36*
X17391Y-67029D02*
X17064Y-67456D01*
X16762Y-68185D01*
X16659Y-68968D01*
X16762Y-69752D01*
X17064Y-70481D01*
X17545Y-71108D01*
X18172Y-71589D01*
X18902Y-71891D01*
X19685Y-71994D01*
X20448Y-71894D01*
X21562Y-73009D01*
X21371Y-73471D01*
X6665D01*
X2926Y-69731D01*
X3026Y-68968D01*
X2923Y-68185D01*
X2620Y-67456D01*
X2293Y-67029D01*
X2540Y-66529D01*
X17145D01*
X17391Y-67029D01*
D02*
G37*
G36*
X-49529Y-34633D02*
Y-51367D01*
X-50078Y-51916D01*
X-51342D01*
Y-50319D01*
X-51342Y-50181D01*
Y-49819D01*
X-51342Y-49681D01*
Y-43291D01*
X-58657D01*
Y-43746D01*
X-60392D01*
X-60859Y-43138D01*
X-60392Y-42529D01*
X-58657D01*
Y-42709D01*
X-51342D01*
Y-36319D01*
X-51342Y-36181D01*
Y-35819D01*
X-51342Y-35681D01*
Y-34084D01*
X-50078D01*
X-49529Y-34633D01*
D02*
G37*
G36*
X-36044Y65001D02*
X-35000Y64863D01*
X-33956Y65001D01*
X-33468Y65203D01*
X-26529Y58264D01*
Y34084D01*
X-51342D01*
Y35681D01*
X-51342Y35819D01*
Y36181D01*
X-51342Y36319D01*
Y42709D01*
X-58657D01*
Y42293D01*
X-60392D01*
X-60844Y42882D01*
X-60392Y43471D01*
X-58657D01*
Y43291D01*
X-51342D01*
Y49681D01*
X-51342Y49819D01*
Y50181D01*
X-51342Y50319D01*
Y51916D01*
X-50453D01*
X-49867Y52032D01*
X-49371Y52363D01*
X-36532Y65203D01*
X-36044Y65001D01*
D02*
G37*
D15*
X68445Y-4555D02*
X79555D01*
X69075Y11614D02*
X83150D01*
X90000Y4764D01*
X-49445Y-53445D02*
X-48000Y-52000D01*
Y-34000D01*
X-49445Y-32555D02*
X-48000Y-34000D01*
X-55000Y-32555D02*
X-49445D01*
X-55000D02*
Y-20000D01*
X-30236Y4764D01*
X-25000D01*
Y32555D01*
X70000Y-86555D02*
Y-80000D01*
X80000Y-86555D02*
Y-80000D01*
X90000Y-86555D02*
Y-80000D01*
X100000Y-86555D02*
Y-80000D01*
X70000Y-93445D02*
X80000D01*
X90000D01*
X100000D01*
X77220Y-55614D02*
X79779D01*
X64425D02*
Y-50575D01*
X65500Y-49500D01*
X79779Y-55614D02*
Y-50779D01*
X78500Y-49500D02*
X79779Y-50779D01*
X65500Y-49500D02*
X78500D01*
X84898Y-36398D02*
X86000Y-37500D01*
X92575Y-36425D02*
Y-32386D01*
X66984Y-76984D02*
Y-55614D01*
Y-76984D02*
X70000Y-80000D01*
X69543Y-69543D02*
Y-55614D01*
Y-69543D02*
X80000Y-80000D01*
X72102Y-62102D02*
Y-55614D01*
Y-62102D02*
X90000Y-80000D01*
X74661Y-55614D02*
X74933Y-55886D01*
Y-59433D02*
Y-55886D01*
Y-59433D02*
X95500Y-80000D01*
X100000D01*
X64425Y-91870D02*
X66000Y-93445D01*
X70000D01*
X87457Y-62957D02*
Y-55614D01*
Y-62957D02*
X88500Y-64000D01*
X93055D01*
X99945D02*
X103500D01*
X105000Y-62500D01*
X84898Y-55614D02*
Y-50602D01*
X86945Y-48555D01*
X90016Y-55614D02*
Y-48555D01*
X86945D02*
X90016D01*
X90000Y-37500D02*
X90016Y-37516D01*
X51161Y11614D02*
Y16755D01*
X62783Y28377D01*
Y47457D01*
X53720Y11614D02*
Y16486D01*
X66425Y29190D01*
Y47457D01*
X56279Y11614D02*
X56551Y11886D01*
Y16488D01*
X58839Y11614D02*
Y15947D01*
X73216Y54543D02*
Y64784D01*
X69032Y68968D02*
X73216Y64784D01*
X59055Y68968D02*
X69032D01*
X39370D02*
X43339Y65000D01*
X69575Y54543D02*
Y63425D01*
X68000Y65000D02*
X69575Y63425D01*
X43339Y65000D02*
X68000D01*
X66425Y54543D02*
Y58575D01*
X65000Y60000D02*
X66425Y58575D01*
X28654Y60000D02*
X65000D01*
X19685Y68968D02*
X28654Y60000D01*
X14425Y54543D02*
X62783D01*
X0Y68968D02*
X14425Y54543D01*
X79764Y75000D02*
X90000Y64764D01*
X-8898Y75000D02*
X79764D01*
X-15000Y68898D02*
X-8898Y75000D01*
X-25000Y68898D02*
X-13898Y80000D01*
X84764D01*
X100000Y64764D01*
X17815Y11784D02*
X25457D01*
X0Y29598D02*
X17815Y11784D01*
X32543D02*
X40756D01*
X40925Y11614D01*
X43484D02*
Y15516D01*
X43130Y15870D02*
X43484Y15516D01*
X32988Y15870D02*
X43130D01*
X32543Y15425D02*
X32988Y15870D01*
X45772Y11886D02*
X46043Y11614D01*
X45772Y11886D02*
Y16057D01*
X43254Y18575D02*
X45772Y16057D01*
X32543Y18575D02*
X43254D01*
X48331Y11886D02*
X48602Y11614D01*
X48331Y11886D02*
Y16326D01*
X42440Y22217D02*
X48331Y16326D01*
X32543Y22217D02*
X42440D01*
X25457D02*
X26217D01*
X30000Y26000D01*
X55457D01*
X59055Y29598D01*
X22425Y18575D02*
X25457D01*
X21000Y20000D02*
X22425Y18575D01*
X21000Y20000D02*
Y24000D01*
X26598Y29598D01*
X39370D01*
X20575Y15425D02*
X25457D01*
X17000Y26913D02*
X19685Y29598D01*
X17000Y19000D02*
X20575Y15425D01*
X17000Y19000D02*
Y26913D01*
X40925Y-11614D02*
Y-3075D01*
X44000Y0D01*
X58000D01*
X61398Y3398D02*
Y11614D01*
X58000Y0D02*
X61398Y3398D01*
X90016Y-32386D02*
Y-15016D01*
X87457Y-32386D02*
Y-15457D01*
X58839Y15947D02*
X73216Y30325D01*
Y47457D01*
X56551Y16488D02*
X69575Y29511D01*
Y47457D01*
X66516Y11614D02*
Y16516D01*
X63957Y11614D02*
Y16957D01*
X95236Y60000D02*
X100000Y64764D01*
X85000Y60000D02*
X95236D01*
X78000Y53000D02*
X85000Y60000D01*
X78000Y31000D02*
Y53000D01*
X63957Y16957D02*
X78000Y31000D01*
X85000Y-10000D02*
X90016Y-15016D01*
X83000Y-11000D02*
X87457Y-15457D01*
X63957Y-18957D02*
Y-11614D01*
Y-18957D02*
X65000Y-20000D01*
X69555D01*
X69075Y-11614D02*
X75831D01*
X76000Y-11445D01*
X76445Y-20000D02*
X84898Y-28453D01*
X76445Y-20000D02*
X81000Y-15445D01*
Y-6000D01*
X79555Y-4555D02*
X81000Y-6000D01*
X66516Y-11614D02*
Y-6484D01*
X68445Y-4555D01*
X63957Y3043D02*
Y11614D01*
X83000Y-11000D02*
Y-3000D01*
X66516Y3484D02*
Y11614D01*
X63957Y3043D02*
X68000Y-1000D01*
X81000D01*
X83000Y-3000D01*
X66516Y3484D02*
X69000Y1000D01*
X81828D01*
X54216Y-36457D02*
Y-27784D01*
X61398Y-20602D01*
Y-11614D01*
X50575Y-36457D02*
Y-28425D01*
X58839Y-20161D01*
Y-11614D01*
X47425Y-36457D02*
Y-28575D01*
X56279Y-19721D01*
Y-11614D01*
X43784Y-36457D02*
Y-29217D01*
X53720Y-19279D01*
Y-11614D01*
X45000Y-25000D02*
X51161Y-18839D01*
Y-11614D01*
X44000Y-23000D02*
X48602Y-18398D01*
Y-11614D01*
X43172Y-21000D02*
X46043Y-18128D01*
Y-11614D01*
X42000Y-19000D02*
X43484Y-17516D01*
Y-11614D01*
X47425Y-60913D02*
Y-43543D01*
X39370Y-68968D02*
X47425Y-60913D01*
X19685Y-68968D02*
X23717Y-73000D01*
X41575D01*
X50575Y-64000D01*
Y-43543D01*
X-0Y-68968D02*
X6032Y-75000D01*
X43000D01*
X54216Y-63784D01*
Y-43543D01*
X74000Y-41000D02*
Y-40757D01*
X72102Y-38860D02*
X74000Y-40757D01*
X72102Y-38860D02*
Y-32386D01*
X69543Y-40543D02*
Y-32386D01*
Y-40543D02*
X70000Y-41000D01*
X66984Y-40016D02*
Y-32386D01*
X66000Y-41000D02*
X66984Y-40016D01*
X64425Y-38332D02*
Y-32386D01*
X62000Y-41000D02*
Y-40757D01*
X22327Y-65000D02*
X43784Y-43543D01*
X-3000Y-65000D02*
X22327D01*
X-5000Y-67000D02*
X-3000Y-65000D01*
X-5000Y-75000D02*
Y-67000D01*
Y-75000D02*
X-3000Y-77000D01*
X51024D01*
X59055Y-68968D01*
X20543Y-19575D02*
X26575D01*
X30000Y-23000D01*
X44000D01*
X20543Y-16425D02*
X26425D01*
X31000Y-21000D01*
X43172D01*
X20543Y-23216D02*
X26217D01*
X28000Y-25000D01*
X45000D01*
X20543Y-12784D02*
X25784D01*
X32000Y-19000D01*
X42000D01*
X-0Y-29598D02*
X7075D01*
X13457Y-23216D01*
X3425Y-19575D02*
X13457D01*
X-4000Y-27000D02*
X3425Y-19575D01*
X-4000Y-32000D02*
Y-27000D01*
Y-32000D02*
X-2000Y-34000D01*
X15283D01*
X19685Y-29598D01*
X12988Y-16894D02*
X13457Y-16425D01*
X3278Y-16894D02*
X12988D01*
X-6000Y-26172D02*
X3278Y-16894D01*
X-6000Y-32828D02*
Y-26172D01*
Y-32828D02*
X-2828Y-36000D01*
X32969D01*
X39370Y-29598D01*
X-7784Y-12784D02*
X13457D01*
X-10000Y-15000D02*
X-7784Y-12784D01*
X-55000Y-53445D02*
X-49445D01*
X-35000Y68898D02*
X-25000Y58898D01*
X-55000Y32555D02*
X-25000D01*
X-55000Y53445D02*
X-50453D01*
X-35000Y68898D01*
X-25000Y32555D02*
Y58898D01*
X103500Y-64000D02*
X105000Y-65500D01*
Y-98000D02*
Y-65500D01*
Y-98000D02*
X109858Y-102858D01*
X21000Y0D02*
X27555D01*
X37850D02*
X40925Y-3075D01*
X34445Y0D02*
X37850D01*
X127047Y-101953D02*
Y-95492D01*
X126555Y-95000D02*
X127047Y-95492D01*
X100000Y-102000D02*
Y-93445D01*
Y-102000D02*
X105000Y-107000D01*
X131000D01*
X133445Y-104555D01*
Y-95000D01*
X-47953Y95492D02*
Y101953D01*
X-48445Y95000D02*
X-47953Y95492D01*
X127047D02*
Y101953D01*
X126555Y95000D02*
X127047Y95492D01*
X-47953Y-101953D02*
Y-95492D01*
X-48445Y-95000D02*
X-47953Y-95492D01*
X85000Y-10000D02*
Y-2172D01*
X81828Y1000D02*
X85000Y-2172D01*
X66516Y16516D02*
X82000Y32000D01*
X92575Y-55614D02*
X94614D01*
X96000Y-57000D01*
X100000D02*
Y-51445D01*
Y-50555D01*
X103555Y-44555D02*
X105000Y-46000D01*
Y-62500D02*
Y-46000D01*
X90016Y-44555D02*
X100000D01*
X103555D01*
X96000Y-57000D02*
X100000D01*
X84898Y-32386D02*
Y-28453D01*
X86000Y-37500D02*
X90000D01*
X79779Y-55614D02*
X82339D01*
X62000Y-40757D02*
X64425Y-38332D01*
X-63000Y45000D02*
X-55000D01*
X-63000Y-45276D02*
X-55000D01*
X-63000Y-41000D02*
X-55000D01*
X84898Y-36398D02*
Y-32386D01*
X91500Y-37500D02*
X92575Y-36425D01*
X90000Y-37500D02*
X91500D01*
X-63000Y40764D02*
X-55000D01*
X64425Y-91870D02*
Y-55614D01*
X90016Y-48555D02*
Y-44555D01*
Y-37516D01*
X90000Y14764D02*
X94764Y10000D01*
X102000D01*
X105000Y7000D01*
Y-35000D02*
Y7000D01*
X100000Y-40000D02*
X105000Y-35000D01*
X90000Y4764D02*
X95000Y-236D01*
Y-16000D02*
Y-236D01*
X92575Y-18425D02*
X95000Y-16000D01*
X92575Y-32386D02*
Y-18425D01*
D16*
X-71220Y96850D02*
D03*
X157126D02*
D03*
Y-96063D02*
D03*
X-71220D02*
D03*
D17*
X-15000Y68898D02*
D03*
X-25000D02*
D03*
X-35000D02*
D03*
X-45000D02*
D03*
D18*
X90000Y64764D02*
D03*
X100000D02*
D03*
X90000Y54764D02*
D03*
X100000D02*
D03*
X90000Y44764D02*
D03*
X100000D02*
D03*
X90000Y34764D02*
D03*
X100000D02*
D03*
X90000Y24764D02*
D03*
X100000D02*
D03*
X90000Y14764D02*
D03*
X100000D02*
D03*
X90000Y4764D02*
D03*
X100000D02*
D03*
X90000Y-5236D02*
D03*
D19*
X100000D02*
D03*
D20*
X-25000Y4764D02*
D03*
X82000Y32000D02*
D03*
D21*
X70000Y-80000D02*
D03*
X80000D02*
D03*
X90000D02*
D03*
X100000D02*
D03*
X-63000Y45000D02*
D03*
Y-41000D02*
D03*
Y-45276D02*
D03*
Y40764D02*
D03*
X59055Y29598D02*
D03*
X0Y68968D02*
D03*
X19685D02*
D03*
X39370D02*
D03*
X59055D02*
D03*
X0Y29598D02*
D03*
X39370D02*
D03*
X19685D02*
D03*
X-0Y-29598D02*
D03*
X19685D02*
D03*
X39370D02*
D03*
X59055D02*
D03*
X-0Y-68968D02*
D03*
X19685D02*
D03*
X39370D02*
D03*
X59055D02*
D03*
X109858Y-102858D02*
D03*
X21000Y0D02*
D03*
X127047Y-101953D02*
D03*
X-47953D02*
D03*
Y101953D02*
D03*
X127047D02*
D03*
D22*
X62000Y-41000D02*
D03*
X70000D02*
D03*
X74000D02*
D03*
X66000D02*
D03*
X-10000Y-15000D02*
D03*
X100000Y-57000D02*
D03*
Y-40000D02*
D03*
D23*
X70000Y-93445D02*
D03*
Y-86555D02*
D03*
X80000Y-93445D02*
D03*
Y-86555D02*
D03*
X90000Y-93445D02*
D03*
Y-86555D02*
D03*
X100000Y-93445D02*
D03*
Y-86555D02*
D03*
X-55000Y-53445D02*
D03*
Y-46555D02*
D03*
Y-32555D02*
D03*
Y-39445D02*
D03*
Y53445D02*
D03*
Y46555D02*
D03*
Y32555D02*
D03*
Y39445D02*
D03*
X100000Y-51445D02*
D03*
Y-44555D02*
D03*
X76000Y-12445D02*
D03*
Y-5555D02*
D03*
D24*
X92575Y-55614D02*
D03*
X90016D02*
D03*
X87457D02*
D03*
X84898D02*
D03*
X82339D02*
D03*
X79779D02*
D03*
X77220D02*
D03*
X74661D02*
D03*
X72102D02*
D03*
X69543D02*
D03*
X66984D02*
D03*
X64425D02*
D03*
X92575Y-32386D02*
D03*
X90016D02*
D03*
X87457D02*
D03*
X84898D02*
D03*
X82339D02*
D03*
X79779D02*
D03*
X77220D02*
D03*
X74661D02*
D03*
X72102D02*
D03*
X69543D02*
D03*
X66984D02*
D03*
X64425D02*
D03*
X69075Y-11614D02*
D03*
X66516D02*
D03*
X63957D02*
D03*
X61398D02*
D03*
X58839D02*
D03*
X56279D02*
D03*
X53720D02*
D03*
X51161D02*
D03*
X48602D02*
D03*
X46043D02*
D03*
X43484D02*
D03*
X40925D02*
D03*
X69075Y11614D02*
D03*
X66516D02*
D03*
X63957D02*
D03*
X61398D02*
D03*
X58839D02*
D03*
X56279D02*
D03*
X53720D02*
D03*
X51161D02*
D03*
X48602D02*
D03*
X46043D02*
D03*
X43484D02*
D03*
X40925D02*
D03*
D25*
X93055Y-64000D02*
D03*
X99945D02*
D03*
X69555Y-20000D02*
D03*
X76445D02*
D03*
X34445Y0D02*
D03*
X27555D02*
D03*
X-41555Y95000D02*
D03*
X-48445D02*
D03*
X133445D02*
D03*
X126555D02*
D03*
X133445Y-95000D02*
D03*
X126555D02*
D03*
X-41555D02*
D03*
X-48445D02*
D03*
D26*
X62783Y54543D02*
D03*
X73216D02*
D03*
X62783Y47457D02*
D03*
X73216D02*
D03*
X43784Y-36457D02*
D03*
X54216D02*
D03*
X43784Y-43543D02*
D03*
X54216D02*
D03*
D27*
X66425Y54543D02*
D03*
X69575D02*
D03*
X66425Y47457D02*
D03*
X69575D02*
D03*
X47425Y-36457D02*
D03*
X50575D02*
D03*
X47425Y-43543D02*
D03*
X50575D02*
D03*
D28*
X25457Y11784D02*
D03*
Y22217D02*
D03*
X32543Y11784D02*
D03*
Y22217D02*
D03*
X20543Y-12784D02*
D03*
Y-23216D02*
D03*
X13457Y-12784D02*
D03*
Y-23216D02*
D03*
D29*
X25457Y15425D02*
D03*
Y18575D02*
D03*
X32543Y15425D02*
D03*
Y18575D02*
D03*
X20543Y-16425D02*
D03*
Y-19575D02*
D03*
X13457Y-16425D02*
D03*
Y-19575D02*
D03*
M02*
