M48
;Layer_Color=9474304
;FILE_FORMAT=2:5
INCH,LZ
;TYPE=PLATED
T1F00S00C0.02000
T2F00S00C0.02800
T3F00S00C0.03000
T4F00S00C0.04331
;TYPE=NON_PLATED
T5F00S00C0.11811
%
T01
X-0Y-0068968
X0019685
X003937
X0059055
X007Y-008
X008
X009
X01
Y-0057
Y-004
X0074Y-0041
X007
X0066
X0062
X0059055Y-0029598
X003937
X0019685
X-0
X0021Y0
X0109858Y-0102858
X0127047Y-0101953
X-0047953
X-0063Y-0045276
Y-0041
X-001Y-0015
X-0063Y0040764
Y0045
X-0047953Y0101953
X0Y0068968
X0019685
X003937
X0059055
Y0029598
X003937
X0019685
X0
X0127047Y0101953
T02
X-0025Y0004764
X0082Y0032
T03
X-0045Y0068898
X-0035
X-0025
X-0015
T04
X009Y-0005236
Y0004764
X01
Y-0005236
Y0014764
Y0024764
Y0034764
Y0044764
Y0054764
Y0064764
X009
Y0054764
Y0044764
Y0034764
Y0024764
Y0014764
T05
X0157126Y-0096063
X-007122
Y009685
X0157126
M30
