G04 Layer_Color=16711935*
%FSLAX25Y25*%
%MOIN*%
G70*
G01*
G75*
%ADD36C,0.24409*%
%ADD37C,0.06800*%
%ADD38C,0.06706*%
%ADD39R,0.06706X0.06706*%
%ADD40C,0.05800*%
%ADD41C,0.04800*%
%ADD42C,0.03800*%
%ADD43R,0.06115X0.05328*%
%ADD44R,0.02375X0.06312*%
%ADD45R,0.05328X0.06115*%
%ADD46R,0.04147X0.04934*%
%ADD47R,0.03162X0.04934*%
%ADD48R,0.04934X0.04147*%
%ADD49R,0.04934X0.03162*%
D36*
X-71220Y96850D02*
D03*
X157126D02*
D03*
Y-96063D02*
D03*
X-71220D02*
D03*
D37*
X-15000Y68898D02*
D03*
X-25000D02*
D03*
X-35000D02*
D03*
X-45000D02*
D03*
D38*
X90000Y64764D02*
D03*
X100000D02*
D03*
X90000Y54764D02*
D03*
X100000D02*
D03*
X90000Y44764D02*
D03*
X100000D02*
D03*
X90000Y34764D02*
D03*
X100000D02*
D03*
X90000Y24764D02*
D03*
X100000D02*
D03*
X90000Y14764D02*
D03*
X100000D02*
D03*
X90000Y4764D02*
D03*
X100000D02*
D03*
X90000Y-5236D02*
D03*
D39*
X100000D02*
D03*
D40*
X-25000Y4764D02*
D03*
X82000Y32000D02*
D03*
D41*
X70000Y-80000D02*
D03*
X80000D02*
D03*
X90000D02*
D03*
X100000D02*
D03*
X-63000Y45000D02*
D03*
Y-41000D02*
D03*
Y-45276D02*
D03*
Y40764D02*
D03*
X59055Y29598D02*
D03*
X0Y68968D02*
D03*
X19685D02*
D03*
X39370D02*
D03*
X59055D02*
D03*
X0Y29598D02*
D03*
X39370D02*
D03*
X19685D02*
D03*
X-0Y-29598D02*
D03*
X19685D02*
D03*
X39370D02*
D03*
X59055D02*
D03*
X-0Y-68968D02*
D03*
X19685D02*
D03*
X39370D02*
D03*
X59055D02*
D03*
X109858Y-102858D02*
D03*
X21000Y0D02*
D03*
X127047Y-101953D02*
D03*
X-47953D02*
D03*
Y101953D02*
D03*
X127047D02*
D03*
D42*
X62000Y-41000D02*
D03*
X70000D02*
D03*
X74000D02*
D03*
X66000D02*
D03*
X-10000Y-15000D02*
D03*
X100000Y-57000D02*
D03*
Y-40000D02*
D03*
D43*
X70000Y-93445D02*
D03*
Y-86555D02*
D03*
X80000Y-93445D02*
D03*
Y-86555D02*
D03*
X90000Y-93445D02*
D03*
Y-86555D02*
D03*
X100000Y-93445D02*
D03*
Y-86555D02*
D03*
X-55000Y-53445D02*
D03*
Y-46555D02*
D03*
Y-32555D02*
D03*
Y-39445D02*
D03*
Y53445D02*
D03*
Y46555D02*
D03*
Y32555D02*
D03*
Y39445D02*
D03*
X100000Y-51445D02*
D03*
Y-44555D02*
D03*
X76000Y-12445D02*
D03*
Y-5555D02*
D03*
D44*
X92575Y-55614D02*
D03*
X90016D02*
D03*
X87457D02*
D03*
X84898D02*
D03*
X82339D02*
D03*
X79779D02*
D03*
X77220D02*
D03*
X74661D02*
D03*
X72102D02*
D03*
X69543D02*
D03*
X66984D02*
D03*
X64425D02*
D03*
X92575Y-32386D02*
D03*
X90016D02*
D03*
X87457D02*
D03*
X84898D02*
D03*
X82339D02*
D03*
X79779D02*
D03*
X77220D02*
D03*
X74661D02*
D03*
X72102D02*
D03*
X69543D02*
D03*
X66984D02*
D03*
X64425D02*
D03*
X69075Y-11614D02*
D03*
X66516D02*
D03*
X63957D02*
D03*
X61398D02*
D03*
X58839D02*
D03*
X56279D02*
D03*
X53720D02*
D03*
X51161D02*
D03*
X48602D02*
D03*
X46043D02*
D03*
X43484D02*
D03*
X40925D02*
D03*
X69075Y11614D02*
D03*
X66516D02*
D03*
X63957D02*
D03*
X61398D02*
D03*
X58839D02*
D03*
X56279D02*
D03*
X53720D02*
D03*
X51161D02*
D03*
X48602D02*
D03*
X46043D02*
D03*
X43484D02*
D03*
X40925D02*
D03*
D45*
X93055Y-64000D02*
D03*
X99945D02*
D03*
X69555Y-20000D02*
D03*
X76445D02*
D03*
X34445Y0D02*
D03*
X27555D02*
D03*
X-41555Y95000D02*
D03*
X-48445D02*
D03*
X133445D02*
D03*
X126555D02*
D03*
X133445Y-95000D02*
D03*
X126555D02*
D03*
X-41555D02*
D03*
X-48445D02*
D03*
D46*
X62783Y54543D02*
D03*
X73216D02*
D03*
X62783Y47457D02*
D03*
X73216D02*
D03*
X43784Y-36457D02*
D03*
X54216D02*
D03*
X43784Y-43543D02*
D03*
X54216D02*
D03*
D47*
X66425Y54543D02*
D03*
X69575D02*
D03*
X66425Y47457D02*
D03*
X69575D02*
D03*
X47425Y-36457D02*
D03*
X50575D02*
D03*
X47425Y-43543D02*
D03*
X50575D02*
D03*
D48*
X25457Y11784D02*
D03*
Y22217D02*
D03*
X32543Y11784D02*
D03*
Y22217D02*
D03*
X20543Y-12784D02*
D03*
Y-23216D02*
D03*
X13457Y-12784D02*
D03*
Y-23216D02*
D03*
D49*
X25457Y15425D02*
D03*
Y18575D02*
D03*
X32543Y15425D02*
D03*
Y18575D02*
D03*
X20543Y-16425D02*
D03*
Y-19575D02*
D03*
X13457Y-16425D02*
D03*
Y-19575D02*
D03*
M02*
