M48
;Layer_Color=9474304
;FILE_FORMAT=2:5
INCH,LZ
;TYPE=PLATED
T1F00S00C0.01500
T2F00S00C0.02800
T3F00S00C0.03543
T4F00S00C0.04000
T5F00S00C0.04724
T6F00S00C0.05906
T7F00S00C0.07480
;TYPE=NON_PLATED
T8F00S00C0.11811
%
T01
X0155Y0029
Y013
Y0135
X019Y014
X01925Y01325
X02Y0116
X0215Y0124
X01475Y01175
X0141
X0135Y01125
X013Y0115
X0126546Y01185
X0135454Y0127408
X0135Y01025
Y00965
X013Y00935
Y00995
X0111445Y0084945
X01025Y00795
X0076Y00825
Y0105
X009
X0092454Y01185
X0088Y0122954
X0105Y01275
X0075Y01325
X0029882Y0144882
X0033Y0012
X00525Y00275
X00725Y0015
X00825Y0031
X0090227Y0159273
X0090046Y0163908
X0094681Y0163727
X00945Y0168363
X008Y01675
X00645
X00595
X00545
X0101Y01775
X01075
X00975Y0182
X01015Y0191
X01235Y0174
X01385Y01745
X01525Y018
X015Y0165
X0145Y016
Y01495
X015Y01525
X02Y0158
X0214803Y0148961
X019Y0185
X0185
X0215087Y0247087
T02
X0215Y-0026
X01425Y0046
X01125Y0045
Y003
X0038Y019
T03
X0232126Y-0035827
X0242126
Y-0025827
X0232126
Y-0015827
X0242126
X0185Y0105
Y0115
Y0125
Y0135
Y0145
X0175
Y0135
Y0125
Y0115
Y0105
Y0155
Y0165
Y0175
X0185
Y0165
Y0155
X0232126Y0237087
X0242126
Y0247087
X0232126
Y0257087
X0242126
T04
X021Y0040236
Y0050236
Y0060236
Y0070236
Y0080236
Y0090236
Y0100236
X024
Y0090236
Y0080236
Y0070236
Y0060236
Y0050236
Y0040236
X0153Y0202394
X0143
X0133
X0123
X0113
X0103
X0093
X0083
X0073
X0063
X0053
X0043
X0033
Y0212394
X0043
X0053
X0063
X0073
X0083
X0093
X0103
X0113
X0123
X0133
X0143
X0153
X0163
Y0202394
X0173
Y0212394
X0183
Y0202394
X0193
Y0212394
X0203
Y0202394
X0213
Y0212394
X0223
Y0202394
Y018
X0233
Y017
X0223
X0213
Y018
T05
X000813Y0031346
Y0074654
T06
X00075Y0084
X0045Y00915
Y011
Y01285
X00075Y0136
X0065Y00485
X0075
T07
X00475Y0043158
Y0062843
T08
X0242126Y0014173
X001378
Y0207087
X0242126
M30
