G04 Layer_Color=8388736*
%FSLAX25Y25*%
%MOIN*%
G70*
G01*
G75*
%ADD53R,0.05328X0.06115*%
%ADD54R,0.04737X0.06706*%
%ADD55R,0.12414X0.07414*%
%ADD56R,0.04737X0.04343*%
%ADD57R,0.03950X0.02375*%
G04:AMPARAMS|DCode=58|XSize=63.12mil|YSize=53.28mil|CornerRadius=0mil|HoleSize=0mil|Usage=FLASHONLY|Rotation=315.000|XOffset=0mil|YOffset=0mil|HoleType=Round|Shape=Rectangle|*
%AMROTATEDRECTD58*
4,1,4,-0.04115,0.00348,-0.00348,0.04115,0.04115,-0.00348,0.00348,-0.04115,-0.04115,0.00348,0.0*
%
%ADD58ROTATEDRECTD58*%

%ADD59R,0.06706X0.04737*%
%ADD60R,0.08300X0.17300*%
%ADD61R,0.05300X0.05300*%
%ADD62R,0.17300X0.08300*%
%ADD63R,0.05328X0.07690*%
%ADD64R,0.06312X0.09068*%
%ADD65R,0.05328X0.06312*%
%ADD66R,0.07493X0.04737*%
G04:AMPARAMS|DCode=67|XSize=29.65mil|YSize=65.09mil|CornerRadius=0mil|HoleSize=0mil|Usage=FLASHONLY|Rotation=225.000|XOffset=0mil|YOffset=0mil|HoleType=Round|Shape=Round|*
%AMOVALD67*
21,1,0.03543,0.02965,0.00000,0.00000,315.0*
1,1,0.02965,-0.01253,0.01253*
1,1,0.02965,0.01253,-0.01253*
%
%ADD67OVALD67*%

G04:AMPARAMS|DCode=68|XSize=29.65mil|YSize=65.09mil|CornerRadius=0mil|HoleSize=0mil|Usage=FLASHONLY|Rotation=315.000|XOffset=0mil|YOffset=0mil|HoleType=Round|Shape=Round|*
%AMOVALD68*
21,1,0.03543,0.02965,0.00000,0.00000,45.0*
1,1,0.02965,-0.01253,-0.01253*
1,1,0.02965,0.01253,0.01253*
%
%ADD68OVALD68*%

%ADD69R,0.06115X0.05328*%
%ADD70O,0.08674X0.10642*%
%ADD71R,0.06706X0.06706*%
%ADD72C,0.06706*%
%ADD73C,0.12611*%
%ADD74C,0.08674*%
%ADD75C,0.07800*%
%ADD76R,0.07800X0.07800*%
%ADD77R,0.07800X0.07800*%
%ADD78C,0.24409*%
%ADD79C,0.03800*%
%ADD80C,0.05800*%
D53*
X20445Y65500D02*
D03*
X13555D02*
D03*
X35445Y182500D02*
D03*
X28555D02*
D03*
X35445Y167500D02*
D03*
X28555D02*
D03*
X35445Y175000D02*
D03*
X28555D02*
D03*
X35445Y160000D02*
D03*
X28555D02*
D03*
X35445Y152500D02*
D03*
X28555D02*
D03*
X216445Y29000D02*
D03*
X209555D02*
D03*
D54*
X6500Y58118D02*
D03*
Y47882D02*
D03*
Y173118D02*
D03*
Y162882D02*
D03*
Y155118D02*
D03*
Y144882D02*
D03*
D55*
X58500Y76091D02*
D03*
Y94910D02*
D03*
D56*
X6500Y180595D02*
D03*
Y192405D02*
D03*
D57*
X8075Y184925D02*
D03*
Y188075D02*
D03*
D58*
X127211Y169335D02*
D03*
X137789Y167665D02*
D03*
X133335Y163211D02*
D03*
X131665Y173789D02*
D03*
D59*
X38382Y5500D02*
D03*
X48618D02*
D03*
D60*
X130500Y53500D02*
D03*
D61*
Y31000D02*
D03*
Y40000D02*
D03*
Y22000D02*
D03*
X112500D02*
D03*
X121500D02*
D03*
X94500Y40000D02*
D03*
Y31000D02*
D03*
X103500Y22000D02*
D03*
X94500D02*
D03*
D62*
X117000Y58000D02*
D03*
X99000D02*
D03*
D63*
X95898Y79500D02*
D03*
X83102D02*
D03*
D64*
X83161Y66000D02*
D03*
X65839D02*
D03*
D65*
X104555Y71500D02*
D03*
X111445D02*
D03*
X129445D02*
D03*
X122555D02*
D03*
D66*
X215197Y116039D02*
D03*
X240000D02*
D03*
X215197Y131000D02*
D03*
X240000D02*
D03*
X239803Y155961D02*
D03*
X215000D02*
D03*
X239803Y141000D02*
D03*
X215000D02*
D03*
D67*
X136225Y135546D02*
D03*
X133998Y133319D02*
D03*
X131771Y131092D02*
D03*
X129544Y128865D02*
D03*
X127317Y126637D02*
D03*
X125090Y124410D02*
D03*
X122863Y122183D02*
D03*
X120635Y119956D02*
D03*
X118408Y117729D02*
D03*
X116181Y115502D02*
D03*
X113954Y113275D02*
D03*
X82775Y144454D02*
D03*
X85002Y146681D02*
D03*
X87229Y148908D02*
D03*
X89456Y151136D02*
D03*
X91683Y153363D02*
D03*
X93910Y155590D02*
D03*
X96137Y157817D02*
D03*
X98365Y160044D02*
D03*
X100592Y162271D02*
D03*
X102819Y164498D02*
D03*
X105046Y166725D02*
D03*
D68*
Y113275D02*
D03*
X102819Y115502D02*
D03*
X100592Y117729D02*
D03*
X98365Y119956D02*
D03*
X96137Y122183D02*
D03*
X93910Y124410D02*
D03*
X91683Y126637D02*
D03*
X89456Y128865D02*
D03*
X87229Y131092D02*
D03*
X85002Y133319D02*
D03*
X82775Y135546D02*
D03*
X113954Y166725D02*
D03*
X116181Y164498D02*
D03*
X118408Y162271D02*
D03*
X120635Y160044D02*
D03*
X122863Y157817D02*
D03*
X125090Y155590D02*
D03*
X127317Y153363D02*
D03*
X129544Y151136D02*
D03*
X131771Y148908D02*
D03*
X133998Y146681D02*
D03*
X136225Y144454D02*
D03*
D69*
X72000Y180445D02*
D03*
Y173555D02*
D03*
X80000Y180445D02*
D03*
Y173555D02*
D03*
X144000Y22055D02*
D03*
Y28945D02*
D03*
D70*
X65000Y48500D02*
D03*
X75000D02*
D03*
D71*
X242126Y-35827D02*
D03*
X185000Y105000D02*
D03*
X232126Y257087D02*
D03*
D72*
Y-35827D02*
D03*
X242126Y-25827D02*
D03*
X232126D02*
D03*
X242126Y-15827D02*
D03*
X232126D02*
D03*
X175000Y175000D02*
D03*
X185000D02*
D03*
X175000Y165000D02*
D03*
X185000D02*
D03*
X175000Y155000D02*
D03*
X185000D02*
D03*
X175000Y145000D02*
D03*
X185000D02*
D03*
X175000Y135000D02*
D03*
X185000D02*
D03*
X175000Y125000D02*
D03*
X185000D02*
D03*
X175000Y115000D02*
D03*
X185000D02*
D03*
X175000Y105000D02*
D03*
X242126Y237087D02*
D03*
X232126D02*
D03*
X242126Y247087D02*
D03*
X232126D02*
D03*
X242126Y257087D02*
D03*
D73*
X47500Y62843D02*
D03*
Y43158D02*
D03*
D74*
X8130Y74654D02*
D03*
Y31346D02*
D03*
X45000Y91500D02*
D03*
Y110000D02*
D03*
Y128500D02*
D03*
X7500Y136000D02*
D03*
Y84000D02*
D03*
D75*
X233000Y180000D02*
D03*
Y170000D02*
D03*
X223000Y180000D02*
D03*
Y170000D02*
D03*
X213000Y180000D02*
D03*
X240000Y90236D02*
D03*
Y80236D02*
D03*
Y70236D02*
D03*
Y60236D02*
D03*
Y50236D02*
D03*
Y40236D02*
D03*
X210000Y90236D02*
D03*
Y80236D02*
D03*
Y70236D02*
D03*
Y60236D02*
D03*
Y50236D02*
D03*
Y40236D02*
D03*
X33000Y202394D02*
D03*
Y212394D02*
D03*
X43000Y202394D02*
D03*
Y212394D02*
D03*
X53000Y202394D02*
D03*
X63000D02*
D03*
Y212394D02*
D03*
X73000D02*
D03*
X83000Y202394D02*
D03*
Y212394D02*
D03*
X93000Y202394D02*
D03*
X103000D02*
D03*
Y212394D02*
D03*
X113000Y202394D02*
D03*
Y212394D02*
D03*
X123000Y202394D02*
D03*
X133000D02*
D03*
Y212394D02*
D03*
X143000Y202394D02*
D03*
Y212394D02*
D03*
X153000D02*
D03*
X163000Y202394D02*
D03*
Y212394D02*
D03*
X173000Y202394D02*
D03*
X183000D02*
D03*
Y212394D02*
D03*
X193000Y202394D02*
D03*
X203000D02*
D03*
Y212394D02*
D03*
X213000Y202394D02*
D03*
Y212394D02*
D03*
X223000D02*
D03*
D76*
X213000Y170000D02*
D03*
X53000Y212394D02*
D03*
X73000Y202394D02*
D03*
X93000Y212394D02*
D03*
X123000D02*
D03*
X153000Y202394D02*
D03*
X173000Y212394D02*
D03*
X193000D02*
D03*
X223000Y202394D02*
D03*
D77*
X240000Y100236D02*
D03*
X210000D02*
D03*
D78*
X13780Y14173D02*
D03*
X242126D02*
D03*
Y207087D02*
D03*
X13780D02*
D03*
D79*
X138500Y174500D02*
D03*
X123500Y174000D02*
D03*
X200000Y158000D02*
D03*
X72500Y15000D02*
D03*
X33000Y12000D02*
D03*
X59500Y167500D02*
D03*
X64500D02*
D03*
X54500D02*
D03*
X75000Y132500D02*
D03*
X82500Y31000D02*
D03*
X29882Y144882D02*
D03*
X76000Y82500D02*
D03*
X102500Y79500D02*
D03*
X101000Y177500D02*
D03*
X52500Y27500D02*
D03*
X80000Y167500D02*
D03*
X200000Y116000D02*
D03*
X145000Y160000D02*
D03*
X150000Y165000D02*
D03*
Y152500D02*
D03*
X145000Y149500D02*
D03*
X111445Y84945D02*
D03*
X101500Y191000D02*
D03*
X105000Y127500D02*
D03*
X190000Y140000D02*
D03*
X192500Y132500D02*
D03*
X155000Y135000D02*
D03*
Y130000D02*
D03*
X135000Y112500D02*
D03*
X130000Y115000D02*
D03*
X141000Y117500D02*
D03*
X147500D02*
D03*
X130000Y93500D02*
D03*
Y99500D02*
D03*
X135000Y96500D02*
D03*
Y102500D02*
D03*
X135454Y127408D02*
D03*
X185000Y185000D02*
D03*
X190000D02*
D03*
X107500Y177500D02*
D03*
X97500Y182000D02*
D03*
X152500Y180000D02*
D03*
X126546Y118500D02*
D03*
X90046Y163908D02*
D03*
X90227Y159273D02*
D03*
X94681Y163727D02*
D03*
X94500Y168363D02*
D03*
X92454Y118500D02*
D03*
X88000Y122954D02*
D03*
X90000Y105000D02*
D03*
X76000D02*
D03*
X155000Y29000D02*
D03*
X215087Y247087D02*
D03*
X215000Y124000D02*
D03*
X214803Y148961D02*
D03*
D80*
X112500Y30000D02*
D03*
Y45000D02*
D03*
X142500Y46000D02*
D03*
X215000Y-26000D02*
D03*
X38000Y190000D02*
D03*
M02*
