G04 Layer_Color=65535*
%FSLAX25Y25*%
%MOIN*%
G70*
G01*
G75*
%ADD13C,0.01000*%
%ADD21C,0.00787*%
D13*
X27559Y0D02*
G03*
X27559Y0I-27559J0D01*
G01*
X78500Y181500D02*
Y185499D01*
X80499D01*
X81166Y184832D01*
Y183499D01*
X80499Y182833D01*
X78500D01*
X79833D02*
X81166Y181500D01*
X85164D02*
X82499D01*
X85164Y184166D01*
Y184832D01*
X84498Y185499D01*
X83165D01*
X82499Y184832D01*
X-19668Y43165D02*
X-20501Y43998D01*
X-22167D01*
X-23000Y43165D01*
Y42332D01*
X-22167Y41499D01*
X-20501D01*
X-19668Y40666D01*
Y39833D01*
X-20501Y39000D01*
X-22167D01*
X-23000Y39833D01*
X-18002Y43998D02*
Y39000D01*
X-14669D01*
X-9671D02*
X-13003D01*
X-9671Y42332D01*
Y43165D01*
X-10504Y43998D01*
X-12170D01*
X-13003Y43165D01*
X-38168Y-12335D02*
X-39001Y-11502D01*
X-40667D01*
X-41500Y-12335D01*
Y-13168D01*
X-40667Y-14001D01*
X-39001D01*
X-38168Y-14834D01*
Y-15667D01*
X-39001Y-16500D01*
X-40667D01*
X-41500Y-15667D01*
X-36502Y-11502D02*
Y-16500D01*
X-33169D01*
X-31503D02*
X-29837D01*
X-30670D01*
Y-11502D01*
X-31503Y-12335D01*
X33000Y148000D02*
X28002D01*
Y150499D01*
X28835Y151332D01*
X30501D01*
X31334Y150499D01*
Y148000D01*
Y149666D02*
X33000Y151332D01*
Y152998D02*
Y154665D01*
Y153831D01*
X28002D01*
X28835Y152998D01*
D21*
X69504Y186024D02*
X74622D01*
X-10000Y-50000D02*
X10000D01*
Y-40000D01*
X-10000D02*
X10000D01*
X-10000Y-50000D02*
Y-40000D01*
X65709Y177087D02*
Y197087D01*
X35709Y177087D02*
Y197087D01*
X65709D01*
X35709Y177087D02*
X65709D01*
X46542D02*
X65709D01*
X24941Y165000D02*
X30059D01*
M02*
