G04 Layer_Color=16711935*
%FSLAX25Y25*%
%MOIN*%
G70*
G01*
G75*
%ADD22R,0.06706X0.06312*%
%ADD23R,0.07099X0.08674*%
G04:AMPARAMS|DCode=24|XSize=86.74mil|YSize=70.99mil|CornerRadius=0mil|HoleSize=0mil|Usage=FLASHONLY|Rotation=225.000|XOffset=0mil|YOffset=0mil|HoleType=Round|Shape=Rectangle|*
%AMROTATEDRECTD24*
4,1,4,0.00557,0.05577,0.05577,0.00557,-0.00557,-0.05577,-0.05577,-0.00557,0.00557,0.05577,0.0*
%
%ADD24ROTATEDRECTD24*%

%ADD25C,0.06706*%
%ADD26R,0.06706X0.06706*%
%ADD27C,0.20485*%
%ADD28C,0.08674*%
%ADD29C,0.08674*%
%ADD30C,0.04800*%
D22*
X72063Y192087D02*
D03*
Y184213D02*
D03*
D23*
X4331Y39370D02*
D03*
Y15748D02*
D03*
X-4331Y39370D02*
D03*
X-4331Y15748D02*
D03*
D24*
X-30901Y-24776D02*
D03*
X-14198Y-8073D02*
D03*
X-24777Y-30901D02*
D03*
X-8073Y-14198D02*
D03*
D25*
X-5000Y-45000D02*
D03*
X40709Y192087D02*
D03*
X50709Y182087D02*
D03*
Y192087D02*
D03*
X60709Y182087D02*
D03*
Y192087D02*
D03*
D26*
X5000Y-45000D02*
D03*
X40709Y182087D02*
D03*
D27*
X-0Y-0D02*
D03*
D28*
X23622Y-31496D02*
D03*
D29*
X-23622Y31496D02*
D03*
D30*
X0Y24000D02*
D03*
X4500Y30000D02*
D03*
X17500Y42500D02*
D03*
X-24000Y-20000D02*
D03*
X-16703Y-34203D02*
D03*
X0Y-17500D02*
D03*
M02*
