G04 Layer_Physical_Order=1*
G04 Layer_Color=255*
%FSLAX25Y25*%
%MOIN*%
G70*
G01*
G75*
%ADD10R,0.05906X0.05512*%
%ADD11R,0.05512X0.05906*%
G04:AMPARAMS|DCode=12|XSize=78.74mil|YSize=62.99mil|CornerRadius=0mil|HoleSize=0mil|Usage=FLASHONLY|Rotation=225.000|XOffset=0mil|YOffset=0mil|HoleType=Round|Shape=Rectangle|*
%AMROTATEDRECTD12*
4,1,4,0.00557,0.05011,0.05011,0.00557,-0.00557,-0.05011,-0.05011,-0.00557,0.00557,0.05011,0.0*
%
%ADD12ROTATEDRECTD12*%

%ADD13R,0.06299X0.07874*%
%ADD14C,0.01000*%
%ADD15C,0.07874*%
%ADD16C,0.07874*%
%ADD17C,0.19685*%
%ADD18C,0.05906*%
%ADD19R,0.05906X0.05906*%
%ADD20C,0.04000*%
D10*
X27500Y168937D02*
D03*
Y161063D02*
D03*
D11*
X51563Y171500D02*
D03*
X59437D02*
D03*
D12*
X-14198Y-8073D02*
D03*
X-30901Y-24776D02*
D03*
X-8073Y-14198D02*
D03*
X-24777Y-30901D02*
D03*
D13*
X4331Y15748D02*
D03*
Y39370D02*
D03*
X-4331Y15748D02*
D03*
X-4331Y39370D02*
D03*
D14*
X33500Y4500D02*
Y162500D01*
X37500Y166500D01*
X57500D01*
X59437Y168437D01*
Y171500D01*
X60709Y172772D01*
Y182087D01*
X50709Y172354D02*
X51563Y171500D01*
X50709Y172354D02*
Y182087D01*
X45795Y187000D02*
X50709Y182087D01*
X35000Y187000D02*
X45795D01*
X27500Y179500D02*
X35000Y187000D01*
X27500Y168937D02*
Y179500D01*
X54795Y198000D02*
X60709Y192087D01*
X36500Y198000D02*
X54795D01*
X21500Y183000D02*
X36500Y198000D01*
X-8073Y-14198D02*
X-4771Y-17500D01*
X0D01*
X8000D01*
X-14198Y-8073D02*
X-13500Y-7375D01*
Y13000D01*
X-10752Y15748D01*
X-4331D01*
X8000Y-17500D02*
X27500Y2000D01*
Y161063D01*
X-5203Y-34203D02*
X33500Y4500D01*
X-16703Y-34203D02*
X-5203D01*
X-21474D02*
X-16703D01*
X-24777Y-30901D02*
X-21474Y-34203D01*
X-30901Y-24776D02*
X-26125Y-20000D01*
X-24000D01*
X17500Y42500D02*
X21500Y46500D01*
Y183000D01*
X4331Y30169D02*
Y39370D01*
X-4331D02*
Y40669D01*
X500Y45500D01*
X14500D01*
X17500Y42500D01*
X4331Y15748D02*
X4500Y15917D01*
X-4331Y15748D02*
Y21669D01*
X-2000Y24000D01*
X0D01*
X4500Y15917D02*
Y30000D01*
D15*
X-23622Y31496D02*
D03*
D16*
X23622Y-31496D02*
D03*
D17*
X-0Y-0D02*
D03*
D18*
X60709Y192087D02*
D03*
Y182087D02*
D03*
X50709Y192087D02*
D03*
Y182087D02*
D03*
X40709Y192087D02*
D03*
X-5000Y-45000D02*
D03*
D19*
X40709Y182087D02*
D03*
X5000Y-45000D02*
D03*
D20*
X0Y-17500D02*
D03*
X-16703Y-34203D02*
D03*
X-24000Y-20000D02*
D03*
X17500Y42500D02*
D03*
X4500Y30000D02*
D03*
X0Y24000D02*
D03*
M02*
