G04 Layer_Color=65535*
%FSLAX25Y25*%
%MOIN*%
G70*
G01*
G75*
%ADD14C,0.01000*%
%ADD22C,0.00787*%
D14*
X27559Y0D02*
G03*
X27559Y0I-27559J0D01*
G01*
X29540Y147826D02*
X25541D01*
Y149825D01*
X26208Y150492D01*
X27541D01*
X28207Y149825D01*
Y147826D01*
Y149159D02*
X29540Y150492D01*
Y151825D02*
Y153158D01*
Y152491D01*
X25541D01*
X26208Y151825D01*
X36940Y169526D02*
Y173525D01*
X38939D01*
X39606Y172858D01*
Y171525D01*
X38939Y170859D01*
X36940D01*
X38273D02*
X39606Y169526D01*
X43605D02*
X40939D01*
X43605Y172192D01*
Y172858D01*
X42938Y173525D01*
X41605D01*
X40939Y172858D01*
X-38168Y-12335D02*
X-39001Y-11502D01*
X-40667D01*
X-41500Y-12335D01*
Y-13168D01*
X-40667Y-14001D01*
X-39001D01*
X-38168Y-14834D01*
Y-15667D01*
X-39001Y-16500D01*
X-40667D01*
X-41500Y-15667D01*
X-36502Y-11502D02*
Y-16500D01*
X-33169D01*
X-31503D02*
X-29837D01*
X-30670D01*
Y-11502D01*
X-31503Y-12335D01*
X-19668Y43165D02*
X-20501Y43998D01*
X-22167D01*
X-23000Y43165D01*
Y42332D01*
X-22167Y41499D01*
X-20501D01*
X-19668Y40666D01*
Y39833D01*
X-20501Y39000D01*
X-22167D01*
X-23000Y39833D01*
X-18002Y43998D02*
Y39000D01*
X-14669D01*
X-9671D02*
X-13003D01*
X-9671Y42332D01*
Y43165D01*
X-10504Y43998D01*
X-12170D01*
X-13003Y43165D01*
D22*
X24941Y165000D02*
X30059D01*
X55500Y168941D02*
Y174059D01*
X46542Y177087D02*
X65709D01*
X35709D02*
X65709D01*
X35709Y197087D02*
X65709D01*
X35709Y177087D02*
Y197087D01*
X65709Y177087D02*
Y197087D01*
X-10000Y-50000D02*
Y-40000D01*
X10000D01*
Y-50000D02*
Y-40000D01*
X-10000Y-50000D02*
X10000D01*
M02*
