G04 Layer_Physical_Order=2*
G04 Layer_Color=16711680*
%FSLAX25Y25*%
%MOIN*%
G70*
G01*
G75*
%ADD11R,0.05512X0.05906*%
G04:AMPARAMS|DCode=12|XSize=78.74mil|YSize=62.99mil|CornerRadius=0mil|HoleSize=0mil|Usage=FLASHONLY|Rotation=225.000|XOffset=0mil|YOffset=0mil|HoleType=Round|Shape=Rectangle|*
%AMROTATEDRECTD12*
4,1,4,0.00557,0.05011,0.05011,0.00557,-0.00557,-0.05011,-0.05011,-0.00557,0.00557,0.05011,0.0*
%
%ADD12ROTATEDRECTD12*%

%ADD13R,0.06299X0.07874*%
%ADD14C,0.01000*%
%ADD15C,0.07874*%
%ADD16C,0.07874*%
%ADD17C,0.19685*%
%ADD18C,0.05906*%
%ADD19R,0.05906X0.05906*%
%ADD20C,0.04000*%
%ADD21C,0.03000*%
D11*
X51563Y171500D02*
D03*
X59437D02*
D03*
D12*
X-8073Y-14198D02*
D03*
X-24777Y-30901D02*
D03*
X-14198Y-8073D02*
D03*
X-30901Y-24776D02*
D03*
D13*
X-4331Y15748D02*
D03*
X-4331Y39370D02*
D03*
X4331Y15748D02*
D03*
Y39370D02*
D03*
D14*
X67500Y175000D02*
Y185295D01*
X60709Y192087D02*
X67500Y185295D01*
X64000Y171500D02*
X67500Y175000D01*
X59437Y171500D02*
X64000D01*
X50709Y172354D02*
X51563Y171500D01*
X50709Y172354D02*
Y182087D01*
X45795Y197000D02*
X50709Y192087D01*
X35500Y197000D02*
X45795D01*
X22500Y184000D02*
X35500Y197000D01*
X-18500Y-12375D02*
X-14198Y-8073D01*
X-18500Y-14500D02*
Y-12375D01*
Y-14500D02*
X-11000Y-22000D01*
X-2000D01*
X0Y-20000D01*
Y-17500D01*
X-8073Y-14198D02*
X-7376Y-13500D01*
X8000D01*
X15000Y-6500D01*
Y12500D01*
X4331Y15748D02*
X11752D01*
X-18703Y-38703D02*
X-16703Y-36703D01*
X-27703Y-38703D02*
X-18703D01*
X-35203Y-31203D02*
X-27703Y-38703D01*
X-35203Y-31203D02*
Y-29079D01*
X-30901Y-24776D01*
X-16703Y-36703D02*
Y-34203D01*
X-24777Y-30901D02*
X-24000Y-30125D01*
Y5500D02*
X-13752Y15748D01*
X-4331D01*
X-4331Y15748D02*
X-4331Y15748D01*
X-24000Y-30125D02*
Y-20000D01*
Y5500D01*
X13000Y30000D02*
X22500Y39500D01*
Y184000D01*
X-4331Y15748D02*
Y30000D01*
Y39370D01*
X4331D02*
X14370D01*
X17500Y42500D01*
X-4331Y30000D02*
X4500D01*
X13000D01*
X11752Y15748D02*
X15000Y12500D01*
X4331Y15748D02*
Y22669D01*
X3000Y24000D02*
X4331Y22669D01*
X0Y24000D02*
X3000D01*
D15*
X-23622Y31496D02*
D03*
D16*
X23622Y-31496D02*
D03*
D17*
X-0Y-0D02*
D03*
D18*
X60709Y192087D02*
D03*
Y182087D02*
D03*
X50709Y192087D02*
D03*
Y182087D02*
D03*
X40709Y192087D02*
D03*
X-5000Y-45000D02*
D03*
D19*
X40709Y182087D02*
D03*
X5000Y-45000D02*
D03*
D20*
X0Y-17500D02*
D03*
X-16703Y-34203D02*
D03*
X-24000Y-20000D02*
D03*
X17500Y42500D02*
D03*
X4500Y30000D02*
D03*
X0Y24000D02*
D03*
D21*
X32500Y173878D02*
X40709Y182087D01*
X-5000Y-45000D02*
Y-38000D01*
X5000Y-45000D02*
Y-37500D01*
X32500Y-10000D01*
Y173878D01*
X-5000Y-38000D02*
X27500Y-5500D01*
Y182500D02*
X37087Y192087D01*
X40709D01*
X27500Y-5500D02*
Y182500D01*
M02*
