G04 Layer_Color=16711935*
%FSLAX25Y25*%
%MOIN*%
G70*
G01*
G75*
%ADD64R,0.05328X0.06312*%
%ADD66R,0.06115X0.05328*%
%ADD70R,0.05328X0.06115*%
G04:AMPARAMS|DCode=76|XSize=63.12mil|YSize=53.28mil|CornerRadius=0mil|HoleSize=0mil|Usage=FLASHONLY|Rotation=315.000|XOffset=0mil|YOffset=0mil|HoleType=Round|Shape=Rectangle|*
%AMROTATEDRECTD76*
4,1,4,-0.04115,0.00348,-0.00348,0.04115,0.04115,-0.00348,0.00348,-0.04115,-0.04115,0.00348,0.0*
%
%ADD76ROTATEDRECTD76*%

%ADD81R,0.06312X0.06706*%
%ADD82C,0.12611*%
%ADD83C,0.08674*%
%ADD84C,0.24409*%
%ADD85C,0.07800*%
%ADD86R,0.07800X0.07800*%
%ADD87R,0.06706X0.06706*%
%ADD88C,0.06706*%
%ADD89R,0.07800X0.07800*%
%ADD90C,0.06312*%
%ADD91C,0.02300*%
%ADD92C,0.03800*%
%ADD93C,0.05800*%
%ADD94R,0.04737X0.03162*%
G04:AMPARAMS|DCode=95|XSize=57.21mil|YSize=94.61mil|CornerRadius=0mil|HoleSize=0mil|Usage=FLASHONLY|Rotation=315.000|XOffset=0mil|YOffset=0mil|HoleType=Round|Shape=Rectangle|*
%AMROTATEDRECTD95*
4,1,4,-0.05368,-0.01322,0.01322,0.05368,0.05368,0.01322,-0.01322,-0.05368,-0.05368,-0.01322,0.0*
%
%ADD95ROTATEDRECTD95*%

G04:AMPARAMS|DCode=96|XSize=63.12mil|YSize=53.28mil|CornerRadius=0mil|HoleSize=0mil|Usage=FLASHONLY|Rotation=225.000|XOffset=0mil|YOffset=0mil|HoleType=Round|Shape=Rectangle|*
%AMROTATEDRECTD96*
4,1,4,0.00348,0.04115,0.04115,0.00348,-0.00348,-0.04115,-0.04115,-0.00348,0.00348,0.04115,0.0*
%
%ADD96ROTATEDRECTD96*%

%ADD97R,0.06312X0.05328*%
%ADD98R,0.09461X0.07887*%
%ADD99R,0.09265X0.04737*%
%ADD100R,0.09265X0.13595*%
%ADD101R,0.06706X0.06312*%
D64*
X52055Y64000D02*
D03*
X58945D02*
D03*
D66*
X69500Y137555D02*
D03*
Y144445D02*
D03*
X37000Y59610D02*
D03*
Y66500D02*
D03*
D70*
X230445Y149000D02*
D03*
X223555D02*
D03*
X89945Y91500D02*
D03*
X83055D02*
D03*
X83000Y99500D02*
D03*
X89890D02*
D03*
X230445Y124000D02*
D03*
X223555D02*
D03*
X230445Y116000D02*
D03*
X223555D02*
D03*
D76*
X87436Y112436D02*
D03*
X82564Y107564D02*
D03*
X81936Y117936D02*
D03*
X77064Y113064D02*
D03*
X121436Y147936D02*
D03*
X116564Y143064D02*
D03*
X137936Y166936D02*
D03*
X133064Y162064D02*
D03*
X132436Y172436D02*
D03*
X127564Y167564D02*
D03*
D81*
X120063Y96500D02*
D03*
X127937D02*
D03*
D82*
X47370Y105996D02*
D03*
Y86311D02*
D03*
D83*
X8000Y117807D02*
D03*
Y74500D02*
D03*
X120500Y6000D02*
D03*
X68500D02*
D03*
X76000Y43500D02*
D03*
X94500D02*
D03*
X113000D02*
D03*
D84*
X13780Y207087D02*
D03*
X242126D02*
D03*
Y14173D02*
D03*
X13780D02*
D03*
D85*
X223000Y212394D02*
D03*
X213000D02*
D03*
Y202394D02*
D03*
X203000Y212394D02*
D03*
Y202394D02*
D03*
X193000D02*
D03*
X183000Y212394D02*
D03*
Y202394D02*
D03*
X173000D02*
D03*
X163000Y212394D02*
D03*
Y202394D02*
D03*
X153000Y212394D02*
D03*
X143000D02*
D03*
Y202394D02*
D03*
X133000Y212394D02*
D03*
Y202394D02*
D03*
X123000D02*
D03*
X113000Y212394D02*
D03*
Y202394D02*
D03*
X103000Y212394D02*
D03*
Y202394D02*
D03*
X93000D02*
D03*
X83000Y212394D02*
D03*
Y202394D02*
D03*
X73000Y212394D02*
D03*
X63000D02*
D03*
Y202394D02*
D03*
X53000D02*
D03*
X43000Y212394D02*
D03*
Y202394D02*
D03*
X33000Y212394D02*
D03*
Y202394D02*
D03*
X210000Y40236D02*
D03*
Y50236D02*
D03*
Y60236D02*
D03*
Y70236D02*
D03*
Y80236D02*
D03*
Y90236D02*
D03*
X240000Y40236D02*
D03*
Y50236D02*
D03*
Y60236D02*
D03*
Y70236D02*
D03*
Y80236D02*
D03*
Y90236D02*
D03*
X213000Y180000D02*
D03*
X223000Y170000D02*
D03*
Y180000D02*
D03*
X233000Y170000D02*
D03*
Y180000D02*
D03*
D86*
X223000Y202394D02*
D03*
X193000Y212394D02*
D03*
X173000D02*
D03*
X153000Y202394D02*
D03*
X123000Y212394D02*
D03*
X93000D02*
D03*
X73000Y202394D02*
D03*
X53000Y212394D02*
D03*
X213000Y170000D02*
D03*
D87*
X232126Y257087D02*
D03*
X185000Y105000D02*
D03*
X242126Y-35827D02*
D03*
D88*
Y257087D02*
D03*
X232126Y247087D02*
D03*
X242126D02*
D03*
X232126Y237087D02*
D03*
X242126D02*
D03*
X175000Y105000D02*
D03*
X185000Y115000D02*
D03*
X175000D02*
D03*
X185000Y125000D02*
D03*
X175000D02*
D03*
X185000Y135000D02*
D03*
X175000D02*
D03*
X185000Y145000D02*
D03*
X175000D02*
D03*
X185000Y155000D02*
D03*
X175000D02*
D03*
X185000Y165000D02*
D03*
X175000D02*
D03*
X185000Y175000D02*
D03*
X175000D02*
D03*
X232126Y-15827D02*
D03*
X242126D02*
D03*
X232126Y-25827D02*
D03*
X242126D02*
D03*
X232126Y-35827D02*
D03*
D89*
X210000Y100236D02*
D03*
X240000D02*
D03*
D90*
X37252Y16000D02*
D03*
X53000D02*
D03*
D91*
X167500Y77500D02*
D03*
Y82500D02*
D03*
X172500D02*
D03*
X157500Y35000D02*
D03*
X152500D02*
D03*
X147000Y45000D02*
D03*
Y40000D02*
D03*
Y50000D02*
D03*
Y30000D02*
D03*
Y35000D02*
D03*
X140000D02*
D03*
X135000D02*
D03*
X140000Y30000D02*
D03*
X135000D02*
D03*
Y50000D02*
D03*
X140000D02*
D03*
X135000Y40000D02*
D03*
X140000D02*
D03*
X135000Y45000D02*
D03*
X140000D02*
D03*
X152500Y30000D02*
D03*
X157500D02*
D03*
X152500Y40000D02*
D03*
X157500D02*
D03*
Y45000D02*
D03*
X152500D02*
D03*
X30000Y62500D02*
D03*
X25000D02*
D03*
X20000D02*
D03*
X15000D02*
D03*
Y37500D02*
D03*
X20000D02*
D03*
X25000D02*
D03*
X30000D02*
D03*
X35000D02*
D03*
X40000D02*
D03*
X45000D02*
D03*
Y42500D02*
D03*
X40000D02*
D03*
X45000Y47500D02*
D03*
X40000D02*
D03*
X25000Y42500D02*
D03*
X20000D02*
D03*
X25000Y47500D02*
D03*
X20000D02*
D03*
X25000Y52500D02*
D03*
X20000D02*
D03*
X10000D02*
D03*
X15000D02*
D03*
X10000Y47500D02*
D03*
X15000D02*
D03*
X10000Y42500D02*
D03*
X15000D02*
D03*
X10000Y37500D02*
D03*
X45000Y62500D02*
D03*
X42500Y68000D02*
D03*
D92*
X123000Y50000D02*
D03*
X155000D02*
D03*
X122500Y81500D02*
D03*
X195500Y187000D02*
D03*
X198500Y184000D02*
D03*
X192000D02*
D03*
X188500Y187000D02*
D03*
X185000Y184000D02*
D03*
X190000Y140000D02*
D03*
Y130000D02*
D03*
X160500Y168000D02*
D03*
X156000D02*
D03*
X153500Y171500D02*
D03*
X151000Y175000D02*
D03*
X153500Y178500D02*
D03*
X207000Y158000D02*
D03*
X126546Y118500D02*
D03*
X130000Y115000D02*
D03*
X141000Y117500D02*
D03*
Y122000D02*
D03*
X125500Y144000D02*
D03*
X214803Y148961D02*
D03*
X215000Y124000D02*
D03*
X215087Y247087D02*
D03*
X76000Y105000D02*
D03*
X90000D02*
D03*
X88000Y122954D02*
D03*
X92454Y118500D02*
D03*
X94500Y168363D02*
D03*
X94681Y163727D02*
D03*
X90227Y159273D02*
D03*
X90046Y163908D02*
D03*
X150000Y182000D02*
D03*
X97500D02*
D03*
X107500Y177500D02*
D03*
X139000Y102500D02*
D03*
Y96500D02*
D03*
X135500Y99500D02*
D03*
X142500Y93500D02*
D03*
X147500Y117500D02*
D03*
X135000Y112500D02*
D03*
X105000Y127500D02*
D03*
X101500Y191000D02*
D03*
X145000Y149500D02*
D03*
X148000Y152500D02*
D03*
Y165000D02*
D03*
X145000Y160000D02*
D03*
X207000Y116000D02*
D03*
X80000Y167500D02*
D03*
X101000Y177500D02*
D03*
X76000Y82500D02*
D03*
X75000Y132500D02*
D03*
X54500Y167500D02*
D03*
X64500D02*
D03*
X59500D02*
D03*
X123500Y174000D02*
D03*
X138500Y174500D02*
D03*
X35000Y137500D02*
D03*
X58500Y6500D02*
D03*
X27500Y94500D02*
D03*
Y113500D02*
D03*
D93*
X65000Y56500D02*
D03*
X38000Y190000D02*
D03*
X215000Y-26000D02*
D03*
D94*
X75913Y98740D02*
D03*
Y95000D02*
D03*
Y91260D02*
D03*
X65087D02*
D03*
Y98740D02*
D03*
D95*
X89518Y141000D02*
D03*
X98009Y132509D02*
D03*
D96*
X116936Y128064D02*
D03*
X112064Y132936D02*
D03*
X100064Y149936D02*
D03*
X104936Y145064D02*
D03*
D97*
X238500Y123445D02*
D03*
Y116555D02*
D03*
D98*
X32921Y47102D02*
D03*
X62843D02*
D03*
Y35685D02*
D03*
D99*
X135484Y67945D02*
D03*
Y77000D02*
D03*
Y86055D02*
D03*
D100*
X158516Y77000D02*
D03*
D101*
X187000Y93937D02*
D03*
Y86063D02*
D03*
M02*
