G04 Layer_Color=32896*
%FSLAX25Y25*%
%MOIN*%
G70*
G01*
G75*
%ADD31C,0.01000*%
%ADD59C,0.00787*%
%ADD60C,0.00394*%
%ADD61C,0.00984*%
D31*
X126Y121744D02*
X59181D01*
X126Y70563D02*
Y121744D01*
Y70563D02*
X59181D01*
Y121744D01*
X126Y101398D02*
X5370Y96153D01*
X126Y90909D02*
X5370Y96153D01*
X40657Y252D02*
X43158Y2752D01*
X45658Y252D01*
X39220Y49465D02*
X55658D01*
X27409Y252D02*
Y40252D01*
X62843Y252D02*
Y30252D01*
X27409Y252D02*
X62843D01*
X58500Y127999D02*
X55834Y124000D01*
Y127999D02*
X58500Y124000D01*
X54501Y127999D02*
X51836D01*
X53168D01*
Y124000D01*
X50503Y127332D02*
X49836Y127999D01*
X48503D01*
X47837Y127332D01*
Y126666D01*
X48503Y125999D01*
X49170D01*
X48503D01*
X47837Y125333D01*
Y124667D01*
X48503Y124000D01*
X49836D01*
X50503Y124667D01*
X46504Y127332D02*
X45837Y127999D01*
X44504D01*
X43838Y127332D01*
Y124667D01*
X44504Y124000D01*
X45837D01*
X46504Y124667D01*
Y127332D01*
X71334Y65332D02*
X72001Y65999D01*
X73334D01*
X74000Y65332D01*
Y62666D01*
X73334Y62000D01*
X72001D01*
X71334Y62666D01*
X70001Y62000D02*
X68668D01*
X69335D01*
Y65999D01*
X70001Y65332D01*
X64670Y62000D02*
Y65999D01*
X66669Y63999D01*
X64003D01*
X163000Y96999D02*
Y94333D01*
X161667Y93000D01*
X160334Y94333D01*
Y96999D01*
X159001Y93000D02*
Y96999D01*
X157002D01*
X156335Y96332D01*
Y94999D01*
X157002Y94333D01*
X159001D01*
X157668D02*
X156335Y93000D01*
X152337D02*
X155003D01*
X152337Y95666D01*
Y96332D01*
X153003Y96999D01*
X154336D01*
X155003Y96332D01*
X177334Y91332D02*
X178001Y91999D01*
X179333D01*
X180000Y91332D01*
Y88666D01*
X179333Y88000D01*
X178001D01*
X177334Y88666D01*
X174002Y88000D02*
Y91999D01*
X176001Y89999D01*
X173336D01*
X110834Y95832D02*
X111501Y96499D01*
X112833D01*
X113500Y95832D01*
Y93166D01*
X112833Y92500D01*
X111501D01*
X110834Y93166D01*
X109501Y95832D02*
X108835Y96499D01*
X107502D01*
X106835Y95832D01*
Y95166D01*
X107502Y94499D01*
X108168D01*
X107502D01*
X106835Y93833D01*
Y93166D01*
X107502Y92500D01*
X108835D01*
X109501Y93166D01*
X230500Y129500D02*
Y133499D01*
X228501D01*
X227834Y132832D01*
Y131499D01*
X228501Y130833D01*
X230500D01*
X229167D02*
X227834Y129500D01*
X226501Y130166D02*
X225835Y129500D01*
X224502D01*
X223835Y130166D01*
Y132832D01*
X224502Y133499D01*
X225835D01*
X226501Y132832D01*
Y132166D01*
X225835Y131499D01*
X223835D01*
X232900Y155894D02*
Y159892D01*
X230901D01*
X230234Y159226D01*
Y157893D01*
X230901Y157227D01*
X232900D01*
X231567D02*
X230234Y155894D01*
X226236D02*
X228901D01*
X226236Y158560D01*
Y159226D01*
X226902Y159892D01*
X228235D01*
X228901Y159226D01*
X121259Y139471D02*
Y140414D01*
X122201Y141356D01*
X123144D01*
X125029Y139471D01*
Y138529D01*
X124086Y137586D01*
X123144D01*
X117960Y137115D02*
X119845Y139000D01*
X121259Y137586D01*
X119845Y137115D01*
X119374Y136644D01*
Y135701D01*
X120316Y134759D01*
X121259D01*
X122201Y135701D01*
Y136644D01*
X97971Y109241D02*
X98914D01*
X99856Y108299D01*
Y107356D01*
X97971Y105471D01*
X97029D01*
X96086Y106414D01*
Y107356D01*
X95615Y112540D02*
X96086Y111126D01*
X96086Y109241D01*
X95144Y108299D01*
X94201D01*
X93259Y109241D01*
Y110184D01*
X93730Y110655D01*
X94673D01*
X96086Y109241D01*
X73759Y122471D02*
Y123414D01*
X74701Y124356D01*
X75644D01*
X77529Y122471D01*
Y121529D01*
X76586Y120586D01*
X75644D01*
X72345Y122000D02*
X70460Y120115D01*
X70931Y119644D01*
X74701D01*
X75173Y119173D01*
X126259Y157971D02*
Y158914D01*
X127201Y159856D01*
X128144D01*
X130029Y157971D01*
Y157029D01*
X129086Y156086D01*
X128144D01*
X125316Y157029D02*
X124374D01*
X123431Y156086D01*
Y155144D01*
X123902Y154673D01*
X124845D01*
Y153730D01*
X125316Y153259D01*
X126259D01*
X127201Y154201D01*
Y155144D01*
X126730Y155615D01*
X125787D01*
Y156558D01*
X125316Y157029D01*
X125787Y155615D02*
X124845Y154673D01*
X118259Y165471D02*
Y166414D01*
X119201Y167356D01*
X120144D01*
X122029Y165471D01*
Y164529D01*
X121086Y163586D01*
X120144D01*
X119201Y162644D02*
Y161701D01*
X118259Y160759D01*
X117316D01*
X115431Y162644D01*
Y163586D01*
X116374Y164529D01*
X117316D01*
X117788Y164058D01*
Y163115D01*
X116374Y161701D01*
X243334Y110832D02*
X244001Y111499D01*
X245334D01*
X246000Y110832D01*
Y108167D01*
X245334Y107500D01*
X244001D01*
X243334Y108167D01*
X242001Y107500D02*
X240668D01*
X241335D01*
Y111499D01*
X242001Y110832D01*
X238669D02*
X238003Y111499D01*
X236670D01*
X236003Y110832D01*
Y108167D01*
X236670Y107500D01*
X238003D01*
X238669Y108167D01*
Y110832D01*
X90328Y129827D02*
X87500Y127000D01*
X85615Y128885D01*
X84672Y129827D02*
X83730Y130770D01*
X84201Y130299D01*
X87029Y133126D01*
Y132184D01*
X103100Y89494D02*
Y93492D01*
X101101D01*
X100434Y92826D01*
Y91493D01*
X101101Y90827D01*
X103100D01*
X101767D02*
X100434Y89494D01*
X97102D02*
Y93492D01*
X99101Y91493D01*
X96435D01*
X103000Y97494D02*
Y101492D01*
X101001D01*
X100334Y100826D01*
Y99493D01*
X101001Y98827D01*
X103000D01*
X101667D02*
X100334Y97494D01*
X96336Y101492D02*
X97668Y100826D01*
X99001Y99493D01*
Y98160D01*
X98335Y97494D01*
X97002D01*
X96336Y98160D01*
Y98827D01*
X97002Y99493D01*
X99001D01*
X233000Y106500D02*
Y110499D01*
X231001D01*
X230334Y109832D01*
Y108499D01*
X231001Y107833D01*
X233000D01*
X231667D02*
X230334Y106500D01*
X229001D02*
X227668D01*
X228335D01*
Y110499D01*
X229001Y109832D01*
X225669D02*
X225003Y110499D01*
X223670D01*
X223003Y109832D01*
Y109166D01*
X223670Y108499D01*
X224336D01*
X223670D01*
X223003Y107833D01*
Y107167D01*
X223670Y106500D01*
X225003D01*
X225669Y107167D01*
X71000Y107499D02*
Y104166D01*
X70334Y103500D01*
X69001D01*
X68334Y104166D01*
Y107499D01*
X64336Y103500D02*
X67001D01*
X64336Y106166D01*
Y106832D01*
X65002Y107499D01*
X66335D01*
X67001Y106832D01*
X110471Y151741D02*
X111414D01*
X112356Y150799D01*
Y149856D01*
X110471Y147971D01*
X109529D01*
X108586Y148914D01*
Y149856D01*
X107173Y150328D02*
X106230Y151270D01*
X106701Y150799D01*
X109529Y153626D01*
Y152684D01*
X104816D02*
X103874Y153626D01*
X104345Y153155D01*
X107173Y155982D01*
Y155040D01*
X114471Y121741D02*
X115414D01*
X116356Y120799D01*
Y119856D01*
X114471Y117971D01*
X113529D01*
X112586Y118914D01*
Y119856D01*
X111172Y120327D02*
X110230Y121270D01*
X110701Y120799D01*
X113529Y123626D01*
Y122684D01*
X106931Y124569D02*
X108816Y122684D01*
Y126454D01*
X109288Y126925D01*
X110230D01*
X111172Y125982D01*
Y125040D01*
X64000Y138500D02*
Y142499D01*
X62001D01*
X61334Y141832D01*
Y140499D01*
X62001Y139833D01*
X64000D01*
X62667D02*
X61334Y138500D01*
X60001D02*
X58668D01*
X59335D01*
Y142499D01*
X60001Y141832D01*
X56669Y142499D02*
X54003D01*
Y141832D01*
X56669Y139166D01*
Y138500D01*
X75500Y18000D02*
Y21999D01*
X73501D01*
X72834Y21332D01*
Y19999D01*
X73501Y19333D01*
X75500D01*
X68836Y18000D02*
X71501D01*
X68836Y20666D01*
Y21332D01*
X69502Y21999D01*
X70835D01*
X71501Y21332D01*
X31500Y55000D02*
Y58999D01*
X29501D01*
X28834Y58332D01*
Y56999D01*
X29501Y56333D01*
X31500D01*
X30167D02*
X28834Y55000D01*
X24836D02*
X27501D01*
X24836Y57666D01*
Y58332D01*
X25502Y58999D01*
X26835D01*
X27501Y58332D01*
X20837Y55000D02*
X23503D01*
X20837Y57666D01*
Y58332D01*
X21503Y58999D01*
X22836D01*
X23503Y58332D01*
D59*
X68532Y100906D02*
X72469D01*
X68532Y89095D02*
X72469D01*
Y100906D01*
X68532Y89095D02*
Y100906D01*
X140898Y63811D02*
Y90189D01*
X153102Y63811D02*
Y90189D01*
X140898Y63811D02*
X153102D01*
X140898Y90189D02*
X153102D01*
X124000Y93941D02*
Y99059D01*
X184441Y90000D02*
X189559D01*
D60*
X48807Y60260D02*
Y67740D01*
X62193D01*
Y60260D02*
Y67740D01*
X48807Y60260D02*
X62193D01*
X220307Y145260D02*
Y152740D01*
X233693D01*
Y145260D02*
Y152740D01*
X220307Y145260D02*
X233693D01*
X79807Y95240D02*
X93193D01*
X79807Y87760D02*
Y95240D01*
Y87760D02*
X93193D01*
Y95240D01*
X79752Y95760D02*
X93138D01*
Y103240D01*
X79752D02*
X93138D01*
X79752Y95760D02*
Y103240D01*
X82912Y102623D02*
X92377Y112088D01*
X87088Y117377D02*
X92377Y112088D01*
X77623Y107912D02*
X87088Y117377D01*
X77623Y107912D02*
X82912Y102623D01*
X77412Y108123D02*
X86877Y117588D01*
X81588Y122877D02*
X86877Y117588D01*
X72123Y113412D02*
X81588Y122877D01*
X72123Y113412D02*
X77412Y108123D01*
X82907Y139817D02*
X96687Y126037D01*
X104482Y133832D01*
X90701Y147612D02*
X104482Y133832D01*
X82907Y139817D02*
X90701Y147612D01*
X116912Y138123D02*
X126377Y147588D01*
X121088Y152877D02*
X126377Y147588D01*
X111623Y143412D02*
X121088Y152877D01*
X111623Y143412D02*
X116912Y138123D01*
X107123Y132588D02*
X116588Y123123D01*
X121877Y128412D01*
X112412Y137877D02*
X121877Y128412D01*
X107123Y132588D02*
X112412Y137877D01*
X100412Y154877D02*
X109877Y145412D01*
X95123Y149588D02*
X100412Y154877D01*
X95123Y149588D02*
X104588Y140123D01*
X109877Y145412D01*
X242240Y113307D02*
Y126693D01*
X234760D02*
X242240D01*
X234760Y113307D02*
Y126693D01*
Y113307D02*
X242240D01*
X220307Y120260D02*
Y127740D01*
X233693D01*
Y120260D02*
Y127740D01*
X220307Y120260D02*
X233693D01*
X220307Y119740D02*
X233693D01*
X220307Y112260D02*
Y119740D01*
Y112260D02*
X233693D01*
Y119740D01*
X73240Y134307D02*
Y147693D01*
X65760D02*
X73240D01*
X65760Y134307D02*
Y147693D01*
Y134307D02*
X73240D01*
X133412Y157123D02*
X142877Y166588D01*
X137588Y171877D02*
X142877Y166588D01*
X128123Y162412D02*
X137588Y171877D01*
X128123Y162412D02*
X133412Y157123D01*
X127912Y162623D02*
X137377Y172088D01*
X132088Y177377D02*
X137377Y172088D01*
X122623Y167912D02*
X132088Y177377D01*
X122623Y167912D02*
X127912Y162623D01*
X33260Y69748D02*
X40740D01*
Y56362D02*
Y69748D01*
X33260Y56362D02*
X40740D01*
X33260D02*
Y69748D01*
D61*
X76406Y102087D02*
G03*
X76406Y102087I-492J0D01*
G01*
X135976Y63811D02*
G03*
X135976Y63811I-492J0D01*
G01*
M02*
