G04 Layer_Physical_Order=2*
G04 Layer_Color=16711680*
%FSLAX25Y25*%
%MOIN*%
G70*
G01*
G75*
%ADD10R,0.04528X0.05512*%
%ADD14R,0.05315X0.04528*%
%ADD18R,0.04528X0.05315*%
G04:AMPARAMS|DCode=24|XSize=55.12mil|YSize=45.28mil|CornerRadius=0mil|HoleSize=0mil|Usage=FLASHONLY|Rotation=315.000|XOffset=0mil|YOffset=0mil|HoleType=Round|Shape=Rectangle|*
%AMROTATEDRECTD24*
4,1,4,-0.03550,0.00348,-0.00348,0.03550,0.03550,-0.00348,0.00348,-0.03550,-0.03550,0.00348,0.0*
%
%ADD24ROTATEDRECTD24*%

%ADD29R,0.05512X0.05906*%
%ADD30C,0.03000*%
%ADD31C,0.01000*%
%ADD39C,0.11811*%
%ADD40C,0.07874*%
%ADD41C,0.07000*%
%ADD42R,0.07000X0.07000*%
%ADD43R,0.05906X0.05906*%
%ADD44C,0.05906*%
%ADD45R,0.07000X0.07000*%
%ADD46C,0.05512*%
%ADD47C,0.01500*%
%ADD48C,0.03000*%
%ADD49C,0.05000*%
%ADD50P,0.01414X4X360.0*%
%ADD51R,0.03937X0.02362*%
G04:AMPARAMS|DCode=52|XSize=49.21mil|YSize=86.61mil|CornerRadius=0mil|HoleSize=0mil|Usage=FLASHONLY|Rotation=315.000|XOffset=0mil|YOffset=0mil|HoleType=Round|Shape=Rectangle|*
%AMROTATEDRECTD52*
4,1,4,-0.04802,-0.01322,0.01322,0.04802,0.04802,0.01322,-0.01322,-0.04802,-0.04802,-0.01322,0.0*
%
%ADD52ROTATEDRECTD52*%

G04:AMPARAMS|DCode=53|XSize=55.12mil|YSize=45.28mil|CornerRadius=0mil|HoleSize=0mil|Usage=FLASHONLY|Rotation=225.000|XOffset=0mil|YOffset=0mil|HoleType=Round|Shape=Rectangle|*
%AMROTATEDRECTD53*
4,1,4,0.00348,0.03550,0.03550,0.00348,-0.00348,-0.03550,-0.03550,-0.00348,0.00348,0.03550,0.0*
%
%ADD53ROTATEDRECTD53*%

%ADD54R,0.05512X0.04528*%
%ADD55R,0.08661X0.07087*%
%ADD56R,0.08465X0.03937*%
%ADD57R,0.08465X0.12795*%
%ADD58R,0.05906X0.05512*%
%ADD59C,0.00787*%
G36*
X172378Y137971D02*
X172181Y137819D01*
X171547Y136993D01*
X171342Y136498D01*
X170915Y136413D01*
X170419Y136081D01*
X139322Y104985D01*
X139000Y105049D01*
X138024Y104855D01*
X137198Y104302D01*
X136645Y103475D01*
X136451Y102500D01*
X136478Y102364D01*
X136053Y101939D01*
X135500Y102049D01*
X134525Y101855D01*
X133698Y101302D01*
X133145Y100476D01*
X132951Y99500D01*
X133145Y98524D01*
X133698Y97698D01*
X134525Y97145D01*
X135500Y96951D01*
X136053Y97061D01*
X136478Y96636D01*
X136451Y96500D01*
X136645Y95525D01*
X137198Y94698D01*
X138024Y94145D01*
X139000Y93951D01*
X139553Y94061D01*
X139978Y93636D01*
X139951Y93500D01*
X140145Y92524D01*
X140698Y91698D01*
X141525Y91145D01*
X142500Y90951D01*
X143298Y91110D01*
X143544Y90649D01*
X141499Y88604D01*
X140717D01*
Y89024D01*
X132139D01*
X129466Y91697D01*
Y92547D01*
X131693D01*
Y100453D01*
X128075D01*
Y112678D01*
X128575Y112945D01*
X129025Y112645D01*
X130000Y112451D01*
X130975Y112645D01*
X131802Y113198D01*
X132355Y114024D01*
X132549Y115000D01*
X132355Y115975D01*
X131802Y116802D01*
X131529Y116985D01*
Y117867D01*
X133009Y119346D01*
X133471Y119154D01*
Y114485D01*
X133198Y114302D01*
X132645Y113476D01*
X132451Y112500D01*
X132645Y111524D01*
X133198Y110698D01*
X134025Y110145D01*
X135000Y109951D01*
X135976Y110145D01*
X136802Y110698D01*
X137355Y111524D01*
X137549Y112500D01*
X137355Y113476D01*
X136802Y114302D01*
X136529Y114485D01*
Y119867D01*
X138111Y121448D01*
X138590Y121303D01*
X138645Y121025D01*
X139198Y120198D01*
X139493Y120000D01*
Y119500D01*
X139198Y119302D01*
X138645Y118475D01*
X138451Y117500D01*
X138645Y116525D01*
X139198Y115698D01*
X140024Y115145D01*
X141000Y114951D01*
X141975Y115145D01*
X142802Y115698D01*
X142985Y115971D01*
X145515D01*
X145698Y115698D01*
X146525Y115145D01*
X147500Y114951D01*
X148476Y115145D01*
X149302Y115698D01*
X149855Y116525D01*
X150049Y117500D01*
X149855Y118475D01*
X149302Y119302D01*
X148476Y119855D01*
X147500Y120049D01*
X146525Y119855D01*
X145698Y119302D01*
X145515Y119029D01*
X142985D01*
X142802Y119302D01*
X142507Y119500D01*
Y120000D01*
X142802Y120198D01*
X143355Y121025D01*
X143549Y122000D01*
X143485Y122322D01*
X159634Y138471D01*
X172208D01*
X172378Y137971D01*
D02*
G37*
G36*
X181341Y126496D02*
X181149Y126032D01*
X181013Y125000D01*
X181149Y123968D01*
X181547Y123007D01*
X182181Y122181D01*
X183007Y121547D01*
X183968Y121149D01*
X185000Y121013D01*
X186032Y121149D01*
X186993Y121547D01*
X187819Y122181D01*
X188453Y123007D01*
X188645Y123471D01*
X192500D01*
X193085Y123587D01*
X193581Y123919D01*
X197009Y127346D01*
X197471Y127154D01*
Y122134D01*
X191867Y116529D01*
X188645D01*
X188453Y116993D01*
X187819Y117819D01*
X186993Y118453D01*
X186032Y118851D01*
X185000Y118987D01*
X183968Y118851D01*
X183504Y118659D01*
X181081Y121081D01*
X180585Y121413D01*
X180000Y121529D01*
X177792D01*
X177622Y122029D01*
X177819Y122181D01*
X178453Y123007D01*
X178851Y123968D01*
X178987Y125000D01*
X178851Y126032D01*
X178453Y126993D01*
X177819Y127819D01*
X177622Y127971D01*
X177792Y128471D01*
X179367D01*
X181341Y126496D01*
D02*
G37*
G36*
X171419Y168919D02*
X171915Y168587D01*
X172268Y168517D01*
X172393Y167982D01*
X172181Y167819D01*
X171547Y166993D01*
X171149Y166032D01*
X171013Y165000D01*
X171149Y163968D01*
X171547Y163007D01*
X172181Y162181D01*
X173007Y161547D01*
X173968Y161149D01*
X175000Y161013D01*
X176032Y161149D01*
X176993Y161547D01*
X177819Y162181D01*
X177971Y162378D01*
X178471Y162208D01*
Y160000D01*
X178587Y159415D01*
X178919Y158919D01*
X181341Y156496D01*
X181149Y156032D01*
X181013Y155000D01*
X181149Y153968D01*
X181547Y153007D01*
X182181Y152181D01*
X183007Y151547D01*
X183968Y151149D01*
X185000Y151013D01*
X186032Y151149D01*
X186993Y151547D01*
X187819Y152181D01*
X187971Y152378D01*
X188471Y152208D01*
Y147792D01*
X187971Y147622D01*
X187819Y147819D01*
X186993Y148453D01*
X186032Y148851D01*
X185000Y148987D01*
X183968Y148851D01*
X183504Y148659D01*
X181081Y151081D01*
X180585Y151413D01*
X180000Y151529D01*
X177792D01*
X177622Y152029D01*
X177819Y152181D01*
X178453Y153007D01*
X178851Y153968D01*
X178987Y155000D01*
X178851Y156032D01*
X178453Y156993D01*
X177819Y157819D01*
X176993Y158453D01*
X176032Y158851D01*
X175000Y158987D01*
X173968Y158851D01*
X173504Y158659D01*
X169029Y163134D01*
Y170654D01*
X169491Y170846D01*
X171419Y168919D01*
D02*
G37*
G36*
X220291Y150490D02*
X216788D01*
X216605Y150763D01*
X215779Y151316D01*
X214803Y151510D01*
X213828Y151316D01*
X213001Y150763D01*
X212818Y150490D01*
X207173D01*
X205654Y152009D01*
X205846Y152471D01*
X220291D01*
Y150490D01*
D02*
G37*
G36*
X171341Y176496D02*
X171149Y176032D01*
X171013Y175000D01*
X171111Y174259D01*
X170637Y174026D01*
X161692Y182971D01*
X161829Y183408D01*
X161877Y183471D01*
X164366D01*
X171341Y176496D01*
D02*
G37*
G36*
X181341Y176496D02*
X181149Y176032D01*
X181013Y175000D01*
X181149Y173968D01*
X181547Y173007D01*
X182181Y172181D01*
X183007Y171547D01*
X183968Y171149D01*
X185000Y171013D01*
X186032Y171149D01*
X186993Y171547D01*
X187819Y172181D01*
X187971Y172378D01*
X188471Y172208D01*
Y167791D01*
X187971Y167622D01*
X187819Y167819D01*
X186993Y168453D01*
X186032Y168851D01*
X185000Y168987D01*
X183968Y168851D01*
X183007Y168453D01*
X182181Y167819D01*
X182018Y167607D01*
X181483Y167731D01*
X181413Y168085D01*
X181081Y168581D01*
X178581Y171081D01*
X178085Y171413D01*
X177732Y171483D01*
X177607Y172018D01*
X177819Y172181D01*
X178453Y173007D01*
X178851Y173968D01*
X178987Y175000D01*
X178851Y176032D01*
X178453Y176993D01*
X177819Y177819D01*
X176993Y178453D01*
X176032Y178851D01*
X175000Y178987D01*
X173968Y178851D01*
X173504Y178659D01*
X166654Y185509D01*
X166846Y185971D01*
X171867D01*
X181341Y176496D01*
D02*
G37*
G36*
X40731Y198463D02*
X41825Y198010D01*
X43000Y197855D01*
X44175Y198010D01*
X44915Y198316D01*
X59312Y183919D01*
X59808Y183587D01*
X60394Y183471D01*
X78471D01*
Y169485D01*
X78198Y169302D01*
X77645Y168475D01*
X77451Y167500D01*
X77645Y166525D01*
X77681Y166470D01*
X77446Y166029D01*
X68133D01*
X66985Y167178D01*
X67049Y167500D01*
X66855Y168475D01*
X66302Y169302D01*
X65475Y169855D01*
X64500Y170049D01*
X63525Y169855D01*
X62698Y169302D01*
X62284Y168684D01*
X61716D01*
X61302Y169302D01*
X60475Y169855D01*
X59500Y170049D01*
X58525Y169855D01*
X57698Y169302D01*
X57284Y168684D01*
X56716D01*
X56302Y169302D01*
X55475Y169855D01*
X54500Y170049D01*
X53525Y169855D01*
X52698Y169302D01*
X52145Y168475D01*
X51951Y167500D01*
X52145Y166525D01*
X52698Y165698D01*
X53525Y165145D01*
X54500Y164951D01*
X54822Y165015D01*
X61419Y158419D01*
X61915Y158087D01*
X62500Y157971D01*
X85637D01*
X86223Y158087D01*
X86719Y158419D01*
X87235Y158935D01*
X87778Y158771D01*
X87872Y158297D01*
X88425Y157471D01*
X89252Y156918D01*
X90227Y156724D01*
X90549Y156788D01*
X96425Y150912D01*
X95100Y149588D01*
X95522Y149167D01*
X92206Y145851D01*
X90841Y147216D01*
X88153Y144528D01*
X87155Y145526D01*
X86659Y145858D01*
X86073Y145974D01*
X73158D01*
Y147709D01*
X65842D01*
Y145974D01*
X41945D01*
X41360Y145858D01*
X40863Y145526D01*
X35322Y139985D01*
X35000Y140049D01*
X34025Y139855D01*
X33198Y139302D01*
X32645Y138476D01*
X32451Y137500D01*
X32645Y136524D01*
X33198Y135698D01*
X34025Y135145D01*
X35000Y134951D01*
X35976Y135145D01*
X36802Y135698D01*
X37355Y136524D01*
X37549Y137500D01*
X37485Y137822D01*
X42578Y142915D01*
X65842D01*
Y141181D01*
X65842D01*
Y140819D01*
X65842D01*
Y134291D01*
X71046D01*
X72515Y132822D01*
X72451Y132500D01*
X72515Y132178D01*
X57919Y117581D01*
X57587Y117085D01*
X57471Y116500D01*
Y80500D01*
X57587Y79915D01*
X57919Y79419D01*
X66919Y70419D01*
X67415Y70087D01*
X68000Y69971D01*
X114866D01*
X121471Y63367D01*
Y51985D01*
X121198Y51802D01*
X120645Y50976D01*
X120451Y50000D01*
X120645Y49025D01*
X121198Y48198D01*
X122025Y47645D01*
X123000Y47451D01*
X123976Y47645D01*
X124802Y48198D01*
X125355Y49025D01*
X125549Y50000D01*
X125355Y50976D01*
X124802Y51802D01*
X124529Y51985D01*
Y64000D01*
X124413Y64585D01*
X124081Y65081D01*
X117154Y72009D01*
X117346Y72471D01*
X121000D01*
X121585Y72587D01*
X122081Y72919D01*
X132249Y83087D01*
X140717D01*
Y83506D01*
X142555D01*
X143531Y83700D01*
X144358Y84253D01*
X172240Y112135D01*
X173007Y111547D01*
X173968Y111149D01*
X175000Y111013D01*
X176032Y111149D01*
X176496Y111341D01*
X178919Y108919D01*
X179415Y108587D01*
X180000Y108471D01*
X181047D01*
Y103211D01*
X180585Y103019D01*
X178942Y104662D01*
X178987Y105000D01*
X178851Y106032D01*
X178453Y106993D01*
X177819Y107819D01*
X176993Y108453D01*
X176032Y108851D01*
X175000Y108987D01*
X173968Y108851D01*
X173007Y108453D01*
X172181Y107819D01*
X171974Y107549D01*
X169500D01*
X168525Y107355D01*
X167698Y106802D01*
X145198Y84302D01*
X144645Y83476D01*
X144451Y82500D01*
Y70494D01*
X140717D01*
Y70913D01*
X130252D01*
Y64976D01*
X140717D01*
Y65396D01*
X145944D01*
X152451Y58889D01*
Y50000D01*
X152645Y49025D01*
X153198Y48198D01*
X154025Y47645D01*
X155000Y47451D01*
X161444D01*
X164951Y43944D01*
Y31056D01*
X158944Y25049D01*
X34056D01*
X27302Y31802D01*
X26476Y32355D01*
X25500Y32549D01*
X11056D01*
X7549Y36056D01*
Y58944D01*
X12149Y63544D01*
X12610Y63298D01*
X12451Y62500D01*
X12645Y61524D01*
X13198Y60698D01*
X14025Y60145D01*
X15000Y59951D01*
X30000D01*
X30975Y60145D01*
X31802Y60698D01*
X32355Y61524D01*
X32549Y62500D01*
X32355Y63476D01*
X31802Y64302D01*
X30975Y64855D01*
X30000Y65049D01*
X25049D01*
Y80070D01*
X44617Y99638D01*
X44715Y99585D01*
X46016Y99190D01*
X47370Y99057D01*
X48724Y99190D01*
X50025Y99585D01*
X51225Y100227D01*
X52277Y101090D01*
X53140Y102141D01*
X53781Y103341D01*
X54176Y104642D01*
X54309Y105996D01*
X54176Y107350D01*
X53781Y108651D01*
X53140Y109851D01*
X52277Y110903D01*
X51225Y111766D01*
X50025Y112407D01*
X48724Y112802D01*
X47370Y112935D01*
X46016Y112802D01*
X44715Y112407D01*
X43515Y111766D01*
X42463Y110903D01*
X41601Y109851D01*
X40959Y108651D01*
X40565Y107350D01*
X40431Y105996D01*
X40565Y104642D01*
X40959Y103341D01*
X41012Y103243D01*
X20698Y82928D01*
X20549Y82706D01*
X20049Y82858D01*
Y92971D01*
X25515D01*
X25698Y92698D01*
X26524Y92145D01*
X27500Y91951D01*
X28475Y92145D01*
X29302Y92698D01*
X29855Y93524D01*
X30049Y94500D01*
X29855Y95476D01*
X29302Y96302D01*
X28475Y96855D01*
X27500Y97049D01*
X26524Y96855D01*
X25698Y96302D01*
X25515Y96029D01*
X20049D01*
Y111971D01*
X25515D01*
X25698Y111698D01*
X26524Y111145D01*
X27500Y110951D01*
X28475Y111145D01*
X29302Y111698D01*
X29855Y112524D01*
X30049Y113500D01*
X29855Y114476D01*
X29302Y115302D01*
X28475Y115855D01*
X27500Y116049D01*
X26524Y115855D01*
X25698Y115302D01*
X25515Y115029D01*
X20049D01*
Y168444D01*
X38086Y186481D01*
X38914Y186590D01*
X39765Y186943D01*
X40496Y187504D01*
X41057Y188235D01*
X41410Y189086D01*
X41530Y190000D01*
X41410Y190914D01*
X41057Y191765D01*
X40496Y192496D01*
X39765Y193057D01*
X39529Y193155D01*
Y198754D01*
X40029Y199001D01*
X40731Y198463D01*
D02*
G37*
G36*
X75994Y129639D02*
X64005Y117650D01*
X63674Y117154D01*
X63557Y116568D01*
Y100921D01*
X62118D01*
Y98781D01*
X60991Y97654D01*
X60529Y97846D01*
Y115866D01*
X74678Y130015D01*
X75000Y129951D01*
X75748Y130100D01*
X75994Y129639D01*
D02*
G37*
G36*
X85990Y142366D02*
X83302Y139678D01*
X84667Y138312D01*
X77861Y131506D01*
X77400Y131752D01*
X77549Y132500D01*
X77355Y133475D01*
X76802Y134302D01*
X75976Y134855D01*
X75000Y135049D01*
X74678Y134985D01*
X73158Y136505D01*
Y140819D01*
X73158D01*
Y141181D01*
X73158D01*
Y142915D01*
X85440D01*
X85990Y142366D01*
D02*
G37*
G36*
X181341Y146496D02*
X181149Y146032D01*
X181013Y145000D01*
X181149Y143968D01*
X181547Y143007D01*
X182181Y142181D01*
X183007Y141547D01*
X183968Y141149D01*
X185000Y141013D01*
X186032Y141149D01*
X186993Y141547D01*
X187642Y142045D01*
X188145Y141896D01*
X188187Y141860D01*
X188196Y141810D01*
X188182Y141779D01*
X187645Y140975D01*
X187451Y140000D01*
X187645Y139024D01*
X188198Y138198D01*
X189024Y137645D01*
X189650Y137521D01*
X189815Y136978D01*
X189366Y136529D01*
X188645D01*
X188453Y136993D01*
X187819Y137819D01*
X186993Y138453D01*
X186032Y138851D01*
X185000Y138987D01*
X183968Y138851D01*
X183504Y138659D01*
X181081Y141081D01*
X180585Y141413D01*
X180000Y141529D01*
X177792D01*
X177622Y142029D01*
X177819Y142181D01*
X178453Y143007D01*
X178851Y143968D01*
X178987Y145000D01*
X178851Y146032D01*
X178453Y146993D01*
X177819Y147819D01*
X177622Y147971D01*
X177792Y148471D01*
X179367D01*
X181341Y146496D01*
D02*
G37*
G36*
X166419Y143919D02*
X166915Y143587D01*
X167500Y143471D01*
X171355D01*
X171547Y143007D01*
X172181Y142181D01*
X172378Y142029D01*
X172208Y141529D01*
X159000D01*
X158874Y141504D01*
X158628Y141965D01*
X161581Y144919D01*
X161913Y145415D01*
X162029Y146000D01*
Y147623D01*
X162092Y147671D01*
X162529Y147808D01*
X166419Y143919D01*
D02*
G37*
G36*
X171419Y148919D02*
X171915Y148587D01*
X172268Y148517D01*
X172393Y147982D01*
X172181Y147819D01*
X171547Y146993D01*
X171355Y146529D01*
X168133D01*
X165029Y149634D01*
Y154654D01*
X165491Y154846D01*
X171419Y148919D01*
D02*
G37*
G36*
X181341Y136496D02*
X181149Y136032D01*
X181013Y135000D01*
X181149Y133968D01*
X181547Y133007D01*
X182181Y132181D01*
X183007Y131547D01*
X183968Y131149D01*
X185000Y131013D01*
X186032Y131149D01*
X186993Y131547D01*
X187819Y132181D01*
X188453Y133007D01*
X188645Y133471D01*
X190000D01*
X190585Y133587D01*
X190982Y133852D01*
X191301Y133464D01*
X190322Y132485D01*
X190000Y132549D01*
X189024Y132355D01*
X188198Y131802D01*
X187645Y130975D01*
X187451Y130000D01*
X187645Y129025D01*
X188198Y128198D01*
X189024Y127645D01*
X190000Y127451D01*
X190975Y127645D01*
X191802Y128198D01*
X192355Y129025D01*
X192549Y130000D01*
X192485Y130322D01*
X195009Y132846D01*
X195471Y132654D01*
Y130133D01*
X191867Y126529D01*
X188645D01*
X188453Y126993D01*
X187819Y127819D01*
X186993Y128453D01*
X186032Y128851D01*
X185000Y128987D01*
X183968Y128851D01*
X183504Y128659D01*
X181081Y131081D01*
X180585Y131413D01*
X180000Y131529D01*
X177792D01*
X177622Y132029D01*
X177819Y132181D01*
X178453Y133007D01*
X178851Y133968D01*
X178987Y135000D01*
X178851Y136032D01*
X178453Y136993D01*
X177819Y137819D01*
X177622Y137971D01*
X177792Y138471D01*
X179367D01*
X181341Y136496D01*
D02*
G37*
G36*
X158698Y166198D02*
X158971Y166015D01*
Y146634D01*
X157991Y145654D01*
X157529Y145846D01*
Y166015D01*
X157802Y166198D01*
X158000Y166493D01*
X158500D01*
X158698Y166198D01*
D02*
G37*
G36*
X186181Y188030D02*
X186145Y187976D01*
X185951Y187000D01*
X185978Y186864D01*
X185553Y186439D01*
X185000Y186549D01*
X184025Y186355D01*
X183198Y185802D01*
X182645Y184976D01*
X182451Y184000D01*
X182645Y183025D01*
X183198Y182198D01*
X183471Y182015D01*
Y181500D01*
X183587Y180915D01*
X183919Y180419D01*
X184864Y179473D01*
X184685Y178945D01*
X183968Y178851D01*
X183504Y178659D01*
X174154Y188009D01*
X174346Y188471D01*
X185946D01*
X186181Y188030D01*
D02*
G37*
G36*
X226471Y186866D02*
Y183639D01*
X225971Y183393D01*
X225269Y183931D01*
X224175Y184384D01*
X223000Y184539D01*
X221825Y184384D01*
X220731Y183931D01*
X219791Y183209D01*
X219069Y182269D01*
X218616Y181175D01*
X218461Y180000D01*
X218616Y178825D01*
X219069Y177731D01*
X219791Y176791D01*
X220731Y176069D01*
X221825Y175616D01*
X223000Y175461D01*
X224175Y175616D01*
X225269Y176069D01*
X225971Y176607D01*
X226471Y176361D01*
Y175000D01*
X226587Y174415D01*
X226919Y173919D01*
X228922Y171915D01*
X228616Y171175D01*
X228461Y170000D01*
X228616Y168825D01*
X229069Y167731D01*
X229791Y166791D01*
X230731Y166069D01*
X231825Y165616D01*
X233000Y165461D01*
X234175Y165616D01*
X234915Y165922D01*
X235471Y165366D01*
Y131189D01*
X231940Y127657D01*
X227319D01*
X227181Y127657D01*
X226819D01*
X226681Y127657D01*
X220291D01*
Y125529D01*
X216985D01*
X216802Y125802D01*
X215975Y126355D01*
X215000Y126549D01*
X214024Y126355D01*
X213198Y125802D01*
X212645Y124976D01*
X212451Y124000D01*
X212645Y123024D01*
X213198Y122198D01*
X214024Y121645D01*
X215000Y121451D01*
X215975Y121645D01*
X216802Y122198D01*
X216985Y122471D01*
X220291D01*
Y120343D01*
X226681D01*
X226819Y120343D01*
X227181D01*
X227319Y120343D01*
X228916D01*
Y119658D01*
X227181D01*
Y119658D01*
X226819D01*
Y119658D01*
X220291D01*
Y117529D01*
X208985D01*
X208802Y117802D01*
X207976Y118355D01*
X207000Y118549D01*
X206025Y118355D01*
X205198Y117802D01*
X205015Y117529D01*
X198500D01*
X197915Y117413D01*
X197518Y117148D01*
X197199Y117536D01*
X200081Y120419D01*
X200413Y120915D01*
X200529Y121500D01*
Y152154D01*
X200991Y152346D01*
X205458Y147879D01*
X205954Y147548D01*
X206539Y147431D01*
X212818D01*
X213001Y147158D01*
X213828Y146606D01*
X214803Y146412D01*
X215779Y146606D01*
X216605Y147158D01*
X216788Y147431D01*
X220291D01*
Y145343D01*
X226819D01*
X226819Y145343D01*
X227181D01*
Y145343D01*
X227319Y145343D01*
X233709D01*
Y152657D01*
X229103D01*
X226679Y155081D01*
X226183Y155413D01*
X225598Y155529D01*
X208702D01*
X208551Y156029D01*
X208802Y156198D01*
X209355Y157025D01*
X209549Y158000D01*
X209355Y158976D01*
X208802Y159802D01*
X208529Y159985D01*
Y165500D01*
X217500D01*
Y174500D01*
X210316D01*
X210125Y174962D01*
X211085Y175922D01*
X211825Y175616D01*
X213000Y175461D01*
X214175Y175616D01*
X215269Y176069D01*
X216209Y176791D01*
X216931Y177731D01*
X217384Y178825D01*
X217539Y180000D01*
X217384Y181175D01*
X216931Y182269D01*
X216209Y183209D01*
X215269Y183931D01*
X214175Y184384D01*
X213000Y184539D01*
X211825Y184384D01*
X210731Y183931D01*
X209791Y183209D01*
X209069Y182269D01*
X208616Y181175D01*
X208461Y180000D01*
X208616Y178825D01*
X208922Y178085D01*
X205919Y175081D01*
X205587Y174585D01*
X205529Y174295D01*
X205029Y174345D01*
Y189500D01*
X204913Y190085D01*
X204581Y190581D01*
X202154Y193009D01*
X202346Y193471D01*
X219866D01*
X226471Y186866D01*
D02*
G37*
G36*
X172378Y117971D02*
X172181Y117819D01*
X171974Y117549D01*
X171500D01*
X170525Y117355D01*
X169698Y116802D01*
X145351Y92456D01*
X144890Y92702D01*
X145049Y93500D01*
X144985Y93822D01*
X169633Y118471D01*
X172208D01*
X172378Y117971D01*
D02*
G37*
G36*
X246111Y263735D02*
X248046Y263148D01*
X249828Y262195D01*
X251391Y260913D01*
X252673Y259350D01*
X253626Y257568D01*
X254213Y255633D01*
X254399Y253738D01*
X254376Y253622D01*
Y249095D01*
X253914Y248903D01*
X246068Y256749D01*
X246113Y257087D01*
X245977Y258119D01*
X245579Y259080D01*
X244945Y259906D01*
X244119Y260539D01*
X243158Y260938D01*
X242126Y261073D01*
X241094Y260938D01*
X240132Y260539D01*
X239307Y259906D01*
X238673Y259080D01*
X238275Y258119D01*
X238139Y257087D01*
X238275Y256055D01*
X238673Y255093D01*
X239307Y254268D01*
X240132Y253634D01*
X241094Y253236D01*
X242126Y253100D01*
X242464Y253144D01*
X250357Y245251D01*
Y180017D01*
X249856Y179967D01*
X249855Y179975D01*
X249302Y180802D01*
X231549Y198556D01*
Y222000D01*
X231355Y222975D01*
X230802Y223802D01*
X222549Y232056D01*
Y251031D01*
X226056Y254538D01*
X228173D01*
Y253134D01*
X236079D01*
Y261039D01*
X228173D01*
Y259636D01*
X225000D01*
X224025Y259442D01*
X223198Y258889D01*
X218198Y253889D01*
X217645Y253062D01*
X217451Y252087D01*
Y248948D01*
X216951Y248796D01*
X216889Y248889D01*
X216062Y249442D01*
X215087Y249636D01*
X214140Y249447D01*
X215794Y247794D01*
X215087Y247087D01*
X215794Y246379D01*
X214140Y244726D01*
X215087Y244538D01*
X216062Y244732D01*
X216889Y245284D01*
X216951Y245377D01*
X217451Y245225D01*
Y231000D01*
X217645Y230025D01*
X218198Y229198D01*
X226451Y220944D01*
Y216048D01*
X225951Y215801D01*
X225269Y216324D01*
X224175Y216778D01*
X223000Y216933D01*
X221825Y216778D01*
X220731Y216324D01*
X219791Y215603D01*
X219069Y214663D01*
X218616Y213568D01*
X218461Y212394D01*
X218616Y211219D01*
X219069Y210124D01*
X219791Y209184D01*
X220731Y208463D01*
X221825Y208010D01*
X223000Y207855D01*
X224175Y208010D01*
X225269Y208463D01*
X225951Y208986D01*
X226451Y208739D01*
Y206894D01*
X219914D01*
X223707Y203101D01*
X223000Y202394D01*
X223707Y201687D01*
X219914Y197894D01*
X226451D01*
Y197500D01*
X226645Y196525D01*
X227198Y195698D01*
X244951Y177944D01*
Y104855D01*
X244500Y104736D01*
X244451Y104736D01*
X236914D01*
X240707Y100943D01*
X240000Y100236D01*
X240707Y99529D01*
X236914Y95736D01*
X244451D01*
X244500Y95736D01*
X244951Y95618D01*
Y90936D01*
X244451Y90903D01*
X244384Y91411D01*
X243931Y92506D01*
X243209Y93446D01*
X242269Y94167D01*
X241175Y94620D01*
X240000Y94775D01*
X238825Y94620D01*
X237731Y94167D01*
X236791Y93446D01*
X236460Y93015D01*
X235858Y92983D01*
X217039Y111802D01*
X216212Y112355D01*
X215236Y112549D01*
X205000D01*
X204025Y112355D01*
X203198Y111802D01*
X191444Y100049D01*
X183556D01*
X183019Y100585D01*
X183211Y101047D01*
X187539D01*
X184293Y104293D01*
X185707Y105707D01*
X188953Y102462D01*
Y108471D01*
X192500D01*
X193085Y108587D01*
X193581Y108919D01*
X199134Y114471D01*
X205015D01*
X205198Y114198D01*
X206025Y113645D01*
X207000Y113451D01*
X207976Y113645D01*
X208802Y114198D01*
X208985Y114471D01*
X220291D01*
Y112343D01*
X226819D01*
Y112343D01*
X227181D01*
Y112343D01*
X233709D01*
Y119658D01*
X231974D01*
Y120343D01*
X233709D01*
Y121915D01*
X234744D01*
Y120319D01*
X234744Y120181D01*
Y119819D01*
X234744Y119681D01*
Y114706D01*
X237301Y117262D01*
X238500Y116063D01*
X239699Y117262D01*
X242256Y114706D01*
Y119681D01*
X242256Y119819D01*
Y120181D01*
X242256Y120319D01*
Y126709D01*
X235970D01*
X235778Y127171D01*
X238081Y129474D01*
X238413Y129970D01*
X238529Y130555D01*
Y166000D01*
X238413Y166585D01*
X238081Y167081D01*
X237078Y168085D01*
X237384Y168825D01*
X237539Y170000D01*
X237384Y171175D01*
X236931Y172269D01*
X236209Y173209D01*
X235269Y173931D01*
X234175Y174384D01*
X233000Y174539D01*
X231825Y174384D01*
X231085Y174078D01*
X229529Y175634D01*
Y176361D01*
X230029Y176607D01*
X230731Y176069D01*
X231825Y175616D01*
X233000Y175461D01*
X234175Y175616D01*
X235269Y176069D01*
X235409Y176177D01*
X232293Y179293D01*
X233000Y180000D01*
X232293Y180707D01*
X235409Y183824D01*
X235269Y183931D01*
X234175Y184384D01*
X233000Y184539D01*
X231825Y184384D01*
X230731Y183931D01*
X230029Y183393D01*
X229529Y183639D01*
Y187500D01*
X229413Y188085D01*
X229081Y188581D01*
X221581Y196081D01*
X221085Y196413D01*
X220500Y196529D01*
X119633D01*
X119529Y196634D01*
Y198754D01*
X120029Y199001D01*
X120731Y198463D01*
X121825Y198010D01*
X123000Y197855D01*
X124175Y198010D01*
X125269Y198463D01*
X126209Y199184D01*
X126931Y200124D01*
X127384Y201219D01*
X127539Y202394D01*
X127384Y203568D01*
X126931Y204663D01*
X126209Y205603D01*
X125269Y206324D01*
X124175Y206778D01*
X123000Y206932D01*
X121825Y206778D01*
X120731Y206324D01*
X120029Y205786D01*
X119529Y206033D01*
Y207394D01*
X119507Y207507D01*
X119824Y207894D01*
X126086D01*
X122293Y211687D01*
X118500Y215479D01*
Y209710D01*
X118038Y209519D01*
X117078Y210479D01*
X117384Y211219D01*
X117539Y212394D01*
X117384Y213568D01*
X116931Y214663D01*
X116209Y215603D01*
X115269Y216324D01*
X114175Y216778D01*
X113000Y216933D01*
X111825Y216778D01*
X110731Y216324D01*
X109791Y215603D01*
X109069Y214663D01*
X108616Y213568D01*
X108461Y212394D01*
X108616Y211219D01*
X109069Y210124D01*
X109791Y209184D01*
X110731Y208463D01*
X111825Y208010D01*
X113000Y207855D01*
X114175Y208010D01*
X114915Y208316D01*
X116471Y206760D01*
Y206033D01*
X115971Y205786D01*
X115269Y206324D01*
X114175Y206778D01*
X113000Y206932D01*
X111825Y206778D01*
X110731Y206324D01*
X109791Y205603D01*
X109069Y204663D01*
X108616Y203568D01*
X108461Y202394D01*
X108616Y201219D01*
X109069Y200124D01*
X109791Y199184D01*
X110731Y198463D01*
X111471Y198156D01*
Y197000D01*
X111522Y196742D01*
X111061Y196495D01*
X107078Y200479D01*
X107384Y201219D01*
X107539Y202394D01*
X107384Y203568D01*
X106931Y204663D01*
X106209Y205603D01*
X105269Y206324D01*
X104175Y206778D01*
X103000Y206932D01*
X101825Y206778D01*
X100731Y206324D01*
X99791Y205603D01*
X99069Y204663D01*
X98616Y203568D01*
X98461Y202394D01*
X98616Y201219D01*
X99069Y200124D01*
X99791Y199184D01*
X100731Y198463D01*
X101825Y198010D01*
X103000Y197855D01*
X104175Y198010D01*
X104915Y198316D01*
X113740Y189491D01*
X113548Y189029D01*
X103791D01*
X103524Y189529D01*
X103855Y190024D01*
X104049Y191000D01*
X103855Y191975D01*
X103302Y192802D01*
X102476Y193355D01*
X101500Y193549D01*
X100524Y193355D01*
X99698Y192802D01*
X99515Y192529D01*
X75134D01*
X70231Y197432D01*
X70423Y197894D01*
X76086D01*
X72293Y201687D01*
X73000Y202394D01*
X72293Y203101D01*
X76086Y206894D01*
X69529D01*
Y207394D01*
X69413Y207979D01*
X69081Y208475D01*
X67078Y210479D01*
X67384Y211219D01*
X67539Y212394D01*
X67384Y213568D01*
X66931Y214663D01*
X66209Y215603D01*
X65269Y216324D01*
X64175Y216778D01*
X63000Y216933D01*
X61825Y216778D01*
X60731Y216324D01*
X59791Y215603D01*
X59069Y214663D01*
X58616Y213568D01*
X58461Y212394D01*
X58616Y211219D01*
X59069Y210124D01*
X59791Y209184D01*
X60731Y208463D01*
X61825Y208010D01*
X63000Y207855D01*
X64175Y208010D01*
X64915Y208316D01*
X66471Y206760D01*
Y206033D01*
X65971Y205786D01*
X65269Y206324D01*
X64175Y206778D01*
X63000Y206932D01*
X61825Y206778D01*
X60731Y206324D01*
X59791Y205603D01*
X59069Y204663D01*
X58616Y203568D01*
X58461Y202394D01*
X58616Y201219D01*
X59069Y200124D01*
X59791Y199184D01*
X60731Y198463D01*
X61825Y198010D01*
X63000Y197855D01*
X64175Y198010D01*
X65269Y198463D01*
X65971Y199001D01*
X66471Y198754D01*
Y197500D01*
X66587Y196915D01*
X66919Y196419D01*
X73419Y189919D01*
X73915Y189587D01*
X74204Y189529D01*
X74155Y189029D01*
X68527D01*
X57078Y200479D01*
X57384Y201219D01*
X57539Y202394D01*
X57384Y203568D01*
X56931Y204663D01*
X56209Y205603D01*
X55269Y206324D01*
X54175Y206778D01*
X53000Y206932D01*
X51825Y206778D01*
X50731Y206324D01*
X49791Y205603D01*
X49069Y204663D01*
X48616Y203568D01*
X48461Y202394D01*
X48616Y201219D01*
X49069Y200124D01*
X49791Y199184D01*
X50731Y198463D01*
X51825Y198010D01*
X53000Y197855D01*
X54175Y198010D01*
X54915Y198316D01*
X66240Y186991D01*
X66048Y186529D01*
X61027D01*
X47078Y200479D01*
X47384Y201219D01*
X47539Y202394D01*
X47384Y203568D01*
X46931Y204663D01*
X46209Y205603D01*
X45269Y206324D01*
X44175Y206778D01*
X43000Y206932D01*
X41825Y206778D01*
X40731Y206324D01*
X40029Y205786D01*
X39529Y206033D01*
Y208754D01*
X40029Y209001D01*
X40731Y208463D01*
X41825Y208010D01*
X43000Y207855D01*
X44175Y208010D01*
X45269Y208463D01*
X46209Y209184D01*
X46931Y210124D01*
X47384Y211219D01*
X47539Y212394D01*
X47384Y213568D01*
X46931Y214663D01*
X46209Y215603D01*
X45269Y216324D01*
X44175Y216778D01*
X43000Y216933D01*
X41825Y216778D01*
X40731Y216324D01*
X39791Y215603D01*
X39284Y214943D01*
X36716D01*
X36209Y215603D01*
X35269Y216324D01*
X34175Y216778D01*
X33000Y216933D01*
X31825Y216778D01*
X30731Y216324D01*
X29791Y215603D01*
X29069Y214663D01*
X28616Y213568D01*
X28461Y212394D01*
X28616Y211219D01*
X29069Y210124D01*
X29791Y209184D01*
X30731Y208463D01*
X31825Y208010D01*
X33000Y207855D01*
X34175Y208010D01*
X35269Y208463D01*
X35971Y209001D01*
X36471Y208754D01*
Y206033D01*
X35971Y205786D01*
X35269Y206324D01*
X34175Y206778D01*
X33000Y206932D01*
X31825Y206778D01*
X30731Y206324D01*
X29791Y205603D01*
X29069Y204663D01*
X28616Y203568D01*
X28461Y202394D01*
X28616Y201219D01*
X29069Y200124D01*
X29791Y199184D01*
X30731Y198463D01*
X31825Y198010D01*
X33000Y197855D01*
X34175Y198010D01*
X35269Y198463D01*
X35971Y199001D01*
X36471Y198754D01*
Y193155D01*
X36235Y193057D01*
X35504Y192496D01*
X34943Y191765D01*
X34590Y190914D01*
X34481Y190086D01*
X15698Y171302D01*
X15145Y170475D01*
X14951Y169500D01*
Y113500D01*
Y94500D01*
Y73556D01*
X3198Y61802D01*
X2645Y60975D01*
X2451Y60000D01*
Y35000D01*
X2645Y34025D01*
X3198Y33198D01*
X8198Y28198D01*
X9025Y27645D01*
X10000Y27451D01*
X9983Y26958D01*
X9651Y26878D01*
X7715Y26076D01*
X5927Y24981D01*
X4333Y23619D01*
X2972Y22025D01*
X2029Y20487D01*
X1529Y20628D01*
Y147638D01*
Y200644D01*
X2029Y200785D01*
X2977Y199238D01*
X4338Y197645D01*
X5931Y196284D01*
X7718Y195190D01*
X9653Y194388D01*
X11691Y193899D01*
X13780Y193734D01*
X15868Y193899D01*
X17906Y194388D01*
X19841Y195190D01*
X21628Y196284D01*
X23221Y197645D01*
X24582Y199238D01*
X25676Y201025D01*
X26478Y202961D01*
X26967Y204998D01*
X27132Y207087D01*
X26967Y209175D01*
X26478Y211213D01*
X25676Y213148D01*
X24582Y214935D01*
X23221Y216528D01*
X21628Y217889D01*
X20693Y218462D01*
X20828Y218943D01*
X177132D01*
X177362Y218989D01*
X178552Y219145D01*
X179874Y219693D01*
X180274Y220000D01*
X181000D01*
Y220557D01*
X181010Y220565D01*
X181882Y221700D01*
X182430Y223023D01*
X182586Y224213D01*
X182632Y224442D01*
Y261297D01*
X182665Y261463D01*
X182665D01*
X182644Y261489D01*
X182824Y262394D01*
X183352Y263184D01*
X184141Y263712D01*
X185047Y263892D01*
X185072Y263871D01*
Y263871D01*
X185238Y263904D01*
X244100D01*
X244198Y263923D01*
X246111Y263735D01*
D02*
G37*
G36*
X233198Y88434D02*
X234025Y87881D01*
X235000Y87687D01*
X236284D01*
X236791Y87027D01*
X237731Y86305D01*
X238825Y85852D01*
X240000Y85697D01*
X241175Y85852D01*
X242269Y86305D01*
X243209Y87027D01*
X243931Y87967D01*
X244384Y89061D01*
X244451Y89569D01*
X244951Y89536D01*
Y80936D01*
X244451Y80903D01*
X244384Y81411D01*
X243931Y82506D01*
X243209Y83446D01*
X242269Y84167D01*
X241175Y84620D01*
X240000Y84775D01*
X238825Y84620D01*
X237731Y84167D01*
X236791Y83446D01*
X236069Y82506D01*
X235616Y81411D01*
X235461Y80236D01*
X235570Y79411D01*
X219198Y63039D01*
X218645Y62212D01*
X218451Y61236D01*
Y-23927D01*
X217951Y-24096D01*
X217496Y-23504D01*
X216765Y-22943D01*
X215914Y-22590D01*
X215000Y-22470D01*
X214086Y-22590D01*
X213321Y-22907D01*
X215707Y-25293D01*
X215000Y-26000D01*
X215707Y-26707D01*
X213321Y-29093D01*
X214086Y-29410D01*
X215000Y-29530D01*
X215914Y-29410D01*
X216765Y-29057D01*
X217496Y-28496D01*
X217951Y-27904D01*
X218451Y-28073D01*
Y-31827D01*
X218645Y-32802D01*
X219198Y-33629D01*
X223198Y-37629D01*
X224025Y-38182D01*
X225000Y-38376D01*
X229099D01*
X229307Y-38646D01*
X230133Y-39279D01*
X231094Y-39678D01*
X232126Y-39814D01*
X233158Y-39678D01*
X234119Y-39279D01*
X234945Y-38646D01*
X235579Y-37820D01*
X235977Y-36859D01*
X236113Y-35827D01*
X235977Y-34795D01*
X235579Y-33833D01*
X234945Y-33008D01*
X234119Y-32374D01*
X233158Y-31976D01*
X232126Y-31840D01*
X231094Y-31976D01*
X230133Y-32374D01*
X229307Y-33008D01*
X229099Y-33278D01*
X226056D01*
X223549Y-30771D01*
Y2193D01*
X224011Y2384D01*
X233198Y-6802D01*
X234025Y-7355D01*
X235000Y-7549D01*
X243944D01*
X247451Y-11056D01*
Y-26897D01*
X242474Y-31874D01*
X238173D01*
Y-39780D01*
X246079D01*
Y-35479D01*
X251802Y-29755D01*
X252355Y-28928D01*
X252549Y-27953D01*
Y-10000D01*
X252355Y-9025D01*
X251802Y-8198D01*
X246802Y-3198D01*
X245975Y-2645D01*
X245000Y-2451D01*
X236056D01*
X227549Y6056D01*
Y24205D01*
X231542Y28198D01*
X232094Y29024D01*
X232288Y30000D01*
Y58920D01*
X235283Y61915D01*
X235707Y61632D01*
X235616Y61411D01*
X235461Y60236D01*
X235616Y59061D01*
X236069Y57967D01*
X236791Y57027D01*
X237731Y56305D01*
X238825Y55852D01*
X240000Y55697D01*
X241175Y55852D01*
X241395Y55943D01*
X241679Y55519D01*
X240825Y54666D01*
X240000Y54775D01*
X238825Y54620D01*
X237731Y54167D01*
X236791Y53446D01*
X236069Y52506D01*
X235616Y51411D01*
X235461Y50236D01*
X235616Y49062D01*
X236069Y47967D01*
X236791Y47027D01*
X237731Y46306D01*
X238825Y45852D01*
X240000Y45697D01*
X241175Y45852D01*
X242269Y46306D01*
X243209Y47027D01*
X243931Y47967D01*
X244384Y49062D01*
X244539Y50236D01*
X244430Y51062D01*
X253914Y60546D01*
X254376Y60354D01*
Y20628D01*
X253876Y20487D01*
X252933Y22025D01*
X251572Y23619D01*
X249978Y24981D01*
X248191Y26076D01*
X246254Y26878D01*
X244216Y27367D01*
X242126Y27532D01*
X240036Y27367D01*
X237998Y26878D01*
X236061Y26076D01*
X234274Y24981D01*
X232680Y23619D01*
X231318Y22025D01*
X230223Y20238D01*
X229421Y18301D01*
X228932Y16263D01*
X228767Y14173D01*
X228932Y12083D01*
X229421Y10045D01*
X230223Y8108D01*
X231318Y6321D01*
X232680Y4727D01*
X234274Y3366D01*
X236061Y2270D01*
X237998Y1468D01*
X240036Y979D01*
X242126Y814D01*
X244216Y979D01*
X246254Y1468D01*
X248191Y2270D01*
X249978Y3366D01*
X251572Y4727D01*
X252933Y6321D01*
X253876Y7859D01*
X254376Y7718D01*
Y-33150D01*
X254396Y-33247D01*
X254207Y-35161D01*
X253620Y-37095D01*
X252667Y-38878D01*
X251385Y-40440D01*
X249823Y-41723D01*
X248040Y-42675D01*
X246106Y-43262D01*
X244192Y-43451D01*
X244094Y-43431D01*
X185039D01*
X184974Y-43444D01*
X184108Y-43272D01*
X183318Y-42745D01*
X182791Y-41955D01*
X182619Y-41089D01*
X182632Y-41024D01*
Y74803D01*
X182649D01*
X182462Y76222D01*
X181915Y77545D01*
X181043Y78681D01*
X179907Y79552D01*
X178585Y80100D01*
X177165Y80287D01*
X175746Y80100D01*
X174423Y79552D01*
X173288Y78681D01*
X172416Y77545D01*
X171868Y76222D01*
X171681Y74803D01*
X171699D01*
Y3937D01*
X171712Y3871D01*
X171540Y3006D01*
X171012Y2216D01*
X170223Y1688D01*
X169357Y1516D01*
X169291Y1529D01*
X123605D01*
X123435Y2029D01*
X124021Y2479D01*
X124812Y3510D01*
X125310Y4711D01*
X125480Y6000D01*
X125310Y7289D01*
X124812Y8490D01*
X124021Y9521D01*
X122990Y10312D01*
X121789Y10810D01*
X120500Y10980D01*
X119211Y10810D01*
X118010Y10312D01*
X116979Y9521D01*
X116188Y8490D01*
X115690Y7289D01*
X115520Y6000D01*
X115690Y4711D01*
X116188Y3510D01*
X116979Y2479D01*
X117565Y2029D01*
X117395Y1529D01*
X71605D01*
X71435Y2029D01*
X72021Y2479D01*
X72812Y3510D01*
X73310Y4711D01*
X73480Y6000D01*
X73310Y7289D01*
X72812Y8490D01*
X72021Y9521D01*
X70990Y10312D01*
X69789Y10810D01*
X68500Y10980D01*
X67211Y10810D01*
X66010Y10312D01*
X64979Y9521D01*
X64188Y8490D01*
X63690Y7289D01*
X63520Y6000D01*
X63690Y4711D01*
X64188Y3510D01*
X64979Y2479D01*
X65565Y2029D01*
X65395Y1529D01*
X19337D01*
X19239Y2020D01*
X19844Y2270D01*
X21632Y3366D01*
X23226Y4727D01*
X24587Y6321D01*
X25682Y8108D01*
X26485Y10045D01*
X26974Y12083D01*
X27138Y14173D01*
X26974Y16263D01*
X26485Y18301D01*
X25682Y20238D01*
X24587Y22025D01*
X23226Y23619D01*
X21632Y24981D01*
X19844Y26076D01*
X17908Y26878D01*
X17604Y26951D01*
X17663Y27451D01*
X24444D01*
X31198Y20698D01*
X32024Y20145D01*
X33000Y19951D01*
X35669D01*
X35769Y19451D01*
X35358Y19281D01*
X34573Y18679D01*
X33971Y17894D01*
X33593Y16981D01*
X33464Y16000D01*
X33593Y15020D01*
X33971Y14106D01*
X34573Y13321D01*
X35358Y12719D01*
X36272Y12341D01*
X37252Y12212D01*
X38232Y12341D01*
X39146Y12719D01*
X39931Y13321D01*
X40533Y14106D01*
X40911Y15020D01*
X41040Y16000D01*
X40911Y16981D01*
X40533Y17894D01*
X39931Y18679D01*
X39146Y19281D01*
X38735Y19451D01*
X38835Y19951D01*
X51417D01*
X51517Y19451D01*
X51106Y19281D01*
X50321Y18679D01*
X49719Y17894D01*
X49341Y16981D01*
X49212Y16000D01*
X49341Y15020D01*
X49719Y14106D01*
X50321Y13321D01*
X51106Y12719D01*
X52020Y12341D01*
X53000Y12212D01*
X53980Y12341D01*
X54894Y12719D01*
X55679Y13321D01*
X56281Y14106D01*
X56471Y14564D01*
X56971Y14465D01*
Y8485D01*
X56698Y8302D01*
X56145Y7475D01*
X55951Y6500D01*
X56145Y5525D01*
X56698Y4698D01*
X57525Y4145D01*
X58500Y3951D01*
X59475Y4145D01*
X60302Y4698D01*
X60855Y5525D01*
X61049Y6500D01*
X60855Y7475D01*
X60302Y8302D01*
X60029Y8485D01*
Y19951D01*
X160000D01*
X160976Y20145D01*
X161802Y20698D01*
X169302Y28198D01*
X169855Y29024D01*
X170049Y30000D01*
Y45000D01*
X169855Y45976D01*
X169302Y46802D01*
X164302Y51802D01*
X163476Y52355D01*
X162500Y52549D01*
X157549D01*
Y59945D01*
X157355Y60920D01*
X156802Y61747D01*
X149549Y69001D01*
Y81444D01*
X170556Y102451D01*
X171974D01*
X172181Y102181D01*
X173007Y101547D01*
X173968Y101149D01*
X175000Y101013D01*
X175338Y101058D01*
X180698Y95698D01*
X181525Y95145D01*
X182500Y94951D01*
X183047D01*
Y90319D01*
X183047Y90181D01*
Y89819D01*
X183047Y89681D01*
Y83721D01*
X186096Y86770D01*
X187000Y85866D01*
X187904Y86770D01*
X190953Y83721D01*
Y89681D01*
X190953Y89819D01*
Y90181D01*
X190953Y90319D01*
Y94951D01*
X192500D01*
X193475Y95145D01*
X194302Y95698D01*
X206056Y107451D01*
X214180D01*
X233198Y88434D01*
D02*
G37*
G36*
X15791Y217199D02*
X17725Y216612D01*
X19508Y215660D01*
X21070Y214377D01*
X22353Y212815D01*
X23305Y211032D01*
X23892Y209098D01*
X24090Y207087D01*
X23892Y205075D01*
X23305Y203141D01*
X22353Y201358D01*
X21070Y199796D01*
X19508Y198514D01*
X17725Y197561D01*
X15791Y196974D01*
X13780Y196776D01*
X11768Y196974D01*
X9834Y197561D01*
X8051Y198514D01*
X6489Y199796D01*
X5206Y201358D01*
X4254Y203141D01*
X3667Y205075D01*
X3469Y207087D01*
X3667Y209098D01*
X4254Y211032D01*
X5206Y212815D01*
X6489Y214377D01*
X8051Y215660D01*
X9834Y216612D01*
X11768Y217199D01*
X13780Y217397D01*
X15791Y217199D01*
D02*
G37*
G36*
X15792Y24292D02*
X17728Y23705D01*
X19512Y22752D01*
X21075Y21469D01*
X22358Y19905D01*
X23311Y18122D01*
X23899Y16186D01*
X24097Y14173D01*
X23899Y12160D01*
X23311Y10225D01*
X22358Y8441D01*
X21075Y6878D01*
X19512Y5595D01*
X17728Y4641D01*
X15792Y4054D01*
X13780Y3856D01*
X11767Y4054D01*
X9831Y4641D01*
X8048Y5595D01*
X6484Y6878D01*
X5201Y8441D01*
X4248Y10225D01*
X3661Y12160D01*
X3462Y14173D01*
X3661Y16186D01*
X4248Y18122D01*
X5201Y19905D01*
X6484Y21469D01*
X8048Y22752D01*
X9831Y23705D01*
X11767Y24292D01*
X13780Y24490D01*
X15792Y24292D01*
D02*
G37*
G36*
X95181Y183030D02*
X95145Y182975D01*
X94951Y182000D01*
X95145Y181025D01*
X95698Y180198D01*
X96525Y179645D01*
X97500Y179451D01*
X98475Y179645D01*
X99302Y180198D01*
X99819Y180971D01*
X101654D01*
X101846Y180509D01*
X101322Y179985D01*
X101000Y180049D01*
X100024Y179855D01*
X99198Y179302D01*
X98645Y178475D01*
X98451Y177500D01*
X98645Y176524D01*
X99198Y175698D01*
X100024Y175145D01*
X101000Y174951D01*
X101976Y175145D01*
X102802Y175698D01*
X103355Y176524D01*
X103549Y177500D01*
X103485Y177822D01*
X104495Y178832D01*
X104763Y178803D01*
X104849Y178730D01*
X105112Y178309D01*
X104951Y177500D01*
X105145Y176524D01*
X105698Y175698D01*
X106525Y175145D01*
X107500Y174951D01*
X108475Y175145D01*
X109302Y175698D01*
X109485Y175971D01*
X121209D01*
X121476Y175471D01*
X121145Y174976D01*
X120951Y174000D01*
X121145Y173024D01*
X121698Y172198D01*
X122524Y171645D01*
X123500Y171451D01*
X124476Y171645D01*
X125302Y172198D01*
X125855Y173024D01*
X125944Y173471D01*
X127506D01*
X127697Y173009D01*
X127344Y172656D01*
X127119Y172430D01*
X123600Y168912D01*
X127216D01*
Y166912D01*
X123600D01*
X127747Y162766D01*
X127912Y162600D01*
X128266Y162247D01*
X132412Y158100D01*
Y161716D01*
X134412D01*
Y158100D01*
X137930Y161619D01*
X138156Y161844D01*
X138381Y162070D01*
X142900Y166588D01*
X140325Y169162D01*
X141081Y169919D01*
X141413Y170415D01*
X141529Y171000D01*
Y173000D01*
X141413Y173585D01*
X141081Y174081D01*
X140985Y174178D01*
X141049Y174500D01*
X140855Y175476D01*
X140819Y175530D01*
X141054Y175971D01*
X142867D01*
X148419Y170419D01*
X148915Y170087D01*
X149500Y169971D01*
X151515D01*
X151698Y169698D01*
X152524Y169145D01*
X153182Y169014D01*
X153500Y168951D01*
X153545Y168471D01*
X153451Y168000D01*
X153645Y167025D01*
X154198Y166198D01*
X154471Y166015D01*
Y145133D01*
X129226Y119889D01*
X128582Y119952D01*
X128348Y120302D01*
X127521Y120855D01*
X126546Y121049D01*
X126224Y120985D01*
X120348Y126861D01*
X121900Y128412D01*
X120673Y129639D01*
X126581Y135547D01*
X126913Y136043D01*
X127029Y136628D01*
Y142015D01*
X127302Y142198D01*
X127855Y143025D01*
X128049Y144000D01*
X127855Y144975D01*
X127302Y145802D01*
X126476Y146355D01*
X125973Y146455D01*
X125809Y146997D01*
X126400Y147588D01*
X121088Y152900D01*
X116570Y148381D01*
X116344Y148156D01*
X116119Y147930D01*
X112601Y144412D01*
X116216D01*
Y142716D01*
X117912D01*
Y139101D01*
X121430Y142619D01*
X121656Y142844D01*
X122503Y143691D01*
X123045Y143526D01*
X123145Y143025D01*
X123698Y142198D01*
X123971Y142015D01*
Y137262D01*
X118510Y131801D01*
X117156Y133156D01*
X116930Y133381D01*
X113412Y136899D01*
Y133284D01*
X111716D01*
Y131588D01*
X108100D01*
X111619Y128070D01*
X111844Y127844D01*
X112070Y127619D01*
X116588Y123100D01*
X118185Y124698D01*
X124061Y118822D01*
X123997Y118500D01*
X124191Y117525D01*
X124743Y116698D01*
X125016Y116515D01*
Y100453D01*
X124319D01*
X124181Y100453D01*
X123819D01*
X123681Y100453D01*
X117721D01*
X120770Y97404D01*
X119866Y96500D01*
X120770Y95596D01*
X117721Y92547D01*
X123681D01*
X123819Y92547D01*
X124181D01*
X124319Y92547D01*
X126408D01*
Y91063D01*
X126524Y90478D01*
X126856Y89982D01*
X130252Y86585D01*
Y85415D01*
X125365Y80528D01*
X124905Y80775D01*
X125049Y81500D01*
X124855Y82476D01*
X124302Y83302D01*
X123476Y83855D01*
X122500Y84049D01*
X121525Y83855D01*
X120698Y83302D01*
X120145Y82476D01*
X119951Y81500D01*
X120015Y81178D01*
X116867Y78029D01*
X70634D01*
X66616Y82047D01*
Y89079D01*
X68055D01*
Y93441D01*
X62529D01*
Y94867D01*
X64222Y96559D01*
X68055D01*
Y100921D01*
X66616D01*
Y115935D01*
X86830Y136149D01*
X88196Y134784D01*
X95735Y142322D01*
X94369Y143688D01*
X97685Y147004D01*
X99619Y145070D01*
X99844Y144844D01*
X100070Y144619D01*
X103588Y141101D01*
Y144716D01*
X105284D01*
Y146412D01*
X108899D01*
X105381Y149930D01*
X105156Y150156D01*
X104930Y150381D01*
X100412Y154900D01*
X98588Y153075D01*
X92712Y158951D01*
X92776Y159273D01*
X92582Y160248D01*
X92030Y161075D01*
X91618Y161351D01*
Y161952D01*
X91848Y162106D01*
X92002Y162337D01*
X92604D01*
X92879Y161925D01*
X93706Y161372D01*
X94681Y161178D01*
X95657Y161372D01*
X96484Y161925D01*
X97036Y162752D01*
X97230Y163727D01*
X97036Y164703D01*
X96484Y165530D01*
X96072Y165805D01*
Y166406D01*
X96302Y166560D01*
X96855Y167387D01*
X97049Y168363D01*
X96855Y169338D01*
X96302Y170165D01*
X95476Y170718D01*
X94500Y170912D01*
X93524Y170718D01*
X93106Y170438D01*
X87580D01*
X86995Y170321D01*
X86499Y169990D01*
X82898Y166389D01*
X82384Y166531D01*
X82362Y166560D01*
X82549Y167500D01*
X82355Y168475D01*
X81802Y169302D01*
X81529Y169485D01*
Y183471D01*
X94946D01*
X95181Y183030D01*
D02*
G37*
G36*
X235707Y71631D02*
X235616Y71411D01*
X235461Y70236D01*
X235570Y69411D01*
X227937Y61778D01*
X227384Y60951D01*
X227190Y59976D01*
Y31056D01*
X224011Y27876D01*
X223549Y28068D01*
Y60180D01*
X235283Y71915D01*
X235707Y71631D01*
D02*
G37*
G36*
X244139Y24292D02*
X246074Y23705D01*
X247858Y22752D01*
X249421Y21469D01*
X250705Y19905D01*
X251658Y18122D01*
X252245Y16186D01*
X252443Y14173D01*
X252245Y12160D01*
X251658Y10225D01*
X250705Y8441D01*
X249421Y6878D01*
X247858Y5595D01*
X246074Y4641D01*
X244139Y4054D01*
X242126Y3856D01*
X240113Y4054D01*
X238178Y4641D01*
X236394Y5595D01*
X234831Y6878D01*
X233547Y8441D01*
X232594Y10225D01*
X232007Y12160D01*
X231809Y14173D01*
X232007Y16186D01*
X232594Y18122D01*
X233547Y19905D01*
X234831Y21469D01*
X236394Y22752D01*
X238178Y23705D01*
X240113Y24292D01*
X242126Y24490D01*
X244139Y24292D01*
D02*
G37*
%LPC*%
G36*
X154223Y40309D02*
X153914Y40000D01*
X154223Y39691D01*
X154284Y40000D01*
X154223Y40309D01*
D02*
G37*
G36*
X159223D02*
X158914Y40000D01*
X159223Y39691D01*
X159284Y40000D01*
X159223Y40309D01*
D02*
G37*
G36*
X145277Y40309D02*
X145216Y40000D01*
X145277Y39691D01*
X145586Y40000D01*
X145277Y40309D01*
D02*
G37*
G36*
X150777D02*
X150716Y40000D01*
X150777Y39691D01*
X151086Y40000D01*
X150777Y40309D01*
D02*
G37*
G36*
X136723Y40309D02*
X136414Y40000D01*
X136723Y39691D01*
X136784Y40000D01*
X136723Y40309D01*
D02*
G37*
G36*
X155777Y40309D02*
X155716Y40000D01*
X155777Y39691D01*
X156086Y40000D01*
X155777Y40309D01*
D02*
G37*
G36*
X141723Y40309D02*
X141414Y40000D01*
X141723Y39691D01*
X141784Y40000D01*
X141723Y40309D01*
D02*
G37*
G36*
X148723D02*
X148414Y40000D01*
X148723Y39691D01*
X148784Y40000D01*
X148723Y40309D01*
D02*
G37*
G36*
X157500Y38586D02*
X157191Y38277D01*
X157500Y38216D01*
X157809Y38277D01*
X157500Y38586D01*
D02*
G37*
G36*
X152500D02*
X152191Y38277D01*
X152500Y38216D01*
X152809Y38277D01*
X152500Y38586D01*
D02*
G37*
G36*
X76000Y48480D02*
X74711Y48310D01*
X73510Y47813D01*
X72479Y47021D01*
X71688Y45990D01*
X71190Y44789D01*
X71020Y43500D01*
X71190Y42211D01*
X71688Y41010D01*
X72479Y39979D01*
X73510Y39187D01*
X74711Y38690D01*
X76000Y38520D01*
X77289Y38690D01*
X78490Y39187D01*
X79521Y39979D01*
X80313Y41010D01*
X80810Y42211D01*
X80980Y43500D01*
X80810Y44789D01*
X80313Y45990D01*
X79521Y47021D01*
X78490Y47813D01*
X77289Y48310D01*
X76000Y48480D01*
D02*
G37*
G36*
X113000D02*
X111711Y48310D01*
X110510Y47813D01*
X109479Y47021D01*
X108687Y45990D01*
X108190Y44789D01*
X108020Y43500D01*
X108190Y42211D01*
X108687Y41010D01*
X109479Y39979D01*
X110510Y39187D01*
X111711Y38690D01*
X113000Y38520D01*
X114289Y38690D01*
X115490Y39187D01*
X116521Y39979D01*
X117313Y41010D01*
X117810Y42211D01*
X117980Y43500D01*
X117810Y44789D01*
X117313Y45990D01*
X116521Y47021D01*
X115490Y47813D01*
X114289Y48310D01*
X113000Y48480D01*
D02*
G37*
G36*
X94500D02*
X93211Y48310D01*
X92010Y47813D01*
X90979Y47021D01*
X90188Y45990D01*
X89690Y44789D01*
X89520Y43500D01*
X89690Y42211D01*
X90188Y41010D01*
X90979Y39979D01*
X92010Y39187D01*
X93211Y38690D01*
X94500Y38520D01*
X95789Y38690D01*
X96990Y39187D01*
X98021Y39979D01*
X98813Y41010D01*
X99310Y42211D01*
X99480Y43500D01*
X99310Y44789D01*
X98813Y45990D01*
X98021Y47021D01*
X96990Y47813D01*
X95789Y48310D01*
X94500Y48480D01*
D02*
G37*
G36*
X46723Y37809D02*
X46414Y37500D01*
X46723Y37191D01*
X46784Y37500D01*
X46723Y37809D01*
D02*
G37*
G36*
X41723D02*
X41414Y37500D01*
X41723Y37191D01*
X41784Y37500D01*
X41723Y37809D01*
D02*
G37*
G36*
X135000Y38586D02*
X134691Y38277D01*
X135000Y38216D01*
X135309Y38277D01*
X135000Y38586D01*
D02*
G37*
G36*
X147000D02*
X146691Y38277D01*
X147000Y38216D01*
X147309Y38277D01*
X147000Y38586D01*
D02*
G37*
G36*
X140000D02*
X139691Y38277D01*
X140000Y38216D01*
X140309Y38277D01*
X140000Y38586D01*
D02*
G37*
G36*
X40000Y39284D02*
X39691Y39223D01*
X40000Y38914D01*
X40309Y39223D01*
X40000Y39284D01*
D02*
G37*
G36*
X35000D02*
X34691Y39223D01*
X35000Y38914D01*
X35309Y39223D01*
X35000Y39284D01*
D02*
G37*
G36*
X45000D02*
X44691Y39223D01*
X45000Y38914D01*
X45309Y39223D01*
X45000Y39284D01*
D02*
G37*
G36*
X138277Y40309D02*
X138216Y40000D01*
X138277Y39691D01*
X138586Y40000D01*
X138277Y40309D01*
D02*
G37*
G36*
X133277D02*
X133216Y40000D01*
X133277Y39691D01*
X133586Y40000D01*
X133277Y40309D01*
D02*
G37*
G36*
X15000Y39284D02*
X14691Y39223D01*
X15000Y38914D01*
X15309Y39223D01*
X15000Y39284D01*
D02*
G37*
G36*
X10000D02*
X9691Y39223D01*
X10000Y38914D01*
X10309Y39223D01*
X10000Y39284D01*
D02*
G37*
G36*
X20000D02*
X19691Y39223D01*
X20000Y38914D01*
X20309Y39223D01*
X20000Y39284D01*
D02*
G37*
G36*
X30000D02*
X29691Y39223D01*
X30000Y38914D01*
X30309Y39223D01*
X30000Y39284D01*
D02*
G37*
G36*
X25000D02*
X24691Y39223D01*
X25000Y38914D01*
X25309Y39223D01*
X25000Y39284D01*
D02*
G37*
G36*
X45000Y44284D02*
X44691Y44223D01*
X45000Y43914D01*
X45309Y44223D01*
X45000Y44284D01*
D02*
G37*
G36*
X25000D02*
X24691Y44223D01*
X25000Y43914D01*
X25309Y44223D01*
X25000Y44284D01*
D02*
G37*
G36*
X20000D02*
X19691Y44223D01*
X20000Y43914D01*
X20309Y44223D01*
X20000Y44284D01*
D02*
G37*
G36*
X133277Y45309D02*
X133216Y45000D01*
X133277Y44691D01*
X133586Y45000D01*
X133277Y45309D01*
D02*
G37*
G36*
X57512Y50231D02*
Y43973D01*
X60641Y47102D01*
X57512Y50231D01*
D02*
G37*
G36*
X68173Y50231D02*
X65044Y47102D01*
X68173Y43973D01*
Y50231D01*
D02*
G37*
G36*
X152500Y43586D02*
X152191Y43277D01*
X152500Y43216D01*
X152809Y43277D01*
X152500Y43586D01*
D02*
G37*
G36*
X147000D02*
X146691Y43277D01*
X147000Y43216D01*
X147309Y43277D01*
X147000Y43586D01*
D02*
G37*
G36*
X140000D02*
X139691Y43277D01*
X140000Y43216D01*
X140309Y43277D01*
X140000Y43586D01*
D02*
G37*
G36*
X15000Y44284D02*
X14691Y44223D01*
X15000Y43914D01*
X15309Y44223D01*
X15000Y44284D01*
D02*
G37*
G36*
X10000D02*
X9691Y44223D01*
X10000Y43914D01*
X10309Y44223D01*
X10000Y44284D01*
D02*
G37*
G36*
X157500Y43586D02*
X157191Y43277D01*
X157500Y43216D01*
X157809Y43277D01*
X157500Y43586D01*
D02*
G37*
G36*
X159223Y45309D02*
X158914Y45000D01*
X159223Y44691D01*
X159284Y45000D01*
X159223Y45309D01*
D02*
G37*
G36*
X154223D02*
X153914Y45000D01*
X154223Y44691D01*
X154284Y45000D01*
X154223Y45309D01*
D02*
G37*
G36*
X148723D02*
X148414Y45000D01*
X148723Y44691D01*
X148784Y45000D01*
X148723Y45309D01*
D02*
G37*
G36*
X15000Y46086D02*
X14691Y45777D01*
X15000Y45716D01*
X15309Y45777D01*
X15000Y46086D01*
D02*
G37*
G36*
X10000D02*
X9691Y45777D01*
X10000Y45716D01*
X10309Y45777D01*
X10000Y46086D01*
D02*
G37*
G36*
X150777Y45309D02*
X150716Y45000D01*
X150777Y44691D01*
X151086Y45000D01*
X150777Y45309D01*
D02*
G37*
G36*
X145277D02*
X145216Y45000D01*
X145277Y44691D01*
X145586Y45000D01*
X145277Y45309D01*
D02*
G37*
G36*
X138277D02*
X138216Y45000D01*
X138277Y44691D01*
X138586Y45000D01*
X138277Y45309D01*
D02*
G37*
G36*
X141723Y45309D02*
X141414Y45000D01*
X141723Y44691D01*
X141784Y45000D01*
X141723Y45309D01*
D02*
G37*
G36*
X136723D02*
X136414Y45000D01*
X136723Y44691D01*
X136784Y45000D01*
X136723Y45309D01*
D02*
G37*
G36*
X155777Y45309D02*
X155716Y45000D01*
X155777Y44691D01*
X156086Y45000D01*
X155777Y45309D01*
D02*
G37*
G36*
X147000Y41784D02*
X146691Y41723D01*
X147000Y41414D01*
X147309Y41723D01*
X147000Y41784D01*
D02*
G37*
G36*
X140000D02*
X139691Y41723D01*
X140000Y41414D01*
X140309Y41723D01*
X140000Y41784D01*
D02*
G37*
G36*
X135000D02*
X134691Y41723D01*
X135000Y41414D01*
X135309Y41723D01*
X135000Y41784D01*
D02*
G37*
G36*
X8277Y42809D02*
X8216Y42500D01*
X8277Y42191D01*
X8586Y42500D01*
X8277Y42809D01*
D02*
G37*
G36*
X157500Y41784D02*
X157191Y41723D01*
X157500Y41414D01*
X157809Y41723D01*
X157500Y41784D01*
D02*
G37*
G36*
X152500D02*
X152191Y41723D01*
X152500Y41414D01*
X152809Y41723D01*
X152500Y41784D01*
D02*
G37*
G36*
X20000Y41086D02*
X19691Y40777D01*
X20000Y40716D01*
X20309Y40777D01*
X20000Y41086D01*
D02*
G37*
G36*
X15000D02*
X14691Y40777D01*
X15000Y40716D01*
X15309Y40777D01*
X15000Y41086D01*
D02*
G37*
G36*
X10000D02*
X9691Y40777D01*
X10000Y40716D01*
X10309Y40777D01*
X10000Y41086D01*
D02*
G37*
G36*
X45000D02*
X44691Y40777D01*
X45000Y40716D01*
X45309Y40777D01*
X45000Y41086D01*
D02*
G37*
G36*
X40000D02*
X39691Y40777D01*
X40000Y40716D01*
X40309Y40777D01*
X40000Y41086D01*
D02*
G37*
G36*
X25000D02*
X24691Y40777D01*
X25000Y40716D01*
X25309Y40777D01*
X25000Y41086D01*
D02*
G37*
G36*
X41723Y42809D02*
X41414Y42500D01*
X41723Y42191D01*
X41784Y42500D01*
X41723Y42809D01*
D02*
G37*
G36*
X26723D02*
X26414Y42500D01*
X26723Y42191D01*
X26784Y42500D01*
X26723Y42809D01*
D02*
G37*
G36*
X21723D02*
X21414Y42500D01*
X21723Y42191D01*
X21784Y42500D01*
X21723Y42809D01*
D02*
G37*
G36*
X135000Y43586D02*
X134691Y43277D01*
X135000Y43216D01*
X135309Y43277D01*
X135000Y43586D01*
D02*
G37*
G36*
X66759Y51646D02*
X58926D01*
X62762Y47809D01*
X62055Y47102D01*
X62762Y46395D01*
X58926Y42559D01*
X66759D01*
X62923Y46395D01*
X63630Y47102D01*
X62923Y47809D01*
X66759Y51646D01*
D02*
G37*
G36*
X46723Y42809D02*
X46414Y42500D01*
X46723Y42191D01*
X46784Y42500D01*
X46723Y42809D01*
D02*
G37*
G36*
X23277Y42809D02*
X23216Y42500D01*
X23277Y42191D01*
X23586Y42500D01*
X23277Y42809D01*
D02*
G37*
G36*
X18277D02*
X18216Y42500D01*
X18277Y42191D01*
X18586Y42500D01*
X18277Y42809D01*
D02*
G37*
G36*
X13277D02*
X13216Y42500D01*
X13277Y42191D01*
X13586Y42500D01*
X13277Y42809D01*
D02*
G37*
G36*
X16723Y42809D02*
X16414Y42500D01*
X16723Y42191D01*
X16784Y42500D01*
X16723Y42809D01*
D02*
G37*
G36*
X11723D02*
X11414Y42500D01*
X11723Y42191D01*
X11784Y42500D01*
X11723Y42809D01*
D02*
G37*
G36*
X43277Y42809D02*
X43216Y42500D01*
X43277Y42191D01*
X43586Y42500D01*
X43277Y42809D01*
D02*
G37*
G36*
X36723Y37809D02*
X36414Y37500D01*
X36723Y37191D01*
X36784Y37500D01*
X36723Y37809D01*
D02*
G37*
G36*
X66759Y40228D02*
X58926D01*
X62762Y36392D01*
X62055Y35685D01*
X62762Y34978D01*
X58926Y31142D01*
X66759D01*
X62923Y34978D01*
X63630Y35685D01*
X62923Y36392D01*
X66759Y40228D01*
D02*
G37*
G36*
X159223Y30309D02*
X158914Y30000D01*
X159223Y29691D01*
X159284Y30000D01*
X159223Y30309D01*
D02*
G37*
G36*
X140000Y31784D02*
X139691Y31723D01*
X140000Y31414D01*
X140309Y31723D01*
X140000Y31784D01*
D02*
G37*
G36*
X135000D02*
X134691Y31723D01*
X135000Y31414D01*
X135309Y31723D01*
X135000Y31784D01*
D02*
G37*
G36*
X148723Y30309D02*
X148414Y30000D01*
X148723Y29691D01*
X148784Y30000D01*
X148723Y30309D01*
D02*
G37*
G36*
X136723D02*
X136414Y30000D01*
X136723Y29691D01*
X136784Y30000D01*
X136723Y30309D01*
D02*
G37*
G36*
X155777Y30309D02*
X155716Y30000D01*
X155777Y29691D01*
X156086Y30000D01*
X155777Y30309D01*
D02*
G37*
G36*
X141723Y30309D02*
X141414Y30000D01*
X141723Y29691D01*
X141784Y30000D01*
X141723Y30309D01*
D02*
G37*
G36*
X154223D02*
X153914Y30000D01*
X154223Y29691D01*
X154284Y30000D01*
X154223Y30309D01*
D02*
G37*
G36*
X147000Y31784D02*
X146691Y31723D01*
X147000Y31414D01*
X147309Y31723D01*
X147000Y31784D01*
D02*
G37*
G36*
Y33586D02*
X146691Y33277D01*
X147000Y33216D01*
X147309Y33277D01*
X147000Y33586D01*
D02*
G37*
G36*
X140000D02*
X139691Y33277D01*
X140000Y33216D01*
X140309Y33277D01*
X140000Y33586D01*
D02*
G37*
G36*
X157500D02*
X157191Y33277D01*
X157500Y33216D01*
X157809Y33277D01*
X157500Y33586D01*
D02*
G37*
G36*
X152500D02*
X152191Y33277D01*
X152500Y33216D01*
X152809Y33277D01*
X152500Y33586D01*
D02*
G37*
G36*
X135000D02*
X134691Y33277D01*
X135000Y33216D01*
X135309Y33277D01*
X135000Y33586D01*
D02*
G37*
G36*
X157500Y31784D02*
X157191Y31723D01*
X157500Y31414D01*
X157809Y31723D01*
X157500Y31784D01*
D02*
G37*
G36*
X152500D02*
X152191Y31723D01*
X152500Y31414D01*
X152809Y31723D01*
X152500Y31784D01*
D02*
G37*
G36*
X57512Y38814D02*
Y32556D01*
X60641Y35685D01*
X57512Y38814D01*
D02*
G37*
G36*
X68173Y38814D02*
X65044Y35685D01*
X68173Y32556D01*
Y38814D01*
D02*
G37*
G36*
X138277Y30309D02*
X138216Y30000D01*
X138277Y29691D01*
X138586Y30000D01*
X138277Y30309D01*
D02*
G37*
G36*
X133277D02*
X133216Y30000D01*
X133277Y29691D01*
X133586Y30000D01*
X133277Y30309D01*
D02*
G37*
G36*
X150777D02*
X150716Y30000D01*
X150777Y29691D01*
X151086Y30000D01*
X150777Y30309D01*
D02*
G37*
G36*
X145277D02*
X145216Y30000D01*
X145277Y29691D01*
X145586Y30000D01*
X145277Y30309D01*
D02*
G37*
G36*
X157500Y28586D02*
X157191Y28277D01*
X157500Y28216D01*
X157809Y28277D01*
X157500Y28586D01*
D02*
G37*
G36*
X140000D02*
X139691Y28277D01*
X140000Y28216D01*
X140309Y28277D01*
X140000Y28586D01*
D02*
G37*
G36*
X135000D02*
X134691Y28277D01*
X135000Y28216D01*
X135309Y28277D01*
X135000Y28586D01*
D02*
G37*
G36*
X152500D02*
X152191Y28277D01*
X152500Y28216D01*
X152809Y28277D01*
X152500Y28586D01*
D02*
G37*
G36*
X147000D02*
X146691Y28277D01*
X147000Y28216D01*
X147309Y28277D01*
X147000Y28586D01*
D02*
G37*
G36*
X8277Y37809D02*
X8216Y37500D01*
X8277Y37191D01*
X8586Y37500D01*
X8277Y37809D01*
D02*
G37*
G36*
X157500Y36784D02*
X157191Y36723D01*
X157500Y36414D01*
X157809Y36723D01*
X157500Y36784D01*
D02*
G37*
G36*
X18277Y37809D02*
X18216Y37500D01*
X18277Y37191D01*
X18586Y37500D01*
X18277Y37809D01*
D02*
G37*
G36*
X13277D02*
X13216Y37500D01*
X13277Y37191D01*
X13586Y37500D01*
X13277Y37809D01*
D02*
G37*
G36*
X152500Y36784D02*
X152191Y36723D01*
X152500Y36414D01*
X152809Y36723D01*
X152500Y36784D01*
D02*
G37*
G36*
X135000D02*
X134691Y36723D01*
X135000Y36414D01*
X135309Y36723D01*
X135000Y36784D01*
D02*
G37*
G36*
X45000Y36086D02*
X44691Y35777D01*
X45000Y35716D01*
X45309Y35777D01*
X45000Y36086D01*
D02*
G37*
G36*
X147000Y36784D02*
X146691Y36723D01*
X147000Y36414D01*
X147309Y36723D01*
X147000Y36784D01*
D02*
G37*
G36*
X140000D02*
X139691Y36723D01*
X140000Y36414D01*
X140309Y36723D01*
X140000Y36784D01*
D02*
G37*
G36*
X23277Y37809D02*
X23216Y37500D01*
X23277Y37191D01*
X23586Y37500D01*
X23277Y37809D01*
D02*
G37*
G36*
X21723Y37809D02*
X21414Y37500D01*
X21723Y37191D01*
X21784Y37500D01*
X21723Y37809D01*
D02*
G37*
G36*
X16723D02*
X16414Y37500D01*
X16723Y37191D01*
X16784Y37500D01*
X16723Y37809D01*
D02*
G37*
G36*
X31723D02*
X31414Y37500D01*
X31723Y37191D01*
X31784Y37500D01*
X31723Y37809D01*
D02*
G37*
G36*
X26723D02*
X26414Y37500D01*
X26723Y37191D01*
X26784Y37500D01*
X26723Y37809D01*
D02*
G37*
G36*
X11723D02*
X11414Y37500D01*
X11723Y37191D01*
X11784Y37500D01*
X11723Y37809D01*
D02*
G37*
G36*
X33277Y37809D02*
X33216Y37500D01*
X33277Y37191D01*
X33586Y37500D01*
X33277Y37809D01*
D02*
G37*
G36*
X28277D02*
X28216Y37500D01*
X28277Y37191D01*
X28586Y37500D01*
X28277Y37809D01*
D02*
G37*
G36*
X43277D02*
X43216Y37500D01*
X43277Y37191D01*
X43586Y37500D01*
X43277Y37809D01*
D02*
G37*
G36*
X38277D02*
X38216Y37500D01*
X38277Y37191D01*
X38586Y37500D01*
X38277Y37809D01*
D02*
G37*
G36*
X154223Y35309D02*
X153914Y35000D01*
X154223Y34691D01*
X154284Y35000D01*
X154223Y35309D01*
D02*
G37*
G36*
X136723D02*
X136414Y35000D01*
X136723Y34691D01*
X136784Y35000D01*
X136723Y35309D01*
D02*
G37*
G36*
X148723D02*
X148414Y35000D01*
X148723Y34691D01*
X148784Y35000D01*
X148723Y35309D01*
D02*
G37*
G36*
X141723D02*
X141414Y35000D01*
X141723Y34691D01*
X141784Y35000D01*
X141723Y35309D01*
D02*
G37*
G36*
X155777Y35309D02*
X155716Y35000D01*
X155777Y34691D01*
X156086Y35000D01*
X155777Y35309D01*
D02*
G37*
G36*
X138277D02*
X138216Y35000D01*
X138277Y34691D01*
X138586Y35000D01*
X138277Y35309D01*
D02*
G37*
G36*
X133277D02*
X133216Y35000D01*
X133277Y34691D01*
X133586Y35000D01*
X133277Y35309D01*
D02*
G37*
G36*
X150777D02*
X150716Y35000D01*
X150777Y34691D01*
X151086Y35000D01*
X150777Y35309D01*
D02*
G37*
G36*
X145277D02*
X145216Y35000D01*
X145277Y34691D01*
X145586Y35000D01*
X145277Y35309D01*
D02*
G37*
G36*
X159223Y35309D02*
X158914Y35000D01*
X159223Y34691D01*
X159284Y35000D01*
X159223Y35309D01*
D02*
G37*
G36*
X30000Y36086D02*
X29691Y35777D01*
X30000Y35716D01*
X30309Y35777D01*
X30000Y36086D01*
D02*
G37*
G36*
X25000D02*
X24691Y35777D01*
X25000Y35716D01*
X25309Y35777D01*
X25000Y36086D01*
D02*
G37*
G36*
X40000D02*
X39691Y35777D01*
X40000Y35716D01*
X40309Y35777D01*
X40000Y36086D01*
D02*
G37*
G36*
X35000D02*
X34691Y35777D01*
X35000Y35716D01*
X35309Y35777D01*
X35000Y36086D01*
D02*
G37*
G36*
X20000D02*
X19691Y35777D01*
X20000Y35716D01*
X20309Y35777D01*
X20000Y36086D01*
D02*
G37*
G36*
X15000D02*
X14691Y35777D01*
X15000Y35716D01*
X15309Y35777D01*
X15000Y36086D01*
D02*
G37*
G36*
X10000D02*
X9691Y35777D01*
X10000Y35716D01*
X10309Y35777D01*
X10000Y36086D01*
D02*
G37*
G36*
X47370Y93250D02*
X46016Y93117D01*
X44715Y92722D01*
X43515Y92080D01*
X43240Y91855D01*
X47370Y87725D01*
X51500Y91855D01*
X51225Y92080D01*
X50025Y92722D01*
X48724Y93117D01*
X47370Y93250D01*
D02*
G37*
G36*
X45000Y49284D02*
X44691Y49223D01*
X45000Y48914D01*
X45309Y49223D01*
X45000Y49284D01*
D02*
G37*
G36*
X25000D02*
X24691Y49223D01*
X25000Y48914D01*
X25309Y49223D01*
X25000Y49284D01*
D02*
G37*
G36*
X138277Y50309D02*
X138216Y50000D01*
X138277Y49691D01*
X138586Y50000D01*
X138277Y50309D01*
D02*
G37*
G36*
X133277D02*
X133216Y50000D01*
X133277Y49691D01*
X133586Y50000D01*
X133277Y50309D01*
D02*
G37*
G36*
X20000Y49284D02*
X19691Y49223D01*
X20000Y48914D01*
X20309Y49223D01*
X20000Y49284D01*
D02*
G37*
G36*
X147000Y48586D02*
X146691Y48277D01*
X147000Y48216D01*
X147309Y48277D01*
X147000Y48586D01*
D02*
G37*
G36*
X140000D02*
X139691Y48277D01*
X140000Y48216D01*
X140309Y48277D01*
X140000Y48586D01*
D02*
G37*
G36*
X15000Y49284D02*
X14691Y49223D01*
X15000Y48914D01*
X15309Y49223D01*
X15000Y49284D01*
D02*
G37*
G36*
X10000D02*
X9691Y49223D01*
X10000Y48914D01*
X10309Y49223D01*
X10000Y49284D01*
D02*
G37*
G36*
X145277Y50309D02*
X145216Y50000D01*
X145277Y49691D01*
X145586Y50000D01*
X145277Y50309D01*
D02*
G37*
G36*
X25000Y51086D02*
X24691Y50777D01*
X25000Y50716D01*
X25309Y50777D01*
X25000Y51086D01*
D02*
G37*
G36*
X20000D02*
X19691Y50777D01*
X20000Y50716D01*
X20309Y50777D01*
X20000Y51086D01*
D02*
G37*
G36*
X140000Y51784D02*
X139691Y51723D01*
X140000Y51414D01*
X140309Y51723D01*
X140000Y51784D01*
D02*
G37*
G36*
X135000D02*
X134691Y51723D01*
X135000Y51414D01*
X135309Y51723D01*
X135000Y51784D01*
D02*
G37*
G36*
X15000Y51086D02*
X14691Y50777D01*
X15000Y50716D01*
X15309Y50777D01*
X15000Y51086D01*
D02*
G37*
G36*
X141723Y50309D02*
X141414Y50000D01*
X141723Y49691D01*
X141784Y50000D01*
X141723Y50309D01*
D02*
G37*
G36*
X136723D02*
X136414Y50000D01*
X136723Y49691D01*
X136784Y50000D01*
X136723Y50309D01*
D02*
G37*
G36*
X10000Y51086D02*
X9691Y50777D01*
X10000Y50716D01*
X10309Y50777D01*
X10000Y51086D01*
D02*
G37*
G36*
X148723Y50309D02*
X148414Y50000D01*
X148723Y49691D01*
X148784Y50000D01*
X148723Y50309D01*
D02*
G37*
G36*
X135000Y48586D02*
X134691Y48277D01*
X135000Y48216D01*
X135309Y48277D01*
X135000Y48586D01*
D02*
G37*
G36*
X152500Y46784D02*
X152191Y46723D01*
X152500Y46414D01*
X152809Y46723D01*
X152500Y46784D01*
D02*
G37*
G36*
X147000D02*
X146691Y46723D01*
X147000Y46414D01*
X147309Y46723D01*
X147000Y46784D01*
D02*
G37*
G36*
X8277Y47809D02*
X8216Y47500D01*
X8277Y47191D01*
X8586Y47500D01*
X8277Y47809D01*
D02*
G37*
G36*
X157500Y46784D02*
X157191Y46723D01*
X157500Y46414D01*
X157809Y46723D01*
X157500Y46784D01*
D02*
G37*
G36*
X140000D02*
X139691Y46723D01*
X140000Y46414D01*
X140309Y46723D01*
X140000Y46784D01*
D02*
G37*
G36*
X25000Y46086D02*
X24691Y45777D01*
X25000Y45716D01*
X25309Y45777D01*
X25000Y46086D01*
D02*
G37*
G36*
X20000D02*
X19691Y45777D01*
X20000Y45716D01*
X20309Y45777D01*
X20000Y46086D01*
D02*
G37*
G36*
X135000Y46784D02*
X134691Y46723D01*
X135000Y46414D01*
X135309Y46723D01*
X135000Y46784D01*
D02*
G37*
G36*
X45000Y46086D02*
X44691Y45777D01*
X45000Y45716D01*
X45309Y45777D01*
X45000Y46086D01*
D02*
G37*
G36*
X13277Y47809D02*
X13216Y47500D01*
X13277Y47191D01*
X13586Y47500D01*
X13277Y47809D01*
D02*
G37*
G36*
X41723Y47809D02*
X41414Y47500D01*
X41723Y47191D01*
X41784Y47500D01*
X41723Y47809D01*
D02*
G37*
G36*
X21723D02*
X21414Y47500D01*
X21723Y47191D01*
X21784Y47500D01*
X21723Y47809D01*
D02*
G37*
G36*
X46723D02*
X46414Y47500D01*
X46723Y47191D01*
X46784Y47500D01*
X46723Y47809D01*
D02*
G37*
G36*
X26723D02*
X26414Y47500D01*
X26723Y47191D01*
X26784Y47500D01*
X26723Y47809D01*
D02*
G37*
G36*
X16723D02*
X16414Y47500D01*
X16723Y47191D01*
X16784Y47500D01*
X16723Y47809D01*
D02*
G37*
G36*
X23277Y47809D02*
X23216Y47500D01*
X23277Y47191D01*
X23586Y47500D01*
X23277Y47809D01*
D02*
G37*
G36*
X18277D02*
X18216Y47500D01*
X18277Y47191D01*
X18586Y47500D01*
X18277Y47809D01*
D02*
G37*
G36*
X11723Y47809D02*
X11414Y47500D01*
X11723Y47191D01*
X11784Y47500D01*
X11723Y47809D01*
D02*
G37*
G36*
X43277Y47809D02*
X43216Y47500D01*
X43277Y47191D01*
X43586Y47500D01*
X43277Y47809D01*
D02*
G37*
G36*
X139302Y79969D02*
X131666D01*
X133928Y77707D01*
X133221Y77000D01*
X133928Y76293D01*
X131666Y74032D01*
X139302D01*
X137041Y76293D01*
X137748Y77000D01*
X137041Y77707D01*
X139302Y79969D01*
D02*
G37*
G36*
X130252Y78554D02*
Y75446D01*
X131806Y77000D01*
X130252Y78554D01*
D02*
G37*
G36*
X140717Y78554D02*
X139162Y77000D01*
X140717Y75446D01*
Y78554D01*
D02*
G37*
G36*
X47370Y84897D02*
X43240Y80767D01*
X43515Y80541D01*
X44715Y79900D01*
X46016Y79505D01*
X47370Y79372D01*
X48724Y79505D01*
X50025Y79900D01*
X51225Y80541D01*
X51500Y80767D01*
X47370Y84897D01*
D02*
G37*
G36*
X52914Y90441D02*
X48784Y86311D01*
X52914Y82181D01*
X53140Y82456D01*
X53781Y83656D01*
X54176Y84957D01*
X54309Y86311D01*
X54176Y87665D01*
X53781Y88966D01*
X53140Y90166D01*
X52914Y90441D01*
D02*
G37*
G36*
X41826D02*
X41601Y90166D01*
X40959Y88966D01*
X40565Y87665D01*
X40431Y86311D01*
X40565Y84957D01*
X40959Y83656D01*
X41601Y82456D01*
X41826Y82181D01*
X45956Y86311D01*
X41826Y90441D01*
D02*
G37*
G36*
X16723Y52809D02*
X16414Y52500D01*
X16723Y52191D01*
X16784Y52500D01*
X16723Y52809D01*
D02*
G37*
G36*
X11723D02*
X11414Y52500D01*
X11723Y52191D01*
X11784Y52500D01*
X11723Y52809D01*
D02*
G37*
G36*
X26723D02*
X26414Y52500D01*
X26723Y52191D01*
X26784Y52500D01*
X26723Y52809D01*
D02*
G37*
G36*
X21723D02*
X21414Y52500D01*
X21723Y52191D01*
X21784Y52500D01*
X21723Y52809D01*
D02*
G37*
G36*
X23277Y52809D02*
X23216Y52500D01*
X23277Y52191D01*
X23586Y52500D01*
X23277Y52809D01*
D02*
G37*
G36*
X8277D02*
X8216Y52500D01*
X8277Y52191D01*
X8586Y52500D01*
X8277Y52809D01*
D02*
G37*
G36*
X147000Y51784D02*
X146691Y51723D01*
X147000Y51414D01*
X147309Y51723D01*
X147000Y51784D01*
D02*
G37*
G36*
X18277Y52809D02*
X18216Y52500D01*
X18277Y52191D01*
X18586Y52500D01*
X18277Y52809D01*
D02*
G37*
G36*
X13277D02*
X13216Y52500D01*
X13277Y52191D01*
X13586Y52500D01*
X13277Y52809D01*
D02*
G37*
G36*
X10000Y54284D02*
X9691Y54223D01*
X10000Y53914D01*
X10309Y54223D01*
X10000Y54284D01*
D02*
G37*
G36*
X55681Y67756D02*
X55319D01*
X55181Y67756D01*
X48791D01*
Y64029D01*
X45861D01*
X45683Y64148D01*
X45000Y64284D01*
X44317Y64148D01*
X43738Y63762D01*
X43352Y63183D01*
X43216Y62500D01*
X43352Y61817D01*
X43738Y61238D01*
X44317Y60852D01*
X45000Y60716D01*
X45683Y60852D01*
X45861Y60971D01*
X48791D01*
Y60244D01*
X55181D01*
X55319Y60244D01*
X55681D01*
X55819Y60244D01*
X60794D01*
X58238Y62801D01*
X59437Y64000D01*
X58238Y65199D01*
X60794Y67756D01*
X55819D01*
X55681Y67756D01*
D02*
G37*
G36*
X42500Y69784D02*
X41817Y69648D01*
X41639Y69529D01*
X40657D01*
Y69764D01*
X33342D01*
Y63374D01*
X33342Y63236D01*
Y62874D01*
X33342Y62736D01*
Y57761D01*
X35899Y60317D01*
X37313Y58903D01*
X34757Y56346D01*
X39088D01*
X39280Y55884D01*
X35041Y51646D01*
X27591D01*
Y42559D01*
X37806D01*
X38167Y42559D01*
X38216Y42500D01*
X38277Y42191D01*
X39293Y43207D01*
X40309Y44223D01*
X40000Y44284D01*
X39317Y44148D01*
X38752Y43771D01*
X38667Y43787D01*
X38252Y43934D01*
Y46066D01*
X38667Y46213D01*
X38752Y46229D01*
X39317Y45851D01*
X40000Y45716D01*
X40309Y45777D01*
X39293Y46793D01*
X40000Y47500D01*
X39293Y48207D01*
X40445Y49359D01*
X40333Y49728D01*
X44556Y53951D01*
X62572D01*
X63235Y53443D01*
X64086Y53090D01*
X65000Y52970D01*
X65914Y53090D01*
X66765Y53443D01*
X67496Y54004D01*
X68057Y54735D01*
X68410Y55586D01*
X68530Y56500D01*
X68410Y57414D01*
X68057Y58265D01*
X67496Y58996D01*
X66765Y59557D01*
X65914Y59910D01*
X65000Y60030D01*
X64086Y59910D01*
X63235Y59557D01*
X62572Y59049D01*
X43500D01*
X42524Y58855D01*
X41698Y58302D01*
X41119Y57724D01*
X40657Y57916D01*
Y62736D01*
X40657Y62874D01*
Y63236D01*
X40657Y63374D01*
Y66471D01*
X41639D01*
X41817Y66351D01*
X42500Y66216D01*
X43183Y66351D01*
X43762Y66738D01*
X44148Y67317D01*
X44284Y68000D01*
X44148Y68683D01*
X43762Y69262D01*
X43183Y69648D01*
X42500Y69784D01*
D02*
G37*
G36*
X62209Y66342D02*
X59867Y64000D01*
X62209Y61658D01*
Y66342D01*
D02*
G37*
G36*
X20000Y54284D02*
X19691Y54223D01*
X20000Y53914D01*
X20309Y54223D01*
X20000Y54284D01*
D02*
G37*
G36*
X15000D02*
X14691Y54223D01*
X15000Y53914D01*
X15309Y54223D01*
X15000Y54284D01*
D02*
G37*
G36*
X25000D02*
X24691Y54223D01*
X25000Y53914D01*
X25309Y54223D01*
X25000Y54284D01*
D02*
G37*
G36*
X223000Y174539D02*
X221825Y174384D01*
X220731Y173931D01*
X219791Y173209D01*
X219069Y172269D01*
X218616Y171175D01*
X218461Y170000D01*
X218616Y168825D01*
X219069Y167731D01*
X219791Y166791D01*
X220731Y166069D01*
X221825Y165616D01*
X223000Y165461D01*
X224175Y165616D01*
X225269Y166069D01*
X226209Y166791D01*
X226931Y167731D01*
X227384Y168825D01*
X227539Y170000D01*
X227384Y171175D01*
X226931Y172269D01*
X226209Y173209D01*
X225269Y173931D01*
X224175Y174384D01*
X223000Y174539D01*
D02*
G37*
G36*
X133000Y206932D02*
X131825Y206778D01*
X130731Y206324D01*
X129791Y205603D01*
X129069Y204663D01*
X128616Y203568D01*
X128461Y202394D01*
X128616Y201219D01*
X129069Y200124D01*
X129791Y199184D01*
X130731Y198463D01*
X131825Y198010D01*
X133000Y197855D01*
X134175Y198010D01*
X135269Y198463D01*
X136209Y199184D01*
X136931Y200124D01*
X137384Y201219D01*
X137539Y202394D01*
X137384Y203568D01*
X136931Y204663D01*
X136209Y205603D01*
X135269Y206324D01*
X134175Y206778D01*
X133000Y206932D01*
D02*
G37*
G36*
X93000D02*
X91825Y206778D01*
X90731Y206324D01*
X89791Y205603D01*
X89069Y204663D01*
X88616Y203568D01*
X88461Y202394D01*
X88616Y201219D01*
X89069Y200124D01*
X89791Y199184D01*
X90731Y198463D01*
X91825Y198010D01*
X93000Y197855D01*
X94175Y198010D01*
X95269Y198463D01*
X96209Y199184D01*
X96931Y200124D01*
X97384Y201219D01*
X97539Y202394D01*
X97384Y203568D01*
X96931Y204663D01*
X96209Y205603D01*
X95269Y206324D01*
X94175Y206778D01*
X93000Y206932D01*
D02*
G37*
G36*
X163000D02*
X161825Y206778D01*
X160731Y206324D01*
X159791Y205603D01*
X159069Y204663D01*
X158616Y203568D01*
X158461Y202394D01*
X158616Y201219D01*
X159069Y200124D01*
X159791Y199184D01*
X160731Y198463D01*
X161825Y198010D01*
X163000Y197855D01*
X164175Y198010D01*
X165269Y198463D01*
X166209Y199184D01*
X166931Y200124D01*
X167384Y201219D01*
X167539Y202394D01*
X167384Y203568D01*
X166931Y204663D01*
X166209Y205603D01*
X165269Y206324D01*
X164175Y206778D01*
X163000Y206932D01*
D02*
G37*
G36*
X143000D02*
X141825Y206778D01*
X140731Y206324D01*
X139791Y205603D01*
X139069Y204663D01*
X138616Y203568D01*
X138461Y202394D01*
X138616Y201219D01*
X139069Y200124D01*
X139791Y199184D01*
X140731Y198463D01*
X141825Y198010D01*
X143000Y197855D01*
X144175Y198010D01*
X145269Y198463D01*
X146209Y199184D01*
X146931Y200124D01*
X147384Y201219D01*
X147539Y202394D01*
X147384Y203568D01*
X146931Y204663D01*
X146209Y205603D01*
X145269Y206324D01*
X144175Y206778D01*
X143000Y206932D01*
D02*
G37*
G36*
X83000D02*
X81825Y206778D01*
X80731Y206324D01*
X79791Y205603D01*
X79069Y204663D01*
X78616Y203568D01*
X78461Y202394D01*
X78616Y201219D01*
X79069Y200124D01*
X79791Y199184D01*
X80731Y198463D01*
X81825Y198010D01*
X83000Y197855D01*
X84175Y198010D01*
X85269Y198463D01*
X86209Y199184D01*
X86931Y200124D01*
X87384Y201219D01*
X87539Y202394D01*
X87384Y203568D01*
X86931Y204663D01*
X86209Y205603D01*
X85269Y206324D01*
X84175Y206778D01*
X83000Y206932D01*
D02*
G37*
G36*
X236824Y182409D02*
X234414Y180000D01*
X236824Y177591D01*
X236931Y177731D01*
X237384Y178825D01*
X237539Y180000D01*
X237384Y181175D01*
X236931Y182269D01*
X236824Y182409D01*
D02*
G37*
G36*
X173000Y206932D02*
X171825Y206778D01*
X170731Y206324D01*
X169791Y205603D01*
X169069Y204663D01*
X168616Y203568D01*
X168461Y202394D01*
X168616Y201219D01*
X169069Y200124D01*
X169791Y199184D01*
X170731Y198463D01*
X171825Y198010D01*
X173000Y197855D01*
X174175Y198010D01*
X175269Y198463D01*
X176209Y199184D01*
X176931Y200124D01*
X177384Y201219D01*
X177539Y202394D01*
X177384Y203568D01*
X176931Y204663D01*
X176209Y205603D01*
X175269Y206324D01*
X174175Y206778D01*
X173000Y206932D01*
D02*
G37*
G36*
X157500Y205480D02*
X154414Y202394D01*
X157500Y199308D01*
Y205480D01*
D02*
G37*
G36*
X77500D02*
X74414Y202394D01*
X77500Y199308D01*
Y205480D01*
D02*
G37*
G36*
X218500Y205480D02*
Y199308D01*
X221586Y202394D01*
X218500Y205480D01*
D02*
G37*
G36*
X148500D02*
Y199308D01*
X151586Y202394D01*
X148500Y205480D01*
D02*
G37*
G36*
X153000Y200979D02*
X149914Y197894D01*
X156086D01*
X153000Y200979D01*
D02*
G37*
G36*
X193000Y206932D02*
X191825Y206778D01*
X190731Y206324D01*
X189791Y205603D01*
X189069Y204663D01*
X188616Y203568D01*
X188461Y202394D01*
X188616Y201219D01*
X189069Y200124D01*
X189791Y199184D01*
X190731Y198463D01*
X191825Y198010D01*
X193000Y197855D01*
X194175Y198010D01*
X195269Y198463D01*
X196209Y199184D01*
X196931Y200124D01*
X197384Y201219D01*
X197539Y202394D01*
X197384Y203568D01*
X196931Y204663D01*
X196209Y205603D01*
X195269Y206324D01*
X194175Y206778D01*
X193000Y206932D01*
D02*
G37*
G36*
X183000D02*
X181825Y206778D01*
X180731Y206324D01*
X179791Y205603D01*
X179069Y204663D01*
X178616Y203568D01*
X178461Y202394D01*
X178616Y201219D01*
X179069Y200124D01*
X179791Y199184D01*
X180731Y198463D01*
X181825Y198010D01*
X183000Y197855D01*
X184175Y198010D01*
X185269Y198463D01*
X186209Y199184D01*
X186931Y200124D01*
X187384Y201219D01*
X187539Y202394D01*
X187384Y203568D01*
X186931Y204663D01*
X186209Y205603D01*
X185269Y206324D01*
X184175Y206778D01*
X183000Y206932D01*
D02*
G37*
G36*
X213000D02*
X211825Y206778D01*
X210731Y206324D01*
X209791Y205603D01*
X209069Y204663D01*
X208616Y203568D01*
X208461Y202394D01*
X208616Y201219D01*
X209069Y200124D01*
X209791Y199184D01*
X210731Y198463D01*
X211825Y198010D01*
X213000Y197855D01*
X214175Y198010D01*
X215269Y198463D01*
X216209Y199184D01*
X216931Y200124D01*
X217384Y201219D01*
X217539Y202394D01*
X217384Y203568D01*
X216931Y204663D01*
X216209Y205603D01*
X215269Y206324D01*
X214175Y206778D01*
X213000Y206932D01*
D02*
G37*
G36*
X203000D02*
X201825Y206778D01*
X200731Y206324D01*
X199791Y205603D01*
X199069Y204663D01*
X198616Y203568D01*
X198461Y202394D01*
X198616Y201219D01*
X199069Y200124D01*
X199791Y199184D01*
X200731Y198463D01*
X201825Y198010D01*
X203000Y197855D01*
X204175Y198010D01*
X205269Y198463D01*
X206209Y199184D01*
X206931Y200124D01*
X207384Y201219D01*
X207539Y202394D01*
X207384Y203568D01*
X206931Y204663D01*
X206209Y205603D01*
X205269Y206324D01*
X204175Y206778D01*
X203000Y206932D01*
D02*
G37*
G36*
X235500Y103322D02*
Y97150D01*
X238586Y100236D01*
X235500Y103322D01*
D02*
G37*
G36*
X8000Y122787D02*
X6711Y122617D01*
X5510Y122120D01*
X4479Y121328D01*
X3687Y120297D01*
X3190Y119096D01*
X3020Y117807D01*
X3190Y116518D01*
X3687Y115317D01*
X4479Y114286D01*
X5510Y113495D01*
X6711Y112997D01*
X8000Y112828D01*
X9289Y112997D01*
X10490Y113495D01*
X11521Y114286D01*
X12313Y115317D01*
X12810Y116518D01*
X12980Y117807D01*
X12810Y119096D01*
X12313Y120297D01*
X11521Y121328D01*
X10490Y122120D01*
X9289Y122617D01*
X8000Y122787D01*
D02*
G37*
G36*
X238500Y115633D02*
X236158Y113291D01*
X240842D01*
X238500Y115633D01*
D02*
G37*
G36*
X56086Y216894D02*
X49914D01*
X53000Y213808D01*
X56086Y216894D01*
D02*
G37*
G36*
X168500Y215479D02*
Y209308D01*
X171586Y212394D01*
X168500Y215479D01*
D02*
G37*
G36*
X126086Y216894D02*
X119914D01*
X123000Y213808D01*
X126086Y216894D01*
D02*
G37*
G36*
X96086D02*
X89914D01*
X93000Y213808D01*
X96086Y216894D01*
D02*
G37*
G36*
X188500Y215479D02*
Y209308D01*
X191586Y212394D01*
X188500Y215479D01*
D02*
G37*
G36*
X197500Y215479D02*
X194414Y212394D01*
X197500Y209308D01*
Y215479D01*
D02*
G37*
G36*
X97500D02*
X94414Y212394D01*
X97500Y209308D01*
Y215479D01*
D02*
G37*
G36*
X88500Y215479D02*
Y209308D01*
X91586Y212394D01*
X88500Y215479D01*
D02*
G37*
G36*
X48500D02*
Y209308D01*
X51586Y212394D01*
X48500Y215479D01*
D02*
G37*
G36*
X176086Y216894D02*
X169914D01*
X173000Y213808D01*
X176086Y216894D01*
D02*
G37*
G36*
X235559Y249106D02*
X233540Y247087D01*
X235559Y245068D01*
X235579Y245093D01*
X235977Y246055D01*
X236113Y247087D01*
X235977Y248118D01*
X235579Y249080D01*
X235559Y249106D01*
D02*
G37*
G36*
X228693Y249106D02*
X228673Y249080D01*
X228275Y248118D01*
X228139Y247087D01*
X228275Y246055D01*
X228673Y245093D01*
X228693Y245068D01*
X230712Y247087D01*
X228693Y249106D01*
D02*
G37*
G36*
X232126Y251074D02*
X231094Y250938D01*
X230133Y250539D01*
X230107Y250520D01*
X232126Y248501D01*
X234145Y250520D01*
X234119Y250539D01*
X233158Y250938D01*
X232126Y251074D01*
D02*
G37*
G36*
X212726Y248033D02*
X212538Y247087D01*
X212726Y246140D01*
X213672Y247087D01*
X212726Y248033D01*
D02*
G37*
G36*
X242126Y251074D02*
X241094Y250938D01*
X240132Y250539D01*
X239307Y249906D01*
X238673Y249080D01*
X238275Y248118D01*
X238139Y247087D01*
X238275Y246055D01*
X238673Y245093D01*
X239307Y244268D01*
X240132Y243634D01*
X241094Y243236D01*
X242126Y243100D01*
X243158Y243236D01*
X244119Y243634D01*
X244945Y244268D01*
X245579Y245093D01*
X245977Y246055D01*
X246113Y247087D01*
X245977Y248118D01*
X245579Y249080D01*
X244945Y249906D01*
X244119Y250539D01*
X243158Y250938D01*
X242126Y251074D01*
D02*
G37*
G36*
X232126Y241073D02*
X231094Y240938D01*
X230133Y240539D01*
X229307Y239906D01*
X228673Y239080D01*
X228275Y238119D01*
X228139Y237087D01*
X228275Y236055D01*
X228673Y235093D01*
X229307Y234267D01*
X230133Y233634D01*
X231094Y233236D01*
X232126Y233100D01*
X233158Y233236D01*
X234119Y233634D01*
X234945Y234267D01*
X235579Y235093D01*
X235977Y236055D01*
X236113Y237087D01*
X235977Y238119D01*
X235579Y239080D01*
X234945Y239906D01*
X234119Y240539D01*
X233158Y240938D01*
X232126Y241073D01*
D02*
G37*
G36*
X196086Y216894D02*
X189914D01*
X193000Y213808D01*
X196086Y216894D01*
D02*
G37*
G36*
X232126Y245672D02*
X230107Y243653D01*
X230133Y243634D01*
X231094Y243236D01*
X232126Y243100D01*
X233158Y243236D01*
X234119Y243634D01*
X234145Y243653D01*
X232126Y245672D01*
D02*
G37*
G36*
X242126Y241073D02*
X241094Y240938D01*
X240132Y240539D01*
X239307Y239906D01*
X238673Y239080D01*
X238275Y238119D01*
X238139Y237087D01*
X238275Y236055D01*
X238673Y235093D01*
X239307Y234267D01*
X240132Y233634D01*
X241094Y233236D01*
X242126Y233100D01*
X243158Y233236D01*
X244119Y233634D01*
X244945Y234267D01*
X245579Y235093D01*
X245977Y236055D01*
X246113Y237087D01*
X245977Y238119D01*
X245579Y239080D01*
X244945Y239906D01*
X244119Y240539D01*
X243158Y240938D01*
X242126Y241073D01*
D02*
G37*
G36*
X177500Y215479D02*
X174414Y212394D01*
X177500Y209308D01*
Y215479D01*
D02*
G37*
G36*
X133000Y216933D02*
X131825Y216778D01*
X130731Y216324D01*
X129791Y215603D01*
X129069Y214663D01*
X128616Y213568D01*
X128461Y212394D01*
X128616Y211219D01*
X129069Y210124D01*
X129791Y209184D01*
X130731Y208463D01*
X131825Y208010D01*
X133000Y207855D01*
X134175Y208010D01*
X135269Y208463D01*
X136209Y209184D01*
X136931Y210124D01*
X137384Y211219D01*
X137539Y212394D01*
X137384Y213568D01*
X136931Y214663D01*
X136209Y215603D01*
X135269Y216324D01*
X134175Y216778D01*
X133000Y216933D01*
D02*
G37*
G36*
X103000D02*
X101825Y216778D01*
X100731Y216324D01*
X99791Y215603D01*
X99069Y214663D01*
X98616Y213568D01*
X98461Y212394D01*
X98616Y211219D01*
X99069Y210124D01*
X99791Y209184D01*
X100731Y208463D01*
X101825Y208010D01*
X103000Y207855D01*
X104175Y208010D01*
X105269Y208463D01*
X106209Y209184D01*
X106931Y210124D01*
X107384Y211219D01*
X107539Y212394D01*
X107384Y213568D01*
X106931Y214663D01*
X106209Y215603D01*
X105269Y216324D01*
X104175Y216778D01*
X103000Y216933D01*
D02*
G37*
G36*
X153000D02*
X151825Y216778D01*
X150731Y216324D01*
X149791Y215603D01*
X149069Y214663D01*
X148616Y213568D01*
X148461Y212394D01*
X148616Y211219D01*
X149069Y210124D01*
X149791Y209184D01*
X150731Y208463D01*
X151825Y208010D01*
X153000Y207855D01*
X154175Y208010D01*
X155269Y208463D01*
X156209Y209184D01*
X156931Y210124D01*
X157384Y211219D01*
X157539Y212394D01*
X157384Y213568D01*
X156931Y214663D01*
X156209Y215603D01*
X155269Y216324D01*
X154175Y216778D01*
X153000Y216933D01*
D02*
G37*
G36*
X143000D02*
X141825Y216778D01*
X140731Y216324D01*
X139791Y215603D01*
X139069Y214663D01*
X138616Y213568D01*
X138461Y212394D01*
X138616Y211219D01*
X139069Y210124D01*
X139791Y209184D01*
X140731Y208463D01*
X141825Y208010D01*
X143000Y207855D01*
X144175Y208010D01*
X145269Y208463D01*
X146209Y209184D01*
X146931Y210124D01*
X147384Y211219D01*
X147539Y212394D01*
X147384Y213568D01*
X146931Y214663D01*
X146209Y215603D01*
X145269Y216324D01*
X144175Y216778D01*
X143000Y216933D01*
D02*
G37*
G36*
X83000D02*
X81825Y216778D01*
X80731Y216324D01*
X79791Y215603D01*
X79069Y214663D01*
X78616Y213568D01*
X78461Y212394D01*
X78616Y211219D01*
X79069Y210124D01*
X79791Y209184D01*
X80731Y208463D01*
X81825Y208010D01*
X83000Y207855D01*
X84175Y208010D01*
X85269Y208463D01*
X86209Y209184D01*
X86931Y210124D01*
X87384Y211219D01*
X87539Y212394D01*
X87384Y213568D01*
X86931Y214663D01*
X86209Y215603D01*
X85269Y216324D01*
X84175Y216778D01*
X83000Y216933D01*
D02*
G37*
G36*
X242126Y214025D02*
X240772Y213892D01*
X239471Y213497D01*
X238271Y212856D01*
X237219Y211993D01*
X236356Y210942D01*
X235715Y209742D01*
X235320Y208440D01*
X235187Y207087D01*
X235320Y205733D01*
X235715Y204431D01*
X236356Y203232D01*
X237219Y202180D01*
X238271Y201317D01*
X239471Y200676D01*
X240772Y200281D01*
X242126Y200148D01*
X243480Y200281D01*
X244781Y200676D01*
X245981Y201317D01*
X247032Y202180D01*
X247896Y203232D01*
X248537Y204431D01*
X248932Y205733D01*
X249065Y207087D01*
X248932Y208440D01*
X248537Y209742D01*
X247896Y210942D01*
X247032Y211993D01*
X245981Y212856D01*
X244781Y213497D01*
X243480Y213892D01*
X242126Y214025D01*
D02*
G37*
G36*
X73000Y216933D02*
X71825Y216778D01*
X70731Y216324D01*
X69791Y215603D01*
X69069Y214663D01*
X68616Y213568D01*
X68461Y212394D01*
X68616Y211219D01*
X69069Y210124D01*
X69791Y209184D01*
X70731Y208463D01*
X71825Y208010D01*
X73000Y207855D01*
X74175Y208010D01*
X75269Y208463D01*
X76209Y209184D01*
X76931Y210124D01*
X77384Y211219D01*
X77539Y212394D01*
X77384Y213568D01*
X76931Y214663D01*
X76209Y215603D01*
X75269Y216324D01*
X74175Y216778D01*
X73000Y216933D01*
D02*
G37*
G36*
X156086Y206894D02*
X149914D01*
X153000Y203808D01*
X156086Y206894D01*
D02*
G37*
G36*
X163000Y216933D02*
X161825Y216778D01*
X160731Y216324D01*
X159791Y215603D01*
X159069Y214663D01*
X158616Y213568D01*
X158461Y212394D01*
X158616Y211219D01*
X159069Y210124D01*
X159791Y209184D01*
X160731Y208463D01*
X161825Y208010D01*
X163000Y207855D01*
X164175Y208010D01*
X165269Y208463D01*
X166209Y209184D01*
X166931Y210124D01*
X167384Y211219D01*
X167539Y212394D01*
X167384Y213568D01*
X166931Y214663D01*
X166209Y215603D01*
X165269Y216324D01*
X164175Y216778D01*
X163000Y216933D01*
D02*
G37*
G36*
X193000Y210980D02*
X189914Y207894D01*
X196086D01*
X193000Y210980D01*
D02*
G37*
G36*
X173000D02*
X169914Y207894D01*
X176086D01*
X173000Y210980D01*
D02*
G37*
G36*
X127500Y215479D02*
X124414Y212394D01*
X127500Y209308D01*
Y215479D01*
D02*
G37*
G36*
X57500D02*
X54414Y212394D01*
X57500Y209308D01*
Y215479D01*
D02*
G37*
G36*
X93000Y210980D02*
X89914Y207894D01*
X96086D01*
X93000Y210980D01*
D02*
G37*
G36*
X203000Y216933D02*
X201825Y216778D01*
X200731Y216324D01*
X199791Y215603D01*
X199069Y214663D01*
X198616Y213568D01*
X198461Y212394D01*
X198616Y211219D01*
X199069Y210124D01*
X199791Y209184D01*
X200731Y208463D01*
X201825Y208010D01*
X203000Y207855D01*
X204175Y208010D01*
X205269Y208463D01*
X206209Y209184D01*
X206931Y210124D01*
X207384Y211219D01*
X207539Y212394D01*
X207384Y213568D01*
X206931Y214663D01*
X206209Y215603D01*
X205269Y216324D01*
X204175Y216778D01*
X203000Y216933D01*
D02*
G37*
G36*
X183000D02*
X181825Y216778D01*
X180731Y216324D01*
X179791Y215603D01*
X179069Y214663D01*
X178616Y213568D01*
X178461Y212394D01*
X178616Y211219D01*
X179069Y210124D01*
X179791Y209184D01*
X180731Y208463D01*
X181825Y208010D01*
X183000Y207855D01*
X184175Y208010D01*
X185269Y208463D01*
X186209Y209184D01*
X186931Y210124D01*
X187384Y211219D01*
X187539Y212394D01*
X187384Y213568D01*
X186931Y214663D01*
X186209Y215603D01*
X185269Y216324D01*
X184175Y216778D01*
X183000Y216933D01*
D02*
G37*
G36*
X53000Y210980D02*
X49914Y207894D01*
X56086D01*
X53000Y210980D01*
D02*
G37*
G36*
X213000Y216933D02*
X211825Y216778D01*
X210731Y216324D01*
X209791Y215603D01*
X209069Y214663D01*
X208616Y213568D01*
X208461Y212394D01*
X208616Y211219D01*
X209069Y210124D01*
X209791Y209184D01*
X210731Y208463D01*
X211825Y208010D01*
X213000Y207855D01*
X214175Y208010D01*
X215269Y208463D01*
X216209Y209184D01*
X216931Y210124D01*
X217384Y211219D01*
X217539Y212394D01*
X217384Y213568D01*
X216931Y214663D01*
X216209Y215603D01*
X215269Y216324D01*
X214175Y216778D01*
X213000Y216933D01*
D02*
G37*
G36*
X8000Y79480D02*
X6711Y79310D01*
X5510Y78812D01*
X4479Y78021D01*
X3687Y76990D01*
X3190Y75789D01*
X3020Y74500D01*
X3190Y73211D01*
X3687Y72010D01*
X4479Y70979D01*
X5510Y70187D01*
X6711Y69690D01*
X8000Y69520D01*
X9289Y69690D01*
X10490Y70187D01*
X11521Y70979D01*
X12313Y72010D01*
X12810Y73211D01*
X12980Y74500D01*
X12810Y75789D01*
X12313Y76990D01*
X11521Y78021D01*
X10490Y78812D01*
X9289Y79310D01*
X8000Y79480D01*
D02*
G37*
G36*
X210000Y54775D02*
X208825Y54620D01*
X207731Y54167D01*
X206791Y53446D01*
X206069Y52506D01*
X205616Y51411D01*
X205461Y50236D01*
X205616Y49062D01*
X206069Y47967D01*
X206791Y47027D01*
X207731Y46306D01*
X208825Y45852D01*
X210000Y45697D01*
X211175Y45852D01*
X212269Y46306D01*
X213209Y47027D01*
X213931Y47967D01*
X214384Y49062D01*
X214539Y50236D01*
X214384Y51411D01*
X213931Y52506D01*
X213209Y53446D01*
X212269Y54167D01*
X211175Y54620D01*
X210000Y54775D01*
D02*
G37*
G36*
X232126Y-11840D02*
X231094Y-11976D01*
X230133Y-12374D01*
X229307Y-13008D01*
X228673Y-13833D01*
X228275Y-14795D01*
X228139Y-15827D01*
X228275Y-16859D01*
X228673Y-17820D01*
X229307Y-18646D01*
X230133Y-19279D01*
X231094Y-19678D01*
X232126Y-19814D01*
X233158Y-19678D01*
X234119Y-19279D01*
X234945Y-18646D01*
X235579Y-17820D01*
X235977Y-16859D01*
X236113Y-15827D01*
X235977Y-14795D01*
X235579Y-13833D01*
X234945Y-13008D01*
X234119Y-12374D01*
X233158Y-11976D01*
X232126Y-11840D01*
D02*
G37*
G36*
Y-21840D02*
X231094Y-21976D01*
X230133Y-22374D01*
X230107Y-22394D01*
X232126Y-24413D01*
X234145Y-22394D01*
X234119Y-22374D01*
X233158Y-21976D01*
X232126Y-21840D01*
D02*
G37*
G36*
X242126Y-11840D02*
X241094Y-11976D01*
X240132Y-12374D01*
X239307Y-13008D01*
X238673Y-13833D01*
X238275Y-14795D01*
X238139Y-15827D01*
X238275Y-16859D01*
X238673Y-17820D01*
X239307Y-18646D01*
X240132Y-19279D01*
X241094Y-19678D01*
X242126Y-19814D01*
X243158Y-19678D01*
X244119Y-19279D01*
X244945Y-18646D01*
X245579Y-17820D01*
X245977Y-16859D01*
X246113Y-15827D01*
X245977Y-14795D01*
X245579Y-13833D01*
X244945Y-13008D01*
X244119Y-12374D01*
X243158Y-11976D01*
X242126Y-11840D01*
D02*
G37*
G36*
X211907Y-24321D02*
X211590Y-25086D01*
X211470Y-26000D01*
X211590Y-26914D01*
X211907Y-27679D01*
X213586Y-26000D01*
X211907Y-24321D01*
D02*
G37*
G36*
X242126Y-21840D02*
X241094Y-21976D01*
X240132Y-22374D01*
X239307Y-23008D01*
X238673Y-23833D01*
X238275Y-24795D01*
X238139Y-25827D01*
X238275Y-26859D01*
X238673Y-27820D01*
X239307Y-28646D01*
X240132Y-29280D01*
X241094Y-29678D01*
X242126Y-29814D01*
X243158Y-29678D01*
X244119Y-29280D01*
X244945Y-28646D01*
X245579Y-27820D01*
X245977Y-26859D01*
X246113Y-25827D01*
X245977Y-24795D01*
X245579Y-23833D01*
X244945Y-23008D01*
X244119Y-22374D01*
X243158Y-21976D01*
X242126Y-21840D01*
D02*
G37*
G36*
X232126Y-27241D02*
X230107Y-29260D01*
X230133Y-29280D01*
X231094Y-29678D01*
X232126Y-29814D01*
X233158Y-29678D01*
X234119Y-29280D01*
X234145Y-29260D01*
X232126Y-27241D01*
D02*
G37*
G36*
X235559Y-23808D02*
X233540Y-25827D01*
X235559Y-27846D01*
X235579Y-27820D01*
X235977Y-26859D01*
X236113Y-25827D01*
X235977Y-24795D01*
X235579Y-23833D01*
X235559Y-23808D01*
D02*
G37*
G36*
X228693Y-23808D02*
X228673Y-23833D01*
X228275Y-24795D01*
X228139Y-25827D01*
X228275Y-26859D01*
X228673Y-27820D01*
X228693Y-27846D01*
X230712Y-25827D01*
X228693Y-23808D01*
D02*
G37*
G36*
X240000Y44775D02*
X238825Y44620D01*
X237731Y44167D01*
X236791Y43446D01*
X236069Y42506D01*
X235616Y41411D01*
X235461Y40236D01*
X235616Y39061D01*
X236069Y37967D01*
X236791Y37027D01*
X237731Y36305D01*
X238825Y35852D01*
X240000Y35697D01*
X241175Y35852D01*
X242269Y36305D01*
X243209Y37027D01*
X243931Y37967D01*
X244384Y39061D01*
X244539Y40236D01*
X244384Y41411D01*
X243931Y42506D01*
X243209Y43446D01*
X242269Y44167D01*
X241175Y44620D01*
X240000Y44775D01*
D02*
G37*
G36*
X210000D02*
X208825Y44620D01*
X207731Y44167D01*
X206791Y43446D01*
X206069Y42506D01*
X205616Y41411D01*
X205461Y40236D01*
X205616Y39061D01*
X206069Y37967D01*
X206791Y37027D01*
X207731Y36305D01*
X208825Y35852D01*
X210000Y35697D01*
X211175Y35852D01*
X212269Y36305D01*
X213209Y37027D01*
X213931Y37967D01*
X214384Y39061D01*
X214539Y40236D01*
X214384Y41411D01*
X213931Y42506D01*
X213209Y43446D01*
X212269Y44167D01*
X211175Y44620D01*
X210000Y44775D01*
D02*
G37*
G36*
Y98822D02*
X206914Y95736D01*
X213086D01*
X210000Y98822D01*
D02*
G37*
G36*
X205500Y103322D02*
Y97150D01*
X208586Y100236D01*
X205500Y103322D01*
D02*
G37*
G36*
X167500Y84284D02*
X167191Y84223D01*
X167500Y83914D01*
X167809Y84223D01*
X167500Y84284D01*
D02*
G37*
G36*
X187000Y84846D02*
X184461Y82307D01*
X189539D01*
X187000Y84846D01*
D02*
G37*
G36*
X210000Y94775D02*
X208825Y94620D01*
X207731Y94167D01*
X206791Y93446D01*
X206069Y92506D01*
X205616Y91411D01*
X205461Y90236D01*
X205616Y89061D01*
X206069Y87967D01*
X206791Y87027D01*
X207731Y86305D01*
X208825Y85852D01*
X210000Y85697D01*
X211175Y85852D01*
X212269Y86305D01*
X213209Y87027D01*
X213931Y87967D01*
X214384Y89061D01*
X214539Y90236D01*
X214384Y91411D01*
X213931Y92506D01*
X213209Y93446D01*
X212269Y94167D01*
X211175Y94620D01*
X210000Y94775D01*
D02*
G37*
G36*
X172500Y84284D02*
X172191Y84223D01*
X172500Y83914D01*
X172809Y84223D01*
X172500Y84284D01*
D02*
G37*
G36*
X214500Y103322D02*
X211414Y100236D01*
X214500Y97150D01*
Y103322D01*
D02*
G37*
G36*
X213086Y104736D02*
X206914D01*
X210000Y101650D01*
X213086Y104736D01*
D02*
G37*
G36*
X165777Y77809D02*
X165716Y77500D01*
X165777Y77191D01*
X166086Y77500D01*
X165777Y77809D01*
D02*
G37*
G36*
X167500Y76086D02*
X167191Y75777D01*
X167500Y75716D01*
X167809Y75777D01*
X167500Y76086D01*
D02*
G37*
G36*
Y79284D02*
X167191Y79223D01*
X167500Y78914D01*
X167809Y79223D01*
X167500Y79284D01*
D02*
G37*
G36*
X169223Y77809D02*
X168914Y77500D01*
X169223Y77191D01*
X169284Y77500D01*
X169223Y77809D01*
D02*
G37*
G36*
X210000Y84775D02*
X208825Y84620D01*
X207731Y84167D01*
X206791Y83446D01*
X206069Y82506D01*
X205616Y81411D01*
X205461Y80236D01*
X205616Y79062D01*
X206069Y77967D01*
X206791Y77027D01*
X207731Y76306D01*
X208825Y75852D01*
X210000Y75697D01*
X211175Y75852D01*
X212269Y76306D01*
X213209Y77027D01*
X213931Y77967D01*
X214384Y79062D01*
X214539Y80236D01*
X214384Y81411D01*
X213931Y82506D01*
X213209Y83446D01*
X212269Y84167D01*
X211175Y84620D01*
X210000Y84775D01*
D02*
G37*
G36*
X153284Y82983D02*
Y71017D01*
X157809Y75542D01*
X158516Y74835D01*
X159223Y75542D01*
X163748Y71017D01*
Y82983D01*
X159223Y78458D01*
X158516Y79165D01*
X157809Y78458D01*
X153284Y82983D01*
D02*
G37*
G36*
X170777Y82809D02*
X170716Y82500D01*
X170777Y82191D01*
X171086Y82500D01*
X170777Y82809D01*
D02*
G37*
G36*
X165777D02*
X165716Y82500D01*
X165777Y82191D01*
X166086Y82500D01*
X165777Y82809D01*
D02*
G37*
G36*
X174223Y82809D02*
X173914Y82500D01*
X174223Y82191D01*
X174284Y82500D01*
X174223Y82809D01*
D02*
G37*
G36*
X169223D02*
X168914Y82500D01*
X169223Y82191D01*
X169284Y82500D01*
X169223Y82809D01*
D02*
G37*
G36*
X167500Y81086D02*
X167191Y80777D01*
X167500Y80716D01*
X167809Y80777D01*
X167500Y81086D01*
D02*
G37*
G36*
X162334Y84398D02*
X154698D01*
X158516Y80580D01*
X162334Y84398D01*
D02*
G37*
G36*
X172500Y81086D02*
X172191Y80777D01*
X172500Y80716D01*
X172809Y80777D01*
X172500Y81086D01*
D02*
G37*
G36*
X158516Y73420D02*
X154698Y69602D01*
X162334D01*
X158516Y73420D01*
D02*
G37*
G36*
X210000Y74775D02*
X208825Y74620D01*
X207731Y74167D01*
X206791Y73446D01*
X206069Y72506D01*
X205616Y71411D01*
X205461Y70236D01*
X205616Y69061D01*
X206069Y67967D01*
X206791Y67027D01*
X207731Y66306D01*
X208825Y65852D01*
X210000Y65697D01*
X211175Y65852D01*
X212269Y66306D01*
X213209Y67027D01*
X213931Y67967D01*
X214384Y69061D01*
X214539Y70236D01*
X214384Y71411D01*
X213931Y72506D01*
X213209Y73446D01*
X212269Y74167D01*
X211175Y74620D01*
X210000Y74775D01*
D02*
G37*
G36*
Y64775D02*
X208825Y64620D01*
X207731Y64167D01*
X206791Y63446D01*
X206069Y62506D01*
X205616Y61411D01*
X205461Y60236D01*
X205616Y59061D01*
X206069Y57967D01*
X206791Y57027D01*
X207731Y56305D01*
X208825Y55852D01*
X210000Y55697D01*
X211175Y55852D01*
X212269Y56305D01*
X213209Y57027D01*
X213931Y57967D01*
X214384Y59061D01*
X214539Y60236D01*
X214384Y61411D01*
X213931Y62506D01*
X213209Y63446D01*
X212269Y64167D01*
X211175Y64620D01*
X210000Y64775D01*
D02*
G37*
G36*
X13780Y214025D02*
X12426Y213892D01*
X11124Y213497D01*
X9924Y212856D01*
X8873Y211993D01*
X8010Y210942D01*
X7369Y209742D01*
X6974Y208440D01*
X6841Y207087D01*
X6974Y205733D01*
X7369Y204431D01*
X8010Y203232D01*
X8873Y202180D01*
X9924Y201317D01*
X11124Y200676D01*
X12426Y200281D01*
X13780Y200148D01*
X15133Y200281D01*
X16435Y200676D01*
X17635Y201317D01*
X18686Y202180D01*
X19549Y203232D01*
X20190Y204431D01*
X20585Y205733D01*
X20719Y207087D01*
X20585Y208440D01*
X20190Y209742D01*
X19549Y210942D01*
X18686Y211993D01*
X17635Y212856D01*
X16435Y213497D01*
X15133Y213892D01*
X13780Y214025D01*
D02*
G37*
G36*
Y21112D02*
X12426Y20979D01*
X11124Y20584D01*
X9924Y19943D01*
X8873Y19080D01*
X8010Y18028D01*
X7369Y16829D01*
X6974Y15527D01*
X6841Y14173D01*
X6974Y12820D01*
X7369Y11518D01*
X8010Y10318D01*
X8873Y9267D01*
X9924Y8404D01*
X11124Y7762D01*
X12426Y7368D01*
X13780Y7234D01*
X15133Y7368D01*
X16435Y7762D01*
X17635Y8404D01*
X18686Y9267D01*
X19549Y10318D01*
X20190Y11518D01*
X20585Y12820D01*
X20719Y14173D01*
X20585Y15527D01*
X20190Y16829D01*
X19549Y18028D01*
X18686Y19080D01*
X17635Y19943D01*
X16435Y20584D01*
X15133Y20979D01*
X13780Y21112D01*
D02*
G37*
G36*
X148000Y167549D02*
X147025Y167355D01*
X146198Y166802D01*
X145645Y165975D01*
X145451Y165000D01*
X145645Y164024D01*
X146198Y163198D01*
X146466Y163018D01*
X146457Y162547D01*
X146030Y162319D01*
X145975Y162355D01*
X145000Y162549D01*
X144025Y162355D01*
X143198Y161802D01*
X142645Y160976D01*
X142451Y160000D01*
X142645Y159025D01*
X143198Y158198D01*
X143471Y158015D01*
Y151485D01*
X143198Y151302D01*
X142645Y150476D01*
X142451Y149500D01*
X142645Y148524D01*
X143198Y147698D01*
X144025Y147145D01*
X145000Y146951D01*
X145975Y147145D01*
X146802Y147698D01*
X147355Y148524D01*
X147549Y149500D01*
X147525Y149622D01*
X147878Y149975D01*
X148000Y149951D01*
X148976Y150145D01*
X149802Y150698D01*
X150355Y151524D01*
X150549Y152500D01*
X150355Y153475D01*
X149802Y154302D01*
X149529Y154485D01*
Y163015D01*
X149802Y163198D01*
X150355Y164024D01*
X150549Y165000D01*
X150355Y165975D01*
X149802Y166802D01*
X148976Y167355D01*
X148000Y167549D01*
D02*
G37*
G36*
X108900Y144412D02*
X105588D01*
Y141100D01*
X108900Y144412D01*
D02*
G37*
G36*
X112600Y142412D02*
X115912Y139100D01*
Y142412D01*
X112600D01*
D02*
G37*
G36*
X116307Y99038D02*
Y93962D01*
X118846Y96500D01*
X116307Y99038D01*
D02*
G37*
G36*
X107361Y128446D02*
X106414Y127500D01*
X107361Y126553D01*
X107549Y127500D01*
X107361Y128446D01*
D02*
G37*
G36*
X102639Y128446D02*
X102451Y127500D01*
X102639Y126553D01*
X103586Y127500D01*
X102639Y128446D01*
D02*
G37*
G36*
X111412Y136900D02*
X108100Y133588D01*
X111412D01*
Y136900D01*
D02*
G37*
G36*
X105000Y130049D02*
X104053Y129861D01*
X105000Y128914D01*
X105947Y129861D01*
X105000Y130049D01*
D02*
G37*
G36*
X99331Y138726D02*
X91793Y131187D01*
X92931Y130048D01*
X88322Y125439D01*
X88000Y125503D01*
X87024Y125309D01*
X86198Y124757D01*
X85645Y123930D01*
X85451Y122954D01*
X85515Y122632D01*
X83685Y120802D01*
X81588Y122900D01*
X77070Y118381D01*
X76844Y118156D01*
X75405Y116717D01*
X73956Y118165D01*
X71835Y116044D01*
X73283Y114595D01*
X72100Y113412D01*
X77412Y108100D01*
X77601Y107912D01*
X81471Y104042D01*
Y103157D01*
X79736D01*
Y98399D01*
X79344Y98007D01*
X78882Y98198D01*
Y100921D01*
X77443D01*
Y102957D01*
X77802Y103198D01*
X78355Y104025D01*
X78549Y105000D01*
X78355Y105975D01*
X77802Y106802D01*
X76976Y107355D01*
X76000Y107549D01*
X75024Y107355D01*
X74198Y106802D01*
X73645Y105975D01*
X73451Y105000D01*
X73645Y104025D01*
X74198Y103198D01*
X74384Y103073D01*
Y100921D01*
X72945D01*
Y96559D01*
Y92819D01*
Y89079D01*
X74384D01*
Y84427D01*
X74198Y84302D01*
X73645Y83476D01*
X73451Y82500D01*
X73645Y81524D01*
X74198Y80698D01*
X75024Y80145D01*
X76000Y79951D01*
X76976Y80145D01*
X77802Y80698D01*
X78355Y81524D01*
X78549Y82500D01*
X78355Y83476D01*
X77802Y84302D01*
X77443Y84543D01*
Y89079D01*
X78882D01*
Y89731D01*
X79791D01*
Y87843D01*
X86181D01*
X86319Y87843D01*
X86681D01*
X86819Y87843D01*
X93209D01*
Y95157D01*
X91474D01*
Y95842D01*
X93154D01*
Y103157D01*
X92377D01*
X92110Y103657D01*
X92355Y104025D01*
X92549Y105000D01*
X92355Y105975D01*
X91802Y106802D01*
X90975Y107355D01*
X90000Y107549D01*
X89025Y107355D01*
X88198Y106802D01*
X87645Y105975D01*
X87451Y105000D01*
X87645Y104025D01*
X87890Y103657D01*
X87623Y103157D01*
X86764D01*
X86626Y103157D01*
X86264D01*
X86126Y103157D01*
X84529D01*
Y104218D01*
X87430Y107119D01*
X87656Y107344D01*
X87881Y107570D01*
X92400Y112088D01*
X90302Y114185D01*
X92132Y116015D01*
X92454Y115951D01*
X93430Y116145D01*
X94257Y116698D01*
X94809Y117525D01*
X95003Y118500D01*
X94809Y119475D01*
X94257Y120302D01*
X93430Y120855D01*
X92454Y121049D01*
X91479Y120855D01*
X90652Y120302D01*
X90099Y119475D01*
X89905Y118500D01*
X89969Y118178D01*
X88139Y116348D01*
X87253Y117234D01*
X87088Y117400D01*
X86098Y118389D01*
X86098Y118889D01*
X87678Y120469D01*
X88000Y120405D01*
X88976Y120599D01*
X89802Y121152D01*
X90355Y121979D01*
X90549Y122954D01*
X90485Y123276D01*
X95094Y127885D01*
X96687Y126293D01*
X104226Y133832D01*
X99331Y138726D01*
D02*
G37*
G36*
X105000Y126086D02*
X104053Y125139D01*
X105000Y124951D01*
X105947Y125139D01*
X105000Y126086D01*
D02*
G37*
G36*
X242126Y21112D02*
X240772Y20979D01*
X239471Y20584D01*
X238271Y19943D01*
X237219Y19080D01*
X236356Y18028D01*
X235715Y16829D01*
X235320Y15527D01*
X235187Y14173D01*
X235320Y12820D01*
X235715Y11518D01*
X236356Y10318D01*
X237219Y9267D01*
X238271Y8404D01*
X239471Y7762D01*
X240772Y7368D01*
X242126Y7234D01*
X243480Y7368D01*
X244781Y7762D01*
X245981Y8404D01*
X247032Y9267D01*
X247896Y10318D01*
X248537Y11518D01*
X248932Y12820D01*
X249065Y14173D01*
X248932Y15527D01*
X248537Y16829D01*
X247896Y18028D01*
X247032Y19080D01*
X245981Y19943D01*
X244781Y20584D01*
X243480Y20979D01*
X242126Y21112D01*
D02*
G37*
%LPD*%
D10*
X52055Y64000D02*
D03*
X58945D02*
D03*
D14*
X69500Y137555D02*
D03*
Y144445D02*
D03*
X37000Y59610D02*
D03*
Y66500D02*
D03*
D18*
X230445Y149000D02*
D03*
X223555D02*
D03*
X89945Y91500D02*
D03*
X83055D02*
D03*
X83000Y99500D02*
D03*
X89890D02*
D03*
X230445Y124000D02*
D03*
X223555D02*
D03*
X230445Y116000D02*
D03*
X223555D02*
D03*
D24*
X87436Y112436D02*
D03*
X82564Y107564D02*
D03*
X81936Y117936D02*
D03*
X77064Y113064D02*
D03*
X121436Y147936D02*
D03*
X116564Y143064D02*
D03*
X137936Y166936D02*
D03*
X133064Y162064D02*
D03*
X132436Y172436D02*
D03*
X127564Y167564D02*
D03*
D29*
X120063Y96500D02*
D03*
X127937D02*
D03*
D30*
X182500Y97500D02*
X192500D01*
X33000Y212394D02*
X43000D01*
X58500Y22500D02*
X160000D01*
X167500Y30000D01*
Y45000D01*
X162500Y50000D02*
X167500Y45000D01*
X155000Y50000D02*
X162500D01*
X155000D02*
Y59945D01*
X147000Y67945D02*
X155000Y59945D01*
X33000Y22500D02*
X58500D01*
X25500Y30000D02*
X33000Y22500D01*
X10000Y30000D02*
X25500D01*
X5000Y35000D02*
X10000Y30000D01*
X25000Y62500D02*
X30000D01*
X22500D02*
X25000D01*
X20000D02*
X22500D01*
Y81126D01*
X47370Y105996D01*
X15000Y62500D02*
X20000D01*
X147000Y67945D02*
Y82500D01*
X5000Y35000D02*
Y60000D01*
X17500Y72500D01*
X62843Y38000D02*
Y47102D01*
X187000Y2000D02*
Y86063D01*
X195827D02*
X210000Y100236D01*
X187000Y86063D02*
X195827D01*
X158516Y79516D02*
X165063Y86063D01*
X187000D01*
Y2000D02*
X215000Y-26000D01*
X135484Y67945D02*
X147000D01*
X192500Y97500D02*
X205000Y110000D01*
X175000Y105000D02*
X182500Y97500D01*
X220000Y231000D02*
X229000Y222000D01*
X235000Y90236D02*
X240000D01*
X205000Y110000D02*
X215236D01*
X235000Y90236D01*
X221000Y61236D02*
X240000Y80236D01*
X221000Y-31827D02*
Y61236D01*
Y-31827D02*
X225000Y-35827D01*
Y5000D02*
X235000Y-5000D01*
X229739Y30000D02*
Y59976D01*
X225000Y5000D02*
Y25261D01*
X229739Y30000D01*
Y59976D02*
X240000Y70236D01*
X225000Y-35827D02*
X232126D01*
X235000Y-5000D02*
X245000D01*
X220000Y231000D02*
Y252087D01*
X225000Y257087D01*
X245000Y-5000D02*
X250000Y-10000D01*
Y-27953D02*
Y-10000D01*
X242126Y-35827D02*
X250000Y-27953D01*
X252906Y63142D02*
Y246307D01*
X225000Y257087D02*
X232126D01*
X242126D02*
X252906Y246307D01*
X240000Y50236D02*
X252906Y63142D01*
X240000Y60236D02*
X247500Y67736D01*
X17500Y169500D02*
X38000Y190000D01*
X229000Y197500D02*
Y222000D01*
Y197500D02*
X247500Y179000D01*
Y67736D02*
Y179000D01*
X147000Y82500D02*
X169500Y105000D01*
X175000D01*
X135484Y86055D02*
X142555D01*
X171500Y115000D01*
X175000D01*
X43500Y56500D02*
X65000D01*
X34102Y47102D02*
X43500Y56500D01*
X17500Y113500D02*
Y169500D01*
Y72500D02*
Y94500D01*
Y113500D01*
D31*
X123000Y50000D02*
Y64000D01*
X58500Y6500D02*
Y22500D01*
X59000Y116500D02*
X75000Y132500D01*
X64240Y98740D02*
X65087D01*
X61000Y95500D02*
X64240Y98740D01*
X62343Y37500D02*
X62843Y38000D01*
X132945Y86055D02*
X133055D01*
X127937Y91063D02*
X132945Y86055D01*
X75913Y82500D02*
Y91260D01*
X158516Y77000D02*
Y79516D01*
X199000Y121500D02*
Y181000D01*
X198500Y181500D02*
X199000Y181000D01*
X198500Y181500D02*
Y184000D01*
X195500Y181500D02*
Y187000D01*
X197000Y129500D02*
Y180000D01*
X195500Y181500D02*
X197000Y180000D01*
X195000Y135000D02*
Y178500D01*
X192000Y181500D02*
Y184000D01*
Y181500D02*
X195000Y178500D01*
X193000Y138000D02*
Y177000D01*
X188500Y181500D02*
X193000Y177000D01*
X188500Y181500D02*
Y187000D01*
X190000Y140000D02*
Y176500D01*
X185000Y181500D02*
Y184000D01*
Y181500D02*
X190000Y176500D01*
X192500Y115000D02*
X199000Y121500D01*
X200500Y192500D02*
X203500Y189500D01*
Y155000D02*
Y189500D01*
Y155000D02*
X204500Y154000D01*
X201500D02*
Y187500D01*
X199000Y190000D02*
X201500Y187500D01*
X115394Y190000D02*
X199000D01*
X117500Y192500D02*
X200500D01*
X192500Y125000D02*
X197000Y129500D01*
X190000Y130000D02*
X195000Y135000D01*
X190000D02*
X193000Y138000D01*
X185000Y135000D02*
X190000D01*
X130000Y118500D02*
X156000Y144500D01*
Y168000D01*
X135000Y120500D02*
X160500Y146000D01*
Y168000D01*
X153500Y171500D02*
X161500D01*
X149500D02*
X153500D01*
X149000Y178500D02*
X153500D01*
X151000Y175000D02*
X161500D01*
X148828D02*
X151000D01*
X163500Y149000D02*
Y169500D01*
X161500Y171500D02*
X163500Y169500D01*
X165500Y157000D02*
Y171000D01*
X161500Y175000D02*
X165500Y171000D01*
X167500Y162500D02*
Y172000D01*
X161000Y178500D02*
X167500Y172000D01*
X153500Y178500D02*
X161000D01*
X163500Y149000D02*
X167500Y145000D01*
X165500Y157000D02*
X172500Y150000D01*
X143500Y177500D02*
X149500Y171500D01*
X143328Y180500D02*
X148828Y175000D01*
X145000Y182500D02*
X149000Y178500D01*
X160500Y182000D02*
X172500Y170000D01*
X150000Y182000D02*
X160500D01*
X185000Y125000D02*
X192500D01*
X185000Y115000D02*
X192500D01*
X201500Y154000D02*
X206539Y148961D01*
X207000Y158000D02*
Y174000D01*
X213000Y180000D01*
X206539Y148961D02*
X214803D01*
X204500Y154000D02*
X225598D01*
X198500Y116000D02*
X207000D01*
X192500Y110000D02*
X198500Y116000D01*
X180000Y110000D02*
X192500D01*
X98000Y182500D02*
X145000D01*
X104000Y180500D02*
X143328D01*
X107500Y177500D02*
X143500D01*
X130000Y115000D02*
Y118500D01*
X135000Y112500D02*
Y120500D01*
X116982Y128064D02*
X126546Y118500D01*
X141000Y117500D02*
X147500D01*
X159000Y140000D02*
X180000D01*
X141000Y122000D02*
X159000Y140000D01*
X167500Y145000D02*
X175000D01*
X172500Y150000D02*
X180000D01*
X167500Y162500D02*
X175000Y155000D01*
X148000Y152500D02*
Y165000D01*
X172500Y170000D02*
X177500D01*
X165000Y185000D02*
X175000Y175000D01*
X80000Y185000D02*
X165000D01*
X172500Y187500D02*
X185000Y175000D01*
X67894Y187500D02*
X172500D01*
X53000Y202394D02*
X67894Y187500D01*
X103000Y202394D02*
X115394Y190000D01*
X113000Y197000D02*
X117500Y192500D01*
X118000Y196000D02*
X119000Y195000D01*
X38000Y190000D02*
Y212394D01*
X118000Y217394D02*
X123000Y212394D01*
X98000Y217394D02*
X118000D01*
X93000Y212394D02*
X98000Y217394D01*
X88000Y207394D02*
X93000Y212394D01*
X78000Y207394D02*
X88000D01*
X73000Y202394D02*
X78000Y207394D01*
X148000D02*
X153000Y202394D01*
X128000Y207394D02*
X148000D01*
X123000Y212394D02*
X128000Y207394D01*
X218000D02*
X223000Y202394D01*
X198000Y207394D02*
X218000D01*
X193000Y212394D02*
X198000Y207394D01*
X168000D02*
X173000Y212394D01*
X158000Y207394D02*
X168000D01*
X153000Y202394D02*
X158000Y207394D01*
X188000D02*
X193000Y212394D01*
X178000Y207394D02*
X188000D01*
X173000Y212394D02*
X178000Y207394D01*
X118000Y196000D02*
Y207394D01*
X113000Y212394D02*
X118000Y207394D01*
X230445Y124000D02*
X237000Y130555D01*
X230445Y149000D02*
Y149153D01*
X208764Y79000D02*
X210000Y80236D01*
X208764Y69000D02*
X210000Y70236D01*
X214803Y148961D02*
X223358D01*
X215000Y124000D02*
X223555D01*
X113000Y197000D02*
Y202394D01*
X193000Y212394D02*
Y225000D01*
X215087Y247087D01*
X75913Y91260D02*
X82815D01*
X83055Y91500D01*
X89945D02*
Y99445D01*
X89890Y99500D02*
X89945Y99445D01*
X75913Y95000D02*
X78500D01*
X83000Y99500D01*
X77064Y113064D02*
X82564Y107564D01*
X83000Y107128D01*
Y99500D02*
Y107128D01*
X75913Y98740D02*
Y104913D01*
X89890Y99500D02*
Y104890D01*
X76564Y113064D02*
X77064D01*
X81936Y117936D02*
X82982D01*
X88000Y122954D01*
X87436Y113482D02*
X92454Y118500D01*
X87436Y112436D02*
Y113482D01*
X97555Y132509D02*
X98009D01*
X116936Y128064D02*
X116982D01*
X112064Y132936D02*
X116564Y137436D01*
Y143064D01*
X104936Y145064D02*
X114564D01*
X116564Y143064D01*
X89518Y141000D02*
X98454Y149936D01*
X99564D01*
X91288Y166908D02*
X94470Y163727D01*
X88408Y166908D02*
X91288D01*
X94470Y163727D02*
X94681D01*
X90227Y159273D02*
X99564Y149936D01*
X93954Y168908D02*
X94500Y168363D01*
X87580Y168908D02*
X93954D01*
X180000Y160000D02*
X185000Y155000D01*
X180000Y160000D02*
Y167500D01*
X177500Y170000D02*
X180000Y167500D01*
X97500Y182000D02*
X98000Y182500D01*
X180000Y150000D02*
X185000Y145000D01*
X180000Y120000D02*
X185000Y115000D01*
X180000Y130000D02*
X185000Y125000D01*
X180000Y140000D02*
X185000Y135000D01*
X65087Y116568D02*
X89518Y141000D01*
X65087Y98740D02*
Y116568D01*
X88000Y122954D02*
X97555Y132509D01*
X110436Y132936D02*
X112064D01*
X105000Y127500D02*
X110436Y132936D01*
X63000Y212394D02*
X68000Y207394D01*
Y197500D02*
X74500Y191000D01*
X68000Y197500D02*
Y207394D01*
X111445Y132317D02*
X112064Y132936D01*
X116936Y128064D02*
X125500Y136628D01*
Y143872D01*
X145000Y149500D02*
Y160000D01*
X230445Y116000D02*
Y124000D01*
X231000Y123445D02*
X238500D01*
X230445Y124000D02*
X231000Y123445D01*
X238500Y116555D02*
X240000Y115055D01*
X175000Y115000D02*
X180000Y110000D01*
X207000Y116000D02*
X223555D01*
X80000Y167500D02*
Y185000D01*
X60394D02*
X80000D01*
X43000Y202394D02*
X60394Y185000D01*
X64500Y167500D02*
X67500Y164500D01*
X83172D01*
X87580Y168908D01*
X59500Y167500D02*
X65000Y162000D01*
X83500D01*
X88408Y166908D01*
X54500Y167500D02*
X62500Y159500D01*
X85637D01*
X90046Y163908D01*
X69945Y137555D02*
X75000Y132500D01*
X69500Y137555D02*
X69945D01*
X225598Y154000D02*
X230445Y149153D01*
X233000Y170000D02*
X237000Y166000D01*
Y130555D02*
Y166000D01*
X233000Y180000D02*
Y187500D01*
X223000Y197500D02*
X233000Y187500D01*
X223000Y197500D02*
Y202394D01*
X228000Y175000D02*
X233000Y170000D01*
X228000Y175000D02*
Y187500D01*
X220500Y195000D02*
X228000Y187500D01*
X119000Y195000D02*
X220500D01*
X101000Y177500D02*
X104000Y180500D01*
X74500Y191000D02*
X100000D01*
X138500Y174500D02*
X140000Y173000D01*
Y171000D02*
Y173000D01*
X137936Y168936D02*
X140000Y171000D01*
X137936Y166936D02*
Y168936D01*
X129872Y175000D02*
X132436Y172436D01*
X124500Y175000D02*
X129872D01*
X123500Y174000D02*
X124500Y175000D01*
X127564Y167564D02*
X133064Y162064D01*
X114564Y145064D02*
Y154564D01*
X127564Y167564D01*
X35000Y137500D02*
X41945Y144445D01*
X69500D01*
X86073D01*
X89518Y141000D01*
X142500Y93500D02*
X169000Y120000D01*
X180000D01*
X135500Y99500D02*
X141000D01*
X139000Y96500D02*
X142000D01*
X170500Y125000D01*
X175000D01*
X141000Y99500D02*
X171500Y130000D01*
X180000D01*
X139000Y102500D02*
X171500Y135000D01*
X175000D01*
X126546Y97891D02*
Y118500D01*
Y97891D02*
X127937Y96500D01*
Y91063D02*
Y96500D01*
X111445Y105118D02*
X120063Y96500D01*
X111445Y105118D02*
Y132317D01*
X133055Y86055D02*
X135484D01*
X32921Y47102D02*
X34102D01*
X37000Y66500D02*
X38500Y68000D01*
X45000Y62500D02*
X50555D01*
X52055Y64000D01*
X47370Y86311D02*
X58945Y74736D01*
Y64000D02*
Y74736D01*
X38500Y68000D02*
X42500D01*
X17500Y113500D02*
X27500D01*
X17500Y94500D02*
X27500D01*
X73956Y116044D02*
Y117456D01*
X98500Y142000D01*
X101872D01*
X104936Y145064D01*
X115500Y71500D02*
X123000Y64000D01*
X121000Y74000D02*
X133055Y86055D01*
X117500Y76500D02*
X122500Y81500D01*
X59000Y80500D02*
Y116500D01*
Y80500D02*
X68000Y71500D01*
X115500D01*
X61000Y82009D02*
Y95500D01*
Y82009D02*
X69009Y74000D01*
X121000D01*
X121436Y147936D02*
X125500Y143872D01*
X65087Y81413D02*
Y91260D01*
Y81413D02*
X70000Y76500D01*
X117500D01*
D39*
X47370Y105996D02*
D03*
Y86311D02*
D03*
X13780Y207087D02*
D03*
X242126D02*
D03*
Y14173D02*
D03*
X13780D02*
D03*
D40*
X8000Y117807D02*
D03*
Y74500D02*
D03*
X120500Y6000D02*
D03*
X68500D02*
D03*
X76000Y43500D02*
D03*
X94500D02*
D03*
X113000D02*
D03*
D41*
X223000Y212394D02*
D03*
X213000D02*
D03*
Y202394D02*
D03*
X203000Y212394D02*
D03*
Y202394D02*
D03*
X193000D02*
D03*
X183000Y212394D02*
D03*
Y202394D02*
D03*
X173000D02*
D03*
X163000Y212394D02*
D03*
Y202394D02*
D03*
X153000Y212394D02*
D03*
X143000D02*
D03*
Y202394D02*
D03*
X133000Y212394D02*
D03*
Y202394D02*
D03*
X123000D02*
D03*
X113000Y212394D02*
D03*
Y202394D02*
D03*
X103000Y212394D02*
D03*
Y202394D02*
D03*
X93000D02*
D03*
X83000Y212394D02*
D03*
Y202394D02*
D03*
X73000Y212394D02*
D03*
X63000D02*
D03*
Y202394D02*
D03*
X53000D02*
D03*
X43000Y212394D02*
D03*
Y202394D02*
D03*
X33000Y212394D02*
D03*
Y202394D02*
D03*
X210000Y40236D02*
D03*
Y50236D02*
D03*
Y60236D02*
D03*
Y70236D02*
D03*
Y80236D02*
D03*
Y90236D02*
D03*
X240000Y40236D02*
D03*
Y50236D02*
D03*
Y60236D02*
D03*
Y70236D02*
D03*
Y80236D02*
D03*
Y90236D02*
D03*
X213000Y180000D02*
D03*
X223000Y170000D02*
D03*
Y180000D02*
D03*
X233000Y170000D02*
D03*
Y180000D02*
D03*
D42*
X223000Y202394D02*
D03*
X193000Y212394D02*
D03*
X173000D02*
D03*
X153000Y202394D02*
D03*
X123000Y212394D02*
D03*
X93000D02*
D03*
X73000Y202394D02*
D03*
X53000Y212394D02*
D03*
X213000Y170000D02*
D03*
D43*
X232126Y257087D02*
D03*
X185000Y105000D02*
D03*
X242126Y-35827D02*
D03*
D44*
Y257087D02*
D03*
X232126Y247087D02*
D03*
X242126D02*
D03*
X232126Y237087D02*
D03*
X242126D02*
D03*
X175000Y105000D02*
D03*
X185000Y115000D02*
D03*
X175000D02*
D03*
X185000Y125000D02*
D03*
X175000D02*
D03*
X185000Y135000D02*
D03*
X175000D02*
D03*
X185000Y145000D02*
D03*
X175000D02*
D03*
X185000Y155000D02*
D03*
X175000D02*
D03*
X185000Y165000D02*
D03*
X175000D02*
D03*
X185000Y175000D02*
D03*
X175000D02*
D03*
X232126Y-15827D02*
D03*
X242126D02*
D03*
X232126Y-25827D02*
D03*
X242126D02*
D03*
X232126Y-35827D02*
D03*
D45*
X210000Y100236D02*
D03*
X240000D02*
D03*
D46*
X37252Y16000D02*
D03*
X53000D02*
D03*
D47*
X167500Y77500D02*
D03*
Y82500D02*
D03*
X172500D02*
D03*
X157500Y35000D02*
D03*
X152500D02*
D03*
X147000Y45000D02*
D03*
Y40000D02*
D03*
Y50000D02*
D03*
Y30000D02*
D03*
Y35000D02*
D03*
X140000D02*
D03*
X135000D02*
D03*
X140000Y30000D02*
D03*
X135000D02*
D03*
Y50000D02*
D03*
X140000D02*
D03*
X135000Y40000D02*
D03*
X140000D02*
D03*
X135000Y45000D02*
D03*
X140000D02*
D03*
X152500Y30000D02*
D03*
X157500D02*
D03*
X152500Y40000D02*
D03*
X157500D02*
D03*
Y45000D02*
D03*
X152500D02*
D03*
X30000Y62500D02*
D03*
X25000D02*
D03*
X20000D02*
D03*
X15000D02*
D03*
Y37500D02*
D03*
X20000D02*
D03*
X25000D02*
D03*
X30000D02*
D03*
X35000D02*
D03*
X40000D02*
D03*
X45000D02*
D03*
Y42500D02*
D03*
X40000D02*
D03*
X45000Y47500D02*
D03*
X40000D02*
D03*
X25000Y42500D02*
D03*
X20000D02*
D03*
X25000Y47500D02*
D03*
X20000D02*
D03*
X25000Y52500D02*
D03*
X20000D02*
D03*
X10000D02*
D03*
X15000D02*
D03*
X10000Y47500D02*
D03*
X15000D02*
D03*
X10000Y42500D02*
D03*
X15000D02*
D03*
X10000Y37500D02*
D03*
X45000Y62500D02*
D03*
X42500Y68000D02*
D03*
D48*
X123000Y50000D02*
D03*
X155000D02*
D03*
X122500Y81500D02*
D03*
X195500Y187000D02*
D03*
X198500Y184000D02*
D03*
X192000D02*
D03*
X188500Y187000D02*
D03*
X185000Y184000D02*
D03*
X190000Y140000D02*
D03*
Y130000D02*
D03*
X160500Y168000D02*
D03*
X156000D02*
D03*
X153500Y171500D02*
D03*
X151000Y175000D02*
D03*
X153500Y178500D02*
D03*
X207000Y158000D02*
D03*
X126546Y118500D02*
D03*
X130000Y115000D02*
D03*
X141000Y117500D02*
D03*
Y122000D02*
D03*
X125500Y144000D02*
D03*
X214803Y148961D02*
D03*
X215000Y124000D02*
D03*
X215087Y247087D02*
D03*
X76000Y105000D02*
D03*
X90000D02*
D03*
X88000Y122954D02*
D03*
X92454Y118500D02*
D03*
X94500Y168363D02*
D03*
X94681Y163727D02*
D03*
X90227Y159273D02*
D03*
X90046Y163908D02*
D03*
X150000Y182000D02*
D03*
X97500D02*
D03*
X107500Y177500D02*
D03*
X139000Y102500D02*
D03*
Y96500D02*
D03*
X135500Y99500D02*
D03*
X142500Y93500D02*
D03*
X147500Y117500D02*
D03*
X135000Y112500D02*
D03*
X105000Y127500D02*
D03*
X101500Y191000D02*
D03*
X145000Y149500D02*
D03*
X148000Y152500D02*
D03*
Y165000D02*
D03*
X145000Y160000D02*
D03*
X207000Y116000D02*
D03*
X80000Y167500D02*
D03*
X101000Y177500D02*
D03*
X76000Y82500D02*
D03*
X75000Y132500D02*
D03*
X54500Y167500D02*
D03*
X64500D02*
D03*
X59500D02*
D03*
X123500Y174000D02*
D03*
X138500Y174500D02*
D03*
X35000Y137500D02*
D03*
X58500Y6500D02*
D03*
X27500Y94500D02*
D03*
Y113500D02*
D03*
D49*
X65000Y56500D02*
D03*
X38000Y190000D02*
D03*
X215000Y-26000D02*
D03*
D50*
X73956Y116044D02*
D03*
X75000Y115000D02*
D03*
D51*
X75913Y98740D02*
D03*
Y95000D02*
D03*
Y91260D02*
D03*
X65087D02*
D03*
Y98740D02*
D03*
D52*
X89518Y141000D02*
D03*
X98009Y132509D02*
D03*
D53*
X116936Y128064D02*
D03*
X112064Y132936D02*
D03*
X100064Y149936D02*
D03*
X104936Y145064D02*
D03*
D54*
X238500Y123445D02*
D03*
Y116555D02*
D03*
D55*
X32921Y47102D02*
D03*
X62843D02*
D03*
Y35685D02*
D03*
D56*
X135484Y67945D02*
D03*
Y77000D02*
D03*
Y86055D02*
D03*
D57*
X158516Y77000D02*
D03*
D58*
X187000Y93937D02*
D03*
Y86063D02*
D03*
D59*
X74026Y115974D02*
X74930Y115070D01*
M02*
