G04 Layer_Color=16711935*
%FSLAX25Y25*%
%MOIN*%
G70*
G01*
G75*
%ADD60C,0.00394*%
D60*
X134296Y140000D02*
G03*
X134296Y140000I-1969J0D01*
G01*
X2972Y67716D02*
X62028D01*
Y32283D02*
Y67716D01*
X2972Y32283D02*
X62028D01*
X2972D02*
Y67716D01*
X109500Y167839D02*
X137339Y140000D01*
X81661D02*
X109500Y112161D01*
X137339Y140000D01*
X81661D02*
X109500Y167839D01*
X116339Y78311D02*
Y84689D01*
X103661Y78311D02*
Y84689D01*
X116339D01*
X103661Y78311D02*
X116339D01*
X139716Y63811D02*
Y90189D01*
X154283Y63811D02*
Y90189D01*
X139716Y63811D02*
X154283D01*
X139716Y90189D02*
X154283D01*
X119768Y93744D02*
Y99256D01*
X128232Y93744D02*
Y99256D01*
X119768Y93744D02*
X128232D01*
X119768Y99256D02*
X128232D01*
X184244Y94232D02*
X189756D01*
X184244Y85768D02*
X189756D01*
X184244D02*
Y94232D01*
X189756Y85768D02*
Y94232D01*
X22268Y89756D02*
X30732D01*
X22268Y84244D02*
X30732D01*
X22268D02*
Y89756D01*
X30732Y84244D02*
Y89756D01*
X22268Y108756D02*
X30732D01*
X22268Y103244D02*
X30732D01*
X22268D02*
Y108756D01*
X30732Y103244D02*
Y108756D01*
M02*
