G04 Layer_Color=8421504*
%FSLAX25Y25*%
%MOIN*%
G70*
G01*
G75*
%ADD10R,0.04528X0.05512*%
%ADD11R,0.05512X0.08268*%
%ADD12C,0.02500*%
%ADD13R,0.02500X0.02500*%
%ADD14R,0.05315X0.04528*%
G04:AMPARAMS|DCode=15|XSize=21.65mil|YSize=57.09mil|CornerRadius=0mil|HoleSize=0mil|Usage=FLASHONLY|Rotation=315.000|XOffset=0mil|YOffset=0mil|HoleType=Round|Shape=Round|*
%AMOVALD15*
21,1,0.03543,0.02165,0.00000,0.00000,45.0*
1,1,0.02165,-0.01253,-0.01253*
1,1,0.02165,0.01253,0.01253*
%
%ADD15OVALD15*%

G04:AMPARAMS|DCode=16|XSize=21.65mil|YSize=57.09mil|CornerRadius=0mil|HoleSize=0mil|Usage=FLASHONLY|Rotation=225.000|XOffset=0mil|YOffset=0mil|HoleType=Round|Shape=Round|*
%AMOVALD16*
21,1,0.03543,0.02165,0.00000,0.00000,315.0*
1,1,0.02165,-0.01253,0.01253*
1,1,0.02165,0.01253,-0.01253*
%
%ADD16OVALD16*%

%ADD17R,0.06693X0.03937*%
%ADD18R,0.04528X0.05315*%
%ADD19R,0.04528X0.06890*%
%ADD20R,0.04500X0.04500*%
%ADD21R,0.16500X0.07500*%
%ADD22R,0.07500X0.16500*%
%ADD23R,0.03937X0.05906*%
G04:AMPARAMS|DCode=24|XSize=55.12mil|YSize=45.28mil|CornerRadius=0mil|HoleSize=0mil|Usage=FLASHONLY|Rotation=315.000|XOffset=0mil|YOffset=0mil|HoleType=Round|Shape=Rectangle|*
%AMROTATEDRECTD24*
4,1,4,-0.03550,0.00348,-0.00348,0.03550,0.03550,-0.00348,0.00348,-0.03550,-0.03550,0.00348,0.0*
%
%ADD24ROTATEDRECTD24*%

%ADD25R,0.03150X0.01575*%
%ADD26R,0.03937X0.03543*%
%ADD27R,0.11614X0.06614*%
%ADD28R,0.05906X0.03937*%
%ADD29R,0.05512X0.05906*%
D10*
X50555Y25500D02*
D03*
X57445D02*
D03*
X145945Y72000D02*
D03*
X139055D02*
D03*
X157055D02*
D03*
X163945D02*
D03*
D11*
X71839Y67000D02*
D03*
X89161D02*
D03*
X71839Y54500D02*
D03*
X89161D02*
D03*
D12*
X7500Y35000D02*
D03*
D13*
Y40000D02*
D03*
Y45000D02*
D03*
Y50000D02*
D03*
Y55000D02*
D03*
Y60000D02*
D03*
Y65000D02*
D03*
X12500Y35000D02*
D03*
Y40000D02*
D03*
Y45000D02*
D03*
Y50000D02*
D03*
Y55000D02*
D03*
Y60000D02*
D03*
Y65000D02*
D03*
X17500Y35000D02*
D03*
Y40000D02*
D03*
Y45000D02*
D03*
Y50000D02*
D03*
Y55000D02*
D03*
Y60000D02*
D03*
Y65000D02*
D03*
X22500Y35000D02*
D03*
Y40000D02*
D03*
Y45000D02*
D03*
Y50000D02*
D03*
Y55000D02*
D03*
Y60000D02*
D03*
Y65000D02*
D03*
X27500Y35000D02*
D03*
Y40000D02*
D03*
Y45000D02*
D03*
Y50000D02*
D03*
Y55000D02*
D03*
Y60000D02*
D03*
Y65000D02*
D03*
X32500Y35000D02*
D03*
Y40000D02*
D03*
Y45000D02*
D03*
Y50000D02*
D03*
Y55000D02*
D03*
Y60000D02*
D03*
Y65000D02*
D03*
X37500Y35000D02*
D03*
Y40000D02*
D03*
Y45000D02*
D03*
Y50000D02*
D03*
Y55000D02*
D03*
Y60000D02*
D03*
Y65000D02*
D03*
X42500Y35000D02*
D03*
Y40000D02*
D03*
Y45000D02*
D03*
Y50000D02*
D03*
Y55000D02*
D03*
Y60000D02*
D03*
Y65000D02*
D03*
X47500Y35000D02*
D03*
Y40000D02*
D03*
Y45000D02*
D03*
Y50000D02*
D03*
Y55000D02*
D03*
Y60000D02*
D03*
Y65000D02*
D03*
X52500Y35000D02*
D03*
Y40000D02*
D03*
Y45000D02*
D03*
Y50000D02*
D03*
Y55000D02*
D03*
Y60000D02*
D03*
Y65000D02*
D03*
X57500Y35000D02*
D03*
Y40000D02*
D03*
Y45000D02*
D03*
Y50000D02*
D03*
Y55000D02*
D03*
Y60000D02*
D03*
Y65000D02*
D03*
D14*
X80000Y173555D02*
D03*
Y180445D02*
D03*
X72000Y173555D02*
D03*
Y180445D02*
D03*
X6000Y83555D02*
D03*
Y90445D02*
D03*
Y102555D02*
D03*
Y109445D02*
D03*
D15*
X136225Y144454D02*
D03*
X133998Y146681D02*
D03*
X131771Y148908D02*
D03*
X129544Y151136D02*
D03*
X127317Y153363D02*
D03*
X125090Y155590D02*
D03*
X122863Y157817D02*
D03*
X120635Y160044D02*
D03*
X118408Y162271D02*
D03*
X116181Y164498D02*
D03*
X113954Y166725D02*
D03*
X82775Y135546D02*
D03*
X85002Y133319D02*
D03*
X87229Y131092D02*
D03*
X89456Y128865D02*
D03*
X91683Y126637D02*
D03*
X93910Y124410D02*
D03*
X96137Y122183D02*
D03*
X98365Y119956D02*
D03*
X100592Y117729D02*
D03*
X102819Y115502D02*
D03*
X105046Y113275D02*
D03*
D16*
Y166725D02*
D03*
X102819Y164498D02*
D03*
X100592Y162271D02*
D03*
X98365Y160044D02*
D03*
X96137Y157817D02*
D03*
X93910Y155590D02*
D03*
X91683Y153363D02*
D03*
X89456Y151136D02*
D03*
X87229Y148908D02*
D03*
X85002Y146681D02*
D03*
X82775Y144454D02*
D03*
X113954Y113275D02*
D03*
X116181Y115502D02*
D03*
X118408Y117729D02*
D03*
X120635Y119956D02*
D03*
X122863Y122183D02*
D03*
X125090Y124410D02*
D03*
X127317Y126637D02*
D03*
X129544Y128865D02*
D03*
X131771Y131092D02*
D03*
X133998Y133319D02*
D03*
X136225Y135546D02*
D03*
D17*
X215000Y141000D02*
D03*
X239803D02*
D03*
X215000Y155961D02*
D03*
X239803D02*
D03*
X240000Y131000D02*
D03*
X215197D02*
D03*
X240000Y116039D02*
D03*
X215197D02*
D03*
D18*
X209555Y29000D02*
D03*
X216445D02*
D03*
X28555Y152500D02*
D03*
X35445D02*
D03*
X28555Y160000D02*
D03*
X35445D02*
D03*
X28555Y175000D02*
D03*
X35445D02*
D03*
X28555Y167500D02*
D03*
X35445D02*
D03*
X28555Y182500D02*
D03*
X35445D02*
D03*
X28555Y145000D02*
D03*
X35445D02*
D03*
X158055Y11000D02*
D03*
X164945D02*
D03*
X41945Y25500D02*
D03*
X35055D02*
D03*
D19*
X103602Y81500D02*
D03*
X116398D02*
D03*
D20*
X129000Y23500D02*
D03*
X138000D02*
D03*
X129000Y32500D02*
D03*
Y41500D02*
D03*
X156000Y23500D02*
D03*
X147000D02*
D03*
X165000D02*
D03*
Y41500D02*
D03*
Y32500D02*
D03*
D21*
X133500Y59500D02*
D03*
X151500D02*
D03*
D22*
X165000Y55000D02*
D03*
D23*
X6500Y144882D02*
D03*
Y155118D02*
D03*
Y162882D02*
D03*
Y173118D02*
D03*
Y126882D02*
D03*
Y137118D02*
D03*
D24*
X131665Y173789D02*
D03*
X133335Y163211D02*
D03*
X137789Y167665D02*
D03*
X127211Y169335D02*
D03*
D25*
X8075Y188075D02*
D03*
Y184925D02*
D03*
D26*
X6500Y192405D02*
D03*
Y180595D02*
D03*
D27*
X109500Y52591D02*
D03*
Y71409D02*
D03*
D28*
X52118Y6500D02*
D03*
X41882D02*
D03*
D29*
X22563Y87000D02*
D03*
X30437D02*
D03*
X22563Y106000D02*
D03*
X30437D02*
D03*
M02*
