M48
;Layer_Color=9474304
;FILE_FORMAT=2:5
INCH,LZ
;TYPE=PLATED
T1F00S00C0.01000
T2F00S00C0.01500
T3F00S00C0.02800
T4F00S00C0.03543
T5F00S00C0.04000
T6F00S00C0.04724
T7F00S00C0.05512
T8F00S00C0.05906
T9F00S00C0.07480
;TYPE=NON_PLATED
T10F00S00C0.11811
%
T01
X01575Y003
Y0035
Y004
Y0045
X01675Y00775
Y00825
X01725
X01525Y0045
Y004
Y0035
Y003
X0147
Y0035
Y004
Y0045
Y005
X014
X0135
Y0045
Y004
Y0035
X014
Y003
X0135
X014Y004
Y0045
X0045Y00425
Y00375
X004
X0035
X003
X0025
X002
X0015
Y00425
X002
X0025
Y00475
X002
Y00525
X0025
Y00625
X003
X002
X0015
Y00525
X001
Y00475
X0015
X001Y00425
Y00375
X004Y00425
Y00475
X0045
Y00625
X00425Y0068
T02
X0155Y005
X019Y013
Y014
X0215Y0124
X0207Y0116
X01475Y01175
X0141
Y0122
X0135Y01125
X013Y0115
X0126546Y01185
X01255Y0144
X0105Y01275
X0088Y0122954
X0092454Y01185
X009Y0105
X0076
Y00825
X01225Y00815
X01355Y00995
X0139Y01025
Y00965
X01425Y00935
X0123Y005
X00585Y00065
X00275Y00945
Y01135
X0035Y01375
X0075Y01325
X008Y01675
X0090046Y0163908
X0094681Y0163727
X00945Y0168363
X0090227Y0159273
X0101Y01775
X01075
X00975Y0182
X01015Y0191
X01235Y0174
X01385Y01745
X0151Y0175
X01535Y01715
Y01785
X015Y0182
X0148Y0165
X0145Y016
Y01495
X0148Y01525
X00645Y01675
X00595
X00545
X0156Y0168
X01605
X0185Y0184
X01885Y0187
X0192Y0184
X01955Y0187
X01985Y0184
X0207Y0158
X0214803Y0148961
X0215087Y0247087
T03
X0215Y-0026
X0065Y00565
X0038Y019
T04
X0232126Y-0035827
Y-0025827
Y-0015827
X0242126
Y-0025827
Y-0035827
X0185Y0105
X0175
Y0115
X0185
Y0125
X0175
Y0135
X0185
Y0145
X0175
Y0155
X0185
Y0165
X0175
Y0175
X0185
X0232126Y0237087
Y0247087
Y0257087
X0242126
Y0247087
Y0237087
T05
X021Y0040236
Y0050236
Y0060236
Y0070236
Y0080236
Y0090236
Y0100236
X024
Y0090236
Y0080236
Y0070236
Y0060236
Y0050236
Y0040236
X0153Y0202394
Y0212394
X0143
Y0202394
X0133
Y0212394
X0123
Y0202394
X0113
Y0212394
X0103
Y0202394
X0093
Y0212394
X0083
Y0202394
X0073
Y0212394
X0063
Y0202394
X0053
Y0212394
X0043
Y0202394
X0033
Y0212394
X0163
X0173
X0183
X0193
X0203
X0213
X0223
Y0202394
X0213
X0203
X0193
X0183
X0173
X0163
X0213Y018
Y017
X0223
Y018
X0233
Y017
T06
X0008Y00745
Y0117807
T07
X0037252Y0016
X0053
T08
X00685Y0006
X0076Y00435
X00945
X0113
X01205Y0006
T09
X004737Y0086311
Y0105996
T10
X0242126Y0014173
X001378
Y0207087
X0242126
M30
