G04 Layer_Color=8388736*
%FSLAX25Y25*%
%MOIN*%
G70*
G01*
G75*
%ADD34R,0.05131X0.06312*%
%ADD35R,0.04737X0.07493*%
%ADD36R,0.05249X0.10406*%
%ADD37R,0.06863X0.07493*%
%ADD38O,0.04343X0.01587*%
%ADD39O,0.01587X0.04343*%
%ADD40C,0.06800*%
%ADD41C,0.24409*%
%ADD42C,0.06706*%
%ADD43R,0.06706X0.06706*%
%ADD44C,0.03800*%
%ADD45C,0.03300*%
%ADD46C,0.04800*%
D34*
X92047Y-22000D02*
D03*
X97953D02*
D03*
X92047Y-15000D02*
D03*
X97953D02*
D03*
D35*
X-77961Y-9236D02*
D03*
Y-34039D02*
D03*
X-63000Y-9236D02*
D03*
Y-34039D02*
D03*
X-77961Y33764D02*
D03*
Y8961D02*
D03*
X-63000Y33764D02*
D03*
Y8961D02*
D03*
X-77961Y-52236D02*
D03*
Y-77039D02*
D03*
X-63000Y-52236D02*
D03*
Y-77039D02*
D03*
X-77961Y76764D02*
D03*
Y51961D02*
D03*
X-63000Y76764D02*
D03*
Y51961D02*
D03*
D36*
X80000Y-69000D02*
D03*
X70000D02*
D03*
X90000D02*
D03*
X100000D02*
D03*
X70000Y-102858D02*
D03*
X80000D02*
D03*
X90000D02*
D03*
X100000D02*
D03*
D37*
X30000Y0D02*
D03*
D38*
X36425Y3937D02*
D03*
Y2362D02*
D03*
Y787D02*
D03*
Y-787D02*
D03*
Y-2362D02*
D03*
Y-3937D02*
D03*
X23575D02*
D03*
Y-2362D02*
D03*
Y-787D02*
D03*
Y787D02*
D03*
Y2362D02*
D03*
Y3937D02*
D03*
D39*
X33937Y-6425D02*
D03*
X32362D02*
D03*
X30787D02*
D03*
X29213D02*
D03*
X27638D02*
D03*
X26063D02*
D03*
Y6425D02*
D03*
X27638D02*
D03*
X29213D02*
D03*
X30787D02*
D03*
X32362D02*
D03*
X33937D02*
D03*
D40*
X35000Y-15000D02*
D03*
X45000D02*
D03*
X25000D02*
D03*
X65000D02*
D03*
Y-5000D02*
D03*
Y5000D02*
D03*
Y15000D02*
D03*
X5000Y-15000D02*
D03*
Y-5000D02*
D03*
Y5000D02*
D03*
Y15000D02*
D03*
X-15000Y68898D02*
D03*
X-25000D02*
D03*
X-35000D02*
D03*
X-45000D02*
D03*
D41*
X-71220Y96850D02*
D03*
X157126D02*
D03*
Y-96063D02*
D03*
X-71220D02*
D03*
D42*
X90000Y64764D02*
D03*
X100000D02*
D03*
X90000Y54764D02*
D03*
X100000D02*
D03*
X90000Y44764D02*
D03*
X100000D02*
D03*
X90000Y34764D02*
D03*
X100000D02*
D03*
X90000Y24764D02*
D03*
X100000D02*
D03*
X90000Y14764D02*
D03*
X100000D02*
D03*
X90000Y4764D02*
D03*
X100000D02*
D03*
X90000Y-5236D02*
D03*
D43*
X100000D02*
D03*
D44*
X65000Y45000D02*
D03*
X70339Y-25000D02*
D03*
X62000Y-41000D02*
D03*
X70000D02*
D03*
X74000D02*
D03*
X66000D02*
D03*
X98614Y-55614D02*
D03*
D45*
X30000Y-11000D02*
D03*
X17638Y2362D02*
D03*
X45000Y-1213D02*
D03*
X52000Y2362D02*
D03*
X45000Y-5362D02*
D03*
X15000Y-787D02*
D03*
D46*
X70000Y-80000D02*
D03*
X80000D02*
D03*
X90000D02*
D03*
X100000D02*
D03*
X-63000Y46000D02*
D03*
Y-40000D02*
D03*
Y-46276D02*
D03*
Y39764D02*
D03*
X109858Y-102858D02*
D03*
M02*
