G04 Layer_Color=32896*
%FSLAX25Y25*%
%MOIN*%
G70*
G01*
G75*
%ADD16C,0.01000*%
%ADD30C,0.00984*%
%ADD33C,0.00787*%
%ADD53C,0.02362*%
%ADD54C,0.00394*%
D16*
X73300Y-103936D02*
Y-99937D01*
X71301D01*
X70634Y-100604D01*
Y-101937D01*
X71301Y-102603D01*
X73300D01*
X71967D02*
X70634Y-103936D01*
X67302D02*
Y-99937D01*
X69301Y-101937D01*
X66636D01*
X83300Y-103936D02*
Y-99937D01*
X81301D01*
X80634Y-100604D01*
Y-101937D01*
X81301Y-102603D01*
X83300D01*
X81967D02*
X80634Y-103936D01*
X79301Y-100604D02*
X78635Y-99937D01*
X77302D01*
X76635Y-100604D01*
Y-101270D01*
X77302Y-101937D01*
X77968D01*
X77302D01*
X76635Y-102603D01*
Y-103270D01*
X77302Y-103936D01*
X78635D01*
X79301Y-103270D01*
X93300Y-103936D02*
Y-99937D01*
X91301D01*
X90634Y-100604D01*
Y-101937D01*
X91301Y-102603D01*
X93300D01*
X91967D02*
X90634Y-103936D01*
X86636D02*
X89301D01*
X86636Y-101270D01*
Y-100604D01*
X87302Y-99937D01*
X88635D01*
X89301Y-100604D01*
X102700Y-103936D02*
Y-99937D01*
X100701D01*
X100034Y-100604D01*
Y-101937D01*
X100701Y-102603D01*
X102700D01*
X101367D02*
X100034Y-103936D01*
X98701D02*
X97368D01*
X98035D01*
Y-99937D01*
X98701Y-100604D01*
X77999Y-27000D02*
X74666D01*
X74000Y-26334D01*
Y-25001D01*
X74666Y-24334D01*
X77999D01*
X74000Y-23001D02*
Y-21668D01*
Y-22335D01*
X77999D01*
X77332Y-23001D01*
X-38100Y-52036D02*
Y-48037D01*
X-40099D01*
X-40766Y-48704D01*
Y-50037D01*
X-40099Y-50703D01*
X-38100D01*
X-39433D02*
X-40766Y-52036D01*
X-42099D02*
X-43432D01*
X-42765D01*
Y-48037D01*
X-42099Y-48704D01*
X-48097Y-52036D02*
X-45431D01*
X-48097Y-49370D01*
Y-48704D01*
X-47430Y-48037D01*
X-46097D01*
X-45431Y-48704D01*
X-41400Y47964D02*
Y51963D01*
X-43399D01*
X-44066Y51296D01*
Y49963D01*
X-43399Y49297D01*
X-41400D01*
X-42733D02*
X-44066Y47964D01*
X-45399Y48630D02*
X-46065Y47964D01*
X-47398D01*
X-48065Y48630D01*
Y51296D01*
X-47398Y51963D01*
X-46065D01*
X-45399Y51296D01*
Y50630D01*
X-46065Y49963D01*
X-48065D01*
X-39400Y-38036D02*
Y-34038D01*
X-41399D01*
X-42066Y-34704D01*
Y-36037D01*
X-41399Y-36703D01*
X-39400D01*
X-40733D02*
X-42066Y-38036D01*
X-43399D02*
X-44732D01*
X-44065D01*
Y-34038D01*
X-43399Y-34704D01*
X-46731Y-38036D02*
X-48064D01*
X-47397D01*
Y-34038D01*
X-46731Y-34704D01*
X-38100Y33964D02*
Y37962D01*
X-40099D01*
X-40766Y37296D01*
Y35963D01*
X-40099Y35297D01*
X-38100D01*
X-39433D02*
X-40766Y33964D01*
X-42099D02*
X-43432D01*
X-42765D01*
Y37962D01*
X-42099Y37296D01*
X-45431D02*
X-46097Y37962D01*
X-47430D01*
X-48097Y37296D01*
Y34630D01*
X-47430Y33964D01*
X-46097D01*
X-45431Y34630D01*
Y37296D01*
X102500Y-74500D02*
Y-70501D01*
X100501D01*
X99834Y-71168D01*
Y-72501D01*
X100501Y-73167D01*
X102500D01*
X101167D02*
X99834Y-74500D01*
X95836Y-70501D02*
X97168Y-71168D01*
X98501Y-72501D01*
Y-73834D01*
X97835Y-74500D01*
X96502D01*
X95836Y-73834D01*
Y-73167D01*
X96502Y-72501D01*
X98501D01*
X96500Y-36000D02*
X100499D01*
Y-34001D01*
X99832Y-33334D01*
X98499D01*
X97833Y-34001D01*
Y-36000D01*
Y-34667D02*
X96500Y-33334D01*
X100499Y-29335D02*
Y-32001D01*
X98499D01*
X99166Y-30668D01*
Y-30002D01*
X98499Y-29335D01*
X97166D01*
X96500Y-30002D01*
Y-31335D01*
X97166Y-32001D01*
X76332Y19330D02*
X76999Y18663D01*
Y17330D01*
X76332Y16664D01*
X73666D01*
X73000Y17330D01*
Y18663D01*
X73666Y19330D01*
X76999Y23328D02*
Y20662D01*
X74999D01*
X75666Y21995D01*
Y22662D01*
X74999Y23328D01*
X73666D01*
X73000Y22662D01*
Y21329D01*
X73666Y20662D01*
X83332Y19330D02*
X83999Y18663D01*
Y17330D01*
X83332Y16664D01*
X80666D01*
X80000Y17330D01*
Y18663D01*
X80666Y19330D01*
X83999Y23328D02*
X83332Y21995D01*
X81999Y20662D01*
X80666D01*
X80000Y21329D01*
Y22662D01*
X80666Y23328D01*
X81333D01*
X81999Y22662D01*
Y20662D01*
X42332Y-334D02*
X42999Y-1001D01*
Y-2334D01*
X42332Y-3000D01*
X39666D01*
X39000Y-2334D01*
Y-1001D01*
X39666Y-334D01*
X39000Y3664D02*
Y999D01*
X41666Y3664D01*
X42332D01*
X42999Y2998D01*
Y1665D01*
X42332Y999D01*
X50000Y11000D02*
X53999D01*
Y12999D01*
X53332Y13666D01*
X51999D01*
X51333Y12999D01*
Y11000D01*
Y12333D02*
X50000Y13666D01*
X53999Y14999D02*
Y17664D01*
X53332D01*
X50666Y14999D01*
X50000D01*
X23000Y-28000D02*
Y-24001D01*
X21001D01*
X20334Y-24668D01*
Y-26001D01*
X21001Y-26667D01*
X23000D01*
X21667D02*
X20334Y-28000D01*
X19001Y-24668D02*
X18335Y-24001D01*
X17002D01*
X16335Y-24668D01*
Y-25334D01*
X17002Y-26001D01*
X16335Y-26667D01*
Y-27334D01*
X17002Y-28000D01*
X18335D01*
X19001Y-27334D01*
Y-26667D01*
X18335Y-26001D01*
X19001Y-25334D01*
Y-24668D01*
X18335Y-26001D02*
X17002D01*
X19334Y-18668D02*
X20001Y-18001D01*
X21334D01*
X22000Y-18668D01*
Y-21334D01*
X21334Y-22000D01*
X20001D01*
X19334Y-21334D01*
X18001Y-22000D02*
X16668D01*
X17335D01*
Y-18001D01*
X18001Y-18668D01*
D30*
X96118Y-55614D02*
G03*
X96118Y-55614I-492J0D01*
G01*
D33*
X62949Y-51284D02*
X94051D01*
X62949Y-36716D02*
X94051D01*
Y-51284D02*
Y-36716D01*
X62949Y-51284D02*
Y-36716D01*
D53*
X91295Y-47346D02*
G03*
X91295Y-47346I-1181J0D01*
G01*
D54*
X73740Y-96693D02*
Y-83307D01*
X66260D02*
X73740D01*
X66260Y-96693D02*
Y-83307D01*
Y-96693D02*
X73740D01*
X83740D02*
Y-83307D01*
X76260D02*
X83740D01*
X76260Y-96693D02*
Y-83307D01*
Y-96693D02*
X83740D01*
X93740D02*
Y-83307D01*
X86260D02*
X93740D01*
X86260Y-96693D02*
Y-83307D01*
Y-96693D02*
X93740D01*
X103740D02*
Y-83307D01*
X96260D02*
X103740D01*
X96260Y-96693D02*
Y-83307D01*
Y-96693D02*
X103740D01*
X-51260Y-56693D02*
Y-43307D01*
X-58740D02*
X-51260D01*
X-58740Y-56693D02*
Y-43307D01*
Y-56693D02*
X-51260D01*
X-58740Y43307D02*
Y56693D01*
Y43307D02*
X-51260D01*
Y56693D01*
X-58740D02*
X-51260D01*
X-58740Y-42693D02*
Y-29307D01*
Y-42693D02*
X-51260D01*
Y-29307D01*
X-58740D02*
X-51260D01*
Y29307D02*
Y42693D01*
X-58740D02*
X-51260D01*
X-58740Y29307D02*
Y42693D01*
Y29307D02*
X-51260D01*
X89807Y-67740D02*
X103193D01*
Y-60260D01*
X89807D02*
X103193D01*
X89807Y-67740D02*
Y-60260D01*
X102740Y-50693D02*
Y-37307D01*
X95260D02*
X102740D01*
X95260Y-50693D02*
Y-37307D01*
Y-50693D02*
X102740D01*
X36693Y-3740D02*
Y3740D01*
X23307Y-3740D02*
X36693D01*
X23307D02*
Y3740D01*
X36693D01*
X41260Y7307D02*
X48740D01*
X41260D02*
Y20693D01*
X48740D01*
Y7307D02*
Y20693D01*
X1752Y-21260D02*
X15138D01*
X1752Y-28740D02*
Y-21260D01*
Y-28740D02*
X15138D01*
Y-21260D01*
X11260Y-16693D02*
X18740D01*
X11260D02*
Y-3307D01*
X18740D01*
Y-16693D02*
Y-3307D01*
M02*
