G04 Layer_Color=32768*
%FSLAX25Y25*%
%MOIN*%
G70*
G01*
G75*
%ADD54C,0.00394*%
%ADD55C,0.00197*%
D54*
X92476Y-49315D02*
G03*
X92476Y-49315I-1969J0D01*
G01*
X70000Y-91969D02*
Y-88032D01*
X68032Y-90000D02*
X71969D01*
X67343Y-94331D02*
Y-85669D01*
X72658Y-94331D02*
Y-85669D01*
X67343D02*
X72658D01*
X67343Y-94331D02*
X72658D01*
X80000Y-91969D02*
Y-88032D01*
X78031Y-90000D02*
X81968D01*
X77342Y-94331D02*
Y-85669D01*
X82657Y-94331D02*
Y-85669D01*
X77342D02*
X82657D01*
X77342Y-94331D02*
X82657D01*
X90000Y-91969D02*
Y-88032D01*
X88032Y-90000D02*
X91969D01*
X87343Y-94331D02*
Y-85669D01*
X92658Y-94331D02*
Y-85669D01*
X87343D02*
X92658D01*
X87343Y-94331D02*
X92658D01*
X100000Y-91969D02*
Y-88032D01*
X98032Y-90000D02*
X101969D01*
X97342Y-94331D02*
Y-85669D01*
X102657Y-94331D02*
Y-85669D01*
X97342D02*
X102657D01*
X97342Y-94331D02*
X102657D01*
X62949Y-35142D02*
X94051D01*
X62949Y-52858D02*
X94051D01*
X62949D02*
Y-35142D01*
X94051Y-52858D02*
Y-35142D01*
X78500Y-45968D02*
Y-42031D01*
X76531Y-44000D02*
X80468D01*
X-55000Y-51968D02*
Y-48031D01*
X-56968Y-50000D02*
X-53031D01*
X-57657Y-54331D02*
Y-45669D01*
X-52342Y-54331D02*
Y-45669D01*
X-57657D02*
X-52342D01*
X-57657Y-54331D02*
X-52342D01*
X-55000Y48031D02*
Y51968D01*
X-56968Y50000D02*
X-53031D01*
X-52342Y45669D02*
Y54331D01*
X-57657Y45669D02*
Y54331D01*
Y45669D02*
X-52342D01*
X-57657Y54331D02*
X-52342D01*
X-55000Y-37969D02*
Y-34032D01*
X-56968Y-36000D02*
X-53031D01*
X-52342Y-40331D02*
Y-31669D01*
X-57657Y-40331D02*
Y-31669D01*
Y-40331D02*
X-52342D01*
X-57657Y-31669D02*
X-52342D01*
X-55000Y34032D02*
Y37969D01*
X-56968Y36000D02*
X-53031D01*
X-57657Y31669D02*
Y40331D01*
X-52342Y31669D02*
Y40331D01*
X-57657D02*
X-52342D01*
X-57657Y31669D02*
X-52342D01*
X94532Y-64000D02*
X98469D01*
X96500Y-65969D02*
Y-62032D01*
X92169Y-61343D02*
X100831D01*
X92169Y-66658D02*
X100831D01*
Y-61343D01*
X92169Y-66658D02*
Y-61343D01*
X99000Y-45968D02*
Y-42031D01*
X97031Y-44000D02*
X100969D01*
X96342Y-48331D02*
Y-39669D01*
X101657Y-48331D02*
Y-39669D01*
X96342D02*
X101657D01*
X96342Y-48331D02*
X101657D01*
X73032Y8000D02*
X76968D01*
X75000Y6032D02*
Y9968D01*
X78150Y2488D02*
Y13512D01*
X71850Y2488D02*
Y13512D01*
Y2488D02*
X78150D01*
X71850Y13512D02*
X78150D01*
X80032Y8000D02*
X83969D01*
X82000Y6032D02*
Y9968D01*
X85150Y2488D02*
Y13512D01*
X78850Y2488D02*
Y13512D01*
Y2488D02*
X85150D01*
X78850Y13512D02*
X85150D01*
X28032Y0D02*
X31969D01*
X30000Y-1969D02*
Y1969D01*
X25669Y2657D02*
X34331D01*
X25669Y-2657D02*
X34331D01*
X25669D02*
Y2657D01*
X34331Y-2657D02*
Y2657D01*
X95000Y-23968D02*
Y-20031D01*
X93032Y-22000D02*
X96969D01*
X89488Y-18850D02*
X100512D01*
X89488Y-25150D02*
X100512D01*
X89488D02*
Y-18850D01*
X100512Y-25150D02*
Y-18850D01*
X95000Y-16969D02*
Y-13032D01*
X93032Y-15000D02*
X96969D01*
X89488Y-11850D02*
X100512D01*
X89488Y-18150D02*
X100512D01*
X89488D02*
Y-11850D01*
X100512Y-18150D02*
Y-11850D01*
X42342Y9669D02*
X47657D01*
X42342Y18331D02*
X47657D01*
Y9669D02*
Y18331D01*
X42342Y9669D02*
Y18331D01*
X43031Y14000D02*
X46968D01*
X45000Y12032D02*
Y15969D01*
X6476Y-25000D02*
X10413D01*
X8445Y-26969D02*
Y-23031D01*
X4114Y-27657D02*
X12776D01*
X4114Y-22343D02*
X12776D01*
X4114Y-27657D02*
Y-22343D01*
X12776Y-27657D02*
Y-22343D01*
X15000Y-11969D02*
Y-8032D01*
X13032Y-10000D02*
X16969D01*
X17658Y-14331D02*
Y-5669D01*
X12342Y-14331D02*
Y-5669D01*
X17658D01*
X12342Y-14331D02*
X17658D01*
X28032Y0D02*
X31969D01*
X30000Y-1969D02*
Y1969D01*
D55*
X66260Y-96693D02*
X73740D01*
X66260Y-83307D02*
X73740D01*
Y-96693D02*
Y-83307D01*
X66260Y-96693D02*
Y-83307D01*
X76260Y-96693D02*
X83740D01*
X76260Y-83307D02*
X83740D01*
Y-96693D02*
Y-83307D01*
X76260Y-96693D02*
Y-83307D01*
X86260Y-96693D02*
X93740D01*
X86260Y-83307D02*
X93740D01*
Y-96693D02*
Y-83307D01*
X86260Y-96693D02*
Y-83307D01*
X96260Y-96693D02*
X103740D01*
X96260Y-83307D02*
X103740D01*
Y-96693D02*
Y-83307D01*
X96260Y-96693D02*
Y-83307D01*
X61965Y-59354D02*
X95035D01*
X61965Y-28646D02*
X95035D01*
Y-59354D02*
Y-28646D01*
X61965Y-59354D02*
Y-28646D01*
X-58740Y-56693D02*
X-51260D01*
X-58740Y-43307D02*
X-51260D01*
Y-56693D02*
Y-43307D01*
X-58740Y-56693D02*
Y-43307D01*
Y56693D02*
X-51260D01*
X-58740Y43307D02*
X-51260D01*
X-58740D02*
Y56693D01*
X-51260Y43307D02*
Y56693D01*
X-58740Y-29307D02*
X-51260D01*
X-58740Y-42693D02*
X-51260D01*
X-58740D02*
Y-29307D01*
X-51260Y-42693D02*
Y-29307D01*
X-58740Y29307D02*
X-51260D01*
X-58740Y42693D02*
X-51260D01*
Y29307D02*
Y42693D01*
X-58740Y29307D02*
Y42693D01*
X89807Y-67740D02*
Y-60260D01*
X103193Y-67740D02*
Y-60260D01*
X89807Y-67740D02*
X103193D01*
X89807Y-60260D02*
X103193D01*
X95260Y-50693D02*
X102740D01*
X95260Y-37307D02*
X102740D01*
Y-50693D02*
Y-37307D01*
X95260Y-50693D02*
Y-37307D01*
X36693Y-3740D02*
Y3740D01*
X23307Y-3740D02*
Y3740D01*
X36693D01*
X23307Y-3740D02*
X36693D01*
X41260Y7307D02*
Y20693D01*
X48740Y7307D02*
Y20693D01*
X41260D02*
X48740D01*
X41260Y7307D02*
X48740D01*
X15138Y-28740D02*
Y-21260D01*
X1752Y-28740D02*
Y-21260D01*
X15138D01*
X1752Y-28740D02*
X15138D01*
X11260Y-16693D02*
X18740D01*
X11260Y-3307D02*
X18740D01*
Y-16693D02*
Y-3307D01*
X11260Y-16693D02*
Y-3307D01*
X20354Y-9646D02*
Y9646D01*
X39646Y-9646D02*
Y9646D01*
X20354Y-9646D02*
X39646D01*
X20354Y9646D02*
X39646D01*
M02*
