G04 Layer_Physical_Order=2*
G04 Layer_Color=16711680*
%FSLAX25Y25*%
%MOIN*%
G70*
G01*
G75*
%ADD16C,0.01000*%
%ADD17C,0.06000*%
%ADD18C,0.11811*%
%ADD19C,0.05906*%
%ADD20R,0.05906X0.05906*%
%ADD21C,0.03000*%
%ADD22C,0.02500*%
%ADD23C,0.04000*%
%ADD24R,0.05315X0.04528*%
%ADD25R,0.01575X0.05512*%
%ADD26R,0.04528X0.05315*%
%ADD27R,0.05512X0.04331*%
%ADD28R,0.04528X0.05512*%
%ADD29R,0.05512X0.04528*%
G36*
X71244Y8374D02*
Y1882D01*
X85756D01*
Y3518D01*
X86238D01*
X86547Y2770D01*
X87181Y1945D01*
X88007Y1311D01*
X88968Y913D01*
X90000Y777D01*
X91032Y913D01*
X91496Y1105D01*
X93471Y-870D01*
Y-2445D01*
X92971Y-2615D01*
X92819Y-2417D01*
X91993Y-1784D01*
X91032Y-1385D01*
X90000Y-1249D01*
X88968Y-1385D01*
X88007Y-1784D01*
X87181Y-2417D01*
X86547Y-3243D01*
X86149Y-4204D01*
X86013Y-5236D01*
X86149Y-6268D01*
X86547Y-7230D01*
X87181Y-8055D01*
X88007Y-8689D01*
X88968Y-9087D01*
X90000Y-9223D01*
X91032Y-9087D01*
X91993Y-8689D01*
X92819Y-8055D01*
X92971Y-7858D01*
X93471Y-8028D01*
Y-10236D01*
X93587Y-10821D01*
X93919Y-11318D01*
X97471Y-14870D01*
Y-30856D01*
X94362D01*
Y-28630D01*
X91545D01*
Y-27016D01*
X91429Y-26430D01*
X91097Y-25934D01*
X71529Y-6367D01*
Y0D01*
X71413Y585D01*
X71081Y1081D01*
X68695Y3468D01*
X68897Y3956D01*
X69034Y5000D01*
X68897Y6044D01*
X68695Y6532D01*
X70744Y8581D01*
X71244Y8374D01*
D02*
G37*
G36*
X97471Y-37291D02*
X95342D01*
Y-43819D01*
X95342D01*
Y-44181D01*
X95342D01*
Y-50709D01*
X97085D01*
Y-53629D01*
X96812Y-53812D01*
X96629Y-54085D01*
X94362D01*
Y-51858D01*
X91545D01*
Y-48555D01*
Y-39020D01*
X92085Y-38913D01*
X92581Y-38581D01*
X93656Y-37507D01*
X93988Y-37010D01*
X94104Y-36425D01*
Y-36142D01*
X94362D01*
Y-33915D01*
X97471D01*
Y-37291D01*
D02*
G37*
G36*
X103471Y-42660D02*
Y-59951D01*
X103209Y-60343D01*
X96681D01*
Y-60343D01*
X96319D01*
Y-60343D01*
X89791D01*
Y-62471D01*
X89134D01*
X88986Y-62323D01*
Y-59370D01*
X94362D01*
Y-57144D01*
X96629D01*
X96812Y-57417D01*
X97639Y-57969D01*
X98614Y-58163D01*
X99590Y-57969D01*
X100417Y-57417D01*
X100969Y-56590D01*
X101163Y-55614D01*
X100969Y-54639D01*
X100417Y-53812D01*
X100144Y-53629D01*
Y-50709D01*
X102657D01*
Y-44181D01*
X102657D01*
Y-43819D01*
X102657D01*
Y-42527D01*
X103088Y-42349D01*
X103471Y-42660D01*
D02*
G37*
G36*
X161111Y108538D02*
X163046Y107951D01*
X164828Y106998D01*
X166391Y105716D01*
X167673Y104154D01*
X168626Y102371D01*
X169213Y100437D01*
X169399Y98541D01*
X169376Y98425D01*
Y94575D01*
X169396Y94477D01*
X169207Y92563D01*
X168620Y90629D01*
X167667Y88846D01*
X166385Y87284D01*
X164823Y86002D01*
X163040Y85049D01*
X161106Y84462D01*
X159587Y84313D01*
X159095Y84293D01*
X159094Y84293D01*
X158684Y84218D01*
X158239Y84207D01*
X158118D01*
X119724Y84207D01*
Y84218D01*
X117636Y84054D01*
X115598Y83565D01*
X113663Y82763D01*
X111876Y81668D01*
X110283Y80308D01*
X108922Y78714D01*
X107827Y76928D01*
X107026Y74992D01*
X106537Y72955D01*
X106372Y70866D01*
X106384D01*
Y-40514D01*
X105884Y-40721D01*
X104637Y-39474D01*
X104140Y-39142D01*
X103555Y-39026D01*
X102657D01*
Y-37291D01*
X100529D01*
Y-32386D01*
Y-14236D01*
X100413Y-13651D01*
X100081Y-13155D01*
X96616Y-9689D01*
X96738Y-9189D01*
X99500D01*
Y-5236D01*
Y-1283D01*
X96529D01*
Y-236D01*
X96413Y349D01*
X96081Y845D01*
X93659Y3268D01*
X93851Y3732D01*
X93987Y4764D01*
X93851Y5796D01*
X93453Y6757D01*
X92819Y7583D01*
X91993Y8217D01*
X91032Y8615D01*
X90000Y8751D01*
X88968Y8615D01*
X88007Y8217D01*
X87181Y7583D01*
X86547Y6757D01*
X86472Y6577D01*
X85756D01*
Y7787D01*
Y10453D01*
X82000D01*
Y10953D01*
X81500D01*
Y14118D01*
X75500D01*
Y10953D01*
X74500D01*
Y14118D01*
X71529D01*
Y44130D01*
X88504Y61105D01*
X88968Y60913D01*
X90000Y60777D01*
X91032Y60913D01*
X91993Y61311D01*
X92819Y61945D01*
X93453Y62770D01*
X93851Y63732D01*
X93987Y64764D01*
X93851Y65796D01*
X93453Y66757D01*
X92819Y67583D01*
X91993Y68217D01*
X91032Y68615D01*
X90000Y68751D01*
X88968Y68615D01*
X88504Y68423D01*
X80845Y76081D01*
X80349Y76413D01*
X79764Y76529D01*
X-8898D01*
X-9483Y76413D01*
X-9979Y76081D01*
X-13468Y72593D01*
X-13956Y72795D01*
X-15000Y72932D01*
X-16044Y72795D01*
X-17017Y72392D01*
X-17853Y71750D01*
X-18494Y70915D01*
X-18897Y69942D01*
X-19035Y68898D01*
X-18897Y67853D01*
X-18494Y66880D01*
X-17853Y66045D01*
X-17017Y65404D01*
X-16044Y65001D01*
X-15000Y64863D01*
X-13956Y65001D01*
X-12983Y65404D01*
X-12147Y66045D01*
X-11506Y66880D01*
X-11103Y67853D01*
X-10966Y68898D01*
X-11103Y69942D01*
X-11305Y70430D01*
X-8264Y73471D01*
X79130D01*
X86341Y66260D01*
X86149Y65796D01*
X86013Y64764D01*
X86149Y63732D01*
X86341Y63268D01*
X68919Y45845D01*
X68587Y45349D01*
X68471Y44764D01*
Y17826D01*
X67997Y17665D01*
X67853Y17853D01*
X67017Y18494D01*
X66529Y18696D01*
Y43015D01*
X66802Y43198D01*
X67355Y44025D01*
X67549Y45000D01*
X67355Y45976D01*
X66802Y46802D01*
X65975Y47355D01*
X65000Y47549D01*
X64025Y47355D01*
X63198Y46802D01*
X62645Y45976D01*
X62451Y45000D01*
X62645Y44025D01*
X63198Y43198D01*
X63471Y43015D01*
Y18696D01*
X62983Y18494D01*
X62147Y17853D01*
X61506Y17017D01*
X61103Y16044D01*
X60966Y15000D01*
X61103Y13956D01*
X61305Y13468D01*
X52412Y4574D01*
X52000Y4656D01*
X51122Y4482D01*
X50378Y3984D01*
X49880Y3240D01*
X49706Y2362D01*
X49880Y1484D01*
X50378Y740D01*
X50471Y678D01*
Y-2000D01*
X50587Y-2585D01*
X50919Y-3081D01*
X58919Y-11081D01*
X59415Y-11413D01*
X60000Y-11529D01*
X62174D01*
X62335Y-12003D01*
X62147Y-12147D01*
X61506Y-12983D01*
X61103Y-13956D01*
X61031Y-14500D01*
X65000D01*
X68969D01*
X68897Y-13956D01*
X68494Y-12983D01*
X67853Y-12147D01*
X67665Y-12003D01*
X67826Y-11529D01*
X69367D01*
X80808Y-22971D01*
X80601Y-23471D01*
X72323D01*
X72141Y-23198D01*
X71314Y-22645D01*
X70339Y-22451D01*
X69363Y-22645D01*
X68536Y-23198D01*
X67984Y-24024D01*
X67790Y-25000D01*
X67984Y-25975D01*
X68536Y-26802D01*
X69363Y-27355D01*
X70339Y-27549D01*
X71314Y-27355D01*
X72141Y-26802D01*
X72323Y-26529D01*
X80366D01*
X80809Y-26972D01*
Y-28630D01*
X80279D01*
Y-32386D01*
Y-36142D01*
X83368D01*
Y-36398D01*
X83485Y-36983D01*
X83816Y-37479D01*
X84919Y-38581D01*
X85415Y-38913D01*
X86000Y-39029D01*
X88486D01*
Y-47026D01*
X84445D01*
X83860Y-47142D01*
X83363Y-47474D01*
X81257Y-49580D01*
X80926Y-50076D01*
X80809Y-50661D01*
Y-51858D01*
X80279D01*
Y-55614D01*
Y-59370D01*
X84398D01*
Y-55614D01*
X85398D01*
Y-59370D01*
X85927D01*
Y-62957D01*
X86044Y-63542D01*
X86375Y-64038D01*
X87419Y-65081D01*
X87915Y-65413D01*
X88500Y-65529D01*
X89791D01*
Y-67658D01*
X96319D01*
Y-67658D01*
X96681D01*
Y-67658D01*
X103209D01*
X103471Y-68049D01*
Y-79547D01*
X102971Y-79580D01*
X102923Y-79217D01*
X102620Y-78487D01*
X102140Y-77860D01*
X101513Y-77380D01*
X100783Y-77077D01*
X100000Y-76974D01*
X99217Y-77077D01*
X98487Y-77380D01*
X97860Y-77860D01*
X97392Y-78471D01*
X96134D01*
X77495Y-59832D01*
X77686Y-59370D01*
X79280D01*
Y-55614D01*
Y-51858D01*
X77720D01*
Y-55614D01*
X76720D01*
Y-51858D01*
X64925D01*
Y-55614D01*
Y-59370D01*
X65455D01*
Y-76984D01*
X65571Y-77570D01*
X65903Y-78066D01*
X67075Y-79237D01*
X66974Y-80000D01*
X67077Y-80783D01*
X67379Y-81513D01*
X67860Y-82140D01*
X68471Y-82608D01*
Y-83291D01*
X66343D01*
Y-89681D01*
X66343Y-89819D01*
Y-90181D01*
X66343Y-90319D01*
Y-92945D01*
X73658D01*
Y-90319D01*
X73658Y-90181D01*
Y-89819D01*
X73658Y-89681D01*
Y-83291D01*
X71529D01*
Y-82608D01*
X72140Y-82140D01*
X72620Y-81513D01*
X72923Y-80783D01*
X73026Y-80000D01*
X72923Y-79217D01*
X72620Y-78487D01*
X72140Y-77860D01*
X71513Y-77380D01*
X70783Y-77077D01*
X70000Y-76974D01*
X69237Y-77074D01*
X68514Y-76351D01*
Y-71330D01*
X68976Y-71139D01*
X77074Y-79237D01*
X76974Y-80000D01*
X77077Y-80783D01*
X77380Y-81513D01*
X77860Y-82140D01*
X78471Y-82608D01*
Y-83291D01*
X76342D01*
Y-89681D01*
X76342Y-89819D01*
Y-90181D01*
X76342Y-90319D01*
Y-92945D01*
X83657D01*
Y-90319D01*
X83657Y-90181D01*
Y-89819D01*
X83657Y-89681D01*
Y-83291D01*
X81529D01*
Y-82608D01*
X82140Y-82140D01*
X82621Y-81513D01*
X82923Y-80783D01*
X83026Y-80000D01*
X82923Y-79217D01*
X82621Y-78487D01*
X82140Y-77860D01*
X81513Y-77380D01*
X80783Y-77077D01*
X80000Y-76974D01*
X79237Y-77074D01*
X71073Y-68910D01*
Y-63889D01*
X71535Y-63697D01*
X87075Y-79237D01*
X86974Y-80000D01*
X87077Y-80783D01*
X87379Y-81513D01*
X87860Y-82140D01*
X88471Y-82608D01*
Y-83291D01*
X86343D01*
Y-89681D01*
X86343Y-89819D01*
Y-90181D01*
X86343Y-90319D01*
Y-92945D01*
X93657D01*
Y-90319D01*
X93657Y-90181D01*
Y-89819D01*
X93657Y-89681D01*
Y-83291D01*
X91529D01*
Y-82608D01*
X92140Y-82140D01*
X92620Y-81513D01*
X92923Y-80783D01*
X92980Y-80350D01*
X93508Y-80171D01*
X94419Y-81081D01*
X94915Y-81413D01*
X95500Y-81529D01*
X97392D01*
X97860Y-82140D01*
X98471Y-82608D01*
Y-83291D01*
X96342D01*
Y-89819D01*
X96342D01*
Y-90181D01*
X96342D01*
Y-92945D01*
X100000D01*
Y-93445D01*
X100500D01*
Y-96709D01*
X103471D01*
Y-98000D01*
X103587Y-98585D01*
X103919Y-99081D01*
X106933Y-102096D01*
X106832Y-102858D01*
X106936Y-103641D01*
X107238Y-104371D01*
X107719Y-104998D01*
X108345Y-105479D01*
X109075Y-105781D01*
X109858Y-105884D01*
X110641Y-105781D01*
X111371Y-105479D01*
X111998Y-104998D01*
X112479Y-104371D01*
X112781Y-103641D01*
X112884Y-102858D01*
X112781Y-102075D01*
X112479Y-101345D01*
X111998Y-100719D01*
X111371Y-100238D01*
X110641Y-99936D01*
X109858Y-99832D01*
X109096Y-99933D01*
X106529Y-97366D01*
Y-74279D01*
X107026Y-74205D01*
X107827Y-76140D01*
X108922Y-77927D01*
X110283Y-79520D01*
X111876Y-80881D01*
X113663Y-81976D01*
X115598Y-82777D01*
X117636Y-83267D01*
X119724Y-83431D01*
Y-83419D01*
X158916D01*
X159095Y-83455D01*
Y-83455D01*
X159123Y-83428D01*
X161106Y-83624D01*
X163040Y-84210D01*
X164823Y-85163D01*
X166385Y-86445D01*
X167667Y-88008D01*
X168620Y-89790D01*
X169207Y-91725D01*
X169396Y-93639D01*
X169376Y-93736D01*
Y-98425D01*
X169396Y-98523D01*
X169207Y-100437D01*
X168620Y-102371D01*
X167667Y-104154D01*
X166385Y-105716D01*
X164823Y-106998D01*
X163040Y-107951D01*
X161106Y-108538D01*
X159192Y-108726D01*
X159095Y-108707D01*
X-73189D01*
X-73189Y-108707D01*
Y-108707D01*
X-73681Y-108687D01*
X-75200Y-108538D01*
X-77135Y-107951D01*
X-78917Y-106998D01*
X-80480Y-105716D01*
X-81762Y-104154D01*
X-82715Y-102371D01*
X-83302Y-100437D01*
X-83490Y-98523D01*
X-83471Y-98425D01*
Y-92264D01*
Y92264D01*
Y98425D01*
X-83490Y98523D01*
X-83302Y100437D01*
X-82715Y102371D01*
X-81762Y104154D01*
X-80480Y105716D01*
X-78917Y106998D01*
X-77135Y107951D01*
X-75200Y108538D01*
X-73287Y108726D01*
X-73189Y108707D01*
X159100D01*
X159198Y108726D01*
X161111Y108538D01*
D02*
G37*
G36*
X68471Y12174D02*
Y10633D01*
X66532Y8695D01*
X66044Y8897D01*
X65000Y9035D01*
X63956Y8897D01*
X62983Y8494D01*
X62147Y7853D01*
X61506Y7017D01*
X61103Y6044D01*
X60966Y5000D01*
X61103Y3956D01*
X61506Y2983D01*
X62147Y2147D01*
X62983Y1506D01*
X63956Y1103D01*
X65000Y965D01*
X66044Y1103D01*
X66532Y1305D01*
X68471Y-634D01*
Y-2175D01*
X67997Y-2335D01*
X67853Y-2147D01*
X67017Y-1506D01*
X66044Y-1103D01*
X65000Y-965D01*
X63956Y-1103D01*
X62983Y-1506D01*
X62147Y-2147D01*
X61506Y-2983D01*
X61103Y-3956D01*
X60966Y-5000D01*
X61103Y-6044D01*
X61506Y-7017D01*
X62147Y-7853D01*
X62335Y-7997D01*
X62174Y-8471D01*
X60633D01*
X53529Y-1366D01*
Y678D01*
X53622Y740D01*
X54119Y1484D01*
X54237Y2074D01*
X63468Y11305D01*
X63956Y11103D01*
X65000Y10966D01*
X66044Y11103D01*
X67017Y11506D01*
X67853Y12147D01*
X67997Y12335D01*
X68471Y12174D01*
D02*
G37*
%LPC*%
G36*
X34500Y-15500D02*
X31031D01*
X31103Y-16044D01*
X31506Y-17017D01*
X32147Y-17853D01*
X32983Y-18494D01*
X33956Y-18897D01*
X34500Y-18969D01*
Y-15500D01*
D02*
G37*
G36*
X45000Y-10966D02*
X43956Y-11103D01*
X42983Y-11506D01*
X42147Y-12147D01*
X41506Y-12983D01*
X41103Y-13956D01*
X40966Y-15000D01*
X41103Y-16044D01*
X41506Y-17017D01*
X42147Y-17853D01*
X42983Y-18494D01*
X43956Y-18897D01*
X45000Y-19035D01*
X46044Y-18897D01*
X47017Y-18494D01*
X47853Y-17853D01*
X48494Y-17017D01*
X48897Y-16044D01*
X49035Y-15000D01*
X48897Y-13956D01*
X48494Y-12983D01*
X47853Y-12147D01*
X47017Y-11506D01*
X46044Y-11103D01*
X45000Y-10966D01*
D02*
G37*
G36*
X12390Y-21342D02*
Y-24500D01*
X15154D01*
Y-21342D01*
X12390D01*
D02*
G37*
G36*
X15154Y-25500D02*
X12390D01*
Y-28657D01*
X15154D01*
Y-25500D01*
D02*
G37*
G36*
X64500Y-15500D02*
X61031D01*
X61103Y-16044D01*
X61506Y-17017D01*
X62147Y-17853D01*
X62983Y-18494D01*
X63956Y-18897D01*
X64500Y-18969D01*
Y-15500D01*
D02*
G37*
G36*
X35500Y-11031D02*
Y-14500D01*
X38969D01*
X38897Y-13956D01*
X38494Y-12983D01*
X37853Y-12147D01*
X37017Y-11506D01*
X36044Y-11103D01*
X35500Y-11031D01*
D02*
G37*
G36*
X103953Y-5736D02*
X100500D01*
Y-9189D01*
X103953D01*
Y-5736D01*
D02*
G37*
G36*
X44500Y-5862D02*
X42805D01*
X42880Y-6240D01*
X43378Y-6984D01*
X44122Y-7482D01*
X44500Y-7557D01*
Y-5862D01*
D02*
G37*
G36*
X18756Y-13945D02*
X15500D01*
Y-16709D01*
X18756D01*
Y-13945D01*
D02*
G37*
G36*
X38969Y-15500D02*
X35500D01*
Y-18969D01*
X36044Y-18897D01*
X37017Y-18494D01*
X37853Y-17853D01*
X38494Y-17017D01*
X38897Y-16044D01*
X38969Y-15500D01*
D02*
G37*
G36*
X68969D02*
X65500D01*
Y-18969D01*
X66044Y-18897D01*
X67017Y-18494D01*
X67853Y-17853D01*
X68494Y-17017D01*
X68897Y-16044D01*
X68969Y-15500D01*
D02*
G37*
G36*
X14500Y-13945D02*
X11244D01*
Y-16709D01*
X14500D01*
Y-13945D01*
D02*
G37*
G36*
X5000Y-10966D02*
X3956Y-11103D01*
X2983Y-11506D01*
X2147Y-12147D01*
X1506Y-12983D01*
X1103Y-13956D01*
X965Y-15000D01*
X1103Y-16044D01*
X1506Y-17017D01*
X2147Y-17853D01*
X2983Y-18494D01*
X3471Y-18696D01*
Y-21342D01*
X1736D01*
Y-28657D01*
X8126D01*
X8264Y-28657D01*
X8626D01*
X8764Y-28657D01*
X11390D01*
Y-25000D01*
Y-21342D01*
X8764D01*
X8626Y-21342D01*
X8264D01*
X8126Y-21342D01*
X6529D01*
Y-18696D01*
X7017Y-18494D01*
X7853Y-17853D01*
X8494Y-17017D01*
X8897Y-16044D01*
X9035Y-15000D01*
X8897Y-13956D01*
X8494Y-12983D01*
X7853Y-12147D01*
X7017Y-11506D01*
X6044Y-11103D01*
X5000Y-10966D01*
D02*
G37*
G36*
X79500Y-93945D02*
X76342D01*
Y-96709D01*
X79500D01*
Y-93945D01*
D02*
G37*
G36*
X83657D02*
X80500D01*
Y-96709D01*
X83657D01*
Y-93945D01*
D02*
G37*
G36*
X89500D02*
X86343D01*
Y-96709D01*
X89500D01*
Y-93945D01*
D02*
G37*
G36*
X73658D02*
X70500D01*
Y-96709D01*
X73658D01*
Y-93945D01*
D02*
G37*
G36*
X-71220Y-89124D02*
X-72574Y-89257D01*
X-73876Y-89652D01*
X-75076Y-90294D01*
X-76127Y-91156D01*
X-76990Y-92208D01*
X-77631Y-93408D01*
X-78026Y-94709D01*
X-78159Y-96063D01*
X-78026Y-97417D01*
X-77631Y-98718D01*
X-76990Y-99918D01*
X-76127Y-100970D01*
X-75076Y-101832D01*
X-73876Y-102474D01*
X-72574Y-102869D01*
X-71220Y-103002D01*
X-69867Y-102869D01*
X-68565Y-102474D01*
X-67365Y-101832D01*
X-66314Y-100970D01*
X-65451Y-99918D01*
X-64810Y-98718D01*
X-64415Y-97417D01*
X-64282Y-96063D01*
X-64415Y-94709D01*
X-64810Y-93408D01*
X-65451Y-92208D01*
X-66314Y-91156D01*
X-67365Y-90294D01*
X-68565Y-89652D01*
X-69867Y-89257D01*
X-71220Y-89124D01*
D02*
G37*
G36*
X157126D02*
X155772Y-89257D01*
X154471Y-89652D01*
X153271Y-90294D01*
X152219Y-91156D01*
X151356Y-92208D01*
X150715Y-93408D01*
X150320Y-94709D01*
X150187Y-96063D01*
X150320Y-97417D01*
X150715Y-98718D01*
X151356Y-99918D01*
X152219Y-100970D01*
X153271Y-101832D01*
X154471Y-102474D01*
X155772Y-102869D01*
X157126Y-103002D01*
X158480Y-102869D01*
X159781Y-102474D01*
X160981Y-101832D01*
X162032Y-100970D01*
X162896Y-99918D01*
X163537Y-98718D01*
X163932Y-97417D01*
X164065Y-96063D01*
X163932Y-94709D01*
X163537Y-93408D01*
X162896Y-92208D01*
X162032Y-91156D01*
X160981Y-90294D01*
X159781Y-89652D01*
X158480Y-89257D01*
X157126Y-89124D01*
D02*
G37*
G36*
X69500Y-93945D02*
X66343D01*
Y-96709D01*
X69500D01*
Y-93945D01*
D02*
G37*
G36*
X74161Y-28630D02*
X62638D01*
Y-36142D01*
X62896D01*
Y-37699D01*
X62120Y-38475D01*
X62000Y-38451D01*
X61024Y-38645D01*
X60198Y-39198D01*
X59645Y-40025D01*
X59451Y-41000D01*
X59645Y-41976D01*
X60198Y-42802D01*
X61024Y-43355D01*
X62000Y-43549D01*
X62976Y-43355D01*
X63802Y-42802D01*
X64198D01*
X65025Y-43355D01*
X66000Y-43549D01*
X66975Y-43355D01*
X67802Y-42802D01*
X68198D01*
X69024Y-43355D01*
X70000Y-43549D01*
X70976Y-43355D01*
X71802Y-42802D01*
X72198D01*
X73024Y-43355D01*
X74000Y-43549D01*
X74976Y-43355D01*
X75802Y-42802D01*
X76355Y-41976D01*
X76549Y-41000D01*
X76355Y-40025D01*
X75802Y-39198D01*
X74976Y-38645D01*
X74000Y-38451D01*
X73632Y-38085D01*
Y-36142D01*
X74161D01*
Y-32386D01*
Y-28630D01*
D02*
G37*
G36*
X76720D02*
X75161D01*
Y-32386D01*
Y-36142D01*
X76720D01*
Y-32386D01*
Y-28630D01*
D02*
G37*
G36*
X79280D02*
X77720D01*
Y-32386D01*
Y-36142D01*
X79280D01*
Y-32386D01*
Y-28630D01*
D02*
G37*
G36*
X63925Y-51858D02*
X62638D01*
Y-55114D01*
X63925D01*
Y-51858D01*
D02*
G37*
G36*
X93657Y-93945D02*
X90500D01*
Y-96709D01*
X93657D01*
Y-93945D01*
D02*
G37*
G36*
X99500D02*
X96342D01*
Y-96709D01*
X99500D01*
Y-93945D01*
D02*
G37*
G36*
X63925Y-56114D02*
X62638D01*
Y-59370D01*
X63925D01*
Y-56114D01*
D02*
G37*
G36*
X90000Y58751D02*
X88968Y58615D01*
X88007Y58217D01*
X87181Y57583D01*
X86547Y56757D01*
X86149Y55796D01*
X86013Y54764D01*
X86149Y53732D01*
X86547Y52770D01*
X87181Y51945D01*
X88007Y51311D01*
X88968Y50913D01*
X90000Y50777D01*
X91032Y50913D01*
X91993Y51311D01*
X92819Y51945D01*
X93453Y52770D01*
X93851Y53732D01*
X93987Y54764D01*
X93851Y55796D01*
X93453Y56757D01*
X92819Y57583D01*
X91993Y58217D01*
X91032Y58615D01*
X90000Y58751D01*
D02*
G37*
G36*
X100000D02*
X98968Y58615D01*
X98007Y58217D01*
X97181Y57583D01*
X96547Y56757D01*
X96149Y55796D01*
X96013Y54764D01*
X96149Y53732D01*
X96547Y52770D01*
X97181Y51945D01*
X98007Y51311D01*
X98968Y50913D01*
X100000Y50777D01*
X101032Y50913D01*
X101993Y51311D01*
X102819Y51945D01*
X103453Y52770D01*
X103851Y53732D01*
X103987Y54764D01*
X103851Y55796D01*
X103453Y56757D01*
X102819Y57583D01*
X101993Y58217D01*
X101032Y58615D01*
X100000Y58751D01*
D02*
G37*
G36*
X-35000Y72932D02*
X-36044Y72795D01*
X-37017Y72392D01*
X-37853Y71750D01*
X-38494Y70915D01*
X-38897Y69942D01*
X-39035Y68898D01*
X-38897Y67853D01*
X-38494Y66880D01*
X-37853Y66045D01*
X-37017Y65404D01*
X-36529Y65202D01*
Y54974D01*
X-51342D01*
Y56709D01*
X-58657D01*
Y50319D01*
X-58657Y50181D01*
Y49819D01*
X-58657Y49681D01*
Y47529D01*
X-60392D01*
X-60860Y48140D01*
X-61487Y48621D01*
X-62217Y48923D01*
X-63000Y49026D01*
X-63783Y48923D01*
X-64513Y48621D01*
X-65140Y48140D01*
X-65620Y47513D01*
X-65923Y46783D01*
X-66026Y46000D01*
X-65923Y45217D01*
X-65620Y44487D01*
X-65140Y43860D01*
X-64513Y43380D01*
X-63955Y43148D01*
Y42615D01*
X-64513Y42384D01*
X-65140Y41903D01*
X-65620Y41277D01*
X-65923Y40547D01*
X-66026Y39764D01*
X-65923Y38981D01*
X-65620Y38251D01*
X-65140Y37624D01*
X-64513Y37143D01*
X-63783Y36841D01*
X-63000Y36738D01*
X-62217Y36841D01*
X-61487Y37143D01*
X-60860Y37624D01*
X-60392Y38234D01*
X-58657D01*
Y36319D01*
X-58657Y36181D01*
Y35819D01*
X-58657Y35681D01*
Y29291D01*
X-51342D01*
Y31026D01*
X-36529D01*
Y-17477D01*
X-50078Y-31026D01*
X-51342D01*
Y-29291D01*
X-58657D01*
Y-35681D01*
X-58657Y-35819D01*
Y-36181D01*
X-58657Y-36319D01*
Y-38471D01*
X-60392D01*
X-60860Y-37860D01*
X-61487Y-37380D01*
X-62217Y-37077D01*
X-63000Y-36974D01*
X-63783Y-37077D01*
X-64513Y-37380D01*
X-65140Y-37860D01*
X-65620Y-38487D01*
X-65923Y-39217D01*
X-66026Y-40000D01*
X-65923Y-40783D01*
X-65620Y-41513D01*
X-65140Y-42140D01*
X-64513Y-42621D01*
X-63887Y-42880D01*
X-63860Y-43003D01*
Y-43273D01*
X-63887Y-43396D01*
X-64513Y-43655D01*
X-65140Y-44136D01*
X-65620Y-44763D01*
X-65923Y-45492D01*
X-66026Y-46276D01*
X-65923Y-47059D01*
X-65620Y-47789D01*
X-65140Y-48415D01*
X-64513Y-48896D01*
X-63783Y-49198D01*
X-63000Y-49301D01*
X-62217Y-49198D01*
X-61487Y-48896D01*
X-60860Y-48415D01*
X-60392Y-47805D01*
X-58657D01*
Y-49681D01*
X-58657Y-49819D01*
Y-50181D01*
X-58657Y-50319D01*
Y-56709D01*
X-51342D01*
Y-54974D01*
X-49445D01*
X-48860Y-54858D01*
X-48363Y-54526D01*
X-46919Y-53081D01*
X-46587Y-52585D01*
X-46471Y-52000D01*
Y-34000D01*
X-46587Y-33415D01*
X-46919Y-32919D01*
X-47282Y-32555D01*
X-33918Y-19192D01*
X-33587Y-18696D01*
X-33471Y-18110D01*
Y32555D01*
Y53445D01*
Y65202D01*
X-32983Y65404D01*
X-32147Y66045D01*
X-31506Y66880D01*
X-31103Y67853D01*
X-30966Y68898D01*
X-31103Y69942D01*
X-31506Y70915D01*
X-32147Y71750D01*
X-32983Y72392D01*
X-33956Y72795D01*
X-35000Y72932D01*
D02*
G37*
G36*
X100000Y48751D02*
X98968Y48615D01*
X98007Y48217D01*
X97181Y47583D01*
X96547Y46757D01*
X96149Y45796D01*
X96013Y44764D01*
X96149Y43732D01*
X96547Y42770D01*
X97181Y41945D01*
X98007Y41311D01*
X98968Y40913D01*
X100000Y40777D01*
X101032Y40913D01*
X101993Y41311D01*
X102819Y41945D01*
X103453Y42770D01*
X103851Y43732D01*
X103987Y44764D01*
X103851Y45796D01*
X103453Y46757D01*
X102819Y47583D01*
X101993Y48217D01*
X101032Y48615D01*
X100000Y48751D01*
D02*
G37*
G36*
X90000Y38751D02*
X88968Y38615D01*
X88007Y38217D01*
X87181Y37583D01*
X86547Y36757D01*
X86149Y35796D01*
X86013Y34764D01*
X86149Y33732D01*
X86547Y32770D01*
X87181Y31945D01*
X88007Y31311D01*
X88968Y30913D01*
X90000Y30777D01*
X91032Y30913D01*
X91993Y31311D01*
X92819Y31945D01*
X93453Y32770D01*
X93851Y33732D01*
X93987Y34764D01*
X93851Y35796D01*
X93453Y36757D01*
X92819Y37583D01*
X91993Y38217D01*
X91032Y38615D01*
X90000Y38751D01*
D02*
G37*
G36*
X100000D02*
X98968Y38615D01*
X98007Y38217D01*
X97181Y37583D01*
X96547Y36757D01*
X96149Y35796D01*
X96013Y34764D01*
X96149Y33732D01*
X96547Y32770D01*
X97181Y31945D01*
X98007Y31311D01*
X98968Y30913D01*
X100000Y30777D01*
X101032Y30913D01*
X101993Y31311D01*
X102819Y31945D01*
X103453Y32770D01*
X103851Y33732D01*
X103987Y34764D01*
X103851Y35796D01*
X103453Y36757D01*
X102819Y37583D01*
X101993Y38217D01*
X101032Y38615D01*
X100000Y38751D01*
D02*
G37*
G36*
X90000Y48751D02*
X88968Y48615D01*
X88007Y48217D01*
X87181Y47583D01*
X86547Y46757D01*
X86149Y45796D01*
X86013Y44764D01*
X86149Y43732D01*
X86547Y42770D01*
X87181Y41945D01*
X88007Y41311D01*
X88968Y40913D01*
X90000Y40777D01*
X91032Y40913D01*
X91993Y41311D01*
X92819Y41945D01*
X93453Y42770D01*
X93851Y43732D01*
X93987Y44764D01*
X93851Y45796D01*
X93453Y46757D01*
X92819Y47583D01*
X91993Y48217D01*
X91032Y48615D01*
X90000Y48751D01*
D02*
G37*
G36*
X-44500Y72866D02*
Y69398D01*
X-41031D01*
X-41103Y69942D01*
X-41506Y70915D01*
X-42147Y71750D01*
X-42983Y72392D01*
X-43956Y72795D01*
X-44500Y72866D01*
D02*
G37*
G36*
X-71220Y103789D02*
X-72574Y103656D01*
X-73876Y103261D01*
X-75076Y102620D01*
X-76127Y101757D01*
X-76990Y100705D01*
X-77631Y99506D01*
X-78026Y98204D01*
X-78159Y96850D01*
X-78026Y95497D01*
X-77631Y94195D01*
X-76990Y92995D01*
X-76127Y91944D01*
X-75076Y91081D01*
X-73876Y90440D01*
X-72574Y90045D01*
X-71220Y89912D01*
X-69867Y90045D01*
X-68565Y90440D01*
X-67365Y91081D01*
X-66314Y91944D01*
X-65451Y92995D01*
X-64810Y94195D01*
X-64415Y95497D01*
X-64282Y96850D01*
X-64415Y98204D01*
X-64810Y99506D01*
X-65451Y100705D01*
X-66314Y101757D01*
X-67365Y102620D01*
X-68565Y103261D01*
X-69867Y103656D01*
X-71220Y103789D01*
D02*
G37*
G36*
X157126D02*
X155772Y103656D01*
X154471Y103261D01*
X153271Y102620D01*
X152219Y101757D01*
X151356Y100705D01*
X150715Y99506D01*
X150320Y98204D01*
X150187Y96850D01*
X150320Y95497D01*
X150715Y94195D01*
X151356Y92995D01*
X152219Y91944D01*
X153271Y91081D01*
X154471Y90440D01*
X155772Y90045D01*
X157126Y89912D01*
X158480Y90045D01*
X159781Y90440D01*
X160981Y91081D01*
X162032Y91944D01*
X162896Y92995D01*
X163537Y94195D01*
X163932Y95497D01*
X164065Y96850D01*
X163932Y98204D01*
X163537Y99506D01*
X162896Y100705D01*
X162032Y101757D01*
X160981Y102620D01*
X159781Y103261D01*
X158480Y103656D01*
X157126Y103789D01*
D02*
G37*
G36*
X-45500Y72866D02*
X-46044Y72795D01*
X-47017Y72392D01*
X-47853Y71750D01*
X-48494Y70915D01*
X-48897Y69942D01*
X-48969Y69398D01*
X-45500D01*
Y72866D01*
D02*
G37*
G36*
X84764Y81529D02*
X-13898D01*
X-14483Y81413D01*
X-14979Y81081D01*
X-23468Y72593D01*
X-23956Y72795D01*
X-25000Y72932D01*
X-26044Y72795D01*
X-27017Y72392D01*
X-27853Y71750D01*
X-28494Y70915D01*
X-28897Y69942D01*
X-29035Y68898D01*
X-28897Y67853D01*
X-28494Y66880D01*
X-27853Y66045D01*
X-27017Y65404D01*
X-26044Y65001D01*
X-25000Y64863D01*
X-23956Y65001D01*
X-22983Y65404D01*
X-22147Y66045D01*
X-21506Y66880D01*
X-21103Y67853D01*
X-20966Y68898D01*
X-21103Y69942D01*
X-21305Y70430D01*
X-13264Y78471D01*
X84130D01*
X96341Y66260D01*
X96149Y65796D01*
X96013Y64764D01*
X96149Y63732D01*
X96547Y62770D01*
X97181Y61945D01*
X98007Y61311D01*
X98968Y60913D01*
X100000Y60777D01*
X101032Y60913D01*
X101993Y61311D01*
X102819Y61945D01*
X103453Y62770D01*
X103851Y63732D01*
X103987Y64764D01*
X103851Y65796D01*
X103453Y66757D01*
X102819Y67583D01*
X101993Y68217D01*
X101032Y68615D01*
X100000Y68751D01*
X98968Y68615D01*
X98504Y68423D01*
X85845Y81081D01*
X85349Y81413D01*
X84764Y81529D01*
D02*
G37*
G36*
X-45500Y68398D02*
X-48969D01*
X-48897Y67853D01*
X-48494Y66880D01*
X-47853Y66045D01*
X-47017Y65404D01*
X-46044Y65001D01*
X-45500Y64929D01*
Y68398D01*
D02*
G37*
G36*
X-41031D02*
X-44500D01*
Y64929D01*
X-43956Y65001D01*
X-42983Y65404D01*
X-42147Y66045D01*
X-41506Y66880D01*
X-41103Y67853D01*
X-41031Y68398D01*
D02*
G37*
G36*
X4500Y4500D02*
X1031D01*
X1103Y3956D01*
X1506Y2983D01*
X2147Y2147D01*
X2983Y1506D01*
X3956Y1103D01*
X4500Y1031D01*
Y4500D01*
D02*
G37*
G36*
X100000Y8751D02*
X98968Y8615D01*
X98007Y8217D01*
X97181Y7583D01*
X96547Y6757D01*
X96149Y5796D01*
X96013Y4764D01*
X96149Y3732D01*
X96547Y2770D01*
X97181Y1945D01*
X98007Y1311D01*
X98968Y913D01*
X100000Y777D01*
X101032Y913D01*
X101993Y1311D01*
X102819Y1945D01*
X103453Y2770D01*
X103851Y3732D01*
X103987Y4764D01*
X103851Y5796D01*
X103453Y6757D01*
X102819Y7583D01*
X101993Y8217D01*
X101032Y8615D01*
X100000Y8751D01*
D02*
G37*
G36*
X4500Y8969D02*
X3956Y8897D01*
X2983Y8494D01*
X2147Y7853D01*
X1506Y7017D01*
X1103Y6044D01*
X1031Y5500D01*
X4500D01*
Y8969D01*
D02*
G37*
G36*
X8969Y4500D02*
X5500D01*
Y1031D01*
X6044Y1103D01*
X7017Y1506D01*
X7853Y2147D01*
X8494Y2983D01*
X8897Y3956D01*
X8969Y4500D01*
D02*
G37*
G36*
X103953Y-1283D02*
X100500D01*
Y-4736D01*
X103953D01*
Y-1283D01*
D02*
G37*
G36*
X47195Y-5862D02*
X45500D01*
Y-7557D01*
X45878Y-7482D01*
X46622Y-6984D01*
X47120Y-6240D01*
X47195Y-5862D01*
D02*
G37*
G36*
X33945Y3756D02*
Y500D01*
X36709D01*
Y3756D01*
X33945D01*
D02*
G37*
G36*
X36709Y-500D02*
X33945D01*
Y-3756D01*
X36709D01*
Y-500D01*
D02*
G37*
G36*
X48658Y20709D02*
X41342D01*
Y18974D01*
X7445D01*
X6860Y18858D01*
X6584Y18674D01*
X6044Y18897D01*
X5000Y19035D01*
X3956Y18897D01*
X2983Y18494D01*
X2147Y17853D01*
X1506Y17017D01*
X1103Y16044D01*
X965Y15000D01*
X1103Y13956D01*
X1506Y12983D01*
X2147Y12147D01*
X2983Y11506D01*
X3956Y11103D01*
X5000Y10966D01*
X6044Y11103D01*
X7017Y11506D01*
X7853Y12147D01*
X8494Y12983D01*
X8897Y13956D01*
X9035Y15000D01*
X8963Y15540D01*
X9293Y15915D01*
X41342D01*
Y14319D01*
X41342Y14181D01*
Y13819D01*
X41342Y13681D01*
Y12084D01*
X20555D01*
X19970Y11968D01*
X19474Y11637D01*
X6532Y-1305D01*
X6044Y-1103D01*
X5000Y-965D01*
X3956Y-1103D01*
X2983Y-1506D01*
X2147Y-2147D01*
X1506Y-2983D01*
X1103Y-3956D01*
X965Y-5000D01*
X1103Y-6044D01*
X1506Y-7017D01*
X2147Y-7853D01*
X2983Y-8494D01*
X3956Y-8897D01*
X5000Y-9035D01*
X6044Y-8897D01*
X7017Y-8494D01*
X7853Y-7853D01*
X8494Y-7017D01*
X8897Y-6044D01*
X9035Y-5000D01*
X8897Y-3956D01*
X8695Y-3468D01*
X12448Y285D01*
X12554Y238D01*
X12861Y-9D01*
X12706Y-787D01*
X12880Y-1665D01*
X13378Y-2410D01*
X13471Y-2472D01*
Y-3291D01*
X11244D01*
Y-9681D01*
X11244Y-9819D01*
Y-10181D01*
X11244Y-10319D01*
Y-12945D01*
X18756D01*
Y-10319D01*
X18756Y-10181D01*
Y-9819D01*
X18756Y-9681D01*
Y-3291D01*
X16529D01*
Y-2472D01*
X16622Y-2410D01*
X17120Y-1665D01*
X17294Y-787D01*
X17268Y-656D01*
X17656Y-194D01*
X18026Y-189D01*
X18919Y-1082D01*
X19415Y-1413D01*
X20000Y-1529D01*
X23291D01*
Y-3756D01*
X25026D01*
Y-9555D01*
X25142Y-10140D01*
X25391Y-10513D01*
X25168Y-10988D01*
X25000Y-10966D01*
X23956Y-11103D01*
X22983Y-11506D01*
X22147Y-12147D01*
X21506Y-12983D01*
X21103Y-13956D01*
X20966Y-15000D01*
X21103Y-16044D01*
X21506Y-17017D01*
X22147Y-17853D01*
X22983Y-18494D01*
X23956Y-18897D01*
X25000Y-19035D01*
X26044Y-18897D01*
X27017Y-18494D01*
X27853Y-17853D01*
X28494Y-17017D01*
X28897Y-16044D01*
X29035Y-15000D01*
X28897Y-13956D01*
X28676Y-13423D01*
X29080Y-13092D01*
X29122Y-13119D01*
X30000Y-13294D01*
X30878Y-13119D01*
X30920Y-13092D01*
X31324Y-13423D01*
X31103Y-13956D01*
X31031Y-14500D01*
X34500D01*
Y-11031D01*
X33956Y-11103D01*
X32983Y-11506D01*
X32653Y-11759D01*
X32199Y-11477D01*
X32294Y-11000D01*
X32120Y-10122D01*
X31622Y-9378D01*
X30878Y-8880D01*
X30000Y-8706D01*
X29122Y-8880D01*
X28475Y-9313D01*
X28084Y-8922D01*
Y-3756D01*
X29681D01*
X29819Y-3756D01*
X30181D01*
X30319Y-3756D01*
X32945D01*
Y0D01*
Y3756D01*
X30319D01*
X30181Y3756D01*
X29819D01*
X29681Y3756D01*
X23291D01*
Y1529D01*
X20633D01*
X19910Y2253D01*
X19932Y2362D01*
X19757Y3240D01*
X19260Y3984D01*
X18516Y4482D01*
X17638Y4656D01*
X17499Y4629D01*
X17252Y5089D01*
X21189Y9026D01*
X41342D01*
Y7291D01*
X43471D01*
Y471D01*
X43378Y410D01*
X42880Y-335D01*
X42706Y-1213D01*
X42880Y-2090D01*
X43378Y-2835D01*
X43681Y-3037D01*
Y-3537D01*
X43378Y-3740D01*
X42880Y-4484D01*
X42805Y-4862D01*
X47195D01*
X47120Y-4484D01*
X46622Y-3740D01*
X46319Y-3537D01*
Y-3037D01*
X46622Y-2835D01*
X47120Y-2090D01*
X47294Y-1213D01*
X47120Y-335D01*
X46622Y410D01*
X46529Y471D01*
Y7291D01*
X48658D01*
Y13681D01*
X48658Y13819D01*
Y14181D01*
X48658Y14319D01*
Y20709D01*
D02*
G37*
G36*
X90000Y28751D02*
X88968Y28615D01*
X88007Y28216D01*
X87181Y27583D01*
X86547Y26757D01*
X86149Y25796D01*
X86013Y24764D01*
X86149Y23732D01*
X86547Y22770D01*
X87181Y21945D01*
X88007Y21311D01*
X88968Y20913D01*
X90000Y20777D01*
X91032Y20913D01*
X91993Y21311D01*
X92819Y21945D01*
X93453Y22770D01*
X93851Y23732D01*
X93987Y24764D01*
X93851Y25796D01*
X93453Y26757D01*
X92819Y27583D01*
X91993Y28216D01*
X91032Y28615D01*
X90000Y28751D01*
D02*
G37*
G36*
X100000D02*
X98968Y28615D01*
X98007Y28216D01*
X97181Y27583D01*
X96547Y26757D01*
X96149Y25796D01*
X96013Y24764D01*
X96149Y23732D01*
X96547Y22770D01*
X97181Y21945D01*
X98007Y21311D01*
X98968Y20913D01*
X100000Y20777D01*
X101032Y20913D01*
X101993Y21311D01*
X102819Y21945D01*
X103453Y22770D01*
X103851Y23732D01*
X103987Y24764D01*
X103851Y25796D01*
X103453Y26757D01*
X102819Y27583D01*
X101993Y28216D01*
X101032Y28615D01*
X100000Y28751D01*
D02*
G37*
G36*
Y18751D02*
X98968Y18615D01*
X98007Y18216D01*
X97181Y17583D01*
X96547Y16757D01*
X96149Y15796D01*
X96013Y14764D01*
X96149Y13732D01*
X96547Y12770D01*
X97181Y11945D01*
X98007Y11311D01*
X98968Y10913D01*
X100000Y10777D01*
X101032Y10913D01*
X101993Y11311D01*
X102819Y11945D01*
X103453Y12770D01*
X103851Y13732D01*
X103987Y14764D01*
X103851Y15796D01*
X103453Y16757D01*
X102819Y17583D01*
X101993Y18216D01*
X101032Y18615D01*
X100000Y18751D01*
D02*
G37*
G36*
X90000D02*
X88968Y18615D01*
X88007Y18216D01*
X87181Y17583D01*
X86547Y16757D01*
X86149Y15796D01*
X86013Y14764D01*
X86048Y14497D01*
X85594Y14118D01*
X82500D01*
Y11453D01*
X85756D01*
Y13374D01*
X86256Y13474D01*
X86547Y12770D01*
X87181Y11945D01*
X88007Y11311D01*
X88968Y10913D01*
X90000Y10777D01*
X91032Y10913D01*
X91993Y11311D01*
X92819Y11945D01*
X93453Y12770D01*
X93851Y13732D01*
X93987Y14764D01*
X93851Y15796D01*
X93453Y16757D01*
X92819Y17583D01*
X91993Y18216D01*
X91032Y18615D01*
X90000Y18751D01*
D02*
G37*
G36*
X5500Y8969D02*
Y5500D01*
X8969D01*
X8897Y6044D01*
X8494Y7017D01*
X7853Y7853D01*
X7017Y8494D01*
X6044Y8897D01*
X5500Y8969D01*
D02*
G37*
%LPD*%
G36*
X-36529Y34084D02*
X-51342D01*
Y35681D01*
X-51342Y35819D01*
Y36181D01*
X-51342Y36319D01*
Y42709D01*
X-58657D01*
Y41293D01*
X-60392D01*
X-60860Y41903D01*
X-61487Y42384D01*
X-62045Y42615D01*
Y43148D01*
X-61487Y43380D01*
X-60860Y43860D01*
X-60392Y44471D01*
X-58657D01*
Y43291D01*
X-51342D01*
Y49681D01*
X-51342Y49819D01*
Y50181D01*
X-51342Y50319D01*
Y51916D01*
X-36529D01*
Y34084D01*
D02*
G37*
G36*
X-49529Y-34633D02*
Y-51367D01*
X-50078Y-51916D01*
X-51342D01*
Y-50319D01*
X-51342Y-50181D01*
Y-49819D01*
X-51342Y-49681D01*
Y-43291D01*
X-58657D01*
Y-44746D01*
X-60392D01*
X-60860Y-44136D01*
X-61487Y-43655D01*
X-62113Y-43396D01*
X-62140Y-43273D01*
Y-43003D01*
X-62113Y-42880D01*
X-61487Y-42621D01*
X-60860Y-42140D01*
X-60392Y-41529D01*
X-58657D01*
Y-42709D01*
X-51342D01*
Y-36319D01*
X-51342Y-36181D01*
Y-35819D01*
X-51342Y-35681D01*
Y-34084D01*
X-50078D01*
X-49529Y-34633D01*
D02*
G37*
D16*
X44819Y-5181D02*
X45000Y-5000D01*
X35000Y-15000D02*
X44819Y-5181D01*
X82000Y10953D02*
X82953Y10000D01*
X93000D01*
X95000Y8000D01*
Y3000D02*
Y8000D01*
Y3000D02*
X100000Y-2000D01*
Y-5236D02*
Y-2000D01*
X-63000Y-46276D02*
X-55000D01*
X-63000Y46000D02*
X-55000D01*
X-62000Y-40000D02*
X-54000D01*
X75000Y10953D02*
X82000D01*
Y5047D02*
X89717D01*
X75000D02*
X82000D01*
X89717D02*
X90000Y4764D01*
X90016Y-32386D02*
Y-27016D01*
X70000Y-7000D02*
X90016Y-27016D01*
X70000Y-7000D02*
Y0D01*
X65000Y5000D02*
X70000Y0D01*
Y10000D02*
Y44764D01*
X65000Y5000D02*
X70000Y10000D01*
X87457Y-32386D02*
Y-27457D01*
X70000Y-10000D02*
X87457Y-27457D01*
X92575Y-36425D02*
Y-32386D01*
X91500Y-37500D02*
X92575Y-36425D01*
X90000Y-37500D02*
X91500D01*
X60000Y-10000D02*
X70000D01*
X52000Y-2000D02*
X60000Y-10000D01*
X52000Y-2000D02*
Y2362D01*
X52362D01*
X65000Y15000D01*
X54638Y-15000D02*
X65000D01*
X45000Y-5362D02*
X54638Y-15000D01*
X70339Y-25000D02*
X81000D01*
X82339Y-26339D01*
Y-32386D02*
Y-26339D01*
X70000Y44764D02*
X90000Y64764D01*
X65000Y15000D02*
Y45000D01*
X44819Y-5181D02*
X45000Y-5362D01*
X39638Y0D02*
X44819Y-5181D01*
X33445Y0D02*
X39638D01*
X17638Y2362D02*
X20000Y0D01*
X26555D01*
Y-9555D02*
X28000Y-11000D01*
X26555Y-9555D02*
Y0D01*
X28000Y-11000D02*
X30000D01*
X15000Y-21890D02*
X28110D01*
X35000Y-15000D01*
X15000Y-21890D02*
Y-13445D01*
X11890Y-25000D02*
X15000Y-21890D01*
X7445Y17445D02*
X45000D01*
X5000Y15000D02*
X7445Y17445D01*
X45000Y-1213D02*
Y10555D01*
X5000Y-5000D02*
X20555Y10555D01*
X45000D01*
X5000Y-25000D02*
Y-15000D01*
X15000Y-6555D02*
Y-787D01*
X81000Y-61000D02*
X84000D01*
X84898Y-60102D01*
Y-55614D01*
X79779Y-59780D02*
X81000Y-61000D01*
X79779Y-59780D02*
Y-55614D01*
X84445Y-48555D02*
X90016D01*
X82339Y-50661D02*
X84445Y-48555D01*
X82339Y-55614D02*
Y-50661D01*
X-55319Y39764D02*
X-55000Y39445D01*
X-63000Y39764D02*
X-55319D01*
X-35000Y32555D02*
Y53445D01*
Y-18110D02*
Y32555D01*
Y53445D02*
Y68898D01*
X-55000Y32555D02*
X-35000D01*
X-49445Y-32555D02*
X-35000Y-18110D01*
X90000Y4764D02*
X95000Y-236D01*
X-49445Y-53445D02*
X-48000Y-52000D01*
Y-34000D01*
X-49445Y-32555D02*
X-48000Y-34000D01*
X-55000Y-32555D02*
X-49445D01*
X70000Y-86555D02*
Y-80000D01*
X80000Y-86555D02*
Y-80000D01*
X90000Y-86555D02*
Y-80000D01*
X100000Y-86555D02*
Y-80000D01*
X70000Y-93445D02*
X80000D01*
X90000D01*
X100000D01*
X77220Y-55614D02*
X79779D01*
X64425D02*
Y-50575D01*
X65500Y-49500D01*
X79779Y-55614D02*
Y-50779D01*
X78500Y-49500D02*
X79779Y-50779D01*
X65500Y-49500D02*
X78500D01*
X84898Y-36398D02*
Y-32386D01*
Y-36398D02*
X86000Y-37500D01*
X66984Y-76984D02*
Y-55614D01*
Y-76984D02*
X70000Y-80000D01*
X69543Y-69543D02*
Y-55614D01*
Y-69543D02*
X80000Y-80000D01*
X72102Y-62102D02*
Y-55614D01*
Y-62102D02*
X90000Y-80000D01*
X74661Y-55614D02*
X74933Y-55886D01*
Y-59433D02*
Y-55886D01*
Y-59433D02*
X95500Y-80000D01*
X100000D01*
X64425Y-91870D02*
Y-55614D01*
Y-91870D02*
X66000Y-93445D01*
X70000D01*
X87457Y-62957D02*
Y-55614D01*
Y-62957D02*
X88500Y-64000D01*
X93055D01*
X99945D02*
X103500D01*
X105000Y-62500D01*
X90016Y-55614D02*
Y-48555D01*
X90000Y-37500D02*
X90016Y-37516D01*
Y-48555D02*
Y-37516D01*
X86000Y-37500D02*
X90000D01*
X79764Y75000D02*
X90000Y64764D01*
X-8898Y75000D02*
X79764D01*
X-15000Y68898D02*
X-8898Y75000D01*
X-25000Y68898D02*
X-13898Y80000D01*
X84764D01*
X100000Y64764D01*
X74000Y-41000D02*
Y-40757D01*
X72102Y-38860D02*
X74000Y-40757D01*
X72102Y-38860D02*
Y-32386D01*
X69543Y-40543D02*
Y-32386D01*
Y-40543D02*
X70000Y-41000D01*
X66984Y-40016D02*
Y-32386D01*
X66000Y-41000D02*
X66984Y-40016D01*
X64425Y-38332D02*
Y-32386D01*
X62000Y-41000D02*
Y-40757D01*
X64425Y-38332D01*
X-55000Y-53445D02*
X-49445D01*
X-55000Y53445D02*
X-35000D01*
X103500Y-64000D02*
X105000Y-65500D01*
Y-98000D02*
Y-65500D01*
Y-98000D02*
X109858Y-102858D01*
X95000Y-10236D02*
Y-236D01*
X92575Y-55614D02*
X98614D01*
Y-47831D01*
X99000Y-47445D01*
Y-40555D02*
X103555D01*
X105000Y-42000D01*
Y-62500D02*
Y-42000D01*
X95000Y-10236D02*
X99000Y-14236D01*
X92575Y-32386D02*
X99000D01*
Y-40555D02*
Y-32386D01*
Y-14236D01*
D17*
X35000Y-15000D02*
D03*
X45000D02*
D03*
X25000D02*
D03*
X65000D02*
D03*
Y-5000D02*
D03*
Y5000D02*
D03*
Y15000D02*
D03*
X5000Y-15000D02*
D03*
Y-5000D02*
D03*
Y5000D02*
D03*
Y15000D02*
D03*
X-15000Y68898D02*
D03*
X-25000D02*
D03*
X-35000D02*
D03*
X-45000D02*
D03*
D18*
X-71220Y96850D02*
D03*
X157126D02*
D03*
Y-96063D02*
D03*
X-71220D02*
D03*
D19*
X90000Y64764D02*
D03*
X100000D02*
D03*
X90000Y54764D02*
D03*
X100000D02*
D03*
X90000Y44764D02*
D03*
X100000D02*
D03*
X90000Y34764D02*
D03*
X100000D02*
D03*
X90000Y24764D02*
D03*
X100000D02*
D03*
X90000Y14764D02*
D03*
X100000D02*
D03*
X90000Y4764D02*
D03*
X100000D02*
D03*
X90000Y-5236D02*
D03*
D20*
X100000D02*
D03*
D21*
X65000Y45000D02*
D03*
X70339Y-25000D02*
D03*
X62000Y-41000D02*
D03*
X70000D02*
D03*
X74000D02*
D03*
X66000D02*
D03*
X98614Y-55614D02*
D03*
D22*
X30000Y-11000D02*
D03*
X17638Y2362D02*
D03*
X45000Y-1213D02*
D03*
X52000Y2362D02*
D03*
X45000Y-5362D02*
D03*
X15000Y-787D02*
D03*
D23*
X70000Y-80000D02*
D03*
X80000D02*
D03*
X90000D02*
D03*
X100000D02*
D03*
X-63000Y46000D02*
D03*
Y-40000D02*
D03*
Y-46276D02*
D03*
Y39764D02*
D03*
X109858Y-102858D02*
D03*
D24*
X70000Y-93445D02*
D03*
Y-86555D02*
D03*
X80000Y-93445D02*
D03*
Y-86555D02*
D03*
X90000Y-93445D02*
D03*
Y-86555D02*
D03*
X100000Y-93445D02*
D03*
Y-86555D02*
D03*
X-55000Y-53445D02*
D03*
Y-46555D02*
D03*
Y53445D02*
D03*
Y46555D02*
D03*
Y-32555D02*
D03*
Y-39445D02*
D03*
Y32555D02*
D03*
Y39445D02*
D03*
X99000Y-47445D02*
D03*
Y-40555D02*
D03*
X45000Y17445D02*
D03*
Y10555D02*
D03*
D25*
X92575Y-55614D02*
D03*
X90016D02*
D03*
X87457D02*
D03*
X84898D02*
D03*
X82339D02*
D03*
X79779D02*
D03*
X77220D02*
D03*
X74661D02*
D03*
X72102D02*
D03*
X69543D02*
D03*
X66984D02*
D03*
X64425D02*
D03*
X92575Y-32386D02*
D03*
X90016D02*
D03*
X87457D02*
D03*
X84898D02*
D03*
X82339D02*
D03*
X79779D02*
D03*
X77220D02*
D03*
X74661D02*
D03*
X72102D02*
D03*
X69543D02*
D03*
X66984D02*
D03*
X64425D02*
D03*
D26*
X93055Y-64000D02*
D03*
X99945D02*
D03*
X11890Y-25000D02*
D03*
X5000D02*
D03*
D27*
X75000Y5047D02*
D03*
Y10953D02*
D03*
X82000Y5047D02*
D03*
Y10953D02*
D03*
D28*
X33445Y0D02*
D03*
X26555D02*
D03*
D29*
X15000Y-13445D02*
D03*
Y-6555D02*
D03*
M02*
