G04 Layer_Color=65535*
%FSLAX25Y25*%
%MOIN*%
G70*
G01*
G75*
%ADD16C,0.01000*%
%ADD30C,0.00984*%
%ADD31C,0.01500*%
%ADD32C,0.00020*%
%ADD33C,0.00787*%
D16*
X-73630Y-7268D02*
G03*
X-73630Y-7268I-394J0D01*
G01*
Y35732D02*
G03*
X-73630Y35732I-394J0D01*
G01*
Y-50268D02*
G03*
X-73630Y-50268I-394J0D01*
G01*
Y78732D02*
G03*
X-73630Y78732I-394J0D01*
G01*
X19123Y30000D02*
G03*
X19123Y30000I-4123J0D01*
G01*
X70000Y-20000D02*
Y-15000D01*
X65000Y-20000D02*
X70000D01*
X0D02*
Y-15000D01*
Y-20000D02*
X5000D01*
X0Y20000D02*
X5000D01*
X0Y15000D02*
Y20000D01*
X70000Y15000D02*
Y20000D01*
X65000D02*
X70000D01*
X-60244Y-26165D02*
Y-17504D01*
X-80717Y-26165D02*
Y-17504D01*
X-74811Y-11598D02*
X-66150D01*
X-74811Y-32071D02*
X-66150D01*
X-60244Y16835D02*
Y25496D01*
X-80717Y16835D02*
Y25496D01*
X-74811Y31402D02*
X-66150D01*
X-74811Y10929D02*
X-66150D01*
X-53622Y-74803D02*
X-6378D01*
X-53622D02*
Y74803D01*
X-6378Y-74803D02*
Y74803D01*
X-53622D02*
X-6378D01*
X-60244Y-69165D02*
Y-60504D01*
X-80717Y-69165D02*
Y-60504D01*
X-74811Y-54598D02*
X-66150D01*
X-74811Y-75071D02*
X-66150D01*
X-60244Y59835D02*
Y68496D01*
X-80717Y59835D02*
Y68496D01*
X-74811Y74402D02*
X-66150D01*
X-74811Y53929D02*
X-66150D01*
X45000Y25000D02*
Y35000D01*
X44000Y26000D02*
X45000Y25000D01*
X44000Y26000D02*
X46000D01*
X45000Y25000D02*
X46000Y26000D01*
X34000Y31000D02*
X35000Y30000D01*
X34000Y29000D02*
Y31000D01*
Y29000D02*
X35000Y30000D01*
X25000D02*
X35000D01*
X83666Y-18668D02*
X82999Y-18001D01*
X81666D01*
X81000Y-18668D01*
Y-21334D01*
X81666Y-22000D01*
X82999D01*
X83666Y-21334D01*
X84999Y-18668D02*
X85665Y-18001D01*
X86998D01*
X87665Y-18668D01*
Y-19334D01*
X86998Y-20001D01*
X86332D01*
X86998D01*
X87665Y-20667D01*
Y-21334D01*
X86998Y-22000D01*
X85665D01*
X84999Y-21334D01*
X83666Y-12668D02*
X82999Y-12001D01*
X81666D01*
X81000Y-12668D01*
Y-15334D01*
X81666Y-16000D01*
X82999D01*
X83666Y-15334D01*
X86998Y-16000D02*
Y-12001D01*
X84999Y-14001D01*
X87665D01*
X3999Y-22000D02*
X0D01*
Y-23999D01*
X667Y-24666D01*
X1333D01*
X1999Y-23999D01*
Y-22000D01*
Y-23999D01*
X2666Y-24666D01*
X3332D01*
X3999Y-23999D01*
Y-22000D01*
Y-27998D02*
Y-26665D01*
X3332Y-25999D01*
X667D01*
X0Y-26665D01*
Y-27998D01*
X667Y-28664D01*
X3332D01*
X3999Y-27998D01*
Y-29997D02*
X0D01*
Y-31997D01*
X667Y-32663D01*
X1333D01*
X1999Y-31997D01*
Y-29997D01*
Y-31997D01*
X2666Y-32663D01*
X3332D01*
X3999Y-31997D01*
Y-29997D01*
X0Y-33996D02*
Y-35329D01*
Y-34663D01*
X3999D01*
X3332Y-33996D01*
X30999Y18000D02*
X27666D01*
X27000Y17334D01*
Y16001D01*
X27666Y15334D01*
X30999D01*
X27000Y11336D02*
Y14001D01*
X29666Y11336D01*
X30332D01*
X30999Y12002D01*
Y13335D01*
X30332Y14001D01*
X59998Y-90000D02*
X55000D01*
Y-92499D01*
X55833Y-93332D01*
X59165D01*
X59998Y-92499D01*
Y-90000D01*
Y-94998D02*
Y-96665D01*
Y-95831D01*
X55000D01*
Y-94998D01*
Y-96665D01*
Y-99164D02*
X59998D01*
Y-101663D01*
X59165Y-102496D01*
X57499D01*
X56666Y-101663D01*
Y-99164D01*
X55000Y-104162D02*
Y-105828D01*
Y-104995D01*
X59998D01*
X59165Y-104162D01*
X96998Y85764D02*
X92000D01*
X94499D01*
Y82432D01*
X96998D01*
X92000D01*
Y80765D02*
X95332D01*
X96998Y79099D01*
X95332Y77433D01*
X92000D01*
X94499D01*
Y80765D01*
X96998Y75767D02*
Y72435D01*
Y74101D01*
X92000D01*
X-54668Y80334D02*
X-54001Y81001D01*
Y82334D01*
X-54668Y83000D01*
X-55334D01*
X-56001Y82334D01*
Y81001D01*
X-56667Y80334D01*
X-57334D01*
X-58000Y81001D01*
Y82334D01*
X-57334Y83000D01*
X-58000Y79001D02*
Y77668D01*
Y78335D01*
X-54001D01*
X-54668Y79001D01*
Y-80666D02*
X-54001Y-79999D01*
Y-78666D01*
X-54668Y-78000D01*
X-55334D01*
X-56001Y-78666D01*
Y-79999D01*
X-56667Y-80666D01*
X-57334D01*
X-58000Y-79999D01*
Y-78666D01*
X-57334Y-78000D01*
X-58000Y-83998D02*
X-54001D01*
X-56001Y-81999D01*
Y-84664D01*
X-16502Y-80735D02*
Y-79069D01*
X-17335Y-78236D01*
X-20667D01*
X-21500Y-79069D01*
Y-80735D01*
X-20667Y-81568D01*
X-17335D01*
X-16502Y-80735D01*
Y-83235D02*
X-21500D01*
Y-86567D01*
X-16502Y-91565D02*
Y-88233D01*
X-21500D01*
Y-91565D01*
X-19001Y-88233D02*
Y-89899D01*
X-16502Y-93231D02*
X-21500D01*
Y-95731D01*
X-20667Y-96564D01*
X-17335D01*
X-16502Y-95731D01*
Y-93231D01*
X-21500Y-98230D02*
Y-99896D01*
Y-99063D01*
X-16502D01*
X-17335Y-98230D01*
X32998Y42000D02*
X31998D01*
X29999Y40001D01*
X31998Y38001D01*
X32998D01*
X29999Y40001D02*
X27000D01*
X-11002Y9898D02*
Y11565D01*
X-11835Y12398D01*
X-15167D01*
X-16000Y11565D01*
Y9898D01*
X-15167Y9065D01*
X-11835D01*
X-11002Y9898D01*
Y7399D02*
X-16000D01*
Y4067D01*
X-11002Y-931D02*
Y2401D01*
X-16000D01*
Y-931D01*
X-13501Y2401D02*
Y735D01*
X-11002Y-2598D02*
X-16000D01*
Y-5097D01*
X-15167Y-5930D01*
X-11835D01*
X-11002Y-5097D01*
Y-2598D01*
X42002Y38000D02*
X48000Y41999D01*
X42002D02*
X48000Y38000D01*
X12002D02*
Y41999D01*
X13002D01*
X17000Y38000D01*
X18000D01*
Y41999D01*
D30*
X36595Y9252D02*
G03*
X36595Y9252I-492J0D01*
G01*
D31*
X15700Y30000D02*
G03*
X15700Y30000I-700J0D01*
G01*
D32*
X27060Y85000D02*
Y85940D01*
X27240Y102840D02*
Y105000D01*
X27280Y85000D02*
Y85940D01*
X27260Y102820D02*
Y105000D01*
X27160Y96200D02*
Y97740D01*
X27400Y85000D02*
Y85940D01*
X27380Y102700D02*
Y105000D01*
X27420Y85000D02*
Y85940D01*
X27360Y102720D02*
Y105000D01*
X27140Y96200D02*
Y97720D01*
X27380Y96200D02*
Y97960D01*
X27160Y92420D02*
Y94400D01*
X27440Y96200D02*
Y98040D01*
X27220Y102860D02*
Y105000D01*
Y92420D02*
Y94400D01*
X27300Y85000D02*
Y85940D01*
X27440Y92420D02*
Y94400D01*
X27060Y92420D02*
Y94400D01*
X27360Y91400D02*
Y92060D01*
X27340Y92420D02*
Y94400D01*
X27140Y85000D02*
Y85940D01*
X27120Y91180D02*
Y91820D01*
X27340Y91380D02*
Y92040D01*
X27200Y92420D02*
Y94400D01*
X27220Y91280D02*
Y91920D01*
X27420Y102660D02*
Y105000D01*
X27100Y91160D02*
Y91800D01*
X27360Y92420D02*
Y94400D01*
X27120Y85000D02*
Y85940D01*
X27220Y96200D02*
Y97800D01*
X27060Y96200D02*
Y97640D01*
X27140Y92420D02*
Y94400D01*
X27340Y85000D02*
Y85940D01*
X27280Y102800D02*
Y105000D01*
X27440Y102620D02*
Y105000D01*
X27340Y102720D02*
Y105000D01*
X27460Y85000D02*
Y85940D01*
X27240Y85000D02*
Y85940D01*
X27060Y91120D02*
Y91760D01*
X27100Y96200D02*
Y97680D01*
X27200Y96200D02*
Y97780D01*
X27320Y92420D02*
Y94400D01*
X27360Y96200D02*
Y97940D01*
X27100Y102980D02*
Y105000D01*
X27060Y103020D02*
Y105000D01*
X27120Y102960D02*
Y105000D01*
X27360Y85000D02*
Y85940D01*
X27160Y85000D02*
Y85940D01*
Y102920D02*
Y105000D01*
X27420Y92420D02*
Y94400D01*
Y91460D02*
Y92080D01*
X27140Y102940D02*
Y105000D01*
X27380Y85000D02*
Y85940D01*
X27180Y85000D02*
Y85940D01*
Y92420D02*
Y94400D01*
X27400Y96200D02*
Y98000D01*
X27200Y91260D02*
Y91900D01*
X27400Y92420D02*
Y94400D01*
X27180Y91240D02*
Y91880D01*
X27400Y91440D02*
Y92060D01*
X27380Y92420D02*
Y94400D01*
X27160Y91220D02*
Y91860D01*
X27140Y91200D02*
Y91840D01*
X27180Y96200D02*
Y97760D01*
X27420Y96200D02*
Y98020D01*
X27380Y91420D02*
Y92060D01*
X27400Y102680D02*
Y105000D01*
X27100Y92420D02*
Y94400D01*
X27320Y96200D02*
Y97920D01*
X27180Y102900D02*
Y105000D01*
X27200Y85000D02*
Y85940D01*
Y102880D02*
Y105000D01*
X27100Y85000D02*
Y85940D01*
X27080Y91140D02*
Y91780D01*
X27300Y91360D02*
Y92000D01*
X27320Y85000D02*
Y85940D01*
X27080Y85000D02*
Y85940D01*
X27440Y91480D02*
Y92100D01*
X27220Y85000D02*
Y85940D01*
X27440Y85000D02*
Y85940D01*
X27080Y96200D02*
Y97660D01*
Y103000D02*
Y105000D01*
X27300Y96200D02*
Y97900D01*
X27080Y92420D02*
Y94400D01*
X27300Y102780D02*
Y105000D01*
Y92420D02*
Y94400D01*
X27320Y91360D02*
Y92020D01*
X27280Y92420D02*
Y94400D01*
Y96200D02*
Y97880D01*
X27120Y92420D02*
Y94400D01*
X27320Y102760D02*
Y105000D01*
X27340Y96200D02*
Y97940D01*
X27120Y96200D02*
Y97700D01*
X27020Y91080D02*
Y91720D01*
Y85000D02*
Y85940D01*
Y103060D02*
Y105000D01*
X27260Y85000D02*
Y85940D01*
X27040Y85000D02*
Y85940D01*
X27260Y91320D02*
Y91960D01*
X27040Y91100D02*
Y91740D01*
X27260Y92420D02*
Y94400D01*
X27040Y92420D02*
Y94400D01*
X27260Y96200D02*
Y97840D01*
X27040Y96200D02*
Y97620D01*
X27020Y96200D02*
Y97600D01*
Y92420D02*
Y94400D01*
X27240Y92420D02*
Y94400D01*
X27040Y103040D02*
Y105000D01*
X27240Y96200D02*
Y97820D01*
Y91300D02*
Y91940D01*
X27280Y91340D02*
Y91980D01*
X26080Y103700D02*
Y105000D01*
X25980Y96200D02*
Y96920D01*
X26080Y99160D02*
Y101620D01*
X25980Y92420D02*
Y94400D01*
Y89240D02*
Y90740D01*
Y99040D02*
Y101720D01*
X26100Y85000D02*
Y87380D01*
X25980Y103760D02*
Y105000D01*
X26100Y89240D02*
Y90860D01*
X26000Y85000D02*
Y87380D01*
X26100Y92420D02*
Y94400D01*
X26000Y89240D02*
Y90760D01*
X26100Y96200D02*
Y96960D01*
X26000Y92420D02*
Y94400D01*
X26100Y99180D02*
Y101600D01*
X26000Y96200D02*
Y96920D01*
X26100Y103700D02*
Y105000D01*
X26000Y99080D02*
Y101700D01*
X26120Y85000D02*
Y87380D01*
X26000Y103740D02*
Y105000D01*
X26120Y89240D02*
Y90880D01*
X26020Y85000D02*
Y87380D01*
X26120Y92420D02*
Y94400D01*
X26020Y89240D02*
Y90780D01*
X26120Y96200D02*
Y96980D01*
X26020Y92420D02*
Y94400D01*
X26120Y99200D02*
Y101560D01*
X26020Y96200D02*
Y96940D01*
X26120Y103680D02*
Y105000D01*
X26020Y99100D02*
Y101680D01*
X26140Y85000D02*
Y87380D01*
X26020Y103740D02*
Y105000D01*
X26140Y89240D02*
Y90880D01*
X26040Y85000D02*
Y87380D01*
X26140Y92420D02*
Y94400D01*
X26040Y89240D02*
Y90800D01*
X26140Y96200D02*
Y96980D01*
X26040Y92420D02*
Y94400D01*
X26140Y99220D02*
Y101540D01*
X26040Y96200D02*
Y96940D01*
X26140Y103680D02*
Y105000D01*
X26040Y99120D02*
Y101660D01*
X26160Y85000D02*
Y87380D01*
X26040Y103720D02*
Y105000D01*
X26160Y89240D02*
Y90900D01*
X26060Y85000D02*
Y87380D01*
X26160Y92420D02*
Y94400D01*
X26060Y89240D02*
Y90820D01*
X26160Y96200D02*
Y97000D01*
X26060Y92420D02*
Y94400D01*
X26160Y99260D02*
Y101520D01*
X26060Y96200D02*
Y96940D01*
X26160Y103660D02*
Y105000D01*
X26060Y99140D02*
Y101640D01*
X26180Y85000D02*
Y87380D01*
X26060Y103720D02*
Y105000D01*
X26180Y89240D02*
Y90920D01*
X26080Y85000D02*
Y87380D01*
X26180Y92420D02*
Y94400D01*
X26080Y89240D02*
Y90840D01*
X26180Y96200D02*
Y97000D01*
X26080Y92420D02*
Y94400D01*
Y96200D02*
Y96960D01*
X27000Y103080D02*
Y105000D01*
X26560Y92420D02*
Y94400D01*
X27000Y96200D02*
Y97580D01*
X26560Y90640D02*
Y91280D01*
X27000Y92420D02*
Y94400D01*
X26560Y85000D02*
Y85940D01*
X27000Y91060D02*
Y91720D01*
X26540Y103440D02*
Y105000D01*
X27000Y85000D02*
Y85940D01*
X26540Y96200D02*
Y97220D01*
X26980Y103100D02*
Y105000D01*
X26540Y92420D02*
Y94400D01*
X26980Y96200D02*
Y97580D01*
X26540Y90620D02*
Y91260D01*
X26980Y92420D02*
Y94400D01*
X26540Y85000D02*
Y85940D01*
X26980Y91040D02*
Y91700D01*
X26520Y103460D02*
Y105000D01*
X26980Y85000D02*
Y85940D01*
X26520Y100260D02*
Y100580D01*
X26960Y103120D02*
Y105000D01*
X26520Y96200D02*
Y97200D01*
X26960Y96200D02*
Y97560D01*
X26520Y92420D02*
Y94400D01*
X26960Y92420D02*
Y94400D01*
X26520Y90600D02*
Y91240D01*
X26960Y91020D02*
Y91680D01*
X26520Y85000D02*
Y85940D01*
X26960Y85000D02*
Y85940D01*
X26500Y103480D02*
Y105000D01*
X26940Y103140D02*
Y105000D01*
X26500Y100100D02*
Y100740D01*
X26940Y96200D02*
Y97540D01*
X26500Y96200D02*
Y97200D01*
X26940Y92420D02*
Y94400D01*
X26500Y92420D02*
Y94400D01*
X26940Y91000D02*
Y91660D01*
X26500Y90580D02*
Y91220D01*
X26940Y85000D02*
Y85940D01*
X26500Y85000D02*
Y85940D01*
X26920Y103140D02*
Y105000D01*
X26480Y103480D02*
Y105000D01*
X26920Y96200D02*
Y97520D01*
X26480Y99980D02*
Y100840D01*
X26920Y92420D02*
Y94400D01*
X26480Y96200D02*
Y97180D01*
X26920Y90980D02*
Y91640D01*
X26480Y92420D02*
Y94400D01*
X26920Y85000D02*
Y85940D01*
X26480Y90560D02*
Y91200D01*
X26900Y103160D02*
Y105000D01*
X26480Y85000D02*
Y85940D01*
X26900Y96200D02*
Y97500D01*
X26460Y103500D02*
Y105000D01*
X26900Y92420D02*
Y94400D01*
X26460Y99900D02*
Y100920D01*
X26900Y90960D02*
Y91620D01*
X26460Y96200D02*
Y97160D01*
X26900Y85000D02*
Y85940D01*
X26460Y92420D02*
Y94400D01*
X26880Y103180D02*
Y105000D01*
X26460Y90540D02*
Y91180D01*
X26880Y96200D02*
Y97480D01*
X26460Y85000D02*
Y85940D01*
X26880Y92420D02*
Y94400D01*
X26440Y103520D02*
Y105000D01*
X26880Y90940D02*
Y91600D01*
X26440Y99820D02*
Y100980D01*
X26880Y85000D02*
Y85940D01*
X26440Y96200D02*
Y97160D01*
X26860Y103200D02*
Y105000D01*
X26440Y92420D02*
Y94400D01*
X26860Y96200D02*
Y97460D01*
X26440Y90520D02*
Y91160D01*
X26860Y92420D02*
Y94400D01*
X26440Y85000D02*
Y85940D01*
X26860Y90920D02*
Y91580D01*
X26420Y103520D02*
Y105000D01*
X26860Y85000D02*
Y85940D01*
X26420Y99760D02*
Y101040D01*
X26840Y103220D02*
Y105000D01*
X26420Y96200D02*
Y97140D01*
X26840Y96200D02*
Y97460D01*
X26420Y92420D02*
Y94400D01*
X26840Y92420D02*
Y94400D01*
X26420Y90500D02*
Y91140D01*
X26840Y90920D02*
Y91560D01*
X26420Y85000D02*
Y85940D01*
X26840Y85000D02*
Y85940D01*
X26400Y103540D02*
Y105000D01*
X26820Y103240D02*
Y105000D01*
X26400Y99720D02*
Y101100D01*
X26820Y96200D02*
Y97440D01*
X26400Y96200D02*
Y97140D01*
X26820Y92420D02*
Y94400D01*
X26400Y92420D02*
Y94400D01*
X26820Y90920D02*
Y91540D01*
X26400Y89240D02*
Y91120D01*
X26820Y85000D02*
Y85940D01*
X26400Y85000D02*
Y87380D01*
X26800Y103240D02*
Y105000D01*
X26380Y103540D02*
Y105000D01*
X26800Y96200D02*
Y97420D01*
X26380Y99660D02*
Y101160D01*
X26800Y92420D02*
Y94400D01*
X26380Y96200D02*
Y97120D01*
X26800Y90900D02*
Y91520D01*
X26380Y92420D02*
Y94400D01*
X26800Y85000D02*
Y85940D01*
X26380Y89240D02*
Y91100D01*
X26780Y103260D02*
Y105000D01*
X26380Y85000D02*
Y87380D01*
X26780Y96200D02*
Y97400D01*
X26360Y103560D02*
Y105000D01*
X26780Y92420D02*
Y94400D01*
X26360Y99620D02*
Y101200D01*
X26780Y90880D02*
Y91500D01*
X26360Y96200D02*
Y97100D01*
X26780Y85000D02*
Y85940D01*
X26360Y92420D02*
Y94400D01*
X26760Y103280D02*
Y105000D01*
X26360Y89240D02*
Y91080D01*
X26760Y96200D02*
Y97380D01*
X26360Y85000D02*
Y87380D01*
X26760Y92420D02*
Y94400D01*
X26340Y103580D02*
Y105000D01*
X26760Y90860D02*
Y91480D01*
X26340Y99560D02*
Y101240D01*
X26760Y85000D02*
Y85940D01*
X26340Y96200D02*
Y97100D01*
X26740Y103300D02*
Y105000D01*
X26340Y92420D02*
Y94400D01*
X26740Y96200D02*
Y97380D01*
X26340Y89240D02*
Y91060D01*
X26740Y92420D02*
Y94400D01*
X26340Y85000D02*
Y87380D01*
X26740Y90840D02*
Y91460D01*
X26320Y103580D02*
Y105000D01*
X26740Y85000D02*
Y85940D01*
X26320Y99520D02*
Y101280D01*
X26720Y103300D02*
Y105000D01*
X26320Y96200D02*
Y97080D01*
X26720Y96200D02*
Y97360D01*
X26320Y92420D02*
Y94400D01*
X26720Y92420D02*
Y94400D01*
X26320Y89240D02*
Y91040D01*
X26720Y90820D02*
Y91440D01*
X26320Y85000D02*
Y87380D01*
X26720Y85000D02*
Y85940D01*
X26300Y103600D02*
Y105000D01*
X26700Y103320D02*
Y105000D01*
X26300Y99480D02*
Y101320D01*
X26700Y96200D02*
Y97340D01*
X26300Y96200D02*
Y97080D01*
X26700Y92420D02*
Y94400D01*
X26300Y92420D02*
Y94400D01*
X26700Y90800D02*
Y91420D01*
X26300Y89240D02*
Y91020D01*
X26700Y85000D02*
Y85940D01*
X26300Y85000D02*
Y87380D01*
X26680Y103360D02*
Y105000D01*
X26280Y103600D02*
Y105000D01*
X26680Y96200D02*
Y97320D01*
X26280Y99440D02*
Y101360D01*
X26680Y92420D02*
Y94400D01*
X26280Y96200D02*
Y97060D01*
X26680Y90780D02*
Y91400D01*
X26280Y92420D02*
Y94400D01*
X26680Y85000D02*
Y85940D01*
X26280Y89240D02*
Y91020D01*
X26660Y103360D02*
Y105000D01*
X26280Y85000D02*
Y87380D01*
X26660Y96200D02*
Y97300D01*
X26260Y103620D02*
Y105000D01*
X26660Y92420D02*
Y94400D01*
X26260Y99420D02*
Y101380D01*
X26660Y90760D02*
Y91380D01*
X26260Y96200D02*
Y97060D01*
X26660Y85000D02*
Y85940D01*
X26260Y92420D02*
Y94400D01*
X26640Y103380D02*
Y105000D01*
X26260Y89240D02*
Y91000D01*
X26640Y96200D02*
Y97280D01*
X26260Y85000D02*
Y87380D01*
X26640Y92420D02*
Y94400D01*
X26240Y103620D02*
Y105000D01*
X26640Y90740D02*
Y91360D01*
X26240Y99380D02*
Y101420D01*
X26640Y85000D02*
Y85940D01*
X26240Y96200D02*
Y97040D01*
X26620Y103400D02*
Y105000D01*
X26240Y92420D02*
Y94400D01*
X26620Y96200D02*
Y97280D01*
X26240Y89240D02*
Y90980D01*
X26620Y92420D02*
Y94400D01*
X26240Y85000D02*
Y87380D01*
X26620Y90700D02*
Y91340D01*
X26220Y103640D02*
Y105000D01*
X26620Y85000D02*
Y85940D01*
X26220Y99340D02*
Y101440D01*
X26600Y103400D02*
Y105000D01*
X26220Y96200D02*
Y97020D01*
X26600Y96200D02*
Y97260D01*
X26220Y92420D02*
Y94400D01*
X26600Y92420D02*
Y94400D01*
X26220Y89240D02*
Y90960D01*
X26600Y90680D02*
Y91320D01*
X26220Y85000D02*
Y87380D01*
X26600Y85000D02*
Y85940D01*
X26200Y103640D02*
Y105000D01*
X26580Y103420D02*
Y105000D01*
X26200Y99320D02*
Y101480D01*
X26580Y96200D02*
Y97240D01*
X26200Y96200D02*
Y97020D01*
X26580Y92420D02*
Y94400D01*
X26200Y92420D02*
Y94400D01*
X26580Y90660D02*
Y91300D01*
X26200Y89240D02*
Y90940D01*
X26580Y85000D02*
Y85940D01*
X26200Y85000D02*
Y87380D01*
X26560Y103440D02*
Y105000D01*
X26180Y103660D02*
Y105000D01*
Y99280D02*
Y101480D01*
X26560Y96200D02*
Y97240D01*
X11160Y85000D02*
Y105000D01*
X13800Y85000D02*
Y105000D01*
X13720Y85000D02*
Y105000D01*
X13220Y85000D02*
Y105000D01*
X13460Y85000D02*
Y105000D01*
X10820Y85000D02*
Y105000D01*
X13940Y85000D02*
Y105000D01*
X11660Y85000D02*
Y105000D01*
X13560Y85000D02*
Y105000D01*
X13000Y85000D02*
Y105000D01*
X12300Y85000D02*
Y105000D01*
X12140Y85000D02*
Y105000D01*
X12340Y85000D02*
Y105000D01*
X12960Y85000D02*
Y105000D01*
X11080Y85000D02*
Y105000D01*
X12600Y85000D02*
Y105000D01*
X12000Y85000D02*
Y105000D01*
X13440Y85000D02*
Y105000D01*
X12580Y85000D02*
Y105000D01*
X12320Y85000D02*
Y105000D01*
X10800Y85000D02*
Y105000D01*
X11900Y85000D02*
Y105000D01*
X13580Y85000D02*
Y105000D01*
X11460Y85000D02*
Y105000D01*
X13880Y85000D02*
Y105000D01*
X13300Y85000D02*
Y105000D01*
X13280Y85000D02*
Y105000D01*
X12260Y85000D02*
Y105000D01*
X10920Y85000D02*
Y105000D01*
X13760Y85000D02*
Y105000D01*
X12220Y85000D02*
Y105000D01*
X11680Y85000D02*
Y105000D01*
X12380Y85000D02*
Y105000D01*
X11240Y85000D02*
Y105000D01*
X12240Y85000D02*
Y105000D01*
X13360Y85000D02*
Y105000D01*
X12780Y85000D02*
Y105000D01*
X13140Y85000D02*
Y105000D01*
X11360Y85000D02*
Y105000D01*
X13060Y85000D02*
Y105000D01*
X13400Y85000D02*
Y105000D01*
X12680Y85000D02*
Y105000D01*
X13820Y85000D02*
Y105000D01*
X11760Y85000D02*
Y105000D01*
X11920Y85000D02*
Y105000D01*
X12120Y85000D02*
Y105000D01*
X11540Y85000D02*
Y105000D01*
X12100Y85000D02*
Y105000D01*
X10900Y85000D02*
Y105000D01*
X11100Y85000D02*
Y105000D01*
X10780Y85000D02*
Y105000D01*
X12180Y85000D02*
Y105000D01*
X10740Y85000D02*
Y105000D01*
X12540Y85000D02*
Y105000D01*
X11000Y85000D02*
Y105000D01*
X11180Y85000D02*
Y105000D01*
X11940Y85000D02*
Y105000D01*
X12640Y85000D02*
Y105000D01*
X11500Y85000D02*
Y105000D01*
X13860Y85000D02*
Y105000D01*
X11020Y85000D02*
Y105000D01*
X12280Y85000D02*
Y105000D01*
X11520Y85000D02*
Y105000D01*
X13120Y85000D02*
Y105000D01*
X13260Y85000D02*
Y105000D01*
X13600Y85000D02*
Y105000D01*
X12940Y85000D02*
Y105000D01*
X11960Y85000D02*
Y105000D01*
X11880Y85000D02*
Y105000D01*
X13380Y85000D02*
Y105000D01*
X12920Y85000D02*
Y105000D01*
X13660Y85000D02*
Y105000D01*
X12060Y85000D02*
Y105000D01*
X13320Y85000D02*
Y105000D01*
X12820Y85000D02*
Y105000D01*
X10860Y85000D02*
Y105000D01*
X10840Y85000D02*
Y105000D01*
X12860Y85000D02*
Y105000D01*
X11700Y85000D02*
Y105000D01*
X12560Y85000D02*
Y105000D01*
X12880Y85000D02*
Y105000D01*
X13900Y85000D02*
Y105000D01*
X11060Y85000D02*
Y105000D01*
X13160Y85000D02*
Y105000D01*
X13100Y85000D02*
Y105000D01*
X11280Y85000D02*
Y105000D01*
X11440Y85000D02*
Y105000D01*
X13740Y85000D02*
Y105000D01*
X13340Y85000D02*
Y105000D01*
X11980Y85000D02*
Y105000D01*
X12040Y85000D02*
Y105000D01*
X12980Y85000D02*
Y105000D01*
X13540Y85000D02*
Y105000D01*
X12620Y85000D02*
Y105000D01*
X12200Y85000D02*
Y105000D01*
X13200Y85000D02*
Y105000D01*
X11580Y85000D02*
Y105000D01*
X11340Y85000D02*
Y105000D01*
X13020Y85000D02*
Y105000D01*
X12460Y85000D02*
Y105000D01*
X13240Y85000D02*
Y105000D01*
X13920Y85000D02*
Y105000D01*
X11860Y85000D02*
Y105000D01*
X13500Y85000D02*
Y105000D01*
X12440Y85000D02*
Y105000D01*
X10880Y85000D02*
Y105000D01*
X11040Y85000D02*
Y105000D01*
X12760Y85000D02*
Y105000D01*
X12160Y85000D02*
Y105000D01*
X12080Y85000D02*
Y105000D01*
X11420Y85000D02*
Y105000D01*
X11120Y85000D02*
Y105000D01*
X11480Y85000D02*
Y105000D01*
X11640Y85000D02*
Y105000D01*
X10760Y85000D02*
Y105000D01*
X12500Y85000D02*
Y105000D01*
X13640Y85000D02*
Y105000D01*
X11800Y85000D02*
Y105000D01*
X13520Y85000D02*
Y105000D01*
X10980Y85000D02*
Y105000D01*
X12720Y85000D02*
Y105000D01*
X12480Y85000D02*
Y105000D01*
X11740Y85000D02*
Y105000D01*
X12400Y85000D02*
Y105000D01*
X11260Y85000D02*
Y105000D01*
X13180Y85000D02*
Y105000D01*
X11400Y85000D02*
Y105000D01*
X11200Y85000D02*
Y105000D01*
X13080Y85000D02*
Y105000D01*
X12660Y85000D02*
Y105000D01*
X13620Y85000D02*
Y105000D01*
X13840Y85000D02*
Y105000D01*
X11560Y85000D02*
Y105000D01*
X11820Y85000D02*
Y105000D01*
X13700Y85000D02*
Y105000D01*
X12520Y85000D02*
Y105000D01*
X10700Y85000D02*
Y105000D01*
X12740Y85000D02*
Y105000D01*
X12900Y85000D02*
Y105000D01*
X13420Y85000D02*
Y105000D01*
X12420Y85000D02*
Y105000D01*
X12020Y85000D02*
Y105000D01*
X10720Y85000D02*
Y105000D01*
X11380Y85000D02*
Y105000D01*
X13780Y85000D02*
Y105000D01*
X11780Y85000D02*
Y105000D01*
X11220Y85000D02*
Y105000D01*
X11840Y85000D02*
Y105000D01*
X11600Y85000D02*
Y105000D01*
X12840Y85000D02*
Y105000D01*
X13960Y85000D02*
Y105000D01*
X11320Y85000D02*
Y105000D01*
X11720Y85000D02*
Y105000D01*
X11620Y85000D02*
Y105000D01*
X10960Y85000D02*
Y105000D01*
X11140Y85000D02*
Y105000D01*
X13040Y85000D02*
Y105000D01*
X11300Y85000D02*
Y105000D01*
X13680Y85000D02*
Y105000D01*
X13480Y85000D02*
Y105000D01*
X12700Y85000D02*
Y105000D01*
X10940Y85000D02*
Y105000D01*
X12800Y85000D02*
Y105000D01*
X12360Y85000D02*
Y105000D01*
X30160Y85000D02*
Y105000D01*
X30080Y85000D02*
Y105000D01*
X30120Y85000D02*
Y105000D01*
X30100Y85000D02*
Y105000D01*
X30140Y85000D02*
Y105000D01*
X28460Y85000D02*
Y105000D01*
X30060Y85000D02*
Y105000D01*
X30040Y85000D02*
Y105000D01*
X30020Y85000D02*
Y105000D01*
X30000Y85000D02*
Y105000D01*
X29980Y85000D02*
Y105000D01*
X29960Y85000D02*
Y105000D01*
X29940Y85000D02*
Y105000D01*
X29920Y85000D02*
Y105000D01*
X29900Y85000D02*
Y105000D01*
X29880Y85000D02*
Y105000D01*
X29860Y85000D02*
Y105000D01*
X29840Y85000D02*
Y105000D01*
X29820Y85000D02*
Y105000D01*
X29800Y85000D02*
Y105000D01*
X29780Y85000D02*
Y105000D01*
X29760Y85000D02*
Y105000D01*
X29740Y85000D02*
Y105000D01*
X29720Y85000D02*
Y105000D01*
X29700Y85000D02*
Y105000D01*
X29680Y85000D02*
Y105000D01*
X29660Y85000D02*
Y105000D01*
X29640Y85000D02*
Y105000D01*
X29620Y85000D02*
Y105000D01*
X29600Y85000D02*
Y105000D01*
X29580Y85000D02*
Y105000D01*
X29560Y85000D02*
Y105000D01*
X29540Y85000D02*
Y105000D01*
X29520Y85000D02*
Y105000D01*
X29500Y85000D02*
Y105000D01*
X29480Y85000D02*
Y105000D01*
X29460Y85000D02*
Y105000D01*
X29440Y85000D02*
Y105000D01*
X29420Y85000D02*
Y105000D01*
X29400Y85000D02*
Y105000D01*
X29380Y85000D02*
Y105000D01*
X29360Y85000D02*
Y105000D01*
X29340Y85000D02*
Y105000D01*
X29320Y85000D02*
Y105000D01*
X29300Y85000D02*
Y105000D01*
X29280Y85000D02*
Y105000D01*
X29260Y85000D02*
Y105000D01*
X29240Y85000D02*
Y105000D01*
X29220Y85000D02*
Y105000D01*
X29200Y85000D02*
Y105000D01*
X29180Y85000D02*
Y105000D01*
X29160Y85000D02*
Y105000D01*
X29140Y85000D02*
Y105000D01*
X29120Y85000D02*
Y105000D01*
X29100Y85000D02*
Y105000D01*
X29080Y85000D02*
Y105000D01*
X29060Y85000D02*
Y105000D01*
X29040Y85000D02*
Y105000D01*
X29020Y85000D02*
Y105000D01*
X29000Y85000D02*
Y105000D01*
X28980Y85000D02*
Y105000D01*
X28960Y85000D02*
Y105000D01*
X28940Y85000D02*
Y105000D01*
X28920Y85000D02*
Y105000D01*
X28900Y85000D02*
Y105000D01*
X28880Y85000D02*
Y105000D01*
X28860Y85000D02*
Y105000D01*
X28840Y85000D02*
Y105000D01*
X28820Y85000D02*
Y105000D01*
X28800Y85000D02*
Y105000D01*
X28780Y85000D02*
Y105000D01*
X28760Y85000D02*
Y105000D01*
X28740Y85000D02*
Y105000D01*
X28720Y85000D02*
Y105000D01*
X28700Y85000D02*
Y105000D01*
X28680Y85000D02*
Y105000D01*
X28660Y85000D02*
Y105000D01*
X28640Y85000D02*
Y105000D01*
X28620Y85000D02*
Y105000D01*
X28600Y85000D02*
Y105000D01*
X28580Y85000D02*
Y105000D01*
X28560Y85000D02*
Y105000D01*
X28540Y85000D02*
Y105000D01*
X28520Y85000D02*
Y105000D01*
X28500Y85000D02*
Y105000D01*
X28480Y85000D02*
Y105000D01*
X28440Y85000D02*
Y105000D01*
X28420Y85000D02*
Y105000D01*
X28400Y85000D02*
Y105000D01*
X28380Y85000D02*
Y105000D01*
X28360Y85000D02*
Y105000D01*
X28340Y85000D02*
Y105000D01*
X28320Y85000D02*
Y105000D01*
X28300Y85000D02*
Y105000D01*
X28280Y85000D02*
Y105000D01*
X28260Y85000D02*
Y105000D01*
X28240Y85000D02*
Y105000D01*
X28220Y100520D02*
Y105000D01*
Y85000D02*
Y100140D01*
X28200Y100740D02*
Y105000D01*
Y85000D02*
Y99920D01*
X28180Y100900D02*
Y105000D01*
Y96200D02*
Y99760D01*
Y92200D02*
Y94400D01*
Y85000D02*
Y85940D01*
X28160Y101020D02*
Y105000D01*
Y96200D02*
Y99660D01*
Y92180D02*
Y94400D01*
Y85000D02*
Y85940D01*
X28140Y101120D02*
Y105000D01*
Y96200D02*
Y99540D01*
Y92160D02*
Y94400D01*
Y85000D02*
Y85940D01*
X28120Y101200D02*
Y105000D01*
Y96200D02*
Y99460D01*
Y92140D02*
Y94400D01*
Y85000D02*
Y85940D01*
X28100Y101280D02*
Y105000D01*
Y96200D02*
Y99380D01*
Y92120D02*
Y94400D01*
Y85000D02*
Y85940D01*
X28080Y101360D02*
Y105000D01*
Y96200D02*
Y99300D01*
Y92100D02*
Y94400D01*
Y85000D02*
Y85940D01*
X28060Y101420D02*
Y105000D01*
Y96200D02*
Y99240D01*
Y92100D02*
Y94400D01*
Y85000D02*
Y85940D01*
X24840Y85000D02*
Y87380D01*
Y89240D02*
Y90640D01*
X25740Y103840D02*
Y105000D01*
X25780Y85000D02*
Y87380D01*
X25800Y92420D02*
Y94400D01*
Y89240D02*
Y90640D01*
X25760Y89240D02*
Y90640D01*
X25800Y85000D02*
Y87380D01*
X25780Y103840D02*
Y105000D01*
X25760Y85000D02*
Y87380D01*
X25740Y98820D02*
Y101940D01*
X25780Y98860D02*
Y101900D01*
Y96200D02*
Y96840D01*
X25740Y96200D02*
Y96820D01*
Y92420D02*
Y94400D01*
X25780Y92420D02*
Y94400D01*
Y89240D02*
Y90640D01*
X25740Y89240D02*
Y90640D01*
Y85000D02*
Y87380D01*
X25760Y98840D02*
Y101920D01*
Y103840D02*
Y105000D01*
Y96200D02*
Y96820D01*
X25720Y103860D02*
Y105000D01*
Y96200D02*
Y96800D01*
Y98820D02*
Y101960D01*
X25760Y92420D02*
Y94400D01*
X27680Y96200D02*
Y98380D01*
X27860Y101940D02*
Y105000D01*
X27680Y102280D02*
Y105000D01*
X27880Y85000D02*
Y85940D01*
X27700Y85000D02*
Y85940D01*
X27880Y91920D02*
Y94400D01*
X27700Y91740D02*
Y92360D01*
X27880Y96200D02*
Y98800D01*
X27700Y92420D02*
Y94400D01*
X27880Y101900D02*
Y105000D01*
X27700Y96200D02*
Y98420D01*
X27900Y85000D02*
Y85940D01*
X27700Y102240D02*
Y105000D01*
X27900Y91940D02*
Y94400D01*
X27720Y85000D02*
Y85940D01*
X27900Y96200D02*
Y98840D01*
X27720Y91760D02*
Y92380D01*
X27900Y101840D02*
Y105000D01*
X27720Y92420D02*
Y94400D01*
X27920Y85000D02*
Y85940D01*
X27720Y96200D02*
Y98440D01*
X27920Y91960D02*
Y94400D01*
X27720Y102220D02*
Y105000D01*
X27920Y96200D02*
Y98880D01*
X27740Y85000D02*
Y85940D01*
X27920Y101800D02*
Y105000D01*
X27740Y91780D02*
Y92400D01*
X27940Y85000D02*
Y85940D01*
X27740Y92420D02*
Y94400D01*
X27940Y91980D02*
Y94400D01*
X27740Y96200D02*
Y98480D01*
X27940Y96200D02*
Y98920D01*
X27740Y102180D02*
Y105000D01*
X27940Y101760D02*
Y105000D01*
X27760Y85000D02*
Y85940D01*
X27960Y85000D02*
Y85940D01*
X27760Y91800D02*
Y92400D01*
X27960Y92000D02*
Y94400D01*
X27760Y92420D02*
Y94400D01*
X27960Y96200D02*
Y98980D01*
X27760Y96200D02*
Y98520D01*
X27960Y101700D02*
Y105000D01*
X27760Y102140D02*
Y105000D01*
X27980Y85000D02*
Y85940D01*
X27780Y85000D02*
Y85940D01*
X27980Y92020D02*
Y94400D01*
X27780Y91820D02*
Y94400D01*
X27980Y96200D02*
Y99020D01*
X27780Y96200D02*
Y98560D01*
X27980Y101660D02*
Y105000D01*
X27780Y102120D02*
Y105000D01*
X28000Y85000D02*
Y85940D01*
X27800Y85000D02*
Y85940D01*
X28000Y92040D02*
Y94400D01*
X27800Y91820D02*
Y94400D01*
X28000Y96200D02*
Y99080D01*
X27800Y96200D02*
Y98600D01*
X28000Y101600D02*
Y105000D01*
X27800Y102080D02*
Y105000D01*
X28020Y85000D02*
Y85940D01*
X27820Y91860D02*
Y94400D01*
Y85000D02*
Y85940D01*
X28020Y92060D02*
Y94400D01*
Y96200D02*
Y99120D01*
X27860Y96200D02*
Y98740D01*
X27680Y92420D02*
Y94400D01*
X27840Y102000D02*
Y105000D01*
X28040Y101480D02*
Y105000D01*
Y92080D02*
Y94400D01*
X27860Y85000D02*
Y85940D01*
Y91900D02*
Y94400D01*
X27840Y91880D02*
Y94400D01*
X28040Y96200D02*
Y99180D01*
X27840Y96200D02*
Y98660D01*
Y85000D02*
Y85940D01*
X27820Y96200D02*
Y98620D01*
X28020Y101540D02*
Y105000D01*
X28040Y85000D02*
Y85940D01*
X27680Y85000D02*
Y85940D01*
X27660Y102320D02*
Y105000D01*
X27680Y91720D02*
Y92340D01*
X27820Y102040D02*
Y105000D01*
X22900Y103700D02*
Y105000D01*
X23140Y85000D02*
Y87380D01*
X23100Y96200D02*
Y96840D01*
X23060Y92420D02*
Y94400D01*
X23100Y99860D02*
Y101720D01*
X22920Y103720D02*
Y105000D01*
Y99660D02*
Y101500D01*
X23020Y96200D02*
Y96880D01*
X22900Y99640D02*
Y101480D01*
X23080Y96200D02*
Y96860D01*
X23140Y99900D02*
Y101780D01*
X23120Y92420D02*
Y94400D01*
X23080Y92420D02*
Y94400D01*
Y89240D02*
Y90640D01*
X22900Y96200D02*
Y96940D01*
X23080Y99840D02*
Y101700D01*
X23060Y103780D02*
Y105000D01*
X23140Y89240D02*
Y90640D01*
X23000Y99740D02*
Y101600D01*
X23140Y92420D02*
Y94400D01*
X23100Y92420D02*
Y94400D01*
X22920Y96200D02*
Y96940D01*
X23040Y89240D02*
Y90640D01*
X23060Y99800D02*
Y101660D01*
X23120Y96200D02*
Y96840D01*
X22980Y92420D02*
Y94400D01*
X23040Y92420D02*
Y94400D01*
X23080Y85000D02*
Y87380D01*
X22920Y92420D02*
Y94380D01*
X23100Y89240D02*
Y90640D01*
Y85000D02*
Y87380D01*
X22920Y89240D02*
Y90640D01*
X23080Y103780D02*
Y105000D01*
X23140Y96200D02*
Y96840D01*
X23100Y103800D02*
Y105000D01*
X22960Y85000D02*
Y87380D01*
X23120Y103800D02*
Y105000D01*
X23060Y89240D02*
Y90640D01*
Y96200D02*
Y96880D01*
X22920Y85000D02*
Y87380D01*
X22940Y89240D02*
Y90640D01*
X22960Y103720D02*
Y105000D01*
X22940Y85000D02*
Y87380D01*
X23000Y103740D02*
Y105000D01*
X22980Y89240D02*
Y90640D01*
X22960Y99700D02*
Y101540D01*
X23340Y103860D02*
Y105000D01*
Y89240D02*
Y90640D01*
Y96200D02*
Y96780D01*
Y92420D02*
Y94400D01*
X22960Y96200D02*
Y96920D01*
X23340Y85000D02*
Y87380D01*
Y100080D02*
Y101940D01*
X23520Y96200D02*
Y96720D01*
X23320Y103860D02*
Y105000D01*
X23400Y100140D02*
Y101980D01*
X23440Y89240D02*
Y90640D01*
X23500Y100240D02*
Y102060D01*
X23520Y92420D02*
Y94400D01*
X23500Y103900D02*
Y105000D01*
X23520Y89240D02*
Y90640D01*
Y85000D02*
Y87380D01*
X23460Y92420D02*
Y94400D01*
Y96200D02*
Y96740D01*
X23500Y96200D02*
Y96740D01*
Y92420D02*
Y94400D01*
Y89240D02*
Y90640D01*
Y85000D02*
Y87380D01*
X23480Y103900D02*
Y105000D01*
Y96200D02*
Y96740D01*
Y92420D02*
Y94400D01*
Y89240D02*
Y90640D01*
X23460Y103900D02*
Y105000D01*
X23480Y100220D02*
Y102040D01*
X23440Y92420D02*
Y94400D01*
X23460Y89240D02*
Y90640D01*
X23440Y96200D02*
Y96760D01*
X23480Y85000D02*
Y87380D01*
X23460Y100200D02*
Y102020D01*
X23440Y100180D02*
Y102020D01*
Y103900D02*
Y105000D01*
X23540Y92420D02*
Y94400D01*
X23360Y96200D02*
Y96780D01*
X23460Y85000D02*
Y87380D01*
X23380Y85000D02*
Y87380D01*
Y89240D02*
Y90640D01*
Y92420D02*
Y94400D01*
X23360Y100100D02*
Y101960D01*
X23380Y96200D02*
Y96760D01*
X23360Y103860D02*
Y105000D01*
X23380Y100120D02*
Y101980D01*
X23400Y85000D02*
Y87380D01*
X23380Y103880D02*
Y105000D01*
X23400Y89240D02*
Y90640D01*
Y92420D02*
Y94400D01*
Y96200D02*
Y96760D01*
X23420Y85000D02*
Y87380D01*
X23400Y103880D02*
Y105000D01*
X23540Y96200D02*
Y96720D01*
X23680Y96200D02*
Y96680D01*
X23520Y103920D02*
Y105000D01*
X22900Y92440D02*
Y94380D01*
X23540Y85000D02*
Y87380D01*
X23420Y96200D02*
Y96760D01*
X23520Y100260D02*
Y102060D01*
X23420Y100160D02*
Y102000D01*
Y103880D02*
Y105000D01*
X23440Y85000D02*
Y87380D01*
X23540Y89240D02*
Y90640D01*
X23420Y92420D02*
Y94400D01*
Y89240D02*
Y90640D01*
X23540Y100280D02*
Y102080D01*
X23560Y92420D02*
Y94400D01*
X23600Y85000D02*
Y87380D01*
X23540Y103920D02*
Y105000D01*
X23680Y89240D02*
Y90640D01*
X23560Y96200D02*
Y96720D01*
X23680Y85000D02*
Y87380D01*
X23660Y103940D02*
Y105000D01*
Y85000D02*
Y87380D01*
Y100360D02*
Y102140D01*
Y92420D02*
Y94400D01*
Y96200D02*
Y96700D01*
Y89240D02*
Y90640D01*
X23640Y103940D02*
Y105000D01*
Y100340D02*
Y102140D01*
Y89240D02*
Y90640D01*
Y92420D02*
Y94400D01*
Y85000D02*
Y87380D01*
Y96200D02*
Y96700D01*
X23620Y103940D02*
Y105000D01*
Y96200D02*
Y96700D01*
Y100340D02*
Y102120D01*
Y85000D02*
Y87380D01*
X23560Y85000D02*
Y87380D01*
X23620Y89240D02*
Y90640D01*
Y92420D02*
Y94400D01*
X23600Y103940D02*
Y105000D01*
Y96200D02*
Y96700D01*
Y100320D02*
Y102120D01*
Y92420D02*
Y94400D01*
X23580Y103940D02*
Y105000D01*
X23600Y89240D02*
Y90640D01*
X23560Y100280D02*
Y102100D01*
X23580Y92420D02*
Y94400D01*
Y100300D02*
Y102100D01*
Y89240D02*
Y90640D01*
X23560Y103920D02*
Y105000D01*
X23580Y85000D02*
Y87380D01*
Y96200D02*
Y96720D01*
X23680Y92420D02*
Y94400D01*
X23560Y89240D02*
Y90640D01*
X23760Y96200D02*
Y96680D01*
X23860Y100560D02*
Y102220D01*
Y92420D02*
Y94400D01*
Y89240D02*
Y90640D01*
Y85000D02*
Y87380D01*
X23840Y100540D02*
Y102220D01*
Y103980D02*
Y105000D01*
Y89240D02*
Y90640D01*
Y96200D02*
Y96660D01*
X23020Y89240D02*
Y90640D01*
X22940Y99680D02*
Y101520D01*
Y92420D02*
Y94380D01*
Y96200D02*
Y96920D01*
X23000Y89240D02*
Y90640D01*
Y92420D02*
Y94400D01*
Y85000D02*
Y87380D01*
X23120Y99880D02*
Y101760D01*
X23360Y92420D02*
Y94400D01*
X23200Y92420D02*
Y94400D01*
X23040Y96200D02*
Y96880D01*
X23160Y85000D02*
Y87380D01*
X23040Y103760D02*
Y105000D01*
X23360Y89240D02*
Y90640D01*
X23040Y99780D02*
Y101640D01*
X23200Y96200D02*
Y96820D01*
X23180Y99920D02*
Y101820D01*
X23060Y85000D02*
Y87380D01*
X23200Y85000D02*
Y87380D01*
X23800Y103980D02*
Y105000D01*
Y92420D02*
Y94400D01*
Y96200D02*
Y96660D01*
X23160Y89240D02*
Y90640D01*
X23300Y92420D02*
Y94400D01*
Y89240D02*
Y90640D01*
X23160Y99900D02*
Y101800D01*
X23260Y92420D02*
Y94400D01*
X23160Y96200D02*
Y96820D01*
X23260Y103860D02*
Y105000D01*
X23360Y85000D02*
Y87380D01*
X23280Y85000D02*
Y87380D01*
X23200Y89240D02*
Y90640D01*
X23160Y92420D02*
Y94400D01*
X23800Y100500D02*
Y102200D01*
X23840Y92420D02*
Y94400D01*
X23820Y89240D02*
Y90640D01*
Y85000D02*
Y87380D01*
Y92420D02*
Y94400D01*
Y96200D02*
Y96660D01*
Y103980D02*
Y105000D01*
X23780Y103980D02*
Y105000D01*
Y100480D02*
Y102200D01*
X23800Y89240D02*
Y90640D01*
Y85000D02*
Y87380D01*
X23180Y103820D02*
Y105000D01*
X22960Y92420D02*
Y94400D01*
Y89240D02*
Y90640D01*
X23020Y99760D02*
Y101620D01*
X22980Y96200D02*
Y96900D01*
Y99720D02*
Y101580D01*
Y103740D02*
Y105000D01*
X23020Y85000D02*
Y87380D01*
X23300Y100040D02*
Y101920D01*
X23780Y89240D02*
Y90640D01*
X23000Y96200D02*
Y96900D01*
X23120Y85000D02*
Y87380D01*
X23040Y85000D02*
Y87380D01*
X23020Y103760D02*
Y105000D01*
X22940Y103720D02*
Y105000D01*
X23020Y92420D02*
Y94400D01*
X23120Y89240D02*
Y90640D01*
X22980Y85000D02*
Y87380D01*
X23300Y96200D02*
Y96780D01*
X23780Y96200D02*
Y96660D01*
X23760Y100460D02*
Y102180D01*
Y103980D02*
Y105000D01*
X23720Y92420D02*
Y94400D01*
X23700Y103960D02*
Y105000D01*
X23720Y96200D02*
Y96680D01*
Y89240D02*
Y90640D01*
X23300Y103860D02*
Y105000D01*
X23320Y89240D02*
Y90640D01*
Y96200D02*
Y96780D01*
Y85000D02*
Y87380D01*
Y92420D02*
Y94400D01*
X23180Y92420D02*
Y94400D01*
X23320Y100060D02*
Y101940D01*
X23180Y96200D02*
Y96820D01*
X23140Y103820D02*
Y105000D01*
X23180Y85000D02*
Y87380D01*
X23160Y103820D02*
Y105000D01*
X23180Y89240D02*
Y90640D01*
X23220Y92420D02*
Y94400D01*
X23200Y99940D02*
Y101840D01*
Y103840D02*
Y105000D01*
X23220Y85000D02*
Y87380D01*
Y89240D02*
Y90640D01*
Y96200D02*
Y96800D01*
Y103840D02*
Y105000D01*
X23240Y85000D02*
Y87380D01*
Y92420D02*
Y94400D01*
Y89240D02*
Y90640D01*
Y96200D02*
Y96800D01*
X23220Y99960D02*
Y101840D01*
X23240Y99980D02*
Y101860D01*
Y103840D02*
Y105000D01*
X23260Y89240D02*
Y90640D01*
Y85000D02*
Y87380D01*
Y100000D02*
Y101880D01*
Y96200D02*
Y96780D01*
X23280Y89240D02*
Y90640D01*
Y96200D02*
Y96780D01*
Y92420D02*
Y94400D01*
Y103860D02*
Y105000D01*
Y100020D02*
Y101900D01*
X23300Y85000D02*
Y87380D01*
X23880Y89240D02*
Y90640D01*
X22900Y89240D02*
Y90640D01*
X23880Y96200D02*
Y96640D01*
Y92420D02*
Y94400D01*
Y98540D02*
Y98620D01*
Y100580D02*
Y102240D01*
Y85000D02*
Y87380D01*
X23860Y103980D02*
Y105000D01*
X23880Y104000D02*
Y105000D01*
X23900Y85000D02*
Y87380D01*
X23860Y96200D02*
Y96660D01*
X23900Y89240D02*
Y90640D01*
X23700Y85000D02*
Y87380D01*
Y89240D02*
Y90640D01*
Y92420D02*
Y94400D01*
X23840Y85000D02*
Y87380D01*
X23820Y100520D02*
Y102220D01*
X23860Y98540D02*
Y98620D01*
X23700Y96200D02*
Y96680D01*
X23680Y103960D02*
Y105000D01*
X23700Y100400D02*
Y102160D01*
X23780Y85000D02*
Y87380D01*
X23720Y85000D02*
Y87380D01*
Y100420D02*
Y102160D01*
Y103960D02*
Y105000D01*
X23740Y92420D02*
Y94400D01*
Y96200D02*
Y96680D01*
Y100440D02*
Y102180D01*
Y103960D02*
Y105000D01*
Y85000D02*
Y87380D01*
Y89240D02*
Y90640D01*
X23760Y85000D02*
Y87380D01*
Y89240D02*
Y90640D01*
Y92420D02*
Y94400D01*
X23780Y92420D02*
Y94400D01*
X23680Y100380D02*
Y102160D01*
X24740Y92420D02*
Y94400D01*
X24680Y98420D02*
Y102340D01*
X24720Y85000D02*
Y87380D01*
X24700Y96200D02*
Y96600D01*
X24400Y96200D02*
Y96600D01*
X24340Y98440D02*
Y99080D01*
Y101040D02*
Y102340D01*
X24400Y92420D02*
Y94400D01*
X24340Y92420D02*
Y94400D01*
X24700Y85000D02*
Y87380D01*
X24420Y89240D02*
Y90640D01*
X24700Y89240D02*
Y90640D01*
X24500Y96200D02*
Y96600D01*
X24680Y104040D02*
Y105000D01*
X24700Y92420D02*
Y94400D01*
X24400Y98420D02*
Y102340D01*
X24820Y92420D02*
Y94400D01*
X24800Y98440D02*
Y102320D01*
X24380Y96200D02*
Y96600D01*
X24340Y96200D02*
Y96600D01*
X24700Y98420D02*
Y102340D01*
X24400Y104040D02*
Y105000D01*
X24660Y96200D02*
Y96600D01*
X24320Y104040D02*
Y105000D01*
X24820Y104040D02*
Y105000D01*
X24420Y98420D02*
Y102340D01*
Y85000D02*
Y87380D01*
X24660Y98420D02*
Y102340D01*
Y104040D02*
Y105000D01*
X24820Y96200D02*
Y96620D01*
X24300Y104040D02*
Y105000D01*
X24680Y85000D02*
Y87380D01*
X24320Y98440D02*
Y99060D01*
X24720Y104040D02*
Y105000D01*
X24420Y104040D02*
Y105000D01*
X24800Y96200D02*
Y96620D01*
X24380Y98420D02*
Y99120D01*
X24700Y104040D02*
Y105000D01*
X24400Y89240D02*
Y90640D01*
X24820Y98440D02*
Y102320D01*
X24720Y96200D02*
Y96620D01*
Y98420D02*
Y102340D01*
X24780Y104040D02*
Y105000D01*
X24800Y85000D02*
Y87380D01*
X24720Y92420D02*
Y94400D01*
X24740Y98420D02*
Y102340D01*
X24760Y85000D02*
Y87380D01*
X24680Y96200D02*
Y96600D01*
X24760Y92420D02*
Y94400D01*
X24780Y92420D02*
Y94400D01*
X24760Y98440D02*
Y102340D01*
X24740Y96200D02*
Y96620D01*
X24760Y89240D02*
Y90640D01*
Y96200D02*
Y96620D01*
X24720Y89240D02*
Y90640D01*
X24740Y85000D02*
Y87380D01*
Y104040D02*
Y105000D01*
Y89240D02*
Y90640D01*
X24380Y101060D02*
Y102340D01*
X24360Y101040D02*
Y102340D01*
X24780Y98440D02*
Y102320D01*
X24800Y89240D02*
Y90640D01*
X24780Y85000D02*
Y87380D01*
X24380Y104040D02*
Y105000D01*
X24780Y89240D02*
Y90640D01*
Y96200D02*
Y96620D01*
X24760Y104040D02*
Y105000D01*
X24800Y92420D02*
Y94400D01*
X24360Y89240D02*
Y90640D01*
X24380Y89240D02*
Y90640D01*
X24800Y104040D02*
Y105000D01*
X24380Y85000D02*
Y87380D01*
X24340Y104040D02*
Y105000D01*
X24820Y89240D02*
Y90640D01*
X24360Y92420D02*
Y94400D01*
X24320Y101020D02*
Y102340D01*
X24360Y85000D02*
Y87380D01*
Y104040D02*
Y105000D01*
X24820Y85000D02*
Y87380D01*
X24360Y98420D02*
Y99100D01*
Y96200D02*
Y96600D01*
X24380Y92420D02*
Y94400D01*
X24340Y89240D02*
Y90640D01*
Y85000D02*
Y87380D01*
X24420Y92420D02*
Y94400D01*
Y96200D02*
Y96600D01*
X24400Y85000D02*
Y87380D01*
X24520Y89240D02*
Y90640D01*
X24680Y89240D02*
Y90640D01*
X24520Y85000D02*
Y87380D01*
X24500Y104040D02*
Y105000D01*
X24220Y96200D02*
Y96600D01*
X24160Y104040D02*
Y105000D01*
Y100840D02*
Y102300D01*
X24180Y104040D02*
Y105000D01*
X24200Y89240D02*
Y90640D01*
Y92420D02*
Y94400D01*
Y96200D02*
Y96600D01*
Y98440D02*
Y98940D01*
Y104040D02*
Y105000D01*
Y100880D02*
Y102320D01*
X24220Y85000D02*
Y87380D01*
Y89240D02*
Y90640D01*
Y92420D02*
Y94400D01*
X24200Y85000D02*
Y87380D01*
X24180Y100860D02*
Y102320D01*
Y96200D02*
Y96600D01*
Y98460D02*
Y98920D01*
X24480Y85000D02*
Y87380D01*
X24180Y92420D02*
Y94400D01*
X24480Y96200D02*
Y96600D01*
X23900Y96200D02*
Y96640D01*
X24080Y104020D02*
Y105000D01*
X24100Y89240D02*
Y90640D01*
Y85000D02*
Y87380D01*
Y92420D02*
Y94400D01*
X24040Y92420D02*
Y94400D01*
X24100Y96200D02*
Y96620D01*
Y100780D02*
Y102300D01*
Y104020D02*
Y105000D01*
X24120Y85000D02*
Y87380D01*
Y89240D02*
Y90640D01*
X24100Y98460D02*
Y98840D01*
X24120Y92420D02*
Y94400D01*
Y96200D02*
Y96620D01*
X24180Y89240D02*
Y90640D01*
X24120Y100800D02*
Y102300D01*
Y98460D02*
Y98860D01*
X24140Y85000D02*
Y87380D01*
X24480Y104040D02*
Y105000D01*
X24500Y85000D02*
Y87380D01*
Y89240D02*
Y90640D01*
Y92420D02*
Y94400D01*
X23900Y100600D02*
Y102240D01*
X23940Y92420D02*
Y94400D01*
Y96200D02*
Y96640D01*
X23900Y98520D02*
Y98640D01*
X23940Y104000D02*
Y105000D01*
Y98520D02*
Y98680D01*
X23960Y85000D02*
Y87380D01*
Y89240D02*
Y90640D01*
Y92420D02*
Y94400D01*
Y98500D02*
Y98700D01*
Y96200D02*
Y96640D01*
Y100660D02*
Y102260D01*
Y104000D02*
Y105000D01*
X23980Y85000D02*
Y87380D01*
Y89240D02*
Y90640D01*
Y92420D02*
Y94400D01*
Y96200D02*
Y96620D01*
Y100660D02*
Y102260D01*
Y98500D02*
Y98720D01*
Y104000D02*
Y105000D01*
X24000Y92420D02*
Y94400D01*
Y85000D02*
Y87380D01*
Y96200D02*
Y96620D01*
Y98500D02*
Y98740D01*
Y100680D02*
Y102280D01*
Y104020D02*
Y105000D01*
X24020Y85000D02*
Y87380D01*
Y92420D02*
Y94400D01*
Y89240D02*
Y90640D01*
X24000Y89240D02*
Y90640D01*
X24020Y98480D02*
Y98760D01*
Y96200D02*
Y96620D01*
Y100700D02*
Y102280D01*
X24040Y85000D02*
Y87380D01*
X24020Y104020D02*
Y105000D01*
X24660Y92420D02*
Y94400D01*
X24680Y92420D02*
Y94400D01*
X24040Y89240D02*
Y90640D01*
Y104020D02*
Y105000D01*
Y100720D02*
Y102280D01*
X24060Y85000D02*
Y87380D01*
X24040Y98480D02*
Y98780D01*
X24060Y89240D02*
Y90640D01*
Y92420D02*
Y94400D01*
Y96200D02*
Y96620D01*
Y98480D02*
Y98800D01*
Y100740D02*
Y102280D01*
X24040Y96200D02*
Y96620D01*
X24080Y89240D02*
Y90640D01*
Y85000D02*
Y87380D01*
Y92420D02*
Y94400D01*
X24060Y104020D02*
Y105000D01*
X24080Y96200D02*
Y96620D01*
X24180Y85000D02*
Y87380D01*
X24120Y104020D02*
Y105000D01*
X24140Y89240D02*
Y90640D01*
Y96200D02*
Y96620D01*
Y92420D02*
Y94400D01*
Y98460D02*
Y98880D01*
Y100820D02*
Y102300D01*
Y104020D02*
Y105000D01*
X24160Y85000D02*
Y87380D01*
Y89240D02*
Y90640D01*
Y96200D02*
Y96600D01*
Y92420D02*
Y94400D01*
Y98460D02*
Y98900D01*
X24080Y100760D02*
Y102300D01*
Y98480D02*
Y98820D01*
X24480Y98420D02*
Y102340D01*
Y92420D02*
Y94400D01*
X23940Y100640D02*
Y102260D01*
X24480Y89240D02*
Y90640D01*
X24460Y104040D02*
Y105000D01*
Y98420D02*
Y102340D01*
Y96200D02*
Y96600D01*
Y92420D02*
Y94400D01*
Y89240D02*
Y90640D01*
Y85000D02*
Y87380D01*
X24440Y104040D02*
Y105000D01*
Y96200D02*
Y96600D01*
Y98420D02*
Y102340D01*
X23900Y104000D02*
Y105000D01*
X24440Y92420D02*
Y94400D01*
Y89240D02*
Y90640D01*
X23920Y96200D02*
Y96640D01*
Y89240D02*
Y90640D01*
Y92420D02*
Y94400D01*
Y98520D02*
Y98660D01*
Y100620D02*
Y102240D01*
Y104000D02*
Y105000D01*
X23940Y85000D02*
Y87380D01*
X23920Y85000D02*
Y87380D01*
X23940Y89240D02*
Y90640D01*
X24640Y98420D02*
Y102340D01*
Y96200D02*
Y96600D01*
Y92420D02*
Y94400D01*
X24440Y85000D02*
Y87380D01*
X24640Y89240D02*
Y90640D01*
X23900Y92420D02*
Y94400D01*
X24640Y85000D02*
Y87380D01*
Y104040D02*
Y105000D01*
X24540Y85000D02*
Y87380D01*
X24620Y104040D02*
Y105000D01*
Y98420D02*
Y102340D01*
Y96200D02*
Y96600D01*
Y92420D02*
Y94400D01*
Y89240D02*
Y90640D01*
Y85000D02*
Y87380D01*
X24600Y104040D02*
Y105000D01*
Y98420D02*
Y102340D01*
Y92420D02*
Y94400D01*
Y96200D02*
Y96600D01*
Y89240D02*
Y90640D01*
X24580Y104040D02*
Y105000D01*
X24560Y98420D02*
Y102340D01*
X24580Y98420D02*
Y102340D01*
Y92420D02*
Y94400D01*
Y96200D02*
Y96600D01*
X24560Y104040D02*
Y105000D01*
X24580Y89240D02*
Y90640D01*
Y85000D02*
Y87380D01*
X24600Y85000D02*
Y87380D01*
X24560Y96200D02*
Y96600D01*
X24540Y104040D02*
Y105000D01*
Y96200D02*
Y96600D01*
X24560Y85000D02*
Y87380D01*
Y89240D02*
Y90640D01*
X24540Y92420D02*
Y94400D01*
Y98420D02*
Y102340D01*
X24520Y104040D02*
Y105000D01*
X24540Y89240D02*
Y90640D01*
X24520Y98420D02*
Y102340D01*
Y96200D02*
Y96600D01*
X24560Y92420D02*
Y94400D01*
X24500Y98420D02*
Y102340D01*
X24520Y92420D02*
Y94400D01*
X24220Y104040D02*
Y105000D01*
Y98440D02*
Y98960D01*
X24660Y85000D02*
Y87380D01*
X24320Y96200D02*
Y96600D01*
Y92420D02*
Y94400D01*
X24660Y89240D02*
Y90640D01*
X24320Y89240D02*
Y90640D01*
Y85000D02*
Y87380D01*
X24300Y89240D02*
Y90640D01*
Y101000D02*
Y102320D01*
Y96200D02*
Y96600D01*
Y98440D02*
Y99040D01*
Y92420D02*
Y94400D01*
Y85000D02*
Y87380D01*
X24280Y98440D02*
Y99020D01*
Y104040D02*
Y105000D01*
Y96200D02*
Y96600D01*
Y100980D02*
Y102320D01*
Y89240D02*
Y90640D01*
Y85000D02*
Y87380D01*
X24260Y104040D02*
Y105000D01*
Y100960D02*
Y102320D01*
X24280Y92420D02*
Y94400D01*
X24260Y98440D02*
Y99000D01*
X24240Y104040D02*
Y105000D01*
X24260Y96200D02*
Y96600D01*
X24220Y100900D02*
Y102320D01*
X24260Y89240D02*
Y90640D01*
Y92420D02*
Y94400D01*
Y85000D02*
Y87380D01*
X24240Y100920D02*
Y102320D01*
Y85000D02*
Y87380D01*
Y96200D02*
Y96600D01*
Y92420D02*
Y94400D01*
Y98440D02*
Y98980D01*
Y89240D02*
Y90640D01*
X24860Y98440D02*
Y102320D01*
X24900Y89240D02*
Y90640D01*
Y92420D02*
Y94400D01*
X24860Y104040D02*
Y105000D01*
Y96200D02*
Y96620D01*
X24840Y98440D02*
Y102320D01*
X24900Y85000D02*
Y87380D01*
X24860Y89240D02*
Y90640D01*
X24840Y92420D02*
Y94400D01*
X24900Y98440D02*
Y102300D01*
X24880Y104020D02*
Y105000D01*
X24980Y85000D02*
Y87380D01*
X24920Y89240D02*
Y90640D01*
Y92420D02*
Y94400D01*
X25540Y98700D02*
Y102060D01*
X24920Y98460D02*
Y102300D01*
Y96200D02*
Y96640D01*
X24940Y89240D02*
Y90640D01*
Y85000D02*
Y87380D01*
Y92420D02*
Y94400D01*
X24920Y104020D02*
Y105000D01*
X24940Y96200D02*
Y96640D01*
Y98460D02*
Y102300D01*
Y104020D02*
Y105000D01*
X24960Y85000D02*
Y87380D01*
Y89240D02*
Y90640D01*
Y92420D02*
Y94400D01*
X24860Y85000D02*
Y87380D01*
X24960Y98460D02*
Y102300D01*
Y96200D02*
Y96640D01*
Y104020D02*
Y105000D01*
X25320Y98580D02*
Y102180D01*
X25340Y85000D02*
Y87380D01*
X25380Y89240D02*
Y90640D01*
X25340Y98580D02*
Y102180D01*
Y96200D02*
Y96700D01*
Y103960D02*
Y105000D01*
X25360Y85000D02*
Y87380D01*
Y89240D02*
Y90640D01*
Y92420D02*
Y94400D01*
Y96200D02*
Y96720D01*
X25680Y85000D02*
Y87380D01*
Y89240D02*
Y90640D01*
Y92420D02*
Y94400D01*
Y96200D02*
Y96800D01*
X25360Y98580D02*
Y102180D01*
X25680Y103860D02*
Y105000D01*
Y98780D02*
Y101980D01*
X25700Y89240D02*
Y90640D01*
Y92420D02*
Y94400D01*
Y85000D02*
Y87380D01*
Y96200D02*
Y96800D01*
Y98800D02*
Y101960D01*
X25020Y98480D02*
Y102280D01*
X25700Y103860D02*
Y105000D01*
X25020Y104020D02*
Y105000D01*
X25720Y85000D02*
Y87380D01*
Y89240D02*
Y90640D01*
Y92420D02*
Y94400D01*
X24840Y96200D02*
Y96620D01*
X24880Y89240D02*
Y90640D01*
X24900Y104020D02*
Y105000D01*
X24860Y92420D02*
Y94400D01*
X24880Y85000D02*
Y87380D01*
X25360Y103940D02*
Y105000D01*
X25320Y103960D02*
Y105000D01*
X25340Y92420D02*
Y94400D01*
X25320Y89240D02*
Y90640D01*
Y96200D02*
Y96700D01*
Y85000D02*
Y87380D01*
X25300Y103960D02*
Y105000D01*
X25320Y92420D02*
Y94400D01*
X25340Y89240D02*
Y90640D01*
X25300Y98560D02*
Y102200D01*
Y96200D02*
Y96700D01*
Y92420D02*
Y94400D01*
Y85000D02*
Y87380D01*
X25280Y103960D02*
Y105000D01*
Y98560D02*
Y102200D01*
Y96200D02*
Y96700D01*
X25300Y89240D02*
Y90640D01*
X25260Y103960D02*
Y105000D01*
X25280Y92420D02*
Y94400D01*
X25260Y98540D02*
Y102220D01*
X25280Y89240D02*
Y90640D01*
X25260Y92420D02*
Y94400D01*
X25280Y85000D02*
Y87380D01*
X25260Y85000D02*
Y87380D01*
X25240Y92420D02*
Y94400D01*
Y103980D02*
Y105000D01*
Y98540D02*
Y102220D01*
X25260Y89240D02*
Y90640D01*
Y96200D02*
Y96700D01*
X25220Y103980D02*
Y105000D01*
X25240Y85000D02*
Y87380D01*
X25220Y98540D02*
Y102220D01*
Y96200D02*
Y96680D01*
Y92420D02*
Y94400D01*
X25240Y89240D02*
Y90640D01*
X25200Y103980D02*
Y105000D01*
Y85000D02*
Y87380D01*
Y98520D02*
Y102240D01*
Y92420D02*
Y94400D01*
Y89240D02*
Y90640D01*
X25180Y103980D02*
Y105000D01*
Y98520D02*
Y102240D01*
Y96200D02*
Y96680D01*
Y89240D02*
Y90640D01*
X25200Y96200D02*
Y96680D01*
X25180Y85000D02*
Y87380D01*
X25160Y103980D02*
Y105000D01*
Y98520D02*
Y102240D01*
X25180Y92420D02*
Y94400D01*
X25160Y96200D02*
Y96660D01*
X25380Y85000D02*
Y87380D01*
X25160Y92420D02*
Y94400D01*
Y89240D02*
Y90640D01*
Y85000D02*
Y87380D01*
X25140Y98500D02*
Y102260D01*
X25220Y89240D02*
Y90640D01*
X25140Y96200D02*
Y96660D01*
Y104000D02*
Y105000D01*
Y89240D02*
Y90640D01*
Y92420D02*
Y94400D01*
Y85000D02*
Y87380D01*
X25220Y85000D02*
Y87380D01*
X25120Y96200D02*
Y96660D01*
Y104000D02*
Y105000D01*
Y89240D02*
Y90640D01*
Y92420D02*
Y94400D01*
Y85000D02*
Y87380D01*
Y98500D02*
Y102260D01*
X25100Y96200D02*
Y96660D01*
Y98500D02*
Y102260D01*
Y92420D02*
Y94400D01*
X24880Y98440D02*
Y102320D01*
X25100Y85000D02*
Y87380D01*
Y89240D02*
Y90640D01*
X25080Y104000D02*
Y105000D01*
X25100Y104000D02*
Y105000D01*
X25080Y92420D02*
Y94400D01*
Y98480D02*
Y102260D01*
Y85000D02*
Y87380D01*
X25060Y96200D02*
Y96660D01*
Y104000D02*
Y105000D01*
X25080Y96200D02*
Y96660D01*
X25060Y92420D02*
Y94400D01*
X25080Y89240D02*
Y90640D01*
X25060Y98480D02*
Y102280D01*
Y85000D02*
Y87380D01*
X25040Y104000D02*
Y105000D01*
X25060Y89240D02*
Y90640D01*
X25040Y96200D02*
Y96640D01*
X25240Y96200D02*
Y96680D01*
X25040Y98480D02*
Y102280D01*
Y92420D02*
Y94400D01*
X25400Y85000D02*
Y87380D01*
X25380Y103940D02*
Y105000D01*
Y92420D02*
Y94400D01*
Y96200D02*
Y96720D01*
X25400Y96200D02*
Y96720D01*
X25460Y103920D02*
Y105000D01*
Y98640D02*
Y102120D01*
Y92420D02*
Y94400D01*
X25380Y98600D02*
Y102160D01*
X25400Y92420D02*
Y94400D01*
X25480Y89240D02*
Y90640D01*
Y98660D02*
Y102100D01*
X25460Y96200D02*
Y96740D01*
X25480Y85000D02*
Y87380D01*
Y92420D02*
Y94400D01*
X25500Y103900D02*
Y105000D01*
X25000Y92420D02*
Y94400D01*
Y89240D02*
Y90640D01*
X25480Y103920D02*
Y105000D01*
X25500Y92420D02*
Y94400D01*
X25540Y85000D02*
Y87380D01*
X25520Y96200D02*
Y96760D01*
Y103900D02*
Y105000D01*
Y85000D02*
Y87380D01*
Y98680D02*
Y102080D01*
X25500Y98680D02*
Y102100D01*
X25520Y92420D02*
Y94400D01*
X25480Y96200D02*
Y96740D01*
X25500Y96200D02*
Y96760D01*
X25000Y96200D02*
Y96640D01*
Y98460D02*
Y102280D01*
Y104020D02*
Y105000D01*
X25020Y85000D02*
Y87380D01*
X25520Y89240D02*
Y90640D01*
X25020Y89240D02*
Y90640D01*
Y96200D02*
Y96640D01*
X24980Y98460D02*
Y102300D01*
Y96200D02*
Y96640D01*
Y104020D02*
Y105000D01*
X25020Y92420D02*
Y94400D01*
X25500Y85000D02*
Y87380D01*
X25420Y92420D02*
Y94400D01*
X25460Y89240D02*
Y90640D01*
X25420Y96200D02*
Y96720D01*
Y89240D02*
Y90640D01*
X25000Y85000D02*
Y87380D01*
X25420Y85000D02*
Y87380D01*
X24980Y92420D02*
Y94400D01*
X25500Y89240D02*
Y90640D01*
X25460Y85000D02*
Y87380D01*
X25400Y89240D02*
Y90640D01*
X25540Y89240D02*
Y90640D01*
Y96200D02*
Y96760D01*
X24980Y89240D02*
Y90640D01*
X25400Y98600D02*
Y102160D01*
X25440Y98640D02*
Y102120D01*
Y92420D02*
Y94400D01*
X25400Y103940D02*
Y105000D01*
X25440Y103920D02*
Y105000D01*
Y89240D02*
Y90640D01*
Y85000D02*
Y87380D01*
Y96200D02*
Y96740D01*
X25420Y103940D02*
Y105000D01*
Y98620D02*
Y102140D01*
X24900Y96200D02*
Y96620D01*
X24840Y104040D02*
Y105000D01*
X25540Y92420D02*
Y94400D01*
X24880Y96200D02*
Y96620D01*
Y92420D02*
Y94400D01*
X24920Y85000D02*
Y87380D01*
X25540Y103900D02*
Y105000D01*
X25560Y85000D02*
Y87380D01*
Y89240D02*
Y90640D01*
Y92420D02*
Y94400D01*
Y98700D02*
Y102060D01*
Y96200D02*
Y96760D01*
Y103900D02*
Y105000D01*
X25580Y89240D02*
Y90640D01*
X25040Y85000D02*
Y87380D01*
X25580Y92420D02*
Y94400D01*
Y96200D02*
Y96780D01*
Y103880D02*
Y105000D01*
Y98720D02*
Y102040D01*
Y85000D02*
Y87380D01*
X25040Y89240D02*
Y90640D01*
X25600Y92420D02*
Y94400D01*
Y96200D02*
Y96780D01*
Y85000D02*
Y87380D01*
Y98740D02*
Y102040D01*
Y89240D02*
Y90640D01*
X25620Y85000D02*
Y87380D01*
Y89240D02*
Y90640D01*
Y92420D02*
Y94400D01*
Y96200D02*
Y96780D01*
Y98740D02*
Y102020D01*
X25600Y103880D02*
Y105000D01*
X25620Y103880D02*
Y105000D01*
X25640Y85000D02*
Y87380D01*
Y92420D02*
Y94400D01*
Y89240D02*
Y90640D01*
Y96200D02*
Y96780D01*
Y98760D02*
Y102000D01*
X25660Y89240D02*
Y90640D01*
Y96200D02*
Y96780D01*
Y92420D02*
Y94400D01*
X25640Y103860D02*
Y105000D01*
X25660Y85000D02*
Y87380D01*
Y103860D02*
Y105000D01*
Y98780D02*
Y102000D01*
X20900Y85000D02*
Y87380D01*
X20880Y94460D02*
Y95720D01*
X20900Y89240D02*
Y92240D01*
X20880Y101520D02*
Y105000D01*
Y97740D02*
Y99160D01*
X20900Y101540D02*
Y105000D01*
X20920Y89240D02*
Y92180D01*
X20860Y101440D02*
Y105000D01*
X20880Y85000D02*
Y87380D01*
Y89240D02*
Y92300D01*
X20840Y101380D02*
Y105000D01*
X20900Y94500D02*
Y95740D01*
X20920Y85000D02*
Y87380D01*
Y94560D02*
Y95760D01*
X20860Y97720D02*
Y99220D01*
X20840Y97700D02*
Y99280D01*
X20900Y97760D02*
Y99120D01*
X20780Y94000D02*
Y99540D01*
X20380Y85000D02*
Y105000D01*
X20780Y85000D02*
Y92760D01*
X20820Y101320D02*
Y105000D01*
X20760Y101060D02*
Y105000D01*
X20780Y101160D02*
Y105000D01*
X20360Y85000D02*
Y105000D01*
X20400Y85000D02*
Y105000D01*
X20840Y85000D02*
Y92460D01*
X20800Y94120D02*
Y99440D01*
Y101240D02*
Y105000D01*
X20820Y94220D02*
Y99360D01*
X20800Y85000D02*
Y92640D01*
X20820Y85000D02*
Y92540D01*
X20840Y94300D02*
Y95680D01*
X20760Y85000D02*
Y92900D01*
X20860Y85000D02*
Y87380D01*
X20760Y93860D02*
Y99640D01*
X20860Y89240D02*
Y92380D01*
Y94380D02*
Y95700D01*
X20060Y85000D02*
Y105000D01*
X20740Y100960D02*
Y105000D01*
X20300Y85000D02*
Y105000D01*
X20480Y85000D02*
Y105000D01*
X20660Y85000D02*
Y105000D01*
X20740Y85000D02*
Y93120D01*
X20620Y85000D02*
Y105000D01*
X20700Y100640D02*
Y105000D01*
X20740Y93620D02*
Y99760D01*
X20640Y85000D02*
Y105000D01*
X20720Y100820D02*
Y105000D01*
Y85000D02*
Y99900D01*
X20680Y85000D02*
Y105000D01*
X20700Y85000D02*
Y100120D01*
X20280Y85000D02*
Y105000D01*
X20460Y85000D02*
Y105000D01*
X20320Y85000D02*
Y105000D01*
X21600Y85000D02*
Y87380D01*
X21820Y102940D02*
Y105000D01*
X20920Y101600D02*
Y105000D01*
X20420Y85000D02*
Y105000D01*
X20340Y85000D02*
Y105000D01*
X20080Y85000D02*
Y105000D01*
X21660Y85000D02*
Y87380D01*
X21600Y95620D02*
Y96420D01*
X21700Y95680D02*
Y96520D01*
X20000Y85000D02*
Y105000D01*
X21740Y89240D02*
Y91060D01*
X20240Y85000D02*
Y105000D01*
X20260Y85000D02*
Y105000D01*
X20220Y85000D02*
Y105000D01*
X20520Y85000D02*
Y105000D01*
X20540Y85000D02*
Y105000D01*
X20560Y85000D02*
Y105000D01*
X20580Y85000D02*
Y105000D01*
X20600Y85000D02*
Y105000D01*
X20160Y85000D02*
Y105000D01*
X20100Y85000D02*
Y105000D01*
X20140Y85000D02*
Y105000D01*
X20120Y85000D02*
Y105000D01*
X20180Y85000D02*
Y105000D01*
X21640Y98440D02*
Y99140D01*
X21800Y85000D02*
Y87380D01*
Y95760D02*
Y96600D01*
Y98600D02*
Y99280D01*
X21640Y95660D02*
Y96460D01*
X21620Y98420D02*
Y99120D01*
Y95640D02*
Y96440D01*
X21740Y85000D02*
Y87380D01*
X21640Y89240D02*
Y91140D01*
X21720Y85000D02*
Y87380D01*
Y95700D02*
Y96520D01*
X21520Y98340D02*
Y99040D01*
X21720Y102840D02*
Y105000D01*
X21500Y89240D02*
Y91260D01*
X21660Y102780D02*
Y105000D01*
X21760Y95740D02*
Y96560D01*
Y98560D02*
Y99240D01*
X21800Y89240D02*
Y91020D01*
X21700Y89240D02*
Y91080D01*
X21760Y102880D02*
Y105000D01*
X21580Y95600D02*
Y96400D01*
X21720Y98520D02*
Y99200D01*
X21520Y102640D02*
Y105000D01*
X21500Y98320D02*
Y99020D01*
X21580Y85000D02*
Y87380D01*
X21640Y102760D02*
Y105000D01*
X21580Y89240D02*
Y91180D01*
Y102720D02*
Y105000D01*
X21520Y85000D02*
Y87380D01*
X20940Y97800D02*
Y99000D01*
X21520Y89240D02*
Y91240D01*
X21660Y98460D02*
Y99160D01*
Y95660D02*
Y96480D01*
X21700Y85000D02*
Y87380D01*
X21680Y89240D02*
Y91100D01*
X20500Y85000D02*
Y105000D01*
X20040Y85000D02*
Y105000D01*
X21500Y95520D02*
Y96320D01*
X20440Y85000D02*
Y105000D01*
X21620Y102740D02*
Y105000D01*
X21680Y98480D02*
Y99160D01*
X21800Y102920D02*
Y105000D01*
X21520Y95540D02*
Y96340D01*
X21680Y85000D02*
Y87380D01*
Y95680D02*
Y96500D01*
X21600Y102720D02*
Y105000D01*
X21780Y102900D02*
Y105000D01*
X21740Y102860D02*
Y105000D01*
X21760Y85000D02*
Y87380D01*
X21740Y95720D02*
Y96540D01*
X21620Y89240D02*
Y91160D01*
X21600Y98400D02*
Y99120D01*
X21620Y85000D02*
Y87380D01*
X21820Y89240D02*
Y91000D01*
X21740Y98540D02*
Y99220D01*
X21820Y95780D02*
Y96620D01*
X21780Y85000D02*
Y87380D01*
Y95740D02*
Y96580D01*
Y89240D02*
Y91040D01*
Y98580D02*
Y99260D01*
X21680Y102800D02*
Y105000D01*
X21640Y85000D02*
Y87380D01*
X21580Y98380D02*
Y99100D01*
X21760Y89240D02*
Y91040D01*
X21820Y85000D02*
Y87380D01*
Y98620D02*
Y99300D01*
X21660Y89240D02*
Y91120D01*
X21700Y98500D02*
Y99180D01*
X21560Y102680D02*
Y105000D01*
X21540Y89240D02*
Y91220D01*
X20020Y85000D02*
Y105000D01*
X21540Y85000D02*
Y87380D01*
X21560Y98380D02*
Y99080D01*
X21700Y102820D02*
Y105000D01*
X21540Y102660D02*
Y105000D01*
X20920Y97780D02*
Y99060D01*
X21720Y89240D02*
Y91080D01*
X21560Y89240D02*
Y91200D01*
Y95580D02*
Y96380D01*
X21540Y98360D02*
Y99060D01*
X21560Y85000D02*
Y87380D01*
X21540Y95560D02*
Y96360D01*
X20940Y94620D02*
Y95780D01*
Y89240D02*
Y92140D01*
X21500Y102620D02*
Y105000D01*
X20960Y89240D02*
Y92080D01*
X20200Y85000D02*
Y105000D01*
X21600Y89240D02*
Y91180D01*
X21420Y102520D02*
Y105000D01*
X21440Y95460D02*
Y96260D01*
Y98260D02*
Y98980D01*
Y102540D02*
Y105000D01*
X21460Y85000D02*
Y87380D01*
Y89240D02*
Y91300D01*
Y95480D02*
Y96280D01*
Y98280D02*
Y98980D01*
Y102560D02*
Y105000D01*
X21480Y85000D02*
Y87380D01*
Y89240D02*
Y91280D01*
Y95500D02*
Y96300D01*
Y98300D02*
Y99000D01*
Y102600D02*
Y105000D01*
X21440Y89240D02*
Y91320D01*
X21420Y98240D02*
Y98960D01*
X21060Y89240D02*
Y91880D01*
X21300Y89240D02*
Y91500D01*
Y95280D02*
Y96120D01*
Y98120D02*
Y98840D01*
X21280Y102320D02*
Y105000D01*
X21300Y102340D02*
Y105000D01*
Y85000D02*
Y87380D01*
X21320Y85000D02*
Y87380D01*
Y95320D02*
Y96140D01*
Y89240D02*
Y91460D01*
Y98140D02*
Y98860D01*
Y102380D02*
Y105000D01*
X21040Y101880D02*
Y105000D01*
X21340Y85000D02*
Y87380D01*
X20940Y85000D02*
Y87380D01*
X21340Y89240D02*
Y91440D01*
X21420Y95440D02*
Y96240D01*
X21340Y95340D02*
Y96160D01*
X21360Y95360D02*
Y96180D01*
X21340Y98160D02*
Y98880D01*
X21420Y89240D02*
Y91360D01*
X21060Y97920D02*
Y98760D01*
X21040Y97900D02*
Y98800D01*
X21060Y101920D02*
Y105000D01*
X21080Y85000D02*
Y87380D01*
Y89240D02*
Y91840D01*
Y94940D02*
Y95900D01*
Y97940D02*
Y98720D01*
Y101960D02*
Y105000D01*
X21100Y89240D02*
Y91800D01*
Y94980D02*
Y95920D01*
Y97960D02*
Y98700D01*
Y102000D02*
Y105000D01*
X21120Y85000D02*
Y87380D01*
Y89240D02*
Y91760D01*
Y95000D02*
Y95940D01*
Y97980D02*
Y98680D01*
Y102040D02*
Y105000D01*
X21100Y85000D02*
Y87380D01*
X21140Y85000D02*
Y87380D01*
Y89240D02*
Y91720D01*
Y95040D02*
Y95960D01*
Y97980D02*
Y98700D01*
Y102080D02*
Y105000D01*
X21160Y85000D02*
Y87380D01*
Y89240D02*
Y91700D01*
Y98000D02*
Y98720D01*
Y95080D02*
Y95980D01*
X21180Y89240D02*
Y91660D01*
X21160Y102120D02*
Y105000D01*
X21180Y98000D02*
Y98740D01*
Y95100D02*
Y96000D01*
Y102160D02*
Y105000D01*
X21200Y85000D02*
Y87380D01*
Y95140D02*
Y96020D01*
Y89240D02*
Y91640D01*
Y102180D02*
Y105000D01*
Y98020D02*
Y98760D01*
X21220Y89240D02*
Y91600D01*
Y95180D02*
Y96040D01*
Y98040D02*
Y98780D01*
X21180Y85000D02*
Y87380D01*
X21220Y102220D02*
Y105000D01*
Y85000D02*
Y87380D01*
X21240Y85000D02*
Y87380D01*
Y89240D02*
Y91580D01*
Y95200D02*
Y96060D01*
Y98060D02*
Y98800D01*
Y102240D02*
Y105000D01*
X21260Y85000D02*
Y87380D01*
Y89240D02*
Y91540D01*
Y98080D02*
Y98800D01*
Y95240D02*
Y96080D01*
X21280Y89240D02*
Y91520D01*
X21260Y102280D02*
Y105000D01*
X21280Y98100D02*
Y98820D01*
Y95260D02*
Y96100D01*
X21440Y85000D02*
Y87380D01*
X21360Y89240D02*
Y91420D01*
Y102440D02*
Y105000D01*
Y85000D02*
Y87380D01*
X21380Y85000D02*
Y87380D01*
X21340Y102400D02*
Y105000D01*
X21380Y95380D02*
Y96200D01*
Y89240D02*
Y91400D01*
Y98200D02*
Y98920D01*
Y102460D02*
Y105000D01*
X21400Y85000D02*
Y87380D01*
Y98220D02*
Y98940D01*
Y102480D02*
Y105000D01*
Y95420D02*
Y96220D01*
X21420Y85000D02*
Y87380D01*
X21400Y89240D02*
Y91380D01*
X21280Y85000D02*
Y87380D01*
X21060Y94900D02*
Y95880D01*
X21360Y98180D02*
Y98900D01*
X21500Y85000D02*
Y87380D01*
X21060Y85000D02*
Y87380D01*
X21040Y94860D02*
Y95860D01*
Y89240D02*
Y91920D01*
X20940Y101660D02*
Y105000D01*
X21020Y101840D02*
Y105000D01*
Y97880D02*
Y98840D01*
X21040Y85000D02*
Y87380D01*
X21000Y85000D02*
Y87380D01*
X21020Y89240D02*
Y91960D01*
Y85000D02*
Y87380D01*
X21000Y101800D02*
Y105000D01*
X21020Y94820D02*
Y95840D01*
X21000Y97860D02*
Y98880D01*
X20980Y101740D02*
Y105000D01*
Y94720D02*
Y95820D01*
X21000Y89240D02*
Y92000D01*
X20980Y97840D02*
Y98920D01*
Y89240D02*
Y92060D01*
Y85000D02*
Y87380D01*
X20960Y85000D02*
Y87380D01*
Y101700D02*
Y105000D01*
X21000Y94760D02*
Y95820D01*
X20960Y97820D02*
Y98960D01*
Y94660D02*
Y95800D01*
X17500Y85000D02*
Y105000D01*
X17420Y85000D02*
Y105000D01*
X17440Y85000D02*
Y105000D01*
X17560Y85000D02*
Y105000D01*
X17540Y85000D02*
Y105000D01*
X17640Y85000D02*
Y105000D01*
X17620Y85000D02*
Y105000D01*
X17660Y85000D02*
Y105000D01*
X17680Y85000D02*
Y105000D01*
X17520Y85000D02*
Y105000D01*
X17600Y85000D02*
Y105000D01*
X17480Y85000D02*
Y105000D01*
X17740Y85000D02*
Y105000D01*
X17580Y85000D02*
Y105000D01*
X17800Y85000D02*
Y105000D01*
X17880Y85000D02*
Y105000D01*
X17720Y85000D02*
Y105000D01*
X17820Y85000D02*
Y105000D01*
X17860Y85000D02*
Y105000D01*
X17700Y85000D02*
Y105000D01*
X17900Y85000D02*
Y105000D01*
X17980Y85000D02*
Y105000D01*
X17960Y85000D02*
Y105000D01*
X17940Y85000D02*
Y105000D01*
X17920Y85000D02*
Y105000D01*
X18000Y85000D02*
Y105000D01*
X18020Y85000D02*
Y105000D01*
X17840Y85000D02*
Y105000D01*
X18060Y85000D02*
Y105000D01*
X18180Y85000D02*
Y105000D01*
X18160Y85000D02*
Y105000D01*
X18140Y85000D02*
Y105000D01*
X17780Y85000D02*
Y105000D01*
X18120Y85000D02*
Y105000D01*
X18280Y85000D02*
Y105000D01*
X18100Y85000D02*
Y105000D01*
X18300Y85000D02*
Y105000D01*
X18240Y85000D02*
Y105000D01*
X18220Y85000D02*
Y105000D01*
X18080Y85000D02*
Y105000D01*
X18260Y85000D02*
Y105000D01*
X18320Y85000D02*
Y105000D01*
X17760Y85000D02*
Y105000D01*
X17380Y85000D02*
Y105000D01*
X17400Y85000D02*
Y105000D01*
X15080Y85000D02*
Y105000D01*
X17360Y85000D02*
Y105000D01*
X17320Y85000D02*
Y105000D01*
X16780Y85000D02*
Y105000D01*
X16660Y85000D02*
Y105000D01*
X16640Y85000D02*
Y105000D01*
X16600Y85000D02*
Y105000D01*
X16620Y85000D02*
Y105000D01*
X16680Y85000D02*
Y105000D01*
X14940Y85000D02*
Y105000D01*
X16580Y85000D02*
Y105000D01*
X16480Y85000D02*
Y105000D01*
X16520Y85000D02*
Y105000D01*
X16500Y85000D02*
Y105000D01*
X16460Y85000D02*
Y105000D01*
X16420Y85000D02*
Y105000D01*
X16440Y85000D02*
Y105000D01*
X16540Y85000D02*
Y105000D01*
X16380Y85000D02*
Y105000D01*
X16360Y85000D02*
Y105000D01*
X16400Y85000D02*
Y105000D01*
X16320Y85000D02*
Y105000D01*
X16340Y85000D02*
Y105000D01*
X16300Y85000D02*
Y105000D01*
X16560Y85000D02*
Y105000D01*
X16240Y85000D02*
Y105000D01*
X16260Y85000D02*
Y105000D01*
X16220Y85000D02*
Y105000D01*
X16180Y85000D02*
Y105000D01*
X16160Y85000D02*
Y105000D01*
X16140Y85000D02*
Y105000D01*
X15420Y85000D02*
Y105000D01*
X16280Y85000D02*
Y105000D01*
X16200Y85000D02*
Y105000D01*
X15740Y85000D02*
Y105000D01*
X15680Y85000D02*
Y105000D01*
X17460Y85000D02*
Y105000D01*
X18360Y85000D02*
Y105000D01*
X15480Y85000D02*
Y105000D01*
X15700Y85000D02*
Y105000D01*
X15660Y85000D02*
Y105000D01*
X16700Y85000D02*
Y105000D01*
X15640Y85000D02*
Y105000D01*
X15620Y85000D02*
Y105000D01*
X15580Y85000D02*
Y105000D01*
X15720Y85000D02*
Y105000D01*
X15560Y85000D02*
Y105000D01*
X15600Y85000D02*
Y105000D01*
X18340Y85000D02*
Y105000D01*
X15500Y85000D02*
Y105000D01*
X16100Y85000D02*
Y105000D01*
X15760Y85000D02*
Y105000D01*
X16120Y85000D02*
Y105000D01*
X17260Y85000D02*
Y105000D01*
X17300Y85000D02*
Y105000D01*
X15540Y85000D02*
Y105000D01*
X15520Y85000D02*
Y105000D01*
X17340Y85000D02*
Y105000D01*
X16720Y85000D02*
Y105000D01*
X16760Y85000D02*
Y105000D01*
X16740Y85000D02*
Y105000D01*
X15360Y85000D02*
Y105000D01*
X15140Y85000D02*
Y105000D01*
X15120Y85000D02*
Y105000D01*
X15100Y85000D02*
Y105000D01*
X15160Y85000D02*
Y105000D01*
X15180Y85000D02*
Y105000D01*
X15380Y85000D02*
Y105000D01*
X16080Y85000D02*
Y105000D01*
X17280Y85000D02*
Y105000D01*
X16060Y85000D02*
Y105000D01*
X16020Y85000D02*
Y105000D01*
X16040Y85000D02*
Y105000D01*
X15980Y85000D02*
Y105000D01*
X15920Y85000D02*
Y105000D01*
X15940Y85000D02*
Y105000D01*
X16000Y85000D02*
Y105000D01*
X15900Y85000D02*
Y105000D01*
X15880Y85000D02*
Y105000D01*
X15400Y85000D02*
Y105000D01*
X15840Y85000D02*
Y105000D01*
X15860Y85000D02*
Y105000D01*
X15820Y85000D02*
Y105000D01*
X15440Y85000D02*
Y105000D01*
X15960Y85000D02*
Y105000D01*
X18740Y85000D02*
Y105000D01*
X15800Y85000D02*
Y105000D01*
X17200Y85000D02*
Y105000D01*
X17240Y85000D02*
Y105000D01*
X17180Y85000D02*
Y105000D01*
X17140Y85000D02*
Y105000D01*
X17160Y85000D02*
Y105000D01*
X17120Y85000D02*
Y105000D01*
X17220Y85000D02*
Y105000D01*
X17060Y85000D02*
Y105000D01*
X17080Y85000D02*
Y105000D01*
X15780Y85000D02*
Y105000D01*
X17040Y85000D02*
Y105000D01*
X17020Y85000D02*
Y105000D01*
X17100Y85000D02*
Y105000D01*
X16980Y85000D02*
Y105000D01*
X17000Y85000D02*
Y105000D01*
X16960Y85000D02*
Y105000D01*
X16940Y85000D02*
Y105000D01*
X16920Y85000D02*
Y105000D01*
X16880Y85000D02*
Y105000D01*
X16860Y85000D02*
Y105000D01*
X16840Y85000D02*
Y105000D01*
X16820Y85000D02*
Y105000D01*
X16900Y85000D02*
Y105000D01*
X15460Y85000D02*
Y105000D01*
X16800Y85000D02*
Y105000D01*
X14220Y85000D02*
Y105000D01*
X15200Y85000D02*
Y105000D01*
X19460Y85000D02*
Y105000D01*
X18880Y85000D02*
Y105000D01*
X18720Y85000D02*
Y105000D01*
X19120Y85000D02*
Y105000D01*
X19140Y85000D02*
Y105000D01*
X14040Y85000D02*
Y105000D01*
X19160Y85000D02*
Y105000D01*
X19500Y85000D02*
Y105000D01*
X19700Y85000D02*
Y105000D01*
X19480Y85000D02*
Y105000D01*
X19060Y85000D02*
Y105000D01*
X19100Y85000D02*
Y105000D01*
X19040Y85000D02*
Y105000D01*
X19020Y85000D02*
Y105000D01*
X19620Y85000D02*
Y105000D01*
X19000Y85000D02*
Y105000D01*
X19080Y85000D02*
Y105000D01*
X18840Y85000D02*
Y105000D01*
X18900Y85000D02*
Y105000D01*
X18960Y85000D02*
Y105000D01*
X19240Y85000D02*
Y105000D01*
X19360Y85000D02*
Y105000D01*
X18680Y85000D02*
Y105000D01*
X19260Y85000D02*
Y105000D01*
X15340Y85000D02*
Y105000D01*
X15280Y85000D02*
Y105000D01*
X15320Y85000D02*
Y105000D01*
X14080Y85000D02*
Y105000D01*
X14060Y85000D02*
Y105000D01*
X15300Y85000D02*
Y105000D01*
X15220Y85000D02*
Y105000D01*
X14960Y85000D02*
Y105000D01*
X19640Y85000D02*
Y105000D01*
X15260Y85000D02*
Y105000D01*
X19660Y85000D02*
Y105000D01*
X18980Y85000D02*
Y105000D01*
X14980Y85000D02*
Y105000D01*
X14240Y85000D02*
Y105000D01*
X15040Y85000D02*
Y105000D01*
X18640Y85000D02*
Y105000D01*
X15020Y85000D02*
Y105000D01*
X19400Y85000D02*
Y105000D01*
X14200Y85000D02*
Y105000D01*
X19200Y85000D02*
Y105000D01*
X18780Y85000D02*
Y105000D01*
X14180Y85000D02*
Y105000D01*
X19880Y85000D02*
Y105000D01*
X19780Y85000D02*
Y105000D01*
X19600Y85000D02*
Y105000D01*
X14320Y85000D02*
Y105000D01*
X19820Y85000D02*
Y105000D01*
X19760Y85000D02*
Y105000D01*
X15240Y85000D02*
Y105000D01*
X15000Y85000D02*
Y105000D01*
X18600Y85000D02*
Y105000D01*
X19580Y85000D02*
Y105000D01*
X18580Y85000D02*
Y105000D01*
X18560Y85000D02*
Y105000D01*
X18400Y85000D02*
Y105000D01*
X18540Y85000D02*
Y105000D01*
X18520Y85000D02*
Y105000D01*
X18500Y85000D02*
Y105000D01*
X18480Y85000D02*
Y105000D01*
X18440Y85000D02*
Y105000D01*
X18420Y85000D02*
Y105000D01*
X18460Y85000D02*
Y105000D01*
X18380Y85000D02*
Y105000D01*
X19860Y85000D02*
Y105000D01*
X19380Y85000D02*
Y105000D01*
X19680Y85000D02*
Y105000D01*
X14140Y85000D02*
Y105000D01*
X18760Y85000D02*
Y105000D01*
X18700Y85000D02*
Y105000D01*
X19540Y85000D02*
Y105000D01*
X19340Y85000D02*
Y105000D01*
X18800Y85000D02*
Y105000D01*
X19980Y85000D02*
Y105000D01*
X19300Y85000D02*
Y105000D01*
X19180Y85000D02*
Y105000D01*
X19440Y85000D02*
Y105000D01*
X14120Y85000D02*
Y105000D01*
X14020Y85000D02*
Y105000D01*
X19840Y85000D02*
Y105000D01*
X19320Y85000D02*
Y105000D01*
X18820Y85000D02*
Y105000D01*
X19560Y85000D02*
Y105000D01*
X18920Y85000D02*
Y105000D01*
X19920Y85000D02*
Y105000D01*
X19960Y85000D02*
Y105000D01*
X18860Y85000D02*
Y105000D01*
X19280Y85000D02*
Y105000D01*
X19900Y85000D02*
Y105000D01*
X19740Y85000D02*
Y105000D01*
X19800Y85000D02*
Y105000D01*
X19940Y85000D02*
Y105000D01*
X19220Y85000D02*
Y105000D01*
X19720Y85000D02*
Y105000D01*
X14100Y85000D02*
Y105000D01*
X18620Y85000D02*
Y105000D01*
X18040Y85000D02*
Y105000D01*
X15060Y85000D02*
Y105000D01*
X13980Y85000D02*
Y105000D01*
X19520Y85000D02*
Y105000D01*
X18940Y85000D02*
Y105000D01*
X14000Y85000D02*
Y105000D01*
X14540Y85000D02*
Y105000D01*
X14440Y85000D02*
Y105000D01*
X14280Y85000D02*
Y105000D01*
X14420Y85000D02*
Y105000D01*
X14500Y85000D02*
Y105000D01*
X14480Y85000D02*
Y105000D01*
X14700Y85000D02*
Y105000D01*
X14740Y85000D02*
Y105000D01*
X14260Y85000D02*
Y105000D01*
X18200Y85000D02*
Y105000D01*
X14920Y85000D02*
Y105000D01*
X14520Y85000D02*
Y105000D01*
X14640Y85000D02*
Y105000D01*
X14360Y85000D02*
Y105000D01*
X14660Y85000D02*
Y105000D01*
X14840Y85000D02*
Y105000D01*
X18660Y85000D02*
Y105000D01*
X14380Y85000D02*
Y105000D01*
X14900Y85000D02*
Y105000D01*
X14720Y85000D02*
Y105000D01*
X14460Y85000D02*
Y105000D01*
X14620Y85000D02*
Y105000D01*
X14880Y85000D02*
Y105000D01*
X14400Y85000D02*
Y105000D01*
X19420Y85000D02*
Y105000D01*
X14860Y85000D02*
Y105000D01*
X14680Y85000D02*
Y105000D01*
X14160Y85000D02*
Y105000D01*
X14340Y85000D02*
Y105000D01*
X14800Y85000D02*
Y105000D01*
X14760Y85000D02*
Y105000D01*
X14560Y85000D02*
Y105000D01*
X14580Y85000D02*
Y105000D01*
X14780Y85000D02*
Y105000D01*
X14300Y85000D02*
Y105000D01*
X14820Y85000D02*
Y105000D01*
X14600Y85000D02*
Y105000D01*
X25900Y98960D02*
Y101800D01*
X25920Y89240D02*
Y90700D01*
X25820Y85000D02*
Y87380D01*
X25840Y89240D02*
Y90640D01*
X25880Y89240D02*
Y90660D01*
X25860Y89240D02*
Y90640D01*
X25960Y96200D02*
Y96900D01*
X25920Y103780D02*
Y105000D01*
X25940Y103760D02*
Y105000D01*
X25960Y85000D02*
Y87380D01*
X25860Y92420D02*
Y94400D01*
X25880Y98940D02*
Y101820D01*
Y85000D02*
Y87380D01*
X25840Y98920D02*
Y101860D01*
X25900Y103780D02*
Y105000D01*
X25980Y85000D02*
Y87380D01*
X25820Y103820D02*
Y105000D01*
X25900Y85000D02*
Y87380D01*
X25940Y99000D02*
Y101760D01*
X25800Y96200D02*
Y96840D01*
X25940Y96200D02*
Y96900D01*
X25960Y92420D02*
Y94400D01*
X25840Y92420D02*
Y94400D01*
X25900Y96200D02*
Y96880D01*
X25820Y92420D02*
Y94400D01*
X25800Y103820D02*
Y105000D01*
X25920Y85000D02*
Y87380D01*
X25960Y89240D02*
Y90720D01*
X25860Y96200D02*
Y96860D01*
X25840Y85000D02*
Y87380D01*
Y103800D02*
Y105000D01*
X25860Y103800D02*
Y105000D01*
X25940Y92420D02*
Y94400D01*
X25860Y98940D02*
Y101840D01*
X25880Y92420D02*
Y94400D01*
X25900Y92420D02*
Y94400D01*
X25820Y98900D02*
Y101880D01*
X25960Y103760D02*
Y105000D01*
X25940Y89240D02*
Y90700D01*
X25880Y96200D02*
Y96860D01*
X25920Y98980D02*
Y101780D01*
X25840Y96200D02*
Y96860D01*
X25920Y96200D02*
Y96880D01*
X25800Y98880D02*
Y101900D01*
X25940Y85000D02*
Y87380D01*
X25920Y92420D02*
Y94400D01*
X25860Y85000D02*
Y87380D01*
X25960Y99020D02*
Y101740D01*
X25820Y89240D02*
Y90640D01*
X25880Y103800D02*
Y105000D01*
X25900Y89240D02*
Y90680D01*
X25820Y96200D02*
Y96840D01*
X22760Y92480D02*
Y94320D01*
X22680Y99440D02*
Y101040D01*
X22880Y99620D02*
Y101460D01*
X22700Y99460D02*
Y101100D01*
X22860Y99600D02*
Y101420D01*
Y96200D02*
Y96960D01*
X22820Y92460D02*
Y94360D01*
X22880Y96200D02*
Y96940D01*
X22780Y89240D02*
Y90640D01*
X22760Y103640D02*
Y105000D01*
X22840Y103680D02*
Y105000D01*
Y99580D02*
Y101380D01*
X22860Y85000D02*
Y87380D01*
X22780Y103640D02*
Y105000D01*
X22800Y92460D02*
Y94340D01*
X22820Y85000D02*
Y87380D01*
X22800Y89240D02*
Y90640D01*
X22780Y85000D02*
Y87380D01*
X22760Y96180D02*
Y97000D01*
X22800Y99540D02*
Y101320D01*
Y103660D02*
Y105000D01*
X22840Y89240D02*
Y90640D01*
Y85000D02*
Y87380D01*
X22800Y96180D02*
Y96980D01*
X22680Y96180D02*
Y97040D01*
X22820Y96180D02*
Y96980D01*
X22800Y85000D02*
Y87380D01*
X22680Y92540D02*
Y94280D01*
X22840Y96200D02*
Y96960D01*
X22760Y85000D02*
Y87380D01*
X22780Y99520D02*
Y101280D01*
Y92480D02*
Y94340D01*
Y96180D02*
Y97000D01*
X22640Y89240D02*
Y90660D01*
X22220Y99020D02*
Y99680D01*
X22740Y96180D02*
Y97020D01*
X22640Y92580D02*
Y94240D01*
X22260Y96040D02*
Y97060D01*
X22600Y99360D02*
Y100040D01*
X22740Y99500D02*
Y101200D01*
X22280Y103340D02*
Y105000D01*
X22600Y89240D02*
Y90680D01*
X22580Y103540D02*
Y105000D01*
X22740Y103620D02*
Y105000D01*
X22600Y85000D02*
Y87380D01*
Y92620D02*
Y94180D01*
X22320Y89240D02*
Y90760D01*
X22280Y85000D02*
Y87380D01*
X22900Y85000D02*
Y87380D01*
X22640Y85000D02*
Y87380D01*
X22620Y103560D02*
Y105000D01*
Y99380D02*
Y100840D01*
X22520Y103500D02*
Y105000D01*
Y89240D02*
Y90700D01*
X22500Y96120D02*
Y97140D01*
X22280Y99080D02*
Y99740D01*
X22240Y85000D02*
Y87380D01*
X22380Y89240D02*
Y90740D01*
X22500Y103480D02*
Y105000D01*
X22140Y85000D02*
Y87380D01*
X22060Y98860D02*
Y99540D01*
Y95940D02*
Y96860D01*
X22140Y98940D02*
Y99620D01*
Y95980D02*
Y96940D01*
X22340Y85000D02*
Y87380D01*
X22600Y103540D02*
Y105000D01*
X22700Y103600D02*
Y105000D01*
X22180Y96000D02*
Y96980D01*
X22640Y96160D02*
Y97060D01*
X22620Y96160D02*
Y97080D01*
X22580Y99340D02*
Y100020D01*
X22620Y85000D02*
Y87380D01*
X22580Y100160D02*
Y100600D01*
X22600Y96160D02*
Y97080D01*
X22580Y92660D02*
Y94160D01*
Y96140D02*
Y97100D01*
Y85000D02*
Y87380D01*
X22560Y103520D02*
Y105000D01*
X22620Y89240D02*
Y90680D01*
X22560Y96140D02*
Y97120D01*
Y92680D02*
Y94120D01*
Y89240D02*
Y90680D01*
X22580Y89240D02*
Y90680D01*
X22540Y103520D02*
Y105000D01*
X22560Y85000D02*
Y87380D01*
Y99320D02*
Y100000D01*
X22540Y99300D02*
Y99980D01*
X22600Y100060D02*
Y100740D01*
X22540Y96140D02*
Y97120D01*
Y85000D02*
Y87380D01*
Y89240D02*
Y90700D01*
X22520Y96140D02*
Y97140D01*
Y92760D02*
Y94040D01*
Y99280D02*
Y99960D01*
X22500Y99260D02*
Y99960D01*
X22520Y85000D02*
Y87380D01*
X22500Y89240D02*
Y90700D01*
X22260Y103340D02*
Y105000D01*
X22480Y103480D02*
Y105000D01*
X22540Y92720D02*
Y94080D01*
X22480Y96120D02*
Y97160D01*
X22500Y85000D02*
Y87380D01*
Y92820D02*
Y93980D01*
X22480Y92880D02*
Y93920D01*
Y85000D02*
Y87380D01*
Y89240D02*
Y90700D01*
X22460Y99220D02*
Y99920D01*
Y103460D02*
Y105000D01*
Y96120D02*
Y97180D01*
Y89240D02*
Y90720D01*
Y92940D02*
Y93840D01*
Y85000D02*
Y87380D01*
X22480Y99240D02*
Y99940D01*
X22440Y103460D02*
Y105000D01*
X22240Y103320D02*
Y105000D01*
X22220Y85000D02*
Y87380D01*
X22260Y85000D02*
Y87380D01*
X22240Y96040D02*
Y97040D01*
X22380Y96080D02*
Y97180D01*
X22240Y99040D02*
Y99700D01*
X22200Y96020D02*
Y97000D01*
X22220Y89240D02*
Y90800D01*
X22180Y98980D02*
Y99660D01*
X22360Y96080D02*
Y97160D01*
X22040Y98840D02*
Y99520D01*
X22160Y96000D02*
Y96960D01*
X22360Y99140D02*
Y99820D01*
X22180Y103280D02*
Y105000D01*
X22160Y89240D02*
Y90820D01*
X22320Y99120D02*
Y99780D01*
X22620Y92600D02*
Y94200D01*
X22720Y85000D02*
Y87380D01*
X22820Y89240D02*
Y90640D01*
X22120Y95980D02*
Y96920D01*
X22720Y89240D02*
Y90660D01*
X22640Y99400D02*
Y100920D01*
X22880Y103700D02*
Y105000D01*
X22160Y85000D02*
Y87380D01*
X22660Y89240D02*
Y90660D01*
X22720Y103620D02*
Y105000D01*
Y96180D02*
Y97020D01*
X22740Y89240D02*
Y90660D01*
X22700Y85000D02*
Y87380D01*
X22660Y96160D02*
Y97060D01*
X22720Y92500D02*
Y94300D01*
X22820Y103660D02*
Y105000D01*
X22840Y92440D02*
Y94360D01*
X22860Y89240D02*
Y90640D01*
X22640Y103580D02*
Y105000D01*
X22740Y85000D02*
Y87380D01*
X22220Y96020D02*
Y97020D01*
X22160Y103260D02*
Y105000D01*
X22060Y89240D02*
Y90860D01*
X22180Y89240D02*
Y90820D01*
X22820Y99560D02*
Y101360D01*
X22300Y89240D02*
Y90760D01*
Y103360D02*
Y105000D01*
Y96060D02*
Y97100D01*
X22400Y89240D02*
Y90740D01*
X22320Y96060D02*
Y97120D01*
Y103380D02*
Y105000D01*
X22420Y99180D02*
Y99880D01*
X22220Y103300D02*
Y105000D01*
X22320Y85000D02*
Y87380D01*
X22200Y99000D02*
Y99660D01*
X22360Y89240D02*
Y90740D01*
X22060Y85000D02*
Y87380D01*
X22380Y85000D02*
Y87380D01*
X22140Y103240D02*
Y105000D01*
X22120Y89240D02*
Y90840D01*
X22340Y89240D02*
Y90740D01*
X22120Y85000D02*
Y87380D01*
X22380Y103420D02*
Y105000D01*
X22360Y103400D02*
Y105000D01*
X22040Y89240D02*
Y90880D01*
X22380Y99160D02*
Y99840D01*
X22660Y92560D02*
Y94260D01*
X22860Y92440D02*
Y94380D01*
X22760Y89240D02*
Y90660D01*
X22860Y103680D02*
Y105000D01*
X22680Y85000D02*
Y87380D01*
X22720Y99480D02*
Y101140D01*
X22660Y85000D02*
Y87380D01*
X22680Y103600D02*
Y105000D01*
X22880Y89240D02*
Y90640D01*
X22700Y92520D02*
Y94280D01*
Y96180D02*
Y97040D01*
Y89240D02*
Y90660D01*
X22080Y103200D02*
Y105000D01*
X22260Y99060D02*
Y99720D01*
X22040Y85000D02*
Y87380D01*
X22880Y85000D02*
Y87380D01*
Y92440D02*
Y94380D01*
X22680Y89240D02*
Y90660D01*
X22760Y99520D02*
Y101240D01*
X22660Y99420D02*
Y100980D01*
X22740Y92500D02*
Y94320D01*
X22660Y103580D02*
Y105000D01*
X21920Y95860D02*
Y96720D01*
X22420Y89240D02*
Y90720D01*
X21940Y85000D02*
Y87380D01*
X22440Y89240D02*
Y90720D01*
X22420Y103440D02*
Y105000D01*
X21980Y89240D02*
Y90900D01*
X21940Y89240D02*
Y90920D01*
X22440Y96100D02*
Y97180D01*
X22020Y85000D02*
Y87380D01*
Y89240D02*
Y90880D01*
Y98820D02*
Y99500D01*
Y95920D02*
Y96820D01*
X22140Y89240D02*
Y90840D01*
X22000Y103120D02*
Y105000D01*
X22160Y98960D02*
Y99640D01*
X22000Y98800D02*
Y99480D01*
Y85000D02*
Y87380D01*
X21980Y103120D02*
Y105000D01*
X22000Y95900D02*
Y96800D01*
X21980Y98780D02*
Y99460D01*
X22000Y89240D02*
Y90900D01*
X22020Y103140D02*
Y105000D01*
X22400Y85000D02*
Y87380D01*
X22040Y103160D02*
Y105000D01*
Y95940D02*
Y96840D01*
X22180Y85000D02*
Y87380D01*
X22340Y99140D02*
Y99800D01*
X22100Y85000D02*
Y87380D01*
Y89240D02*
Y90840D01*
X22080Y98880D02*
Y99560D01*
X22100Y95960D02*
Y96900D01*
X22400Y96100D02*
Y97180D01*
X22280Y89240D02*
Y90780D01*
Y96040D02*
Y97080D01*
X22200Y89240D02*
Y90800D01*
X22240Y89240D02*
Y90780D01*
X22260Y89240D02*
Y90780D01*
X22300Y85000D02*
Y87380D01*
X22200Y103280D02*
Y105000D01*
X22120Y98920D02*
Y99600D01*
X22100Y103220D02*
Y105000D01*
X22300Y99100D02*
Y99760D01*
X22080Y89240D02*
Y90860D01*
X22340Y96080D02*
Y97140D01*
X22440Y93060D02*
Y93740D01*
X21900Y98720D02*
Y99380D01*
X22400Y103420D02*
Y105000D01*
X21900Y95840D02*
Y96700D01*
Y103040D02*
Y105000D01*
X21920Y89240D02*
Y90920D01*
X22060Y103180D02*
Y105000D01*
X21920Y85000D02*
Y87380D01*
X22440Y99200D02*
Y99900D01*
X22420Y96100D02*
Y97180D01*
X21960Y89240D02*
Y90900D01*
X22120Y103220D02*
Y105000D01*
X21980Y85000D02*
Y87380D01*
X21960Y103100D02*
Y105000D01*
X21940Y103080D02*
Y105000D01*
X21960Y98780D02*
Y99440D01*
X21940Y95880D02*
Y96740D01*
X21960Y95880D02*
Y96760D01*
Y85000D02*
Y87380D01*
X21980Y95900D02*
Y96780D01*
X21940Y98760D02*
Y99420D01*
X22440Y85000D02*
Y87380D01*
X22420Y85000D02*
Y87380D01*
X21920Y98740D02*
Y99380D01*
X22420Y93300D02*
Y93480D01*
X22360Y85000D02*
Y87380D01*
X21920Y103060D02*
Y105000D01*
X22200Y85000D02*
Y87380D01*
X22080Y85000D02*
Y87380D01*
X22400Y99160D02*
Y99860D01*
X22100Y98900D02*
Y99580D01*
X22080Y95960D02*
Y96880D01*
X22340Y103380D02*
Y105000D01*
X27600Y85000D02*
Y85940D01*
X27480Y102580D02*
Y105000D01*
X27600Y91640D02*
Y92260D01*
X27500Y92420D02*
Y94400D01*
Y85000D02*
Y85940D01*
X27600Y92420D02*
Y94400D01*
Y96200D02*
Y98260D01*
X27500Y91540D02*
Y92160D01*
Y96200D02*
Y98120D01*
X27600Y102400D02*
Y105000D01*
X27580Y96200D02*
Y98220D01*
X27480Y91520D02*
Y92140D01*
X27560Y96200D02*
Y98200D01*
X27580Y92420D02*
Y94400D01*
X27560Y92420D02*
Y94400D01*
X27480Y92420D02*
Y94400D01*
X27460Y91500D02*
Y92120D01*
Y92420D02*
Y94400D01*
X27620Y91660D02*
Y92280D01*
X27500Y102540D02*
Y105000D01*
X27520Y91560D02*
Y92180D01*
X27580Y102440D02*
Y105000D01*
X27560Y102460D02*
Y105000D01*
X27460Y102600D02*
Y105000D01*
X27480Y85000D02*
Y85940D01*
Y96200D02*
Y98100D01*
X27460Y96200D02*
Y98060D01*
X27660Y96200D02*
Y98360D01*
X27540Y85000D02*
Y85940D01*
X27580Y91620D02*
Y92240D01*
Y85000D02*
Y85940D01*
X27660Y91700D02*
Y92320D01*
X27540Y102500D02*
Y105000D01*
Y96200D02*
Y98180D01*
X27660Y85000D02*
Y85940D01*
Y92420D02*
Y94400D01*
X27540Y92420D02*
Y94400D01*
X27560Y85000D02*
Y85940D01*
Y91600D02*
Y92220D01*
X27620Y85000D02*
Y85940D01*
X27640Y102340D02*
Y105000D01*
X27620Y92420D02*
Y94400D01*
X27540Y91580D02*
Y92200D01*
X27640Y96200D02*
Y98320D01*
X27520Y85000D02*
Y85940D01*
X27640Y92420D02*
Y94400D01*
X27620Y96200D02*
Y98280D01*
X27520Y92420D02*
Y94400D01*
X27620Y102380D02*
Y105000D01*
X27520Y96200D02*
Y98140D01*
X27640Y85000D02*
Y85940D01*
X27520Y102520D02*
Y105000D01*
X27640Y91680D02*
Y92300D01*
X21840Y85000D02*
Y87380D01*
X21880Y95840D02*
Y96680D01*
X21860Y98660D02*
Y99340D01*
X21840Y95800D02*
Y96640D01*
X21880Y85000D02*
Y87380D01*
X21840Y89240D02*
Y90980D01*
X21880Y89240D02*
Y90960D01*
X21860Y89240D02*
Y90980D01*
X21840Y102960D02*
Y105000D01*
X21860Y95820D02*
Y96660D01*
Y102980D02*
Y105000D01*
X21840Y98640D02*
Y99320D01*
X21860Y85000D02*
Y87380D01*
X21900Y89240D02*
Y90940D01*
Y85000D02*
Y87380D01*
X21880Y103020D02*
Y105000D01*
Y98680D02*
Y99360D01*
X10360Y85000D02*
Y105000D01*
X10040Y85000D02*
Y105000D01*
X10180Y85000D02*
Y105000D01*
X10260Y85000D02*
Y105000D01*
X10480Y85000D02*
Y105000D01*
X10420Y85000D02*
Y105000D01*
X10380Y85000D02*
Y105000D01*
X10400Y85000D02*
Y105000D01*
X10100Y85000D02*
Y105000D01*
X10340Y85000D02*
Y105000D01*
X10460Y85000D02*
Y105000D01*
X10200Y85000D02*
Y105000D01*
X10580Y85000D02*
Y105000D01*
X10600Y85000D02*
Y105000D01*
X10500Y85000D02*
Y105000D01*
X10140Y85000D02*
Y105000D01*
X10440Y85000D02*
Y105000D01*
X10620Y85000D02*
Y105000D01*
X10300Y85000D02*
Y105000D01*
X10560Y85000D02*
Y105000D01*
X10060Y85000D02*
Y105000D01*
X10120Y85000D02*
Y105000D01*
X10240Y85000D02*
Y105000D01*
X10220Y85000D02*
Y105000D01*
X10660Y85000D02*
Y105000D01*
X10540Y85000D02*
Y105000D01*
X10640Y85000D02*
Y105000D01*
X10680Y85000D02*
Y105000D01*
X10520Y85000D02*
Y105000D01*
X10320Y85000D02*
Y105000D01*
X10280Y85000D02*
Y105000D01*
X10080Y85000D02*
Y105000D01*
X10160Y85000D02*
Y105000D01*
X5160Y-105000D02*
Y-85000D01*
X5080Y-105000D02*
Y-85000D01*
X5280Y-105000D02*
Y-85000D01*
X5320Y-105000D02*
Y-85000D01*
X5520Y-105000D02*
Y-85000D01*
X5680Y-105000D02*
Y-85000D01*
X5640Y-105000D02*
Y-85000D01*
X5540Y-105000D02*
Y-85000D01*
X5660Y-105000D02*
Y-85000D01*
X5220Y-105000D02*
Y-85000D01*
X5240Y-105000D02*
Y-85000D01*
X5120Y-105000D02*
Y-85000D01*
X5060Y-105000D02*
Y-85000D01*
X5560Y-105000D02*
Y-85000D01*
X5300Y-105000D02*
Y-85000D01*
X5620Y-105000D02*
Y-85000D01*
X5440Y-105000D02*
Y-85000D01*
X5140Y-105000D02*
Y-85000D01*
X5500Y-105000D02*
Y-85000D01*
X5600Y-105000D02*
Y-85000D01*
X5580Y-105000D02*
Y-85000D01*
X5200Y-105000D02*
Y-85000D01*
X5460Y-105000D02*
Y-85000D01*
X5340Y-105000D02*
Y-85000D01*
X5100Y-105000D02*
Y-85000D01*
X5400Y-105000D02*
Y-85000D01*
X5380Y-105000D02*
Y-85000D01*
X5420Y-105000D02*
Y-85000D01*
X5480Y-105000D02*
Y-85000D01*
X5260Y-105000D02*
Y-85000D01*
X5180Y-105000D02*
Y-85000D01*
X5040Y-105000D02*
Y-85000D01*
X5360Y-105000D02*
Y-85000D01*
X16880Y-91320D02*
Y-90640D01*
Y-86980D02*
Y-85000D01*
X16900Y-105000D02*
Y-102620D01*
Y-100760D02*
Y-99060D01*
X16860Y-105000D02*
Y-102620D01*
X16840Y-91360D02*
Y-90680D01*
X16860Y-87020D02*
Y-85000D01*
Y-94180D02*
Y-93340D01*
X16840Y-87040D02*
Y-85000D01*
X16860Y-100760D02*
Y-99020D01*
X16880Y-100760D02*
Y-99040D01*
X16840Y-100760D02*
Y-99020D01*
X16880Y-105000D02*
Y-102620D01*
X16840Y-94200D02*
Y-93360D01*
X16860Y-91340D02*
Y-90660D01*
X16880Y-94160D02*
Y-93320D01*
X16840Y-105000D02*
Y-102620D01*
X22640Y-98320D02*
Y-97700D01*
X22520Y-87480D02*
Y-85000D01*
X22640Y-105000D02*
Y-104060D01*
X22520Y-93800D02*
Y-91860D01*
X22620Y-87620D02*
Y-85000D01*
X22520Y-97580D02*
Y-95600D01*
X22620Y-93800D02*
Y-91720D01*
X22640Y-97580D02*
Y-95600D01*
X22520Y-105000D02*
Y-104060D01*
X22640Y-93800D02*
Y-91680D01*
X22540Y-98420D02*
Y-97800D01*
X22620Y-97580D02*
Y-95600D01*
X22640Y-87660D02*
Y-85000D01*
X22620Y-105000D02*
Y-104060D01*
X22560Y-98400D02*
Y-97780D01*
Y-105000D02*
Y-104060D01*
X22540Y-97580D02*
Y-95600D01*
X22660Y-97580D02*
Y-95600D01*
Y-105000D02*
Y-104060D01*
X22540Y-93800D02*
Y-91820D01*
Y-87500D02*
Y-85000D01*
X22660Y-98300D02*
Y-97680D01*
X22580Y-105000D02*
Y-104060D01*
Y-98380D02*
Y-97760D01*
X22540Y-105000D02*
Y-104060D01*
X22660Y-93800D02*
Y-91640D01*
X22460Y-93800D02*
Y-91940D01*
X22480Y-93800D02*
Y-91900D01*
Y-105000D02*
Y-104060D01*
X22460Y-87400D02*
Y-85000D01*
X22560Y-87540D02*
Y-85000D01*
X22580Y-87560D02*
Y-85000D01*
X22520Y-98440D02*
Y-97820D01*
X22500Y-87460D02*
Y-85000D01*
X22620Y-98340D02*
Y-97720D01*
X22460Y-97580D02*
Y-95600D01*
Y-98500D02*
Y-97880D01*
X22480Y-97580D02*
Y-95600D01*
X22560Y-97580D02*
Y-95600D01*
X22580Y-97580D02*
Y-95600D01*
X22560Y-93800D02*
Y-91800D01*
X22480Y-98480D02*
Y-97860D01*
X22580Y-93800D02*
Y-91780D01*
X22600Y-87600D02*
Y-85000D01*
X22500Y-93800D02*
Y-91880D01*
Y-98460D02*
Y-97840D01*
X22600Y-93800D02*
Y-91740D01*
Y-97580D02*
Y-95600D01*
X22500Y-105000D02*
Y-104060D01*
Y-97580D02*
Y-95600D01*
X22600Y-98360D02*
Y-97740D01*
X22480Y-87420D02*
Y-85000D01*
X22600Y-105000D02*
Y-104060D01*
X17340Y-86620D02*
Y-85000D01*
X17080Y-94040D02*
Y-93120D01*
X17100Y-91100D02*
Y-90420D01*
X17400Y-90840D02*
Y-90140D01*
X17080Y-105000D02*
Y-102620D01*
X17200Y-105000D02*
Y-102620D01*
X16920Y-86940D02*
Y-85000D01*
X17360Y-105000D02*
Y-102620D01*
X17420Y-96700D02*
Y-96520D01*
X16920Y-91260D02*
Y-90620D01*
X17420Y-105000D02*
Y-102620D01*
X17440Y-105000D02*
Y-102620D01*
X16940Y-91240D02*
Y-90580D01*
X16980Y-94100D02*
Y-93220D01*
X16960Y-105000D02*
Y-102620D01*
Y-94120D02*
Y-93240D01*
X16940Y-94120D02*
Y-93260D01*
X16960Y-91220D02*
Y-90560D01*
X16940Y-86920D02*
Y-85000D01*
X16960Y-86900D02*
Y-85000D01*
X16980Y-105000D02*
Y-102620D01*
X17120Y-86780D02*
Y-85000D01*
X16960Y-100760D02*
Y-99100D01*
X17420Y-93900D02*
Y-92820D01*
X17440Y-90800D02*
Y-90100D01*
X16920Y-105000D02*
Y-102620D01*
X17060Y-86820D02*
Y-85000D01*
X16920Y-100760D02*
Y-99080D01*
X16900Y-86960D02*
Y-85000D01*
Y-94160D02*
Y-93300D01*
X17400Y-86580D02*
Y-85000D01*
X16900Y-91280D02*
Y-90620D01*
X17440Y-96940D02*
Y-96260D01*
X17340Y-93920D02*
Y-92860D01*
X17080Y-100760D02*
Y-99140D01*
X17300Y-90900D02*
Y-90240D01*
X17100Y-86780D02*
Y-85000D01*
X17120Y-91080D02*
Y-90400D01*
X17200Y-86720D02*
Y-85000D01*
X17300Y-105000D02*
Y-102620D01*
X17260Y-100760D02*
Y-99220D01*
X17240Y-100760D02*
Y-99220D01*
X17200Y-100760D02*
Y-99200D01*
X17280Y-93960D02*
Y-92920D01*
Y-100760D02*
Y-99220D01*
X17400Y-93900D02*
Y-92820D01*
X17100Y-94040D02*
Y-93100D01*
X17080Y-91120D02*
Y-90440D01*
X17100Y-100760D02*
Y-99160D01*
Y-105000D02*
Y-102620D01*
X17340Y-90860D02*
Y-90200D01*
X17180Y-105000D02*
Y-102620D01*
X17040Y-94060D02*
Y-93160D01*
Y-86840D02*
Y-85000D01*
X17400Y-105000D02*
Y-102620D01*
X17020Y-86860D02*
Y-85000D01*
X17000Y-100760D02*
Y-99100D01*
X16980Y-91220D02*
Y-90540D01*
X17000Y-94100D02*
Y-93200D01*
X16980Y-86880D02*
Y-85000D01*
X17000Y-105000D02*
Y-102620D01*
Y-91200D02*
Y-90520D01*
X17160Y-91040D02*
Y-90360D01*
X17000Y-86880D02*
Y-85000D01*
X17140Y-100760D02*
Y-99160D01*
X17020Y-94080D02*
Y-93180D01*
Y-91180D02*
Y-90500D01*
Y-100760D02*
Y-99120D01*
Y-105000D02*
Y-102620D01*
X17440Y-93900D02*
Y-92820D01*
X16940Y-100760D02*
Y-99080D01*
X16980Y-100760D02*
Y-99100D01*
X17420Y-86560D02*
Y-85000D01*
X17440Y-100760D02*
Y-99280D01*
X16940Y-105000D02*
Y-102620D01*
X17420Y-100760D02*
Y-99280D01*
X16920Y-94140D02*
Y-93280D01*
X17660Y-86420D02*
Y-85000D01*
X17740Y-97500D02*
Y-95680D01*
X17660Y-90580D02*
Y-89020D01*
X17760Y-90480D02*
Y-88760D01*
X17680Y-100760D02*
Y-99340D01*
X17880Y-97560D02*
Y-95620D01*
Y-105000D02*
Y-102620D01*
X17040Y-105000D02*
Y-102620D01*
X17260Y-90940D02*
Y-90280D01*
X17080Y-86800D02*
Y-85000D01*
X17700Y-100760D02*
Y-99340D01*
Y-93820D02*
Y-92960D01*
Y-97480D02*
Y-95720D01*
X17880Y-100760D02*
Y-99360D01*
X17680Y-86400D02*
Y-85000D01*
X17660Y-105000D02*
Y-102620D01*
X17720Y-90520D02*
Y-88860D01*
X17680Y-105000D02*
Y-102620D01*
X17860Y-86320D02*
Y-85000D01*
X17760Y-100760D02*
Y-99340D01*
X17860Y-97560D02*
Y-95620D01*
X17660Y-97440D02*
Y-95740D01*
X17380Y-90840D02*
Y-90160D01*
X17040Y-100760D02*
Y-99120D01*
X17360Y-86600D02*
Y-85000D01*
X17380Y-86580D02*
Y-85000D01*
X17120Y-105000D02*
Y-102620D01*
X17340Y-100760D02*
Y-99260D01*
X17120Y-100760D02*
Y-99160D01*
X17140Y-86760D02*
Y-85000D01*
X17380Y-105000D02*
Y-102620D01*
X17060Y-105000D02*
Y-102620D01*
X17360Y-100760D02*
Y-99260D01*
X17200Y-91000D02*
Y-90340D01*
X17320Y-105000D02*
Y-102620D01*
X17220Y-86700D02*
Y-85000D01*
X17420Y-90820D02*
Y-90120D01*
X17320Y-86620D02*
Y-85000D01*
Y-93940D02*
Y-92880D01*
X17400Y-100760D02*
Y-99260D01*
X17300Y-93940D02*
Y-92900D01*
Y-86640D02*
Y-85000D01*
Y-100760D02*
Y-99240D01*
X17820Y-90440D02*
Y-88640D01*
X17180Y-100760D02*
Y-99180D01*
X17060Y-100760D02*
Y-99140D01*
X17160Y-86740D02*
Y-85000D01*
X17220Y-93980D02*
Y-92980D01*
X17740Y-105000D02*
Y-102620D01*
X17640Y-86420D02*
Y-85000D01*
X17860Y-100760D02*
Y-99360D01*
X17840Y-97560D02*
Y-95640D01*
X17820Y-86340D02*
Y-85000D01*
X17720Y-97500D02*
Y-95700D01*
X17660Y-93840D02*
Y-92940D01*
X17700Y-105000D02*
Y-102620D01*
X17740Y-100760D02*
Y-99340D01*
X17720Y-93820D02*
Y-92980D01*
Y-86380D02*
Y-85000D01*
X17660Y-100760D02*
Y-99340D01*
X17160Y-105000D02*
Y-102620D01*
X17880Y-86300D02*
Y-85000D01*
X17640Y-90600D02*
Y-89080D01*
X17720Y-100760D02*
Y-99340D01*
X17120Y-94020D02*
Y-93080D01*
X17820Y-100760D02*
Y-99360D01*
X17720Y-105000D02*
Y-102620D01*
X17620Y-97400D02*
Y-95800D01*
X17320Y-90880D02*
Y-90220D01*
X17160Y-100760D02*
Y-99180D01*
X17180Y-86720D02*
Y-85000D01*
X17360Y-90860D02*
Y-90180D01*
X17160Y-94000D02*
Y-93040D01*
X17040Y-91160D02*
Y-90480D01*
X17360Y-93920D02*
Y-92840D01*
X17180Y-91020D02*
Y-90340D01*
X17220Y-100760D02*
Y-99200D01*
X17200Y-93980D02*
Y-93000D01*
X17240Y-90960D02*
Y-90300D01*
X17380Y-93920D02*
Y-92820D01*
X17240Y-93960D02*
Y-92960D01*
X17260Y-105000D02*
Y-102620D01*
X17220Y-105000D02*
Y-102620D01*
X17240Y-86680D02*
Y-85000D01*
X17440Y-86540D02*
Y-85000D01*
X17480Y-90760D02*
Y-90060D01*
X17460Y-105000D02*
Y-102620D01*
Y-97060D02*
Y-96160D01*
Y-100760D02*
Y-99280D01*
Y-93880D02*
Y-92820D01*
Y-86540D02*
Y-85000D01*
Y-90780D02*
Y-90080D01*
X17480Y-100760D02*
Y-99300D01*
Y-105000D02*
Y-102620D01*
Y-97120D02*
Y-96080D01*
X17500Y-97180D02*
Y-96020D01*
Y-105000D02*
Y-102620D01*
X17480Y-93880D02*
Y-92840D01*
X17540Y-97280D02*
Y-95920D01*
X17480Y-86520D02*
Y-85000D01*
X17260Y-86660D02*
Y-85000D01*
X17500Y-100760D02*
Y-99300D01*
X17520Y-105000D02*
Y-102620D01*
X17500Y-90740D02*
Y-90040D01*
X17520Y-90720D02*
Y-90040D01*
Y-97240D02*
Y-95960D01*
Y-93860D02*
Y-92860D01*
X17540Y-100760D02*
Y-99300D01*
Y-105000D02*
Y-102620D01*
Y-93860D02*
Y-92880D01*
X17600Y-89940D02*
Y-89260D01*
X17540Y-90700D02*
Y-90020D01*
X17560Y-90680D02*
Y-90000D01*
Y-105000D02*
Y-102620D01*
X17540Y-86480D02*
Y-85000D01*
X17580Y-100760D02*
Y-99320D01*
X17560Y-100760D02*
Y-99320D01*
Y-97320D02*
Y-95880D01*
Y-93860D02*
Y-92880D01*
X17620Y-100760D02*
Y-99320D01*
X17560Y-86480D02*
Y-85000D01*
X17580Y-105000D02*
Y-102620D01*
Y-93860D02*
Y-92900D01*
Y-97340D02*
Y-95840D01*
X17600Y-93840D02*
Y-92920D01*
X17580Y-89840D02*
Y-89400D01*
X17620Y-105000D02*
Y-102620D01*
X17580Y-90660D02*
Y-89980D01*
X17620Y-93840D02*
Y-92920D01*
X17640Y-93840D02*
Y-92940D01*
X17180Y-94000D02*
Y-93020D01*
X17700Y-86400D02*
Y-85000D01*
X17600Y-86460D02*
Y-85000D01*
X17340Y-105000D02*
Y-102620D01*
X17140Y-94020D02*
Y-93060D01*
Y-91060D02*
Y-90380D01*
X17060Y-94060D02*
Y-93140D01*
Y-91140D02*
Y-90460D01*
X17140Y-105000D02*
Y-102620D01*
X17500Y-86520D02*
Y-85000D01*
X17380Y-100760D02*
Y-99260D01*
X17240Y-105000D02*
Y-102620D01*
X17280Y-90920D02*
Y-90260D01*
X17500Y-93880D02*
Y-92860D01*
X17520Y-100760D02*
Y-99300D01*
Y-86500D02*
Y-85000D01*
X17620Y-90620D02*
Y-89160D01*
Y-86440D02*
Y-85000D01*
X17640Y-105000D02*
Y-102620D01*
X17900Y-105000D02*
Y-102620D01*
X17280Y-105000D02*
Y-102620D01*
X17320Y-100760D02*
Y-99240D01*
X17600Y-97380D02*
Y-95820D01*
Y-105000D02*
Y-102620D01*
X17740Y-86380D02*
Y-85000D01*
X17580Y-86460D02*
Y-85000D01*
X17600Y-100760D02*
Y-99320D01*
X17280Y-86660D02*
Y-85000D01*
X17740Y-90500D02*
Y-88800D01*
X17600Y-90640D02*
Y-89960D01*
X17260Y-93960D02*
Y-92940D01*
X17640Y-97420D02*
Y-95760D01*
X17740Y-93820D02*
Y-92980D01*
X17220Y-90980D02*
Y-90320D01*
X17640Y-100760D02*
Y-99340D01*
X17780Y-93820D02*
Y-93000D01*
Y-97520D02*
Y-95660D01*
Y-90480D02*
Y-88720D01*
X17760Y-105000D02*
Y-102620D01*
X17840Y-93800D02*
Y-93040D01*
X17680Y-97460D02*
Y-95720D01*
X17800Y-105000D02*
Y-102620D01*
X17820Y-93820D02*
Y-93020D01*
X17680Y-93820D02*
Y-92960D01*
X17800Y-93820D02*
Y-93020D01*
X17840Y-105000D02*
Y-102620D01*
Y-100760D02*
Y-99360D01*
X17800Y-86340D02*
Y-85000D01*
Y-90460D02*
Y-88680D01*
X17760Y-93820D02*
Y-93000D01*
X17780Y-105000D02*
Y-102620D01*
X17800Y-100760D02*
Y-99360D01*
X17820Y-105000D02*
Y-102620D01*
X17800Y-97540D02*
Y-95660D01*
X17780Y-86360D02*
Y-85000D01*
X17860Y-105000D02*
Y-102620D01*
X17840Y-90420D02*
Y-88620D01*
Y-86320D02*
Y-85000D01*
X17760Y-86360D02*
Y-85000D01*
X17780Y-100760D02*
Y-99360D01*
X17880Y-93800D02*
Y-93060D01*
X17820Y-97540D02*
Y-95640D01*
X17860Y-93800D02*
Y-93040D01*
Y-90400D02*
Y-88580D01*
X17700Y-90540D02*
Y-88900D01*
X17880Y-90380D02*
Y-88540D01*
X17680Y-90560D02*
Y-88960D01*
X17760Y-97520D02*
Y-95680D01*
X20820Y-93800D02*
Y-93160D01*
X20900Y-100760D02*
Y-99320D01*
X20880Y-86200D02*
Y-85000D01*
X20820Y-100760D02*
Y-99360D01*
X20960Y-90980D02*
Y-88260D01*
X20860Y-105000D02*
Y-102620D01*
X20920Y-97580D02*
Y-95600D01*
X20940Y-105000D02*
Y-102620D01*
X20800Y-91120D02*
Y-88100D01*
X20920Y-93800D02*
Y-93120D01*
X20840Y-93800D02*
Y-93140D01*
X20920Y-91020D02*
Y-88220D01*
X20880Y-93800D02*
Y-93140D01*
X20940Y-100760D02*
Y-99300D01*
X20960Y-86240D02*
Y-85000D01*
X20820Y-91100D02*
Y-88120D01*
X20900Y-97580D02*
Y-95600D01*
X20880Y-97580D02*
Y-95600D01*
X20860Y-91060D02*
Y-88160D01*
X20940Y-97580D02*
Y-95600D01*
X20860Y-86200D02*
Y-85000D01*
X20840Y-86200D02*
Y-85000D01*
Y-105000D02*
Y-102620D01*
X20860Y-93800D02*
Y-93140D01*
X20960Y-100760D02*
Y-99280D01*
X20920Y-105000D02*
Y-102620D01*
X20800Y-86180D02*
Y-85000D01*
X20820Y-97580D02*
Y-95600D01*
X20900Y-93800D02*
Y-93120D01*
X20840Y-97580D02*
Y-95600D01*
X20960Y-97580D02*
Y-95600D01*
X20940Y-93800D02*
Y-93100D01*
X20800Y-93800D02*
Y-93160D01*
X20940Y-91000D02*
Y-88240D01*
X20900Y-105000D02*
Y-102620D01*
X20820Y-86180D02*
Y-85000D01*
X20980Y-105000D02*
Y-102620D01*
X20900Y-86220D02*
Y-85000D01*
X20840Y-91080D02*
Y-88140D01*
X20880Y-105000D02*
Y-102620D01*
Y-91060D02*
Y-88180D01*
X20860Y-97580D02*
Y-95600D01*
X20960Y-105000D02*
Y-102620D01*
X20940Y-86240D02*
Y-85000D01*
X20920Y-86220D02*
Y-85000D01*
X20960Y-93800D02*
Y-93100D01*
X20860Y-100760D02*
Y-99360D01*
X20880Y-100760D02*
Y-99340D01*
X20840Y-100760D02*
Y-99360D01*
X20820Y-105000D02*
Y-102620D01*
X20920Y-100760D02*
Y-99300D01*
X20900Y-91040D02*
Y-88200D01*
X9600Y-105000D02*
Y-85000D01*
X9820Y-105000D02*
Y-85000D01*
X9300Y-105000D02*
Y-85000D01*
X9780Y-105000D02*
Y-85000D01*
X9580Y-105000D02*
Y-85000D01*
X9560Y-105000D02*
Y-85000D01*
X9760Y-105000D02*
Y-85000D01*
X9800Y-105000D02*
Y-85000D01*
X9340Y-105000D02*
Y-85000D01*
X9160Y-105000D02*
Y-85000D01*
X9680Y-105000D02*
Y-85000D01*
X9860Y-105000D02*
Y-85000D01*
X14420Y-105000D02*
Y-85000D01*
X9400Y-105000D02*
Y-85000D01*
X9880Y-105000D02*
Y-85000D01*
X9620Y-105000D02*
Y-85000D01*
X9460Y-105000D02*
Y-85000D01*
X9720Y-105000D02*
Y-85000D01*
X9900Y-105000D02*
Y-85000D01*
X9380Y-105000D02*
Y-85000D01*
X13660Y-105000D02*
Y-85000D01*
X9840Y-105000D02*
Y-85000D01*
X9660Y-105000D02*
Y-85000D01*
X9360Y-105000D02*
Y-85000D01*
X9640Y-105000D02*
Y-85000D01*
X9520Y-105000D02*
Y-85000D01*
X9920Y-105000D02*
Y-85000D01*
X13200Y-105000D02*
Y-85000D01*
X9260Y-105000D02*
Y-85000D01*
X9740Y-105000D02*
Y-85000D01*
X9700Y-105000D02*
Y-85000D01*
X9480Y-105000D02*
Y-85000D01*
X9500Y-105000D02*
Y-85000D01*
X9420Y-105000D02*
Y-85000D01*
X9280Y-105000D02*
Y-85000D01*
X9440Y-105000D02*
Y-85000D01*
X9540Y-105000D02*
Y-85000D01*
X9000Y-105000D02*
Y-85000D01*
X13940Y-105000D02*
Y-85000D01*
X14520Y-105000D02*
Y-85000D01*
X8980Y-105000D02*
Y-85000D01*
X10060Y-105000D02*
Y-85000D01*
X13040Y-105000D02*
Y-85000D01*
X13620Y-105000D02*
Y-85000D01*
X9100Y-105000D02*
Y-85000D01*
X14720Y-105000D02*
Y-85000D01*
X14220Y-105000D02*
Y-85000D01*
X14940Y-105000D02*
Y-85000D01*
X14800Y-105000D02*
Y-85000D01*
X14740Y-105000D02*
Y-85000D01*
X14900Y-105000D02*
Y-85000D01*
X14280Y-105000D02*
Y-85000D01*
X13860Y-105000D02*
Y-85000D01*
X14960Y-105000D02*
Y-85000D01*
X14920Y-105000D02*
Y-85000D01*
X13920Y-105000D02*
Y-85000D01*
X14560Y-105000D02*
Y-85000D01*
X13820Y-105000D02*
Y-85000D01*
X14320Y-105000D02*
Y-85000D01*
X14840Y-105000D02*
Y-85000D01*
X9020Y-105000D02*
Y-85000D01*
X9120Y-105000D02*
Y-85000D01*
X14440Y-105000D02*
Y-85000D01*
X14180Y-105000D02*
Y-85000D01*
X14300Y-105000D02*
Y-85000D01*
X14980Y-105000D02*
Y-85000D01*
X13800Y-105000D02*
Y-85000D01*
X14340Y-105000D02*
Y-85000D01*
X14540Y-105000D02*
Y-85000D01*
X13700Y-105000D02*
Y-85000D01*
X13760Y-105000D02*
Y-85000D01*
X9140Y-105000D02*
Y-85000D01*
X14680Y-105000D02*
Y-85000D01*
X14380Y-105000D02*
Y-85000D01*
X14860Y-105000D02*
Y-85000D01*
X13380Y-105000D02*
Y-85000D01*
X13460Y-105000D02*
Y-85000D01*
X13420Y-105000D02*
Y-85000D01*
X13440Y-105000D02*
Y-85000D01*
X13480Y-105000D02*
Y-85000D01*
X13500Y-105000D02*
Y-85000D01*
X13520Y-105000D02*
Y-85000D01*
X13540Y-105000D02*
Y-85000D01*
X13400Y-105000D02*
Y-85000D01*
X13560Y-105000D02*
Y-85000D01*
X13580Y-105000D02*
Y-85000D01*
X14580Y-105000D02*
Y-85000D01*
X13600Y-105000D02*
Y-85000D01*
X10000Y-105000D02*
Y-85000D01*
X10240Y-105000D02*
Y-85000D01*
X14760Y-105000D02*
Y-85000D01*
X14820Y-105000D02*
Y-85000D01*
X9320Y-105000D02*
Y-85000D01*
X14600Y-105000D02*
Y-85000D01*
X14780Y-105000D02*
Y-85000D01*
X14880Y-105000D02*
Y-85000D01*
X9180Y-105000D02*
Y-85000D01*
X13780Y-105000D02*
Y-85000D01*
X14200Y-105000D02*
Y-85000D01*
X9200Y-105000D02*
Y-85000D01*
X14400Y-105000D02*
Y-85000D01*
X10020Y-105000D02*
Y-85000D01*
X13640Y-105000D02*
Y-85000D01*
X10040Y-105000D02*
Y-85000D01*
X9240Y-105000D02*
Y-85000D01*
X9980Y-105000D02*
Y-85000D01*
X13980Y-105000D02*
Y-85000D01*
X14660Y-105000D02*
Y-85000D01*
X10260Y-105000D02*
Y-85000D01*
X14640Y-105000D02*
Y-85000D01*
X9960Y-105000D02*
Y-85000D01*
X10220Y-105000D02*
Y-85000D01*
X10300Y-105000D02*
Y-85000D01*
X9060Y-105000D02*
Y-85000D01*
X9080Y-105000D02*
Y-85000D01*
X10320Y-105000D02*
Y-85000D01*
X10280Y-105000D02*
Y-85000D01*
X10340Y-105000D02*
Y-85000D01*
X14260Y-105000D02*
Y-85000D01*
X13680Y-105000D02*
Y-85000D01*
X14360Y-105000D02*
Y-85000D01*
X14240Y-105000D02*
Y-85000D01*
X13960Y-105000D02*
Y-85000D01*
X13900Y-105000D02*
Y-85000D01*
X13840Y-105000D02*
Y-85000D01*
X14080Y-105000D02*
Y-85000D01*
X14000Y-105000D02*
Y-85000D01*
X14620Y-105000D02*
Y-85000D01*
X14020Y-105000D02*
Y-85000D01*
X14040Y-105000D02*
Y-85000D01*
X14100Y-105000D02*
Y-85000D01*
X14060Y-105000D02*
Y-85000D01*
X14480Y-105000D02*
Y-85000D01*
X14700Y-105000D02*
Y-85000D01*
X14500Y-105000D02*
Y-85000D01*
X14160Y-105000D02*
Y-85000D01*
X9040Y-105000D02*
Y-85000D01*
X14140Y-105000D02*
Y-85000D01*
X14120Y-105000D02*
Y-85000D01*
X13720Y-105000D02*
Y-85000D01*
X13880Y-105000D02*
Y-85000D01*
X14460Y-105000D02*
Y-85000D01*
X10200Y-105000D02*
Y-85000D01*
X9220Y-105000D02*
Y-85000D01*
X11800Y-105000D02*
Y-85000D01*
X10460Y-105000D02*
Y-85000D01*
X11900Y-105000D02*
Y-85000D01*
X11820Y-105000D02*
Y-85000D01*
X11840Y-105000D02*
Y-85000D01*
X11860Y-105000D02*
Y-85000D01*
X11880Y-105000D02*
Y-85000D01*
X11920Y-105000D02*
Y-85000D01*
X11940Y-105000D02*
Y-85000D01*
X11960Y-105000D02*
Y-85000D01*
X12000Y-105000D02*
Y-85000D01*
X11980Y-105000D02*
Y-85000D01*
X12100Y-105000D02*
Y-85000D01*
X12020Y-105000D02*
Y-85000D01*
X12040Y-105000D02*
Y-85000D01*
X10780Y-105000D02*
Y-85000D01*
X12080Y-105000D02*
Y-85000D01*
X12060Y-105000D02*
Y-85000D01*
X12220Y-105000D02*
Y-85000D01*
X12120Y-105000D02*
Y-85000D01*
X12160Y-105000D02*
Y-85000D01*
X12140Y-105000D02*
Y-85000D01*
X12180Y-105000D02*
Y-85000D01*
X12240Y-105000D02*
Y-85000D01*
X12200Y-105000D02*
Y-85000D01*
X10800Y-105000D02*
Y-85000D01*
X13740Y-105000D02*
Y-85000D01*
X10960Y-105000D02*
Y-85000D01*
X10440Y-105000D02*
Y-85000D01*
X10820Y-105000D02*
Y-85000D01*
X10860Y-105000D02*
Y-85000D01*
X10840Y-105000D02*
Y-85000D01*
X10400Y-105000D02*
Y-85000D01*
X10880Y-105000D02*
Y-85000D01*
X10900Y-105000D02*
Y-85000D01*
X11000Y-105000D02*
Y-85000D01*
X10940Y-105000D02*
Y-85000D01*
X10920Y-105000D02*
Y-85000D01*
X10980Y-105000D02*
Y-85000D01*
X11040Y-105000D02*
Y-85000D01*
X11020Y-105000D02*
Y-85000D01*
X11060Y-105000D02*
Y-85000D01*
X12280Y-105000D02*
Y-85000D01*
X11080Y-105000D02*
Y-85000D01*
X10380Y-105000D02*
Y-85000D01*
X10180Y-105000D02*
Y-85000D01*
X10160Y-105000D02*
Y-85000D01*
X10100Y-105000D02*
Y-85000D01*
X10120Y-105000D02*
Y-85000D01*
X10140Y-105000D02*
Y-85000D01*
X10360Y-105000D02*
Y-85000D01*
X11740Y-105000D02*
Y-85000D01*
X11760Y-105000D02*
Y-85000D01*
X11720Y-105000D02*
Y-85000D01*
X12340Y-105000D02*
Y-85000D01*
X10520Y-105000D02*
Y-85000D01*
X10540Y-105000D02*
Y-85000D01*
X12300Y-105000D02*
Y-85000D01*
X12260Y-105000D02*
Y-85000D01*
X11120Y-105000D02*
Y-85000D01*
X10760Y-105000D02*
Y-85000D01*
X11100Y-105000D02*
Y-85000D01*
X10500Y-105000D02*
Y-85000D01*
X13340Y-105000D02*
Y-85000D01*
X10600Y-105000D02*
Y-85000D01*
X10560Y-105000D02*
Y-85000D01*
X10720Y-105000D02*
Y-85000D01*
X10580Y-105000D02*
Y-85000D01*
X10620Y-105000D02*
Y-85000D01*
X10640Y-105000D02*
Y-85000D01*
X11700Y-105000D02*
Y-85000D01*
X10660Y-105000D02*
Y-85000D01*
X10700Y-105000D02*
Y-85000D01*
X10480Y-105000D02*
Y-85000D01*
X13360Y-105000D02*
Y-85000D01*
X12460Y-105000D02*
Y-85000D01*
X10680Y-105000D02*
Y-85000D01*
X10740Y-105000D02*
Y-85000D01*
X11200Y-105000D02*
Y-85000D01*
X11280Y-105000D02*
Y-85000D01*
X10420Y-105000D02*
Y-85000D01*
X11140Y-105000D02*
Y-85000D01*
X11160Y-105000D02*
Y-85000D01*
X11180Y-105000D02*
Y-85000D01*
X11220Y-105000D02*
Y-85000D01*
X11260Y-105000D02*
Y-85000D01*
X11240Y-105000D02*
Y-85000D01*
X11560Y-105000D02*
Y-85000D01*
X11300Y-105000D02*
Y-85000D01*
X11340Y-105000D02*
Y-85000D01*
X11320Y-105000D02*
Y-85000D01*
X11400Y-105000D02*
Y-85000D01*
X11360Y-105000D02*
Y-85000D01*
X11380Y-105000D02*
Y-85000D01*
X11540Y-105000D02*
Y-85000D01*
X11440Y-105000D02*
Y-85000D01*
X11420Y-105000D02*
Y-85000D01*
X11460Y-105000D02*
Y-85000D01*
X11500Y-105000D02*
Y-85000D01*
X11520Y-105000D02*
Y-85000D01*
X11480Y-105000D02*
Y-85000D01*
X11580Y-105000D02*
Y-85000D01*
X9940Y-105000D02*
Y-85000D01*
X11680Y-105000D02*
Y-85000D01*
X11620Y-105000D02*
Y-85000D01*
X11600Y-105000D02*
Y-85000D01*
X11640Y-105000D02*
Y-85000D01*
X11660Y-105000D02*
Y-85000D01*
X11780Y-105000D02*
Y-85000D01*
X12320Y-105000D02*
Y-85000D01*
X12360Y-105000D02*
Y-85000D01*
X10080Y-105000D02*
Y-85000D01*
X12400Y-105000D02*
Y-85000D01*
X12380Y-105000D02*
Y-85000D01*
X12760Y-105000D02*
Y-85000D01*
X13320Y-105000D02*
Y-85000D01*
X13260Y-105000D02*
Y-85000D01*
X13080Y-105000D02*
Y-85000D01*
X13220Y-105000D02*
Y-85000D01*
X13240Y-105000D02*
Y-85000D01*
X13300Y-105000D02*
Y-85000D01*
X13100Y-105000D02*
Y-85000D01*
X13280Y-105000D02*
Y-85000D01*
X13120Y-105000D02*
Y-85000D01*
X12780Y-105000D02*
Y-85000D01*
X13140Y-105000D02*
Y-85000D01*
X13160Y-105000D02*
Y-85000D01*
X13180Y-105000D02*
Y-85000D01*
X13060Y-105000D02*
Y-85000D01*
X12840Y-105000D02*
Y-85000D01*
X13020Y-105000D02*
Y-85000D01*
X13000Y-105000D02*
Y-85000D01*
X12920Y-105000D02*
Y-85000D01*
X12940Y-105000D02*
Y-85000D01*
X12960Y-105000D02*
Y-85000D01*
X12980Y-105000D02*
Y-85000D01*
X12900Y-105000D02*
Y-85000D01*
X12700Y-105000D02*
Y-85000D01*
X12860Y-105000D02*
Y-85000D01*
X12820Y-105000D02*
Y-85000D01*
X12720Y-105000D02*
Y-85000D01*
X12880Y-105000D02*
Y-85000D01*
X12800Y-105000D02*
Y-85000D01*
X12580Y-105000D02*
Y-85000D01*
X12740Y-105000D02*
Y-85000D01*
X12480Y-105000D02*
Y-85000D01*
X12600Y-105000D02*
Y-85000D01*
X12520Y-105000D02*
Y-85000D01*
X12680Y-105000D02*
Y-85000D01*
X12660Y-105000D02*
Y-85000D01*
X12620Y-105000D02*
Y-85000D01*
X12640Y-105000D02*
Y-85000D01*
X12540Y-105000D02*
Y-85000D01*
X12560Y-105000D02*
Y-85000D01*
X12440Y-105000D02*
Y-85000D01*
X12420Y-105000D02*
Y-85000D01*
X12500Y-105000D02*
Y-85000D01*
X15960Y-95340D02*
Y-94200D01*
Y-92180D02*
Y-91040D01*
X16000Y-95240D02*
Y-94180D01*
X15960Y-88300D02*
Y-85000D01*
Y-105000D02*
Y-102620D01*
X15980Y-105000D02*
Y-102620D01*
Y-100760D02*
Y-97940D01*
Y-92160D02*
Y-91080D01*
X16000Y-100760D02*
Y-98000D01*
X15980Y-95280D02*
Y-94180D01*
Y-88260D02*
Y-85000D01*
X16000Y-92140D02*
Y-91120D01*
X16020Y-95180D02*
Y-94160D01*
X16000Y-88200D02*
Y-85000D01*
X16020Y-105000D02*
Y-102620D01*
Y-100760D02*
Y-98040D01*
X16000Y-105000D02*
Y-102620D01*
X16040Y-105000D02*
Y-102620D01*
X16020Y-92120D02*
Y-91160D01*
Y-88160D02*
Y-85000D01*
X15940Y-88340D02*
Y-85000D01*
X16040Y-100760D02*
Y-98080D01*
Y-95140D02*
Y-94140D01*
X16060Y-105000D02*
Y-102620D01*
X16500Y-105000D02*
Y-102620D01*
X16360Y-91820D02*
Y-91100D01*
X16060Y-95100D02*
Y-94120D01*
X16280Y-105000D02*
Y-102620D01*
X16400Y-100760D02*
Y-98620D01*
X16420Y-105000D02*
Y-102620D01*
X16400Y-94580D02*
Y-93780D01*
Y-87520D02*
Y-85000D01*
Y-91780D02*
Y-91060D01*
Y-105000D02*
Y-102620D01*
X16380Y-87540D02*
Y-85000D01*
Y-91800D02*
Y-91080D01*
Y-100760D02*
Y-98600D01*
Y-94620D02*
Y-93800D01*
X16340Y-87600D02*
Y-85000D01*
X16380Y-105000D02*
Y-102620D01*
X16360Y-105000D02*
Y-102620D01*
Y-87560D02*
Y-85000D01*
Y-100760D02*
Y-98580D01*
X16440Y-105000D02*
Y-102620D01*
X16280Y-94740D02*
Y-93900D01*
Y-91900D02*
Y-91180D01*
X16260Y-87720D02*
Y-85000D01*
X16280Y-100760D02*
Y-98480D01*
X16260Y-94760D02*
Y-93920D01*
Y-91920D02*
Y-91200D01*
Y-100760D02*
Y-98460D01*
Y-105000D02*
Y-102620D01*
X16240Y-87760D02*
Y-85000D01*
Y-91940D02*
Y-91200D01*
Y-94800D02*
Y-93940D01*
Y-100760D02*
Y-98420D01*
Y-105000D02*
Y-102620D01*
X16220Y-105000D02*
Y-102620D01*
Y-87780D02*
Y-85000D01*
X16180Y-105000D02*
Y-102620D01*
X16220Y-91960D02*
Y-91220D01*
Y-94820D02*
Y-93960D01*
Y-100760D02*
Y-98400D01*
X16200Y-91980D02*
Y-91240D01*
Y-87820D02*
Y-85000D01*
Y-100760D02*
Y-98360D01*
Y-94860D02*
Y-93980D01*
Y-105000D02*
Y-102620D01*
X16180Y-87840D02*
Y-85000D01*
Y-94900D02*
Y-94000D01*
Y-92000D02*
Y-91260D01*
X16160Y-87880D02*
Y-85000D01*
X16180Y-100760D02*
Y-98340D01*
X16160Y-94920D02*
Y-94020D01*
Y-92000D02*
Y-91280D01*
Y-100760D02*
Y-98300D01*
Y-105000D02*
Y-102620D01*
X16140Y-87920D02*
Y-85000D01*
Y-92020D02*
Y-91300D01*
Y-94960D02*
Y-94040D01*
Y-100760D02*
Y-98280D01*
Y-105000D02*
Y-102620D01*
X16100Y-105000D02*
Y-102620D01*
X16120Y-87960D02*
Y-85000D01*
Y-92020D02*
Y-91320D01*
Y-95000D02*
Y-94060D01*
Y-100760D02*
Y-98240D01*
Y-105000D02*
Y-102620D01*
X16100Y-88000D02*
Y-85000D01*
Y-92040D02*
Y-91300D01*
Y-95020D02*
Y-94080D01*
Y-100760D02*
Y-98200D01*
X16080Y-88040D02*
Y-85000D01*
Y-92060D02*
Y-91280D01*
Y-95060D02*
Y-94100D01*
Y-100760D02*
Y-98160D01*
Y-105000D02*
Y-102620D01*
X16060Y-88080D02*
Y-85000D01*
X16040Y-92100D02*
Y-91200D01*
X16060Y-92080D02*
Y-91240D01*
X16420Y-100760D02*
Y-98640D01*
X16340Y-91840D02*
Y-91120D01*
X16360Y-94640D02*
Y-93820D01*
X16340Y-94660D02*
Y-93840D01*
X16420Y-94560D02*
Y-93760D01*
X16340Y-100760D02*
Y-98560D01*
X15940Y-105000D02*
Y-102620D01*
X16340Y-105000D02*
Y-102620D01*
X16040Y-88120D02*
Y-85000D01*
X16320Y-87620D02*
Y-85000D01*
Y-91860D02*
Y-91140D01*
Y-100760D02*
Y-98540D01*
Y-94680D02*
Y-93860D01*
Y-105000D02*
Y-102620D01*
X16300Y-105000D02*
Y-102620D01*
Y-87660D02*
Y-85000D01*
X16280Y-87680D02*
Y-85000D01*
X16300Y-91880D02*
Y-91160D01*
Y-94720D02*
Y-93880D01*
Y-100760D02*
Y-98500D01*
X16060Y-100760D02*
Y-98120D01*
X16420Y-91760D02*
Y-91040D01*
X16440Y-100760D02*
Y-98680D01*
X16480Y-87400D02*
Y-85000D01*
Y-91700D02*
Y-91000D01*
Y-94500D02*
Y-93700D01*
Y-100760D02*
Y-98720D01*
Y-105000D02*
Y-102620D01*
X16460Y-87440D02*
Y-85000D01*
Y-91720D02*
Y-91020D01*
Y-94520D02*
Y-93720D01*
Y-100760D02*
Y-98700D01*
Y-105000D02*
Y-102620D01*
X16440Y-87460D02*
Y-85000D01*
Y-91740D02*
Y-91020D01*
Y-94540D02*
Y-93740D01*
X16420Y-87480D02*
Y-85000D01*
X16600Y-100760D02*
Y-98820D01*
X15200Y-105000D02*
Y-85000D01*
X15960Y-100760D02*
Y-97920D01*
X16500Y-87380D02*
Y-85000D01*
X15940Y-100760D02*
Y-97860D01*
Y-95380D02*
Y-94220D01*
X16540Y-94440D02*
Y-93640D01*
X16560Y-105000D02*
Y-102620D01*
X16540Y-91640D02*
Y-90940D01*
X16560Y-94420D02*
Y-93620D01*
Y-100760D02*
Y-98800D01*
X16720Y-100760D02*
Y-98920D01*
X15920Y-92220D02*
Y-90940D01*
X16540Y-87340D02*
Y-85000D01*
X16700Y-87180D02*
Y-85000D01*
X16560Y-91620D02*
Y-90920D01*
X16540Y-105000D02*
Y-102620D01*
X15020Y-105000D02*
Y-85000D01*
X16540Y-100760D02*
Y-98780D01*
X16560Y-87320D02*
Y-85000D01*
X16700Y-91500D02*
Y-90820D01*
X16660Y-100760D02*
Y-98880D01*
X16820Y-91380D02*
Y-90700D01*
Y-105000D02*
Y-102620D01*
X16760Y-100760D02*
Y-98960D01*
X16580Y-91620D02*
Y-90900D01*
X16640Y-105000D02*
Y-102620D01*
X16680Y-87200D02*
Y-85000D01*
X16780Y-91420D02*
Y-90740D01*
Y-100760D02*
Y-98960D01*
Y-94260D02*
Y-93420D01*
Y-105000D02*
Y-102620D01*
X16820Y-94220D02*
Y-93380D01*
X16740Y-91460D02*
Y-90780D01*
X16820Y-100760D02*
Y-99000D01*
X16620Y-105000D02*
Y-102620D01*
X16600Y-91600D02*
Y-90880D01*
X16620Y-100760D02*
Y-98840D01*
X16740Y-94280D02*
Y-93460D01*
X16760Y-105000D02*
Y-102620D01*
X16740Y-87140D02*
Y-85000D01*
X16780Y-87100D02*
Y-85000D01*
X16600Y-87280D02*
Y-85000D01*
X16680Y-94320D02*
Y-93500D01*
Y-105000D02*
Y-102620D01*
X16520Y-94460D02*
Y-93660D01*
X16800Y-87080D02*
Y-85000D01*
X16680Y-91520D02*
Y-90840D01*
X16620Y-87260D02*
Y-85000D01*
X15440Y-105000D02*
Y-85000D01*
X16500Y-94480D02*
Y-93680D01*
X15040Y-105000D02*
Y-85000D01*
X15500Y-105000D02*
Y-85000D01*
X16680Y-100760D02*
Y-98900D01*
X16700Y-105000D02*
Y-102620D01*
X16660Y-94340D02*
Y-93520D01*
Y-91540D02*
Y-90840D01*
X16520Y-100760D02*
Y-98760D01*
X15940Y-92200D02*
Y-91000D01*
X16520Y-105000D02*
Y-102620D01*
X16580Y-87280D02*
Y-85000D01*
Y-100760D02*
Y-98820D01*
X16640Y-87240D02*
Y-85000D01*
X16580Y-105000D02*
Y-102620D01*
X16500Y-91680D02*
Y-90980D01*
X16520Y-87360D02*
Y-85000D01*
X16720Y-91480D02*
Y-90800D01*
X16580Y-94400D02*
Y-93600D01*
X16760Y-87120D02*
Y-85000D01*
X16700Y-100760D02*
Y-98920D01*
X16800Y-100760D02*
Y-98980D01*
X16760Y-91440D02*
Y-90760D01*
Y-94260D02*
Y-93440D01*
X16660Y-87220D02*
Y-85000D01*
X16500Y-100760D02*
Y-98740D01*
X16720Y-87160D02*
Y-85000D01*
X16520Y-91660D02*
Y-90960D01*
X16720Y-94300D02*
Y-93480D01*
Y-105000D02*
Y-102620D01*
X16640Y-100760D02*
Y-98860D01*
X16740Y-105000D02*
Y-102620D01*
X16620Y-94360D02*
Y-93560D01*
Y-91580D02*
Y-90880D01*
X16640Y-94340D02*
Y-93540D01*
X16800Y-91400D02*
Y-90720D01*
Y-94240D02*
Y-93400D01*
Y-105000D02*
Y-102620D01*
X16640Y-91560D02*
Y-90860D01*
X15180Y-105000D02*
Y-85000D01*
X15120Y-105000D02*
Y-85000D01*
X15140Y-105000D02*
Y-85000D01*
X15100Y-105000D02*
Y-85000D01*
X15160Y-105000D02*
Y-85000D01*
X15600Y-105000D02*
Y-85000D01*
X15580Y-105000D02*
Y-85000D01*
X15560Y-105000D02*
Y-85000D01*
X15540Y-105000D02*
Y-85000D01*
X15520Y-105000D02*
Y-85000D01*
X15220Y-105000D02*
Y-85000D01*
X15260Y-105000D02*
Y-85000D01*
X15240Y-105000D02*
Y-85000D01*
X16740Y-100760D02*
Y-98940D01*
X15000Y-105000D02*
Y-85000D01*
X16700Y-94320D02*
Y-93480D01*
X16600Y-94380D02*
Y-93580D01*
X16660Y-105000D02*
Y-102620D01*
X15080Y-105000D02*
Y-85000D01*
X15340Y-105000D02*
Y-85000D01*
X15420Y-105000D02*
Y-85000D01*
X15920Y-88400D02*
Y-85000D01*
X16820Y-87060D02*
Y-85000D01*
X16600Y-105000D02*
Y-102620D01*
X15320Y-105000D02*
Y-85000D01*
X15460Y-105000D02*
Y-85000D01*
X15280Y-105000D02*
Y-85000D01*
X15700Y-105000D02*
Y-89880D01*
X15680Y-105000D02*
Y-85000D01*
X15720Y-105000D02*
Y-90100D01*
Y-89180D02*
Y-85000D01*
X15640Y-105000D02*
Y-85000D01*
X15740Y-96380D02*
Y-90240D01*
X15700Y-89360D02*
Y-85000D01*
X15620Y-105000D02*
Y-85000D01*
X15740Y-105000D02*
Y-96880D01*
X15660Y-105000D02*
Y-85000D01*
X15480Y-105000D02*
Y-85000D01*
X15300Y-105000D02*
Y-85000D01*
X15740Y-89040D02*
Y-85000D01*
X15060Y-105000D02*
Y-85000D01*
X15860Y-95620D02*
Y-94300D01*
Y-100760D02*
Y-97620D01*
X15760Y-96140D02*
Y-90360D01*
X15860Y-105000D02*
Y-102620D01*
X15760Y-105000D02*
Y-97100D01*
X15840Y-95700D02*
Y-94320D01*
X15820Y-105000D02*
Y-97460D01*
X15800Y-105000D02*
Y-97360D01*
X15820Y-95780D02*
Y-90640D01*
X15800Y-88760D02*
Y-85000D01*
Y-95880D02*
Y-90560D01*
X15840Y-105000D02*
Y-97540D01*
X15400Y-105000D02*
Y-85000D01*
X15360Y-105000D02*
Y-85000D01*
X15780Y-88840D02*
Y-85000D01*
X15760Y-88940D02*
Y-85000D01*
X15820Y-88680D02*
Y-85000D01*
X15780Y-105000D02*
Y-97240D01*
X15380Y-105000D02*
Y-85000D01*
X15780Y-96000D02*
Y-90460D01*
X15900Y-92240D02*
Y-90880D01*
X15840Y-92300D02*
Y-90720D01*
X15860Y-92280D02*
Y-90780D01*
X15920Y-95440D02*
Y-94240D01*
Y-105000D02*
Y-102620D01*
X15900Y-95500D02*
Y-94260D01*
X15840Y-88620D02*
Y-85000D01*
X15880Y-100760D02*
Y-97700D01*
Y-105000D02*
Y-102620D01*
X15860Y-88560D02*
Y-85000D01*
X15920Y-100760D02*
Y-97820D01*
X15900Y-88460D02*
Y-85000D01*
X15880Y-92260D02*
Y-90840D01*
Y-88480D02*
Y-85000D01*
X15900Y-100760D02*
Y-97760D01*
X15880Y-95540D02*
Y-94280D01*
X15900Y-105000D02*
Y-102620D01*
X20660Y-91220D02*
Y-88000D01*
Y-86140D02*
Y-85000D01*
Y-105000D02*
Y-102620D01*
X20640Y-86140D02*
Y-85000D01*
X20660Y-97580D02*
Y-95600D01*
Y-93800D02*
Y-93220D01*
Y-100760D02*
Y-99360D01*
X20640Y-91240D02*
Y-88000D01*
Y-93800D02*
Y-93220D01*
Y-100760D02*
Y-99360D01*
Y-97580D02*
Y-95600D01*
Y-105000D02*
Y-102620D01*
X20620Y-86120D02*
Y-85000D01*
X20600Y-86120D02*
Y-85000D01*
X20620Y-91260D02*
Y-87980D01*
Y-93800D02*
Y-93220D01*
Y-97580D02*
Y-95600D01*
Y-100760D02*
Y-99360D01*
Y-105000D02*
Y-102620D01*
X20600Y-100760D02*
Y-99360D01*
Y-91260D02*
Y-87960D01*
Y-105000D02*
Y-102620D01*
Y-93800D02*
Y-93220D01*
Y-97580D02*
Y-95600D01*
X20040Y-100760D02*
Y-99360D01*
X20580Y-105000D02*
Y-102620D01*
Y-91280D02*
Y-87960D01*
Y-86120D02*
Y-85000D01*
Y-93800D02*
Y-93220D01*
Y-97580D02*
Y-95600D01*
X20040Y-105000D02*
Y-102620D01*
X20580Y-100760D02*
Y-99360D01*
X20560Y-86100D02*
Y-85000D01*
Y-93800D02*
Y-93240D01*
Y-91300D02*
Y-87940D01*
Y-97580D02*
Y-95600D01*
Y-100760D02*
Y-99360D01*
Y-105000D02*
Y-102620D01*
X20540Y-86100D02*
Y-85000D01*
X19920Y-105000D02*
Y-102620D01*
X19880Y-97580D02*
Y-95600D01*
Y-93800D02*
Y-93380D01*
X20540Y-97580D02*
Y-95600D01*
X19840Y-85960D02*
Y-85000D01*
X19900Y-93800D02*
Y-93380D01*
X20420Y-91380D02*
Y-87860D01*
Y-86060D02*
Y-85000D01*
X20440Y-93800D02*
Y-93260D01*
Y-105000D02*
Y-102620D01*
Y-100760D02*
Y-99360D01*
Y-86080D02*
Y-85000D01*
X20400Y-86060D02*
Y-85000D01*
X20440Y-97580D02*
Y-95600D01*
Y-91360D02*
Y-87880D01*
X20400Y-91400D02*
Y-87840D01*
X19980Y-100760D02*
Y-99360D01*
X20540Y-93800D02*
Y-93240D01*
Y-100760D02*
Y-99360D01*
X20400Y-100760D02*
Y-99360D01*
X20460Y-105000D02*
Y-102620D01*
X20500Y-100760D02*
Y-99360D01*
X19980Y-97580D02*
Y-95600D01*
X20420Y-105000D02*
Y-102620D01*
X20000Y-105000D02*
Y-102620D01*
X20420Y-100760D02*
Y-99360D01*
Y-93800D02*
Y-93280D01*
X20460Y-100760D02*
Y-99360D01*
X20420Y-97580D02*
Y-95600D01*
X20500Y-105000D02*
Y-102620D01*
X20020Y-97580D02*
Y-95600D01*
X19980Y-85980D02*
Y-85000D01*
Y-93800D02*
Y-93360D01*
Y-91540D02*
Y-87700D01*
X20020Y-93800D02*
Y-93360D01*
Y-100760D02*
Y-99360D01*
X20520Y-100760D02*
Y-99360D01*
X20020Y-105000D02*
Y-102620D01*
X20000Y-85980D02*
Y-85000D01*
Y-91540D02*
Y-87720D01*
Y-93800D02*
Y-93360D01*
X20500Y-93800D02*
Y-93240D01*
X20480Y-93800D02*
Y-93260D01*
X20520Y-97580D02*
Y-95600D01*
X20500Y-91320D02*
Y-87900D01*
X20520Y-91320D02*
Y-87920D01*
Y-105000D02*
Y-102620D01*
Y-86100D02*
Y-85000D01*
Y-93800D02*
Y-93240D01*
X20540Y-105000D02*
Y-102620D01*
X20500Y-97580D02*
Y-95600D01*
X20480Y-86080D02*
Y-85000D01*
X20000Y-100760D02*
Y-99360D01*
Y-97580D02*
Y-95600D01*
X20500Y-86100D02*
Y-85000D01*
X20480Y-97580D02*
Y-95600D01*
Y-105000D02*
Y-102620D01*
X20460Y-93800D02*
Y-93260D01*
X20480Y-91340D02*
Y-87900D01*
Y-100760D02*
Y-99360D01*
X20400Y-97580D02*
Y-95600D01*
X20380Y-91400D02*
Y-87840D01*
X20460Y-97580D02*
Y-95600D01*
Y-91360D02*
Y-87880D01*
Y-86080D02*
Y-85000D01*
X20400Y-93800D02*
Y-93280D01*
X20380Y-93800D02*
Y-93280D01*
Y-97580D02*
Y-95600D01*
Y-86060D02*
Y-85000D01*
X20400Y-105000D02*
Y-102620D01*
X20040Y-97580D02*
Y-95600D01*
Y-91520D02*
Y-87720D01*
X20240Y-93800D02*
Y-93320D01*
X20040Y-93800D02*
Y-93360D01*
X20060Y-100760D02*
Y-99360D01*
X20040Y-86000D02*
Y-85000D01*
X20060Y-105000D02*
Y-102620D01*
Y-91520D02*
Y-87720D01*
X20080Y-100760D02*
Y-99360D01*
X20060Y-97580D02*
Y-95600D01*
X20080Y-93800D02*
Y-93340D01*
X20060Y-86000D02*
Y-85000D01*
Y-93800D02*
Y-93340D01*
X20080Y-105000D02*
Y-102620D01*
Y-91520D02*
Y-87740D01*
Y-97580D02*
Y-95600D01*
X20100Y-86000D02*
Y-85000D01*
X20080Y-86000D02*
Y-85000D01*
X20100Y-100760D02*
Y-99360D01*
Y-105000D02*
Y-102620D01*
X19880Y-91560D02*
Y-87680D01*
X20100Y-97580D02*
Y-95600D01*
Y-91500D02*
Y-87740D01*
Y-93800D02*
Y-93340D01*
X20120Y-91500D02*
Y-87740D01*
Y-105000D02*
Y-102620D01*
Y-97580D02*
Y-95600D01*
Y-100760D02*
Y-99360D01*
Y-86000D02*
Y-85000D01*
Y-93800D02*
Y-93340D01*
X20220Y-105000D02*
Y-102620D01*
X20140Y-105000D02*
Y-102620D01*
Y-97580D02*
Y-95600D01*
Y-100760D02*
Y-99360D01*
Y-86000D02*
Y-85000D01*
Y-93800D02*
Y-93340D01*
X20220Y-100760D02*
Y-99360D01*
X20140Y-91500D02*
Y-87740D01*
X20160Y-105000D02*
Y-102620D01*
Y-100760D02*
Y-99360D01*
Y-97580D02*
Y-95600D01*
X20380Y-105000D02*
Y-102620D01*
X20160Y-93800D02*
Y-93340D01*
X20180Y-97580D02*
Y-95600D01*
X20160Y-91480D02*
Y-87760D01*
Y-86020D02*
Y-85000D01*
X20180Y-105000D02*
Y-102620D01*
X20200Y-93800D02*
Y-93320D01*
X20180Y-100760D02*
Y-99360D01*
Y-93800D02*
Y-93320D01*
Y-91480D02*
Y-87760D01*
Y-86020D02*
Y-85000D01*
X20200Y-100760D02*
Y-99360D01*
Y-97580D02*
Y-95600D01*
Y-91480D02*
Y-87760D01*
Y-105000D02*
Y-102620D01*
Y-86020D02*
Y-85000D01*
X20240Y-100760D02*
Y-99360D01*
X20220Y-97580D02*
Y-95600D01*
Y-93800D02*
Y-93320D01*
Y-91460D02*
Y-87780D01*
X20240Y-105000D02*
Y-102620D01*
X20220Y-86020D02*
Y-85000D01*
X20260Y-93800D02*
Y-93300D01*
Y-100760D02*
Y-99360D01*
X20240Y-91460D02*
Y-87780D01*
Y-86020D02*
Y-85000D01*
Y-97580D02*
Y-95600D01*
X20260Y-105000D02*
Y-102620D01*
X20280Y-105000D02*
Y-102620D01*
X20260Y-97580D02*
Y-95600D01*
X20280Y-100760D02*
Y-99360D01*
X20260Y-91460D02*
Y-87780D01*
X20280Y-97580D02*
Y-95600D01*
X20260Y-86040D02*
Y-85000D01*
X20300Y-100760D02*
Y-99360D01*
X20280Y-93800D02*
Y-93300D01*
Y-91440D02*
Y-87800D01*
Y-86040D02*
Y-85000D01*
X20300Y-105000D02*
Y-102620D01*
Y-97580D02*
Y-95600D01*
Y-93800D02*
Y-93300D01*
Y-91440D02*
Y-87800D01*
X20340Y-100760D02*
Y-99360D01*
X20320Y-97580D02*
Y-95600D01*
X20300Y-86040D02*
Y-85000D01*
X20320Y-105000D02*
Y-102620D01*
Y-93800D02*
Y-93300D01*
Y-100760D02*
Y-99360D01*
X20340Y-97580D02*
Y-95600D01*
X20320Y-86040D02*
Y-85000D01*
X20360Y-86060D02*
Y-85000D01*
X19880Y-105000D02*
Y-102620D01*
X19860Y-97580D02*
Y-95600D01*
X19900Y-85980D02*
Y-85000D01*
X19880Y-100760D02*
Y-99360D01*
X19840Y-93800D02*
Y-93380D01*
X20720Y-97580D02*
Y-95600D01*
Y-100760D02*
Y-99360D01*
Y-105000D02*
Y-102620D01*
X20020Y-85980D02*
Y-85000D01*
X20700Y-86140D02*
Y-85000D01*
X20020Y-91520D02*
Y-87720D01*
X20700Y-91200D02*
Y-88040D01*
Y-93800D02*
Y-93200D01*
Y-105000D02*
Y-102620D01*
Y-97580D02*
Y-95600D01*
Y-100760D02*
Y-99360D01*
X20680Y-91220D02*
Y-88020D01*
Y-86140D02*
Y-85000D01*
X20360Y-91420D02*
Y-87820D01*
X20680Y-93800D02*
Y-93200D01*
Y-97580D02*
Y-95600D01*
Y-100760D02*
Y-99360D01*
Y-105000D02*
Y-102620D01*
X20360Y-93800D02*
Y-93280D01*
Y-97580D02*
Y-95600D01*
Y-100760D02*
Y-99360D01*
Y-105000D02*
Y-102620D01*
X20340Y-86040D02*
Y-85000D01*
Y-93800D02*
Y-93300D01*
Y-91420D02*
Y-87820D01*
X20380Y-100760D02*
Y-99360D01*
X20340Y-105000D02*
Y-102620D01*
X20320Y-91420D02*
Y-87820D01*
X19960Y-85980D02*
Y-85000D01*
Y-93800D02*
Y-93360D01*
Y-91540D02*
Y-87700D01*
X19860Y-105000D02*
Y-102620D01*
X19960Y-97580D02*
Y-95600D01*
Y-100760D02*
Y-99360D01*
Y-105000D02*
Y-102620D01*
X19940Y-85980D02*
Y-85000D01*
Y-91540D02*
Y-87700D01*
Y-93800D02*
Y-93360D01*
X19920Y-85980D02*
Y-85000D01*
X19940Y-97580D02*
Y-95600D01*
Y-105000D02*
Y-102620D01*
Y-100760D02*
Y-99360D01*
X19920Y-93800D02*
Y-93360D01*
Y-91540D02*
Y-87700D01*
X20540Y-91300D02*
Y-87940D01*
X19920Y-97580D02*
Y-95600D01*
Y-100760D02*
Y-99360D01*
X19980Y-105000D02*
Y-102620D01*
X19880Y-85980D02*
Y-85000D01*
X19900Y-91560D02*
Y-87700D01*
X19840Y-97580D02*
Y-95600D01*
X19860Y-100760D02*
Y-99360D01*
X19900Y-105000D02*
Y-102620D01*
X19840Y-91560D02*
Y-87680D01*
X19860Y-93800D02*
Y-93380D01*
Y-85960D02*
Y-85000D01*
X19900Y-97580D02*
Y-95600D01*
Y-100760D02*
Y-99360D01*
X19860Y-91560D02*
Y-87680D01*
X19240Y-100760D02*
Y-99360D01*
Y-91560D02*
Y-91020D01*
Y-97580D02*
Y-95600D01*
Y-93800D02*
Y-93400D01*
Y-105000D02*
Y-102620D01*
Y-89080D02*
Y-87680D01*
X19260Y-105000D02*
Y-102620D01*
Y-97580D02*
Y-95600D01*
Y-100760D02*
Y-99360D01*
X19220Y-89100D02*
Y-87680D01*
X19260Y-93800D02*
Y-93400D01*
X19240Y-85960D02*
Y-85000D01*
X19260Y-91560D02*
Y-91000D01*
X19280Y-97580D02*
Y-95600D01*
X19260Y-89040D02*
Y-87680D01*
Y-85960D02*
Y-85000D01*
X19280Y-105000D02*
Y-102620D01*
Y-100760D02*
Y-99360D01*
Y-89020D02*
Y-87680D01*
Y-93800D02*
Y-93400D01*
Y-85960D02*
Y-85000D01*
Y-91560D02*
Y-90980D01*
X19300Y-105000D02*
Y-102620D01*
Y-97580D02*
Y-95600D01*
Y-91560D02*
Y-90960D01*
Y-93800D02*
Y-93400D01*
Y-89000D02*
Y-87680D01*
Y-100760D02*
Y-99360D01*
X19320Y-105000D02*
Y-102620D01*
Y-100760D02*
Y-99360D01*
X19660Y-100760D02*
Y-99360D01*
X19320Y-97580D02*
Y-95600D01*
Y-93800D02*
Y-93400D01*
X19660Y-105000D02*
Y-102620D01*
X19220Y-91560D02*
Y-91040D01*
Y-85960D02*
Y-85000D01*
X19520Y-97580D02*
Y-95600D01*
X19500Y-91580D02*
Y-87660D01*
X19560Y-97580D02*
Y-95600D01*
X19520Y-93800D02*
Y-93400D01*
Y-91580D02*
Y-87660D01*
X19540Y-100760D02*
Y-99360D01*
X19520Y-85960D02*
Y-85000D01*
X19540Y-91580D02*
Y-87660D01*
Y-97580D02*
Y-95600D01*
X19560Y-100760D02*
Y-99360D01*
Y-105000D02*
Y-102620D01*
X19540Y-93800D02*
Y-93400D01*
Y-85960D02*
Y-85000D01*
X19560Y-93800D02*
Y-93400D01*
X19600Y-105000D02*
Y-102620D01*
X19580Y-105000D02*
Y-102620D01*
Y-100760D02*
Y-99360D01*
X19560Y-85960D02*
Y-85000D01*
X19580Y-93800D02*
Y-93400D01*
Y-97580D02*
Y-95600D01*
Y-91580D02*
Y-87660D01*
X19560Y-91580D02*
Y-87660D01*
X19580Y-85960D02*
Y-85000D01*
X19600Y-100760D02*
Y-99360D01*
Y-93800D02*
Y-93400D01*
Y-97580D02*
Y-95600D01*
Y-91580D02*
Y-87660D01*
Y-85960D02*
Y-85000D01*
X19620Y-105000D02*
Y-102620D01*
Y-100760D02*
Y-99360D01*
Y-97580D02*
Y-95600D01*
Y-93800D02*
Y-93400D01*
Y-91580D02*
Y-87660D01*
Y-85960D02*
Y-85000D01*
X19540Y-105000D02*
Y-102620D01*
X19640Y-85960D02*
Y-85000D01*
Y-105000D02*
Y-102620D01*
X18900Y-97580D02*
Y-95600D01*
X19640Y-100760D02*
Y-99360D01*
X19440Y-105000D02*
Y-102620D01*
X19640Y-97580D02*
Y-95600D01*
Y-93800D02*
Y-93400D01*
Y-91580D02*
Y-87660D01*
X18940Y-100760D02*
Y-99360D01*
X18920Y-105000D02*
Y-102620D01*
X18940Y-105000D02*
Y-102620D01*
X18920Y-86000D02*
Y-85000D01*
Y-89380D02*
Y-87760D01*
Y-91480D02*
Y-91340D01*
Y-97580D02*
Y-95600D01*
Y-100760D02*
Y-99360D01*
Y-93800D02*
Y-93360D01*
X19440Y-100760D02*
Y-99360D01*
Y-97580D02*
Y-95600D01*
X18900Y-86000D02*
Y-85000D01*
X19440Y-91580D02*
Y-87660D01*
Y-93800D02*
Y-93400D01*
Y-85960D02*
Y-85000D01*
X19460Y-105000D02*
Y-102620D01*
Y-100760D02*
Y-99360D01*
Y-97580D02*
Y-95600D01*
Y-93800D02*
Y-93400D01*
Y-91580D02*
Y-87660D01*
Y-85960D02*
Y-85000D01*
X19480Y-100760D02*
Y-99360D01*
X18940Y-89360D02*
Y-87740D01*
X19480Y-97580D02*
Y-95600D01*
Y-91580D02*
Y-87660D01*
X19080Y-91520D02*
Y-91180D01*
Y-89240D02*
Y-87700D01*
X19160Y-91540D02*
Y-91100D01*
Y-97580D02*
Y-95600D01*
Y-93800D02*
Y-93400D01*
Y-100760D02*
Y-99360D01*
Y-105000D02*
Y-102620D01*
X19140Y-85980D02*
Y-85000D01*
Y-89180D02*
Y-87700D01*
Y-91540D02*
Y-91120D01*
Y-97580D02*
Y-95600D01*
Y-93800D02*
Y-93380D01*
Y-100760D02*
Y-99360D01*
X19120Y-85980D02*
Y-85000D01*
X19180Y-105000D02*
Y-102620D01*
X19080Y-93800D02*
Y-93380D01*
X19060Y-85980D02*
Y-85000D01*
X19080Y-97580D02*
Y-95600D01*
Y-105000D02*
Y-102620D01*
Y-100760D02*
Y-99360D01*
X19040Y-93800D02*
Y-93380D01*
X19060Y-89260D02*
Y-87720D01*
Y-91520D02*
Y-91200D01*
Y-93800D02*
Y-93380D01*
Y-97580D02*
Y-95600D01*
Y-100760D02*
Y-99360D01*
X19040Y-91520D02*
Y-91220D01*
X19060Y-105000D02*
Y-102620D01*
X19040Y-89280D02*
Y-87720D01*
Y-85980D02*
Y-85000D01*
Y-100760D02*
Y-99360D01*
X19680Y-97580D02*
Y-95600D01*
X19660Y-97580D02*
Y-95600D01*
X19020Y-85980D02*
Y-85000D01*
X19040Y-105000D02*
Y-102620D01*
X19020Y-89300D02*
Y-87720D01*
Y-93800D02*
Y-93380D01*
Y-91520D02*
Y-91240D01*
X19000Y-100760D02*
Y-99360D01*
X19020Y-100760D02*
Y-99360D01*
Y-97580D02*
Y-95600D01*
Y-105000D02*
Y-102620D01*
X19000Y-85980D02*
Y-85000D01*
Y-89320D02*
Y-87720D01*
Y-91500D02*
Y-91260D01*
Y-93800D02*
Y-93380D01*
Y-105000D02*
Y-102620D01*
Y-97580D02*
Y-95600D01*
X18980Y-86000D02*
Y-85000D01*
Y-91500D02*
Y-91280D01*
Y-89340D02*
Y-87740D01*
Y-93800D02*
Y-93380D01*
Y-97580D02*
Y-95600D01*
Y-100760D02*
Y-99360D01*
Y-105000D02*
Y-102620D01*
X18960Y-86000D02*
Y-85000D01*
Y-89340D02*
Y-87740D01*
Y-93800D02*
Y-93360D01*
Y-91500D02*
Y-91300D01*
Y-97580D02*
Y-95600D01*
Y-100760D02*
Y-99360D01*
Y-105000D02*
Y-102620D01*
X18940Y-91480D02*
Y-91320D01*
Y-86000D02*
Y-85000D01*
X18900Y-91480D02*
Y-91360D01*
X18940Y-93800D02*
Y-93360D01*
Y-97580D02*
Y-95600D01*
X18900Y-89400D02*
Y-87760D01*
X19500Y-97580D02*
Y-95600D01*
Y-100760D02*
Y-99360D01*
Y-105000D02*
Y-102620D01*
X19480Y-85960D02*
Y-85000D01*
X19140Y-105000D02*
Y-102620D01*
X19120Y-91540D02*
Y-91140D01*
Y-89200D02*
Y-87700D01*
X19180Y-100760D02*
Y-99360D01*
X19120Y-93800D02*
Y-93380D01*
Y-97580D02*
Y-95600D01*
X19100Y-91540D02*
Y-91160D01*
X19120Y-100760D02*
Y-99360D01*
Y-105000D02*
Y-102620D01*
X19100Y-85980D02*
Y-85000D01*
Y-89220D02*
Y-87700D01*
Y-93800D02*
Y-93380D01*
X19040Y-97580D02*
Y-95600D01*
X19100Y-97580D02*
Y-95600D01*
Y-105000D02*
Y-102620D01*
Y-100760D02*
Y-99360D01*
X19080Y-85980D02*
Y-85000D01*
X18900Y-93800D02*
Y-93360D01*
X19480Y-93800D02*
Y-93400D01*
X19180Y-97580D02*
Y-95600D01*
X19480Y-105000D02*
Y-102620D01*
X19180Y-91540D02*
Y-91080D01*
Y-93800D02*
Y-93400D01*
Y-89140D02*
Y-87680D01*
X19200Y-105000D02*
Y-102620D01*
X19220Y-97580D02*
Y-95600D01*
Y-100760D02*
Y-99360D01*
Y-105000D02*
Y-102620D01*
X19200Y-89120D02*
Y-87680D01*
Y-85960D02*
Y-85000D01*
Y-91560D02*
Y-91060D01*
Y-93800D02*
Y-93400D01*
Y-97580D02*
Y-95600D01*
Y-100760D02*
Y-99360D01*
X19180Y-85960D02*
Y-85000D01*
X19160Y-89160D02*
Y-87700D01*
Y-85960D02*
Y-85000D01*
X19220Y-93800D02*
Y-93400D01*
X19500Y-85960D02*
Y-85000D01*
X19520Y-105000D02*
Y-102620D01*
X19680Y-100760D02*
Y-99360D01*
X19520Y-100760D02*
Y-99360D01*
X19400Y-105000D02*
Y-102620D01*
X19420Y-93800D02*
Y-93400D01*
Y-97580D02*
Y-95600D01*
X19340Y-105000D02*
Y-102620D01*
Y-100760D02*
Y-99360D01*
X19380Y-97580D02*
Y-95600D01*
X19360Y-93800D02*
Y-93400D01*
Y-91580D02*
Y-90900D01*
X19820Y-105000D02*
Y-102620D01*
X19360Y-85960D02*
Y-85000D01*
Y-105000D02*
Y-102620D01*
X19320Y-88980D02*
Y-87660D01*
X19360Y-97580D02*
Y-95600D01*
X19820Y-100760D02*
Y-99360D01*
X19340Y-85960D02*
Y-85000D01*
X19380Y-105000D02*
Y-102620D01*
X19800Y-85960D02*
Y-85000D01*
X19380Y-100760D02*
Y-99360D01*
X19360Y-100760D02*
Y-99360D01*
X19800Y-97580D02*
Y-95600D01*
X19760Y-85960D02*
Y-85000D01*
X19780Y-93800D02*
Y-93380D01*
Y-100760D02*
Y-99360D01*
X19380Y-85960D02*
Y-85000D01*
X19780Y-105000D02*
Y-102620D01*
X19800Y-100760D02*
Y-99360D01*
X19780Y-91560D02*
Y-87680D01*
X19360Y-88960D02*
Y-87660D01*
X19380Y-88940D02*
Y-87660D01*
X19740Y-100760D02*
Y-99360D01*
Y-85960D02*
Y-85000D01*
Y-105000D02*
Y-102620D01*
X19720Y-100760D02*
Y-99360D01*
X19760Y-93800D02*
Y-93380D01*
Y-100760D02*
Y-99360D01*
X19740Y-93800D02*
Y-93380D01*
X19760Y-91560D02*
Y-87660D01*
X19780Y-97580D02*
Y-95600D01*
X19760Y-97580D02*
Y-95600D01*
X19680Y-93800D02*
Y-93400D01*
X19760Y-105000D02*
Y-102620D01*
X19740Y-91580D02*
Y-87660D01*
X19720Y-97580D02*
Y-95600D01*
X19800Y-105000D02*
Y-102620D01*
X19780Y-85960D02*
Y-85000D01*
X19720Y-91580D02*
Y-87660D01*
Y-93800D02*
Y-93380D01*
X19820Y-91560D02*
Y-87680D01*
X19400Y-100760D02*
Y-99360D01*
X19700Y-85960D02*
Y-85000D01*
X19380Y-91580D02*
Y-90880D01*
X19800Y-93800D02*
Y-93380D01*
X19420Y-85960D02*
Y-85000D01*
X19720Y-85960D02*
Y-85000D01*
X19320Y-91560D02*
Y-90940D01*
X19680Y-105000D02*
Y-102620D01*
X19300Y-85960D02*
Y-85000D01*
X19820Y-93800D02*
Y-93380D01*
X19660Y-85960D02*
Y-85000D01*
Y-91580D02*
Y-87660D01*
X19420Y-105000D02*
Y-102620D01*
Y-91580D02*
Y-87660D01*
X19820Y-85960D02*
Y-85000D01*
X19320Y-85960D02*
Y-85000D01*
X19660Y-93800D02*
Y-93400D01*
X19400Y-85960D02*
Y-85000D01*
X19700Y-91580D02*
Y-87660D01*
X19340Y-93800D02*
Y-93400D01*
X19380Y-93800D02*
Y-93400D01*
X19800Y-91560D02*
Y-87680D01*
X19820Y-97580D02*
Y-95600D01*
X19400Y-91580D02*
Y-87660D01*
X19700Y-97580D02*
Y-95600D01*
X19680Y-85960D02*
Y-85000D01*
X19500Y-93800D02*
Y-93400D01*
X19700Y-100760D02*
Y-99360D01*
X19420Y-100760D02*
Y-99360D01*
X19700Y-105000D02*
Y-102620D01*
X19340Y-97580D02*
Y-95600D01*
X19400Y-97580D02*
Y-95600D01*
X19340Y-88960D02*
Y-87660D01*
Y-91560D02*
Y-90920D01*
X19400Y-93800D02*
Y-93400D01*
X19700Y-93800D02*
Y-93400D01*
X19720Y-105000D02*
Y-102620D01*
X19680Y-91580D02*
Y-87660D01*
X19740Y-97580D02*
Y-95600D01*
X18680Y-89620D02*
Y-87840D01*
X18780Y-97580D02*
Y-95600D01*
X18760Y-97580D02*
Y-95600D01*
Y-100760D02*
Y-99360D01*
Y-105000D02*
Y-102620D01*
X18740Y-100760D02*
Y-99360D01*
Y-105000D02*
Y-102620D01*
Y-86040D02*
Y-85000D01*
Y-89560D02*
Y-87820D01*
Y-93800D02*
Y-93320D01*
Y-97580D02*
Y-95600D01*
X18720Y-86040D02*
Y-85000D01*
Y-89580D02*
Y-87840D01*
Y-105000D02*
Y-102620D01*
X18780Y-105000D02*
Y-102620D01*
X18700Y-89600D02*
Y-87840D01*
X18680Y-86040D02*
Y-85000D01*
X18700Y-93800D02*
Y-93320D01*
X18860Y-91460D02*
Y-91380D01*
X18820Y-89480D02*
Y-87780D01*
X18840Y-105000D02*
Y-102620D01*
X18700Y-97580D02*
Y-95600D01*
Y-100760D02*
Y-99360D01*
Y-105000D02*
Y-102620D01*
X18900Y-100760D02*
Y-99360D01*
X18860Y-93800D02*
Y-93340D01*
X18900Y-105000D02*
Y-102620D01*
X18880Y-86000D02*
Y-85000D01*
X18860Y-86020D02*
Y-85000D01*
X18880Y-105000D02*
Y-102620D01*
Y-89420D02*
Y-87760D01*
Y-91460D02*
Y-91380D01*
Y-97580D02*
Y-95600D01*
Y-93800D02*
Y-93360D01*
X17900Y-100760D02*
Y-99360D01*
X18880Y-100760D02*
Y-99360D01*
X18300Y-105000D02*
Y-102620D01*
X18280Y-89980D02*
Y-88100D01*
Y-86140D02*
Y-85000D01*
Y-97580D02*
Y-95600D01*
Y-93800D02*
Y-93220D01*
Y-100760D02*
Y-99360D01*
X18260Y-93800D02*
Y-93220D01*
Y-90000D02*
Y-88120D01*
Y-105000D02*
Y-102620D01*
Y-100760D02*
Y-99360D01*
X18240Y-86160D02*
Y-85000D01*
Y-90020D02*
Y-88140D01*
X18220Y-90040D02*
Y-88160D01*
X18240Y-93800D02*
Y-93200D01*
Y-100760D02*
Y-99360D01*
Y-97580D02*
Y-95600D01*
Y-105000D02*
Y-102620D01*
X18220Y-86160D02*
Y-85000D01*
Y-93800D02*
Y-93200D01*
Y-100760D02*
Y-99360D01*
Y-105000D02*
Y-102620D01*
X18200Y-86160D02*
Y-85000D01*
Y-90060D02*
Y-88160D01*
X18220Y-97580D02*
Y-95600D01*
X18180Y-100760D02*
Y-99360D01*
X18160Y-86180D02*
Y-85000D01*
X18180Y-105000D02*
Y-102620D01*
X18140Y-86180D02*
Y-85000D01*
X18180Y-93800D02*
Y-93180D01*
X18320Y-89940D02*
Y-88060D01*
X18180Y-97580D02*
Y-95600D01*
X18320Y-97580D02*
Y-95600D01*
Y-105000D02*
Y-102620D01*
Y-93800D02*
Y-93220D01*
Y-100760D02*
Y-99360D01*
X18300Y-86140D02*
Y-85000D01*
X18720Y-100760D02*
Y-99360D01*
Y-93800D02*
Y-93320D01*
X18700Y-86040D02*
Y-85000D01*
X18720Y-97580D02*
Y-95600D01*
X18760Y-86020D02*
Y-85000D01*
Y-89540D02*
Y-87820D01*
X18780Y-93800D02*
Y-93340D01*
X18300Y-93800D02*
Y-93220D01*
X17980Y-105000D02*
Y-102620D01*
X18120Y-100760D02*
Y-99360D01*
X18020Y-97580D02*
Y-95600D01*
X17940Y-86280D02*
Y-85000D01*
X18020Y-86240D02*
Y-85000D01*
X18040Y-105000D02*
Y-102620D01*
X18120Y-105000D02*
Y-102620D01*
X18000Y-93800D02*
Y-93100D01*
X18780Y-100760D02*
Y-99360D01*
X18300Y-89960D02*
Y-88080D01*
X18020Y-105000D02*
Y-102620D01*
X17980Y-86260D02*
Y-85000D01*
Y-90280D02*
Y-88420D01*
Y-93800D02*
Y-93100D01*
X18020Y-90240D02*
Y-88380D01*
X17960Y-100760D02*
Y-99360D01*
Y-97580D02*
Y-95600D01*
X18180Y-86180D02*
Y-85000D01*
X18800Y-105000D02*
Y-102620D01*
Y-100760D02*
Y-99360D01*
X18780Y-89520D02*
Y-87800D01*
Y-86020D02*
Y-85000D01*
X18820Y-86020D02*
Y-85000D01*
Y-93800D02*
Y-93340D01*
Y-97580D02*
Y-95600D01*
Y-105000D02*
Y-102620D01*
Y-100760D02*
Y-99360D01*
X18840Y-97580D02*
Y-95600D01*
X18800Y-89500D02*
Y-87800D01*
X18160Y-97580D02*
Y-95600D01*
X18200Y-100760D02*
Y-99360D01*
X18280Y-105000D02*
Y-102620D01*
X18360Y-105000D02*
Y-102620D01*
X18260Y-86140D02*
Y-85000D01*
X18160Y-93800D02*
Y-93180D01*
X18260Y-97580D02*
Y-95600D01*
X18160Y-90100D02*
Y-88200D01*
X18300Y-100760D02*
Y-99360D01*
Y-97580D02*
Y-95600D01*
X18160Y-100760D02*
Y-99360D01*
X18800Y-93800D02*
Y-93340D01*
Y-97580D02*
Y-95600D01*
Y-86020D02*
Y-85000D01*
X18200Y-105000D02*
Y-102620D01*
X18060Y-105000D02*
Y-102620D01*
X18180Y-90080D02*
Y-88180D01*
X18200Y-93800D02*
Y-93180D01*
X18040Y-90220D02*
Y-88360D01*
X18360Y-100760D02*
Y-99360D01*
X18040Y-86240D02*
Y-85000D01*
X18160Y-105000D02*
Y-102620D01*
X18040Y-93800D02*
Y-93120D01*
X18200Y-97580D02*
Y-95600D01*
X18360Y-97580D02*
Y-95600D01*
X18120Y-90120D02*
Y-88240D01*
X18000Y-105000D02*
Y-102620D01*
Y-97580D02*
Y-95600D01*
Y-100760D02*
Y-99360D01*
X17940Y-93800D02*
Y-93080D01*
Y-97580D02*
Y-95620D01*
Y-90320D02*
Y-88480D01*
X18020Y-100760D02*
Y-99360D01*
X18840Y-93800D02*
Y-93340D01*
Y-100760D02*
Y-99360D01*
Y-86020D02*
Y-85000D01*
Y-89460D02*
Y-87780D01*
X18860Y-105000D02*
Y-102620D01*
Y-100760D02*
Y-99360D01*
Y-97580D02*
Y-95600D01*
Y-89440D02*
Y-87780D01*
X18760Y-93800D02*
Y-93320D01*
X18560Y-100760D02*
Y-99360D01*
X18680Y-97580D02*
Y-95600D01*
X18580Y-93800D02*
Y-93280D01*
Y-105000D02*
Y-102620D01*
X18560Y-86080D02*
Y-85000D01*
X18580Y-100760D02*
Y-99360D01*
Y-89700D02*
Y-87900D01*
Y-97580D02*
Y-95600D01*
X18560Y-89720D02*
Y-87900D01*
X18600Y-100760D02*
Y-99360D01*
X18580Y-86060D02*
Y-85000D01*
X18600Y-97580D02*
Y-95600D01*
Y-89680D02*
Y-87880D01*
Y-93800D02*
Y-93300D01*
Y-86060D02*
Y-85000D01*
X18620Y-97580D02*
Y-95600D01*
Y-100760D02*
Y-99360D01*
X18560Y-105000D02*
Y-102620D01*
X18620Y-105000D02*
Y-102620D01*
Y-89660D02*
Y-87880D01*
Y-93800D02*
Y-93300D01*
Y-86060D02*
Y-85000D01*
X18640Y-93800D02*
Y-93300D01*
Y-105000D02*
Y-102620D01*
Y-97580D02*
Y-95600D01*
Y-100760D02*
Y-99360D01*
Y-89660D02*
Y-87860D01*
Y-86060D02*
Y-85000D01*
X18660Y-100760D02*
Y-99360D01*
Y-93800D02*
Y-93300D01*
Y-97580D02*
Y-95600D01*
Y-89640D02*
Y-87860D01*
Y-105000D02*
Y-102620D01*
Y-86060D02*
Y-85000D01*
X18680Y-105000D02*
Y-102620D01*
X18560Y-93800D02*
Y-93280D01*
X18680Y-100760D02*
Y-99360D01*
X18540Y-86080D02*
Y-85000D01*
X18600Y-105000D02*
Y-102620D01*
X18560Y-97580D02*
Y-95600D01*
X18540Y-89720D02*
Y-87920D01*
X18420Y-100760D02*
Y-99360D01*
Y-97580D02*
Y-95600D01*
X18540Y-100760D02*
Y-99360D01*
X18440Y-105000D02*
Y-102620D01*
X18420Y-86120D02*
Y-85000D01*
Y-89840D02*
Y-88000D01*
X18520Y-89740D02*
Y-87940D01*
X18420Y-93800D02*
Y-93240D01*
X18540Y-105000D02*
Y-102620D01*
X17900Y-97560D02*
Y-95620D01*
X18520Y-86080D02*
Y-85000D01*
X18680Y-93800D02*
Y-93320D01*
X18540Y-93800D02*
Y-93280D01*
X18400Y-86120D02*
Y-85000D01*
X18420Y-105000D02*
Y-102620D01*
X18400Y-93800D02*
Y-93240D01*
Y-97580D02*
Y-95600D01*
Y-100760D02*
Y-99360D01*
X18380Y-86120D02*
Y-85000D01*
X18400Y-105000D02*
Y-102620D01*
X18380Y-89880D02*
Y-88020D01*
X18360Y-86140D02*
Y-85000D01*
X18380Y-93800D02*
Y-93240D01*
X18360Y-89900D02*
Y-88040D01*
X18380Y-97580D02*
Y-95600D01*
Y-100760D02*
Y-99360D01*
Y-105000D02*
Y-102620D01*
X18460Y-105000D02*
Y-102620D01*
X18360Y-93800D02*
Y-93220D01*
X18540Y-97580D02*
Y-95600D01*
X18440Y-86100D02*
Y-85000D01*
Y-89820D02*
Y-87980D01*
X18460Y-89800D02*
Y-87980D01*
X18480Y-105000D02*
Y-102620D01*
X18440Y-93800D02*
Y-93240D01*
X18460Y-100760D02*
Y-99360D01*
X18440Y-97580D02*
Y-95600D01*
X18480Y-89780D02*
Y-87960D01*
X18460Y-86100D02*
Y-85000D01*
X18480Y-100760D02*
Y-99360D01*
Y-97580D02*
Y-95600D01*
Y-93800D02*
Y-93260D01*
Y-86100D02*
Y-85000D01*
X18500Y-105000D02*
Y-102620D01*
Y-100760D02*
Y-99360D01*
Y-97580D02*
Y-95600D01*
Y-93800D02*
Y-93260D01*
X18460Y-93800D02*
Y-93260D01*
Y-97580D02*
Y-95600D01*
X18520Y-105000D02*
Y-102620D01*
Y-100760D02*
Y-99360D01*
X18500Y-86100D02*
Y-85000D01*
X18520Y-97580D02*
Y-95600D01*
X18500Y-89760D02*
Y-87940D01*
X18440Y-100760D02*
Y-99360D01*
X18400Y-89860D02*
Y-88020D01*
X18320Y-86140D02*
Y-85000D01*
X18520Y-93800D02*
Y-93280D01*
X18340Y-89920D02*
Y-88060D01*
Y-105000D02*
Y-102620D01*
X17960Y-93800D02*
Y-93080D01*
X18340Y-97580D02*
Y-95600D01*
Y-93800D02*
Y-93220D01*
Y-100760D02*
Y-99360D01*
Y-86140D02*
Y-85000D01*
X17960Y-90300D02*
Y-88460D01*
X17980Y-100760D02*
Y-99360D01*
X18000Y-86260D02*
Y-85000D01*
X17940Y-105000D02*
Y-102620D01*
X17960Y-86280D02*
Y-85000D01*
X17940Y-100760D02*
Y-99360D01*
X17920Y-105000D02*
Y-102620D01*
X18060Y-93800D02*
Y-93120D01*
Y-100760D02*
Y-99360D01*
X18120Y-86200D02*
Y-85000D01*
X17960Y-105000D02*
Y-102620D01*
X18100Y-86200D02*
Y-85000D01*
X18140Y-93800D02*
Y-93160D01*
X18080Y-86220D02*
Y-85000D01*
X17920Y-100760D02*
Y-99360D01*
X18100Y-105000D02*
Y-102620D01*
Y-100760D02*
Y-99360D01*
X17920Y-97580D02*
Y-95620D01*
X18080Y-105000D02*
Y-102620D01*
X18040Y-97580D02*
Y-95600D01*
X17980Y-97580D02*
Y-95600D01*
X18120Y-93800D02*
Y-93160D01*
X18060Y-90200D02*
Y-88340D01*
X18040Y-100760D02*
Y-99360D01*
X17920Y-93800D02*
Y-93060D01*
X18100Y-97580D02*
Y-95600D01*
X18140Y-97580D02*
Y-95600D01*
X18000Y-90260D02*
Y-88400D01*
X18140Y-100760D02*
Y-99360D01*
X18060Y-86220D02*
Y-85000D01*
X18080Y-90160D02*
Y-88300D01*
X17900Y-93800D02*
Y-93060D01*
X18080Y-100760D02*
Y-99360D01*
Y-97580D02*
Y-95600D01*
X18120Y-97580D02*
Y-95600D01*
X18140Y-90100D02*
Y-88220D01*
X18080Y-93800D02*
Y-93140D01*
X17900Y-90360D02*
Y-88520D01*
X18020Y-93800D02*
Y-93120D01*
X17920Y-90340D02*
Y-88500D01*
Y-86280D02*
Y-85000D01*
X18100Y-90140D02*
Y-88280D01*
X18060Y-97580D02*
Y-95600D01*
X18100Y-93800D02*
Y-93160D01*
X18140Y-105000D02*
Y-102620D01*
X17900Y-86300D02*
Y-85000D01*
X22820Y-87960D02*
Y-85000D01*
X22680Y-98280D02*
Y-97660D01*
X22660Y-87680D02*
Y-85000D01*
X22680Y-105000D02*
Y-104060D01*
X23040Y-105000D02*
Y-104060D01*
X23020Y-88460D02*
Y-85000D01*
X22820Y-93800D02*
Y-91380D01*
X22840Y-105000D02*
Y-104060D01*
Y-93800D02*
Y-91340D01*
X23040Y-93800D02*
Y-90820D01*
X22840Y-98120D02*
Y-95600D01*
X22860Y-98100D02*
Y-95600D01*
Y-105000D02*
Y-104060D01*
X23040Y-97920D02*
Y-95600D01*
Y-88520D02*
Y-85000D01*
X22840Y-88000D02*
Y-85000D01*
X22680Y-97580D02*
Y-95600D01*
X22860Y-93800D02*
Y-91260D01*
X23020Y-93800D02*
Y-90880D01*
Y-97940D02*
Y-95600D01*
X22820Y-105000D02*
Y-104060D01*
Y-98140D02*
Y-95600D01*
X23020Y-105000D02*
Y-104060D01*
X22800Y-87920D02*
Y-85000D01*
X23000Y-88400D02*
Y-85000D01*
X22800Y-93800D02*
Y-91400D01*
X23000Y-93800D02*
Y-90920D01*
X22800Y-98180D02*
Y-95600D01*
X23000Y-97960D02*
Y-95600D01*
X22800Y-105000D02*
Y-104060D01*
X23000Y-105000D02*
Y-104060D01*
X22780Y-87880D02*
Y-85000D01*
X22980Y-88340D02*
Y-85000D01*
X22780Y-93800D02*
Y-91440D01*
X22980Y-93800D02*
Y-90980D01*
X22780Y-98180D02*
Y-95600D01*
X22980Y-97980D02*
Y-95600D01*
X22780Y-105000D02*
Y-104060D01*
X22980Y-105000D02*
Y-104060D01*
X22760Y-87860D02*
Y-85000D01*
X22960Y-88300D02*
Y-85000D01*
X22760Y-93800D02*
Y-91480D01*
X22960Y-93800D02*
Y-91020D01*
X22760Y-97580D02*
Y-95600D01*
X22960Y-98000D02*
Y-95600D01*
X22760Y-98200D02*
Y-97600D01*
X22960Y-105000D02*
Y-104060D01*
X22760Y-105000D02*
Y-104060D01*
X22940Y-88240D02*
Y-85000D01*
X22740Y-87820D02*
Y-85000D01*
X22940Y-93800D02*
Y-91080D01*
X22740Y-93800D02*
Y-91520D01*
X22940Y-98020D02*
Y-95600D01*
X22740Y-97580D02*
Y-95600D01*
X22940Y-105000D02*
Y-104060D01*
X22740Y-98220D02*
Y-97600D01*
X22920Y-88200D02*
Y-85000D01*
X22740Y-105000D02*
Y-104060D01*
X22920Y-93800D02*
Y-91120D01*
X22720Y-87780D02*
Y-85000D01*
X22920Y-98040D02*
Y-95600D01*
X22720Y-93800D02*
Y-91560D01*
X22920Y-105000D02*
Y-104060D01*
X22720Y-97580D02*
Y-95600D01*
X22900Y-88160D02*
Y-85000D01*
X22720Y-98240D02*
Y-97620D01*
X22900Y-93800D02*
Y-91160D01*
X22720Y-105000D02*
Y-104060D01*
X22900Y-98060D02*
Y-95600D01*
X22700Y-87760D02*
Y-85000D01*
X22900Y-105000D02*
Y-104060D01*
X22700Y-93800D02*
Y-91580D01*
X22880Y-88100D02*
Y-85000D01*
X22700Y-97580D02*
Y-95600D01*
X22880Y-93800D02*
Y-91200D01*
X22700Y-98260D02*
Y-97640D01*
X22880Y-98080D02*
Y-95600D01*
X22700Y-105000D02*
Y-104060D01*
X22880Y-105000D02*
Y-104060D01*
X22680Y-87720D02*
Y-85000D01*
X22860Y-88060D02*
Y-85000D01*
X22680Y-93800D02*
Y-91620D01*
X20760Y-97580D02*
Y-95600D01*
X20720Y-91180D02*
Y-88040D01*
Y-93800D02*
Y-93200D01*
Y-86140D02*
Y-85000D01*
X20760Y-93800D02*
Y-93180D01*
Y-86160D02*
Y-85000D01*
Y-91160D02*
Y-88080D01*
X20740Y-105000D02*
Y-102620D01*
Y-100760D02*
Y-99360D01*
X20780Y-100760D02*
Y-99360D01*
Y-97580D02*
Y-95600D01*
X20740Y-97580D02*
Y-95600D01*
Y-93800D02*
Y-93180D01*
X20780Y-93800D02*
Y-93160D01*
Y-91140D02*
Y-88100D01*
X20740Y-91180D02*
Y-88060D01*
X20760Y-105000D02*
Y-102620D01*
X20780Y-86160D02*
Y-85000D01*
X20800Y-105000D02*
Y-102620D01*
X20760Y-100760D02*
Y-99360D01*
X20800Y-100760D02*
Y-99360D01*
Y-97580D02*
Y-95600D01*
X20780Y-105000D02*
Y-102620D01*
X20740Y-86160D02*
Y-85000D01*
X19840Y-100760D02*
Y-99360D01*
Y-105000D02*
Y-102620D01*
X23060Y-105000D02*
Y-104060D01*
Y-97900D02*
Y-95600D01*
Y-93800D02*
Y-90760D01*
Y-88580D02*
Y-85000D01*
X23080Y-105000D02*
Y-104060D01*
Y-97900D02*
Y-95600D01*
Y-93800D02*
Y-90700D01*
Y-88640D02*
Y-85000D01*
X23100Y-105000D02*
Y-104060D01*
Y-97880D02*
Y-95600D01*
Y-93800D02*
Y-90620D01*
Y-88720D02*
Y-85000D01*
X23120Y-105000D02*
Y-104060D01*
Y-97860D02*
Y-95600D01*
Y-93800D02*
Y-90540D01*
Y-88800D02*
Y-85000D01*
X23140Y-105000D02*
Y-104060D01*
Y-97840D02*
Y-95600D01*
Y-93800D02*
Y-90460D01*
Y-88880D02*
Y-85000D01*
X23160Y-105000D02*
Y-104060D01*
Y-97820D02*
Y-95600D01*
Y-93800D02*
Y-90340D01*
Y-88980D02*
Y-85000D01*
X23180Y-105000D02*
Y-104060D01*
Y-97800D02*
Y-95600D01*
Y-93800D02*
Y-90240D01*
Y-89100D02*
Y-85000D01*
X23200Y-105000D02*
Y-90080D01*
Y-89260D02*
Y-85000D01*
X23220Y-105000D02*
Y-89860D01*
Y-89480D02*
Y-85000D01*
X23240Y-105000D02*
Y-85000D01*
X23260Y-105000D02*
Y-85000D01*
X23280Y-105000D02*
Y-85000D01*
X23300Y-105000D02*
Y-85000D01*
X23320Y-105000D02*
Y-85000D01*
X23340Y-105000D02*
Y-85000D01*
X23360Y-105000D02*
Y-85000D01*
X23380Y-105000D02*
Y-85000D01*
X23400Y-105000D02*
Y-85000D01*
X23420Y-105000D02*
Y-85000D01*
X23440Y-105000D02*
Y-85000D01*
X23480Y-105000D02*
Y-85000D01*
X23500Y-105000D02*
Y-85000D01*
X23520Y-105000D02*
Y-85000D01*
X23540Y-105000D02*
Y-85000D01*
X23560Y-105000D02*
Y-85000D01*
X23580Y-105000D02*
Y-85000D01*
X23600Y-105000D02*
Y-85000D01*
X23620Y-105000D02*
Y-85000D01*
X23640Y-105000D02*
Y-85000D01*
X23660Y-105000D02*
Y-85000D01*
X23680Y-105000D02*
Y-85000D01*
X23700Y-105000D02*
Y-85000D01*
X23720Y-105000D02*
Y-85000D01*
X23740Y-105000D02*
Y-85000D01*
X23760Y-105000D02*
Y-85000D01*
X23780Y-105000D02*
Y-85000D01*
X23800Y-105000D02*
Y-85000D01*
X23820Y-105000D02*
Y-85000D01*
X23840Y-105000D02*
Y-85000D01*
X23860Y-105000D02*
Y-85000D01*
X23880Y-105000D02*
Y-85000D01*
X23900Y-105000D02*
Y-85000D01*
X23920Y-105000D02*
Y-85000D01*
X23940Y-105000D02*
Y-85000D01*
X23960Y-105000D02*
Y-85000D01*
X23980Y-105000D02*
Y-85000D01*
X24000Y-105000D02*
Y-85000D01*
X24020Y-105000D02*
Y-85000D01*
X24040Y-105000D02*
Y-85000D01*
X24060Y-105000D02*
Y-85000D01*
X24080Y-105000D02*
Y-85000D01*
X24100Y-105000D02*
Y-85000D01*
X24120Y-105000D02*
Y-85000D01*
X24140Y-105000D02*
Y-85000D01*
X24160Y-105000D02*
Y-85000D01*
X24180Y-105000D02*
Y-85000D01*
X24200Y-105000D02*
Y-85000D01*
X24220Y-105000D02*
Y-85000D01*
X24240Y-105000D02*
Y-85000D01*
X24260Y-105000D02*
Y-85000D01*
X24280Y-105000D02*
Y-85000D01*
X24300Y-105000D02*
Y-85000D01*
X24320Y-105000D02*
Y-85000D01*
X24340Y-105000D02*
Y-85000D01*
X24360Y-105000D02*
Y-85000D01*
X24380Y-105000D02*
Y-85000D01*
X24400Y-105000D02*
Y-85000D01*
X24420Y-105000D02*
Y-85000D01*
X24440Y-105000D02*
Y-85000D01*
X24460Y-105000D02*
Y-85000D01*
X24480Y-105000D02*
Y-85000D01*
X24500Y-105000D02*
Y-85000D01*
X24520Y-105000D02*
Y-85000D01*
X24540Y-105000D02*
Y-85000D01*
X24560Y-105000D02*
Y-85000D01*
X24580Y-105000D02*
Y-85000D01*
X24600Y-105000D02*
Y-85000D01*
X24620Y-105000D02*
Y-85000D01*
X24640Y-105000D02*
Y-85000D01*
X24660Y-105000D02*
Y-85000D01*
X24680Y-105000D02*
Y-85000D01*
X24700Y-105000D02*
Y-85000D01*
X24720Y-105000D02*
Y-85000D01*
X24740Y-105000D02*
Y-85000D01*
X24760Y-105000D02*
Y-85000D01*
X24780Y-105000D02*
Y-85000D01*
X24800Y-105000D02*
Y-85000D01*
X24820Y-105000D02*
Y-85000D01*
X24840Y-105000D02*
Y-85000D01*
X24860Y-105000D02*
Y-85000D01*
X24880Y-105000D02*
Y-85000D01*
X24900Y-105000D02*
Y-85000D01*
X24920Y-105000D02*
Y-85000D01*
X24940Y-105000D02*
Y-85000D01*
X24960Y-105000D02*
Y-85000D01*
X24980Y-105000D02*
Y-85000D01*
X25000Y-105000D02*
Y-85000D01*
X25020Y-105000D02*
Y-85000D01*
X25040Y-105000D02*
Y-85000D01*
X25060Y-105000D02*
Y-85000D01*
X23460Y-105000D02*
Y-85000D01*
X25140Y-105000D02*
Y-85000D01*
X25100Y-105000D02*
Y-85000D01*
X25120Y-105000D02*
Y-85000D01*
X25080Y-105000D02*
Y-85000D01*
X25160Y-105000D02*
Y-85000D01*
X7360Y-105000D02*
Y-85000D01*
X7800Y-105000D02*
Y-85000D01*
X5940Y-105000D02*
Y-85000D01*
X7700Y-105000D02*
Y-85000D01*
X8480Y-105000D02*
Y-85000D01*
X8680Y-105000D02*
Y-85000D01*
X6300Y-105000D02*
Y-85000D01*
X8040Y-105000D02*
Y-85000D01*
X6140Y-105000D02*
Y-85000D01*
X5960Y-105000D02*
Y-85000D01*
X6620Y-105000D02*
Y-85000D01*
X6720Y-105000D02*
Y-85000D01*
X6320Y-105000D02*
Y-85000D01*
X8960Y-105000D02*
Y-85000D01*
X7840Y-105000D02*
Y-85000D01*
X6600Y-105000D02*
Y-85000D01*
X6840Y-105000D02*
Y-85000D01*
X6220Y-105000D02*
Y-85000D01*
X6780Y-105000D02*
Y-85000D01*
X8780Y-105000D02*
Y-85000D01*
X6380Y-105000D02*
Y-85000D01*
X5720Y-105000D02*
Y-85000D01*
X7020Y-105000D02*
Y-85000D01*
X7420Y-105000D02*
Y-85000D01*
X8420Y-105000D02*
Y-85000D01*
X7900Y-105000D02*
Y-85000D01*
X7740Y-105000D02*
Y-85000D01*
X5700Y-105000D02*
Y-85000D01*
X7520Y-105000D02*
Y-85000D01*
X8700Y-105000D02*
Y-85000D01*
X6820Y-105000D02*
Y-85000D01*
X6560Y-105000D02*
Y-85000D01*
X8840Y-105000D02*
Y-85000D01*
X8620Y-105000D02*
Y-85000D01*
X7660Y-105000D02*
Y-85000D01*
X8080Y-105000D02*
Y-85000D01*
X6200Y-105000D02*
Y-85000D01*
X6400Y-105000D02*
Y-85000D01*
X8180Y-105000D02*
Y-85000D01*
X6260Y-105000D02*
Y-85000D01*
X7400Y-105000D02*
Y-85000D01*
X6740Y-105000D02*
Y-85000D01*
X7480Y-105000D02*
Y-85000D01*
X7720Y-105000D02*
Y-85000D01*
X5980Y-105000D02*
Y-85000D01*
X8520Y-105000D02*
Y-85000D01*
X6800Y-105000D02*
Y-85000D01*
X8640Y-105000D02*
Y-85000D01*
X7500Y-105000D02*
Y-85000D01*
X5760Y-105000D02*
Y-85000D01*
X6640Y-105000D02*
Y-85000D01*
X6480Y-105000D02*
Y-85000D01*
X6120Y-105000D02*
Y-85000D01*
X6420Y-105000D02*
Y-85000D01*
X7080Y-105000D02*
Y-85000D01*
X7160Y-105000D02*
Y-85000D01*
X7760Y-105000D02*
Y-85000D01*
X6040Y-105000D02*
Y-85000D01*
X5880Y-105000D02*
Y-85000D01*
X7440Y-105000D02*
Y-85000D01*
X8500Y-105000D02*
Y-85000D01*
X6860Y-105000D02*
Y-85000D01*
X8920Y-105000D02*
Y-85000D01*
X8240Y-105000D02*
Y-85000D01*
X7460Y-105000D02*
Y-85000D01*
X8020Y-105000D02*
Y-85000D01*
X6340Y-105000D02*
Y-85000D01*
X6580Y-105000D02*
Y-85000D01*
X8200Y-105000D02*
Y-85000D01*
X7200Y-105000D02*
Y-85000D01*
X7620Y-105000D02*
Y-85000D01*
X8540Y-105000D02*
Y-85000D01*
X7980Y-105000D02*
Y-85000D01*
X7040Y-105000D02*
Y-85000D01*
X6980Y-105000D02*
Y-85000D01*
X8340Y-105000D02*
Y-85000D01*
X8740Y-105000D02*
Y-85000D01*
X6440Y-105000D02*
Y-85000D01*
X6280Y-105000D02*
Y-85000D01*
X8100Y-105000D02*
Y-85000D01*
X8160Y-105000D02*
Y-85000D01*
X6060Y-105000D02*
Y-85000D01*
X8900Y-105000D02*
Y-85000D01*
X7880Y-105000D02*
Y-85000D01*
X7560Y-105000D02*
Y-85000D01*
X6700Y-105000D02*
Y-85000D01*
X7860Y-105000D02*
Y-85000D01*
X5840Y-105000D02*
Y-85000D01*
X5860Y-105000D02*
Y-85000D01*
X7820Y-105000D02*
Y-85000D01*
X8320Y-105000D02*
Y-85000D01*
X7060Y-105000D02*
Y-85000D01*
X8660Y-105000D02*
Y-85000D01*
X7920Y-105000D02*
Y-85000D01*
X8380Y-105000D02*
Y-85000D01*
X6880Y-105000D02*
Y-85000D01*
X6960Y-105000D02*
Y-85000D01*
X7940Y-105000D02*
Y-85000D01*
X8600Y-105000D02*
Y-85000D01*
X8260Y-105000D02*
Y-85000D01*
X8120Y-105000D02*
Y-85000D01*
X6520Y-105000D02*
Y-85000D01*
X7280Y-105000D02*
Y-85000D01*
X6020Y-105000D02*
Y-85000D01*
X8860Y-105000D02*
Y-85000D01*
X6500Y-105000D02*
Y-85000D01*
X7640Y-105000D02*
Y-85000D01*
X6940Y-105000D02*
Y-85000D01*
X6180Y-105000D02*
Y-85000D01*
X6000Y-105000D02*
Y-85000D01*
X7540Y-105000D02*
Y-85000D01*
X5740Y-105000D02*
Y-85000D01*
X7180Y-105000D02*
Y-85000D01*
X5780Y-105000D02*
Y-85000D01*
X6100Y-105000D02*
Y-85000D01*
X5900Y-105000D02*
Y-85000D01*
X7100Y-105000D02*
Y-85000D01*
X6540Y-105000D02*
Y-85000D01*
X7120Y-105000D02*
Y-85000D01*
X6920Y-105000D02*
Y-85000D01*
X6760Y-105000D02*
Y-85000D01*
X8820Y-105000D02*
Y-85000D01*
X7680Y-105000D02*
Y-85000D01*
X8400Y-105000D02*
Y-85000D01*
X8060Y-105000D02*
Y-85000D01*
X6360Y-105000D02*
Y-85000D01*
X8140Y-105000D02*
Y-85000D01*
X7780Y-105000D02*
Y-85000D01*
X8360Y-105000D02*
Y-85000D01*
X7240Y-105000D02*
Y-85000D01*
X6240Y-105000D02*
Y-85000D01*
X7380Y-105000D02*
Y-85000D01*
X6680Y-105000D02*
Y-85000D01*
X7220Y-105000D02*
Y-85000D01*
X8760Y-105000D02*
Y-85000D01*
X5920Y-105000D02*
Y-85000D01*
X7260Y-105000D02*
Y-85000D01*
X8280Y-105000D02*
Y-85000D01*
X8300Y-105000D02*
Y-85000D01*
X8880Y-105000D02*
Y-85000D01*
X6460Y-105000D02*
Y-85000D01*
X8580Y-105000D02*
Y-85000D01*
X6900Y-105000D02*
Y-85000D01*
X5800Y-105000D02*
Y-85000D01*
X7320Y-105000D02*
Y-85000D01*
X7580Y-105000D02*
Y-85000D01*
X8440Y-105000D02*
Y-85000D01*
X7000Y-105000D02*
Y-85000D01*
X7600Y-105000D02*
Y-85000D01*
X6080Y-105000D02*
Y-85000D01*
X7960Y-105000D02*
Y-85000D01*
X7340Y-105000D02*
Y-85000D01*
X7140Y-105000D02*
Y-85000D01*
X7300Y-105000D02*
Y-85000D01*
X8000Y-105000D02*
Y-85000D01*
X8560Y-105000D02*
Y-85000D01*
X6660Y-105000D02*
Y-85000D01*
X8940Y-105000D02*
Y-85000D01*
X5820Y-105000D02*
Y-85000D01*
X8460Y-105000D02*
Y-85000D01*
X8220Y-105000D02*
Y-85000D01*
X8720Y-105000D02*
Y-85000D01*
X8800Y-105000D02*
Y-85000D01*
X6160Y-105000D02*
Y-85000D01*
X21560Y-93800D02*
Y-92760D01*
X21180Y-90720D02*
Y-88520D01*
Y-86340D02*
Y-85000D01*
X21560Y-86560D02*
Y-85000D01*
X21200Y-105000D02*
Y-102620D01*
X21580Y-105000D02*
Y-104060D01*
X21200Y-100760D02*
Y-99060D01*
X21580Y-99340D02*
Y-98700D01*
X21200Y-97580D02*
Y-95600D01*
X21580Y-97580D02*
Y-95600D01*
X21200Y-93800D02*
Y-92980D01*
X21580Y-93800D02*
Y-92760D01*
X21200Y-90680D02*
Y-88520D01*
X21580Y-86580D02*
Y-85000D01*
X21200Y-86360D02*
Y-85000D01*
X21600Y-105000D02*
Y-104060D01*
X21220Y-105000D02*
Y-102620D01*
X21600Y-99320D02*
Y-98680D01*
X21220Y-100760D02*
Y-99040D01*
X21600Y-97580D02*
Y-95600D01*
X21220Y-97580D02*
Y-95600D01*
X21600Y-93800D02*
Y-92740D01*
X21220Y-93800D02*
Y-92980D01*
X21600Y-86600D02*
Y-85000D01*
X21220Y-90660D02*
Y-88560D01*
X21620Y-105000D02*
Y-104060D01*
X21220Y-86360D02*
Y-85000D01*
X21620Y-99300D02*
Y-98660D01*
X21240Y-105000D02*
Y-102620D01*
X21620Y-97580D02*
Y-95600D01*
X21240Y-100760D02*
Y-99020D01*
X21620Y-93800D02*
Y-92720D01*
X21240Y-97580D02*
Y-95600D01*
X21620Y-86600D02*
Y-85000D01*
X21240Y-93800D02*
Y-92960D01*
X21640Y-105000D02*
Y-104060D01*
X21240Y-90620D02*
Y-88580D01*
X21640Y-99260D02*
Y-98640D01*
X21240Y-86380D02*
Y-85000D01*
X21640Y-97580D02*
Y-95600D01*
X21260Y-105000D02*
Y-102620D01*
X21640Y-93800D02*
Y-92720D01*
X21260Y-100760D02*
Y-99000D01*
X21640Y-86620D02*
Y-85000D01*
X21260Y-97580D02*
Y-95600D01*
X21660Y-105000D02*
Y-104060D01*
X21260Y-93800D02*
Y-92940D01*
X21660Y-99240D02*
Y-98620D01*
X21260Y-90580D02*
Y-88620D01*
X21660Y-97580D02*
Y-95600D01*
X21260Y-86380D02*
Y-85000D01*
X21660Y-93800D02*
Y-92700D01*
X21280Y-105000D02*
Y-102620D01*
X21660Y-86640D02*
Y-85000D01*
X21280Y-100760D02*
Y-98980D01*
X21680Y-105000D02*
Y-104060D01*
X21280Y-97580D02*
Y-95600D01*
X21680Y-99220D02*
Y-98600D01*
X21280Y-93800D02*
Y-92940D01*
X21680Y-97580D02*
Y-95600D01*
X21280Y-90560D02*
Y-88640D01*
X21680Y-93800D02*
Y-92680D01*
X21280Y-86400D02*
Y-85000D01*
X21680Y-86640D02*
Y-85000D01*
X21300Y-105000D02*
Y-102620D01*
X21700Y-105000D02*
Y-104060D01*
X21300Y-100760D02*
Y-98980D01*
X21700Y-99200D02*
Y-98580D01*
X21300Y-97580D02*
Y-95600D01*
X21700Y-97580D02*
Y-95600D01*
X21300Y-93800D02*
Y-92920D01*
X21700Y-93800D02*
Y-92660D01*
X21300Y-90520D02*
Y-88680D01*
X21700Y-86680D02*
Y-85000D01*
X21300Y-86400D02*
Y-85000D01*
X21720Y-105000D02*
Y-104060D01*
X21320Y-105000D02*
Y-102620D01*
X21720Y-99180D02*
Y-98560D01*
X21320Y-100760D02*
Y-98960D01*
X21720Y-97580D02*
Y-95600D01*
X21320Y-97580D02*
Y-95600D01*
X21720Y-93800D02*
Y-92640D01*
X21320Y-93800D02*
Y-92920D01*
X21720Y-86700D02*
Y-85000D01*
X21320Y-90480D02*
Y-88720D01*
X21740Y-105000D02*
Y-104060D01*
X21320Y-86420D02*
Y-85000D01*
X21740Y-99160D02*
Y-98540D01*
X21340Y-105000D02*
Y-102620D01*
X21740Y-97580D02*
Y-95600D01*
X21340Y-100760D02*
Y-98940D01*
X21740Y-93800D02*
Y-92620D01*
X21340Y-97580D02*
Y-95600D01*
X21740Y-86700D02*
Y-85000D01*
X21340Y-93800D02*
Y-92900D01*
X21760Y-105000D02*
Y-104060D01*
X21340Y-90440D02*
Y-88760D01*
X21760Y-99140D02*
Y-98520D01*
X21340Y-86420D02*
Y-85000D01*
X21760Y-97580D02*
Y-95600D01*
X21360Y-105000D02*
Y-102620D01*
X21760Y-93800D02*
Y-92620D01*
X21360Y-100760D02*
Y-98920D01*
X21760Y-86720D02*
Y-85000D01*
X21360Y-97580D02*
Y-95600D01*
X21780Y-105000D02*
Y-104060D01*
X21360Y-93800D02*
Y-92900D01*
X21780Y-99120D02*
Y-98500D01*
X21360Y-90380D02*
Y-88800D01*
X21780Y-97580D02*
Y-95600D01*
X21360Y-86440D02*
Y-85000D01*
X21780Y-93800D02*
Y-92600D01*
X21380Y-105000D02*
Y-102620D01*
X21780Y-86740D02*
Y-85000D01*
X21380Y-100760D02*
Y-98900D01*
X21800Y-105000D02*
Y-104060D01*
X21380Y-97580D02*
Y-95600D01*
X21800Y-99100D02*
Y-98480D01*
X21380Y-93800D02*
Y-92880D01*
X21800Y-97580D02*
Y-95600D01*
X21380Y-90340D02*
Y-88840D01*
X21800Y-93800D02*
Y-92580D01*
X21380Y-86460D02*
Y-85000D01*
X21800Y-86760D02*
Y-85000D01*
X21400Y-105000D02*
Y-102620D01*
X21820Y-105000D02*
Y-104060D01*
X21400Y-100760D02*
Y-98880D01*
X21820Y-99080D02*
Y-98460D01*
X21400Y-97580D02*
Y-95600D01*
X21820Y-97580D02*
Y-95600D01*
X21400Y-93800D02*
Y-92860D01*
X21820Y-93800D02*
Y-92560D01*
X21400Y-90280D02*
Y-88900D01*
X21820Y-86760D02*
Y-85000D01*
X21400Y-86460D02*
Y-85000D01*
X21840Y-105000D02*
Y-104060D01*
X21420Y-105000D02*
Y-104060D01*
X21840Y-99080D02*
Y-98440D01*
X21420Y-99500D02*
Y-98860D01*
X21840Y-97580D02*
Y-95600D01*
X21420Y-97580D02*
Y-95600D01*
X21840Y-93800D02*
Y-92540D01*
X21420Y-93800D02*
Y-92860D01*
X21840Y-86780D02*
Y-85000D01*
X21420Y-90240D02*
Y-88960D01*
X21860Y-105000D02*
Y-104060D01*
X21420Y-86480D02*
Y-85000D01*
X21860Y-99080D02*
Y-98420D01*
X21440Y-105000D02*
Y-104060D01*
X21860Y-97580D02*
Y-95600D01*
X21440Y-99480D02*
Y-98840D01*
X21860Y-93800D02*
Y-92540D01*
X21440Y-97580D02*
Y-95600D01*
X21860Y-86800D02*
Y-85000D01*
X21440Y-93800D02*
Y-92840D01*
X21880Y-105000D02*
Y-104060D01*
X21440Y-90180D02*
Y-89020D01*
X21880Y-99060D02*
Y-98400D01*
X21440Y-86480D02*
Y-85000D01*
X21880Y-97580D02*
Y-95600D01*
X21460Y-105000D02*
Y-104060D01*
X21880Y-93800D02*
Y-92520D01*
X21460Y-99460D02*
Y-98820D01*
X21880Y-86820D02*
Y-85000D01*
X21460Y-97580D02*
Y-95600D01*
X21900Y-105000D02*
Y-104060D01*
X21460Y-93800D02*
Y-92840D01*
X21900Y-99040D02*
Y-98380D01*
X21460Y-90100D02*
Y-89080D01*
X21900Y-97580D02*
Y-95600D01*
X21460Y-86500D02*
Y-85000D01*
X21900Y-93800D02*
Y-92500D01*
X21480Y-105000D02*
Y-104060D01*
X21900Y-86840D02*
Y-85000D01*
X21480Y-99440D02*
Y-98800D01*
X21920Y-105000D02*
Y-104060D01*
X21480Y-97580D02*
Y-95600D01*
X21920Y-99020D02*
Y-98360D01*
X21480Y-93800D02*
Y-92820D01*
X21920Y-97580D02*
Y-95600D01*
X21480Y-90020D02*
Y-89160D01*
X21920Y-93800D02*
Y-92480D01*
X21480Y-86520D02*
Y-85000D01*
X21920Y-86860D02*
Y-85000D01*
X21500Y-105000D02*
Y-104060D01*
X21940Y-105000D02*
Y-104060D01*
X21500Y-99420D02*
Y-98780D01*
X21940Y-99000D02*
Y-98340D01*
X21500Y-97580D02*
Y-95600D01*
X21940Y-97580D02*
Y-95600D01*
X21500Y-93800D02*
Y-92800D01*
X21940Y-93800D02*
Y-92460D01*
X21500Y-89900D02*
Y-89260D01*
X21940Y-86860D02*
Y-85000D01*
X21500Y-86520D02*
Y-85000D01*
X21960Y-105000D02*
Y-104060D01*
X21520Y-105000D02*
Y-104060D01*
X21960Y-98980D02*
Y-98320D01*
X21520Y-99400D02*
Y-98760D01*
X21960Y-97580D02*
Y-95600D01*
X21520Y-97580D02*
Y-95600D01*
X21960Y-93800D02*
Y-92440D01*
X21520Y-93800D02*
Y-92800D01*
X21960Y-86880D02*
Y-85000D01*
X21520Y-89740D02*
Y-89420D01*
X21980Y-105000D02*
Y-104060D01*
X21520Y-86540D02*
Y-85000D01*
X21980Y-98960D02*
Y-98300D01*
X21540Y-105000D02*
Y-104060D01*
X21980Y-97580D02*
Y-95600D01*
X21540Y-99380D02*
Y-98740D01*
X21980Y-93800D02*
Y-92420D01*
X21540Y-97580D02*
Y-95600D01*
X21980Y-86900D02*
Y-85000D01*
X21540Y-93800D02*
Y-92780D01*
X22000Y-105000D02*
Y-104060D01*
X21540Y-86560D02*
Y-85000D01*
X22000Y-98940D02*
Y-98280D01*
X21560Y-105000D02*
Y-104060D01*
X22000Y-97580D02*
Y-95600D01*
X21560Y-99360D02*
Y-98720D01*
X22000Y-93800D02*
Y-92420D01*
X21560Y-97580D02*
Y-95600D01*
X22000Y-86920D02*
Y-85000D01*
X21080Y-93800D02*
Y-93040D01*
Y-97580D02*
Y-95600D01*
X21180Y-93800D02*
Y-93000D01*
X21080Y-100760D02*
Y-99160D01*
X21180Y-97580D02*
Y-95600D01*
X21080Y-105000D02*
Y-102620D01*
X21180Y-100760D02*
Y-99080D01*
X21060Y-86280D02*
Y-85000D01*
X21180Y-105000D02*
Y-102620D01*
X21060Y-90860D02*
Y-88360D01*
X21160Y-86340D02*
Y-85000D01*
X21060Y-93800D02*
Y-93060D01*
X21160Y-90740D02*
Y-88480D01*
X21060Y-97580D02*
Y-95600D01*
X21160Y-93800D02*
Y-93000D01*
X21060Y-100760D02*
Y-99180D01*
X21160Y-97580D02*
Y-95600D01*
X21060Y-105000D02*
Y-102620D01*
X21160Y-100760D02*
Y-99100D01*
X21040Y-86280D02*
Y-85000D01*
X21160Y-105000D02*
Y-102620D01*
X21040Y-90880D02*
Y-88340D01*
X21140Y-86320D02*
Y-85000D01*
X21040Y-93800D02*
Y-93060D01*
X21140Y-90780D02*
Y-88460D01*
X21040Y-97580D02*
Y-95600D01*
X21140Y-93800D02*
Y-93020D01*
X21040Y-100760D02*
Y-99200D01*
X21140Y-97580D02*
Y-95600D01*
X21040Y-105000D02*
Y-102620D01*
X21140Y-100760D02*
Y-99120D01*
X21020Y-86260D02*
Y-85000D01*
X21140Y-105000D02*
Y-102620D01*
X21020Y-90900D02*
Y-88320D01*
X21120Y-86320D02*
Y-85000D01*
X21020Y-93800D02*
Y-93060D01*
X21120Y-90800D02*
Y-88440D01*
X21020Y-97580D02*
Y-95600D01*
X21120Y-93800D02*
Y-93020D01*
X21020Y-100760D02*
Y-99220D01*
X21120Y-97580D02*
Y-95600D01*
X21020Y-105000D02*
Y-102620D01*
X21120Y-100760D02*
Y-99120D01*
X21000Y-86260D02*
Y-85000D01*
X21120Y-105000D02*
Y-102620D01*
X21000Y-90920D02*
Y-88300D01*
X21100Y-86300D02*
Y-85000D01*
X21000Y-93800D02*
Y-93080D01*
X21100Y-90820D02*
Y-88400D01*
X21000Y-97580D02*
Y-95600D01*
X21100Y-93800D02*
Y-93040D01*
X21000Y-100760D02*
Y-99240D01*
X21100Y-97580D02*
Y-95600D01*
X21000Y-105000D02*
Y-102620D01*
X21100Y-100760D02*
Y-99140D01*
X20980Y-86240D02*
Y-85000D01*
X21100Y-105000D02*
Y-102620D01*
X20980Y-90960D02*
Y-88280D01*
Y-100760D02*
Y-99260D01*
Y-97580D02*
Y-95600D01*
X21080Y-90840D02*
Y-88380D01*
X20980Y-93800D02*
Y-93080D01*
X21080Y-86300D02*
Y-85000D01*
X22280Y-98660D02*
Y-98020D01*
X22240Y-98700D02*
Y-98060D01*
Y-93800D02*
Y-92180D01*
X22040Y-86960D02*
Y-85000D01*
X22240Y-97580D02*
Y-95600D01*
X22020Y-97580D02*
Y-95600D01*
Y-93800D02*
Y-92400D01*
X22040Y-93800D02*
Y-92380D01*
X22260Y-93800D02*
Y-92160D01*
X22040Y-97580D02*
Y-95600D01*
X22260Y-97580D02*
Y-95600D01*
X22040Y-98900D02*
Y-98260D01*
X22260Y-98680D02*
Y-98040D01*
X22040Y-105000D02*
Y-104060D01*
X22260Y-105000D02*
Y-104060D01*
X22020Y-86940D02*
Y-85000D01*
Y-105000D02*
Y-104060D01*
Y-98920D02*
Y-98280D01*
X22120Y-93800D02*
Y-92300D01*
X22340Y-93800D02*
Y-92060D01*
X22320Y-87240D02*
Y-85000D01*
X22120Y-97580D02*
Y-95600D01*
X22280Y-93800D02*
Y-92120D01*
Y-97580D02*
Y-95600D01*
X22320Y-98640D02*
Y-97980D01*
X22300Y-97580D02*
Y-95600D01*
Y-87220D02*
Y-85000D01*
X22080Y-97580D02*
Y-95600D01*
X22300Y-93800D02*
Y-92100D01*
X22080Y-87000D02*
Y-85000D01*
Y-93800D02*
Y-92340D01*
X22440Y-105000D02*
Y-104060D01*
X22220Y-105000D02*
Y-104060D01*
X22440Y-98520D02*
Y-97900D01*
X22080Y-105000D02*
Y-104060D01*
X22320Y-105000D02*
Y-104060D01*
X22300Y-98640D02*
Y-98000D01*
X22080Y-98860D02*
Y-98220D01*
X22100Y-105000D02*
Y-104060D01*
X22200Y-87120D02*
Y-85000D01*
Y-105000D02*
Y-104060D01*
X22180Y-87100D02*
Y-85000D01*
X22320Y-93800D02*
Y-92080D01*
X22100Y-97580D02*
Y-95600D01*
X22400Y-87320D02*
Y-85000D01*
X22380Y-98580D02*
Y-97940D01*
X22420Y-93800D02*
Y-91980D01*
X22180Y-93800D02*
Y-92240D01*
X22140Y-98800D02*
Y-98160D01*
X22160Y-98780D02*
Y-98140D01*
X22380Y-97580D02*
Y-95600D01*
X22400Y-98560D02*
Y-97940D01*
X22180Y-98760D02*
Y-98120D01*
X22400Y-97580D02*
Y-95600D01*
X22200Y-98740D02*
Y-98100D01*
X22400Y-93800D02*
Y-92000D01*
X22180Y-97580D02*
Y-95600D01*
Y-105000D02*
Y-104060D01*
X22380Y-105000D02*
Y-104060D01*
X22140Y-87060D02*
Y-85000D01*
X22420Y-98540D02*
Y-97920D01*
Y-97580D02*
Y-95600D01*
X22160Y-87080D02*
Y-85000D01*
Y-105000D02*
Y-104060D01*
X22360Y-105000D02*
Y-104060D01*
X22120Y-87040D02*
Y-85000D01*
X22060Y-86980D02*
Y-85000D01*
X22100Y-87020D02*
Y-85000D01*
X22360Y-93800D02*
Y-92060D01*
X22320Y-97580D02*
Y-95600D01*
X22200Y-93800D02*
Y-92220D01*
X22100Y-93800D02*
Y-92320D01*
X22060Y-98880D02*
Y-98240D01*
X22240Y-105000D02*
Y-104060D01*
X22460Y-105000D02*
Y-104060D01*
X22340Y-87280D02*
Y-85000D01*
X22440Y-87380D02*
Y-85000D01*
X22280Y-87200D02*
Y-85000D01*
X22340Y-105000D02*
Y-104060D01*
X22140Y-97580D02*
Y-95600D01*
X22060Y-93800D02*
Y-92360D01*
X22220Y-93800D02*
Y-92200D01*
X22120Y-105000D02*
Y-104060D01*
X22360Y-97580D02*
Y-95600D01*
X22100Y-98840D02*
Y-98200D01*
X22420Y-87340D02*
Y-85000D01*
X22220Y-98720D02*
Y-98080D01*
X22200Y-97580D02*
Y-95600D01*
X22340Y-98620D02*
Y-97960D01*
X22120Y-98820D02*
Y-98180D01*
X22140Y-105000D02*
Y-104060D01*
X22340Y-97580D02*
Y-95600D01*
X22360Y-98600D02*
Y-97940D01*
X22060Y-97580D02*
Y-95600D01*
X22440Y-97580D02*
Y-95600D01*
X22300Y-105000D02*
Y-104060D01*
X22220Y-97580D02*
Y-95600D01*
Y-87140D02*
Y-85000D01*
X22440Y-93800D02*
Y-91960D01*
X22160Y-97580D02*
Y-95600D01*
X22380Y-93800D02*
Y-92040D01*
X22140Y-93800D02*
Y-92280D01*
X22360Y-87280D02*
Y-85000D01*
X22420Y-105000D02*
Y-104060D01*
X22380Y-87300D02*
Y-85000D01*
X22400Y-105000D02*
Y-104060D01*
X22160Y-93800D02*
Y-92260D01*
X22260Y-87180D02*
Y-85000D01*
X22280Y-105000D02*
Y-104060D01*
X22240Y-87160D02*
Y-85000D01*
X22060Y-105000D02*
Y-104060D01*
D33*
X85000Y-10236D02*
Y69764D01*
X105000Y-10236D02*
Y69764D01*
X85000Y-10236D02*
X105000D01*
X85000Y69764D02*
X105000D01*
X23307Y5906D02*
Y6693D01*
X24094D01*
X23307Y-6693D02*
Y-5906D01*
Y-6693D02*
X24094D01*
X35906D02*
X36693D01*
Y-5906D01*
Y5906D02*
Y6693D01*
X35906D02*
X36693D01*
M02*
