M48
;Layer_Color=9474304
;FILE_FORMAT=2:5
INCH,LZ
;TYPE=PLATED
T1F00S00C0.01500
T2F00S00C0.02000
T3F00S00C0.03000
T4F00S00C0.03543
;TYPE=NON_PLATED
T5F00S00C0.11811
%
T01
X0015Y-0000787
X0017638Y0002362
X003Y-0011
X0045Y-0005362
Y-0001213
X0052Y0002362
T02
X007Y-008
X008
X009
X01
X0098614Y-0055614
X0074Y-0041
X007
X0066
X0062
X0070339Y-0025
X0109858Y-0102858
X-0063Y-0046276
Y-004
Y0039764
Y0046
X0065Y0045
T03
X0005Y-0015
Y-0005
Y0005
X0025Y-0015
X0035
X0045
X0065
Y-0005
Y0005
X-0015Y0068898
X-0025
X-0035
X-0045
X0005Y0015
X0065
T04
X009Y-0005236
Y0004764
X01
Y-0005236
Y0014764
Y0024764
Y0034764
Y0044764
Y0054764
Y0064764
X009
Y0054764
Y0044764
Y0034764
Y0024764
Y0014764
T05
X0157126Y-0096063
X-007122
Y009685
X0157126
M30
